<svg xmlns="http://www.w3.org/2000/svg" width="100%" height="100%" viewBox="0 0 100 100" preserveAspectRatio="none">
  <path d="M 44.856,33.08 L 50.114,31.48 L 52.172,31.023 L 55.144,30.337 L 61.775,28.279 L 66.119,26.907 L 70.464,25.764 L 70.921,25.764 L 72.521,26.45 L 73.436,26.678 L 72.75,28.508 L 67.948,39.025 L 64.29,47.256 L 56.745,63.719 L 54.687,68.749 L 52.401,74.236 L 51.943,74.007 L 55.373,66.234 L 55.602,66.005 L 59.946,56.631 L 40.283,47.942 L 32.737,65.319 L 32.052,65.09 L 32.052,65.09 L 26.564,62.804 L 26.793,62.118 L 27.021,61.432 L 29.308,56.402 L 31.366,51.6 L 31.594,50.915 L 31.823,50.915 L 33.881,46.113 L 35.253,43.369 L 36.167,41.083 L 38.911,35.138 L 39.368,34.224 L 40.054,34.452 L 40.969,34.224 L 44.856,33.08 Z" fill="rgba(59,130,246,0.25)" fill-rule="evenodd" stroke="rgba(59,130,246,0.9)" stroke-width="0.3" stroke-linejoin="round"/>
</svg>
