<svg xmlns="http://www.w3.org/2000/svg" width="100%" height="100%" viewBox="0 0 100 100" preserveAspectRatio="none">
  <path d="M 55.602,70.806 L 55.602,70.806 L 43.026,64.633 L 43.026,64.633 L 43.026,64.633 L 41.883,63.947 L 30.908,58.688 L 30.908,58.688 L 30.908,58.688 L 30.908,58.688 L 30.908,58.688 L 30.908,58.688 L 32.966,54.116 L 33.195,53.43 L 33.423,52.972 L 34.109,51.829 L 35.71,48.171 L 35.71,48.171 L 38.682,41.312 L 41.883,34.681 L 43.026,31.709 L 44.17,29.194 L 44.17,29.194 L 45.084,29.651 L 47.142,30.565 L 48.742,31.251 L 48.742,31.251 L 50.114,31.937 L 51.715,32.623 L 51.943,32.852 L 54.459,33.995 L 56.059,34.91 L 56.288,34.91 L 56.745,35.138 L 57.431,35.596 L 57.431,35.596 L 62.461,38.111 L 69.092,41.312 L 69.092,41.312 L 68.634,41.769 L 68.406,42.912 L 63.833,52.515 L 63.604,53.43 L 62.918,55.259 L 58.117,65.776 L 55.602,70.806 Z" fill="rgba(59,130,246,0.25)" fill-rule="evenodd" stroke="rgba(59,130,246,0.9)" stroke-width="0.3" stroke-linejoin="round"/>
</svg>
