<svg xmlns="http://www.w3.org/2000/svg" width="100%" height="100%" viewBox="0 0 100 100" preserveAspectRatio="none">
  <path d="M 41.083,58.917 L 41.083,58.917 L 42.226,55.259 L 46.113,42.912 L 48.171,34.91 L 48.4,34.91 L 51.143,35.824 L 51.6,36.053 L 54.116,36.739 L 55.945,37.425 L 56.402,37.653 L 57.774,38.111 L 58.917,38.797 L 58.688,39.254 L 58.46,41.312 L 58.46,41.54 L 57.545,51.372 L 57.545,51.372 L 57.545,51.6 L 57.088,57.545 L 57.088,58.002 L 57.088,58.002 L 56.402,63.719 L 56.402,65.09 L 50.686,62.575 L 44.284,60.06 L 44.055,60.06 L 41.083,58.917 L 41.083,58.917 Z" fill="rgba(59,130,246,0.25)" fill-rule="evenodd" stroke="rgba(59,130,246,0.9)" stroke-width="0.3" stroke-linejoin="round"/>
</svg>
