<svg xmlns="http://www.w3.org/2000/svg" width="100%" height="100%" viewBox="0 0 100 100" preserveAspectRatio="none">
  <path d="M 57.545,33.08 L 58.688,30.623 L 61.032,25.478 L 61.032,25.478 L 61.032,25.478 L 64.004,18.962 L 66.005,14.56 L 66.005,14.56 L 66.005,14.618 L 64.805,17.247 L 64.004,18.962 L 64.004,19.019 L 63.147,20.962 L 61.947,23.535 L 61.089,25.478 L 61.089,25.535 L 61.089,25.535 L 61.089,25.535 L 58.746,30.68 L 58.231,31.823 L 57.66,33.08 L 57.202,34.052 L 57.202,34.052 L 55.602,37.425 L 55.087,38.625 L 53.258,42.683 L 53.03,43.141 L 53.03,43.141 L 53.03,43.198 L 52.972,43.255 L 52.972,43.198 L 52.972,43.255 L 52.858,43.484 L 52.858,43.484 L 52.858,43.484 L 52.572,44.112 L 52.572,44.112 L 52.572,44.112 L 52.058,45.256 L 52.058,45.256 L 50.972,47.599 L 50.915,47.714 L 50.915,47.714 L 49.6,50.572 L 48.628,52.744 L 48.4,53.201 L 48.342,53.372 L 48.342,53.372 L 48.342,53.372 L 47.714,54.687 L 47.485,55.202 L 47.485,55.202 L 47.485,55.202 L 47.485,55.202 L 45.599,59.432 L 44.741,61.318 L 43.884,63.147 L 43.884,63.147 L 43.712,63.547 L 43.712,63.604 L 42.112,67.091 L 42.112,67.091 L 42.112,67.091 L 42.055,67.205 L 41.883,67.548 L 41.712,67.891 L 41.14,69.206 L 41.026,69.377 L 41.026,69.377 L 41.026,69.377 L 40.511,70.521 L 40.454,70.692 L 40.397,70.806 L 40.397,70.806 L 40.226,71.149 L 39.654,72.464 L 39.654,72.521 L 39.654,72.521 L 40.397,72.864 L 41.426,73.322 L 41.597,73.436 L 41.826,73.607 L 42.283,73.779 L 42.169,74.007 L 41.197,76.294 L 40.511,77.723 L 40.511,77.78 L 40.054,78.809 L 39.654,79.609 L 39.597,79.666 L 39.482,79.838 L 39.425,79.895 L 39.368,79.952 L 39.54,80.409 L 39.597,80.581 L 40.511,82.524 L 40.911,83.439 L 40.969,83.668 L 40.969,83.668 L 40.969,83.782 L 40.969,83.953 L 40.911,84.582 L 40.797,85.44 L 40.797,85.44 L 39.311,85.211 L 39.311,85.211 L 37.939,84.982 L 37.939,84.982 L 37.653,84.982 L 36.281,84.754 L 36.281,84.754 L 35.767,84.697 L 35.31,84.582 L 35.31,84.582 L 35.31,84.582 L 35.024,84.582 L 35.024,84.582 L 34.109,84.697 L 34.109,84.754 L 34.109,84.754 L 33.995,84.754 L 33.995,84.754 L 33.995,84.754 L 33.995,84.754 L 33.995,84.754 L 33.995,84.754 L 33.995,84.697 L 33.995,84.697 L 34.567,83.439 L 35.596,81.21 L 37.825,76.465 L 39.597,72.464 L 39.597,72.464 L 39.654,72.464 L 40.397,70.806 L 41.026,69.377 L 41.369,68.692 L 42.112,67.091 L 43.712,63.547 L 43.712,63.547 L 47.485,55.202 L 48.342,53.372 L 52.344,44.627 L 52.972,43.198 L 53.03,43.084 L 57.145,34.052 L 57.145,33.995 L 57.545,33.08 Z M 36.281,80.81 L 35.253,83.039 L 37.082,83.153 L 37.768,83.267 L 40.054,83.496 L 39.254,82.181 L 38.968,81.781 L 38.797,81.438 L 38.511,80.981 L 36.281,80.81 Z" fill="rgba(59,130,246,0.25)" fill-rule="evenodd" stroke="rgba(59,130,246,0.9)" stroke-width="0.3" stroke-linejoin="round"/>
</svg>
