<svg xmlns="http://www.w3.org/2000/svg" width="100%" height="100%" viewBox="0 0 100 100" preserveAspectRatio="none">
  <path d="M 53.544,59.374 L 51.258,59.146 L 50.572,58.917 L 44.856,58.46 L 33.195,57.088 L 33.195,57.088 L 33.195,57.088 L 34.338,53.658 L 34.338,53.658 L 36.624,46.799 L 37.996,42.912 L 39.368,39.482 L 44.398,39.711 L 44.398,39.711 L 61.546,40.854 L 61.546,40.854 L 66.805,41.312 L 66.805,41.312 L 66.348,44.97 L 66.348,47.028 L 65.891,50.915 L 65.891,51.143 L 65.433,55.03 L 64.976,59.146 L 64.747,60.518 L 64.747,60.518 L 63.376,60.289 L 62.69,60.289 L 59.946,60.06 L 57.888,59.832 L 55.83,59.603 L 53.544,59.374 Z" fill="rgba(59,130,246,0.25)" fill-rule="evenodd" stroke="rgba(59,130,246,0.9)" stroke-width="0.3" stroke-linejoin="round"/>
</svg>
