<svg xmlns="http://www.w3.org/2000/svg" width="100%" height="100%" viewBox="0 0 100 100" preserveAspectRatio="none">
  <path d="M 39.482,34.681 L 39.482,34.452 L 40.168,32.395 L 40.168,32.395 L 40.168,32.395 L 43.141,33.538 L 58.231,39.025 L 58.231,39.025 L 64.176,41.312 L 63.261,42.912 L 63.033,42.912 L 59.603,41.54 L 59.603,41.769 L 56.173,40.626 L 51.372,52.744 L 50.686,54.344 L 55.03,59.832 L 57.317,63.261 L 58.917,65.319 L 58.002,66.005 L 57.545,66.691 L 57.088,67.605 L 56.859,67.377 L 55.487,65.776 L 50.229,59.146 L 44.741,53.201 L 39.94,48.857 L 39.711,48.4 L 38.111,46.799 L 35.824,44.741 L 38.568,36.739 L 39.482,34.681 Z" fill="rgba(59,130,246,0.25)" fill-rule="evenodd" stroke="rgba(59,130,246,0.9)" stroke-width="0.3" stroke-linejoin="round"/>
</svg>
