<svg xmlns="http://www.w3.org/2000/svg" width="100%" height="100%" viewBox="0 0 100 100" preserveAspectRatio="none">
  <path d="M 64.519,72.75 L 58.574,70.464 L 57.888,68.634 L 57.431,67.263 L 56.745,66.119 L 56.059,64.976 L 55.602,64.519 L 53.087,62.232 L 51.029,61.318 L 50.114,60.861 L 47.828,60.403 L 46.913,60.403 L 44.856,60.403 L 43.255,60.632 L 42.112,61.089 L 40.969,61.775 L 39.139,63.147 L 36.396,67.034 L 35.024,70.235 L 34.795,71.149 L 34.567,73.436 L 30.222,74.579 L 19.476,63.833 L 18.79,58.345 L 19.705,57.202 L 27.936,48.971 L 36.396,39.825 L 49.886,25.421 L 64.519,39.139 L 81.21,55.144 L 64.519,72.75 Z" fill="rgba(59,130,246,0.25)" fill-rule="evenodd" stroke="rgba(59,130,246,0.9)" stroke-width="0.3" stroke-linejoin="round"/>
</svg>
