<svg xmlns="http://www.w3.org/2000/svg" width="100%" height="100%" viewBox="0 0 100 100" preserveAspectRatio="none">
  <path d="M 36.053,65.662 L 37.425,58.117 L 39.482,47.828 L 40.397,42.798 L 42.912,30.222 L 44.284,30.451 L 51.6,31.137 L 51.6,31.137 L 54.801,31.366 L 58.002,31.594 L 58.002,31.594 L 62.575,32.052 L 63.033,32.052 L 63.947,32.28 L 63.719,32.737 L 63.719,33.423 L 63.49,35.024 L 62.347,40.283 L 60.975,47.599 L 60.975,47.599 L 60.746,48.971 L 60.746,48.971 L 59.603,54.687 L 59.603,54.687 L 58.46,60.403 L 58.46,60.403 L 57.088,67.948 L 56.859,69.549 L 55.945,69.778 L 55.03,69.549 L 50.915,68.863 L 50.915,68.863 L 49.314,68.406 L 47.714,68.177 L 44.741,67.491 L 44.513,67.491 L 41.998,67.034 L 40.397,66.577 L 39.711,66.577 L 37.425,66.119 L 36.053,65.662 Z" fill="rgba(59,130,246,0.25)" fill-rule="evenodd" stroke="rgba(59,130,246,0.9)" stroke-width="0.3" stroke-linejoin="round"/>
</svg>
