<svg xmlns="http://www.w3.org/2000/svg" width="100%" height="100%" viewBox="0 0 100 100" preserveAspectRatio="none">
  <path d="M 64.404,59.26 L 63.49,59.26 L 61.889,59.489 L 57.317,59.946 L 55.259,60.175 L 53.658,60.403 L 49.314,61.089 L 49.085,61.089 L 43.598,61.775 L 42.912,61.775 L 38.797,62.461 L 36.51,62.69 L 35.596,62.918 L 35.596,62.69 L 35.824,61.775 L 39.94,51.258 L 40.397,50.114 L 41.083,48.742 L 45.199,37.768 L 45.427,37.082 L 48.628,38.454 L 50.457,38.911 L 51.143,39.368 L 54.116,40.511 L 59.374,42.34 L 61.661,43.255 L 62.118,43.255 L 63.033,43.484 L 63.033,43.712 L 63.033,43.712 L 63.719,49.428 L 63.719,49.886 L 63.947,54.459 L 63.947,54.459 L 64.176,56.516 L 64.404,58.574 L 64.404,59.26 Z" fill="rgba(59,130,246,0.25)" fill-rule="evenodd" stroke="rgba(59,130,246,0.9)" stroke-width="0.3" stroke-linejoin="round"/>
</svg>
