<svg xmlns="http://www.w3.org/2000/svg" width="100%" height="100%" viewBox="0 0 100 100" preserveAspectRatio="none">
  <path d="M 45.77,62.461 L 47.599,57.888 L 50.114,51.486 L 42.112,48.514 L 41.883,48.971 L 39.597,48.057 L 44.398,36.396 L 44.627,35.71 L 47.828,36.853 L 48.971,37.31 L 53.087,38.911 L 55.144,39.597 L 55.602,39.825 L 60.403,41.883 L 60.175,42.112 L 57.202,49.657 L 54.459,56.974 L 56.059,57.431 L 57.431,58.117 L 55.144,64.29 L 55.144,64.29 L 53.544,64.062 L 53.544,64.062 L 53.315,64.062 L 53.315,64.062 L 48.285,63.147 L 46.456,62.69 L 45.77,62.69 L 45.77,62.461 Z" fill="rgba(59,130,246,0.25)" fill-rule="evenodd" stroke="rgba(59,130,246,0.9)" stroke-width="0.3" stroke-linejoin="round"/>
</svg>
