<svg xmlns="http://www.w3.org/2000/svg" width="100%" height="100%" viewBox="0 0 100 100" preserveAspectRatio="none">
  <path d="M 56.745,29.422 L 58.803,30.337 L 60.403,31.251 L 62.918,32.395 L 63.147,32.623 L 63.604,32.623 L 63.833,32.623 L 65.205,32.852 L 64.976,34.452 L 64.747,36.053 L 64.747,36.053 L 64.062,40.397 L 63.604,42.912 L 62.918,47.028 L 62.232,50.457 L 61.546,54.116 L 59.489,66.005 L 59.031,68.749 L 58.345,73.322 L 56.516,72.407 L 51.258,69.892 L 49.886,69.206 L 49.886,69.206 L 48.285,68.52 L 47.828,68.291 L 45.999,67.377 L 44.856,66.691 L 41.426,65.09 L 40.969,65.09 L 40.969,64.862 L 38.911,63.947 L 38.911,63.947 L 34.795,62.118 L 35.024,61.432 L 36.853,57.317 L 37.768,55.487 L 39.825,51.143 L 40.511,49.543 L 40.511,49.314 L 40.969,48.171 L 43.941,41.998 L 45.313,39.025 L 46.913,35.596 L 46.913,35.596 L 48.971,31.48 L 50.343,28.508 L 51.029,27.136 L 51.258,26.678 L 54.23,28.279 L 54.23,28.279 L 56.745,29.422 Z" fill="rgba(59,130,246,0.25)" fill-rule="evenodd" stroke="rgba(59,130,246,0.9)" stroke-width="0.3" stroke-linejoin="round"/>
</svg>
