<svg xmlns="http://www.w3.org/2000/svg" width="100%" height="100%" viewBox="0 0 100 100" preserveAspectRatio="none">
  <path d="M 61.432,61.775 L 53.887,59.031 L 51.829,58.345 L 51.143,58.117 L 33.766,51.943 L 31.937,51.258 L 32.623,50.343 L 32.852,49.886 L 35.824,46.913 L 38.797,44.17 L 40.168,42.798 L 40.626,42.34 L 44.055,39.139 L 44.513,38.682 L 44.97,38.225 L 45.656,37.996 L 46.342,37.539 L 47.028,36.853 L 47.714,36.167 L 49.085,36.853 L 49.771,37.082 L 53.43,38.225 L 53.43,38.225 L 48.857,39.597 L 52.515,40.74 L 51.143,41.883 L 52.972,44.856 L 53.887,45.77 L 55.259,47.371 L 56.402,48.742 L 55.945,49.2 L 52.972,53.087 L 54.344,54.916 L 55.716,56.288 L 57.317,57.888 L 60.518,61.089 L 62.347,59.717 L 63.033,59.031 L 64.404,60.403 L 66.005,61.546 L 67.605,63.147 L 68.063,63.376 L 67.834,63.833 L 67.377,63.604 L 61.432,61.775 Z" fill="rgba(59,130,246,0.25)" fill-rule="evenodd" stroke="rgba(59,130,246,0.9)" stroke-width="0.3" stroke-linejoin="round"/>
</svg>
