<svg xmlns="http://www.w3.org/2000/svg" width="100%" height="100%" viewBox="0 0 100 100" preserveAspectRatio="none">
  <path d="M 36.967,73.093 L 34.681,69.435 L 32.852,66.234 L 31.937,64.862 L 31.023,63.49 L 29.651,61.661 L 28.279,58.46 L 27.364,56.859 L 27.136,56.631 L 25.993,54.573 L 24.849,52.744 L 24.163,51.372 L 24.163,51.372 L 23.477,50.457 L 23.249,49.771 L 22.334,47.942 L 21.648,45.884 L 19.362,39.711 L 18.219,36.51 L 17.075,32.623 L 17.075,32.166 L 16.847,31.709 L 17.761,27.136 L 17.99,25.078 L 18.905,25.307 L 20.048,25.535 L 23.249,25.993 L 23.706,26.221 L 25.078,26.221 L 25.307,26.221 L 39.94,27.593 L 40.626,27.822 L 43.598,27.822 L 51.143,28.279 L 52.744,29.194 L 53.43,30.108 L 54.801,32.395 L 57.317,33.538 L 57.545,33.766 L 62.575,34.224 L 63.033,34.224 L 63.033,34.224 L 63.49,34.452 L 66.92,36.053 L 68.291,36.739 L 68.749,37.196 L 71.721,39.482 L 72.636,40.397 L 73.55,41.312 L 73.55,41.54 L 74.007,42.226 L 76.98,45.427 L 78.352,46.799 L 78.809,47.256 L 79.038,47.485 L 79.495,47.714 L 79.495,47.942 L 83.153,49.085 L 82.01,51.6 L 80.181,56.631 L 75.837,68.063 L 73.55,74.236 L 73.093,74.922 L 69.892,73.779 L 65.319,72.178 L 63.719,71.492 L 57.317,69.206 L 57.088,68.977 L 55.716,68.52 L 55.716,68.52 L 47.714,65.776 L 43.598,68.52 L 43.598,68.52 L 38.111,72.407 L 37.425,72.864 L 36.967,73.093 Z" fill="rgba(59,130,246,0.25)" fill-rule="evenodd" stroke="rgba(59,130,246,0.9)" stroke-width="0.3" stroke-linejoin="round"/>
</svg>
