<svg xmlns="http://www.w3.org/2000/svg" width="100%" height="100%" viewBox="0 0 100 100" preserveAspectRatio="none">
  <path d="M 47.599,27.822 L 48.285,26.907 L 48.971,25.764 L 49.2,25.535 L 51.258,26.45 L 51.486,26.45 L 52.401,26.45 L 56.516,26.221 L 56.516,26.221 L 56.516,26.907 L 56.516,27.822 L 56.974,33.08 L 57.202,37.425 L 57.431,41.54 L 57.888,49.314 L 58.117,52.058 L 58.345,55.945 L 58.574,60.746 L 56.745,63.261 L 55.373,65.319 L 55.144,65.776 L 51.486,70.578 L 49.428,73.55 L 48.514,74.465 L 48.285,74.465 L 47.828,74.236 L 47.371,74.007 L 46.913,73.779 L 45.77,73.322 L 45.313,73.322 L 41.655,73.093 L 41.426,73.093 L 41.426,72.178 L 41.883,71.264 L 43.484,68.749 L 45.541,66.234 L 45.77,66.005 L 47.371,63.719 L 48.971,61.432 L 49.886,60.06 L 51.029,58.688 L 51.258,58.231 L 51.258,57.774 L 51.258,57.317 L 51.258,55.487 L 51.029,52.286 L 50.8,49.771 L 50.572,44.741 L 50.343,41.54 L 49.886,34.681 L 49.657,32.166 L 49.428,30.337 L 49.428,29.422 L 48.971,28.508 L 47.599,27.822 Z" fill="rgba(59,130,246,0.25)" fill-rule="evenodd" stroke="rgba(59,130,246,0.9)" stroke-width="0.3" stroke-linejoin="round"/>
</svg>
