<svg xmlns="http://www.w3.org/2000/svg" width="100%" height="100%" viewBox="0 0 100 100" preserveAspectRatio="none">
  <path d="M 36.853,55.144 L 36.853,54.916 L 37.082,53.087 L 37.539,51.029 L 37.539,50.8 L 38.454,46.913 L 39.139,44.398 L 39.368,42.569 L 39.368,41.883 L 39.368,41.197 L 44.17,42.798 L 46.456,43.712 L 47.599,44.17 L 51.715,46.227 L 55.83,48.057 L 60.175,49.657 L 62.232,50.572 L 63.147,50.8 L 62.232,51.029 L 61.318,51.486 L 61.318,51.486 L 60.632,51.715 L 59.489,52.401 L 59.26,52.629 L 57.66,54.001 L 56.745,54.687 L 54.459,57.202 L 53.315,57.66 L 52.172,58.345 L 51.258,58.803 L 50.572,58.803 L 49.2,58.574 L 47.828,58.345 L 43.941,57.66 L 39.597,56.516 L 39.139,56.516 L 38.682,56.288 L 37.768,55.83 L 36.853,55.144 Z" fill="rgba(59,130,246,0.25)" fill-rule="evenodd" stroke="rgba(59,130,246,0.9)" stroke-width="0.3" stroke-linejoin="round"/>
</svg>
