<svg xmlns="http://www.w3.org/2000/svg" width="100%" height="100%" viewBox="0 0 100 100" preserveAspectRatio="none">
  <path d="M 17.304,90.355 L 18.219,88.069 L 18.447,87.383 L 20.505,81.438 L 25.078,70.235 L 25.993,67.72 L 31.709,53.315 L 31.937,52.629 L 32.852,50.572 L 33.766,47.828 L 33.995,47.371 L 35.367,43.712 L 36.053,42.34 L 36.51,41.426 L 36.967,40.054 L 40.168,31.823 L 40.626,30.68 L 40.854,30.222 L 40.854,29.994 L 41.312,29.308 L 44.513,21.991 L 44.741,21.991 L 45.199,20.848 L 46.342,18.104 L 46.799,16.961 L 47.256,16.047 L 49.085,12.388 L 50.229,9.645 L 51.372,10.331 L 58.917,13.989 L 60.975,15.132 L 67.148,18.104 L 67.148,18.104 L 68.977,19.019 L 69.206,19.019 L 72.636,20.848 L 73.779,21.305 L 76.065,22.449 L 76.065,22.449 L 78.809,23.592 L 82.696,25.65 L 80.867,28.393 L 78.123,32.28 L 75.379,36.396 L 72.636,40.511 L 72.636,40.511 L 70.578,43.484 L 68.063,47.371 L 66.691,49.2 L 65.548,50.8 L 61.432,56.059 L 60.518,57.431 L 60.06,58.117 L 58.917,59.26 L 57.317,61.089 L 55.716,62.69 L 55.716,62.69 L 52.286,66.119 L 52.058,66.348 L 51.829,66.805 L 51.143,67.263 L 50.457,67.948 L 49.543,68.634 L 49.543,68.634 L 45.427,71.607 L 42.455,73.436 L 41.54,74.122 L 39.025,75.951 L 35.596,78.466 L 29.422,82.582 L 28.05,83.725 L 26.221,84.868 L 23.935,86.24 L 19.362,89.212 L 19.362,89.212 L 17.304,90.355 Z" fill="rgba(59,130,246,0.25)" fill-rule="evenodd" stroke="rgba(59,130,246,0.9)" stroke-width="0.3" stroke-linejoin="round"/>
</svg>
