<svg xmlns="http://www.w3.org/2000/svg" width="100%" height="100%" viewBox="0 0 100 100" preserveAspectRatio="none">
  <path d="M 28.393,54.23 L 28.622,52.401 L 28.622,49.657 L 28.851,46.456 L 29.079,43.941 L 27.707,44.17 L 27.479,44.17 L 27.936,43.026 L 29.536,39.825 L 29.536,39.597 L 31.137,36.167 L 33.881,29.994 L 35.024,27.479 L 35.481,27.707 L 38.225,29.079 L 41.197,30.222 L 41.197,30.222 L 44.17,31.366 L 46.456,32.509 L 46.456,32.509 L 46.685,32.509 L 49.886,33.881 L 52.629,35.024 L 52.629,35.024 L 53.315,35.253 L 55.602,36.167 L 57.888,37.31 L 59.031,37.539 L 59.031,37.539 L 59.26,37.768 L 59.26,37.768 L 62.918,39.139 L 66.348,40.511 L 66.348,40.511 L 66.805,40.969 L 69.549,41.883 L 72.064,43.026 L 72.521,43.255 L 72.521,43.484 L 71.607,45.77 L 69.32,52.858 L 68.177,55.602 L 68.177,55.83 L 67.948,56.288 L 67.034,58.117 L 65.891,60.632 L 65.205,61.775 L 64.29,63.604 L 63.376,65.205 L 63.147,65.662 L 61.546,67.948 L 59.26,70.921 L 58.117,72.521 L 57.66,72.293 L 54.001,70.006 L 53.087,69.32 L 53.087,69.32 L 52.172,68.634 L 51.715,68.406 L 48.971,66.577 L 46.456,64.976 L 46.227,64.747 L 41.197,61.318 L 41.197,61.318 L 40.969,61.089 L 40.74,61.089 L 38.682,59.489 L 37.082,58.574 L 33.195,56.059 L 32.509,55.83 L 32.052,55.602 L 28.393,54.23 Z" fill="rgba(59,130,246,0.25)" fill-rule="evenodd" stroke="rgba(59,130,246,0.9)" stroke-width="0.3" stroke-linejoin="round"/>
</svg>
