<svg xmlns="http://www.w3.org/2000/svg" width="100%" height="100%" viewBox="0 0 100 100" preserveAspectRatio="none">
  <path d="M 46.113,36.739 L 50.457,35.138 L 51.372,34.91 L 53.43,33.995 L 54.573,33.538 L 54.801,33.766 L 57.545,40.397 L 60.746,46.113 L 63.947,51.372 L 63.947,51.372 L 65.319,54.116 L 65.319,54.116 L 64.176,54.801 L 64.176,54.801 L 62.118,55.716 L 60.746,56.402 L 59.146,57.317 L 56.173,59.146 L 44.97,65.776 L 43.827,66.462 L 43.598,66.462 L 43.598,66.462 L 42.683,64.404 L 41.998,62.804 L 39.254,54.573 L 39.025,53.887 L 38.797,53.658 L 38.111,51.6 L 34.681,41.312 L 37.653,40.168 L 40.626,39.025 L 40.854,38.797 L 43.369,37.882 L 44.055,37.653 L 46.113,36.739 L 46.113,36.739 Z" fill="rgba(59,130,246,0.25)" fill-rule="evenodd" stroke="rgba(59,130,246,0.9)" stroke-width="0.3" stroke-linejoin="round"/>
</svg>
