<svg xmlns="http://www.w3.org/2000/svg" width="100%" height="100%" viewBox="0 0 100 100" preserveAspectRatio="none">
  <path d="M 66.577,65.776 L 65.662,65.319 L 62.69,63.947 L 59.26,62.575 L 57.431,61.889 L 53.315,60.289 L 52.858,60.06 L 52.172,59.832 L 51.258,59.374 L 50.572,59.146 L 47.599,58.002 L 45.541,57.088 L 44.856,56.631 L 42.112,55.487 L 37.996,53.887 L 35.71,52.972 L 33.881,52.286 L 32.509,51.829 L 27.479,49.543 L 27.25,49.543 L 28.165,49.085 L 28.622,47.256 L 28.851,46.57 L 28.851,45.656 L 29.765,43.827 L 30.222,42.912 L 30.451,42.455 L 31.823,39.711 L 32.966,36.967 L 33.423,35.824 L 33.652,34.681 L 34.109,33.995 L 35.71,34.224 L 40.054,36.053 L 43.484,37.653 L 43.712,37.653 L 44.627,38.111 L 45.77,39.025 L 46.227,39.254 L 47.371,39.711 L 52.629,41.998 L 54.001,42.683 L 58.574,44.513 L 61.546,45.656 L 65.891,47.714 L 65.891,47.714 L 71.149,49.771 L 72.75,50.457 L 72.521,51.829 L 72.293,52.515 L 70.464,57.545 L 67.491,66.005 L 66.577,65.776 Z" fill="rgba(59,130,246,0.25)" fill-rule="evenodd" stroke="rgba(59,130,246,0.9)" stroke-width="0.3" stroke-linejoin="round"/>
</svg>
