<svg xmlns="http://www.w3.org/2000/svg" width="100%" height="100%" viewBox="0 0 100 100" preserveAspectRatio="none">
  <path d="M 57.317,61.318 L 54.116,62.69 L 52.744,62.918 L 50.457,63.833 L 50.0,63.833 L 45.884,64.976 L 44.97,65.205 L 44.055,65.433 L 42.683,65.662 L 41.083,65.891 L 41.083,65.891 L 39.254,66.348 L 36.281,66.577 L 36.053,66.577 L 36.053,66.577 L 36.053,66.577 L 35.824,64.062 L 35.367,58.574 L 35.367,58.574 L 34.91,51.715 L 34.452,47.371 L 34.452,44.856 L 34.452,44.398 L 34.224,43.712 L 34.91,43.255 L 35.367,43.026 L 37.653,41.655 L 41.769,39.139 L 41.769,39.139 L 44.055,37.996 L 44.055,37.768 L 44.284,37.768 L 50.229,34.338 L 51.829,33.423 L 55.03,39.139 L 58.231,44.627 L 58.231,44.627 L 59.146,45.999 L 59.146,45.999 L 62.347,51.715 L 64.633,55.373 L 65.776,57.431 L 65.776,57.431 L 61.203,59.489 L 57.317,61.318 Z" fill="rgba(59,130,246,0.25)" fill-rule="evenodd" stroke="rgba(59,130,246,0.9)" stroke-width="0.3" stroke-linejoin="round"/>
</svg>
