<svg xmlns="http://www.w3.org/2000/svg" width="100%" height="100%" viewBox="0 0 100 100" preserveAspectRatio="none">
  <path d="M 72.293,33.423 L 70.921,42.34 L 70.921,42.569 L 69.778,49.428 L 69.549,51.486 L 68.634,56.059 L 68.634,56.059 L 68.634,56.516 L 68.634,56.974 L 68.634,56.974 L 68.634,56.974 L 68.406,56.974 L 68.177,56.745 L 67.263,56.516 L 66.805,56.974 L 65.433,58.345 L 63.147,60.632 L 61.089,62.461 L 59.717,63.833 L 59.489,64.062 L 58.345,65.433 L 56.745,67.034 L 54.916,68.863 L 53.773,69.092 L 52.858,68.634 L 52.172,68.406 L 49.657,67.491 L 47.599,66.577 L 46.913,66.348 L 44.627,65.433 L 42.798,64.747 L 40.283,63.833 L 38.911,63.147 L 38.454,63.147 L 34.567,61.546 L 31.823,60.632 L 29.079,59.489 L 27.707,59.031 L 27.707,59.031 L 28.165,58.117 L 28.622,56.974 L 29.536,54.916 L 29.536,54.687 L 30.68,52.629 L 31.366,51.029 L 31.823,50.114 L 31.823,49.886 L 32.737,47.599 L 33.881,45.313 L 35.938,40.511 L 40.511,30.908 L 40.74,30.908 L 45.084,31.366 L 45.084,31.366 L 48.514,31.594 L 55.602,32.052 L 56.059,32.28 L 58.803,32.509 L 63.376,32.737 L 66.577,32.966 L 71.378,33.423 L 72.293,33.423 L 72.293,33.423 Z" fill="rgba(59,130,246,0.25)" fill-rule="evenodd" stroke="rgba(59,130,246,0.9)" stroke-width="0.3" stroke-linejoin="round"/>
</svg>
