<svg xmlns="http://www.w3.org/2000/svg" width="100%" height="100%" viewBox="0 0 100 100" preserveAspectRatio="none">
  <path d="M 41.426,26.45 L 40.969,27.822 L 41.426,26.45 L 42.798,26.907 L 48.971,28.965 L 49.428,29.194 L 50.114,29.194 L 52.629,30.108 L 52.858,30.108 L 58.574,32.166 L 59.031,32.166 L 63.604,33.766 L 63.604,33.766 L 66.805,34.91 L 67.263,34.91 L 70.921,36.281 L 70.921,36.281 L 70.921,36.51 L 69.32,41.312 L 67.491,46.342 L 65.662,51.829 L 64.29,55.945 L 64.29,56.173 L 63.604,58.46 L 62.461,61.203 L 60.861,66.234 L 60.861,66.462 L 59.717,69.663 L 58.803,71.95 L 58.345,73.55 L 58.345,73.55 L 53.315,71.95 L 53.087,71.95 L 48.742,70.349 L 48.514,70.349 L 41.883,68.063 L 41.883,68.063 L 38.911,66.92 L 30.68,64.176 L 29.079,63.49 L 29.079,63.49 L 29.536,61.889 L 32.28,54.116 L 34.338,48.171 L 34.338,48.171 L 35.024,45.656 L 35.71,43.598 L 36.396,41.312 L 36.396,41.312 L 37.539,37.882 L 38.682,35.138 L 38.682,34.91 L 39.139,33.08 L 39.825,31.251 L 39.825,31.251 L 40.74,28.965 L 41.426,26.45 L 41.426,26.45 Z" fill="rgba(59,130,246,0.25)" fill-rule="evenodd" stroke="rgba(59,130,246,0.9)" stroke-width="0.3" stroke-linejoin="round"/>
</svg>
