<svg xmlns="http://www.w3.org/2000/svg" width="100%" height="100%" viewBox="0 0 100 100" preserveAspectRatio="none">
  <path d="M 57.774,59.031 L 56.631,59.031 L 56.631,59.031 L 52.972,59.031 L 51.6,58.803 L 50.457,58.345 L 41.769,59.489 L 41.312,59.489 L 40.626,59.489 L 39.94,59.489 L 37.196,56.516 L 34.452,53.315 L 35.138,52.858 L 42.455,46.456 L 42.455,46.456 L 43.141,45.77 L 46.113,43.026 L 48.171,41.426 L 49.085,40.511 L 49.543,40.969 L 50.229,41.655 L 50.229,41.655 L 52.286,42.798 L 52.972,43.484 L 53.43,43.712 L 53.887,43.941 L 54.116,44.17 L 55.945,45.313 L 58.002,46.685 L 59.832,47.828 L 60.289,48.057 L 61.889,48.971 L 63.719,50.343 L 64.862,51.029 L 65.548,51.486 L 65.319,51.715 L 65.09,51.943 L 64.633,52.858 L 63.49,54.23 L 62.575,55.144 L 61.889,55.83 L 60.06,57.202 L 58.917,58.117 L 57.774,59.031 Z" fill="rgba(59,130,246,0.25)" fill-rule="evenodd" stroke="rgba(59,130,246,0.9)" stroke-width="0.3" stroke-linejoin="round"/>
</svg>
