<svg xmlns="http://www.w3.org/2000/svg" width="100%" height="100%" viewBox="0 0 100 100" preserveAspectRatio="none">
  <path d="M 37.025,33.766 L 37.596,32.509 L 37.596,32.509 L 37.596,32.509 L 37.825,32.052 L 37.825,31.937 L 37.825,32.052 L 37.939,32.052 L 39.425,32.623 L 39.883,32.966 L 40.34,33.309 L 40.683,34.224 L 41.254,35.138 L 42.855,37.768 L 43.312,38.682 L 43.312,38.911 L 43.427,39.482 L 43.655,41.083 L 44.455,44.398 L 45.141,45.884 L 45.827,45.427 L 48.8,43.941 L 49.143,43.712 L 54.287,41.083 L 54.401,40.969 L 54.516,40.854 L 54.744,40.511 L 54.973,40.283 L 53.83,39.711 L 50.743,38.111 L 50.057,37.768 L 50.171,37.425 L 50.286,37.196 L 51.543,34.452 L 53.83,29.651 L 54.058,29.194 L 54.287,28.622 L 54.401,28.508 L 54.401,28.508 L 55.087,26.907 L 56.116,24.506 L 57.602,21.534 L 57.602,21.42 L 58.06,20.276 L 58.403,19.591 L 58.631,19.133 L 58.746,19.133 L 60.803,20.048 L 62.633,20.848 L 62.633,20.848 L 64.347,21.648 L 66.405,22.449 L 66.519,22.449 L 66.519,22.449 L 67.434,22.906 L 68.349,23.249 L 68.349,23.249 L 69.72,23.82 L 71.321,24.506 L 71.321,24.621 L 72.578,25.078 L 74.065,25.764 L 75.322,26.335 L 75.894,26.564 L 76.923,27.021 L 78.18,27.593 L 78.295,27.593 L 79.438,28.165 L 80.124,28.393 L 80.695,28.736 L 80.238,29.994 L 77.952,35.596 L 76.923,38.568 L 76.808,38.911 L 76.351,40.054 L 76.008,40.283 L 73.836,41.655 L 72.464,42.455 L 68.463,44.97 L 67.777,45.313 L 64.576,47.256 L 64.347,47.371 L 63.89,47.714 L 61.947,48.971 L 60.232,50.0 L 54.973,53.43 L 48.8,57.317 L 48.571,57.431 L 47.199,58.345 L 45.713,59.26 L 44.341,60.289 L 42.741,61.889 L 40.911,64.062 L 39.197,66.92 L 38.968,67.491 L 38.739,68.177 L 37.825,71.378 L 37.71,73.093 L 37.596,74.236 L 37.367,75.837 L 37.253,78.237 L 37.025,80.409 L 37.025,80.867 L 36.339,80.752 L 36.224,80.752 L 35.996,80.752 L 35.881,80.638 L 34.624,80.066 L 33.824,79.609 L 33.481,79.495 L 32.795,79.152 L 31.537,78.58 L 31.537,78.58 L 30.051,77.78 L 29.251,77.323 L 29.251,77.323 L 28.565,76.98 L 27.879,76.751 L 27.879,76.637 L 26.507,76.065 L 24.106,75.036 L 23.992,74.922 L 23.42,74.693 L 20.677,73.322 L 19.305,72.636 L 19.305,72.636 L 19.305,72.636 L 19.648,71.835 L 19.648,71.835 L 21.363,68.177 L 23.077,64.404 L 26.85,55.945 L 26.85,55.945 L 26.85,55.945 L 26.85,55.945 L 27.307,54.916 L 28.565,52.286 L 28.565,52.286 L 28.565,52.286 L 28.679,51.943 L 29.136,51.029 L 31.08,46.685 L 33.709,40.969 L 33.709,40.969 L 33.824,40.74 L 35.996,36.053 L 35.996,36.053 L 37.025,33.766 L 37.025,33.766 L 37.025,33.766 Z" fill="rgba(59,130,246,0.25)" fill-rule="evenodd" stroke="rgba(59,130,246,0.9)" stroke-width="0.3" stroke-linejoin="round"/>
</svg>
