<svg xmlns="http://www.w3.org/2000/svg" width="100%" height="100%" viewBox="0 0 100 100" preserveAspectRatio="none">
  <path d="M 12.045,28.965 L 12.045,28.965 L 17.075,26.221 L 17.304,26.221 L 20.048,25.078 L 25.993,22.792 L 26.221,22.792 L 27.822,26.221 L 29.651,26.678 L 30.337,26.678 L 32.852,27.593 L 34.224,27.822 L 36.281,27.822 L 41.312,27.364 L 47.714,26.907 L 54.344,26.221 L 60.289,24.849 L 60.518,24.849 L 62.804,25.078 L 60.975,25.993 L 57.545,26.678 L 54.116,27.593 L 50.457,28.508 L 47.714,28.965 L 46.57,29.879 L 43.141,31.937 L 41.54,32.852 L 37.653,35.596 L 35.138,36.967 L 33.995,37.653 L 33.995,37.653 L 33.766,37.882 L 33.538,37.653 L 20.276,32.166 L 20.048,32.623 L 30.565,42.455 L 31.023,42.683 L 33.995,44.513 L 34.91,45.427 L 36.739,47.028 L 37.196,49.543 L 43.598,55.259 L 61.889,72.407 L 67.148,72.407 L 87.955,50.229 L 76.751,62.575 L 68.52,70.806 L 66.005,73.55 L 63.033,77.208 L 53.43,68.291 L 37.196,53.658 L 24.392,41.083 L 12.045,28.965 Z" fill="rgba(59,130,246,0.25)" fill-rule="evenodd" stroke="rgba(59,130,246,0.9)" stroke-width="0.3" stroke-linejoin="round"/>
</svg>
