<svg xmlns="http://www.w3.org/2000/svg" width="100%" height="100%" viewBox="0 0 100 100" preserveAspectRatio="none">
  <path d="M 56.745,30.565 L 59.489,30.108 L 59.717,30.794 L 59.717,31.48 L 60.632,38.111 L 60.632,38.111 L 61.775,46.113 L 61.775,47.028 L 63.147,56.631 L 64.519,67.377 L 63.833,67.377 L 58.803,68.291 L 57.202,68.52 L 56.974,68.52 L 56.745,68.52 L 54.687,68.749 L 53.544,68.977 L 52.401,69.206 L 52.172,69.206 L 51.029,69.435 L 50.572,69.435 L 48.285,69.892 L 48.285,69.892 L 47.599,69.892 L 46.913,69.663 L 46.456,69.435 L 42.112,67.605 L 41.655,67.377 L 39.139,66.234 L 37.996,65.776 L 37.31,65.319 L 36.396,65.09 L 35.481,64.633 L 35.481,64.633 L 35.938,63.261 L 39.825,54.573 L 41.655,50.457 L 47.371,37.882 L 50.343,31.251 L 51.029,31.251 L 52.858,31.023 L 56.745,30.565 Z" fill="rgba(59,130,246,0.25)" fill-rule="evenodd" stroke="rgba(59,130,246,0.9)" stroke-width="0.3" stroke-linejoin="round"/>
</svg>
