<svg xmlns="http://www.w3.org/2000/svg" width="100%" height="100%" viewBox="0 0 100 100" preserveAspectRatio="none">
  <path d="M 54.344,62.004 L 54.116,62.232 L 54.116,62.232 L 52.515,67.034 L 52.515,67.034 L 52.515,67.034 L 48.857,65.662 L 43.598,63.604 L 43.141,63.376 L 42.455,61.318 L 41.54,57.888 L 40.626,54.687 L 39.025,48.971 L 37.425,43.255 L 36.053,38.911 L 35.824,38.454 L 36.967,38.225 L 41.083,37.082 L 42.226,36.624 L 44.055,36.167 L 44.055,36.167 L 44.741,35.938 L 44.741,35.938 L 50.0,34.567 L 51.829,33.881 L 53.887,33.423 L 55.487,32.966 L 55.945,32.966 L 60.746,35.253 L 64.176,36.853 L 64.176,36.853 L 64.176,37.082 L 62.575,40.969 L 59.374,49.2 L 54.344,62.004 Z" fill="rgba(59,130,246,0.25)" fill-rule="evenodd" stroke="rgba(59,130,246,0.9)" stroke-width="0.3" stroke-linejoin="round"/>
</svg>
