<svg xmlns="http://www.w3.org/2000/svg" width="100%" height="100%" viewBox="0 0 100 100" preserveAspectRatio="none">
  <path d="M 45.999,64.862 L 44.17,64.404 L 41.197,63.719 L 39.139,63.261 L 34.567,61.889 L 34.567,61.889 L 35.253,59.832 L 36.167,57.774 L 37.31,55.03 L 39.368,49.314 L 40.283,47.942 L 40.969,46.799 L 42.569,44.97 L 45.541,41.54 L 45.541,41.54 L 45.77,41.54 L 49.2,37.653 L 52.858,33.538 L 60.175,40.397 L 60.175,40.397 L 62.004,41.998 L 63.604,43.369 L 63.604,43.369 L 63.833,44.055 L 63.833,44.513 L 63.833,47.028 L 64.29,51.372 L 64.747,58.231 L 64.747,58.231 L 65.205,63.719 L 65.433,66.234 L 65.433,66.234 L 57.888,66.462 L 54.916,66.234 L 52.401,66.005 L 49.657,65.548 L 46.685,65.09 L 45.999,64.862 Z" fill="rgba(59,130,246,0.25)" fill-rule="evenodd" stroke="rgba(59,130,246,0.9)" stroke-width="0.3" stroke-linejoin="round"/>
</svg>
