<svg xmlns="http://www.w3.org/2000/svg" width="100%" height="100%" viewBox="0 0 100 100" preserveAspectRatio="none">
  <path d="M 62.575,41.426 L 63.49,42.34 L 63.719,42.569 L 63.719,42.798 L 63.49,43.484 L 62.347,50.8 L 61.432,57.202 L 61.432,57.431 L 60.746,62.232 L 60.06,67.263 L 60.06,67.72 L 60.06,67.72 L 55.945,66.119 L 53.658,65.433 L 52.286,64.976 L 44.513,62.004 L 36.51,59.26 L 36.281,59.26 L 36.51,58.574 L 36.739,56.974 L 36.967,55.83 L 37.882,51.715 L 38.797,45.999 L 42.683,46.456 L 43.827,46.685 L 44.741,52.858 L 49.771,53.315 L 52.972,53.544 L 57.545,54.001 L 57.774,51.486 L 58.917,43.941 L 53.201,40.283 L 51.829,39.368 L 50.0,38.225 L 47.942,36.853 L 43.141,33.652 L 42.226,39.597 L 41.998,40.969 L 39.94,40.511 L 41.54,33.195 L 41.54,32.28 L 42.912,32.509 L 62.575,41.426 Z" fill="rgba(59,130,246,0.25)" fill-rule="evenodd" stroke="rgba(59,130,246,0.9)" stroke-width="0.3" stroke-linejoin="round"/>
</svg>
