<svg xmlns="http://www.w3.org/2000/svg" width="100%" height="100%" viewBox="0 0 100 100" preserveAspectRatio="none">
  <path d="M 46.685,78.237 L 41.655,76.18 L 41.655,76.18 L 34.338,72.979 L 33.195,72.293 L 33.423,71.149 L 35.253,66.348 L 35.481,66.119 L 37.31,61.318 L 37.31,61.089 L 38.225,58.803 L 38.225,58.803 L 40.054,53.773 L 40.054,53.773 L 40.74,51.943 L 40.74,51.943 L 43.026,46.227 L 43.026,46.227 L 43.026,45.77 L 44.856,41.197 L 44.856,41.197 L 47.371,34.795 L 47.371,34.795 L 50.114,27.479 L 52.629,21.305 L 52.858,20.391 L 52.858,20.391 L 53.315,21.077 L 57.202,26.107 L 57.202,26.107 L 57.888,27.021 L 57.888,27.021 L 63.604,33.881 L 66.805,35.481 L 63.376,44.627 L 62.232,47.599 L 55.373,65.662 L 51.258,76.866 L 50.114,79.609 L 46.685,78.237 Z" fill="rgba(59,130,246,0.25)" fill-rule="evenodd" stroke="rgba(59,130,246,0.9)" stroke-width="0.3" stroke-linejoin="round"/>
</svg>
