<svg xmlns="http://www.w3.org/2000/svg" width="100%" height="100%" viewBox="0 0 100 100" preserveAspectRatio="none">
  <path d="M 45.541,66.462 L 40.054,64.404 L 37.082,63.033 L 37.082,63.033 L 37.082,63.033 L 36.853,63.49 L 36.853,63.719 L 36.853,63.719 L 36.624,63.719 L 37.082,63.033 L 37.082,63.033 L 37.082,63.033 L 42.112,51.829 L 42.798,50.457 L 46.685,41.998 L 46.685,41.769 L 51.258,31.48 L 51.715,30.794 L 51.258,32.166 L 46.685,41.998 L 46.685,41.998 L 46.685,41.998 L 49.657,43.369 L 52.629,43.598 L 54.916,43.827 L 59.946,44.513 L 61.775,44.513 L 63.376,44.741 L 63.147,45.427 L 62.918,46.342 L 61.089,50.686 L 59.946,53.658 L 59.717,54.116 L 57.888,58.002 L 57.66,58.231 L 57.431,58.917 L 57.202,59.146 L 55.602,63.033 L 55.373,63.261 L 55.144,63.947 L 53.315,68.063 L 53.087,68.52 L 53.087,68.749 L 52.858,68.52 L 52.858,68.52 L 52.629,69.206 L 52.629,69.206 L 51.029,68.749 L 45.541,66.462 Z" fill="rgba(59,130,246,0.25)" fill-rule="evenodd" stroke="rgba(59,130,246,0.9)" stroke-width="0.3" stroke-linejoin="round"/>
</svg>
