<svg xmlns="http://www.w3.org/2000/svg" width="100%" height="100%" viewBox="0 0 100 100" preserveAspectRatio="none">
  <path d="M 36.967,33.423 L 39.025,34.338 L 44.055,36.853 L 44.055,36.853 L 45.199,37.31 L 49.085,39.368 L 50.457,40.054 L 54.573,42.112 L 54.573,42.112 L 58.231,43.941 L 61.661,45.541 L 63.033,46.227 L 61.889,48.971 L 60.06,52.629 L 59.603,53.544 L 59.146,54.687 L 58.002,57.431 L 57.545,58.574 L 57.317,58.574 L 54.116,65.891 L 53.658,66.577 L 52.515,65.891 L 51.829,65.205 L 50.457,63.833 L 49.771,63.147 L 49.085,62.69 L 46.342,60.175 L 44.513,58.117 L 44.284,58.117 L 41.998,55.602 L 41.083,54.459 L 39.711,52.629 L 39.254,51.943 L 39.025,51.029 L 39.025,50.114 L 38.797,49.657 L 38.797,48.971 L 38.797,48.285 L 38.568,47.371 L 38.568,46.913 L 38.339,46.227 L 38.339,44.856 L 37.882,42.34 L 37.882,42.34 L 37.653,39.597 L 37.425,37.31 L 37.196,35.71 L 36.967,33.423 Z" fill="rgba(59,130,246,0.25)" fill-rule="evenodd" stroke="rgba(59,130,246,0.9)" stroke-width="0.3" stroke-linejoin="round"/>
</svg>
