<svg xmlns="http://www.w3.org/2000/svg" width="100%" height="100%" viewBox="0 0 100 100" preserveAspectRatio="none">
  <path d="M 42.455,60.06 L 42.455,60.06 L 36.739,52.286 L 31.48,45.427 L 30.337,44.055 L 30.794,43.598 L 31.48,43.141 L 36.281,39.94 L 36.281,39.94 L 36.967,39.482 L 42.226,35.596 L 42.226,35.596 L 47.256,31.709 L 52.058,28.279 L 58.002,23.935 L 58.688,23.477 L 59.146,23.02 L 62.575,28.508 L 62.575,28.736 L 64.176,31.251 L 68.291,37.882 L 68.977,39.254 L 69.435,40.168 L 69.663,40.626 L 69.435,41.312 L 68.749,42.455 L 66.234,49.085 L 65.776,50.0 L 63.947,55.259 L 62.118,59.832 L 61.432,61.889 L 61.432,61.889 L 60.06,65.09 L 58.917,68.291 L 58.917,68.52 L 56.859,73.093 L 56.402,74.922 L 55.716,76.98 L 55.716,76.98 L 55.03,76.294 L 51.829,71.721 L 51.6,71.721 L 49.543,68.749 L 44.741,62.804 L 44.513,62.575 L 43.598,61.432 L 42.455,60.06 Z" fill="rgba(59,130,246,0.25)" fill-rule="evenodd" stroke="rgba(59,130,246,0.9)" stroke-width="0.3" stroke-linejoin="round"/>
</svg>
