<svg xmlns="http://www.w3.org/2000/svg" width="100%" height="100%" viewBox="0 0 100 100" preserveAspectRatio="none">
  <path d="M 36.967,71.035 L 37.196,69.435 L 37.882,63.033 L 38.797,56.859 L 38.797,56.173 L 39.254,52.744 L 39.482,52.286 L 39.94,48.171 L 39.94,48.171 L 40.397,44.97 L 41.312,39.025 L 42.683,28.965 L 44.97,31.251 L 53.658,40.626 L 54.116,41.312 L 54.573,41.769 L 63.033,51.143 L 62.575,51.372 L 61.889,52.058 L 60.746,52.972 L 58.002,55.03 L 57.774,55.259 L 55.945,56.631 L 55.259,57.317 L 55.03,57.317 L 54.801,57.545 L 54.801,57.545 L 52.058,59.603 L 50.457,60.975 L 50.229,60.975 L 47.942,62.804 L 44.97,65.319 L 39.254,69.663 L 36.967,71.035 Z" fill="rgba(59,130,246,0.25)" fill-rule="evenodd" stroke="rgba(59,130,246,0.9)" stroke-width="0.3" stroke-linejoin="round"/>
</svg>
