<svg xmlns="http://www.w3.org/2000/svg" width="100%" height="100%" viewBox="0 0 100 100" preserveAspectRatio="none">
  <path d="M 28.565,49.771 L 28.908,48.285 L 29.136,47.028 L 29.479,45.313 L 29.708,44.398 L 29.937,43.941 L 30.051,43.484 L 30.394,42.683 L 30.966,41.655 L 31.308,41.083 L 31.994,40.283 L 32.452,39.825 L 32.795,39.482 L 33.252,39.139 L 33.709,38.797 L 34.052,38.568 L 34.395,38.339 L 35.195,37.882 L 35.767,37.653 L 36.339,37.425 L 36.796,37.196 L 37.939,36.853 L 38.396,36.853 L 39.311,36.624 L 40.34,36.51 L 43.427,36.167 L 46.742,35.71 L 47.313,35.481 L 48.114,35.367 L 48.914,34.91 L 49.486,34.338 L 49.943,33.766 L 50.171,33.195 L 50.4,32.737 L 50.972,31.251 L 51.086,30.451 L 51.429,28.965 L 51.543,28.165 L 51.658,27.136 L 51.772,26.107 L 51.772,24.392 L 51.886,23.706 L 52.001,22.449 L 52.344,21.305 L 52.458,20.962 L 52.915,21.991 L 52.915,22.106 L 53.03,22.449 L 53.144,22.563 L 53.258,22.677 L 53.715,23.249 L 53.944,23.363 L 54.401,23.935 L 54.744,24.163 L 54.859,24.278 L 54.973,24.278 L 55.087,24.163 L 55.202,24.163 L 55.545,23.82 L 55.659,23.706 L 56.688,22.449 L 57.031,22.106 L 57.488,21.648 L 57.602,21.534 L 57.717,21.534 L 57.945,21.534 L 58.174,21.534 L 61.947,22.792 L 62.175,22.906 L 62.29,23.02 L 62.518,23.249 L 62.633,23.477 L 64.69,25.993 L 65.605,27.25 L 65.719,27.479 L 67.663,31.251 L 68.006,31.937 L 68.463,33.08 L 68.92,34.567 L 69.72,37.425 L 70.292,39.482 L 70.292,39.597 L 70.978,41.312 L 70.978,41.426 L 71.664,43.484 L 72.578,46.113 L 72.921,47.371 L 73.264,48.742 L 73.493,49.771 L 73.722,50.343 L 73.036,50.8 L 72.693,51.029 L 71.55,51.715 L 70.749,52.172 L 70.292,52.515 L 68.463,53.887 L 67.548,54.573 L 67.777,54.801 L 68.12,55.03 L 68.806,55.487 L 69.034,55.716 L 69.377,56.059 L 70.063,57.317 L 70.521,58.231 L 70.521,58.231 L 70.749,58.688 L 70.978,59.031 L 71.435,59.603 L 72.007,60.175 L 72.235,60.403 L 72.921,60.975 L 73.722,61.775 L 73.95,62.004 L 74.065,62.118 L 74.293,62.918 L 74.293,62.918 L 73.95,63.033 L 73.607,63.147 L 72.578,63.49 L 72.235,63.604 L 70.292,64.176 L 68.806,64.633 L 65.948,65.548 L 65.491,65.776 L 65.491,65.776 L 65.605,66.691 L 66.062,69.663 L 66.062,69.892 L 66.176,70.235 L 66.291,70.692 L 65.833,70.921 L 65.262,71.264 L 64.004,72.064 L 63.776,72.178 L 60.803,74.236 L 58.174,76.065 L 55.316,77.894 L 53.372,79.038 L 44.112,74.922 L 31.194,69.32 L 25.707,66.92 L 25.707,66.92 L 25.935,65.205 L 27.193,58.46 L 27.193,58.231 L 27.193,57.774 L 27.307,56.859 L 27.307,56.402 L 27.65,54.687 L 27.879,53.773 L 28.107,52.629 L 28.565,49.771 Z" fill="rgba(59,130,246,0.25)" fill-rule="evenodd" stroke="rgba(59,130,246,0.9)" stroke-width="0.3" stroke-linejoin="round"/>
</svg>
