<svg xmlns="http://www.w3.org/2000/svg" width="100%" height="100%" viewBox="0 0 100 100" preserveAspectRatio="none">
  <path d="M 42.34,50.343 L 43.255,48.285 L 46.227,41.197 L 47.828,37.539 L 49.2,34.567 L 50.8,31.137 L 51.029,30.68 L 51.029,30.68 L 51.943,31.137 L 57.431,33.652 L 59.031,34.338 L 59.031,34.338 L 61.089,35.481 L 63.833,36.624 L 63.833,36.624 L 63.604,37.539 L 61.318,42.34 L 59.946,44.627 L 59.717,45.084 L 56.059,51.258 L 55.373,52.401 L 54.687,53.544 L 54.687,53.544 L 54.001,54.916 L 53.773,55.373 L 52.858,57.431 L 51.486,60.632 L 51.258,61.318 L 50.343,63.147 L 49.657,64.747 L 48.285,67.72 L 47.828,69.32 L 47.599,69.092 L 46.227,68.634 L 45.999,68.406 L 43.712,67.491 L 38.682,65.205 L 37.768,64.976 L 36.167,64.062 L 37.996,60.403 L 40.054,55.602 L 42.34,50.343 L 42.34,50.343 Z" fill="rgba(59,130,246,0.25)" fill-rule="evenodd" stroke="rgba(59,130,246,0.9)" stroke-width="0.3" stroke-linejoin="round"/>
</svg>
