<svg xmlns="http://www.w3.org/2000/svg" width="100%" height="100%" viewBox="0 0 100 100" preserveAspectRatio="none">
  <path d="M 35.938,65.891 L 35.481,65.662 L 34.109,64.976 L 34.109,64.976 L 37.996,56.516 L 37.996,56.516 L 39.368,52.858 L 39.368,52.858 L 40.511,50.343 L 40.511,50.114 L 43.484,43.255 L 43.484,43.255 L 43.712,42.798 L 44.856,40.283 L 44.856,40.283 L 49.428,29.536 L 50.114,28.165 L 55.373,30.451 L 55.373,30.68 L 55.602,30.68 L 56.059,30.908 L 58.117,31.823 L 60.403,32.737 L 60.403,32.737 L 63.376,34.109 L 65.891,35.253 L 63.604,40.054 L 63.604,40.054 L 62.461,42.569 L 62.461,42.569 L 61.546,44.856 L 61.546,44.856 L 60.632,47.142 L 60.632,47.371 L 59.031,50.8 L 59.031,50.8 L 58.117,52.858 L 58.117,52.858 L 56.974,55.373 L 56.974,55.373 L 55.83,58.345 L 55.602,58.345 L 55.602,58.574 L 53.544,63.376 L 53.544,63.376 L 50.343,70.464 L 50.114,71.149 L 49.886,71.835 L 35.938,65.891 Z" fill="rgba(59,130,246,0.25)" fill-rule="evenodd" stroke="rgba(59,130,246,0.9)" stroke-width="0.3" stroke-linejoin="round"/>
</svg>
