<svg xmlns="http://www.w3.org/2000/svg" width="100%" height="100%" viewBox="0 0 100 100" preserveAspectRatio="none">
  <path d="M 48.171,69.663 L 47.256,68.977 L 46.342,68.063 L 45.199,66.92 L 44.741,66.691 L 43.141,65.09 L 42.912,64.862 L 42.912,64.862 L 41.998,64.176 L 41.083,63.261 L 43.598,60.746 L 44.055,60.06 L 42.683,57.317 L 41.54,55.487 L 41.312,54.801 L 39.254,55.945 L 38.111,53.887 L 37.882,53.658 L 36.739,51.372 L 37.653,50.915 L 36.281,48.4 L 36.51,47.485 L 39.482,45.884 L 38.339,43.827 L 36.967,41.312 L 36.51,40.854 L 30.794,44.055 L 30.794,44.055 L 34.452,41.998 L 36.739,40.626 L 39.711,39.025 L 40.168,38.797 L 41.998,37.653 L 43.827,36.739 L 45.656,35.596 L 46.342,35.367 L 49.543,33.538 L 51.143,32.623 L 52.744,31.709 L 55.716,30.108 L 55.716,29.879 L 56.402,29.422 L 56.859,29.422 L 58.688,27.364 L 61.889,23.706 L 63.033,22.563 L 63.261,23.477 L 64.633,26.907 L 65.548,29.651 L 66.005,31.023 L 66.005,31.251 L 66.462,33.309 L 67.148,35.367 L 67.148,35.367 L 67.834,38.111 L 68.291,39.254 L 68.977,40.397 L 69.206,40.854 L 68.749,41.769 L 67.605,43.141 L 66.234,44.513 L 66.234,44.513 L 65.319,44.97 L 64.404,45.656 L 64.404,45.656 L 63.947,45.656 L 62.804,45.884 L 61.432,46.113 L 59.146,46.57 L 59.146,46.57 L 54.573,47.485 L 53.43,47.714 L 52.286,47.942 L 50.229,48.171 L 49.314,48.628 L 47.942,49.314 L 47.256,50.0 L 47.028,50.457 L 47.028,51.372 L 47.028,52.058 L 47.256,53.201 L 47.714,54.801 L 48.171,55.487 L 48.628,55.945 L 49.771,57.088 L 50.457,57.774 L 50.457,57.774 L 51.829,59.146 L 52.972,60.289 L 53.887,61.203 L 54.116,61.889 L 54.573,62.347 L 55.03,63.49 L 55.716,64.862 L 56.173,66.691 L 56.402,67.834 L 56.631,69.663 L 56.859,70.806 L 56.859,71.264 L 56.859,72.178 L 57.317,77.437 L 56.631,77.437 L 55.03,75.837 L 52.972,74.007 L 51.829,73.093 L 51.829,73.093 L 50.915,72.178 L 50.0,71.264 L 48.171,69.663 Z" fill="rgba(59,130,246,0.25)" fill-rule="evenodd" stroke="rgba(59,130,246,0.9)" stroke-width="0.3" stroke-linejoin="round"/>
</svg>
