<svg xmlns="http://www.w3.org/2000/svg" width="100%" height="100%" viewBox="0 0 100 100" preserveAspectRatio="none">
  <path d="M 49.543,31.023 L 51.829,30.794 L 54.801,30.337 L 54.801,30.337 L 54.801,30.337 L 54.801,30.337 L 55.945,38.339 L 55.945,38.339 L 54.801,30.565 L 55.945,38.339 L 55.945,38.339 L 56.631,43.598 L 57.774,51.6 L 57.774,51.829 L 58.917,59.374 L 58.917,59.374 L 60.06,67.148 L 60.06,67.148 L 57.317,67.605 L 51.6,68.52 L 51.143,68.749 L 51.143,68.749 L 47.256,69.206 L 46.342,69.435 L 46.342,69.435 L 44.97,69.663 L 43.598,58.917 L 42.226,49.314 L 42.226,48.4 L 41.083,40.397 L 41.083,40.397 L 40.168,33.766 L 40.168,33.08 L 39.94,32.395 L 39.94,32.395 L 43.141,31.937 L 49.543,31.023 Z" fill="rgba(59,130,246,0.25)" fill-rule="evenodd" stroke="rgba(59,130,246,0.9)" stroke-width="0.3" stroke-linejoin="round"/>
</svg>
