<svg xmlns="http://www.w3.org/2000/svg" width="100%" height="100%" viewBox="0 0 100 100" preserveAspectRatio="none">
  <path d="M 16.39,86.24 L 17.761,86.697 L 30.794,81.438 L 41.769,76.408 L 45.656,74.35 L 43.827,71.149 L 41.54,69.32 L 41.54,69.092 L 47.256,66.348 L 49.543,62.004 L 50.915,58.803 L 51.6,56.745 L 52.058,54.916 L 52.972,47.371 L 53.201,47.142 L 54.344,46.913 L 54.801,44.856 L 56.402,45.541 L 64.176,48.514 L 65.319,46.456 L 65.548,46.227 L 69.435,48.057 L 73.779,41.655 L 72.864,40.969 L 75.608,36.853 L 73.779,32.28 L 70.121,30.451 L 65.776,28.622 L 46.113,20.162 L 44.741,22.22 L 40.854,28.851 L 38.797,28.622 L 38.111,29.765 L 35.596,30.451 L 35.138,30.222 L 35.596,28.851 L 34.681,25.878 L 35.824,21.305 L 38.339,17.19 L 34.452,15.132 L 36.281,12.16 L 40.168,13.76 L 42.683,14.903 L 43.598,15.361 L 48.4,17.647 L 49.771,18.104 L 62.575,23.134 L 80.867,30.451 L 83.61,31.594 L 83.382,31.823 L 83.153,32.052 L 82.925,32.509 L 82.467,33.423 L 81.781,34.109 L 77.666,39.825 L 69.206,51.486 L 62.804,60.403 L 60.975,62.918 L 59.374,64.519 L 52.286,70.921 L 42.912,76.866 L 32.852,81.21 L 22.792,85.554 L 22.792,85.554 L 17.075,87.84 L 16.39,86.24 Z" fill="rgba(59,130,246,0.25)" fill-rule="evenodd" stroke="rgba(59,130,246,0.9)" stroke-width="0.3" stroke-linejoin="round"/>
</svg>
