<svg xmlns="http://www.w3.org/2000/svg" width="100%" height="100%" viewBox="0 0 100 100" preserveAspectRatio="none">
  <path d="M 69.435,42.112 L 68.977,43.255 L 68.063,45.999 L 61.661,62.69 L 60.289,66.577 L 56.631,65.433 L 56.631,65.205 L 56.173,64.976 L 55.945,64.747 L 55.487,64.29 L 54.116,62.918 L 51.143,59.717 L 50.686,59.031 L 50.686,58.803 L 49.771,57.888 L 48.857,56.974 L 45.884,54.687 L 45.427,54.23 L 44.055,53.544 L 40.626,51.943 L 40.168,51.715 L 40.168,51.715 L 39.711,51.715 L 34.681,51.258 L 34.452,51.029 L 31.937,49.886 L 30.565,47.599 L 30.565,47.599 L 30.565,46.913 L 30.565,46.685 L 30.565,46.227 L 30.794,45.541 L 31.023,44.627 L 31.251,43.712 L 31.48,43.255 L 32.623,39.368 L 33.538,35.938 L 33.995,34.338 L 34.224,33.423 L 38.797,34.338 L 39.711,34.567 L 39.94,34.795 L 41.769,35.024 L 41.998,35.024 L 52.286,37.768 L 57.088,38.911 L 58.46,39.139 L 65.776,41.197 L 69.435,42.112 Z" fill="rgba(59,130,246,0.25)" fill-rule="evenodd" stroke="rgba(59,130,246,0.9)" stroke-width="0.3" stroke-linejoin="round"/>
</svg>
