<svg xmlns="http://www.w3.org/2000/svg" width="100%" height="100%" viewBox="0 0 100 100" preserveAspectRatio="none">
  <path d="M 56.059,63.147 L 54.459,63.147 L 51.029,62.918 L 50.8,62.918 L 47.828,62.461 L 46.227,62.232 L 46.227,61.318 L 45.541,56.974 L 44.856,52.401 L 44.398,48.742 L 43.712,44.856 L 43.712,44.627 L 43.255,40.511 L 42.569,39.139 L 42.112,38.682 L 42.569,38.454 L 43.026,38.225 L 44.627,37.996 L 47.828,37.539 L 51.029,37.082 L 51.943,36.853 L 53.087,36.853 L 53.773,36.624 L 54.001,36.624 L 54.001,37.768 L 54.687,41.655 L 54.687,42.569 L 56.745,55.373 L 57.431,59.946 L 57.888,63.376 L 57.66,63.376 L 56.059,63.147 Z" fill="rgba(59,130,246,0.25)" fill-rule="evenodd" stroke="rgba(59,130,246,0.9)" stroke-width="0.3" stroke-linejoin="round"/>
</svg>
