<svg xmlns="http://www.w3.org/2000/svg" width="100%" height="100%" viewBox="0 0 100 100" preserveAspectRatio="none">
  <path d="M 62.918,31.137 L 63.147,31.823 L 64.976,38.225 L 65.433,40.283 L 66.577,43.484 L 62.232,48.057 L 54.916,56.288 L 54.459,56.745 L 52.858,58.574 L 49.428,62.232 L 47.599,64.29 L 43.484,68.863 L 43.484,68.863 L 42.569,67.948 L 38.454,64.29 L 36.396,62.461 L 33.423,59.717 L 33.881,59.26 L 35.253,57.66 L 35.938,56.974 L 38.225,54.459 L 39.139,53.315 L 39.825,52.629 L 41.655,50.572 L 43.941,48.057 L 47.599,43.941 L 50.572,40.969 L 51.029,40.283 L 53.087,37.996 L 54.23,36.624 L 56.288,34.338 L 57.431,32.737 L 62.232,31.366 L 62.918,31.137 Z" fill="rgba(59,130,246,0.25)" fill-rule="evenodd" stroke="rgba(59,130,246,0.9)" stroke-width="0.3" stroke-linejoin="round"/>
</svg>
