<svg xmlns="http://www.w3.org/2000/svg" width="100%" height="100%" viewBox="0 0 100 100" preserveAspectRatio="none">
  <path d="M 39.025,41.54 L 40.397,41.998 L 42.683,43.369 L 45.199,44.741 L 46.342,45.427 L 47.485,45.884 L 47.942,46.113 L 51.829,46.57 L 54.116,46.799 L 56.859,47.028 L 61.203,47.714 L 61.889,47.714 L 62.804,47.942 L 65.09,48.171 L 64.862,48.4 L 62.347,51.143 L 60.06,52.972 L 58.688,53.887 L 57.774,54.344 L 55.487,54.801 L 53.201,55.259 L 43.598,56.402 L 43.369,56.402 L 42.455,56.402 L 42.226,56.631 L 40.168,57.088 L 37.196,58.002 L 36.51,58.002 L 34.91,58.46 L 34.91,56.631 L 34.91,55.716 L 35.138,52.972 L 35.596,50.0 L 35.596,49.543 L 35.824,48.628 L 35.824,48.628 L 36.281,47.256 L 37.653,44.284 L 38.797,41.998 L 39.025,41.54 Z" fill="rgba(59,130,246,0.25)" fill-rule="evenodd" stroke="rgba(59,130,246,0.9)" stroke-width="0.3" stroke-linejoin="round"/>
</svg>
