<svg xmlns="http://www.w3.org/2000/svg" width="100%" height="100%" viewBox="0 0 100 100" preserveAspectRatio="none">
  <path d="M 36.739,69.32 L 34.681,69.778 L 31.48,70.235 L 26.907,71.149 L 31.709,64.747 L 35.596,59.489 L 39.025,54.916 L 44.97,47.142 L 51.372,38.454 L 58.002,30.451 L 58.231,30.222 L 61.889,28.851 L 62.804,30.222 L 64.176,32.28 L 68.749,39.368 L 70.806,43.026 L 72.636,46.227 L 73.093,47.599 L 73.093,48.057 L 73.093,48.971 L 72.864,49.2 L 71.721,49.428 L 70.121,49.886 L 62.118,53.773 L 57.088,56.288 L 50.686,59.26 L 50.457,59.489 L 42.683,63.147 L 40.168,65.891 L 36.739,69.32 Z" fill="rgba(59,130,246,0.25)" fill-rule="evenodd" stroke="rgba(59,130,246,0.9)" stroke-width="0.3" stroke-linejoin="round"/>
</svg>
