<svg xmlns="http://www.w3.org/2000/svg" width="100%" height="100%" viewBox="0 0 100 100" preserveAspectRatio="none">
  <path d="M 61.432,55.373 L 55.259,55.373 L 51.372,55.144 L 48.4,55.373 L 45.884,55.373 L 39.94,55.602 L 33.08,56.059 L 32.852,56.059 L 31.023,56.059 L 31.709,49.428 L 33.309,48.742 L 34.91,48.514 L 37.882,47.371 L 40.168,47.142 L 42.455,47.142 L 43.598,47.142 L 43.598,47.142 L 45.884,46.913 L 46.799,46.685 L 50.915,45.541 L 52.972,44.856 L 53.658,44.627 L 58.002,43.941 L 59.146,44.17 L 60.06,44.627 L 64.404,44.627 L 65.776,44.398 L 66.234,44.398 L 68.977,44.17 L 68.977,44.17 L 68.977,44.17 L 68.977,45.313 L 68.749,49.886 L 68.749,49.886 L 68.749,51.486 L 68.52,55.373 L 68.52,55.373 L 64.404,55.373 L 61.432,55.373 Z" fill="rgba(59,130,246,0.25)" fill-rule="evenodd" stroke="rgba(59,130,246,0.9)" stroke-width="0.3" stroke-linejoin="round"/>
</svg>
