<svg xmlns="http://www.w3.org/2000/svg" width="100%" height="100%" viewBox="0 0 100 100" preserveAspectRatio="none">
  <path d="M 38.682,56.288 L 37.996,54.916 L 33.195,45.313 L 30.908,38.911 L 33.881,37.768 L 37.768,47.599 L 42.798,45.77 L 43.255,46.456 L 52.401,42.798 L 50.572,38.225 L 48.742,32.966 L 48.057,32.737 L 48.514,32.509 L 54.916,30.222 L 58.345,29.079 L 59.031,28.851 L 59.489,28.622 L 59.717,28.851 L 61.775,34.795 L 62.004,35.253 L 62.004,35.253 L 62.232,35.481 L 62.461,35.481 L 67.263,38.454 L 67.948,38.911 L 69.092,39.368 L 62.918,49.428 L 60.175,53.544 L 56.516,59.489 L 56.516,59.489 L 53.544,64.519 L 48.971,71.378 L 44.17,65.205 L 38.682,56.288 Z" fill="rgba(59,130,246,0.25)" fill-rule="evenodd" stroke="rgba(59,130,246,0.9)" stroke-width="0.3" stroke-linejoin="round"/>
</svg>
