<svg xmlns="http://www.w3.org/2000/svg" width="100%" height="100%" viewBox="0 0 100 100" preserveAspectRatio="none">
  <path d="M 62.232,40.74 L 63.833,40.74 L 66.348,40.74 L 70.235,40.511 L 71.835,40.74 L 69.778,48.971 L 69.092,52.401 L 69.092,52.629 L 67.491,58.345 L 67.263,59.26 L 67.263,59.946 L 54.459,55.602 L 49.2,54.001 L 48.742,53.773 L 43.026,51.943 L 42.112,51.486 L 40.969,51.258 L 40.054,50.8 L 36.396,49.657 L 28.622,47.142 L 28.165,46.227 L 29.994,40.511 L 30.222,40.511 L 30.908,41.197 L 31.594,41.197 L 32.28,41.197 L 32.737,41.197 L 41.426,40.054 L 42.569,40.511 L 42.798,40.511 L 43.255,40.511 L 43.941,40.74 L 47.599,40.74 L 47.599,40.74 L 48.742,40.74 L 49.428,40.74 L 52.401,40.969 L 53.087,40.969 L 59.489,40.74 L 62.004,40.74 L 62.004,40.74 L 62.232,40.74 L 62.232,40.74 Z" fill="rgba(59,130,246,0.25)" fill-rule="evenodd" stroke="rgba(59,130,246,0.9)" stroke-width="0.3" stroke-linejoin="round"/>
</svg>
