<svg xmlns="http://www.w3.org/2000/svg" width="100%" height="100%" viewBox="0 0 100 100" preserveAspectRatio="none">
  <path d="M 50.457,38.797 L 54.573,40.168 L 55.487,40.397 L 55.487,40.397 L 58.231,41.54 L 58.688,41.769 L 60.975,42.683 L 61.203,42.912 L 64.176,44.284 L 64.862,44.513 L 72.178,47.942 L 61.203,42.912 L 55.487,40.626 L 55.03,40.397 L 49.314,38.568 L 55.03,40.397 L 55.487,40.626 L 54.801,41.083 L 52.972,42.683 L 52.286,43.369 L 50.457,44.97 L 50.0,45.656 L 49.543,46.342 L 48.628,48.628 L 48.4,49.085 L 47.714,50.229 L 47.256,51.6 L 45.884,54.573 L 45.656,55.259 L 43.827,59.374 L 41.769,63.947 L 41.083,65.09 L 40.397,66.691 L 39.94,66.234 L 37.653,64.404 L 33.538,60.06 L 31.709,58.231 L 30.337,57.088 L 27.822,54.573 L 28.05,54.573 L 28.508,53.658 L 29.422,52.058 L 29.879,51.6 L 31.709,48.4 L 32.166,47.714 L 32.166,47.485 L 32.395,47.256 L 32.623,47.028 L 34.452,42.912 L 34.681,42.226 L 34.91,41.769 L 36.739,37.653 L 38.797,33.538 L 38.797,33.309 L 49.771,38.568 L 50.457,38.797 Z" fill="rgba(59,130,246,0.25)" fill-rule="evenodd" stroke="rgba(59,130,246,0.9)" stroke-width="0.3" stroke-linejoin="round"/>
</svg>
