<svg xmlns="http://www.w3.org/2000/svg" width="100%" height="100%" viewBox="0 0 100 100" preserveAspectRatio="none">
  <path d="M 67.377,64.862 L 65.548,64.404 L 50.457,58.688 L 40.168,54.801 L 40.168,54.801 L 40.168,54.573 L 30.337,50.915 L 26.907,49.543 L 26.907,49.543 L 26.907,49.543 L 27.593,47.485 L 30.108,41.083 L 32.166,35.138 L 33.538,35.596 L 38.111,37.425 L 41.083,38.797 L 43.598,39.711 L 44.055,39.94 L 44.513,39.94 L 45.884,40.626 L 47.485,41.083 L 48.171,41.54 L 50.0,42.226 L 50.686,42.455 L 54.344,44.055 L 58.002,45.427 L 58.917,45.884 L 60.518,46.342 L 60.518,46.342 L 65.319,48.171 L 67.834,49.085 L 67.834,49.085 L 73.093,50.915 L 72.178,52.286 L 70.121,58.002 L 68.977,60.746 L 68.063,62.804 L 67.377,64.862 L 67.377,64.862 Z" fill="rgba(59,130,246,0.25)" fill-rule="evenodd" stroke="rgba(59,130,246,0.9)" stroke-width="0.3" stroke-linejoin="round"/>
</svg>
