<svg xmlns="http://www.w3.org/2000/svg" width="100%" height="100%" viewBox="0 0 100 100" preserveAspectRatio="none">
  <path d="M 54.801,33.538 L 63.719,36.281 L 63.719,36.281 L 57.774,53.201 L 56.402,57.088 L 56.402,57.088 L 55.716,59.146 L 55.716,59.374 L 54.801,61.432 L 52.058,69.435 L 52.058,69.435 L 52.058,69.663 L 52.058,69.663 L 52.058,69.663 L 50.229,67.605 L 49.771,67.377 L 49.314,66.691 L 44.284,61.432 L 44.055,61.203 L 43.598,60.746 L 43.369,60.746 L 43.369,60.746 L 42.912,60.518 L 42.455,60.289 L 36.281,53.658 L 38.568,46.799 L 40.397,42.226 L 41.998,37.882 L 41.998,37.882 L 42.226,36.967 L 42.912,35.367 L 44.513,30.337 L 44.741,30.337 L 44.741,30.337 L 50.686,32.166 L 54.344,33.309 L 54.801,33.538 Z" fill="rgba(59,130,246,0.25)" fill-rule="evenodd" stroke="rgba(59,130,246,0.9)" stroke-width="0.3" stroke-linejoin="round"/>
</svg>
