<svg xmlns="http://www.w3.org/2000/svg" width="100%" height="100%" viewBox="0 0 100 100" preserveAspectRatio="none">
  <path d="M 54.573,41.426 L 58.688,46.685 L 61.432,50.114 L 61.889,51.029 L 63.49,53.087 L 61.661,56.516 L 61.203,57.888 L 56.631,66.805 L 55.487,62.918 L 51.143,59.489 L 46.113,55.602 L 44.513,54.687 L 44.513,54.687 L 44.284,54.459 L 42.226,50.572 L 41.769,49.428 L 39.94,46.913 L 39.94,46.913 L 37.653,43.712 L 36.51,42.112 L 36.967,41.655 L 37.653,41.197 L 40.854,38.911 L 45.199,35.71 L 47.714,33.881 L 48.628,33.195 L 48.628,33.195 L 49.543,34.338 L 51.6,37.082 L 54.573,41.426 Z" fill="rgba(59,130,246,0.25)" fill-rule="evenodd" stroke="rgba(59,130,246,0.9)" stroke-width="0.3" stroke-linejoin="round"/>
</svg>
