<svg xmlns="http://www.w3.org/2000/svg" width="100%" height="100%" viewBox="0 0 100 100" preserveAspectRatio="none">
  <path d="M 37.196,30.222 L 40.854,31.823 L 43.141,32.966 L 43.598,33.195 L 45.427,34.109 L 50.915,36.853 L 54.573,38.682 L 57.545,39.825 L 58.688,40.511 L 59.374,40.74 L 63.261,42.34 L 66.92,43.712 L 71.264,45.541 L 74.007,46.685 L 77.208,48.057 L 78.352,48.514 L 77.894,48.971 L 75.837,51.943 L 73.779,54.687 L 73.55,54.916 L 73.55,54.916 L 70.578,59.26 L 68.749,62.004 L 68.749,62.004 L 66.234,67.491 L 64.176,72.064 L 63.261,74.35 L 63.033,74.808 L 62.347,76.637 L 59.146,75.494 L 56.173,74.579 L 52.972,74.122 L 48.628,73.436 L 48.857,71.835 L 48.857,70.921 L 50.0,59.26 L 50.229,58.803 L 48.628,58.574 L 26.678,56.516 L 26.678,56.288 L 26.221,52.858 L 25.535,48.285 L 23.477,35.481 L 23.477,34.567 L 22.792,30.68 L 22.792,29.536 L 22.106,25.421 L 21.648,23.363 L 22.563,23.592 L 23.249,23.82 L 27.822,25.878 L 31.48,27.479 L 37.196,30.222 Z" fill="rgba(59,130,246,0.25)" fill-rule="evenodd" stroke="rgba(59,130,246,0.9)" stroke-width="0.3" stroke-linejoin="round"/>
</svg>
