<svg xmlns="http://www.w3.org/2000/svg" width="100%" height="100%" viewBox="0 0 100 100" preserveAspectRatio="none">
  <path d="M 46.113,41.655 L 47.256,41.883 L 50.457,42.34 L 51.6,42.569 L 55.716,43.255 L 56.402,43.484 L 57.088,43.712 L 56.631,45.77 L 54.573,45.313 L 54.344,45.999 L 53.201,49.2 L 59.374,54.687 L 59.374,54.916 L 59.832,51.486 L 59.374,54.916 L 61.432,58.574 L 56.173,58.345 L 53.201,58.345 L 52.515,58.117 L 42.912,57.202 L 42.683,55.83 L 42.226,54.687 L 41.769,53.773 L 40.626,51.029 L 38.568,46.685 L 39.482,46.227 L 39.94,42.569 L 44.97,43.484 L 45.199,41.426 L 46.113,41.655 Z" fill="rgba(59,130,246,0.25)" fill-rule="evenodd" stroke="rgba(59,130,246,0.9)" stroke-width="0.3" stroke-linejoin="round"/>
</svg>
