<svg xmlns="http://www.w3.org/2000/svg" width="100%" height="100%" viewBox="0 0 100 100" preserveAspectRatio="none">
  <path d="M 50.8,66.234 L 47.599,64.176 L 47.599,64.176 L 44.856,62.347 L 44.856,62.347 L 39.139,58.231 L 38.911,58.231 L 40.283,55.487 L 43.255,48.4 L 45.541,43.141 L 48.514,36.281 L 49.657,33.766 L 49.657,33.766 L 50.572,34.224 L 51.486,34.452 L 53.315,35.367 L 55.83,36.51 L 56.288,36.739 L 60.632,38.568 L 61.089,38.797 L 60.861,39.482 L 60.861,39.711 L 58.345,45.199 L 58.345,45.199 L 56.516,49.085 L 56.516,49.771 L 56.516,50.0 L 56.974,50.229 L 57.431,50.229 L 57.66,50.229 L 57.888,50.457 L 58.117,51.143 L 57.888,51.829 L 57.888,51.829 L 55.144,57.545 L 55.144,57.774 L 52.401,63.261 L 52.172,63.49 L 50.8,66.234 Z" fill="rgba(59,130,246,0.25)" fill-rule="evenodd" stroke="rgba(59,130,246,0.9)" stroke-width="0.3" stroke-linejoin="round"/>
</svg>
