<svg xmlns="http://www.w3.org/2000/svg" width="100%" height="100%" viewBox="0 0 100 100" preserveAspectRatio="none">
  <path d="M 57.888,33.423 L 57.888,33.423 L 62.461,35.253 L 64.062,35.938 L 64.062,36.167 L 62.918,38.911 L 58.345,49.428 L 55.373,56.288 L 55.144,56.516 L 55.144,56.516 L 54.916,57.202 L 51.943,64.062 L 51.943,64.29 L 49.886,68.863 L 49.657,69.32 L 49.657,69.32 L 49.428,69.549 L 49.428,69.549 L 49.428,69.549 L 47.142,68.406 L 45.313,67.72 L 43.026,66.577 L 42.798,66.577 L 42.798,66.577 L 35.938,63.604 L 36.624,62.004 L 40.054,54.23 L 41.197,52.172 L 44.17,44.856 L 44.17,44.856 L 44.17,44.627 L 46.685,39.139 L 46.913,38.911 L 48.057,36.396 L 49.2,33.423 L 49.428,32.966 L 50.572,30.451 L 50.572,30.451 L 54.459,32.052 L 57.888,33.423 Z" fill="rgba(59,130,246,0.25)" fill-rule="evenodd" stroke="rgba(59,130,246,0.9)" stroke-width="0.3" stroke-linejoin="round"/>
</svg>
