<svg xmlns="http://www.w3.org/2000/svg" width="100%" height="100%" viewBox="0 0 100 100" preserveAspectRatio="none">
  <path d="M 51.772,29.994 L 53.944,27.479 L 54.058,27.479 L 54.058,27.364 L 54.287,27.25 L 54.173,26.907 L 55.316,26.335 L 56.345,25.764 L 62.747,31.937 L 58.517,36.053 L 57.145,37.882 L 55.43,39.94 L 55.888,41.54 L 62.29,56.059 L 57.031,61.546 L 45.256,74.236 L 37.253,62.918 L 38.511,62.575 L 38.511,62.575 L 38.968,62.69 L 40.34,62.69 L 41.597,61.775 L 42.398,61.203 L 42.855,60.975 L 43.084,60.746 L 43.312,60.518 L 43.427,60.289 L 43.541,60.06 L 43.769,59.717 L 43.769,59.26 L 43.884,59.146 L 43.884,59.031 L 43.769,58.803 L 43.769,58.688 L 43.312,57.545 L 43.312,57.431 L 43.427,51.486 L 43.541,48.742 L 43.655,45.427 L 43.769,44.741 L 44.227,43.827 L 44.341,43.484 L 44.341,43.141 L 44.57,41.312 L 44.913,37.31 L 45.027,36.967 L 45.256,34.109 L 45.37,32.852 L 45.599,32.623 L 46.17,32.166 L 47.999,30.794 L 48.457,30.451 L 50.629,28.965 L 51.543,30.108 L 51.772,29.994 Z M 38.625,62.804 L 38.053,63.261 L 38.168,63.376 L 38.511,63.719 L 39.197,63.604 L 38.968,63.376 L 38.739,63.033 L 38.625,62.804 Z" fill="rgba(59,130,246,0.25)" fill-rule="evenodd" stroke="rgba(59,130,246,0.9)" stroke-width="0.3" stroke-linejoin="round"/>
</svg>
