<svg xmlns="http://www.w3.org/2000/svg" width="100%" height="100%" viewBox="0 0 100 100" preserveAspectRatio="none">
  <path d="M 66.691,43.598 L 62.347,48.171 L 60.975,49.771 L 55.945,55.259 L 53.658,57.774 L 53.201,58.231 L 49.085,63.033 L 47.714,64.633 L 47.028,65.776 L 45.656,65.09 L 45.427,65.09 L 45.427,65.09 L 44.741,64.862 L 45.427,65.09 L 45.199,65.09 L 44.741,64.862 L 42.226,63.947 L 39.254,62.575 L 34.681,60.746 L 33.309,60.289 L 33.538,59.832 L 33.995,59.146 L 37.653,55.259 L 38.339,54.573 L 38.797,53.887 L 41.54,51.143 L 44.055,48.171 L 45.199,46.799 L 49.085,42.455 L 51.143,40.397 L 55.487,35.138 L 56.402,34.224 L 61.203,38.568 L 61.432,38.568 L 63.947,41.083 L 65.776,42.683 L 66.691,43.598 Z" fill="rgba(59,130,246,0.25)" fill-rule="evenodd" stroke="rgba(59,130,246,0.9)" stroke-width="0.3" stroke-linejoin="round"/>
</svg>
