<svg xmlns="http://www.w3.org/2000/svg" width="100%" height="100%" viewBox="0 0 100 100" preserveAspectRatio="none">
  <path d="M 45.77,64.633 L 44.856,63.719 L 36.624,56.173 L 35.938,55.487 L 36.396,55.03 L 38.911,52.286 L 45.084,45.427 L 48.057,41.998 L 53.544,35.824 L 54.001,35.367 L 54.001,35.367 L 56.745,37.653 L 56.745,37.653 L 59.26,39.94 L 59.26,39.94 L 61.089,41.54 L 61.089,41.769 L 62.461,42.912 L 63.604,43.827 L 64.062,44.284 L 64.062,44.284 L 63.147,45.199 L 60.403,48.4 L 58.574,50.229 L 56.745,52.515 L 56.745,52.515 L 56.059,53.201 L 55.144,54.116 L 54.23,55.259 L 50.343,59.374 L 46.913,63.261 L 45.77,64.633 Z" fill="rgba(59,130,246,0.25)" fill-rule="evenodd" stroke="rgba(59,130,246,0.9)" stroke-width="0.3" stroke-linejoin="round"/>
</svg>
