<svg xmlns="http://www.w3.org/2000/svg" width="100%" height="100%" viewBox="0 0 100 100" preserveAspectRatio="none">
  <path d="M 39.597,59.146 L 39.825,57.088 L 39.825,56.402 L 40.283,50.229 L 40.283,48.857 L 41.197,41.54 L 41.426,40.854 L 45.541,41.54 L 50.343,42.912 L 51.486,43.141 L 54.459,43.827 L 55.144,44.055 L 56.059,44.284 L 59.717,45.199 L 60.403,45.427 L 60.403,45.427 L 60.175,46.342 L 60.175,46.799 L 59.717,49.771 L 59.489,52.515 L 59.489,53.43 L 59.489,55.259 L 59.031,55.487 L 55.83,56.402 L 55.373,56.402 L 50.572,57.774 L 50.114,57.774 L 48.057,58.231 L 48.057,58.231 L 46.685,58.688 L 45.084,58.917 L 42.798,58.917 L 39.597,59.146 Z" fill="rgba(59,130,246,0.25)" fill-rule="evenodd" stroke="rgba(59,130,246,0.9)" stroke-width="0.3" stroke-linejoin="round"/>
</svg>
