<svg xmlns="http://www.w3.org/2000/svg" width="100%" height="100%" viewBox="0 0 100 100" preserveAspectRatio="none">
  <path d="M 85.668,40.626 L 85.668,41.083 L 85.211,43.141 L 84.982,45.427 L 85.897,47.256 L 86.354,49.085 L 86.811,54.344 L 87.04,56.631 L 86.811,58.231 L 86.583,60.518 L 86.583,62.347 L 86.354,64.176 L 85.44,65.776 L 84.754,67.148 L 84.068,68.291 L 83.382,69.435 L 71.035,65.776 L 63.947,63.49 L 60.746,61.889 L 57.545,60.289 L 50.0,58.917 L 49.543,58.917 L 48.171,58.688 L 45.884,58.002 L 42.455,56.859 L 38.568,55.487 L 38.111,55.259 L 29.651,52.286 L 29.651,52.286 L 16.618,47.942 L 16.161,48.171 L 13.417,48.171 L 13.417,47.714 L 13.189,47.028 L 12.96,45.199 L 12.96,44.97 L 12.96,43.598 L 15.475,43.369 L 18.676,40.168 L 21.877,36.967 L 23.935,34.91 L 25.307,33.309 L 26.45,32.623 L 27.136,31.937 L 27.822,31.48 L 27.822,31.48 L 28.736,31.023 L 35.138,30.794 L 37.882,30.794 L 42.455,30.794 L 42.912,30.794 L 43.827,30.794 L 45.884,30.565 L 48.4,30.565 L 49.543,30.565 L 50.686,30.565 L 50.915,30.565 L 51.829,30.794 L 52.058,30.794 L 53.43,31.023 L 57.774,32.166 L 58.688,32.623 L 59.374,32.852 L 62.804,33.766 L 66.462,34.681 L 68.977,34.681 L 69.663,34.681 L 73.093,34.452 L 75.608,35.824 L 79.724,37.882 L 85.668,40.626 Z" fill="rgba(59,130,246,0.25)" fill-rule="evenodd" stroke="rgba(59,130,246,0.9)" stroke-width="0.3" stroke-linejoin="round"/>
</svg>
