<svg xmlns="http://www.w3.org/2000/svg" width="100%" height="100%" viewBox="0 0 100 100" preserveAspectRatio="none">
  <path d="M 33.195,43.598 L 33.652,42.912 L 34.567,40.168 L 35.938,36.053 L 36.167,35.367 L 36.853,33.538 L 37.539,33.766 L 38.682,33.995 L 45.084,36.51 L 49.2,38.111 L 53.315,39.482 L 58.117,41.312 L 63.376,43.141 L 65.433,44.055 L 66.119,44.055 L 67.263,44.513 L 67.034,45.199 L 63.833,54.116 L 62.69,57.317 L 59.26,66.462 L 58.117,66.005 L 56.745,65.548 L 48.514,62.575 L 43.941,57.545 L 39.825,52.515 L 36.396,48.857 L 33.881,46.113 L 33.195,45.199 L 32.737,44.741 L 32.737,44.513 L 32.966,44.055 L 33.195,43.598 Z" fill="rgba(59,130,246,0.25)" fill-rule="evenodd" stroke="rgba(59,130,246,0.9)" stroke-width="0.3" stroke-linejoin="round"/>
</svg>
