<svg xmlns="http://www.w3.org/2000/svg" width="100%" height="100%" viewBox="0 0 100 100" preserveAspectRatio="none">
  <path d="M 37.196,36.51 L 46.799,39.94 L 47.714,40.168 L 48.171,40.397 L 49.314,40.854 L 49.314,40.854 L 50.457,41.312 L 50.457,41.312 L 50.457,41.312 L 70.121,48.857 L 70.578,49.085 L 70.578,49.314 L 70.578,49.314 L 70.349,49.543 L 70.349,49.543 L 69.206,50.0 L 67.148,50.686 L 63.719,52.058 L 60.06,54.801 L 58.917,55.716 L 58.46,56.402 L 57.545,57.317 L 55.945,58.688 L 55.03,59.374 L 54.344,60.06 L 52.972,61.661 L 52.058,63.261 L 51.6,63.719 L 51.372,63.719 L 51.143,63.719 L 47.714,62.347 L 45.199,61.432 L 44.741,61.203 L 44.284,60.975 L 42.912,60.518 L 42.226,60.289 L 42.226,60.289 L 38.797,59.146 L 38.111,58.917 L 37.653,58.688 L 29.422,55.716 L 32.623,46.799 L 33.309,44.97 L 36.51,36.281 L 36.51,36.281 L 37.196,36.51 L 37.196,36.51 Z" fill="rgba(59,130,246,0.25)" fill-rule="evenodd" stroke="rgba(59,130,246,0.9)" stroke-width="0.3" stroke-linejoin="round"/>
</svg>
