<svg xmlns="http://www.w3.org/2000/svg" width="100%" height="100%" viewBox="0 0 100 100" preserveAspectRatio="none">
  <path d="M 52.972,32.28 L 53.658,32.737 L 57.317,41.197 L 60.289,48.514 L 60.746,49.428 L 60.746,49.657 L 59.603,51.258 L 57.774,53.773 L 57.088,55.373 L 56.173,56.745 L 55.716,57.431 L 55.487,58.574 L 55.03,59.717 L 53.887,62.461 L 52.515,65.205 L 52.286,65.662 L 51.829,66.577 L 46.57,67.491 L 41.312,68.634 L 40.854,68.634 L 39.482,68.863 L 39.482,67.72 L 39.482,67.263 L 39.254,67.034 L 39.711,61.318 L 39.711,61.318 L 40.168,55.602 L 40.397,53.773 L 40.626,52.172 L 40.854,51.715 L 40.854,51.258 L 40.854,51.258 L 43.598,45.77 L 43.827,44.856 L 44.055,44.856 L 44.97,41.883 L 45.427,40.74 L 47.485,36.624 L 50.229,31.137 L 50.229,31.137 L 50.915,31.366 L 52.972,32.28 Z" fill="rgba(59,130,246,0.25)" fill-rule="evenodd" stroke="rgba(59,130,246,0.9)" stroke-width="0.3" stroke-linejoin="round"/>
</svg>
