<svg xmlns="http://www.w3.org/2000/svg" width="100%" height="100%" viewBox="0 0 100 100" preserveAspectRatio="none">
  <path d="M 40.054,68.291 L 40.054,68.291 L 39.825,66.005 L 38.911,60.518 L 38.911,60.518 L 37.768,52.744 L 37.768,52.515 L 36.396,44.97 L 36.396,44.97 L 36.396,44.97 L 36.396,44.97 L 36.396,44.97 L 36.396,44.741 L 35.253,36.967 L 35.253,36.967 L 34.109,29.422 L 34.109,29.194 L 32.966,21.191 L 32.28,15.932 L 35.938,41.083 L 36.624,44.741 L 36.624,44.97 L 37.768,52.515 L 42.34,83.382 L 37.768,52.515 L 36.624,44.97 L 39.368,44.513 L 39.825,44.284 L 45.084,43.369 L 50.114,42.683 L 50.8,42.455 L 51.943,42.455 L 57.202,41.54 L 59.717,41.312 L 60.861,41.083 L 61.546,40.854 L 61.546,41.083 L 63.376,52.744 L 63.376,53.43 L 64.976,63.947 L 65.433,65.548 L 65.662,67.148 L 65.662,67.834 L 66.119,71.035 L 66.348,72.178 L 66.577,72.636 L 66.577,73.55 L 66.577,73.55 L 67.034,75.608 L 67.72,79.724 L 67.491,79.724 L 66.805,79.952 L 65.662,79.952 L 64.747,80.181 L 61.546,80.638 L 58.345,81.095 L 56.745,81.324 L 56.288,81.553 L 55.83,81.781 L 55.83,82.01 L 55.144,82.239 L 51.258,82.925 L 49.657,83.153 L 49.428,83.153 L 45.313,83.61 L 42.569,84.068 L 42.34,83.839 L 41.197,76.065 L 41.197,75.837 L 40.054,68.291 Z" fill="rgba(59,130,246,0.25)" fill-rule="evenodd" stroke="rgba(59,130,246,0.9)" stroke-width="0.3" stroke-linejoin="round"/>
</svg>
