<svg xmlns="http://www.w3.org/2000/svg" width="100%" height="100%" viewBox="0 0 100 100" preserveAspectRatio="none">
  <path d="M 72.293,48.4 L 72.064,49.085 L 71.378,52.058 L 71.149,54.573 L 70.921,55.487 L 70.921,55.487 L 70.235,59.146 L 69.549,62.804 L 69.549,62.804 L 68.634,63.033 L 63.833,63.261 L 57.66,63.947 L 57.431,63.947 L 56.974,63.947 L 56.974,63.947 L 56.516,63.947 L 56.288,63.947 L 56.059,63.947 L 49.886,64.633 L 49.886,64.633 L 48.514,64.633 L 48.285,64.633 L 43.941,65.09 L 43.941,65.09 L 40.511,65.319 L 38.682,65.548 L 37.31,65.776 L 37.082,65.776 L 34.795,66.005 L 32.509,66.005 L 29.308,66.462 L 27.707,66.462 L 27.707,66.462 L 29.079,62.575 L 29.308,61.889 L 30.68,57.545 L 30.908,57.317 L 31.823,54.344 L 32.737,51.6 L 32.737,51.6 L 33.881,48.628 L 33.881,48.4 L 34.567,46.113 L 36.396,41.083 L 36.396,41.083 L 37.539,37.425 L 38.682,34.224 L 38.911,33.538 L 39.597,33.995 L 42.34,35.138 L 44.398,36.053 L 44.627,36.281 L 45.313,36.51 L 45.541,36.51 L 47.371,37.425 L 49.657,38.339 L 49.657,38.339 L 52.401,39.482 L 55.373,40.854 L 55.373,40.854 L 56.745,41.54 L 58.117,42.226 L 61.546,43.598 L 62.232,43.827 L 70.464,47.485 L 71.607,47.942 L 72.064,48.171 L 72.293,48.4 Z" fill="rgba(59,130,246,0.25)" fill-rule="evenodd" stroke="rgba(59,130,246,0.9)" stroke-width="0.3" stroke-linejoin="round"/>
</svg>
