<svg xmlns="http://www.w3.org/2000/svg" width="100%" height="100%" viewBox="0 0 100 100" preserveAspectRatio="none">
  <path d="M 46.913,63.376 L 43.255,61.775 L 40.511,60.861 L 37.768,59.717 L 36.624,59.26 L 36.624,59.031 L 36.853,58.574 L 38.682,54.459 L 38.911,53.773 L 39.139,53.544 L 40.74,49.657 L 40.969,49.428 L 41.197,48.742 L 41.426,48.514 L 43.255,44.627 L 43.484,44.17 L 43.712,43.484 L 44.627,41.197 L 46.456,36.853 L 46.685,36.396 L 46.685,35.938 L 46.913,35.253 L 48.514,35.253 L 49.428,35.481 L 55.144,35.938 L 55.373,35.938 L 58.117,36.167 L 58.574,36.167 L 63.147,36.624 L 63.376,36.624 L 58.803,46.227 L 56.745,51.029 L 55.602,53.315 L 54.687,55.602 L 54.687,55.83 L 54.23,56.745 L 53.544,58.345 L 52.401,60.403 L 52.401,60.632 L 51.486,62.69 L 51.029,63.833 L 50.572,64.747 L 50.572,64.747 L 49.2,64.29 L 46.913,63.376 Z" fill="rgba(59,130,246,0.25)" fill-rule="evenodd" stroke="rgba(59,130,246,0.9)" stroke-width="0.3" stroke-linejoin="round"/>
</svg>
