<svg xmlns="http://www.w3.org/2000/svg" width="100%" height="100%" viewBox="0 0 100 100" preserveAspectRatio="none">
  <path d="M 45.141,58.803 L 44.455,57.088 L 44.455,56.974 L 43.884,54.916 L 43.084,52.058 L 42.626,50.572 L 42.169,49.428 L 41.826,48.742 L 39.883,44.97 L 39.768,44.741 L 38.854,43.484 L 36.796,40.969 L 36.682,40.74 L 36.453,40.511 L 36.339,40.397 L 36.11,40.283 L 32.337,39.025 L 32.109,39.025 L 31.88,39.025 L 31.766,39.025 L 31.194,39.597 L 30.851,39.94 L 29.822,41.197 L 29.708,41.312 L 29.365,41.655 L 29.251,41.655 L 29.136,41.769 L 29.022,41.769 L 28.908,41.655 L 28.565,41.426 L 28.107,40.854 L 27.879,40.74 L 27.65,40.511 L 27.422,40.168 L 27.307,40.054 L 27.193,39.94 L 27.079,39.597 L 27.079,39.482 L 26.621,38.454 L 25.935,36.967 L 26.05,37.082 L 26.164,36.51 L 28.793,34.109 L 31.423,31.937 L 32.909,31.48 L 35.881,30.68 L 37.939,29.651 L 44.684,27.593 L 49.257,26.564 L 51.2,25.65 L 53.03,25.192 L 54.287,24.849 L 55.888,24.392 L 60.117,23.935 L 63.776,24.049 L 64.233,24.049 L 64.233,25.078 L 64.233,25.307 L 64.233,26.45 L 64.347,27.25 L 63.204,33.195 L 66.519,39.825 L 66.405,48.285 L 66.291,48.285 L 66.634,49.314 L 66.405,49.085 L 65.948,49.085 L 65.948,48.742 L 65.833,49.428 L 65.833,49.428 L 65.262,51.143 L 65.948,52.058 L 66.862,54.687 L 66.748,55.716 L 67.091,56.974 L 66.862,58.46 L 67.32,60.975 L 67.434,62.69 L 69.263,62.347 L 71.893,61.775 L 74.065,61.318 L 73.607,63.49 L 73.607,64.062 L 73.036,64.519 L 72.921,64.747 L 72.464,64.862 L 70.521,65.205 L 69.72,65.09 L 68.234,64.862 L 67.777,64.747 L 67.663,64.633 L 65.376,63.833 L 64.347,63.49 L 63.433,63.49 L 62.861,63.604 L 62.975,64.404 L 62.861,65.09 L 63.204,66.119 L 63.433,66.348 L 64.119,67.377 L 64.347,67.605 L 64.347,67.948 L 63.204,68.291 L 61.032,69.435 L 60.575,72.75 L 61.146,75.837 L 60.003,76.065 L 57.717,73.436 L 54.744,72.178 L 54.973,71.035 L 54.287,70.578 L 52.115,68.634 L 50.4,70.235 L 48.685,68.291 L 48.114,68.634 L 47.428,68.977 L 45.37,70.121 L 43.541,71.378 L 42.855,72.064 L 42.283,72.407 L 42.055,72.064 L 41.826,72.178 L 41.712,72.064 L 42.626,71.378 L 44.455,70.006 L 44.913,69.663 L 45.713,69.206 L 46.856,68.52 L 47.199,68.291 L 47.885,67.834 L 47.656,67.263 L 47.428,66.234 L 47.085,64.862 L 46.742,63.604 L 45.827,60.975 L 45.141,58.917 L 45.141,58.803 Z" fill="rgba(59,130,246,0.25)" fill-rule="evenodd" stroke="rgba(59,130,246,0.9)" stroke-width="0.3" stroke-linejoin="round"/>
</svg>
