<svg xmlns="http://www.w3.org/2000/svg" width="100%" height="100%" viewBox="0 0 100 100" preserveAspectRatio="none">
  <path d="M 25.535,68.977 L 25.535,68.291 L 25.535,66.462 L 25.764,66.005 L 25.764,65.319 L 26.221,62.118 L 26.678,59.146 L 27.136,55.945 L 27.364,53.201 L 27.822,50.0 L 28.279,47.256 L 28.736,44.741 L 29.194,41.998 L 32.166,42.455 L 32.395,41.312 L 31.251,38.568 L 30.794,31.48 L 32.395,31.251 L 37.653,31.023 L 42.226,29.194 L 49.085,26.678 L 55.945,24.163 L 57.774,23.02 L 59.603,23.935 L 74.465,53.201 L 72.636,57.545 L 60.975,62.118 L 58.688,63.719 L 40.626,71.035 L 26.221,76.98 L 25.535,70.578 L 25.535,68.977 Z" fill="rgba(59,130,246,0.25)" fill-rule="evenodd" stroke="rgba(59,130,246,0.9)" stroke-width="0.3" stroke-linejoin="round"/>
</svg>
