<svg xmlns="http://www.w3.org/2000/svg" width="100%" height="100%" viewBox="0 0 100 100" preserveAspectRatio="none">
  <path d="M 42.912,51.372 L 41.312,39.482 L 40.397,33.995 L 39.254,25.993 L 37.653,14.789 L 37.425,13.417 L 37.425,12.503 L 38.797,12.274 L 38.797,12.274 L 39.711,12.045 L 43.598,11.588 L 43.598,11.588 L 44.055,11.359 L 49.771,10.445 L 52.515,9.988 L 52.515,9.988 L 52.515,9.988 L 52.515,10.216 L 52.515,10.216 L 52.515,10.216 L 52.515,10.216 L 52.515,10.216 L 52.515,10.216 L 52.515,10.216 L 52.515,10.216 L 53.887,17.761 L 53.887,17.761 L 53.887,17.99 L 55.03,25.764 L 55.03,25.764 L 55.945,31.251 L 56.173,33.538 L 56.173,33.538 L 57.317,41.083 L 57.317,41.312 L 58.46,49.085 L 58.688,49.314 L 58.688,49.543 L 60.518,72.407 L 60.518,72.407 L 60.746,76.523 L 60.975,77.208 L 61.203,78.58 L 61.432,81.095 L 62.118,87.04 L 62.575,89.784 L 59.832,90.012 L 52.515,86.811 L 45.656,83.839 L 45.427,82.01 L 44.513,74.465 L 44.055,71.95 L 43.827,68.977 L 45.427,66.691 L 45.199,66.691 L 43.369,65.319 L 44.741,62.575 L 44.741,62.118 L 44.055,58.002 L 42.912,51.372 Z" fill="rgba(59,130,246,0.25)" fill-rule="evenodd" stroke="rgba(59,130,246,0.9)" stroke-width="0.3" stroke-linejoin="round"/>
</svg>
