<svg xmlns="http://www.w3.org/2000/svg" width="100%" height="100%" viewBox="0 0 100 100" preserveAspectRatio="none">
  <path d="M 37.882,61.546 L 38.111,60.861 L 39.94,57.202 L 41.769,53.087 L 41.769,53.087 L 42.226,52.401 L 44.513,46.913 L 47.028,41.655 L 50.915,33.195 L 56.402,35.71 L 60.746,37.539 L 62.118,38.225 L 61.432,39.825 L 59.146,45.084 L 59.146,45.084 L 58.46,46.913 L 57.545,48.742 L 57.545,48.742 L 55.03,54.23 L 55.03,54.23 L 52.058,61.089 L 52.058,61.089 L 52.058,61.318 L 50.915,63.833 L 50.229,65.662 L 49.771,66.119 L 49.543,66.805 L 47.942,66.119 L 44.741,64.747 L 41.312,63.147 L 41.312,63.147 L 39.482,62.232 L 37.882,61.546 L 37.882,61.546 Z" fill="rgba(59,130,246,0.25)" fill-rule="evenodd" stroke="rgba(59,130,246,0.9)" stroke-width="0.3" stroke-linejoin="round"/>
</svg>
