<svg xmlns="http://www.w3.org/2000/svg" width="100%" height="100%" viewBox="0 0 100 100" preserveAspectRatio="none">
  <path d="M 39.368,51.486 L 34.795,47.828 L 34.109,47.142 L 35.938,41.655 L 37.082,38.225 L 38.454,34.567 L 38.911,33.652 L 39.368,32.737 L 40.283,31.366 L 40.969,30.908 L 41.655,30.68 L 41.197,29.308 L 41.197,29.079 L 41.197,28.622 L 41.426,28.393 L 41.883,27.936 L 42.569,27.479 L 42.798,27.25 L 45.77,24.278 L 45.999,24.049 L 46.227,23.82 L 46.685,23.82 L 53.087,23.134 L 56.745,22.677 L 57.431,22.677 L 57.888,22.906 L 58.117,23.134 L 58.345,23.363 L 58.574,24.049 L 60.175,29.994 L 60.403,30.451 L 60.632,30.68 L 63.376,31.823 L 65.891,32.966 L 62.004,43.026 L 58.117,53.315 L 54.459,63.147 L 51.029,72.979 L 49.428,77.323 L 43.712,75.036 L 44.627,72.521 L 44.627,72.293 L 45.084,71.835 L 46.685,67.034 L 45.999,69.092 L 46.685,67.034 L 47.371,64.747 L 37.539,61.318 L 38.911,57.888 L 40.74,52.629 L 39.825,51.943 L 39.825,51.943 L 39.368,51.486 Z" fill="rgba(59,130,246,0.25)" fill-rule="evenodd" stroke="rgba(59,130,246,0.9)" stroke-width="0.3" stroke-linejoin="round"/>
</svg>
