<svg xmlns="http://www.w3.org/2000/svg" width="100%" height="100%" viewBox="0 0 100 100" preserveAspectRatio="none">
  <path d="M 64.062,51.486 L 50.8,61.318 L 42.798,67.263 L 41.655,68.177 L 37.996,63.147 L 34.795,59.031 L 29.994,52.629 L 29.994,51.715 L 32.28,50.343 L 37.996,45.999 L 40.969,43.484 L 43.255,41.655 L 43.484,41.655 L 45.084,40.283 L 47.828,38.225 L 47.828,38.225 L 48.057,37.996 L 48.285,37.996 L 48.971,37.31 L 50.8,35.938 L 51.029,35.71 L 53.773,33.652 L 54.916,32.737 L 55.602,32.052 L 56.059,31.823 L 56.059,31.823 L 58.345,34.338 L 63.147,39.597 L 66.577,43.026 L 70.006,47.142 L 70.006,47.142 L 69.32,47.599 L 68.634,48.057 L 64.062,51.486 Z" fill="rgba(59,130,246,0.25)" fill-rule="evenodd" stroke="rgba(59,130,246,0.9)" stroke-width="0.3" stroke-linejoin="round"/>
</svg>
