<svg xmlns="http://www.w3.org/2000/svg" width="100%" height="100%" viewBox="0 0 100 100" preserveAspectRatio="none">
  <path d="M 62.918,32.852 L 64.29,36.053 L 65.662,37.882 L 66.577,39.254 L 67.491,40.626 L 69.32,43.827 L 71.607,47.485 L 71.607,47.714 L 71.607,47.714 L 71.149,48.171 L 70.464,48.628 L 64.519,52.972 L 59.717,56.402 L 54.687,60.289 L 54.687,60.289 L 49.428,64.176 L 48.742,64.633 L 48.742,64.633 L 43.941,67.834 L 43.255,68.291 L 42.798,68.749 L 41.655,67.605 L 40.054,65.319 L 37.31,61.661 L 36.396,60.289 L 35.481,60.518 L 35.253,60.746 L 34.795,60.518 L 32.509,59.603 L 32.509,59.603 L 30.451,58.688 L 28.393,57.774 L 28.393,57.774 L 29.994,53.887 L 31.366,52.972 L 32.052,52.515 L 34.795,50.457 L 37.539,48.4 L 37.768,48.4 L 38.682,47.714 L 39.825,47.028 L 39.825,46.799 L 43.026,44.741 L 43.026,44.741 L 43.484,44.513 L 46.227,42.455 L 46.227,42.455 L 47.371,41.769 L 48.285,41.083 L 48.285,41.083 L 52.172,38.111 L 54.916,36.51 L 54.916,36.51 L 58.117,33.995 L 60.861,32.166 L 61.546,31.48 L 62.004,31.251 L 62.918,32.852 Z" fill="rgba(59,130,246,0.25)" fill-rule="evenodd" stroke="rgba(59,130,246,0.9)" stroke-width="0.3" stroke-linejoin="round"/>
</svg>
