<svg xmlns="http://www.w3.org/2000/svg" width="100%" height="100%" viewBox="0 0 100 100" preserveAspectRatio="none">
  <path d="M 45.427,44.055 L 45.884,41.312 L 45.884,40.168 L 48.4,37.882 L 50.686,38.339 L 56.173,39.711 L 57.545,40.168 L 59.146,42.455 L 58.917,44.284 L 58.688,45.199 L 57.088,54.344 L 56.859,55.487 L 56.859,56.173 L 56.631,56.631 L 56.402,57.088 L 56.402,57.774 L 56.173,59.603 L 52.744,62.118 L 47.942,61.203 L 40.854,60.289 L 41.54,55.487 L 40.854,60.289 L 43.141,60.518 L 45.427,60.975 L 46.113,56.173 L 46.57,54.116 L 46.799,52.058 L 47.028,50.229 L 47.485,46.57 L 44.741,46.113 L 44.055,46.113 L 44.055,46.113 L 44.284,44.97 L 45.199,45.199 L 45.427,44.055 Z" fill="rgba(59,130,246,0.25)" fill-rule="evenodd" stroke="rgba(59,130,246,0.9)" stroke-width="0.3" stroke-linejoin="round"/>
</svg>
