<svg xmlns="http://www.w3.org/2000/svg" width="100%" height="100%" viewBox="0 0 100 100" preserveAspectRatio="none">
  <path d="M 60.175,61.432 L 59.946,61.203 L 56.745,58.688 L 53.544,56.173 L 53.544,55.945 L 51.715,54.573 L 49.886,53.201 L 49.886,52.972 L 46.456,50.457 L 43.255,47.714 L 43.255,47.714 L 41.426,46.342 L 40.283,45.427 L 37.539,43.369 L 37.539,43.141 L 37.31,43.141 L 35.253,41.312 L 34.109,40.168 L 33.423,39.482 L 32.509,39.254 L 35.938,39.254 L 45.541,39.254 L 47.371,39.025 L 48.057,39.025 L 48.971,37.882 L 49.886,38.339 L 57.202,44.055 L 64.976,50.457 L 67.034,52.058 L 67.263,52.515 L 67.491,53.201 L 67.263,53.887 L 67.263,54.116 L 63.376,58.917 L 62.918,59.832 L 62.232,60.518 L 61.546,61.432 L 60.861,62.118 L 60.403,61.661 L 60.175,61.432 Z" fill="rgba(59,130,246,0.25)" fill-rule="evenodd" stroke="rgba(59,130,246,0.9)" stroke-width="0.3" stroke-linejoin="round"/>
</svg>
