<svg xmlns="http://www.w3.org/2000/svg" width="100%" height="100%" viewBox="0 0 100 100" preserveAspectRatio="none">
  <path d="M 51.372,64.404 L 47.256,62.575 L 46.342,62.118 L 45.199,61.661 L 43.598,60.746 L 42.226,60.06 L 41.312,59.603 L 41.083,59.374 L 40.854,59.146 L 40.854,58.917 L 40.168,58.231 L 39.482,56.859 L 38.568,55.487 L 38.111,54.573 L 37.196,52.744 L 36.51,50.686 L 36.51,50.229 L 36.51,49.543 L 36.51,49.085 L 36.51,45.199 L 36.51,42.455 L 36.51,39.482 L 36.51,38.111 L 36.51,37.653 L 36.967,35.138 L 37.196,33.995 L 37.653,34.224 L 41.312,35.824 L 45.199,37.653 L 45.199,37.653 L 47.485,38.568 L 50.0,39.711 L 50.0,39.94 L 51.829,40.626 L 53.658,41.54 L 53.658,41.54 L 58.231,43.369 L 60.06,44.284 L 63.49,45.884 L 63.49,45.884 L 63.261,46.799 L 59.146,55.945 L 58.46,57.317 L 57.774,58.917 L 54.801,66.005 L 54.801,66.005 L 54.801,66.005 L 54.801,66.005 L 51.372,64.404 Z" fill="rgba(59,130,246,0.25)" fill-rule="evenodd" stroke="rgba(59,130,246,0.9)" stroke-width="0.3" stroke-linejoin="round"/>
</svg>
