<svg xmlns="http://www.w3.org/2000/svg" width="100%" height="100%" viewBox="0 0 100 100" preserveAspectRatio="none">
  <path d="M 73.322,34.452 L 73.093,34.91 L 72.864,34.91 L 72.636,35.367 L 72.636,35.596 L 72.407,36.053 L 71.95,40.397 L 70.349,47.485 L 69.435,51.6 L 68.749,57.774 L 68.291,59.832 L 67.834,61.432 L 67.605,62.118 L 66.691,63.261 L 65.776,64.404 L 64.633,64.633 L 55.259,65.776 L 44.97,66.234 L 41.083,66.691 L 40.168,66.92 L 38.568,66.92 L 37.882,66.691 L 35.367,64.404 L 31.709,60.746 L 30.108,59.146 L 28.508,57.317 L 27.364,55.945 L 27.136,55.259 L 26.678,54.344 L 27.136,53.201 L 28.05,52.286 L 28.736,51.829 L 29.422,51.372 L 30.108,51.6 L 33.995,52.058 L 44.741,54.801 L 53.43,57.088 L 55.487,57.545 L 56.859,57.774 L 59.146,58.002 L 60.518,57.317 L 61.661,56.402 L 63.033,54.344 L 63.49,52.515 L 63.947,50.686 L 63.947,49.771 L 64.176,45.884 L 64.633,43.598 L 64.862,41.769 L 65.09,39.482 L 66.462,36.739 L 67.605,35.367 L 69.206,34.224 L 70.806,33.309 L 71.492,33.08 L 71.95,33.309 L 72.407,33.766 L 73.093,34.224 L 73.322,34.452 Z" fill="rgba(59,130,246,0.25)" fill-rule="evenodd" stroke="rgba(59,130,246,0.9)" stroke-width="0.3" stroke-linejoin="round"/>
</svg>
