<svg xmlns="http://www.w3.org/2000/svg" width="100%" height="100%" viewBox="0 0 100 100" preserveAspectRatio="none">
  <path d="M 59.832,54.001 L 55.487,58.803 L 55.487,58.803 L 50.915,63.833 L 45.656,69.778 L 45.656,69.778 L 45.656,69.778 L 45.427,69.549 L 42.912,62.461 L 40.397,56.288 L 40.397,55.602 L 40.397,55.602 L 40.168,55.373 L 37.425,48.057 L 37.425,48.057 L 36.281,44.627 L 35.138,41.197 L 37.425,38.454 L 39.711,35.938 L 39.711,35.71 L 44.741,30.222 L 44.741,30.222 L 45.199,30.68 L 46.57,31.823 L 49.314,34.338 L 52.058,36.853 L 53.43,38.225 L 54.344,39.139 L 55.259,39.825 L 56.859,41.197 L 59.832,43.941 L 63.719,47.371 L 64.404,48.057 L 64.862,48.514 L 64.862,48.514 L 59.832,54.001 L 59.832,54.001 Z" fill="rgba(59,130,246,0.25)" fill-rule="evenodd" stroke="rgba(59,130,246,0.9)" stroke-width="0.3" stroke-linejoin="round"/>
</svg>
