<svg xmlns="http://www.w3.org/2000/svg" width="100%" height="100%" viewBox="0 0 100 100" preserveAspectRatio="none">
  <path d="M 78.923,69.206 L 78.466,69.206 L 78.009,68.977 L 70.921,68.291 L 66.348,68.063 L 59.031,67.605 L 47.599,66.691 L 44.627,66.462 L 43.484,66.462 L 43.484,66.462 L 38.225,66.005 L 38.225,66.005 L 21.077,64.862 L 21.077,64.862 L 21.534,61.661 L 24.049,58.688 L 26.793,55.716 L 27.707,54.801 L 27.707,54.573 L 29.079,53.201 L 30.908,51.143 L 37.082,44.055 L 37.539,43.598 L 39.368,41.769 L 41.197,39.482 L 43.484,37.196 L 44.856,35.596 L 47.371,32.852 L 49.2,30.794 L 48.971,43.598 L 46.227,43.369 L 43.941,45.199 L 42.798,57.088 L 44.856,59.374 L 47.142,59.374 L 48.971,59.603 L 57.888,60.289 L 58.117,56.631 L 59.946,56.859 L 59.717,58.002 L 59.489,61.432 L 59.489,63.261 L 61.775,66.005 L 63.376,66.234 L 65.891,66.234 L 67.034,66.462 L 67.491,66.462 L 67.72,66.691 L 70.235,67.377 L 71.607,67.605 L 72.979,67.834 L 76.866,68.291 L 78.695,68.52 L 78.923,68.52 L 78.923,69.206 Z" fill="rgba(59,130,246,0.25)" fill-rule="evenodd" stroke="rgba(59,130,246,0.9)" stroke-width="0.3" stroke-linejoin="round"/>
</svg>
