<svg xmlns="http://www.w3.org/2000/svg" width="100%" height="100%" viewBox="0 0 100 100" preserveAspectRatio="none">
  <path d="M 34.795,32.623 L 34.795,32.623 L 44.17,35.596 L 58.345,40.168 L 76.18,45.884 L 76.18,45.884 L 75.036,49.543 L 74.122,53.201 L 70.921,54.573 L 68.634,55.945 L 67.72,56.631 L 64.747,58.46 L 64.747,58.688 L 64.062,59.146 L 63.833,59.146 L 62.69,59.832 L 61.775,60.289 L 60.175,61.203 L 58.803,62.118 L 57.202,63.49 L 56.516,63.947 L 54.687,64.404 L 53.773,64.633 L 52.629,64.862 L 44.856,66.462 L 44.627,66.462 L 42.112,66.92 L 40.283,67.148 L 39.368,67.377 L 38.454,67.148 L 37.996,66.92 L 37.768,66.92 L 37.082,66.691 L 35.024,66.691 L 28.165,67.148 L 25.192,67.148 L 24.964,67.148 L 24.049,67.148 L 23.82,67.148 L 24.049,66.691 L 25.192,63.49 L 26.335,59.832 L 26.335,59.832 L 28.622,52.515 L 28.622,52.515 L 30.451,46.342 L 31.594,42.683 L 33.652,36.51 L 34.795,32.623 Z" fill="rgba(59,130,246,0.25)" fill-rule="evenodd" stroke="rgba(59,130,246,0.9)" stroke-width="0.3" stroke-linejoin="round"/>
</svg>
