<svg xmlns="http://www.w3.org/2000/svg" width="100%" height="100%" viewBox="0 0 100 100" preserveAspectRatio="none">
  <path d="M 35.367,62.918 L 42.683,46.685 L 44.741,41.883 L 51.143,28.393 L 51.143,28.393 L 54.116,29.765 L 56.173,30.68 L 59.374,32.052 L 60.06,32.509 L 60.518,32.509 L 60.746,32.737 L 63.261,33.881 L 65.319,34.795 L 65.548,34.795 L 65.09,35.481 L 62.118,42.112 L 57.317,52.401 L 56.859,53.087 L 56.631,53.773 L 52.515,62.918 L 48.857,70.921 L 48.628,71.607 L 41.54,68.177 L 40.854,67.948 L 37.653,66.119 L 34.452,64.747 L 34.452,64.747 L 34.452,64.747 L 35.367,62.918 Z" fill="rgba(59,130,246,0.25)" fill-rule="evenodd" stroke="rgba(59,130,246,0.9)" stroke-width="0.3" stroke-linejoin="round"/>
</svg>
