<svg xmlns="http://www.w3.org/2000/svg" width="100%" height="100%" viewBox="0 0 100 100" preserveAspectRatio="none">
  <path d="M 43.827,40.168 L 44.284,40.626 L 47.485,42.226 L 47.942,42.455 L 50.229,43.827 L 51.372,44.284 L 56.631,47.028 L 62.347,50.0 L 65.319,51.6 L 67.377,52.515 L 68.063,52.972 L 67.834,53.43 L 66.691,55.716 L 65.319,58.688 L 64.862,60.06 L 64.176,59.832 L 60.518,58.917 L 59.603,58.688 L 58.917,58.46 L 55.945,57.774 L 54.801,57.545 L 50.0,56.173 L 45.884,55.487 L 45.427,55.259 L 41.312,54.801 L 38.568,54.573 L 34.452,54.116 L 33.309,53.887 L 31.937,53.887 L 33.766,51.143 L 36.739,46.799 L 36.739,46.799 L 36.967,46.57 L 39.025,43.827 L 41.083,40.854 L 41.54,40.397 L 41.769,40.168 L 42.683,39.94 L 43.827,40.168 L 43.827,40.168 Z" fill="rgba(59,130,246,0.25)" fill-rule="evenodd" stroke="rgba(59,130,246,0.9)" stroke-width="0.3" stroke-linejoin="round"/>
</svg>
