<svg xmlns="http://www.w3.org/2000/svg" width="100%" height="100%" viewBox="0 0 100 100" preserveAspectRatio="none">
  <path d="M 55.487,32.28 L 56.402,33.195 L 57.545,34.338 L 59.374,36.167 L 62.118,38.682 L 63.947,41.197 L 63.719,42.112 L 63.719,42.34 L 62.804,46.227 L 62.118,49.428 L 61.661,50.343 L 61.203,52.401 L 60.289,54.23 L 60.06,54.916 L 59.146,56.288 L 58.46,57.202 L 57.774,57.66 L 57.774,57.66 L 56.859,58.345 L 53.43,60.632 L 49.085,63.147 L 45.656,65.205 L 43.598,65.891 L 40.854,67.034 L 38.568,67.72 L 38.339,67.72 L 38.339,67.263 L 38.111,66.577 L 36.739,59.946 L 36.281,57.202 L 36.053,55.373 L 36.053,53.773 L 36.053,53.087 L 36.053,51.943 L 36.281,50.572 L 36.51,49.657 L 36.739,49.2 L 37.425,48.057 L 38.339,47.142 L 39.025,46.456 L 40.168,45.313 L 42.912,43.026 L 43.827,42.112 L 44.055,41.883 L 44.055,41.883 L 45.427,40.74 L 46.342,40.054 L 48.171,38.454 L 51.829,35.481 L 55.03,32.737 L 55.03,32.509 L 55.487,32.28 Z" fill="rgba(59,130,246,0.25)" fill-rule="evenodd" stroke="rgba(59,130,246,0.9)" stroke-width="0.3" stroke-linejoin="round"/>
</svg>
