<svg xmlns="http://www.w3.org/2000/svg" width="100%" height="100%" viewBox="0 0 100 100" preserveAspectRatio="none">
  <path d="M 40.054,56.745 L 40.168,56.402 L 40.283,55.83 L 40.854,53.315 L 41.197,52.172 L 41.312,51.486 L 41.998,48.742 L 42.112,48.285 L 43.598,41.998 L 44.055,40.283 L 44.055,40.054 L 44.284,39.482 L 44.398,39.025 L 45.084,35.596 L 45.541,33.995 L 45.656,33.538 L 46.342,30.565 L 47.028,27.822 L 47.142,27.25 L 47.599,25.192 L 51.715,26.45 L 56.974,28.165 L 60.06,29.194 L 63.604,30.337 L 63.604,30.337 L 63.033,32.28 L 62.004,35.367 L 61.432,37.196 L 60.518,40.283 L 60.518,40.283 L 59.374,43.941 L 59.374,43.941 L 58.803,45.77 L 58.231,47.371 L 58.117,47.599 L 58.117,47.714 L 58.117,47.714 L 57.202,50.572 L 57.202,50.572 L 56.631,52.401 L 56.631,52.401 L 56.402,53.087 L 56.402,53.087 L 54.801,58.117 L 54.801,58.231 L 54.687,58.574 L 53.773,61.432 L 53.773,61.432 L 53.658,61.546 L 53.658,61.661 L 52.629,64.747 L 52.629,64.747 L 51.943,67.034 L 51.258,69.435 L 51.143,69.549 L 49.886,73.779 L 49.771,74.465 L 49.657,74.808 L 48.971,74.693 L 46.456,74.122 L 45.999,74.007 L 45.884,73.893 L 45.541,73.893 L 42.912,73.322 L 42.455,73.207 L 42.34,73.207 L 42.112,73.207 L 41.197,72.979 L 39.825,72.75 L 37.653,72.293 L 36.396,72.064 L 36.396,72.064 L 39.139,60.746 L 39.139,60.746 L 39.368,59.717 L 39.94,57.202 L 40.054,56.745 Z M 56.288,37.996 L 57.317,38.339 L 57.317,38.339 L 57.317,38.339 L 56.288,37.996 Z M 55.144,37.653 L 56.288,37.996 L 56.288,37.996 L 55.144,37.653 L 55.144,37.653 Z M 53.544,43.026 L 54.573,43.369 L 54.573,43.369 L 53.544,43.026 L 53.544,43.026 Z M 54.573,43.369 L 55.716,43.712 L 55.716,43.712 L 54.573,43.369 L 54.573,43.369 L 54.573,43.369 Z" fill="rgba(59,130,246,0.25)" fill-rule="evenodd" stroke="rgba(59,130,246,0.9)" stroke-width="0.3" stroke-linejoin="round"/>
</svg>
