<svg xmlns="http://www.w3.org/2000/svg" width="100%" height="100%" viewBox="0 0 100 100" preserveAspectRatio="none">
  <path d="M 41.883,50.343 L 41.883,50.114 L 41.883,50.114 L 44.856,43.026 L 45.541,41.426 L 46.227,40.054 L 50.343,30.908 L 50.572,29.994 L 51.029,29.079 L 54.916,30.68 L 56.745,31.366 L 58.117,32.052 L 58.574,32.052 L 61.089,34.109 L 62.461,35.253 L 63.147,36.167 L 63.833,37.082 L 63.833,37.082 L 63.604,37.539 L 62.918,39.825 L 61.775,42.798 L 60.861,45.541 L 59.946,47.828 L 59.717,48.285 L 59.489,48.971 L 57.202,55.144 L 55.83,59.031 L 54.916,61.318 L 54.687,62.004 L 52.858,67.034 L 51.486,70.921 L 50.8,70.464 L 49.886,70.235 L 47.828,69.549 L 40.054,66.577 L 37.539,65.662 L 36.167,65.205 L 36.167,64.976 L 38.911,57.66 L 39.139,57.431 L 41.883,50.343 Z" fill="rgba(59,130,246,0.25)" fill-rule="evenodd" stroke="rgba(59,130,246,0.9)" stroke-width="0.3" stroke-linejoin="round"/>
</svg>
