<svg xmlns="http://www.w3.org/2000/svg" width="100%" height="100%" viewBox="0 0 100 100" preserveAspectRatio="none">
  <path d="M 11.474,56.402 L 16.504,50.915 L 17.647,49.771 L 20.162,46.799 L 20.848,46.113 L 22.906,43.598 L 25.192,41.312 L 25.65,40.854 L 29.308,36.51 L 30.451,35.138 L 32.052,33.309 L 33.881,31.48 L 33.881,31.251 L 35.481,32.395 L 33.881,31.251 L 34.109,31.251 L 35.024,30.337 L 39.139,25.535 L 43.026,21.42 L 43.255,20.962 L 44.398,19.591 L 46.685,16.847 L 52.629,20.505 L 60.175,24.163 L 62.461,25.307 L 62.461,25.307 L 70.235,28.965 L 70.235,28.965 L 70.464,28.965 L 83.725,34.91 L 85.554,35.824 L 85.554,35.824 L 88.526,37.196 L 86.468,41.998 L 86.011,42.455 L 85.097,43.598 L 83.267,38.111 L 80.752,36.967 L 74.579,34.224 L 72.293,39.94 L 71.607,41.54 L 69.778,43.369 L 67.948,45.884 L 66.348,47.256 L 64.747,48.4 L 62.918,49.543 L 60.861,50.457 L 56.059,53.201 L 55.602,53.43 L 54.687,54.116 L 54.687,54.116 L 52.858,55.259 L 52.172,55.716 L 50.572,58.231 L 49.657,59.603 L 48.285,64.176 L 49.886,65.319 L 48.971,66.92 L 48.514,66.691 L 47.142,69.892 L 46.456,72.407 L 45.77,74.465 L 45.541,74.693 L 44.856,76.751 L 43.941,79.266 L 43.255,80.181 L 41.655,82.239 L 41.197,83.153 L 40.054,82.01 L 39.368,81.553 L 37.768,80.181 L 35.481,78.123 L 35.481,78.123 L 28.622,71.95 L 26.335,69.892 L 21.305,65.319 L 21.305,65.319 L 11.474,56.631 L 11.474,56.402 Z" fill="rgba(59,130,246,0.25)" fill-rule="evenodd" stroke="rgba(59,130,246,0.9)" stroke-width="0.3" stroke-linejoin="round"/>
</svg>
