<svg xmlns="http://www.w3.org/2000/svg" width="100%" height="100%" viewBox="0 0 100 100" preserveAspectRatio="none">
  <path d="M 76.408,51.086 L 76.18,51.2 L 76.065,51.429 L 76.008,51.6 L 76.008,52.458 L 76.065,52.858 L 73.15,52.058 L 72.636,51.886 L 71.893,51.829 L 70.349,51.943 L 70.006,52.001 L 69.892,52.172 L 69.835,52.172 L 69.835,52.172 L 69.72,52.344 L 69.549,52.401 L 69.435,52.286 L 69.435,52.344 L 69.377,52.344 L 69.206,52.401 L 69.034,52.687 L 68.863,53.087 L 68.463,53.144 L 68.234,53.372 L 68.12,53.487 L 67.663,54.573 L 67.663,54.687 L 67.434,54.63 L 67.434,54.63 L 67.377,54.573 L 67.32,54.573 L 67.32,54.573 L 67.263,54.573 L 66.348,55.373 L 65.605,56.059 L 65.148,56.459 L 65.033,56.745 L 64.862,57.431 L 64.862,57.888 L 65.148,58.746 L 65.148,58.86 L 65.605,59.946 L 65.948,61.089 L 66.348,62.518 L 66.577,63.433 L 66.691,64.119 L 66.805,64.576 L 66.977,64.919 L 67.034,65.09 L 66.634,65.433 L 66.634,65.491 L 66.577,65.662 L 66.005,67.834 L 66.062,68.177 L 66.119,68.52 L 66.519,68.977 L 67.605,70.006 L 67.605,70.006 L 67.32,70.464 L 67.491,70.635 L 67.034,71.321 L 67.263,70.578 L 67.32,70.349 L 66.691,69.892 L 66.519,69.663 L 66.405,69.377 L 57.831,70.121 L 46.513,70.978 L 43.941,69.892 L 41.369,68.577 L 41.312,68.577 L 39.997,68.349 L 38.854,67.948 L 37.31,68.177 L 37.139,68.234 L 35.195,68.063 L 33.309,66.92 L 29.251,65.662 L 25.764,63.09 L 23.992,63.09 L 22.048,62.404 L 20.848,61.489 L 20.905,61.261 L 18.905,59.832 L 17.476,58.231 L 16.79,57.145 L 16.047,56.002 L 14.618,55.888 L 14.103,55.83 L 14.103,55.83 L 13.932,55.716 L 13.189,55.316 L 15.361,50.686 L 17.418,46.227 L 17.761,45.484 L 17.99,44.913 L 18.104,44.455 L 18.162,44.398 L 19.076,41.597 L 20.219,38.282 L 19.991,38.968 L 19.076,41.597 L 18.905,42.169 L 18.219,44.055 L 18.905,41.883 L 19.019,41.597 L 19.019,41.597 L 19.019,41.54 L 19.648,39.825 L 20.276,37.882 L 20.505,37.367 L 20.905,36.167 L 21.02,36.167 L 21.934,36.51 L 22.048,36.567 L 24.106,37.367 L 24.163,37.367 L 24.335,37.367 L 24.906,37.139 L 25.307,36.967 L 26.335,36.739 L 26.335,36.739 L 26.793,36.567 L 28.508,36.11 L 29.594,35.824 L 30.337,35.538 L 30.451,35.481 L 30.794,35.367 L 30.851,35.367 L 31.537,35.081 L 32.28,34.509 L 32.452,34.338 L 33.138,33.881 L 33.252,33.824 L 33.766,33.538 L 33.881,33.423 L 34.452,32.623 L 34.567,32.452 L 34.567,32.452 L 34.91,32.052 L 34.91,32.052 L 35.367,31.537 L 35.824,31.251 L 35.996,31.194 L 36.281,31.023 L 36.51,31.537 L 37.196,31.766 L 37.196,31.766 L 37.139,31.651 L 37.025,31.537 L 36.739,31.366 L 36.51,31.08 L 36.453,30.966 L 36.624,30.908 L 36.796,30.68 L 37.31,30.337 L 37.768,30.051 L 38.282,29.765 L 38.854,29.422 L 39.139,29.194 L 39.482,28.908 L 39.825,28.679 L 39.997,28.793 L 40.511,29.251 L 40.568,29.308 L 41.083,29.708 L 41.14,29.765 L 41.197,29.822 L 41.712,30.28 L 41.883,30.394 L 42.512,30.908 L 43.369,31.594 L 43.712,31.823 L 43.941,31.994 L 44.684,32.452 L 44.856,32.566 L 44.856,32.623 L 45.084,32.852 L 46.056,33.995 L 46.342,34.224 L 46.513,34.338 L 46.856,34.509 L 47.199,34.624 L 47.485,34.624 L 48.514,34.624 L 49.943,34.509 L 50.114,34.452 L 50.229,34.395 L 50.4,34.338 L 50.457,34.224 L 50.572,34.109 L 51.086,33.023 L 51.658,31.937 L 51.829,31.937 L 55.43,31.766 L 55.602,31.766 L 55.773,31.766 L 55.83,31.823 L 56.916,32.395 L 58.974,33.423 L 61.546,34.738 L 61.718,34.852 L 61.775,35.024 L 61.832,35.253 L 61.889,35.653 L 61.889,35.71 L 62.004,36.11 L 64.919,37.596 L 64.976,37.596 L 66.291,38.225 L 67.434,38.797 L 68.12,39.139 L 68.291,39.197 L 68.349,39.197 L 68.692,39.254 L 70.578,38.396 L 72.407,37.482 L 72.807,37.253 L 73.264,37.025 L 73.607,36.853 L 74.293,36.453 L 74.693,36.224 L 76.408,35.538 L 79.781,33.938 L 79.952,33.881 L 80.009,33.938 L 80.181,33.881 L 80.181,33.881 L 80.409,34.109 L 80.581,34.224 L 80.81,34.338 L 81.095,34.395 L 81.381,34.395 L 83.896,34.567 L 84.068,34.567 L 85.325,34.167 L 85.668,34.91 L 85.954,35.596 L 85.954,35.596 L 86.811,37.882 L 86.811,37.882 L 85.497,38.396 L 85.44,38.396 L 85.097,37.425 L 84.925,38.625 L 84.925,38.625 L 84.754,38.739 L 84.182,39.197 L 82.925,40.854 L 82.925,40.854 L 82.639,41.369 L 82.41,41.597 L 81.781,42.169 L 81.038,42.798 L 80.581,43.255 L 80.581,43.255 L 80.524,43.255 L 80.238,43.598 L 79.724,44.341 L 78.523,45.77 L 78.409,45.942 L 77.952,46.513 L 78.637,47.371 L 78.295,47.771 L 78.409,47.942 L 77.208,49.257 L 76.808,49.657 L 76.18,50.0 L 76.351,50.857 L 76.408,51.086 Z" fill="rgba(59,130,246,0.25)" fill-rule="evenodd" stroke="rgba(59,130,246,0.9)" stroke-width="0.3" stroke-linejoin="round"/>
</svg>
