<svg xmlns="http://www.w3.org/2000/svg" width="100%" height="100%" viewBox="0 0 100 100" preserveAspectRatio="none">
  <path d="M 64.29,68.634 L 61.775,67.491 L 60.403,66.805 L 55.83,64.976 L 55.83,64.976 L 53.315,63.833 L 50.114,62.232 L 49.886,62.232 L 48.514,61.775 L 48.514,61.546 L 44.627,59.946 L 44.627,59.946 L 43.026,59.26 L 43.026,59.26 L 43.026,59.26 L 40.969,58.574 L 39.597,57.888 L 39.597,57.888 L 34.338,55.602 L 32.737,54.916 L 32.966,54.459 L 33.423,53.315 L 35.024,49.428 L 35.938,47.599 L 36.396,46.685 L 37.082,45.084 L 37.539,44.17 L 37.996,43.026 L 37.996,42.798 L 39.368,39.597 L 40.283,37.539 L 41.883,33.423 L 42.34,32.509 L 43.026,32.052 L 43.712,31.366 L 46.685,35.253 L 46.913,35.938 L 51.715,42.569 L 51.715,42.569 L 53.087,44.17 L 55.144,47.142 L 55.144,47.142 L 55.373,47.599 L 55.83,48.285 L 55.83,48.285 L 57.431,50.343 L 58.574,51.715 L 58.574,51.943 L 59.946,53.773 L 61.318,55.602 L 61.318,55.602 L 61.775,56.288 L 62.232,56.974 L 62.461,57.202 L 64.519,59.946 L 66.577,62.918 L 67.263,63.833 L 65.891,64.747 L 64.29,68.634 Z" fill="rgba(59,130,246,0.25)" fill-rule="evenodd" stroke="rgba(59,130,246,0.9)" stroke-width="0.3" stroke-linejoin="round"/>
</svg>
