<svg xmlns="http://www.w3.org/2000/svg" width="100%" height="100%" viewBox="0 0 100 100" preserveAspectRatio="none">
  <path d="M 40.054,30.908 L 41.883,31.366 L 42.34,31.366 L 42.569,31.366 L 43.484,31.594 L 48.742,32.737 L 49.428,32.737 L 49.657,32.966 L 50.572,33.195 L 50.8,33.195 L 55.602,34.338 L 56.974,34.567 L 57.66,34.795 L 58.574,34.795 L 61.546,35.481 L 64.519,36.167 L 64.747,36.167 L 65.433,35.71 L 68.406,32.966 L 69.092,32.052 L 69.32,31.823 L 70.006,32.509 L 72.521,35.024 L 74.35,36.396 L 76.866,38.682 L 76.18,39.139 L 75.951,39.368 L 75.494,39.825 L 74.35,40.969 L 73.665,41.426 L 72.293,42.798 L 71.149,43.941 L 70.235,44.856 L 67.72,47.142 L 65.662,48.971 L 64.976,49.657 L 63.147,51.486 L 60.861,53.544 L 58.803,55.373 L 58.345,55.83 L 57.888,56.516 L 57.431,57.202 L 57.202,57.66 L 56.974,58.345 L 56.516,59.26 L 55.373,62.232 L 54.687,64.29 L 53.544,67.263 L 51.943,70.921 L 51.943,70.921 L 51.943,70.921 L 43.484,67.491 L 43.484,67.491 L 39.597,66.119 L 35.71,64.519 L 34.795,64.062 L 34.795,64.062 L 23.134,59.717 L 26.107,46.913 L 26.793,44.627 L 30.451,29.079 L 32.966,29.536 L 37.31,30.451 L 40.054,30.908 Z" fill="rgba(59,130,246,0.25)" fill-rule="evenodd" stroke="rgba(59,130,246,0.9)" stroke-width="0.3" stroke-linejoin="round"/>
</svg>
