<svg xmlns="http://www.w3.org/2000/svg" width="100%" height="100%" viewBox="0 0 100 100" preserveAspectRatio="none">
  <path d="M 56.402,57.088 L 47.485,58.688 L 43.141,59.374 L 40.626,59.603 L 38.339,59.832 L 38.111,59.832 L 37.882,59.603 L 36.51,52.515 L 36.053,50.686 L 34.91,45.427 L 35.367,44.741 L 36.281,44.513 L 36.51,44.513 L 44.741,42.683 L 45.656,42.455 L 55.259,40.397 L 55.487,40.168 L 56.173,40.168 L 56.173,40.168 L 56.859,41.083 L 59.832,46.342 L 60.975,48.4 L 61.661,49.314 L 61.661,49.543 L 64.404,54.116 L 64.633,54.573 L 65.09,55.259 L 63.261,55.716 L 63.033,55.716 L 56.402,57.088 Z" fill="rgba(59,130,246,0.25)" fill-rule="evenodd" stroke="rgba(59,130,246,0.9)" stroke-width="0.3" stroke-linejoin="round"/>
</svg>
