<svg xmlns="http://www.w3.org/2000/svg" width="100%" height="100%" viewBox="0 0 100 100" preserveAspectRatio="none">
  <path d="M 56.173,36.51 L 66.005,45.199 L 66.005,45.199 L 65.319,45.656 L 60.746,50.915 L 58.917,52.972 L 57.774,54.116 L 53.43,58.917 L 52.058,60.289 L 49.543,63.033 L 49.314,63.49 L 49.314,63.49 L 48.857,63.49 L 47.942,63.49 L 47.485,63.49 L 42.226,62.804 L 38.339,62.118 L 38.339,62.118 L 36.053,61.889 L 34.452,61.432 L 33.995,61.203 L 34.452,60.746 L 37.882,56.859 L 41.769,52.286 L 45.884,47.714 L 47.256,46.342 L 50.0,43.369 L 53.43,39.254 L 56.173,36.51 Z" fill="rgba(59,130,246,0.25)" fill-rule="evenodd" stroke="rgba(59,130,246,0.9)" stroke-width="0.3" stroke-linejoin="round"/>
</svg>
