<svg xmlns="http://www.w3.org/2000/svg" width="100%" height="100%" viewBox="0 0 100 100" preserveAspectRatio="none">
  <path d="M 68.291,62.461 L 67.148,62.69 L 66.92,62.69 L 62.347,63.604 L 61.661,63.604 L 56.859,64.519 L 55.716,64.519 L 54.801,64.747 L 48.857,65.891 L 48.171,65.891 L 41.312,67.034 L 41.312,67.263 L 37.425,67.72 L 37.425,67.72 L 35.824,68.177 L 31.937,68.634 L 31.709,68.863 L 30.108,69.092 L 24.392,70.006 L 17.99,70.921 L 15.704,71.149 L 16.39,69.778 L 18.905,64.29 L 18.905,64.29 L 21.648,58.117 L 21.648,58.117 L 25.764,49.2 L 26.221,48.057 L 26.221,47.828 L 33.08,33.423 L 34.681,29.536 L 34.91,28.851 L 36.281,29.536 L 43.827,32.966 L 44.055,32.966 L 44.055,32.966 L 50.0,35.71 L 50.0,35.938 L 54.573,37.996 L 55.259,38.225 L 55.487,38.225 L 55.487,38.225 L 59.374,40.283 L 59.603,40.283 L 60.746,40.74 L 60.746,40.74 L 61.203,40.74 L 64.404,42.34 L 64.633,42.34 L 65.319,42.798 L 65.319,42.798 L 66.005,43.026 L 69.435,44.627 L 69.435,44.627 L 70.349,44.856 L 74.693,46.685 L 74.693,46.685 L 82.467,50.114 L 83.153,50.572 L 84.296,51.029 L 83.382,53.315 L 79.724,61.546 L 79.495,61.775 L 78.123,61.546 L 78.123,61.546 L 77.666,61.546 L 74.465,61.318 L 72.636,61.775 L 71.492,62.004 L 71.492,62.004 L 68.749,62.461 L 68.291,62.461 Z" fill="rgba(59,130,246,0.25)" fill-rule="evenodd" stroke="rgba(59,130,246,0.9)" stroke-width="0.3" stroke-linejoin="round"/>
</svg>
