<svg xmlns="http://www.w3.org/2000/svg" width="100%" height="100%" viewBox="0 0 100 100" preserveAspectRatio="none">
  <path d="M 66.234,44.513 L 60.06,51.6 L 58.231,53.658 L 56.859,55.03 L 56.859,55.259 L 55.945,56.173 L 53.201,59.146 L 50.686,62.118 L 50.229,65.319 L 45.199,65.09 L 44.97,65.09 L 33.309,64.176 L 33.309,64.176 L 33.538,60.746 L 34.452,58.917 L 38.797,54.116 L 46.342,45.656 L 46.342,45.656 L 51.372,39.94 L 56.173,34.681 L 57.088,35.367 L 58.688,36.739 L 61.203,39.025 L 61.203,39.025 L 62.347,40.168 L 63.49,41.312 L 65.09,42.455 L 66.005,43.598 L 66.691,44.055 L 66.234,44.513 Z" fill="rgba(59,130,246,0.25)" fill-rule="evenodd" stroke="rgba(59,130,246,0.9)" stroke-width="0.3" stroke-linejoin="round"/>
</svg>
