<svg xmlns="http://www.w3.org/2000/svg" width="100%" height="100%" viewBox="0 0 100 100" preserveAspectRatio="none">
  <path d="M 39.368,62.347 L 39.139,56.859 L 38.682,51.372 L 38.682,51.143 L 38.225,46.57 L 37.768,41.998 L 38.682,41.998 L 39.597,41.998 L 42.112,41.54 L 44.17,41.083 L 46.913,40.626 L 47.371,40.397 L 48.971,40.168 L 50.572,39.711 L 52.858,39.025 L 53.544,38.797 L 54.459,38.568 L 56.288,37.882 L 56.745,37.653 L 57.202,38.568 L 62.004,49.085 L 62.232,49.543 L 61.546,50.0 L 60.175,50.915 L 59.489,51.372 L 57.66,52.286 L 54.916,53.887 L 53.773,54.573 L 53.087,55.03 L 51.715,55.716 L 50.572,56.402 L 48.514,57.545 L 48.057,57.774 L 45.999,58.917 L 43.941,60.289 L 42.112,61.203 L 41.883,61.432 L 41.655,61.432 L 41.197,61.661 L 40.283,62.118 L 39.825,62.347 L 39.368,62.347 Z" fill="rgba(59,130,246,0.25)" fill-rule="evenodd" stroke="rgba(59,130,246,0.9)" stroke-width="0.3" stroke-linejoin="round"/>
</svg>
