<svg xmlns="http://www.w3.org/2000/svg" width="100%" height="100%" viewBox="0 0 100 100" preserveAspectRatio="none">
  <path d="M 52.286,31.023 L 55.487,32.395 L 57.317,33.08 L 58.002,33.538 L 61.661,35.138 L 63.719,36.053 L 63.719,36.053 L 63.49,36.739 L 62.347,39.025 L 60.746,42.912 L 56.173,52.972 L 55.945,53.43 L 54.116,57.774 L 54.116,57.774 L 53.201,59.603 L 51.829,62.575 L 51.372,63.947 L 50.686,65.548 L 49.543,68.52 L 49.085,69.435 L 43.598,66.92 L 43.598,66.92 L 38.339,64.633 L 38.339,64.633 L 36.51,63.719 L 36.281,63.719 L 36.51,63.261 L 36.739,62.804 L 39.94,55.716 L 41.54,52.286 L 41.54,52.286 L 43.369,48.171 L 43.369,48.171 L 44.513,45.656 L 45.427,43.369 L 45.427,43.369 L 48.628,36.281 L 50.457,32.166 L 50.915,31.023 L 51.143,30.565 L 51.143,30.565 L 51.143,30.565 L 51.372,30.565 L 51.372,30.565 L 52.286,31.023 Z" fill="rgba(59,130,246,0.25)" fill-rule="evenodd" stroke="rgba(59,130,246,0.9)" stroke-width="0.3" stroke-linejoin="round"/>
</svg>
