<svg xmlns="http://www.w3.org/2000/svg" width="100%" height="100%" viewBox="0 0 100 100" preserveAspectRatio="none">
  <path d="M 37.31,59.717 L 37.082,59.717 L 36.396,59.489 L 36.167,59.26 L 34.109,58.345 L 31.366,57.202 L 30.68,56.745 L 30.908,56.059 L 31.137,55.373 L 33.652,47.828 L 35.938,41.197 L 36.396,39.825 L 43.712,40.511 L 43.712,40.511 L 50.343,40.969 L 50.572,40.969 L 55.373,41.426 L 55.602,41.426 L 56.974,41.655 L 57.202,41.655 L 57.202,41.655 L 69.32,42.798 L 69.32,42.798 L 68.863,43.941 L 68.406,47.371 L 67.72,50.8 L 57.202,47.142 L 57.431,46.456 L 52.629,45.084 L 50.114,44.17 L 49.886,44.17 L 47.599,43.484 L 43.941,42.569 L 42.34,47.142 L 41.426,49.886 L 40.511,52.858 L 39.597,55.602 L 38.225,60.175 L 37.31,59.717 Z" fill="rgba(59,130,246,0.25)" fill-rule="evenodd" stroke="rgba(59,130,246,0.9)" stroke-width="0.3" stroke-linejoin="round"/>
</svg>
