<svg xmlns="http://www.w3.org/2000/svg" width="100%" height="100%" viewBox="0 0 100 100" preserveAspectRatio="none">
  <path d="M 38.682,58.345 L 38.682,58.117 L 41.655,51.258 L 41.883,50.572 L 41.883,50.572 L 42.112,50.343 L 45.084,43.484 L 49.657,32.966 L 50.8,30.222 L 53.544,31.366 L 56.745,33.881 L 61.318,37.082 L 63.376,38.682 L 63.604,38.682 L 63.604,38.911 L 62.461,41.426 L 60.632,45.541 L 59.946,47.371 L 58.345,50.8 L 58.345,50.8 L 58.117,51.029 L 56.974,53.544 L 55.83,56.059 L 55.83,56.288 L 55.373,57.431 L 55.144,57.66 L 54.916,58.574 L 53.544,61.775 L 52.172,64.747 L 52.172,64.747 L 51.258,66.805 L 49.886,69.778 L 48.971,69.32 L 43.712,66.805 L 42.569,66.348 L 38.911,64.747 L 36.396,63.376 L 36.396,63.376 L 36.624,62.918 L 38.682,58.345 Z" fill="rgba(59,130,246,0.25)" fill-rule="evenodd" stroke="rgba(59,130,246,0.9)" stroke-width="0.3" stroke-linejoin="round"/>
</svg>
