<svg xmlns="http://www.w3.org/2000/svg" width="100%" height="100%" viewBox="0 0 100 100" preserveAspectRatio="none">
  <path d="M 61.889,40.74 L 61.889,41.426 L 61.889,48.514 L 61.889,54.687 L 61.889,58.574 L 61.889,59.26 L 59.374,59.26 L 54.116,59.031 L 52.286,59.031 L 46.342,59.031 L 46.342,59.031 L 38.339,59.26 L 38.111,54.687 L 38.111,47.371 L 38.111,42.34 L 38.111,40.74 L 39.482,40.74 L 45.427,40.74 L 45.884,40.74 L 46.113,40.74 L 46.799,40.74 L 52.515,40.74 L 52.515,40.74 L 54.116,40.74 L 54.116,40.74 L 54.801,40.74 L 59.603,40.74 L 59.603,40.74 L 61.889,40.74 Z" fill="rgba(59,130,246,0.25)" fill-rule="evenodd" stroke="rgba(59,130,246,0.9)" stroke-width="0.3" stroke-linejoin="round"/>
</svg>
