<svg xmlns="http://www.w3.org/2000/svg" width="100%" height="100%" viewBox="0 0 100 100" preserveAspectRatio="none">
  <path d="M 41.54,34.91 L 52.515,40.168 L 53.658,40.854 L 53.658,40.854 L 53.658,40.854 L 66.234,47.028 L 66.462,47.256 L 66.462,47.256 L 66.462,47.256 L 64.176,52.515 L 61.203,58.917 L 58.688,64.176 L 58.917,65.09 L 58.917,65.09 L 58.688,64.862 L 54.116,62.804 L 54.116,62.804 L 51.829,61.661 L 45.884,58.688 L 45.656,58.688 L 41.083,56.173 L 41.083,56.173 L 40.168,55.716 L 35.138,53.201 L 33.538,52.286 L 33.538,52.286 L 36.739,45.656 L 39.254,40.397 L 39.254,40.397 L 41.54,34.91 Z" fill="rgba(59,130,246,0.25)" fill-rule="evenodd" stroke="rgba(59,130,246,0.9)" stroke-width="0.3" stroke-linejoin="round"/>
</svg>
