<svg xmlns="http://www.w3.org/2000/svg" width="100%" height="100%" viewBox="0 0 100 100" preserveAspectRatio="none">
  <path d="M 24.506,38.682 L 25.192,38.911 L 27.25,39.825 L 31.366,41.426 L 33.423,42.112 L 37.31,43.712 L 40.054,44.627 L 41.883,45.313 L 43.484,45.999 L 47.828,47.599 L 49.657,48.285 L 49.886,48.285 L 50.343,48.285 L 50.343,48.514 L 51.258,48.285 L 53.544,48.057 L 57.66,47.371 L 58.345,47.371 L 63.833,46.685 L 64.062,46.685 L 68.406,45.999 L 70.006,45.77 L 72.064,45.541 L 76.637,45.084 L 78.237,44.856 L 79.152,44.856 L 79.152,45.084 L 79.609,52.172 L 80.295,60.403 L 80.295,60.403 L 79.609,60.632 L 77.323,60.632 L 73.665,60.861 L 72.064,61.089 L 71.149,61.089 L 62.232,61.089 L 56.288,61.089 L 55.373,61.089 L 47.828,61.318 L 46.913,61.318 L 45.541,61.089 L 45.313,61.089 L 43.941,61.089 L 39.139,59.031 L 38.682,58.803 L 36.624,58.117 L 32.509,56.516 L 31.366,56.059 L 28.165,54.916 L 26.335,54.23 L 20.391,51.943 L 19.705,51.715 L 22.22,44.856 L 24.049,40.054 L 24.506,38.682 Z" fill="rgba(59,130,246,0.25)" fill-rule="evenodd" stroke="rgba(59,130,246,0.9)" stroke-width="0.3" stroke-linejoin="round"/>
</svg>
