<svg xmlns="http://www.w3.org/2000/svg" width="100%" height="100%" viewBox="0 0 100 100" preserveAspectRatio="none">
  <path d="M 70.578,47.256 L 70.806,47.485 L 68.291,52.515 L 68.063,52.744 L 66.462,55.945 L 65.548,57.774 L 68.063,52.515 L 65.548,57.774 L 65.548,57.774 L 65.319,58.002 L 64.176,60.518 L 62.118,64.404 L 61.203,63.947 L 53.201,60.06 L 53.201,60.06 L 50.915,58.917 L 41.998,54.573 L 41.769,54.573 L 39.254,53.201 L 38.797,52.972 L 37.882,52.515 L 33.995,50.457 L 29.194,48.171 L 29.194,48.171 L 29.422,47.485 L 39.711,52.286 L 40.168,51.143 L 41.312,48.628 L 44.97,40.854 L 47.256,35.596 L 70.578,47.256 Z" fill="rgba(59,130,246,0.25)" fill-rule="evenodd" stroke="rgba(59,130,246,0.9)" stroke-width="0.3" stroke-linejoin="round"/>
</svg>
