<svg xmlns="http://www.w3.org/2000/svg" width="100%" height="100%" viewBox="0 0 100 100" preserveAspectRatio="none">
  <path d="M 70.006,43.255 L 70.464,47.828 L 70.921,52.401 L 70.921,52.629 L 71.378,58.117 L 71.607,63.604 L 70.692,63.376 L 70.235,63.376 L 67.948,62.461 L 62.69,60.632 L 59.717,59.489 L 59.031,59.031 L 57.202,58.574 L 54.001,57.202 L 52.858,56.745 L 52.172,56.516 L 46.913,54.459 L 45.999,54.23 L 43.941,53.315 L 40.283,51.943 L 38.911,51.258 L 36.853,50.572 L 34.795,49.886 L 33.652,49.428 L 29.079,47.599 L 28.393,47.599 L 30.222,42.112 L 31.823,37.768 L 32.28,36.396 L 32.28,36.396 L 32.28,36.396 L 32.966,36.624 L 35.71,37.768 L 38.454,38.682 L 39.139,38.911 L 39.825,39.139 L 40.74,39.368 L 42.569,40.054 L 45.541,40.969 L 46.456,41.197 L 47.142,41.426 L 50.114,42.112 L 50.114,42.112 L 53.087,42.569 L 55.373,43.026 L 55.83,43.026 L 56.516,43.255 L 58.345,43.255 L 59.489,43.484 L 61.546,43.484 L 64.747,43.484 L 68.406,43.484 L 69.092,43.255 L 70.006,43.255 Z" fill="rgba(59,130,246,0.25)" fill-rule="evenodd" stroke="rgba(59,130,246,0.9)" stroke-width="0.3" stroke-linejoin="round"/>
</svg>
