<svg xmlns="http://www.w3.org/2000/svg" width="100%" height="100%" viewBox="0 0 100 100" preserveAspectRatio="none">
  <path d="M 49.886,34.338 L 51.486,35.253 L 56.516,37.768 L 57.431,38.225 L 57.431,38.225 L 62.004,40.74 L 61.775,41.426 L 61.318,42.34 L 59.031,46.913 L 58.117,49.2 L 58.117,49.2 L 56.745,52.401 L 54.23,57.66 L 54.23,57.66 L 52.401,61.546 L 50.572,65.433 L 49.428,65.662 L 48.285,65.433 L 46.913,64.747 L 46.227,64.519 L 43.712,63.147 L 43.484,63.147 L 41.197,62.004 L 38.682,60.861 L 37.996,60.403 L 37.996,60.403 L 40.511,54.916 L 42.34,50.8 L 42.798,49.886 L 43.026,49.428 L 43.255,48.742 L 43.255,48.742 L 45.313,44.627 L 46.913,40.74 L 46.913,40.74 L 48.742,37.082 L 49.886,34.338 Z" fill="rgba(59,130,246,0.25)" fill-rule="evenodd" stroke="rgba(59,130,246,0.9)" stroke-width="0.3" stroke-linejoin="round"/>
</svg>
