<svg xmlns="http://www.w3.org/2000/svg" width="100%" height="100%" viewBox="0 0 100 100" preserveAspectRatio="none">
  <path d="M 30.508,66.005 L 31.08,64.633 L 33.138,59.031 L 36.567,50.0 L 37.139,48.514 L 38.854,43.941 L 41.94,35.71 L 42.969,33.08 L 43.312,32.28 L 44.913,28.165 L 45.713,25.878 L 48.914,17.418 L 49.829,15.246 L 51.658,10.216 L 51.886,9.873 L 53.715,10.445 L 55.773,10.445 L 55.773,10.445 L 56.345,10.445 L 56.916,10.331 L 58.746,10.216 L 59.66,10.102 L 60.803,9.988 L 61.375,9.988 L 61.832,9.988 L 61.947,9.988 L 62.175,10.102 L 62.175,10.102 L 61.832,11.817 L 61.604,11.817 L 60.575,12.16 L 59.317,12.617 L 58.403,12.846 L 58.174,12.846 L 56.916,13.189 L 56.116,13.646 L 54.401,14.56 L 54.173,14.675 L 53.944,14.789 L 51.772,16.275 L 55.202,17.647 L 48.342,35.596 L 40.911,55.373 L 51.429,59.489 L 44.341,78.237 L 51.315,81.324 L 53.258,81.896 L 54.058,82.124 L 59.089,83.725 L 62.29,84.754 L 63.89,85.211 L 65.033,85.668 L 65.262,85.668 L 66.519,86.126 L 67.434,86.354 L 66.862,88.298 L 72.464,90.012 L 72.464,90.127 L 72.464,90.127 L 66.062,88.069 L 66.062,88.069 L 66.062,88.069 L 65.948,88.069 L 65.491,87.84 L 58.288,85.554 L 50.514,82.925 L 36.567,76.98 L 36.567,76.98 L 27.536,73.207 L 27.536,73.207 L 28.565,71.149 L 30.508,66.005 Z" fill="rgba(59,130,246,0.25)" fill-rule="evenodd" stroke="rgba(59,130,246,0.9)" stroke-width="0.3" stroke-linejoin="round"/>
</svg>
