<svg xmlns="http://www.w3.org/2000/svg" width="100%" height="100%" viewBox="0 0 100 100" preserveAspectRatio="none">
  <path d="M 61.318,48.742 L 58.803,56.745 L 57.431,61.546 L 56.288,66.577 L 54.23,67.491 L 48.285,69.32 L 45.084,70.692 L 44.17,70.921 L 43.712,70.006 L 41.883,64.062 L 39.597,56.974 L 39.368,56.516 L 37.31,49.886 L 36.624,48.057 L 35.481,44.627 L 35.253,43.712 L 35.253,43.712 L 40.969,32.737 L 42.34,29.994 L 42.569,29.536 L 42.798,29.079 L 43.026,29.079 L 43.484,29.536 L 43.941,29.765 L 45.084,30.222 L 46.227,30.908 L 48.057,31.823 L 48.971,32.28 L 49.428,32.509 L 53.087,34.109 L 54.687,35.024 L 54.916,35.253 L 55.373,35.481 L 55.602,35.481 L 57.431,36.396 L 62.461,38.911 L 64.519,40.054 L 64.747,40.054 L 64.519,40.054 L 61.318,48.742 Z" fill="rgba(59,130,246,0.25)" fill-rule="evenodd" stroke="rgba(59,130,246,0.9)" stroke-width="0.3" stroke-linejoin="round"/>
</svg>
