<svg xmlns="http://www.w3.org/2000/svg" width="100%" height="100%" viewBox="0 0 100 100" preserveAspectRatio="none">
  <path d="M 36.624,39.139 L 41.197,40.511 L 43.255,40.969 L 46.227,41.655 L 48.057,42.112 L 48.742,42.34 L 51.715,42.798 L 54.459,43.255 L 56.974,43.484 L 59.946,43.712 L 67.491,43.484 L 67.72,45.541 L 68.177,50.8 L 68.863,58.803 L 68.863,60.632 L 68.863,60.632 L 67.948,60.632 L 67.263,60.861 L 63.604,60.861 L 60.403,60.861 L 58.345,60.861 L 57.202,60.632 L 55.373,60.632 L 54.687,60.403 L 54.23,60.403 L 51.943,59.946 L 48.971,59.489 L 48.971,59.489 L 45.999,58.803 L 45.313,58.574 L 44.398,58.345 L 41.426,57.431 L 39.597,56.745 L 38.682,56.516 L 37.996,56.288 L 37.31,56.059 L 34.567,55.144 L 31.823,54.001 L 31.137,53.773 L 31.137,53.773 L 31.137,53.544 L 32.509,54.001 L 39.139,56.516 L 45.999,58.803 L 48.742,59.26 L 46.227,58.803 L 39.139,56.516 L 32.509,54.001 L 31.137,53.544 L 31.137,53.544 L 31.594,52.172 L 32.509,49.886 L 32.509,49.886 L 34.338,45.313 L 35.71,41.197 L 36.624,39.139 L 36.624,39.139 L 36.624,39.139 L 36.624,39.139 Z" fill="rgba(59,130,246,0.25)" fill-rule="evenodd" stroke="rgba(59,130,246,0.9)" stroke-width="0.3" stroke-linejoin="round"/>
</svg>
