<svg xmlns="http://www.w3.org/2000/svg" width="100%" height="100%" viewBox="0 0 100 100" preserveAspectRatio="none">
  <path d="M 34.91,36.967 L 33.309,36.281 L 33.309,36.281 L 32.395,36.053 L 32.852,34.91 L 33.766,35.367 L 33.766,35.367 L 52.286,43.369 L 52.286,43.369 L 53.887,44.055 L 56.859,45.427 L 56.859,45.427 L 67.834,50.229 L 67.834,50.229 L 72.864,52.286 L 72.864,52.286 L 72.407,53.43 L 72.178,53.658 L 71.721,55.03 L 70.578,58.688 L 70.121,59.603 L 69.892,59.832 L 69.663,60.06 L 67.148,61.432 L 64.633,63.033 L 64.176,63.49 L 63.49,64.633 L 63.49,65.09 L 61.889,63.947 L 55.945,61.432 L 55.03,61.203 L 53.887,61.203 L 39.482,55.259 L 39.254,55.259 L 32.852,52.744 L 32.852,52.744 L 28.736,50.915 L 27.822,50.686 L 27.136,50.457 L 27.593,49.771 L 29.194,45.656 L 29.879,44.284 L 30.794,42.455 L 32.166,39.025 L 33.08,37.196 L 33.309,36.51 L 33.309,36.281 L 33.309,36.281 L 33.309,36.51 L 34.91,36.967 Z" fill="rgba(59,130,246,0.25)" fill-rule="evenodd" stroke="rgba(59,130,246,0.9)" stroke-width="0.3" stroke-linejoin="round"/>
</svg>
