<svg xmlns="http://www.w3.org/2000/svg" width="100%" height="100%" viewBox="0 0 100 100" preserveAspectRatio="none">
  <path d="M 55.259,62.575 L 52.286,60.975 L 49.543,59.603 L 48.4,59.146 L 48.4,59.146 L 47.256,58.46 L 41.769,55.716 L 42.226,55.03 L 43.369,52.286 L 42.912,47.714 L 41.998,40.854 L 41.769,39.254 L 42.683,38.797 L 48.628,37.882 L 48.628,37.882 L 55.487,37.196 L 55.487,37.196 L 55.487,37.882 L 55.945,40.168 L 56.402,44.513 L 56.859,48.4 L 57.545,52.744 L 58.231,58.002 L 58.231,58.231 L 58.231,58.688 L 56.859,61.203 L 56.402,62.118 L 55.945,62.804 L 55.945,62.804 L 55.259,62.575 Z" fill="rgba(59,130,246,0.25)" fill-rule="evenodd" stroke="rgba(59,130,246,0.9)" stroke-width="0.3" stroke-linejoin="round"/>
</svg>
