<svg xmlns="http://www.w3.org/2000/svg" width="100%" height="100%" viewBox="0 0 100 100" preserveAspectRatio="none">
  <path d="M 50.915,30.794 L 51.143,31.023 L 57.317,33.538 L 63.49,36.053 L 62.347,38.568 L 62.118,39.025 L 60.975,41.998 L 59.832,44.513 L 59.603,44.741 L 57.088,50.229 L 57.088,50.457 L 57.088,50.457 L 54.116,57.774 L 52.972,59.832 L 49.543,67.605 L 48.857,69.206 L 47.485,68.291 L 45.199,67.377 L 42.683,66.462 L 42.455,66.234 L 42.455,66.234 L 42.455,66.234 L 39.711,65.09 L 36.51,63.49 L 37.196,62.118 L 41.083,52.744 L 44.513,44.97 L 44.513,44.97 L 45.427,43.141 L 46.113,41.312 L 46.113,41.312 L 47.256,38.797 L 47.942,37.196 L 49.771,33.08 L 50.915,30.794 Z" fill="rgba(59,130,246,0.25)" fill-rule="evenodd" stroke="rgba(59,130,246,0.9)" stroke-width="0.3" stroke-linejoin="round"/>
</svg>
