<svg xmlns="http://www.w3.org/2000/svg" width="100%" height="100%" viewBox="0 0 100 100" preserveAspectRatio="none">
  <path d="M 41.655,37.425 L 41.655,37.425 L 41.883,37.425 L 41.883,37.425 L 45.77,38.339 L 45.999,38.339 L 46.685,38.568 L 47.142,38.797 L 51.258,39.711 L 51.715,39.711 L 51.715,39.711 L 62.918,42.455 L 62.918,42.455 L 62.918,43.141 L 62.918,43.827 L 62.69,44.055 L 62.69,44.284 L 61.318,56.402 L 61.089,58.231 L 60.403,63.033 L 59.031,62.804 L 51.029,61.889 L 48.971,61.432 L 43.026,60.518 L 43.026,60.518 L 37.082,59.832 L 38.911,47.028 L 38.911,45.656 L 38.911,45.656 L 39.825,39.711 L 39.825,39.025 L 39.825,38.568 L 40.054,36.967 L 41.426,37.425 L 41.655,37.425 Z" fill="rgba(59,130,246,0.25)" fill-rule="evenodd" stroke="rgba(59,130,246,0.9)" stroke-width="0.3" stroke-linejoin="round"/>
</svg>
