<svg xmlns="http://www.w3.org/2000/svg" width="100%" height="100%" viewBox="0 0 100 100" preserveAspectRatio="none">
  <path d="M 57.202,40.054 L 57.66,40.511 L 60.175,42.112 L 61.775,43.026 L 61.775,43.026 L 61.546,43.712 L 60.175,49.657 L 59.946,50.572 L 59.717,50.8 L 58.117,58.345 L 57.66,59.717 L 57.431,60.175 L 57.431,60.861 L 49.2,57.66 L 47.828,57.202 L 47.828,57.202 L 44.398,56.059 L 44.398,55.83 L 41.197,54.687 L 39.139,54.001 L 38.225,53.544 L 38.682,53.087 L 39.597,51.486 L 40.969,49.886 L 41.655,49.2 L 42.569,48.514 L 44.17,47.142 L 45.084,46.227 L 45.541,45.541 L 46.685,44.627 L 50.343,41.883 L 53.773,40.511 L 55.83,39.825 L 56.974,39.368 L 56.974,39.368 L 57.202,39.139 L 57.202,40.054 L 57.202,40.054 L 57.202,40.054 L 57.202,40.054 Z" fill="rgba(59,130,246,0.25)" fill-rule="evenodd" stroke="rgba(59,130,246,0.9)" stroke-width="0.3" stroke-linejoin="round"/>
</svg>
