<svg xmlns="http://www.w3.org/2000/svg" width="100%" height="100%" viewBox="0 0 100 100" preserveAspectRatio="none">
  <path d="M 62.69,41.712 L 62.69,41.712 L 59.946,46.97 L 54.344,57.259 L 52.629,60.575 L 49.314,66.634 L 48.857,67.32 L 48.057,68.463 L 48.057,68.577 L 48.628,69.492 L 46.799,70.178 L 43.827,71.207 L 43.484,71.321 L 43.484,71.321 L 41.883,71.893 L 38.797,72.807 L 36.396,73.607 L 33.652,74.522 L 33.309,74.522 L 33.195,73.95 L 33.195,73.95 L 32.737,71.893 L 32.623,71.664 L 32.28,69.034 L 32.052,68.12 L 31.709,67.205 L 31.594,66.977 L 31.366,66.519 L 30.908,65.948 L 30.908,65.948 L 30.908,65.833 L 30.68,65.719 L 30.337,65.033 L 30.108,64.462 L 29.879,64.004 L 29.765,63.776 L 29.308,63.09 L 29.308,63.09 L 29.308,62.861 L 29.765,62.747 L 29.879,62.518 L 30.451,62.061 L 30.565,61.489 L 30.908,59.66 L 30.908,59.774 L 32.509,59.432 L 33.309,59.317 L 33.423,59.432 L 33.995,61.146 L 34.338,62.29 L 34.681,63.433 L 36.281,63.318 L 37.882,63.09 L 39.482,62.29 L 40.626,62.29 L 40.854,61.261 L 41.54,61.032 L 43.369,59.774 L 43.827,59.432 L 44.856,58.746 L 46.57,60.46 L 47.371,58.974 L 47.714,58.746 L 47.942,58.517 L 49.085,58.288 L 50.343,57.717 L 51.6,57.602 L 51.829,55.316 L 52.058,54.973 L 53.087,55.773 L 53.773,50.743 L 54.573,48.8 L 55.144,47.771 L 55.602,47.085 L 56.173,46.513 L 56.631,46.285 L 58.345,46.056 L 58.803,45.599 L 59.26,45.37 L 59.603,45.37 L 60.289,44.913 L 60.975,43.769 L 61.203,42.855 L 61.203,42.055 L 61.546,39.197 L 61.661,38.053 L 61.775,35.996 L 61.775,34.624 L 61.661,33.481 L 62.118,33.481 L 62.004,33.023 L 62.232,32.909 L 63.376,32.566 L 62.69,30.508 L 62.347,29.479 L 61.203,28.679 L 60.518,28.107 L 61.203,27.307 L 60.861,26.05 L 60.975,25.821 L 61.318,25.821 L 62.004,26.278 L 62.118,26.278 L 64.062,25.478 L 64.976,25.821 L 65.776,25.478 L 67.263,25.935 L 67.72,26.05 L 68.977,26.393 L 69.549,26.05 L 70.464,26.507 L 70.692,26.507 L 69.435,28.107 L 66.234,35.195 L 62.69,41.712 Z" fill="rgba(59,130,246,0.25)" fill-rule="evenodd" stroke="rgba(59,130,246,0.9)" stroke-width="0.3" stroke-linejoin="round"/>
</svg>
