<svg xmlns="http://www.w3.org/2000/svg" width="100%" height="100%" viewBox="0 0 100 100" preserveAspectRatio="none">
  <path d="M 59.832,58.345 L 58.231,58.574 L 55.03,59.946 L 53.201,60.403 L 45.656,63.147 L 45.199,62.461 L 44.97,62.004 L 44.741,61.318 L 43.598,59.946 L 43.598,59.946 L 42.912,59.489 L 41.769,58.345 L 40.168,56.974 L 40.168,56.974 L 40.626,56.516 L 41.083,55.83 L 43.827,51.715 L 46.799,46.913 L 49.771,42.34 L 53.201,37.539 L 53.658,36.853 L 55.259,38.911 L 56.173,39.825 L 56.859,40.74 L 57.088,40.74 L 57.545,41.426 L 57.317,43.712 L 57.088,44.627 L 56.859,45.77 L 56.859,46.685 L 57.088,48.285 L 57.317,49.428 L 58.46,53.544 L 58.688,53.544 L 59.146,55.373 L 59.146,56.059 L 59.603,57.202 L 59.603,57.431 L 59.832,58.345 Z" fill="rgba(59,130,246,0.25)" fill-rule="evenodd" stroke="rgba(59,130,246,0.9)" stroke-width="0.3" stroke-linejoin="round"/>
</svg>
