<svg xmlns="http://www.w3.org/2000/svg" width="100%" height="100%" viewBox="0 0 100 100" preserveAspectRatio="none">
  <path d="M 79.381,42.912 L 76.866,45.77 L 71.492,51.829 L 70.806,52.515 L 70.349,56.402 L 62.461,59.946 L 59.489,64.404 L 57.088,66.92 L 54.801,68.291 L 51.715,70.464 L 45.541,73.436 L 41.312,74.35 L 40.854,74.465 L 39.139,75.722 L 37.539,76.98 L 35.824,78.58 L 35.71,78.809 L 35.138,79.838 L 34.224,80.524 L 33.881,80.066 L 33.881,80.066 L 33.309,79.724 L 30.908,77.551 L 29.194,76.523 L 23.477,73.779 L 22.106,73.093 L 19.819,72.178 L 19.019,71.835 L 15.932,70.578 L 15.018,70.235 L 14.103,70.006 L 13.989,69.892 L 14.675,68.291 L 15.132,66.691 L 15.475,65.662 L 15.589,65.662 L 15.704,65.205 L 16.733,62.461 L 17.647,60.06 L 18.333,59.717 L 18.79,59.489 L 19.248,59.832 L 19.934,60.06 L 20.734,59.832 L 21.877,59.489 L 21.763,59.146 L 21.534,58.917 L 21.305,58.574 L 22.677,59.031 L 23.363,57.317 L 21.42,56.745 L 21.763,56.402 L 22.106,56.059 L 22.334,55.716 L 22.677,55.373 L 23.477,54.23 L 24.049,53.201 L 24.163,52.972 L 24.278,52.744 L 24.392,52.515 L 24.049,52.286 L 24.049,52.286 L 22.792,51.486 L 22.677,51.372 L 22.334,50.229 L 22.334,50.0 L 21.991,49.428 L 21.763,48.857 L 17.761,47.599 L 17.761,47.371 L 17.876,47.028 L 17.876,46.913 L 17.99,46.57 L 18.104,46.456 L 18.219,46.342 L 18.219,46.113 L 18.447,45.884 L 19.133,44.856 L 19.248,44.741 L 19.591,43.827 L 19.705,43.598 L 20.276,42.683 L 20.391,42.569 L 20.505,42.455 L 20.734,41.998 L 21.534,40.969 L 21.877,40.511 L 22.334,39.254 L 22.677,38.225 L 22.792,38.111 L 23.134,37.082 L 23.477,35.824 L 24.163,34.224 L 24.392,34.338 L 24.964,33.195 L 25.192,33.309 L 25.535,33.423 L 26.221,33.995 L 26.335,34.109 L 26.45,34.224 L 24.849,34.224 L 31.137,36.967 L 32.395,36.281 L 32.623,35.596 L 33.652,34.795 L 34.338,34.567 L 34.338,34.567 L 34.338,34.567 L 34.338,34.567 L 39.368,32.166 L 39.025,31.137 L 38.225,31.251 L 38.339,31.137 L 39.254,29.651 L 40.397,28.05 L 41.426,26.678 L 42.34,25.307 L 42.798,23.706 L 42.455,22.677 L 42.912,22.106 L 43.141,21.877 L 44.17,19.476 L 47.828,21.077 L 66.577,29.308 L 73.779,32.395 L 86.011,37.768 L 86.011,37.768 L 85.668,39.597 L 85.325,41.083 L 85.097,42.34 L 85.097,42.34 L 82.81,39.368 L 80.524,41.655 L 79.381,42.912 Z" fill="rgba(59,130,246,0.25)" fill-rule="evenodd" stroke="rgba(59,130,246,0.9)" stroke-width="0.3" stroke-linejoin="round"/>
</svg>
