<svg xmlns="http://www.w3.org/2000/svg" width="100%" height="100%" viewBox="0 0 100 100" preserveAspectRatio="none">
  <path d="M 35.481,62.004 L 35.481,62.004 L 38.454,55.373 L 38.911,54.459 L 49.428,31.823 L 49.428,31.594 L 49.428,31.594 L 52.629,32.737 L 53.544,32.966 L 63.833,36.396 L 64.519,36.624 L 63.147,39.368 L 62.918,40.054 L 60.861,44.627 L 60.861,44.627 L 58.117,50.572 L 58.117,50.572 L 57.431,51.943 L 56.059,55.144 L 55.83,55.602 L 53.315,61.089 L 53.315,61.089 L 52.172,63.833 L 50.572,67.491 L 50.114,68.406 L 43.026,65.205 L 38.911,63.376 L 38.454,63.376 L 35.481,62.004 L 35.481,62.004 Z" fill="rgba(59,130,246,0.25)" fill-rule="evenodd" stroke="rgba(59,130,246,0.9)" stroke-width="0.3" stroke-linejoin="round"/>
</svg>
