<svg xmlns="http://www.w3.org/2000/svg" width="100%" height="100%" viewBox="0 0 100 100" preserveAspectRatio="none">
  <path d="M 37.539,35.367 L 37.768,33.08 L 38.225,30.794 L 38.225,30.794 L 38.225,30.794 L 38.225,30.794 L 38.911,30.794 L 40.283,31.023 L 41.883,31.251 L 50.343,32.395 L 50.572,32.166 L 50.572,31.937 L 51.943,32.395 L 56.516,33.309 L 56.745,33.309 L 57.202,33.309 L 62.004,33.995 L 63.833,34.224 L 66.577,34.452 L 66.577,35.138 L 66.577,35.824 L 66.348,36.739 L 65.891,39.94 L 65.205,44.741 L 64.976,45.884 L 64.747,46.57 L 64.519,47.942 L 64.062,51.372 L 63.833,53.201 L 63.376,57.317 L 63.376,58.46 L 63.376,58.46 L 63.147,60.289 L 62.69,63.261 L 62.232,67.148 L 62.232,68.291 L 61.775,69.206 L 60.403,68.977 L 59.031,68.749 L 55.144,67.834 L 54.687,67.834 L 54.001,67.834 L 54.001,67.834 L 53.544,68.063 L 52.172,68.063 L 50.572,67.377 L 48.742,66.462 L 48.285,66.005 L 47.599,65.776 L 46.685,65.319 L 45.313,64.633 L 44.856,64.404 L 44.17,64.176 L 44.17,64.176 L 43.026,63.49 L 41.655,63.033 L 41.197,62.804 L 39.368,62.118 L 36.853,61.432 L 36.396,61.203 L 33.652,60.289 L 33.423,60.289 L 33.423,60.289 L 34.567,57.088 L 35.253,52.058 L 35.938,46.57 L 37.539,35.367 Z" fill="rgba(59,130,246,0.25)" fill-rule="evenodd" stroke="rgba(59,130,246,0.9)" stroke-width="0.3" stroke-linejoin="round"/>
</svg>
