<svg xmlns="http://www.w3.org/2000/svg" width="100%" height="100%" viewBox="0 0 100 100" preserveAspectRatio="none">
  <path d="M 37.31,47.371 L 40.74,45.77 L 47.828,43.255 L 53.315,41.197 L 57.431,39.597 L 58.117,39.597 L 58.345,40.511 L 59.946,44.856 L 62.69,52.858 L 62.004,52.858 L 61.089,53.087 L 59.717,53.773 L 56.745,54.687 L 56.745,54.916 L 54.459,55.602 L 54.459,55.602 L 52.629,56.288 L 51.258,56.745 L 51.258,56.745 L 48.285,57.888 L 45.999,58.574 L 45.999,58.574 L 44.627,59.26 L 43.712,59.717 L 42.112,60.403 L 42.112,60.175 L 41.883,59.717 L 41.655,58.574 L 39.368,52.401 L 37.768,48.285 L 37.31,47.371 Z" fill="rgba(59,130,246,0.25)" fill-rule="evenodd" stroke="rgba(59,130,246,0.9)" stroke-width="0.3" stroke-linejoin="round"/>
</svg>
