<svg xmlns="http://www.w3.org/2000/svg" width="100%" height="100%" viewBox="0 0 100 100" preserveAspectRatio="none">
  <path d="M 57.774,36.167 L 57.545,38.225 L 57.088,41.426 L 56.173,47.142 L 55.945,49.2 L 55.945,49.2 L 55.259,54.459 L 54.116,62.461 L 54.116,63.147 L 54.116,63.147 L 52.972,63.147 L 50.686,63.147 L 48.4,63.376 L 45.427,64.519 L 43.827,64.747 L 42.226,65.433 L 42.226,64.747 L 42.455,62.004 L 42.912,59.031 L 42.912,57.888 L 43.369,56.288 L 43.827,52.858 L 43.827,52.858 L 43.827,52.401 L 45.884,36.624 L 46.342,34.567 L 48.4,35.024 L 56.402,35.938 L 57.774,36.167 Z" fill="rgba(59,130,246,0.25)" fill-rule="evenodd" stroke="rgba(59,130,246,0.9)" stroke-width="0.3" stroke-linejoin="round"/>
</svg>
