<svg xmlns="http://www.w3.org/2000/svg" width="100%" height="100%" viewBox="0 0 100 100" preserveAspectRatio="none">
  <path d="M 75.608,59.489 L 75.608,59.717 L 74.007,64.29 L 73.779,64.519 L 73.55,65.433 L 72.636,65.205 L 72.407,64.976 L 71.721,64.747 L 66.691,62.918 L 64.633,62.004 L 64.633,62.004 L 61.661,60.861 L 61.432,60.861 L 55.945,59.031 L 55.716,59.031 L 49.543,56.974 L 48.171,56.288 L 47.714,56.288 L 44.055,54.916 L 40.626,54.001 L 38.339,53.315 L 35.824,52.401 L 35.596,52.172 L 35.138,51.943 L 28.965,49.2 L 27.136,45.541 L 26.45,43.941 L 25.993,42.798 L 20.734,40.511 L 22.563,36.396 L 23.477,34.567 L 28.736,36.396 L 30.108,36.624 L 31.48,36.624 L 37.425,36.624 L 39.025,36.624 L 39.711,36.624 L 41.54,36.853 L 43.369,37.31 L 45.427,37.768 L 49.085,39.139 L 53.887,40.511 L 53.887,40.511 L 66.691,44.856 L 70.349,46.227 L 79.266,49.428 L 77.666,53.773 L 75.608,59.489 Z" fill="rgba(59,130,246,0.25)" fill-rule="evenodd" stroke="rgba(59,130,246,0.9)" stroke-width="0.3" stroke-linejoin="round"/>
</svg>
