<svg xmlns="http://www.w3.org/2000/svg" width="100%" height="100%" viewBox="0 0 100 100" preserveAspectRatio="none">
  <path d="M 66.92,58.117 L 66.234,58.345 L 64.404,59.489 L 62.575,61.546 L 62.575,61.546 L 61.203,63.147 L 61.203,63.147 L 60.746,63.833 L 58.46,67.034 L 58.002,67.491 L 55.945,68.634 L 55.487,68.863 L 52.744,70.692 L 52.058,71.378 L 49.085,73.665 L 46.342,74.808 L 46.113,74.808 L 44.741,75.265 L 44.513,74.579 L 44.513,74.579 L 44.284,73.893 L 44.055,72.75 L 43.827,70.692 L 43.369,67.034 L 42.912,63.604 L 42.683,62.004 L 42.683,61.546 L 42.455,61.089 L 39.94,60.632 L 35.138,59.489 L 32.852,58.803 L 31.937,58.574 L 31.937,58.574 L 33.309,54.687 L 35.138,49.657 L 35.367,48.971 L 36.281,46.685 L 37.653,42.798 L 39.94,36.624 L 40.168,35.938 L 40.397,35.481 L 42.226,30.451 L 43.369,27.479 L 44.055,25.192 L 44.284,24.735 L 45.427,26.107 L 46.57,27.479 L 47.714,29.079 L 50.229,31.823 L 50.915,32.966 L 52.058,34.567 L 52.286,34.795 L 54.573,38.454 L 57.545,42.569 L 58.46,43.484 L 59.146,44.17 L 60.518,45.541 L 60.746,45.999 L 61.432,46.685 L 63.719,49.657 L 66.005,53.773 L 66.92,55.144 L 67.377,56.516 L 67.834,56.974 L 68.063,57.431 L 66.92,58.117 Z" fill="rgba(59,130,246,0.25)" fill-rule="evenodd" stroke="rgba(59,130,246,0.9)" stroke-width="0.3" stroke-linejoin="round"/>
</svg>
