<svg xmlns="http://www.w3.org/2000/svg" width="100%" height="100%" viewBox="0 0 100 100" preserveAspectRatio="none">
  <path d="M 68.634,40.969 L 68.406,41.655 L 68.177,42.34 L 67.72,43.026 L 65.662,45.313 L 62.69,48.514 L 60.403,51.258 L 59.717,51.943 L 58.803,53.087 L 54.459,57.66 L 50.8,61.775 L 50.8,61.775 L 49.657,60.632 L 45.541,56.745 L 45.084,56.516 L 40.969,52.858 L 40.969,52.629 L 39.368,51.486 L 39.368,51.486 L 32.28,44.627 L 31.823,44.17 L 31.366,43.712 L 32.28,43.255 L 33.881,42.112 L 33.881,42.112 L 35.71,41.197 L 38.225,39.825 L 39.139,39.139 L 40.511,38.225 L 40.74,38.225 L 52.629,39.368 L 53.087,39.368 L 53.315,39.368 L 59.489,40.054 L 59.946,40.054 L 60.632,40.054 L 65.205,40.511 L 67.263,40.74 L 68.634,40.969 Z" fill="rgba(59,130,246,0.25)" fill-rule="evenodd" stroke="rgba(59,130,246,0.9)" stroke-width="0.3" stroke-linejoin="round"/>
</svg>
