<svg xmlns="http://www.w3.org/2000/svg" width="100%" height="100%" viewBox="0 0 100 100" preserveAspectRatio="none">
  <path d="M 70.121,29.536 L 68.749,33.195 L 67.148,37.768 L 66.234,40.969 L 65.319,43.255 L 61.661,54.23 L 58.917,62.461 L 58.231,64.747 L 57.774,66.119 L 57.545,66.577 L 53.887,77.551 L 52.515,81.667 L 52.058,83.267 L 50.229,88.298 L 47.714,87.383 L 47.485,87.383 L 46.799,87.154 L 43.598,86.011 L 40.168,84.639 L 39.94,84.639 L 38.111,84.182 L 36.51,83.496 L 36.51,83.496 L 36.51,83.267 L 33.309,82.353 L 31.251,81.438 L 28.508,80.524 L 25.993,79.838 L 25.764,79.152 L 25.764,78.466 L 26.221,77.78 L 26.221,77.551 L 26.907,76.408 L 27.364,75.722 L 28.05,74.35 L 29.194,72.979 L 30.794,71.149 L 31.709,70.235 L 32.623,68.863 L 34.91,66.119 L 35.138,65.891 L 36.281,64.29 L 38.568,61.318 L 40.168,59.031 L 40.397,58.574 L 41.312,56.974 L 42.226,55.144 L 42.912,54.001 L 44.055,51.486 L 44.97,49.657 L 45.199,49.2 L 45.199,48.971 L 46.342,46.227 L 48.628,39.139 L 49.543,36.853 L 49.543,36.624 L 50.229,34.795 L 50.686,33.195 L 52.515,28.393 L 52.744,27.707 L 53.658,24.735 L 54.344,22.677 L 54.573,22.449 L 54.801,21.534 L 55.259,20.162 L 56.631,15.818 L 56.859,15.589 L 58.002,12.16 L 58.231,11.702 L 59.603,11.931 L 60.289,12.16 L 66.462,14.217 L 67.148,14.446 L 71.492,16.047 L 74.236,16.961 L 71.035,26.793 L 70.578,28.393 L 70.121,29.536 Z" fill="rgba(59,130,246,0.25)" fill-rule="evenodd" stroke="rgba(59,130,246,0.9)" stroke-width="0.3" stroke-linejoin="round"/>
</svg>
