<svg xmlns="http://www.w3.org/2000/svg" width="100%" height="100%" viewBox="0 0 100 100" preserveAspectRatio="none">
  <path d="M 34.338,64.29 L 34.795,63.376 L 37.539,56.974 L 37.768,56.516 L 39.139,53.087 L 39.139,53.087 L 40.283,50.8 L 42.34,45.77 L 42.798,44.856 L 44.856,40.054 L 45.084,39.139 L 47.371,33.881 L 47.599,33.881 L 49.2,29.536 L 49.657,28.851 L 50.114,28.165 L 60.175,32.737 L 60.403,32.737 L 60.403,32.737 L 64.29,34.338 L 65.891,35.024 L 65.205,36.396 L 60.632,47.142 L 60.632,47.142 L 59.489,49.657 L 59.26,50.114 L 59.26,50.114 L 56.288,56.974 L 56.288,57.202 L 55.144,59.717 L 55.144,59.717 L 53.773,63.376 L 53.773,63.376 L 49.886,71.835 L 49.886,71.835 L 48.514,71.378 L 34.109,64.976 L 34.109,64.976 L 34.338,64.29 Z" fill="rgba(59,130,246,0.25)" fill-rule="evenodd" stroke="rgba(59,130,246,0.9)" stroke-width="0.3" stroke-linejoin="round"/>
</svg>
