<svg xmlns="http://www.w3.org/2000/svg" width="100%" height="100%" viewBox="0 0 100 100" preserveAspectRatio="none">
  <path d="M 52.286,39.711 L 52.744,39.711 L 60.289,39.711 L 63.947,39.482 L 64.862,39.482 L 65.776,39.482 L 66.234,41.54 L 71.035,59.603 L 71.264,60.518 L 70.578,60.518 L 68.063,60.518 L 64.404,59.603 L 60.975,58.688 L 60.289,58.46 L 59.374,58.002 L 55.03,56.859 L 53.658,56.631 L 53.43,56.631 L 52.515,56.402 L 52.286,56.402 L 51.143,56.402 L 50.0,56.402 L 47.485,56.402 L 45.427,56.631 L 44.513,56.631 L 44.055,56.631 L 39.482,56.631 L 36.739,56.631 L 30.337,56.859 L 29.422,57.317 L 29.422,57.317 L 28.965,55.487 L 28.736,51.372 L 28.736,41.312 L 28.736,39.711 L 36.739,39.482 L 36.739,39.482 L 42.683,39.482 L 44.513,39.482 L 49.771,39.711 L 52.286,39.711 Z" fill="rgba(59,130,246,0.25)" fill-rule="evenodd" stroke="rgba(59,130,246,0.9)" stroke-width="0.3" stroke-linejoin="round"/>
</svg>
