<svg xmlns="http://www.w3.org/2000/svg" width="100%" height="100%" viewBox="0 0 100 100" preserveAspectRatio="none">
  <path d="M 33.881,40.283 L 34.109,38.454 L 34.338,35.938 L 38.682,36.624 L 41.883,37.082 L 44.856,37.996 L 48.057,39.139 L 48.057,39.139 L 52.629,40.969 L 54.687,41.655 L 54.687,41.655 L 60.861,43.484 L 60.861,43.484 L 64.976,44.17 L 66.348,44.17 L 66.119,45.77 L 66.119,46.685 L 65.662,50.343 L 65.662,50.572 L 65.433,53.315 L 65.433,54.23 L 65.433,54.916 L 65.205,54.916 L 64.062,55.602 L 62.918,56.974 L 62.918,56.974 L 62.69,57.202 L 60.861,59.26 L 60.861,59.26 L 58.574,62.004 L 56.516,64.062 L 56.059,63.833 L 56.059,63.604 L 55.83,63.376 L 52.629,60.861 L 50.114,58.345 L 50.114,58.345 L 45.999,54.687 L 45.999,54.687 L 43.712,52.629 L 42.798,51.943 L 41.426,50.8 L 41.426,50.8 L 40.969,50.343 L 37.768,47.371 L 34.338,44.17 L 33.652,43.712 L 33.652,43.712 L 33.881,41.655 L 33.881,40.283 Z" fill="rgba(59,130,246,0.25)" fill-rule="evenodd" stroke="rgba(59,130,246,0.9)" stroke-width="0.3" stroke-linejoin="round"/>
</svg>
