<svg xmlns="http://www.w3.org/2000/svg" width="100%" height="100%" viewBox="0 0 100 100" preserveAspectRatio="none">
  <path d="M 90.07,72.807 L 89.041,72.578 L 84.354,70.978 L 76.122,68.463 L 76.122,68.463 L 73.379,67.548 L 68.92,66.176 L 68.92,66.176 L 68.692,66.062 L 64.347,64.69 L 64.347,64.69 L 55.43,61.832 L 48.342,59.546 L 43.655,58.06 L 43.655,58.06 L 43.655,58.06 L 44.684,55.087 L 45.141,53.487 L 44.684,53.372 L 40.683,52.229 L 40.797,51.772 L 41.14,50.629 L 41.826,48.228 L 39.883,48.114 L 36.796,47.999 L 35.881,47.885 L 32.566,47.771 L 29.365,47.656 L 29.136,47.656 L 28.679,47.428 L 27.65,47.085 L 26.507,46.742 L 25.249,46.285 L 24.792,46.056 L 24.106,45.599 L 23.763,45.37 L 22.163,44.227 L 21.82,43.998 L 21.248,43.655 L 20.448,42.969 L 19.991,42.855 L 18.847,42.398 L 18.162,42.169 L 17.133,42.055 L 15.532,41.826 L 15.075,41.712 L 13.589,41.483 L 13.246,41.483 L 13.017,41.483 L 12.788,41.712 L 12.56,41.826 L 11.874,42.169 L 11.417,42.398 L 10.616,42.512 L 9.702,42.741 L 8.559,42.855 L 8.216,42.969 L 7.987,43.198 L 7.53,44.455 L 7.987,43.198 L 7.987,43.198 L 7.758,39.082 L 8.33,37.482 L 8.444,37.253 L 9.473,37.482 L 9.702,37.596 L 9.93,37.596 L 10.388,37.71 L 11.074,37.825 L 12.674,38.053 L 13.017,38.053 L 14.846,38.282 L 15.989,38.396 L 17.361,38.396 L 19.419,38.511 L 22.734,38.739 L 23.42,38.739 L 23.992,38.854 L 24.106,39.197 L 24.221,39.197 L 24.906,39.311 L 25.478,39.654 L 24.906,40.568 L 24.906,40.683 L 24.906,41.254 L 26.393,41.369 L 26.736,41.597 L 26.507,42.626 L 26.964,42.626 L 28.565,42.969 L 28.679,42.055 L 30.051,41.597 L 30.966,41.597 L 31.766,41.483 L 31.88,41.483 L 33.023,41.483 L 33.252,41.483 L 33.481,41.483 L 33.481,41.369 L 34.281,41.369 L 34.738,41.483 L 35.081,41.483 L 35.881,41.483 L 36.91,41.483 L 37.939,41.483 L 38.511,41.483 L 38.968,41.597 L 41.14,41.94 L 41.254,42.055 L 43.884,43.084 L 44.798,43.427 L 44.57,42.626 L 45.256,43.084 L 45.484,43.198 L 46.742,43.427 L 47.771,43.998 L 47.885,43.998 L 48.114,43.769 L 48.457,43.884 L 51.429,44.57 L 53.372,45.027 L 54.63,45.37 L 56.116,45.942 L 56.231,45.827 L 56.231,45.827 L 56.345,45.713 L 57.031,44.798 L 57.259,43.884 L 57.488,43.084 L 57.717,42.169 L 58.06,41.026 L 59.546,41.369 L 60.003,40.34 L 60.003,40.226 L 60.46,39.997 L 61.032,40.454 L 61.947,41.026 L 62.861,41.826 L 63.433,42.512 L 63.661,42.855 L 64.805,42.855 L 64.919,42.169 L 65.033,41.826 L 65.948,37.025 L 66.062,36.567 L 66.977,31.308 L 66.748,27.536 L 66.405,27.307 L 66.176,27.193 L 67.32,27.536 L 72.464,29.251 L 79.095,31.423 L 79.209,31.537 L 79.323,31.88 L 79.323,32.452 L 79.438,32.909 L 79.438,33.023 L 79.438,33.366 L 79.438,33.938 L 80.009,33.709 L 80.352,33.709 L 80.695,33.709 L 81.496,33.709 L 82.982,33.824 L 84.811,33.938 L 86.297,34.052 L 87.783,34.167 L 89.269,34.281 L 89.269,35.31 L 89.612,39.883 L 89.727,41.597 L 90.756,54.516 L 91.213,59.546 L 91.556,62.518 L 92.127,67.663 L 92.47,72.807 L 90.07,72.807 Z M 67.663,36.91 L 66.519,37.025 L 67.663,36.91 L 67.663,36.91 L 66.062,36.567 L 67.663,36.91 Z M 68.806,37.139 L 67.663,36.91 L 70.292,36.682 L 67.663,36.91 L 68.806,37.139 Z M 64.69,59.432 L 69.263,62.747 L 69.377,62.975 L 69.377,62.975 L 68.463,65.148 L 71.321,66.062 L 73.379,66.634 L 73.836,66.748 L 76.122,67.548 L 78.523,59.432 L 83.325,55.773 L 82.181,58.974 L 84.925,58.974 L 84.125,64.919 L 87.555,66.062 L 88.126,66.291 L 90.641,66.062 L 90.413,64.119 L 90.641,62.633 L 90.641,62.175 L 90.298,58.403 L 90.07,58.288 L 90.298,57.945 L 89.727,52.572 L 84.354,53.03 L 83.668,54.859 L 82.982,53.715 L 79.095,56.231 L 79.095,56.116 L 77.151,55.202 L 76.351,54.859 L 75.665,54.516 L 75.551,54.516 L 74.636,53.83 L 74.751,52.801 L 74.979,51.772 L 69.72,48.914 L 67.434,50.857 L 64.69,59.432 Z" fill="rgba(59,130,246,0.25)" fill-rule="evenodd" stroke="rgba(59,130,246,0.9)" stroke-width="0.3" stroke-linejoin="round"/>
</svg>
