<svg xmlns="http://www.w3.org/2000/svg" width="100%" height="100%" viewBox="0 0 100 100" preserveAspectRatio="none">
  <path d="M 60.06,44.627 L 60.06,44.627 L 61.203,45.084 L 62.347,45.77 L 69.435,49.2 L 70.121,49.428 L 71.035,49.886 L 71.035,49.886 L 65.548,62.004 L 63.033,67.263 L 52.515,62.232 L 52.286,62.004 L 28.965,50.343 L 28.965,50.343 L 28.965,50.343 L 28.965,50.343 L 31.251,45.084 L 33.538,40.283 L 36.739,32.737 L 37.882,33.423 L 39.482,34.109 L 43.369,36.167 L 46.799,37.768 L 48.628,38.682 L 49.771,39.368 L 51.372,40.054 L 54.344,41.655 L 55.716,42.34 L 58.917,43.941 L 59.146,43.941 L 60.06,44.398 L 60.06,44.627 L 60.06,44.627 L 56.402,42.798 L 60.06,44.627 L 60.06,44.627 Z" fill="rgba(59,130,246,0.25)" fill-rule="evenodd" stroke="rgba(59,130,246,0.9)" stroke-width="0.3" stroke-linejoin="round"/>
</svg>
