<svg xmlns="http://www.w3.org/2000/svg" width="100%" height="100%" viewBox="0 0 100 100" preserveAspectRatio="none">
  <path d="M 38.911,39.139 L 45.313,43.255 L 55.83,47.599 L 57.66,48.514 L 64.747,51.029 L 69.092,52.858 L 70.006,52.858 L 70.921,53.087 L 71.149,54.459 L 71.149,54.687 L 71.149,54.916 L 70.692,55.83 L 70.006,57.202 L 69.092,59.26 L 67.948,61.775 L 67.491,63.147 L 67.491,63.147 L 66.119,62.461 L 63.376,61.318 L 61.546,60.632 L 61.318,60.632 L 61.089,60.403 L 56.745,58.803 L 52.629,57.202 L 51.943,56.974 L 45.77,54.459 L 45.541,54.23 L 41.426,52.401 L 39.368,51.715 L 39.139,51.486 L 32.509,48.514 L 31.823,48.285 L 28.851,47.142 L 35.024,37.082 L 35.024,36.853 L 36.167,37.539 L 36.853,37.996 L 38.911,39.139 Z" fill="rgba(59,130,246,0.25)" fill-rule="evenodd" stroke="rgba(59,130,246,0.9)" stroke-width="0.3" stroke-linejoin="round"/>
</svg>
