<svg xmlns="http://www.w3.org/2000/svg" width="100%" height="100%" viewBox="0 0 100 100" preserveAspectRatio="none">
  <path d="M 35.367,47.028 L 40.168,36.51 L 40.854,34.681 L 42.226,35.596 L 43.369,36.053 L 41.769,39.254 L 40.626,41.769 L 40.397,42.226 L 40.168,42.683 L 39.482,44.284 L 38.797,45.656 L 36.51,50.229 L 46.799,55.259 L 48.857,50.686 L 50.457,47.714 L 50.686,47.256 L 51.829,44.741 L 53.658,41.083 L 55.487,42.226 L 57.088,42.912 L 57.774,43.369 L 58.002,43.369 L 62.347,45.427 L 64.862,46.799 L 65.548,47.028 L 65.776,47.028 L 67.148,47.714 L 64.404,53.887 L 60.746,62.347 L 59.374,65.319 L 43.598,57.545 L 43.598,57.545 L 33.08,52.286 L 33.08,52.286 L 33.08,52.286 L 32.852,52.058 L 32.852,52.058 L 35.367,47.028 Z" fill="rgba(59,130,246,0.25)" fill-rule="evenodd" stroke="rgba(59,130,246,0.9)" stroke-width="0.3" stroke-linejoin="round"/>
</svg>
