<svg xmlns="http://www.w3.org/2000/svg" width="100%" height="100%" viewBox="0 0 100 100" preserveAspectRatio="none">
  <path d="M 15.475,26.907 L 15.246,24.849 L 15.018,20.276 L 24.849,17.304 L 25.764,17.075 L 32.395,17.99 L 36.739,18.676 L 45.884,19.591 L 56.173,21.648 L 59.832,22.792 L 62.118,23.706 L 67.605,25.764 L 70.578,27.136 L 73.322,28.508 L 76.523,30.794 L 76.523,30.794 L 78.123,31.709 L 83.153,35.596 L 87.497,39.025 L 88.641,42.912 L 82.239,55.716 L 68.749,82.925 L 68.52,82.925 L 66.462,81.781 L 61.432,79.266 L 59.603,78.352 L 58.917,78.123 L 58.688,77.894 L 57.774,77.437 L 57.088,76.98 L 54.344,75.837 L 53.43,75.379 L 52.972,75.151 L 52.058,74.693 L 50.229,73.779 L 49.085,73.093 L 47.942,72.636 L 47.485,72.407 L 47.028,71.95 L 46.799,71.95 L 46.342,71.492 L 44.055,69.206 L 43.598,68.52 L 43.141,68.063 L 41.769,66.462 L 36.281,60.289 L 32.852,56.631 L 32.623,56.631 L 31.48,56.631 L 27.593,57.088 L 23.249,57.545 L 19.362,58.002 L 14.103,58.46 L 13.189,58.46 L 12.503,58.688 L 11.359,58.688 L 12.96,48.4 L 14.56,39.254 L 15.246,33.766 L 15.475,30.108 L 15.475,26.907 Z M 71.035,77.666 L 71.035,77.666 L 70.121,79.724 L 71.035,77.666 Z M 71.035,77.666 L 71.95,75.608 L 71.035,77.666 L 71.035,77.666 L 71.035,77.666 Z M 40.626,43.369 L 38.111,45.884 L 38.568,47.942 L 36.51,50.229 L 36.967,55.03 L 37.196,57.545 L 37.425,59.603 L 38.568,61.432 L 39.94,64.176 L 53.658,51.829 L 52.744,49.543 L 52.515,48.628 L 52.744,48.4 L 57.088,45.199 L 50.229,37.653 L 47.714,37.653 L 40.626,43.141 L 40.626,43.369 Z" fill="rgba(59,130,246,0.25)" fill-rule="evenodd" stroke="rgba(59,130,246,0.9)" stroke-width="0.3" stroke-linejoin="round"/>
</svg>
