<svg xmlns="http://www.w3.org/2000/svg" width="100%" height="100%" viewBox="0 0 100 100" preserveAspectRatio="none">
  <path d="M 67.377,43.484 L 66.234,55.144 L 66.234,56.059 L 66.005,57.66 L 66.005,57.66 L 65.776,57.66 L 61.661,57.66 L 58.917,57.888 L 54.116,58.345 L 49.543,59.26 L 49.543,59.26 L 46.57,59.946 L 46.342,59.946 L 43.827,60.403 L 42.455,60.632 L 40.854,60.632 L 40.854,60.632 L 39.94,60.632 L 39.254,60.632 L 37.882,60.632 L 37.882,60.632 L 36.053,60.175 L 35.138,60.175 L 34.91,58.117 L 33.995,50.343 L 33.08,43.941 L 32.623,40.74 L 32.395,39.368 L 33.995,39.597 L 36.967,40.054 L 37.196,40.054 L 40.626,40.283 L 42.226,40.283 L 43.827,40.511 L 44.055,40.511 L 44.055,40.74 L 66.005,42.798 L 67.605,43.026 L 67.377,43.484 Z" fill="rgba(59,130,246,0.25)" fill-rule="evenodd" stroke="rgba(59,130,246,0.9)" stroke-width="0.3" stroke-linejoin="round"/>
</svg>
