<svg xmlns="http://www.w3.org/2000/svg" width="100%" height="100%" viewBox="0 0 100 100" preserveAspectRatio="none">
  <path d="M 72.979,32.309 L 72.921,32.366 L 72.864,32.366 L 72.807,32.48 L 72.807,32.48 L 72.75,32.537 L 72.521,32.766 L 72.407,32.823 L 72.407,32.88 L 72.235,32.995 L 72.121,33.109 L 72.007,33.223 L 71.95,33.338 L 71.778,33.509 L 71.664,33.566 L 71.607,33.681 L 71.492,33.795 L 71.492,33.795 L 71.492,33.795 L 71.321,33.909 L 70.692,34.595 L 64.004,41.169 L 52.629,52.429 L 40.969,63.861 L 23.878,80.667 L 23.706,80.838 L 31.023,63.804 L 31.08,63.747 L 28.393,63.747 L 28.222,63.747 L 27.307,63.747 L 27.193,63.233 L 27.079,62.661 L 27.079,62.661 L 28.05,61.747 L 40.797,48.199 L 47.714,40.883 L 60.746,27.279 L 68.463,18.876 L 68.463,18.876 L 68.463,18.876 L 68.463,18.876 L 68.463,18.876 L 68.806,19.333 L 71.95,23.277 L 71.95,23.277 L 76.408,28.879 L 76.408,28.879 L 76.408,28.879 L 75.951,29.394 L 75.436,29.851 L 74.979,30.308 L 74.579,30.708 L 74.236,31.108 L 74.007,31.28 L 73.779,31.509 L 73.436,31.851 L 73.093,32.194 L 72.979,32.309 Z M 34.224,70.549 L 34.167,70.664 L 33.309,71.521 L 32.566,72.264 L 30.051,74.722 L 28.279,76.494 L 27.422,77.351 L 26.621,78.152 L 25.764,78.952 L 25.421,79.295 L 23.935,80.781 L 23.82,80.838 L 23.706,81.01 L 23.592,81.124 L 23.649,81.067 L 23.878,80.781 L 31.994,72.779 L 41.026,63.861 L 52.629,52.429 L 60.861,44.313 L 37.139,67.691 L 36.796,68.034 L 36.51,68.32 L 36.51,68.32 L 35.538,69.292 L 34.281,70.549 L 34.224,70.549 Z" fill="rgba(59,130,246,0.25)" fill-rule="evenodd" stroke="rgba(59,130,246,0.9)" stroke-width="0.3" stroke-linejoin="round"/>
</svg>
