<svg xmlns="http://www.w3.org/2000/svg" width="100%" height="100%" viewBox="0 0 100 100" preserveAspectRatio="none">
  <path d="M 36.853,48.971 L 36.853,48.971 L 37.539,45.999 L 37.996,44.17 L 38.225,43.712 L 38.454,43.484 L 38.682,42.798 L 41.426,42.112 L 47.828,40.054 L 50.114,39.368 L 56.288,37.31 L 56.288,37.31 L 61.318,35.71 L 61.775,36.853 L 62.004,37.539 L 63.147,41.197 L 64.747,46.685 L 64.976,46.913 L 65.205,47.142 L 64.519,47.828 L 64.062,48.285 L 62.461,50.114 L 60.403,52.401 L 60.175,52.629 L 58.117,54.916 L 57.202,56.059 L 56.288,56.974 L 54.001,59.489 L 52.858,60.861 L 50.8,63.147 L 49.657,64.29 L 48.742,63.376 L 42.34,57.888 L 39.825,55.602 L 37.996,54.23 L 35.481,51.715 L 34.795,51.029 L 36.853,48.971 Z" fill="rgba(59,130,246,0.25)" fill-rule="evenodd" stroke="rgba(59,130,246,0.9)" stroke-width="0.3" stroke-linejoin="round"/>
</svg>
