<svg xmlns="http://www.w3.org/2000/svg" width="100%" height="100%" viewBox="0 0 100 100" preserveAspectRatio="none">
  <path d="M 63.947,32.395 L 63.261,33.08 L 62.804,33.538 L 57.545,44.741 L 57.317,45.199 L 56.859,45.884 L 56.859,45.884 L 54.573,50.915 L 54.573,50.915 L 48.171,64.862 L 47.942,65.548 L 46.799,68.52 L 46.57,68.291 L 46.57,68.291 L 39.711,63.719 L 36.281,61.432 L 36.053,61.203 L 37.425,58.46 L 37.653,58.231 L 40.397,52.744 L 40.397,52.515 L 43.141,46.799 L 43.141,46.799 L 43.369,46.113 L 43.141,45.427 L 42.912,45.199 L 42.683,45.199 L 42.226,45.199 L 41.769,44.97 L 41.769,44.741 L 41.769,44.055 L 43.598,40.168 L 43.598,40.168 L 46.113,34.681 L 46.113,34.452 L 46.342,33.766 L 47.028,33.995 L 47.714,33.995 L 50.0,33.538 L 50.457,33.538 L 52.972,33.08 L 54.116,32.852 L 56.173,32.623 L 56.402,32.623 L 56.631,32.623 L 58.231,32.395 L 63.261,31.48 L 63.947,31.48 L 63.947,32.395 Z" fill="rgba(59,130,246,0.25)" fill-rule="evenodd" stroke="rgba(59,130,246,0.9)" stroke-width="0.3" stroke-linejoin="round"/>
</svg>
