<svg xmlns="http://www.w3.org/2000/svg" width="100%" height="100%" viewBox="0 0 100 100" preserveAspectRatio="none">
  <path d="M 61.889,43.369 L 61.203,47.485 L 60.975,48.628 L 60.289,52.744 L 59.832,54.573 L 58.917,60.06 L 57.774,65.09 L 57.774,65.548 L 57.774,65.548 L 57.774,65.548 L 56.402,65.319 L 56.173,65.319 L 52.515,64.633 L 49.543,63.947 L 48.857,63.947 L 46.799,63.49 L 46.799,63.49 L 45.656,63.261 L 43.598,62.804 L 43.369,62.804 L 41.998,62.575 L 38.568,61.889 L 36.967,61.661 L 38.339,54.116 L 38.568,53.658 L 38.797,52.515 L 39.482,48.4 L 39.711,47.485 L 39.711,47.256 L 39.711,46.799 L 39.94,45.884 L 41.083,40.626 L 41.769,36.967 L 41.998,35.824 L 42.226,34.452 L 43.598,34.681 L 47.256,35.367 L 52.515,36.281 L 61.661,38.111 L 63.033,38.339 L 63.033,38.339 L 61.889,43.369 Z" fill="rgba(59,130,246,0.25)" fill-rule="evenodd" stroke="rgba(59,130,246,0.9)" stroke-width="0.3" stroke-linejoin="round"/>
</svg>
