<svg xmlns="http://www.w3.org/2000/svg" width="100%" height="100%" viewBox="0 0 100 100" preserveAspectRatio="none">
  <path d="M 32.623,34.795 L 32.623,34.338 L 33.309,34.338 L 35.824,34.795 L 43.827,36.396 L 56.402,39.597 L 57.088,39.597 L 58.002,43.026 L 58.688,45.084 L 59.146,45.313 L 64.404,47.371 L 68.063,48.742 L 68.063,48.742 L 67.148,50.8 L 64.633,58.574 L 62.118,65.433 L 62.118,65.662 L 62.118,65.662 L 55.487,62.918 L 52.972,60.861 L 51.829,59.946 L 49.314,57.888 L 47.485,56.288 L 43.598,52.629 L 41.083,50.572 L 38.111,47.828 L 34.452,44.856 L 32.395,43.026 L 32.166,42.569 L 31.937,42.112 L 31.937,41.197 L 32.395,37.996 L 32.623,35.71 L 32.623,34.795 Z" fill="rgba(59,130,246,0.25)" fill-rule="evenodd" stroke="rgba(59,130,246,0.9)" stroke-width="0.3" stroke-linejoin="round"/>
</svg>
