<svg xmlns="http://www.w3.org/2000/svg" width="100%" height="100%" viewBox="0 0 100 100" preserveAspectRatio="none">
  <path d="M 51.258,32.852 L 61.775,38.111 L 62.461,38.568 L 62.004,39.254 L 61.775,40.168 L 60.632,42.455 L 59.717,44.284 L 59.26,44.97 L 58.574,46.342 L 57.66,48.4 L 56.974,49.771 L 56.288,51.143 L 55.83,52.058 L 55.373,52.515 L 55.373,52.972 L 54.459,54.573 L 53.544,55.945 L 53.544,56.173 L 52.629,57.317 L 51.715,58.917 L 50.8,60.518 L 49.657,62.118 L 48.971,63.719 L 48.742,63.947 L 47.371,65.776 L 46.227,67.148 L 45.77,66.92 L 44.398,66.005 L 43.484,65.776 L 42.569,65.548 L 41.655,65.319 L 40.74,65.09 L 40.054,64.862 L 38.682,63.947 L 37.996,63.719 L 37.539,63.033 L 37.539,62.804 L 37.539,62.804 L 37.539,62.118 L 37.768,61.432 L 38.911,59.603 L 40.054,57.317 L 41.426,54.801 L 42.34,53.201 L 42.569,52.744 L 42.798,52.286 L 43.255,51.372 L 46.456,44.97 L 47.142,43.598 L 47.371,43.141 L 48.285,40.626 L 48.285,40.626 L 48.971,39.025 L 48.971,39.025 L 49.2,38.339 L 50.8,34.224 L 51.258,32.852 Z" fill="rgba(59,130,246,0.25)" fill-rule="evenodd" stroke="rgba(59,130,246,0.9)" stroke-width="0.3" stroke-linejoin="round"/>
</svg>
