<svg xmlns="http://www.w3.org/2000/svg" width="100%" height="100%" viewBox="0 0 100 100" preserveAspectRatio="none">
  <path d="M 32.052,65.776 L 32.28,65.548 L 32.28,65.548 L 39.825,45.199 L 40.054,44.741 L 40.054,44.741 L 41.883,39.94 L 45.313,31.709 L 45.313,31.251 L 46.685,27.593 L 46.685,27.593 L 46.685,27.364 L 46.685,27.364 L 48.742,29.422 L 48.971,29.422 L 50.572,31.023 L 50.8,31.48 L 54.459,34.91 L 55.602,35.824 L 55.83,36.281 L 60.632,41.312 L 61.089,41.769 L 65.433,47.256 L 66.348,48.4 L 66.348,48.628 L 67.72,50.0 L 67.948,50.229 L 67.491,50.915 L 66.805,51.372 L 66.805,51.6 L 63.604,53.658 L 62.69,54.344 L 59.717,57.317 L 58.117,59.146 L 56.974,60.06 L 56.745,60.518 L 55.83,63.261 L 53.087,70.578 L 52.858,71.492 L 52.629,71.95 L 52.629,72.178 L 51.943,72.636 L 51.486,72.407 L 43.026,69.663 L 37.31,67.834 L 35.024,66.92 L 35.024,66.92 L 32.052,65.776 Z" fill="rgba(59,130,246,0.25)" fill-rule="evenodd" stroke="rgba(59,130,246,0.9)" stroke-width="0.3" stroke-linejoin="round"/>
</svg>
