<svg xmlns="http://www.w3.org/2000/svg" width="100%" height="100%" viewBox="0 0 100 100" preserveAspectRatio="none">
  <path d="M 56.402,61.775 L 54.801,62.232 L 51.829,62.918 L 46.57,63.833 L 42.683,64.519 L 42.683,63.833 L 42.683,63.147 L 42.226,60.632 L 41.769,57.888 L 41.312,55.373 L 39.711,46.913 L 39.254,43.941 L 39.025,42.569 L 39.254,42.112 L 39.254,41.197 L 39.482,40.283 L 39.711,39.597 L 40.168,38.911 L 40.854,37.768 L 41.54,37.31 L 41.312,36.853 L 41.998,36.624 L 42.912,36.167 L 44.284,35.71 L 45.656,35.481 L 46.342,35.481 L 52.744,35.938 L 59.374,36.396 L 60.289,36.624 L 60.975,37.082 L 58.231,39.368 L 57.088,40.511 L 56.402,41.197 L 55.487,42.112 L 54.801,43.255 L 54.573,43.712 L 54.344,44.627 L 54.116,45.999 L 54.116,47.142 L 54.116,47.828 L 54.116,49.428 L 54.344,51.258 L 54.801,54.001 L 56.173,60.632 L 56.402,61.318 L 56.402,61.775 Z" fill="rgba(59,130,246,0.25)" fill-rule="evenodd" stroke="rgba(59,130,246,0.9)" stroke-width="0.3" stroke-linejoin="round"/>
</svg>
