<svg xmlns="http://www.w3.org/2000/svg" width="100%" height="100%" viewBox="0 0 100 100" preserveAspectRatio="none">
  <path d="M 36.281,64.062 L 36.739,63.376 L 36.739,62.918 L 36.967,62.69 L 37.882,60.403 L 39.482,57.202 L 39.482,56.974 L 39.94,55.602 L 41.769,51.486 L 43.598,47.371 L 43.598,47.371 L 44.741,44.856 L 44.741,44.856 L 46.57,40.969 L 48.171,37.082 L 48.171,37.082 L 49.771,33.652 L 50.457,31.823 L 50.915,31.137 L 51.143,30.451 L 52.515,31.137 L 54.344,32.052 L 58.002,33.652 L 63.719,36.167 L 59.374,45.999 L 59.146,46.227 L 58.917,46.685 L 55.487,54.687 L 55.487,54.687 L 52.058,62.232 L 52.058,62.461 L 51.6,63.147 L 48.857,69.549 L 36.281,64.062 Z" fill="rgba(59,130,246,0.25)" fill-rule="evenodd" stroke="rgba(59,130,246,0.9)" stroke-width="0.3" stroke-linejoin="round"/>
</svg>
