<svg xmlns="http://www.w3.org/2000/svg" width="100%" height="100%" viewBox="0 0 100 100" preserveAspectRatio="none">
  <path d="M 62.918,35.71 L 63.147,35.71 L 62.918,36.396 L 62.461,37.082 L 61.775,38.911 L 60.175,42.34 L 60.175,42.34 L 58.574,46.227 L 56.745,50.114 L 56.745,50.114 L 55.602,52.629 L 55.602,52.629 L 53.773,56.745 L 51.943,60.861 L 51.486,62.232 L 51.486,62.461 L 49.886,65.662 L 48.971,67.948 L 48.742,68.177 L 48.742,68.634 L 48.285,69.32 L 48.285,69.32 L 43.484,67.034 L 42.34,66.577 L 36.853,64.062 L 37.082,63.376 L 37.31,63.147 L 39.825,57.202 L 39.825,57.202 L 41.883,52.629 L 44.17,47.599 L 44.17,47.599 L 44.398,47.371 L 45.77,43.941 L 46.227,42.798 L 48.285,38.225 L 48.742,37.31 L 48.742,37.31 L 51.258,31.823 L 51.715,30.68 L 51.715,30.68 L 51.715,30.68 L 51.715,30.68 L 53.773,31.594 L 57.431,33.423 L 62.918,35.71 Z" fill="rgba(59,130,246,0.25)" fill-rule="evenodd" stroke="rgba(59,130,246,0.9)" stroke-width="0.3" stroke-linejoin="round"/>
</svg>
