<svg xmlns="http://www.w3.org/2000/svg" width="100%" height="100%" viewBox="0 0 100 100" preserveAspectRatio="none">
  <path d="M 31.137,45.999 L 31.137,45.999 L 31.366,45.999 L 34.338,45.77 L 36.167,45.313 L 36.167,45.313 L 37.768,45.084 L 39.139,44.856 L 40.054,44.627 L 40.969,44.398 L 45.084,43.255 L 45.541,43.255 L 47.828,42.34 L 49.2,42.112 L 49.886,41.883 L 50.572,43.712 L 49.886,41.883 L 52.401,40.74 L 56.288,38.911 L 60.861,36.853 L 62.461,39.368 L 64.747,43.484 L 68.863,50.114 L 67.491,50.8 L 62.918,53.315 L 59.946,54.916 L 59.946,54.916 L 58.117,55.83 L 55.83,56.974 L 54.687,57.66 L 53.315,58.117 L 51.486,58.803 L 51.029,59.031 L 49.2,59.717 L 48.285,59.946 L 47.599,60.175 L 45.313,60.861 L 43.712,61.318 L 42.112,61.546 L 41.655,61.775 L 38.911,62.232 L 36.853,62.69 L 34.338,63.147 L 33.423,63.147 L 32.509,63.147 L 32.509,63.147 L 32.509,61.318 L 31.823,53.315 L 31.366,48.057 L 31.137,45.999 Z" fill="rgba(59,130,246,0.25)" fill-rule="evenodd" stroke="rgba(59,130,246,0.9)" stroke-width="0.3" stroke-linejoin="round"/>
</svg>
