<svg xmlns="http://www.w3.org/2000/svg" width="100%" height="100%" viewBox="0 0 100 100" preserveAspectRatio="none">
  <path d="M 38.454,34.338 L 38.682,34.109 L 40.054,32.28 L 41.883,30.451 L 48.057,35.938 L 51.715,39.368 L 53.773,41.197 L 53.773,41.197 L 54.916,42.112 L 55.83,43.026 L 55.83,43.026 L 56.288,43.255 L 59.031,45.77 L 62.004,48.514 L 57.66,53.315 L 56.974,54.23 L 56.745,54.459 L 56.745,54.687 L 55.373,56.059 L 51.943,59.946 L 51.715,60.175 L 49.2,62.918 L 49.2,63.147 L 48.285,64.062 L 44.627,68.177 L 43.026,69.549 L 42.798,67.72 L 41.883,62.461 L 41.197,56.288 L 41.197,56.059 L 40.969,54.916 L 40.511,51.715 L 40.054,47.371 L 40.054,47.371 L 39.139,40.969 L 38.454,36.167 L 38.225,35.481 L 37.996,34.795 L 37.996,34.338 L 38.225,34.338 L 38.454,34.338 Z" fill="rgba(59,130,246,0.25)" fill-rule="evenodd" stroke="rgba(59,130,246,0.9)" stroke-width="0.3" stroke-linejoin="round"/>
</svg>
