<svg xmlns="http://www.w3.org/2000/svg" width="100%" height="100%" viewBox="0 0 100 100" preserveAspectRatio="none">
  <path d="M 63.376,51.372 L 63.833,52.515 L 64.062,54.116 L 64.29,54.573 L 65.205,57.088 L 66.348,60.06 L 67.491,63.033 L 67.948,63.947 L 68.634,64.862 L 69.092,65.319 L 69.549,65.548 L 70.235,66.005 L 71.378,66.691 L 70.921,67.377 L 70.692,67.834 L 69.092,71.721 L 67.948,71.264 L 67.263,70.806 L 59.489,67.377 L 59.489,67.377 L 55.144,65.548 L 54.23,65.319 L 54.23,65.319 L 50.8,63.719 L 50.114,63.49 L 50.114,63.49 L 49.428,63.033 L 49.2,63.033 L 45.999,61.432 L 45.541,61.432 L 45.541,61.432 L 44.398,60.975 L 44.17,60.975 L 40.283,58.917 L 40.283,58.917 L 40.054,58.917 L 39.368,58.688 L 34.795,56.631 L 34.795,56.402 L 28.851,53.658 L 28.851,53.658 L 28.622,53.658 L 28.851,53.201 L 30.451,49.771 L 31.137,48.4 L 32.052,46.342 L 32.509,45.427 L 32.737,44.97 L 33.423,43.369 L 35.481,39.025 L 36.624,36.281 L 36.624,36.281 L 37.768,33.995 L 38.225,32.395 L 39.368,29.651 L 39.825,28.279 L 40.054,28.279 L 40.74,28.279 L 42.112,28.736 L 44.627,29.422 L 47.828,30.565 L 48.285,30.794 L 51.258,31.709 L 51.486,31.937 L 51.943,31.937 L 53.544,32.166 L 56.288,32.395 L 58.345,32.623 L 58.574,32.623 L 61.089,33.08 L 63.147,33.309 L 64.976,33.538 L 65.662,33.766 L 66.348,33.766 L 64.976,44.284 L 64.976,44.284 L 64.519,47.942 L 64.062,49.543 L 63.376,51.143 L 63.376,51.372 Z" fill="rgba(59,130,246,0.25)" fill-rule="evenodd" stroke="rgba(59,130,246,0.9)" stroke-width="0.3" stroke-linejoin="round"/>
</svg>
