<svg xmlns="http://www.w3.org/2000/svg" width="100%" height="100%" viewBox="0 0 100 100" preserveAspectRatio="none">
  <path d="M 37.996,42.226 L 39.368,42.455 L 39.597,42.455 L 40.74,42.455 L 42.569,42.683 L 46.913,43.369 L 48.514,43.598 L 50.343,43.827 L 58.345,44.741 L 59.031,44.97 L 59.031,44.97 L 61.318,45.199 L 61.546,45.199 L 61.546,45.199 L 61.546,45.199 L 61.546,45.199 L 61.546,45.199 L 61.546,45.199 L 64.519,45.656 L 64.519,45.656 L 64.519,45.656 L 64.29,46.799 L 64.29,47.942 L 62.69,58.002 L 61.775,57.774 L 58.803,57.317 L 58.345,57.317 L 54.459,56.859 L 53.315,56.631 L 53.087,56.631 L 48.514,55.945 L 47.599,55.716 L 47.142,55.716 L 43.026,55.03 L 42.112,55.03 L 41.426,54.801 L 41.197,54.801 L 37.539,54.344 L 36.396,54.344 L 35.481,54.116 L 35.71,53.43 L 35.938,52.286 L 36.624,47.485 L 37.082,44.284 L 37.31,43.369 L 37.31,42.683 L 37.31,41.998 L 37.539,41.998 L 37.539,42.226 L 37.996,42.226 Z" fill="rgba(59,130,246,0.25)" fill-rule="evenodd" stroke="rgba(59,130,246,0.9)" stroke-width="0.3" stroke-linejoin="round"/>
</svg>
