<svg xmlns="http://www.w3.org/2000/svg" width="100%" height="100%" viewBox="0 0 100 100" preserveAspectRatio="none">
  <path d="M 66.119,26.793 L 66.348,26.793 L 66.119,26.793 L 66.119,26.793 L 65.433,29.308 L 64.519,31.594 L 64.519,31.594 L 63.833,33.423 L 63.376,35.253 L 63.376,35.481 L 62.232,38.225 L 61.089,41.655 L 61.089,41.655 L 60.403,43.941 L 59.717,45.999 L 59.489,46.685 L 59.031,48.514 L 59.031,48.514 L 56.974,54.459 L 56.745,54.916 L 54.23,62.232 L 53.773,63.833 L 53.773,64.062 L 52.401,67.948 L 51.029,71.378 L 48.971,77.323 L 48.742,78.237 L 46.913,77.323 L 45.084,76.637 L 41.655,75.036 L 41.655,75.036 L 41.426,75.036 L 38.454,73.665 L 36.167,72.75 L 35.481,72.293 L 35.481,72.293 L 33.652,71.607 L 33.881,70.921 L 34.795,68.177 L 35.71,65.662 L 35.481,65.433 L 36.396,62.918 L 36.624,62.918 L 36.853,62.461 L 37.768,59.26 L 37.996,58.574 L 37.996,58.574 L 38.911,58.803 L 49.886,26.564 L 51.486,21.763 L 51.486,21.763 L 66.119,26.793 Z" fill="rgba(59,130,246,0.25)" fill-rule="evenodd" stroke="rgba(59,130,246,0.9)" stroke-width="0.3" stroke-linejoin="round"/>
</svg>
