<svg xmlns="http://www.w3.org/2000/svg" width="100%" height="100%" viewBox="0 0 100 100" preserveAspectRatio="none">
  <path d="M 11.588,44.627 L 13.417,39.825 L 13.417,39.597 L 15.475,33.881 L 17.075,29.536 L 19.133,23.134 L 20.505,19.019 L 21.191,17.418 L 21.877,14.903 L 22.792,12.846 L 22.792,12.846 L 22.792,12.846 L 31.709,15.818 L 40.168,18.562 L 53.887,22.906 L 54.801,23.363 L 55.259,23.592 L 58.688,24.735 L 60.289,25.421 L 63.719,27.021 L 64.404,27.021 L 64.404,27.021 L 63.49,29.765 L 63.49,29.765 L 69.435,37.31 L 69.435,37.31 L 73.55,42.569 L 74.922,44.398 L 77.666,47.828 L 77.666,47.828 L 79.495,50.114 L 82.01,53.315 L 82.01,53.315 L 86.811,59.031 L 88.641,60.861 L 84.982,68.177 L 84.982,68.406 L 80.867,76.866 L 80.867,77.094 L 80.638,77.094 L 80.409,77.78 L 79.952,79.609 L 79.495,80.752 L 79.266,81.21 L 77.666,86.468 L 77.437,87.154 L 72.407,85.554 L 71.721,85.325 L 71.035,85.097 L 67.834,83.953 L 62.575,82.353 L 62.575,82.353 L 54.116,79.381 L 53.43,79.152 L 53.43,79.152 L 52.058,78.695 L 52.286,77.78 L 52.515,77.094 L 52.286,76.408 L 50.686,72.293 L 50.457,71.835 L 49.085,69.32 L 46.799,63.376 L 45.199,59.489 L 44.97,59.26 L 44.284,57.888 L 44.055,57.66 L 43.598,56.745 L 42.683,56.516 L 39.711,55.602 L 35.367,54.001 L 34.452,53.773 L 33.08,53.315 L 32.623,53.087 L 30.794,52.401 L 25.993,50.572 L 23.706,49.886 L 14.332,46.456 L 13.646,46.227 L 12.274,45.77 L 11.359,45.541 L 11.588,44.627 Z" fill="rgba(59,130,246,0.25)" fill-rule="evenodd" stroke="rgba(59,130,246,0.9)" stroke-width="0.3" stroke-linejoin="round"/>
</svg>
