<svg xmlns="http://www.w3.org/2000/svg" width="100%" height="100%" viewBox="0 0 100 100" preserveAspectRatio="none">
  <path d="M 31.823,51.029 L 33.881,48.971 L 36.624,45.77 L 36.853,45.541 L 40.283,41.883 L 40.283,41.426 L 41.426,40.283 L 42.569,39.139 L 43.026,38.454 L 45.541,35.71 L 49.886,30.908 L 51.715,32.737 L 53.087,33.652 L 53.544,34.109 L 54.001,34.338 L 54.001,34.338 L 54.916,33.881 L 60.632,30.68 L 61.089,31.137 L 62.461,33.652 L 63.604,35.71 L 60.632,37.31 L 60.403,38.225 L 61.775,40.74 L 60.861,41.197 L 62.004,43.484 L 62.232,43.712 L 63.376,45.77 L 65.433,44.627 L 65.662,45.313 L 66.805,47.142 L 68.177,49.886 L 67.72,50.572 L 65.205,53.087 L 66.119,54.001 L 64.519,55.83 L 62.004,58.574 L 60.861,59.946 L 60.403,60.403 L 57.431,63.833 L 52.401,69.32 L 49.428,66.805 L 46.227,63.833 L 42.569,60.632 L 40.74,59.031 L 31.823,51.029 Z" fill="rgba(59,130,246,0.25)" fill-rule="evenodd" stroke="rgba(59,130,246,0.9)" stroke-width="0.3" stroke-linejoin="round"/>
</svg>
