<svg xmlns="http://www.w3.org/2000/svg" width="100%" height="100%" viewBox="0 0 100 100" preserveAspectRatio="none">
  <path d="M 46.913,37.425 L 48.514,37.425 L 53.773,38.111 L 54.001,38.111 L 54.916,38.339 L 55.144,38.339 L 55.144,38.339 L 55.144,38.339 L 55.144,38.339 L 55.144,38.339 L 55.144,38.339 L 55.373,38.339 L 55.373,38.339 L 55.373,38.339 L 55.373,38.339 L 55.373,38.339 L 55.373,38.339 L 55.373,38.339 L 55.373,38.339 L 55.373,38.339 L 55.602,38.339 L 55.602,38.339 L 55.602,38.339 L 55.83,38.339 L 55.83,38.339 L 55.83,38.339 L 55.83,38.339 L 56.059,38.339 L 56.059,38.339 L 56.059,38.339 L 56.288,38.339 L 56.288,38.339 L 56.288,38.339 L 56.288,38.339 L 56.288,38.568 L 56.288,38.568 L 56.288,38.568 L 56.516,38.568 L 56.516,38.568 L 56.745,38.568 L 56.745,38.568 L 56.745,38.568 L 56.974,38.568 L 57.888,38.797 L 57.888,39.94 L 57.66,40.168 L 57.431,42.226 L 56.974,46.57 L 56.059,52.744 L 55.83,54.116 L 54.687,62.804 L 53.315,62.575 L 48.742,61.889 L 48.742,61.889 L 47.599,61.661 L 42.112,61.203 L 42.798,55.945 L 42.798,55.945 L 43.484,50.457 L 43.712,50.229 L 43.712,50.229 L 43.941,49.771 L 43.941,49.543 L 45.541,39.482 L 45.541,38.339 L 45.77,37.196 L 45.77,37.196 L 46.913,37.425 Z" fill="rgba(59,130,246,0.25)" fill-rule="evenodd" stroke="rgba(59,130,246,0.9)" stroke-width="0.3" stroke-linejoin="round"/>
</svg>
