<svg xmlns="http://www.w3.org/2000/svg" width="100%" height="100%" viewBox="0 0 100 100" preserveAspectRatio="none">
  <path d="M 36.167,61.203 L 42.34,47.942 L 49.2,32.623 L 49.2,32.623 L 52.172,33.995 L 52.629,33.995 L 56.745,35.824 L 63.833,39.025 L 59.946,47.485 L 57.431,52.744 L 55.144,58.231 L 54.687,58.917 L 54.687,58.917 L 52.858,63.033 L 51.029,66.691 L 50.8,67.377 L 49.2,66.691 L 45.084,64.862 L 43.255,64.176 L 39.597,62.575 L 39.368,62.575 L 36.167,61.203 L 36.167,61.203 L 36.167,61.203 Z M 56.516,44.741 L 46.913,40.397 L 41.197,52.744 L 50.8,57.088 L 52.172,54.116 L 53.315,51.372 L 54.459,48.857 L 56.516,44.741 Z" fill="rgba(59,130,246,0.25)" fill-rule="evenodd" stroke="rgba(59,130,246,0.9)" stroke-width="0.3" stroke-linejoin="round"/>
</svg>
