<svg xmlns="http://www.w3.org/2000/svg" width="100%" height="100%" viewBox="0 0 100 100" preserveAspectRatio="none">
  <path d="M 55.716,32.852 L 55.945,32.852 L 58.917,35.596 L 55.945,32.852 L 55.716,32.852 L 55.945,32.623 L 55.945,32.623 L 63.49,39.254 L 63.49,39.254 L 65.548,41.312 L 66.691,41.998 L 66.462,41.998 L 65.776,41.54 L 66.462,41.998 L 66.462,42.226 L 64.633,44.055 L 63.033,45.884 L 61.889,47.256 L 58.231,51.6 L 57.774,52.058 L 55.487,54.344 L 53.43,56.859 L 52.744,57.545 L 50.229,60.518 L 49.085,61.661 L 44.055,67.148 L 44.055,67.377 L 44.055,67.377 L 36.281,60.518 L 36.281,60.518 L 33.309,57.774 L 37.882,52.744 L 41.998,48.4 L 41.998,48.4 L 49.085,40.397 L 55.03,33.766 L 55.487,33.08 L 55.716,32.852 Z" fill="rgba(59,130,246,0.25)" fill-rule="evenodd" stroke="rgba(59,130,246,0.9)" stroke-width="0.3" stroke-linejoin="round"/>
</svg>
