<svg xmlns="http://www.w3.org/2000/svg" width="100%" height="100%" viewBox="0 0 100 100" preserveAspectRatio="none">
  <path d="M 63.376,26.45 L 54.23,29.422 L 55.373,31.48 L 51.943,32.623 L 51.943,32.623 L 49.886,32.852 L 49.886,33.538 L 49.657,33.538 L 44.398,33.995 L 44.627,35.824 L 42.569,36.281 L 40.969,37.882 L 39.368,39.711 L 38.454,41.54 L 39.825,44.513 L 37.539,45.884 L 40.511,49.771 L 39.825,50.457 L 38.225,52.058 L 37.996,55.716 L 50.572,60.06 L 61.775,60.518 L 64.062,57.088 L 67.034,57.317 L 81.667,39.254 L 84.639,41.769 L 80.752,47.028 L 75.951,53.43 L 68.863,62.804 L 68.406,63.49 L 67.72,64.404 L 65.662,67.148 L 63.147,70.806 L 60.861,73.55 L 58.117,71.492 L 57.202,70.578 L 51.943,68.063 L 50.8,67.605 L 50.8,67.605 L 50.572,67.377 L 40.054,62.575 L 39.825,62.575 L 27.936,57.088 L 29.079,55.716 L 30.68,53.658 L 32.966,50.457 L 33.195,50.0 L 33.195,49.771 L 32.737,49.771 L 32.052,50.0 L 31.823,50.0 L 30.222,49.085 L 26.793,47.714 L 21.534,45.199 L 17.418,43.369 L 16.961,42.912 L 15.361,41.769 L 16.275,41.54 L 20.391,40.168 L 23.134,39.254 L 27.479,37.882 L 28.165,37.653 L 30.451,36.967 L 36.624,34.91 L 45.999,31.709 L 56.745,28.508 L 57.888,28.05 L 63.376,26.45 Z" fill="rgba(59,130,246,0.25)" fill-rule="evenodd" stroke="rgba(59,130,246,0.9)" stroke-width="0.3" stroke-linejoin="round"/>
</svg>
