<svg xmlns="http://www.w3.org/2000/svg" width="100%" height="100%" viewBox="0 0 100 100" preserveAspectRatio="none">
  <path d="M 69.663,49.428 L 70.806,51.486 L 71.035,51.715 L 70.578,51.943 L 69.892,52.629 L 67.148,54.459 L 63.947,56.974 L 63.947,56.974 L 61.203,58.574 L 57.317,61.546 L 57.317,61.546 L 56.402,62.232 L 55.259,62.918 L 55.259,62.918 L 52.515,64.976 L 52.058,65.205 L 52.058,65.205 L 48.857,67.263 L 48.857,67.491 L 47.714,68.177 L 46.799,68.863 L 46.57,68.863 L 43.827,70.921 L 41.083,72.979 L 40.397,73.436 L 39.711,72.521 L 37.653,69.549 L 35.596,66.805 L 35.367,66.577 L 34.91,65.891 L 34.452,65.205 L 34.452,65.205 L 33.08,63.376 L 31.709,61.546 L 31.709,61.318 L 30.565,59.946 L 28.965,57.888 L 28.965,57.888 L 29.651,57.202 L 29.879,57.202 L 35.824,51.258 L 36.281,50.8 L 40.397,46.685 L 40.397,46.685 L 44.055,43.255 L 46.57,40.511 L 54.573,32.509 L 59.374,27.936 L 59.603,27.707 L 59.832,27.707 L 60.06,27.25 L 60.518,27.479 L 59.146,28.851 L 60.518,27.479 L 60.518,27.021 L 60.518,26.564 L 60.746,27.021 L 60.746,27.479 L 61.889,31.366 L 63.033,34.567 L 65.319,40.74 L 66.005,42.798 L 66.92,44.627 L 67.148,45.313 L 67.834,46.227 L 67.834,46.227 L 68.52,47.599 L 69.663,49.428 Z" fill="rgba(59,130,246,0.25)" fill-rule="evenodd" stroke="rgba(59,130,246,0.9)" stroke-width="0.3" stroke-linejoin="round"/>
</svg>
