<svg xmlns="http://www.w3.org/2000/svg" width="100%" height="100%" viewBox="0 0 100 100" preserveAspectRatio="none">
  <path d="M 61.889,68.977 L 55.716,64.633 L 51.143,61.203 L 51.143,61.203 L 45.884,57.317 L 45.656,57.317 L 41.083,54.116 L 41.083,53.887 L 40.854,53.887 L 38.797,52.286 L 34.224,49.085 L 31.023,46.57 L 28.279,45.427 L 28.508,45.199 L 30.794,40.168 L 34.91,31.023 L 37.425,31.937 L 40.626,33.309 L 45.427,35.367 L 45.427,35.367 L 48.628,36.739 L 48.628,36.739 L 54.573,39.254 L 54.801,39.482 L 58.917,41.312 L 59.146,41.312 L 60.975,42.226 L 60.975,42.226 L 66.234,44.513 L 66.234,44.513 L 71.721,47.028 L 71.492,47.714 L 71.264,48.171 L 70.349,49.771 L 67.605,56.173 L 66.005,59.832 L 65.776,60.518 L 65.09,61.889 L 63.261,66.234 L 61.889,68.977 L 61.889,68.977 Z" fill="rgba(59,130,246,0.25)" fill-rule="evenodd" stroke="rgba(59,130,246,0.9)" stroke-width="0.3" stroke-linejoin="round"/>
</svg>
