<svg xmlns="http://www.w3.org/2000/svg" width="100%" height="100%" viewBox="0 0 100 100" preserveAspectRatio="none">
  <path d="M 64.29,24.735 L 64.29,24.735 L 64.747,26.907 L 66.577,26.907 L 66.92,26.907 L 72.293,26.907 L 57.317,61.661 L 55.259,63.719 L 54.687,64.176 L 52.972,65.891 L 50.572,68.291 L 50.343,68.52 L 49.886,68.863 L 49.543,69.32 L 48.514,70.349 L 46.685,72.178 L 46.227,72.636 L 45.999,72.75 L 45.084,73.436 L 44.17,74.007 L 41.998,75.265 L 27.707,51.943 L 27.707,51.943 L 27.707,51.943 L 27.707,51.943 L 33.538,48.857 L 41.083,44.17 L 48.171,39.139 L 50.114,37.539 L 53.658,34.567 L 64.176,24.735 L 64.29,24.735 Z" fill="rgba(59,130,246,0.25)" fill-rule="evenodd" stroke="rgba(59,130,246,0.9)" stroke-width="0.3" stroke-linejoin="round"/>
</svg>
