<svg xmlns="http://www.w3.org/2000/svg" width="100%" height="100%" viewBox="0 0 100 100" preserveAspectRatio="none">
  <path d="M 38.225,56.745 L 38.911,52.858 L 38.911,52.401 L 38.911,52.401 L 39.368,50.343 L 39.597,48.742 L 39.825,47.599 L 40.054,46.913 L 40.054,46.913 L 41.197,41.197 L 41.883,37.082 L 42.798,32.509 L 44.17,32.737 L 45.999,33.195 L 56.059,35.024 L 57.66,35.481 L 62.232,36.396 L 63.376,36.624 L 63.376,37.31 L 63.376,39.368 L 63.147,40.969 L 63.147,42.112 L 63.147,42.569 L 63.147,43.255 L 62.918,46.913 L 62.461,51.943 L 62.461,52.172 L 62.461,54.23 L 62.461,54.23 L 62.232,57.431 L 62.232,57.66 L 60.861,60.175 L 60.175,61.775 L 60.175,61.775 L 58.117,66.119 L 58.117,66.577 L 57.888,66.805 L 57.888,67.491 L 57.66,67.491 L 56.745,67.263 L 56.288,67.263 L 51.715,66.805 L 51.715,66.805 L 48.514,66.577 L 45.313,66.348 L 45.313,66.348 L 37.996,65.662 L 36.624,65.433 L 36.624,65.433 L 37.31,61.318 L 38.225,56.745 Z" fill="rgba(59,130,246,0.25)" fill-rule="evenodd" stroke="rgba(59,130,246,0.9)" stroke-width="0.3" stroke-linejoin="round"/>
</svg>
