<svg xmlns="http://www.w3.org/2000/svg" width="100%" height="100%" viewBox="0 0 100 100" preserveAspectRatio="none">
  <path d="M 40.969,52.058 L 32.737,49.543 L 32.737,49.543 L 32.28,49.314 L 32.28,49.314 L 32.28,49.314 L 33.195,45.656 L 33.423,44.741 L 39.597,46.799 L 38.682,49.771 L 42.569,51.143 L 50.572,53.658 L 51.486,50.457 L 56.516,52.058 L 57.66,47.942 L 58.574,45.656 L 59.031,43.598 L 60.175,40.168 L 61.089,40.168 L 59.717,44.97 L 59.031,47.256 L 58.803,48.171 L 66.805,50.457 L 67.72,50.686 L 66.805,53.887 L 64.747,59.832 L 57.66,57.545 L 51.486,55.487 L 40.969,52.058 Z" fill="rgba(59,130,246,0.25)" fill-rule="evenodd" stroke="rgba(59,130,246,0.9)" stroke-width="0.3" stroke-linejoin="round"/>
</svg>
