<svg xmlns="http://www.w3.org/2000/svg" width="100%" height="100%" viewBox="0 0 100 100" preserveAspectRatio="none">
  <path d="M 57.088,54.116 L 56.173,56.631 L 55.259,59.374 L 55.03,60.289 L 54.801,61.661 L 55.03,67.605 L 55.487,72.178 L 52.515,71.95 L 49.543,71.721 L 46.57,71.492 L 42.912,71.264 L 39.94,71.035 L 37.653,71.035 L 36.967,71.035 L 35.824,71.492 L 35.824,70.349 L 35.824,69.663 L 35.596,68.52 L 36.053,68.52 L 39.254,59.832 L 39.482,59.832 L 40.168,57.545 L 40.854,55.716 L 41.998,52.286 L 43.141,49.314 L 44.055,46.57 L 45.199,43.598 L 46.57,39.254 L 47.028,38.339 L 47.485,37.196 L 47.485,36.739 L 48.171,35.138 L 48.857,32.852 L 49.771,30.565 L 49.771,30.337 L 50.457,28.279 L 50.457,28.279 L 50.686,27.822 L 52.286,28.508 L 54.116,28.965 L 54.344,28.965 L 57.774,30.337 L 61.661,31.709 L 61.889,31.709 L 64.404,32.623 L 60.975,42.455 L 60.975,42.912 L 59.146,48.4 L 57.088,54.116 Z" fill="rgba(59,130,246,0.25)" fill-rule="evenodd" stroke="rgba(59,130,246,0.9)" stroke-width="0.3" stroke-linejoin="round"/>
</svg>
