<svg xmlns="http://www.w3.org/2000/svg" width="100%" height="100%" viewBox="0 0 100 100" preserveAspectRatio="none">
  <path d="M 70.006,47.028 L 70.006,47.028 L 69.549,48.171 L 69.549,48.171 L 67.034,54.116 L 67.034,54.116 L 63.376,62.575 L 63.376,62.575 L 58.345,74.007 L 57.888,75.151 L 51.258,72.178 L 41.883,68.291 L 41.883,68.291 L 34.567,65.09 L 27.25,61.889 L 26.335,61.432 L 26.564,60.289 L 28.622,55.487 L 28.622,55.487 L 29.765,52.744 L 29.765,52.744 L 32.737,46.113 L 32.737,45.884 L 35.253,40.168 L 38.454,32.852 L 38.682,32.395 L 41.197,26.678 L 41.883,24.849 L 41.883,24.849 L 42.112,24.849 L 48.742,27.593 L 48.742,27.593 L 57.66,31.48 L 57.66,31.48 L 64.747,34.681 L 73.665,38.339 L 70.006,47.028 Z" fill="rgba(59,130,246,0.25)" fill-rule="evenodd" stroke="rgba(59,130,246,0.9)" stroke-width="0.3" stroke-linejoin="round"/>
</svg>
