<svg xmlns="http://www.w3.org/2000/svg" width="100%" height="100%" viewBox="0 0 100 100" preserveAspectRatio="none">
  <path d="M 34.795,65.662 L 34.795,65.662 L 35.481,64.29 L 38.454,57.431 L 38.454,57.431 L 42.112,49.657 L 44.398,44.17 L 44.398,44.17 L 45.77,40.969 L 45.77,40.969 L 46.456,39.597 L 46.456,39.597 L 48.514,34.567 L 48.514,34.567 L 51.486,28.165 L 60.175,32.052 L 62.918,33.195 L 63.833,33.652 L 65.205,34.109 L 64.976,34.338 L 64.062,36.396 L 61.546,42.112 L 60.632,44.17 L 59.26,47.371 L 59.031,47.828 L 57.888,50.343 L 55.144,56.745 L 54.687,57.431 L 53.544,60.175 L 52.172,63.147 L 51.029,66.119 L 50.114,68.177 L 48.514,71.835 L 47.142,71.378 L 42.798,69.32 L 34.795,65.662 Z" fill="rgba(59,130,246,0.25)" fill-rule="evenodd" stroke="rgba(59,130,246,0.9)" stroke-width="0.3" stroke-linejoin="round"/>
</svg>
