<svg xmlns="http://www.w3.org/2000/svg" width="100%" height="100%" viewBox="0 0 100 100" preserveAspectRatio="none">
  <path d="M 38.454,39.825 L 39.139,37.768 L 39.139,37.768 L 49.428,41.655 L 64.519,47.371 L 66.348,47.828 L 66.348,47.828 L 65.433,49.886 L 64.062,54.001 L 62.232,58.574 L 62.232,58.574 L 61.318,60.861 L 60.861,62.232 L 60.861,62.232 L 59.489,61.775 L 51.258,58.574 L 50.114,58.117 L 48.285,57.431 L 47.828,57.202 L 46.227,56.516 L 43.026,55.373 L 43.026,55.144 L 42.34,54.916 L 40.74,54.459 L 37.539,53.087 L 35.253,52.172 L 33.881,51.715 L 33.652,51.715 L 33.881,51.715 L 34.567,49.657 L 35.253,48.057 L 35.253,47.828 L 37.082,43.255 L 37.31,42.798 L 37.539,42.34 L 38.454,39.825 Z" fill="rgba(59,130,246,0.25)" fill-rule="evenodd" stroke="rgba(59,130,246,0.9)" stroke-width="0.3" stroke-linejoin="round"/>
</svg>
