<svg xmlns="http://www.w3.org/2000/svg" width="100%" height="100%" viewBox="0 0 100 100" preserveAspectRatio="none">
  <path d="M 50.915,31.023 L 51.143,31.023 L 52.972,31.937 L 53.201,31.937 L 54.573,32.623 L 54.801,32.623 L 58.002,34.224 L 63.49,36.51 L 62.347,38.797 L 61.661,40.626 L 60.289,43.827 L 59.374,45.884 L 59.146,46.342 L 58.002,49.085 L 57.774,49.543 L 56.402,52.515 L 55.487,54.344 L 54.344,57.088 L 54.344,57.088 L 53.43,58.917 L 50.0,66.462 L 49.085,68.977 L 49.085,68.977 L 49.085,68.977 L 46.799,67.834 L 45.199,67.148 L 45.199,67.148 L 42.455,66.005 L 42.455,66.005 L 39.94,64.862 L 39.94,64.862 L 39.254,64.633 L 37.882,63.947 L 36.51,63.261 L 36.51,63.261 L 40.397,54.344 L 41.769,51.6 L 41.769,51.6 L 41.998,51.143 L 42.226,50.686 L 42.226,50.686 L 42.912,48.857 L 42.912,48.857 L 45.199,43.598 L 45.427,43.598 L 46.342,41.312 L 46.57,40.854 L 50.0,33.309 L 50.915,31.023 Z" fill="rgba(59,130,246,0.25)" fill-rule="evenodd" stroke="rgba(59,130,246,0.9)" stroke-width="0.3" stroke-linejoin="round"/>
</svg>
