<svg xmlns="http://www.w3.org/2000/svg" width="100%" height="100%" viewBox="0 0 100 100" preserveAspectRatio="none">
  <path d="M 55.144,58.688 L 52.858,62.118 L 48.971,68.291 L 48.742,68.52 L 48.742,68.749 L 47.599,68.291 L 46.913,67.834 L 42.112,64.862 L 41.883,64.862 L 41.655,64.633 L 41.655,64.633 L 41.426,64.176 L 39.368,58.231 L 39.139,58.002 L 37.082,52.286 L 37.082,52.286 L 35.481,47.714 L 35.253,47.028 L 35.938,46.799 L 36.396,46.57 L 36.853,46.342 L 40.969,41.998 L 43.026,39.711 L 43.484,39.254 L 44.17,38.111 L 46.456,35.824 L 46.913,35.138 L 50.114,31.937 L 50.343,31.709 L 50.8,31.251 L 51.715,31.937 L 54.687,34.91 L 58.117,37.882 L 58.117,37.882 L 61.546,40.854 L 62.918,42.226 L 63.833,42.912 L 64.747,43.598 L 62.918,46.342 L 58.574,53.201 L 55.83,57.317 L 55.144,58.688 L 55.144,58.688 Z" fill="rgba(59,130,246,0.25)" fill-rule="evenodd" stroke="rgba(59,130,246,0.9)" stroke-width="0.3" stroke-linejoin="round"/>
</svg>
