<svg xmlns="http://www.w3.org/2000/svg" width="100%" height="100%" viewBox="0 0 100 100" preserveAspectRatio="none">
  <path d="M 41.883,56.745 L 40.283,54.459 L 38.454,52.172 L 37.768,51.258 L 35.253,48.285 L 36.167,45.77 L 37.082,43.255 L 39.825,40.74 L 41.655,39.368 L 43.941,37.768 L 45.999,36.624 L 48.742,35.024 L 50.8,33.881 L 51.486,33.652 L 52.629,36.396 L 52.858,37.31 L 54.687,38.225 L 55.373,38.454 L 55.83,40.054 L 56.288,41.655 L 56.974,43.484 L 57.202,44.17 L 57.66,45.313 L 58.345,46.913 L 59.031,48.514 L 59.26,49.2 L 59.489,49.886 L 60.175,51.943 L 60.632,53.544 L 61.089,55.144 L 61.089,55.373 L 61.775,56.974 L 62.232,58.803 L 62.69,59.717 L 63.147,60.861 L 63.376,60.861 L 63.604,62.004 L 64.062,63.604 L 64.747,65.433 L 64.747,65.662 L 64.747,65.891 L 63.833,66.119 L 61.775,66.119 L 60.175,65.433 L 57.66,64.062 L 57.202,63.833 L 54.916,66.348 L 52.172,63.376 L 51.715,62.918 L 49.2,65.433 L 43.941,59.031 L 41.883,56.745 Z" fill="rgba(59,130,246,0.25)" fill-rule="evenodd" stroke="rgba(59,130,246,0.9)" stroke-width="0.3" stroke-linejoin="round"/>
</svg>
