<svg xmlns="http://www.w3.org/2000/svg" width="100%" height="100%" viewBox="0 0 100 100" preserveAspectRatio="none">
  <path d="M 50.114,72.75 L 48.057,65.891 L 48.057,66.119 L 43.712,67.72 L 42.34,63.376 L 42.34,63.147 L 42.34,62.918 L 41.655,61.089 L 41.197,59.489 L 40.969,58.345 L 40.74,58.345 L 40.283,57.202 L 39.825,56.288 L 39.368,54.459 L 38.682,52.858 L 38.682,52.629 L 38.225,51.029 L 37.768,49.428 L 37.082,47.371 L 36.853,46.685 L 36.624,45.999 L 35.938,44.398 L 35.253,42.798 L 34.795,41.655 L 34.567,40.969 L 33.881,39.139 L 33.423,37.539 L 32.966,35.938 L 32.28,35.71 L 30.451,34.795 L 30.222,33.881 L 29.079,31.137 L 30.68,30.451 L 32.052,29.765 L 32.966,29.536 L 33.423,29.308 L 34.567,29.079 L 36.167,28.622 L 37.539,28.622 L 41.655,28.165 L 44.856,27.707 L 51.486,27.021 L 52.858,26.564 L 53.315,27.707 L 56.288,39.139 L 56.974,41.883 L 58.345,45.084 L 63.604,52.858 L 64.976,55.602 L 70.692,66.119 L 70.921,67.948 L 70.921,70.006 L 64.976,72.521 L 57.66,73.436 L 50.114,72.75 Z" fill="rgba(59,130,246,0.25)" fill-rule="evenodd" stroke="rgba(59,130,246,0.9)" stroke-width="0.3" stroke-linejoin="round"/>
</svg>
