<svg xmlns="http://www.w3.org/2000/svg" width="100%" height="100%" viewBox="0 0 100 100" preserveAspectRatio="none">
  <path d="M 62.061,14.246 L 62.061,14.532 L 62.004,14.818 L 61.947,15.161 L 61.947,15.275 L 61.832,16.99 L 60.975,19.219 L 60.861,19.733 L 60.861,20.648 L 60.803,21.048 L 60.803,21.391 L 60.746,21.448 L 60.975,21.448 L 58.917,30.88 L 53.773,49.514 L 44.684,74.951 L 40.626,85.24 L 39.54,87.869 L 38.797,89.069 L 37.139,88.383 L 37.482,87.526 L 37.939,87.24 L 38.111,87.183 L 38.282,87.24 L 38.511,86.783 L 38.682,86.326 L 38.854,86.211 L 38.968,85.868 L 39.139,85.354 L 39.139,85.297 L 39.883,83.353 L 40.111,81.581 L 40.054,80.781 L 39.94,79.409 L 40.168,78.094 L 39.54,78.037 L 39.482,77.923 L 39.368,77.866 L 39.368,77.809 L 38.739,77.751 L 38.282,77.751 L 38.111,77.809 L 36.91,78.037 L 36.91,78.152 L 36.453,78.152 L 37.367,77.294 L 38.168,76.551 L 40.226,74.779 L 40.34,74.779 L 40.511,74.779 L 40.626,74.779 L 40.854,74.779 L 41.14,74.722 L 41.483,74.608 L 41.655,74.493 L 41.998,74.379 L 42.055,74.322 L 42.169,74.322 L 42.226,74.208 L 42.34,74.093 L 42.455,73.979 L 42.512,73.865 L 43.141,72.207 L 43.369,71.521 L 45.141,67.005 L 45.999,64.547 L 46.913,62.089 L 47.885,59.517 L 48.857,57.002 L 48.228,56.716 L 47.542,56.431 L 47.485,56.373 L 47.428,56.259 L 47.028,54.773 L 47.028,54.773 L 46.97,54.601 L 46.913,54.544 L 46.856,54.487 L 46.742,54.43 L 46.57,54.43 L 45.656,54.544 L 44.513,54.659 L 44.398,54.659 L 44.284,54.659 L 44.055,54.716 L 43.941,54.716 L 43.884,54.773 L 43.827,54.83 L 43.198,55.459 L 43.084,55.573 L 43.026,55.63 L 42.855,55.745 L 42.741,55.859 L 42.683,55.916 L 42.683,56.03 L 42.683,56.088 L 42.798,56.431 L 42.626,56.488 L 42.512,56.545 L 40.511,55.859 L 40.683,55.459 L 41.14,54.887 L 41.597,54.316 L 41.883,53.858 L 43.141,52.829 L 44.455,52.372 L 44.627,52.315 L 45.599,52.086 L 47.714,51.743 L 48.685,51.286 L 49.771,50.429 L 50.229,49.914 L 50.514,49.514 L 50.572,49.343 L 51.029,48.371 L 51.543,46.942 L 52.001,45.57 L 52.115,45.056 L 52.229,44.255 L 52.286,43.455 L 52.401,41.683 L 52.458,41.054 L 52.629,40.311 L 52.972,39.34 L 53.315,38.539 L 53.658,37.853 L 53.83,37.51 L 54.116,36.824 L 54.173,36.653 L 54.401,36.139 L 54.801,35.338 L 55.259,34.252 L 55.487,33.795 L 55.716,33.223 L 55.773,32.938 L 55.888,32.48 L 55.888,31.966 L 55.659,30.194 L 55.545,29.679 L 55.43,29.451 L 55.259,29.165 L 55.03,28.879 L 54.516,28.136 L 54.23,27.793 L 54.058,27.507 L 53.887,27.279 L 53.658,26.879 L 53.487,26.478 L 53.315,25.964 L 53.258,25.735 L 53.258,25.45 L 53.258,25.107 L 53.43,24.649 L 53.487,24.306 L 53.715,23.506 L 53.83,23.22 L 53.944,22.877 L 54.058,22.534 L 54.459,22.02 L 54.859,21.563 L 55.259,21.22 L 55.83,20.648 L 56.231,20.305 L 56.402,20.134 L 56.745,19.791 L 57.031,19.562 L 57.374,19.276 L 57.66,18.99 L 57.945,18.705 L 58.231,18.476 L 58.46,18.247 L 58.631,18.019 L 59.317,17.333 L 59.603,17.047 L 60.06,16.59 L 60.346,16.247 L 60.46,16.018 L 60.861,15.389 L 61.032,15.046 L 63.09,10.931 L 63.09,10.931 L 63.147,10.931 L 63.204,10.988 L 63.49,11.217 L 63.547,11.331 L 62.633,13.217 L 62.061,14.246 Z" fill="rgba(59,130,246,0.25)" fill-rule="evenodd" stroke="rgba(59,130,246,0.9)" stroke-width="0.3" stroke-linejoin="round"/>
</svg>
