<svg xmlns="http://www.w3.org/2000/svg" width="100%" height="100%" viewBox="0 0 100 100" preserveAspectRatio="none">
  <path d="M 60.06,69.778 L 56.859,65.433 L 45.199,48.285 L 43.141,45.084 L 42.455,42.569 L 41.998,40.511 L 41.54,37.082 L 41.312,35.71 L 36.51,33.881 L 38.111,30.222 L 38.339,29.994 L 38.797,28.851 L 44.055,30.68 L 45.656,31.137 L 46.57,31.594 L 55.03,34.338 L 56.402,34.795 L 56.402,35.024 L 56.631,36.853 L 57.317,46.227 L 58.002,53.087 L 58.002,53.315 L 58.46,56.288 L 58.688,57.431 L 59.832,57.66 L 60.518,57.66 L 62.118,63.604 L 63.49,69.549 L 63.49,69.549 L 62.804,70.006 L 60.975,71.149 L 60.06,69.778 Z" fill="rgba(59,130,246,0.25)" fill-rule="evenodd" stroke="rgba(59,130,246,0.9)" stroke-width="0.3" stroke-linejoin="round"/>
</svg>
