<svg xmlns="http://www.w3.org/2000/svg" width="100%" height="100%" viewBox="0 0 100 100" preserveAspectRatio="none">
  <path d="M 60.06,62.804 L 55.03,60.518 L 54.344,60.06 L 53.658,59.603 L 50.686,58.231 L 48.857,57.317 L 47.028,56.402 L 44.97,55.487 L 44.284,55.03 L 33.766,49.771 L 34.452,48.628 L 35.824,45.884 L 35.824,45.656 L 37.882,41.54 L 39.94,37.196 L 41.769,38.111 L 45.199,39.711 L 49.085,41.769 L 53.201,43.827 L 53.658,44.055 L 55.945,45.199 L 58.231,46.342 L 64.633,49.314 L 66.234,50.229 L 66.234,50.229 L 65.09,52.515 L 63.719,55.487 L 62.118,58.688 L 60.975,61.203 L 60.06,62.804 Z" fill="rgba(59,130,246,0.25)" fill-rule="evenodd" stroke="rgba(59,130,246,0.9)" stroke-width="0.3" stroke-linejoin="round"/>
</svg>
