<svg xmlns="http://www.w3.org/2000/svg" width="100%" height="100%" viewBox="0 0 100 100" preserveAspectRatio="none">
  <path d="M 70.464,47.371 L 67.948,50.343 L 65.205,53.087 L 64.747,53.773 L 64.062,54.459 L 60.403,58.345 L 59.946,59.031 L 59.717,59.489 L 57.66,65.433 L 55.144,71.835 L 54.459,73.893 L 54.459,73.893 L 52.401,73.207 L 43.255,69.549 L 43.255,69.549 L 42.798,69.32 L 37.31,67.263 L 30.908,64.976 L 30.451,64.747 L 29.536,64.519 L 27.479,63.604 L 21.305,61.318 L 17.19,59.717 L 17.19,59.717 L 17.19,59.717 L 18.79,56.059 L 19.934,53.087 L 20.619,51.029 L 21.763,48.057 L 22.22,47.142 L 22.449,46.456 L 22.677,45.999 L 23.134,45.313 L 23.592,44.627 L 24.049,44.17 L 26.107,42.34 L 28.393,40.283 L 30.222,38.454 L 30.908,37.768 L 32.966,35.938 L 35.481,33.652 L 36.396,32.737 L 37.539,31.594 L 38.911,30.222 L 39.597,29.765 L 40.74,28.622 L 41.197,28.165 L 41.426,27.936 L 42.112,27.479 L 48.514,32.966 L 49.428,33.881 L 50.114,34.567 L 58.803,42.798 L 59.26,43.255 L 59.717,43.026 L 62.232,40.054 L 66.119,35.71 L 68.406,33.423 L 69.549,32.052 L 71.149,30.451 L 73.436,27.936 L 74.35,26.793 L 75.036,26.107 L 82.81,33.423 L 81.896,34.338 L 77.551,39.597 L 75.494,41.655 L 71.607,45.999 L 70.464,47.371 Z" fill="rgba(59,130,246,0.25)" fill-rule="evenodd" stroke="rgba(59,130,246,0.9)" stroke-width="0.3" stroke-linejoin="round"/>
</svg>
