<svg xmlns="http://www.w3.org/2000/svg" width="100%" height="100%" viewBox="0 0 100 100" preserveAspectRatio="none">
  <path d="M 60.146,73.607 L 51.229,69.263 L 46.656,66.977 L 45.57,66.519 L 43.97,65.776 L 43.341,65.491 L 40.254,64.233 L 37.911,63.318 L 36.596,62.804 L 35.395,62.347 L 34.995,62.175 L 34.424,61.947 L 31.737,60.861 L 29.965,60.175 L 27.793,59.317 L 27.793,59.26 L 26.707,58.86 L 23.62,57.602 L 23.449,57.545 L 23.506,57.545 L 23.506,57.545 L 27.107,49.371 L 30.651,41.369 L 31.394,39.768 L 31.851,38.739 L 32.08,38.225 L 34.195,33.538 L 35.167,31.366 L 37.911,25.307 L 38.997,25.592 L 62.032,33.195 L 76.551,37.425 L 76.551,37.425 L 76.551,37.425 L 62.318,74.693 L 60.146,73.607 Z" fill="rgba(59,130,246,0.25)" fill-rule="evenodd" stroke="rgba(59,130,246,0.9)" stroke-width="0.3" stroke-linejoin="round"/>
</svg>
