<svg xmlns="http://www.w3.org/2000/svg" width="100%" height="100%" viewBox="0 0 100 100" preserveAspectRatio="none">
  <path d="M 20.962,42.683 L 22.106,41.998 L 24.621,40.626 L 28.508,37.882 L 30.108,36.967 L 33.538,34.91 L 34.681,33.995 L 37.425,33.538 L 41.083,32.623 L 44.513,31.709 L 47.942,31.023 L 49.771,30.108 L 52.515,30.565 L 54.344,30.794 L 55.487,30.337 L 58.231,30.108 L 59.832,28.965 L 61.889,27.593 L 62.118,27.593 L 63.947,26.678 L 65.09,26.221 L 68.977,25.535 L 71.492,25.078 L 73.779,24.392 L 74.922,23.935 L 78.809,22.563 L 92.985,36.281 L 82.925,47.028 L 79.952,50.0 L 74.922,55.259 L 54.116,77.437 L 48.857,77.437 L 30.565,60.289 L 24.163,54.573 L 23.706,52.058 L 21.877,50.457 L 20.962,49.543 L 17.99,47.714 L 17.533,47.485 L 7.015,37.653 L 7.244,37.196 L 20.505,42.683 L 20.734,42.912 L 20.962,42.683 L 20.962,42.683 Z" fill="rgba(59,130,246,0.25)" fill-rule="evenodd" stroke="rgba(59,130,246,0.9)" stroke-width="0.3" stroke-linejoin="round"/>
</svg>
