<svg xmlns="http://www.w3.org/2000/svg" width="100%" height="100%" viewBox="0 0 100 100" preserveAspectRatio="none">
  <path d="M 61.432,60.06 L 59.832,61.661 L 56.859,64.862 L 56.173,65.776 L 55.259,66.691 L 51.6,63.49 L 51.6,63.49 L 50.686,62.575 L 50.457,62.347 L 47.485,59.832 L 43.369,55.945 L 40.854,53.658 L 38.111,51.372 L 35.138,48.628 L 40.168,43.141 L 43.141,39.711 L 43.598,39.254 L 44.741,37.882 L 48.857,33.309 L 49.771,33.995 L 50.0,34.224 L 51.6,35.824 L 52.058,36.053 L 53.201,37.196 L 54.116,38.111 L 55.03,38.797 L 56.859,40.397 L 57.774,41.312 L 58.688,42.226 L 58.688,42.226 L 59.832,43.141 L 61.889,44.97 L 63.49,46.57 L 64.176,46.57 L 64.404,49.771 L 64.633,51.829 L 64.633,53.201 L 64.404,53.658 L 63.49,55.03 L 63.719,55.259 L 64.862,56.173 L 63.719,57.317 L 61.432,59.832 L 61.432,60.06 Z M 52.058,54.573 L 50.686,56.402 L 47.485,59.832 L 52.058,54.573 Z M 43.827,50.229 L 46.799,46.799 L 40.854,53.658 L 43.827,50.229 Z" fill="rgba(59,130,246,0.25)" fill-rule="evenodd" stroke="rgba(59,130,246,0.9)" stroke-width="0.3" stroke-linejoin="round"/>
</svg>
