<svg xmlns="http://www.w3.org/2000/svg" width="100%" height="100%" viewBox="0 0 100 100" preserveAspectRatio="none">
  <path d="M 64.062,42.226 L 60.403,52.058 L 59.946,52.744 L 57.66,58.917 L 56.059,63.033 L 55.144,65.776 L 53.773,65.319 L 38.225,61.661 L 35.024,60.746 L 35.024,60.746 L 35.253,60.06 L 36.853,53.43 L 38.225,47.256 L 39.825,41.54 L 40.969,36.51 L 41.426,34.224 L 43.026,34.681 L 47.142,35.596 L 48.514,35.824 L 48.742,36.053 L 49.2,36.053 L 51.943,36.739 L 54.23,37.196 L 55.144,37.425 L 55.83,37.653 L 56.288,37.882 L 60.175,38.568 L 62.69,39.254 L 63.376,39.482 L 64.976,39.711 L 64.062,42.226 Z" fill="rgba(59,130,246,0.25)" fill-rule="evenodd" stroke="rgba(59,130,246,0.9)" stroke-width="0.3" stroke-linejoin="round"/>
</svg>
