<svg xmlns="http://www.w3.org/2000/svg" width="100%" height="100%" viewBox="0 0 100 100" preserveAspectRatio="none">
  <path d="M 69.663,50.229 L 69.206,51.372 L 68.977,52.286 L 68.063,54.801 L 66.691,58.46 L 66.005,60.518 L 65.319,62.575 L 65.09,63.261 L 64.176,63.033 L 63.261,62.804 L 61.889,62.575 L 56.402,61.889 L 56.402,61.889 L 54.344,61.661 L 50.0,61.203 L 49.771,61.203 L 45.427,60.746 L 42.683,60.289 L 41.998,60.289 L 37.196,59.603 L 33.766,59.603 L 32.623,59.374 L 32.395,58.231 L 31.937,55.259 L 31.937,55.03 L 31.251,48.171 L 30.565,38.797 L 30.337,36.967 L 30.337,36.739 L 31.937,37.653 L 43.598,41.54 L 46.57,42.455 L 50.0,43.598 L 52.286,44.513 L 53.201,44.741 L 57.774,46.113 L 59.146,46.57 L 66.234,49.085 L 68.977,50.0 L 69.663,50.229 Z" fill="rgba(59,130,246,0.25)" fill-rule="evenodd" stroke="rgba(59,130,246,0.9)" stroke-width="0.3" stroke-linejoin="round"/>
</svg>
