<svg xmlns="http://www.w3.org/2000/svg" width="100%" height="100%" viewBox="0 0 100 100" preserveAspectRatio="none">
  <path d="M 27.479,76.065 L 27.936,75.151 L 28.851,74.693 L 28.622,73.779 L 27.936,70.349 L 30.451,68.977 L 32.052,67.377 L 36.853,62.118 L 36.396,61.432 L 37.768,59.832 L 35.024,56.402 L 36.853,54.116 L 37.31,53.43 L 42.112,47.714 L 44.17,44.741 L 45.313,43.369 L 45.541,43.369 L 45.541,43.369 L 47.371,41.54 L 50.343,39.025 L 52.858,36.739 L 53.773,35.824 L 54.916,33.766 L 54.916,33.766 L 59.946,27.136 L 62.232,25.307 L 62.918,24.849 L 63.604,24.621 L 70.464,21.877 L 70.464,21.877 L 71.378,24.163 L 72.521,27.364 L 67.034,29.651 L 62.004,36.281 L 58.803,40.626 L 56.288,44.055 L 51.029,50.915 L 51.029,50.915 L 32.052,75.837 L 30.222,78.123 L 30.222,78.123 L 27.479,76.065 Z" fill="rgba(59,130,246,0.25)" fill-rule="evenodd" stroke="rgba(59,130,246,0.9)" stroke-width="0.3" stroke-linejoin="round"/>
</svg>
