<svg xmlns="http://www.w3.org/2000/svg" width="100%" height="100%" viewBox="0 0 100 100" preserveAspectRatio="none">
  <path d="M 33.652,49.886 L 37.996,40.054 L 38.454,38.911 L 40.054,38.911 L 41.197,39.139 L 47.599,39.825 L 51.943,40.054 L 52.172,40.283 L 52.401,40.283 L 56.516,40.511 L 56.516,40.511 L 58.345,40.74 L 66.348,44.398 L 66.348,44.398 L 65.891,45.313 L 63.147,51.258 L 62.232,53.544 L 60.861,56.288 L 58.803,61.089 L 58.574,61.089 L 57.202,60.403 L 53.773,59.031 L 51.715,57.888 L 51.258,57.888 L 49.886,57.202 L 45.999,55.373 L 43.712,54.459 L 41.197,53.315 L 40.969,53.087 L 35.71,50.8 L 34.795,50.343 L 33.652,49.886 Z" fill="rgba(59,130,246,0.25)" fill-rule="evenodd" stroke="rgba(59,130,246,0.9)" stroke-width="0.3" stroke-linejoin="round"/>
</svg>
