<svg xmlns="http://www.w3.org/2000/svg" width="100%" height="100%" viewBox="0 0 100 100" preserveAspectRatio="none">
  <path d="M 35.481,50.229 L 35.71,50.229 L 39.368,41.998 L 40.969,38.111 L 40.969,38.111 L 43.712,39.254 L 48.285,41.54 L 48.742,41.769 L 52.401,43.598 L 52.629,43.598 L 54.23,44.513 L 57.431,45.884 L 58.803,46.799 L 62.461,48.628 L 63.376,49.085 L 64.519,49.543 L 63.376,52.058 L 61.775,56.402 L 59.26,61.889 L 57.888,61.432 L 53.315,59.146 L 52.629,58.688 L 50.572,57.774 L 49.657,57.317 L 47.828,56.402 L 45.541,55.259 L 44.398,54.573 L 38.225,51.6 L 35.481,50.229 Z" fill="rgba(59,130,246,0.25)" fill-rule="evenodd" stroke="rgba(59,130,246,0.9)" stroke-width="0.3" stroke-linejoin="round"/>
</svg>
