<svg xmlns="http://www.w3.org/2000/svg" width="100%" height="100%" viewBox="0 0 100 100" preserveAspectRatio="none">
  <path d="M 70.864,38.225 L 71.321,38.454 L 73.036,39.597 L 71.778,40.626 L 72.464,41.426 L 62.175,54.801 L 55.659,61.661 L 55.659,61.775 L 51.886,65.776 L 49.143,68.749 L 46.97,68.52 L 45.256,68.291 L 39.768,67.72 L 38.739,67.72 L 36.339,67.834 L 35.195,67.605 L 33.481,67.377 L 33.252,67.377 L 33.252,67.377 L 33.252,67.377 L 33.252,67.377 L 33.252,67.377 L 33.252,67.377 L 33.252,66.462 L 33.023,66.234 L 33.023,65.891 L 32.109,62.232 L 31.537,60.632 L 30.737,59.717 L 28.565,56.631 L 28.45,56.059 L 28.107,54.801 L 27.993,54.573 L 27.993,54.459 L 29.136,53.201 L 28.908,53.43 L 28.908,52.972 L 28.336,52.172 L 27.765,51.372 L 26.964,52.172 L 28.222,51.029 L 28.793,50.572 L 29.365,50.114 L 30.394,49.657 L 30.623,49.428 L 31.194,49.2 L 31.766,48.857 L 31.88,48.742 L 34.052,47.142 L 35.538,45.999 L 37.253,44.398 L 38.625,42.683 L 39.197,41.883 L 42.169,37.882 L 46.97,31.251 L 54.63,38.454 L 59.889,33.195 L 62.747,34.567 L 65.948,36.167 L 68.234,37.082 L 70.635,38.111 L 70.864,38.225 Z" fill="rgba(59,130,246,0.25)" fill-rule="evenodd" stroke="rgba(59,130,246,0.9)" stroke-width="0.3" stroke-linejoin="round"/>
</svg>
