<svg xmlns="http://www.w3.org/2000/svg" width="100%" height="100%" viewBox="0 0 100 100" preserveAspectRatio="none">
  <path d="M 50.114,67.491 L 48.971,70.006 L 48.971,70.006 L 48.971,70.006 L 48.971,70.006 L 46.456,68.634 L 42.112,66.577 L 36.624,63.833 L 36.167,63.604 L 36.396,62.918 L 36.167,63.604 L 36.167,63.604 L 36.396,62.918 L 36.624,62.69 L 39.825,55.83 L 40.054,55.602 L 40.283,54.916 L 41.655,52.401 L 44.856,45.77 L 45.541,43.941 L 47.599,38.454 L 48.057,37.082 L 48.057,36.853 L 48.285,36.167 L 49.2,34.109 L 49.2,33.881 L 50.572,30.222 L 50.572,29.994 L 52.172,30.908 L 54.459,32.052 L 56.516,33.195 L 57.202,33.423 L 58.574,34.109 L 59.26,34.567 L 61.318,35.481 L 63.833,36.624 L 63.833,36.853 L 63.376,37.31 L 57.431,51.258 L 54.23,58.117 L 53.087,61.089 L 50.114,67.491 Z M 56.059,39.825 L 56.059,39.825 L 56.059,39.825 L 56.059,39.825 L 56.974,37.768 L 56.059,39.825 Z" fill="rgba(59,130,246,0.25)" fill-rule="evenodd" stroke="rgba(59,130,246,0.9)" stroke-width="0.3" stroke-linejoin="round"/>
</svg>
