<svg xmlns="http://www.w3.org/2000/svg" width="100%" height="100%" viewBox="0 0 100 100" preserveAspectRatio="none">
  <path d="M 41.312,26.907 L 47.942,29.879 L 54.344,32.623 L 54.573,32.852 L 60.746,35.367 L 65.548,37.196 L 69.892,38.797 L 70.121,39.025 L 70.349,39.025 L 72.178,39.711 L 74.922,40.854 L 76.294,41.54 L 76.294,41.54 L 75.837,42.226 L 74.922,44.513 L 74.007,46.799 L 73.779,47.485 L 72.407,50.686 L 72.178,51.372 L 72.178,51.372 L 71.721,52.972 L 71.264,54.116 L 70.806,55.03 L 70.578,55.716 L 70.121,56.631 L 69.892,57.545 L 69.663,57.545 L 68.977,59.146 L 67.377,62.575 L 66.234,64.862 L 65.319,66.92 L 64.633,69.206 L 64.404,69.435 L 63.719,71.492 L 62.347,74.465 L 60.06,73.322 L 52.515,69.663 L 46.57,66.005 L 43.827,64.404 L 43.827,64.176 L 34.681,57.545 L 30.108,54.116 L 29.194,53.201 L 23.706,47.485 L 28.279,40.626 L 31.251,35.596 L 31.251,35.596 L 34.91,29.651 L 37.653,25.535 L 41.312,26.907 Z" fill="rgba(59,130,246,0.25)" fill-rule="evenodd" stroke="rgba(59,130,246,0.9)" stroke-width="0.3" stroke-linejoin="round"/>
</svg>
