<svg xmlns="http://www.w3.org/2000/svg" width="100%" height="100%" viewBox="0 0 100 100" preserveAspectRatio="none">
  <path d="M 51.372,31.709 L 51.829,32.395 L 53.43,35.367 L 54.344,36.967 L 55.487,39.025 L 56.631,40.626 L 57.545,42.226 L 57.545,42.455 L 58.46,44.284 L 60.746,47.028 L 63.033,49.771 L 64.404,51.6 L 68.52,56.631 L 69.206,57.545 L 68.749,57.774 L 68.749,58.002 L 65.548,60.746 L 61.889,63.719 L 60.06,65.319 L 59.146,66.005 L 57.774,67.148 L 57.774,67.148 L 57.545,67.377 L 56.631,68.291 L 55.945,67.834 L 55.03,67.605 L 48.4,67.148 L 41.998,66.691 L 41.312,66.691 L 39.94,66.92 L 38.568,67.377 L 37.653,67.834 L 36.967,68.063 L 36.053,64.862 L 34.91,61.889 L 34.91,61.203 L 32.623,54.344 L 31.251,50.229 L 31.023,49.314 L 30.794,48.857 L 30.794,48.857 L 31.48,48.628 L 31.709,48.628 L 33.309,47.028 L 37.653,43.369 L 42.683,39.025 L 42.683,39.025 L 42.912,38.797 L 47.942,34.452 L 50.229,32.395 L 50.915,32.166 L 51.372,31.709 Z" fill="rgba(59,130,246,0.25)" fill-rule="evenodd" stroke="rgba(59,130,246,0.9)" stroke-width="0.3" stroke-linejoin="round"/>
</svg>
