<svg xmlns="http://www.w3.org/2000/svg" width="100%" height="100%" viewBox="0 0 100 100" preserveAspectRatio="none">
  <path d="M 45.313,58.117 L 45.084,57.888 L 40.511,51.486 L 39.597,49.886 L 39.368,49.428 L 39.597,49.428 L 40.74,48.742 L 42.798,47.371 L 42.798,47.371 L 43.712,46.456 L 45.999,44.627 L 49.2,42.34 L 50.114,41.883 L 53.315,39.597 L 54.001,38.911 L 54.459,38.225 L 55.144,38.454 L 55.83,38.682 L 59.946,40.054 L 60.632,40.283 L 55.83,53.773 L 57.202,54.23 L 59.031,54.916 L 56.745,61.775 L 55.373,61.318 L 53.544,60.632 L 51.715,60.175 L 51.715,60.175 L 45.313,58.117 Z" fill="rgba(59,130,246,0.25)" fill-rule="evenodd" stroke="rgba(59,130,246,0.9)" stroke-width="0.3" stroke-linejoin="round"/>
</svg>
