<svg xmlns="http://www.w3.org/2000/svg" width="100%" height="100%" viewBox="0 0 100 100" preserveAspectRatio="none">
  <path d="M 43.026,24.506 L 43.026,24.278 L 44.627,24.278 L 50.114,23.82 L 57.66,23.134 L 61.318,22.906 L 67.948,22.449 L 69.778,22.22 L 74.122,76.18 L 73.207,75.494 L 62.918,76.18 L 58.803,76.637 L 57.888,76.637 L 49.657,77.323 L 47.599,77.323 L 47.142,77.78 L 47.142,76.637 L 46.913,72.979 L 46.913,72.979 L 46.227,65.433 L 45.541,65.433 L 36.624,66.119 L 35.253,66.119 L 34.567,66.119 L 34.338,66.119 L 34.109,65.891 L 33.881,65.662 L 33.652,65.433 L 33.652,64.976 L 32.509,62.461 L 30.222,56.745 L 29.765,55.373 L 27.479,49.657 L 26.793,48.742 L 26.793,48.514 L 26.564,47.828 L 26.564,46.913 L 26.335,43.941 L 25.878,39.825 L 25.878,39.597 L 26.793,39.597 L 32.966,39.139 L 43.484,38.225 L 43.941,38.225 L 43.255,30.222 L 43.026,25.421 L 43.026,24.506 Z" fill="rgba(59,130,246,0.25)" fill-rule="evenodd" stroke="rgba(59,130,246,0.9)" stroke-width="0.3" stroke-linejoin="round"/>
</svg>
