<svg xmlns="http://www.w3.org/2000/svg" width="100%" height="100%" viewBox="0 0 100 100" preserveAspectRatio="none">
  <path d="M 43.827,65.319 L 36.053,58.002 L 36.053,58.002 L 36.967,56.859 L 39.482,53.43 L 39.711,53.201 L 43.598,48.171 L 43.598,47.942 L 43.827,47.714 L 45.199,46.113 L 48.171,42.226 L 48.171,42.226 L 48.628,41.769 L 50.686,39.025 L 51.143,38.339 L 53.201,36.053 L 53.658,35.367 L 53.887,35.138 L 54.344,34.681 L 54.344,34.681 L 55.716,36.053 L 55.945,36.281 L 59.146,39.254 L 59.603,39.482 L 63.947,43.369 L 63.033,44.284 L 60.518,47.256 L 58.917,48.857 L 57.774,50.0 L 57.774,50.229 L 53.658,54.573 L 53.201,55.259 L 52.972,55.487 L 49.543,58.917 L 49.543,59.146 L 49.314,59.374 L 46.57,62.347 L 44.741,64.404 L 43.827,65.319 Z" fill="rgba(59,130,246,0.25)" fill-rule="evenodd" stroke="rgba(59,130,246,0.9)" stroke-width="0.3" stroke-linejoin="round"/>
</svg>
