<svg xmlns="http://www.w3.org/2000/svg" width="100%" height="100%" viewBox="0 0 100 100" preserveAspectRatio="none">
  <path d="M 39.368,52.858 L 39.139,52.629 L 41.197,51.029 L 38.682,47.828 L 43.484,43.941 L 43.484,43.941 L 45.313,42.569 L 45.313,42.569 L 45.313,42.569 L 45.313,42.569 L 47.142,41.197 L 47.142,41.197 L 51.029,37.996 L 53.773,41.655 L 56.745,45.313 L 56.974,45.77 L 60.403,50.114 L 61.318,51.258 L 61.318,51.258 L 60.175,51.943 L 56.974,54.459 L 53.315,57.66 L 53.315,57.66 L 51.258,59.26 L 48.514,61.318 L 47.828,62.004 L 47.371,61.318 L 43.026,56.516 L 39.368,52.858 Z M 50.114,44.856 L 53.087,48.742 L 49.886,44.627 L 50.114,44.856 Z" fill="rgba(59,130,246,0.25)" fill-rule="evenodd" stroke="rgba(59,130,246,0.9)" stroke-width="0.3" stroke-linejoin="round"/>
</svg>
