<svg xmlns="http://www.w3.org/2000/svg" width="100%" height="100%" viewBox="0 0 100 100" preserveAspectRatio="none">
  <path d="M 55.487,69.663 L 45.884,67.605 L 44.513,67.148 L 44.513,67.148 L 44.513,67.148 L 34.681,65.548 L 22.106,63.49 L 22.106,63.49 L 22.106,63.49 L 21.877,63.49 L 21.877,63.49 L 22.334,61.432 L 22.563,60.06 L 22.563,59.832 L 23.249,56.859 L 25.764,42.455 L 25.764,42.455 L 25.993,41.998 L 27.822,42.455 L 28.05,42.455 L 25.764,44.055 L 23.02,58.917 L 25.535,62.118 L 35.824,63.947 L 39.025,64.404 L 41.54,64.176 L 41.769,60.975 L 43.598,55.487 L 43.141,55.259 L 44.055,52.972 L 43.827,52.515 L 45.199,52.058 L 45.656,48.171 L 46.57,42.455 L 44.741,42.683 L 48.171,41.312 L 50.686,40.397 L 50.686,40.397 L 52.286,39.711 L 52.744,39.482 L 54.116,38.568 L 56.173,37.196 L 56.173,37.196 L 57.774,36.053 L 58.46,35.596 L 58.46,35.596 L 61.661,33.538 L 61.661,33.538 L 65.319,31.48 L 65.319,31.48 L 70.806,28.508 L 71.492,28.279 L 72.178,27.822 L 72.636,27.593 L 73.322,28.736 L 76.98,35.138 L 77.437,36.053 L 78.123,37.653 L 78.123,41.54 L 78.123,42.912 L 77.894,46.113 L 77.894,52.515 L 77.666,54.801 L 76.98,55.945 L 71.95,63.49 L 69.663,65.319 L 65.548,68.977 L 64.404,72.407 L 64.404,72.407 L 62.118,71.721 L 62.118,71.721 L 60.975,71.264 L 59.603,71.035 L 59.603,71.035 L 59.146,70.806 L 55.487,69.663 Z" fill="rgba(59,130,246,0.25)" fill-rule="evenodd" stroke="rgba(59,130,246,0.9)" stroke-width="0.3" stroke-linejoin="round"/>
</svg>
