<svg xmlns="http://www.w3.org/2000/svg" width="100%" height="100%" viewBox="0 0 100 100" preserveAspectRatio="none">
  <path d="M 37.996,53.773 L 37.768,53.773 L 35.938,53.544 L 35.71,53.315 L 34.795,53.087 L 30.222,52.172 L 30.451,51.258 L 30.908,49.428 L 31.823,45.77 L 32.28,43.712 L 32.737,41.883 L 33.423,39.139 L 33.881,39.368 L 33.881,39.368 L 35.253,39.597 L 36.396,40.054 L 36.396,40.054 L 38.682,40.74 L 38.682,40.74 L 40.283,41.197 L 40.283,41.197 L 41.883,41.655 L 44.856,42.34 L 63.833,48.742 L 69.092,50.572 L 69.778,50.8 L 67.72,53.773 L 65.433,60.861 L 61.775,59.946 L 54.459,57.888 L 53.087,57.66 L 48.285,56.516 L 37.996,53.773 Z" fill="rgba(59,130,246,0.25)" fill-rule="evenodd" stroke="rgba(59,130,246,0.9)" stroke-width="0.3" stroke-linejoin="round"/>
</svg>
