<svg xmlns="http://www.w3.org/2000/svg" width="100%" height="100%" viewBox="0 0 100 100" preserveAspectRatio="none">
  <path d="M 31.137,35.596 L 35.024,36.967 L 35.71,36.281 L 37.539,35.596 L 42.112,34.452 L 45.084,33.538 L 45.313,33.995 L 46.227,35.596 L 50.8,41.998 L 51.029,42.226 L 57.431,44.284 L 59.26,44.741 L 61.089,45.427 L 73.436,50.0 L 70.006,59.374 L 68.634,58.231 L 67.034,60.518 L 64.29,63.947 L 64.062,63.719 L 61.546,66.462 L 45.541,61.203 L 45.77,60.746 L 45.313,60.518 L 43.712,58.917 L 42.112,57.774 L 40.74,56.402 L 40.054,57.088 L 38.225,58.46 L 35.024,55.259 L 33.423,53.658 L 32.052,52.286 L 30.68,50.457 L 33.652,46.57 L 34.109,46.113 L 32.966,44.741 L 31.594,43.141 L 30.68,42.226 L 28.851,39.254 L 30.222,38.111 L 26.564,36.967 L 31.137,35.596 Z" fill="rgba(59,130,246,0.25)" fill-rule="evenodd" stroke="rgba(59,130,246,0.9)" stroke-width="0.3" stroke-linejoin="round"/>
</svg>
