<svg xmlns="http://www.w3.org/2000/svg" width="100%" height="100%" viewBox="0 0 100 100" preserveAspectRatio="none">
  <path d="M 50.343,60.289 L 49.886,65.319 L 45.313,62.118 L 43.255,59.603 L 43.941,54.116 L 43.941,53.887 L 45.084,47.714 L 45.084,46.113 L 45.541,44.284 L 46.456,39.254 L 47.142,37.882 L 47.599,34.681 L 51.029,35.138 L 52.629,35.138 L 53.315,35.367 L 53.773,35.596 L 54.23,35.824 L 54.459,36.053 L 54.687,36.281 L 54.916,36.51 L 55.373,36.739 L 55.602,37.196 L 56.059,37.653 L 56.288,38.111 L 56.516,38.797 L 56.745,40.854 L 56.288,44.513 L 54.001,58.688 L 51.715,57.545 L 51.715,58.688 L 50.343,60.289 Z" fill="rgba(59,130,246,0.25)" fill-rule="evenodd" stroke="rgba(59,130,246,0.9)" stroke-width="0.3" stroke-linejoin="round"/>
</svg>
