<svg xmlns="http://www.w3.org/2000/svg" width="100%" height="100%" viewBox="0 0 100 100" preserveAspectRatio="none">
  <path d="M 37.31,41.54 L 38.682,42.226 L 40.054,42.683 L 40.969,43.141 L 43.026,44.055 L 43.026,44.284 L 46.685,44.284 L 47.828,44.284 L 48.285,44.284 L 48.742,44.055 L 49.2,43.827 L 51.943,42.455 L 54.23,40.854 L 54.23,40.854 L 55.83,39.711 L 56.516,39.025 L 57.431,38.568 L 58.345,38.339 L 59.26,38.111 L 59.26,38.111 L 61.318,37.882 L 61.546,37.882 L 66.119,37.653 L 66.805,37.653 L 68.634,37.653 L 68.634,38.568 L 68.863,43.827 L 69.092,53.43 L 69.092,53.887 L 69.32,59.374 L 64.062,60.975 L 60.175,62.118 L 59.26,62.347 L 58.574,62.118 L 58.574,62.118 L 50.572,58.46 L 48.742,58.231 L 48.742,58.231 L 44.627,58.002 L 44.398,58.002 L 44.17,57.774 L 39.825,57.545 L 33.423,56.859 L 32.28,56.631 L 30.68,56.631 L 30.908,56.402 L 34.567,48.171 L 35.481,45.884 L 37.082,41.998 L 37.31,41.54 Z" fill="rgba(59,130,246,0.25)" fill-rule="evenodd" stroke="rgba(59,130,246,0.9)" stroke-width="0.3" stroke-linejoin="round"/>
</svg>
