<svg xmlns="http://www.w3.org/2000/svg" width="100%" height="100%" viewBox="0 0 100 100" preserveAspectRatio="none">
  <path d="M 55.83,56.516 L 45.999,54.23 L 44.17,53.773 L 41.655,63.147 L 34.795,59.946 L 32.052,58.803 L 30.908,58.345 L 30.908,58.345 L 31.137,58.117 L 31.366,57.66 L 31.594,56.745 L 34.567,49.428 L 34.567,49.428 L 36.853,43.484 L 39.368,36.853 L 40.969,37.31 L 41.655,37.31 L 48.285,39.139 L 48.514,39.139 L 55.144,40.74 L 55.373,40.74 L 61.775,42.34 L 65.205,43.255 L 67.491,43.712 L 67.948,43.941 L 68.177,43.941 L 68.634,44.17 L 69.092,45.084 L 64.747,56.974 L 62.461,58.117 L 55.83,56.516 Z M 45.084,50.572 L 44.627,52.172 L 44.17,53.773 L 45.084,50.572 Z M 35.481,51.486 L 34.567,49.657 L 34.567,49.428 L 35.481,51.486 Z" fill="rgba(59,130,246,0.25)" fill-rule="evenodd" stroke="rgba(59,130,246,0.9)" stroke-width="0.3" stroke-linejoin="round"/>
</svg>
