<svg xmlns="http://www.w3.org/2000/svg" width="100%" height="100%" viewBox="0 0 100 100" preserveAspectRatio="none">
  <path d="M 47.485,69.435 L 46.342,68.977 L 45.427,68.52 L 41.769,66.691 L 40.397,65.776 L 37.196,64.404 L 37.653,63.719 L 43.141,51.143 L 45.199,46.342 L 45.427,46.342 L 47.714,40.626 L 47.942,40.626 L 49.085,37.653 L 49.085,37.653 L 50.0,35.824 L 50.0,35.596 L 50.915,33.995 L 52.286,30.565 L 57.088,32.623 L 62.804,35.138 L 62.804,35.138 L 61.661,37.653 L 60.518,40.168 L 60.518,40.168 L 59.832,41.998 L 59.146,43.141 L 58.688,44.513 L 58.688,44.513 L 56.859,48.4 L 54.801,53.201 L 51.372,60.746 L 47.485,69.435 Z" fill="rgba(59,130,246,0.25)" fill-rule="evenodd" stroke="rgba(59,130,246,0.9)" stroke-width="0.3" stroke-linejoin="round"/>
</svg>
