<svg xmlns="http://www.w3.org/2000/svg" width="100%" height="100%" viewBox="0 0 100 100" preserveAspectRatio="none">
  <path d="M 59.603,32.28 L 60.06,32.509 L 60.289,32.966 L 60.518,33.423 L 62.347,37.31 L 64.404,41.883 L 64.404,41.883 L 64.862,42.569 L 65.776,44.627 L 66.691,46.456 L 67.148,47.142 L 67.148,47.599 L 67.148,48.057 L 66.92,48.285 L 62.118,48.971 L 59.603,49.657 L 56.859,50.114 L 52.972,50.8 L 52.286,51.029 L 51.829,51.258 L 51.372,52.172 L 50.229,53.773 L 48.171,56.516 L 47.485,57.888 L 43.827,62.918 L 41.769,65.891 L 39.025,69.549 L 38.797,69.092 L 38.111,67.948 L 37.653,66.805 L 36.967,64.062 L 36.967,64.062 L 36.281,62.004 L 35.824,59.946 L 35.824,59.717 L 35.367,58.345 L 34.452,55.602 L 33.08,52.172 L 32.852,51.258 L 32.852,51.258 L 36.51,47.142 L 40.854,42.569 L 41.769,41.426 L 42.455,40.74 L 44.741,37.996 L 47.714,34.795 L 49.771,32.509 L 50.229,31.823 L 50.457,31.137 L 50.686,30.451 L 51.372,30.451 L 51.6,30.451 L 52.515,30.68 L 52.744,30.68 L 56.402,30.908 L 56.859,30.908 L 58.002,31.366 L 58.46,31.594 L 58.917,31.823 L 59.374,32.052 L 59.603,32.052 L 59.603,32.28 Z" fill="rgba(59,130,246,0.25)" fill-rule="evenodd" stroke="rgba(59,130,246,0.9)" stroke-width="0.3" stroke-linejoin="round"/>
</svg>
