<svg xmlns="http://www.w3.org/2000/svg" width="100%" height="100%" viewBox="0 0 100 100" preserveAspectRatio="none">
  <path d="M 44.97,67.491 L 41.998,59.26 L 41.54,58.345 L 38.797,50.8 L 38.797,50.8 L 36.053,43.255 L 35.824,42.798 L 33.538,36.396 L 33.08,34.795 L 34.452,34.567 L 36.739,34.338 L 39.711,33.652 L 39.94,33.652 L 42.683,33.195 L 42.683,33.195 L 42.912,33.195 L 46.342,32.737 L 46.57,32.509 L 47.028,33.652 L 47.485,35.024 L 48.4,35.481 L 50.229,36.167 L 51.372,37.31 L 52.286,38.225 L 53.43,39.368 L 56.402,41.883 L 57.088,42.34 L 58.917,44.17 L 62.118,47.142 L 66.462,50.8 L 66.92,51.258 L 66.92,51.258 L 61.889,56.745 L 61.889,56.974 L 59.603,59.489 L 57.317,62.232 L 51.372,64.747 L 44.97,67.491 Z" fill="rgba(59,130,246,0.25)" fill-rule="evenodd" stroke="rgba(59,130,246,0.9)" stroke-width="0.3" stroke-linejoin="round"/>
</svg>
