<svg xmlns="http://www.w3.org/2000/svg" width="100%" height="100%" viewBox="0 0 100 100" preserveAspectRatio="none">
  <path d="M 58.002,41.083 L 58.002,41.083 L 58.46,41.083 L 58.46,41.312 L 58.917,41.312 L 59.146,41.312 L 59.374,41.54 L 59.832,41.54 L 59.832,41.54 L 60.289,41.769 L 60.746,41.769 L 60.975,41.769 L 62.347,42.226 L 62.347,42.226 L 61.661,45.656 L 60.746,50.229 L 59.603,55.945 L 58.46,61.889 L 58.46,61.889 L 58.46,61.889 L 58.46,62.118 L 58.46,62.118 L 57.088,61.889 L 57.088,61.889 L 46.57,59.832 L 44.741,59.603 L 39.025,58.46 L 37.653,58.231 L 37.653,58.002 L 37.653,58.002 L 37.653,56.859 L 37.882,51.829 L 38.111,47.485 L 38.111,47.028 L 38.339,43.598 L 38.339,41.312 L 38.568,37.882 L 43.141,38.111 L 50.229,38.797 L 50.686,39.025 L 51.143,39.025 L 51.143,39.025 L 50.915,39.711 L 56.859,40.854 L 57.088,40.854 L 57.088,40.854 L 57.317,40.854 L 57.545,40.854 L 57.545,41.083 L 58.002,41.083 Z" fill="rgba(59,130,246,0.25)" fill-rule="evenodd" stroke="rgba(59,130,246,0.9)" stroke-width="0.3" stroke-linejoin="round"/>
</svg>
