<svg xmlns="http://www.w3.org/2000/svg" width="100%" height="100%" viewBox="0 0 100 100" preserveAspectRatio="none">
  <path d="M 37.082,63.376 L 37.539,62.461 L 39.139,58.803 L 40.283,56.059 L 40.283,56.059 L 42.798,50.572 L 43.026,50.114 L 44.398,46.913 L 45.084,45.541 L 45.084,45.541 L 47.828,39.597 L 47.828,39.597 L 49.886,35.024 L 50.114,34.338 L 51.486,31.594 L 52.858,32.052 L 58.117,34.109 L 61.775,35.481 L 62.461,35.938 L 62.918,35.938 L 62.918,35.938 L 61.775,38.454 L 58.803,44.856 L 56.516,49.886 L 56.288,50.572 L 56.288,50.572 L 54.001,55.602 L 54.001,55.602 L 52.629,58.574 L 51.029,62.461 L 49.2,66.805 L 48.285,68.406 L 46.913,67.72 L 42.569,65.891 L 37.082,63.376 Z" fill="rgba(59,130,246,0.25)" fill-rule="evenodd" stroke="rgba(59,130,246,0.9)" stroke-width="0.3" stroke-linejoin="round"/>
</svg>
