<svg xmlns="http://www.w3.org/2000/svg" width="100%" height="100%" viewBox="0 0 100 100" preserveAspectRatio="none">
  <path d="M 34.395,30.565 L 35.31,31.023 L 36.224,31.366 L 34.852,34.681 L 34.509,35.253 L 33.366,37.996 L 34.509,38.797 L 35.538,39.597 L 37.025,40.626 L 38.511,39.94 L 39.082,38.682 L 39.54,37.768 L 39.883,36.853 L 41.14,34.224 L 40.797,33.423 L 42.512,34.224 L 42.512,34.224 L 49.143,37.082 L 49.257,37.196 L 54.401,39.368 L 57.602,40.74 L 57.717,40.74 L 58.174,40.969 L 61.832,42.569 L 65.491,44.17 L 65.491,44.17 L 70.178,46.113 L 73.036,47.371 L 72.807,47.942 L 73.264,48.057 L 73.264,48.171 L 73.15,48.514 L 72.693,49.428 L 72.007,51.143 L 71.55,52.058 L 71.207,52.744 L 70.406,54.801 L 70.178,55.144 L 69.835,56.059 L 69.263,57.317 L 68.692,58.231 L 68.463,57.774 L 66.977,54.116 L 65.148,49.886 L 64.805,49.657 L 63.776,49.2 L 63.433,49.085 L 63.433,49.085 L 62.061,51.829 L 61.032,53.887 L 60.803,54.459 L 60.346,55.945 L 60.232,55.945 L 60.117,56.402 L 58.746,59.146 L 58.746,59.146 L 58.746,59.374 L 58.631,59.603 L 58.517,60.403 L 58.403,61.318 L 58.174,64.176 L 58.174,64.176 L 57.945,67.034 L 58.06,67.148 L 58.06,67.377 L 58.06,67.948 L 57.945,68.063 L 57.259,68.177 L 57.259,68.177 L 55.659,68.52 L 54.401,68.863 L 50.972,69.892 L 50.171,70.006 L 50.171,70.006 L 49.943,69.778 L 49.829,69.549 L 49.6,69.32 L 45.141,63.947 L 44.341,62.918 L 42.398,60.289 L 41.483,59.146 L 40.568,58.117 L 40.568,58.117 L 38.625,56.059 L 38.168,55.373 L 38.053,55.373 L 38.053,55.373 L 36.453,53.43 L 35.081,51.829 L 35.081,51.829 L 33.938,50.457 L 33.023,49.543 L 32.68,49.2 L 32.109,48.628 L 32.109,48.628 L 31.651,48.171 L 30.394,46.799 L 30.394,46.685 L 29.937,46.227 L 29.594,45.884 L 29.022,45.199 L 28.45,44.513 L 28.222,44.17 L 26.736,43.712 L 26.964,43.026 L 27.079,42.912 L 27.079,42.798 L 30.623,35.024 L 32.909,30.108 L 32.909,29.994 L 34.395,30.565 Z" fill="rgba(59,130,246,0.25)" fill-rule="evenodd" stroke="rgba(59,130,246,0.9)" stroke-width="0.3" stroke-linejoin="round"/>
</svg>
