<svg xmlns="http://www.w3.org/2000/svg" width="100%" height="100%" viewBox="0 0 100 100" preserveAspectRatio="none">
  <path d="M 58.345,40.397 L 58.574,40.854 L 59.717,45.656 L 60.403,48.171 L 61.546,52.515 L 62.461,56.173 L 62.69,57.088 L 63.833,57.545 L 69.092,59.146 L 63.147,59.374 L 62.232,59.603 L 61.775,59.603 L 54.687,59.603 L 52.401,59.603 L 52.401,59.603 L 47.599,59.603 L 46.913,59.603 L 46.913,59.603 L 45.313,59.603 L 45.313,59.603 L 39.597,59.603 L 38.911,59.603 L 38.682,59.603 L 38.225,59.603 L 32.28,59.603 L 30.908,59.603 L 30.908,53.658 L 30.908,50.229 L 30.908,47.942 L 30.908,41.998 L 30.908,41.083 L 30.908,40.397 L 58.345,40.397 Z" fill="rgba(59,130,246,0.25)" fill-rule="evenodd" stroke="rgba(59,130,246,0.9)" stroke-width="0.3" stroke-linejoin="round"/>
</svg>
