<svg xmlns="http://www.w3.org/2000/svg" width="100%" height="100%" viewBox="0 0 100 100" preserveAspectRatio="none">
  <path d="M 34.91,50.114 L 36.053,47.371 L 39.711,39.368 L 40.168,38.454 L 41.312,38.911 L 42.226,39.368 L 47.485,41.655 L 47.714,41.883 L 50.229,43.026 L 52.515,43.941 L 56.402,45.77 L 57.774,46.456 L 58.231,46.456 L 60.289,47.599 L 63.719,48.971 L 65.09,49.657 L 64.862,50.343 L 62.804,55.144 L 60.518,60.175 L 60.289,60.861 L 60.06,61.546 L 59.832,61.546 L 52.972,58.345 L 52.744,58.345 L 52.515,58.117 L 52.515,58.117 L 47.028,55.602 L 42.683,53.773 L 42.226,53.544 L 42.226,53.544 L 39.254,52.172 L 36.053,50.8 L 34.91,50.114 Z" fill="rgba(59,130,246,0.25)" fill-rule="evenodd" stroke="rgba(59,130,246,0.9)" stroke-width="0.3" stroke-linejoin="round"/>
</svg>
