<svg xmlns="http://www.w3.org/2000/svg" width="100%" height="100%" viewBox="0 0 100 100" preserveAspectRatio="none">
  <path d="M 34.567,55.144 L 35.024,54.23 L 36.853,50.343 L 36.853,50.343 L 37.31,51.029 L 43.484,56.059 L 43.484,55.83 L 45.084,57.202 L 48.971,53.544 L 51.258,50.572 L 53.544,47.371 L 53.544,47.371 L 52.401,45.999 L 51.029,44.398 L 53.087,41.655 L 54.687,39.139 L 54.916,38.225 L 44.17,34.567 L 44.17,34.338 L 52.401,37.31 L 52.858,37.539 L 53.544,37.768 L 56.974,38.911 L 56.974,38.911 L 57.66,39.139 L 59.031,39.597 L 59.489,39.825 L 59.946,40.054 L 62.461,40.969 L 65.891,42.34 L 65.433,42.798 L 65.205,43.026 L 64.747,43.712 L 63.604,44.856 L 63.147,45.541 L 61.546,48.057 L 60.861,48.971 L 58.803,52.172 L 58.345,52.858 L 55.373,57.66 L 51.258,64.062 L 50.8,65.205 L 50.572,65.662 L 49.886,65.205 L 48.742,64.519 L 46.913,63.147 L 45.313,62.232 L 44.856,62.004 L 43.026,60.861 L 40.969,59.489 L 39.139,58.345 L 38.911,58.117 L 38.454,57.888 L 37.996,57.66 L 37.31,56.974 L 35.253,55.83 L 35.253,55.83 L 34.567,55.144 L 34.109,54.687 L 34.109,54.687 L 34.109,54.687 L 34.567,55.144 Z" fill="rgba(59,130,246,0.25)" fill-rule="evenodd" stroke="rgba(59,130,246,0.9)" stroke-width="0.3" stroke-linejoin="round"/>
</svg>
