<svg xmlns="http://www.w3.org/2000/svg" width="100%" height="100%" viewBox="0 0 100 100" preserveAspectRatio="none">
  <path d="M 37.882,39.368 L 38.111,39.368 L 48.857,40.511 L 51.143,40.74 L 54.573,41.197 L 57.088,41.426 L 59.832,41.655 L 60.746,41.883 L 60.746,41.883 L 64.862,42.34 L 68.749,42.569 L 68.749,42.569 L 63.261,59.489 L 62.804,60.861 L 62.575,60.861 L 47.942,55.83 L 47.942,55.83 L 47.714,55.83 L 47.714,55.83 L 45.656,55.144 L 45.656,55.144 L 42.455,54.001 L 39.254,52.858 L 39.025,52.858 L 35.367,51.486 L 33.995,51.029 L 31.251,50.114 L 33.538,43.941 L 35.138,39.139 L 37.882,39.368 Z" fill="rgba(59,130,246,0.25)" fill-rule="evenodd" stroke="rgba(59,130,246,0.9)" stroke-width="0.3" stroke-linejoin="round"/>
</svg>
