<svg xmlns="http://www.w3.org/2000/svg" width="100%" height="100%" viewBox="0 0 100 100" preserveAspectRatio="none">
  <path d="M 62.461,76.866 L 62.461,76.866 L 57.431,74.808 L 57.431,74.808 L 46.456,70.006 L 46.456,70.006 L 43.484,68.634 L 41.883,67.948 L 41.883,67.948 L 23.363,59.946 L 23.363,59.946 L 23.82,58.803 L 28.851,47.371 L 28.851,47.371 L 32.509,38.911 L 32.509,38.911 L 35.024,32.966 L 35.024,32.966 L 35.481,31.823 L 35.481,31.823 L 39.139,23.134 L 39.139,23.363 L 43.712,25.192 L 45.084,25.65 L 45.084,25.65 L 45.999,26.107 L 51.715,28.622 L 57.202,30.908 L 57.66,31.137 L 57.66,31.137 L 63.376,33.652 L 65.433,34.567 L 70.692,36.853 L 75.265,38.682 L 76.637,39.368 L 75.951,40.969 L 73.207,48.285 L 73.207,48.285 L 70.464,55.373 L 70.464,55.373 L 69.32,58.574 L 69.32,58.574 L 68.406,61.089 L 67.948,62.004 L 67.948,62.004 L 66.348,66.577 L 66.119,66.577 L 65.662,67.948 L 65.662,67.948 L 64.062,72.293 L 64.062,72.293 L 62.69,75.722 L 62.461,76.866 Z" fill="rgba(59,130,246,0.25)" fill-rule="evenodd" stroke="rgba(59,130,246,0.9)" stroke-width="0.3" stroke-linejoin="round"/>
</svg>
