<svg xmlns="http://www.w3.org/2000/svg" width="100%" height="100%" viewBox="0 0 100 100" preserveAspectRatio="none">
  <path d="M 53.315,43.026 L 71.149,50.572 L 71.149,50.572 L 71.378,50.8 L 71.378,50.8 L 71.607,50.8 L 70.006,54.459 L 67.72,59.946 L 67.72,59.946 L 66.348,63.376 L 65.891,65.205 L 65.891,65.205 L 64.519,64.519 L 59.946,62.69 L 54.687,60.403 L 52.629,59.489 L 46.913,56.974 L 46.913,56.974 L 46.456,56.745 L 40.969,54.459 L 35.253,51.943 L 34.338,51.486 L 34.338,51.486 L 32.966,51.029 L 28.393,49.2 L 28.393,48.971 L 28.393,48.971 L 32.966,38.454 L 34.567,34.795 L 34.567,34.795 L 34.795,34.795 L 34.795,34.795 L 53.087,42.798 L 53.315,42.798 L 53.315,42.798 L 53.315,43.026 Z" fill="rgba(59,130,246,0.25)" fill-rule="evenodd" stroke="rgba(59,130,246,0.9)" stroke-width="0.3" stroke-linejoin="round"/>
</svg>
