<svg xmlns="http://www.w3.org/2000/svg" width="100%" height="100%" viewBox="0 0 100 100" preserveAspectRatio="none">
  <path d="M 47.199,59.946 L 47.542,59.374 L 47.542,59.031 L 49.143,59.717 L 49.257,56.631 L 49.257,56.059 L 49.371,54.344 L 49.371,54.344 L 49.486,52.629 L 49.6,51.029 L 49.6,49.543 L 49.714,48.514 L 49.714,48.514 L 49.714,47.485 L 49.829,45.884 L 49.943,43.827 L 48.685,43.484 L 47.428,43.255 L 46.285,42.912 L 45.942,42.912 L 45.942,42.912 L 44.684,42.569 L 43.427,42.34 L 43.198,42.226 L 43.084,42.226 L 41.94,41.883 L 40.683,41.655 L 40.34,41.54 L 39.197,41.312 L 38.968,41.197 L 38.968,41.197 L 39.311,40.054 L 39.425,39.597 L 39.425,39.597 L 39.768,38.454 L 40.111,37.31 L 40.111,37.31 L 40.226,36.853 L 40.568,35.824 L 40.797,34.795 L 41.369,32.852 L 41.94,30.908 L 42.283,29.651 L 42.855,27.707 L 37.139,25.878 L 38.625,20.391 L 39.082,18.447 L 39.197,18.447 L 39.197,18.447 L 39.197,18.447 L 45.599,20.505 L 45.827,20.505 L 45.827,20.505 L 46.056,20.619 L 46.056,20.619 L 46.056,20.619 L 45.37,22.563 L 44.455,25.421 L 43.884,27.25 L 43.312,29.079 L 42.283,32.395 L 41.483,34.91 L 41.483,35.024 L 41.483,35.367 L 41.597,35.481 L 42.626,35.71 L 42.626,35.71 L 44.227,36.281 L 44.227,36.281 L 45.256,36.51 L 45.256,36.51 L 46.742,36.967 L 46.742,36.967 L 47.999,37.425 L 47.999,37.425 L 49.371,37.882 L 49.371,37.882 L 50.743,38.225 L 50.743,38.225 L 52.001,38.682 L 52.001,38.682 L 53.487,39.139 L 53.487,39.139 L 54.516,39.482 L 54.516,39.482 L 56.231,39.94 L 56.231,39.94 L 57.031,40.168 L 57.031,40.283 L 58.86,40.854 L 58.86,40.854 L 59.66,41.083 L 59.66,41.083 L 61.489,41.54 L 62.861,41.998 L 62.404,43.712 L 60.918,50.0 L 60.803,50.457 L 60.117,53.201 L 60.003,53.887 L 59.66,55.03 L 59.089,57.545 L 58.974,58.117 L 58.86,58.46 L 58.746,58.917 L 58.174,61.432 L 57.374,64.633 L 56.231,69.435 L 55.316,73.093 L 55.202,73.779 L 54.516,76.523 L 53.372,81.21 L 53.258,81.553 L 53.03,81.438 L 56.345,68.063 L 56.345,68.063 L 57.031,64.976 L 57.831,61.889 L 57.145,60.975 L 56.802,60.403 L 55.545,59.946 L 54.287,59.489 L 54.287,59.489 L 53.944,59.374 L 52.915,58.917 L 50.743,58.002 L 49.257,60.861 L 47.199,59.946 Z" fill="rgba(59,130,246,0.25)" fill-rule="evenodd" stroke="rgba(59,130,246,0.9)" stroke-width="0.3" stroke-linejoin="round"/>
</svg>
