<svg xmlns="http://www.w3.org/2000/svg" width="100%" height="100%" viewBox="0 0 100 100" preserveAspectRatio="none">
  <path d="M 64.29,70.806 L 62.918,71.95 L 61.775,72.864 L 59.489,74.236 L 57.431,75.379 L 55.602,76.523 L 53.544,77.894 L 52.858,78.809 L 52.172,79.038 L 52.401,79.495 L 53.315,80.638 L 54.459,81.324 L 54.916,81.781 L 55.144,82.239 L 55.144,82.239 L 52.401,81.324 L 51.486,79.266 L 51.258,78.809 L 50.8,78.352 L 50.343,76.98 L 49.428,75.608 L 47.142,71.492 L 44.856,68.52 L 44.17,67.834 L 43.941,67.377 L 42.569,66.005 L 41.883,65.319 L 40.969,64.404 L 37.996,60.289 L 35.71,56.631 L 35.481,56.402 L 34.338,54.801 L 33.652,53.658 L 31.137,50.915 L 29.994,49.314 L 28.851,47.942 L 27.707,46.57 L 28.165,45.656 L 28.622,44.284 L 29.308,42.912 L 29.994,41.54 L 30.222,40.626 L 33.195,33.766 L 36.396,26.45 L 38.682,21.42 L 39.825,19.133 L 40.283,17.761 L 45.77,20.505 L 47.371,21.191 L 49.428,22.106 L 51.029,23.02 L 52.858,23.935 L 57.66,26.45 L 60.175,27.593 L 65.433,30.108 L 70.235,32.623 L 72.293,33.538 L 71.835,34.91 L 70.235,39.025 L 70.006,39.711 L 70.006,39.711 L 69.32,41.312 L 69.32,41.312 L 68.406,43.827 L 68.177,44.284 L 67.491,45.656 L 64.29,52.058 L 63.833,52.972 L 63.604,53.43 L 63.376,53.887 L 62.461,55.487 L 61.089,58.002 L 59.946,60.289 L 58.803,62.118 L 58.574,62.804 L 58.574,63.49 L 58.574,63.49 L 58.574,63.719 L 59.031,64.404 L 59.717,64.633 L 61.089,65.548 L 61.775,65.776 L 62.69,66.005 L 63.604,66.234 L 64.519,66.462 L 65.433,66.691 L 66.805,67.605 L 67.263,67.834 L 67.034,68.063 L 65.891,69.663 L 65.662,69.892 L 64.29,70.806 Z" fill="rgba(59,130,246,0.25)" fill-rule="evenodd" stroke="rgba(59,130,246,0.9)" stroke-width="0.3" stroke-linejoin="round"/>
</svg>
