<svg xmlns="http://www.w3.org/2000/svg" width="100%" height="100%" viewBox="0 0 100 100" preserveAspectRatio="none">
  <path d="M 56.974,25.078 L 61.775,27.136 L 64.519,28.279 L 64.519,28.508 L 67.263,29.651 L 67.263,29.651 L 68.863,30.565 L 68.634,31.023 L 67.948,32.395 L 66.577,35.367 L 64.519,39.482 L 64.519,39.482 L 62.918,42.912 L 61.546,45.884 L 58.574,52.058 L 58.117,53.201 L 58.117,53.43 L 57.431,55.03 L 55.373,59.374 L 54.459,61.203 L 52.629,65.319 L 52.401,66.005 L 52.401,66.92 L 52.401,69.435 L 46.456,71.721 L 44.398,72.407 L 41.197,79.038 L 40.969,79.724 L 40.74,79.724 L 40.054,79.495 L 35.71,77.666 L 34.567,76.98 L 37.31,71.264 L 41.197,62.118 L 41.655,61.203 L 39.825,60.518 L 38.911,59.832 L 38.225,59.374 L 34.109,57.545 L 31.137,56.173 L 31.137,56.173 L 31.137,55.945 L 33.423,50.686 L 34.109,49.314 L 34.109,49.314 L 34.338,48.857 L 34.567,48.171 L 36.624,43.598 L 36.624,43.598 L 36.624,43.598 L 37.082,42.912 L 39.368,37.653 L 40.054,36.281 L 40.74,34.91 L 40.969,34.452 L 40.969,34.452 L 40.969,34.452 L 47.371,20.505 L 47.371,20.276 L 47.371,20.276 L 47.371,20.276 L 50.114,21.648 L 55.602,24.392 L 56.745,24.849 L 56.974,25.078 Z" fill="rgba(59,130,246,0.25)" fill-rule="evenodd" stroke="rgba(59,130,246,0.9)" stroke-width="0.3" stroke-linejoin="round"/>
</svg>
