<svg xmlns="http://www.w3.org/2000/svg" width="100%" height="100%" viewBox="0 0 100 100" preserveAspectRatio="none">
  <path d="M 64.519,37.539 L 66.119,37.768 L 65.891,39.139 L 65.662,40.283 L 64.976,43.941 L 63.604,50.114 L 63.604,50.572 L 63.604,50.8 L 63.376,51.715 L 62.461,56.974 L 62.232,57.431 L 60.861,64.976 L 56.059,64.062 L 53.315,63.604 L 52.629,63.376 L 52.172,63.376 L 43.712,61.775 L 43.484,61.546 L 42.112,61.318 L 41.655,61.318 L 41.655,61.318 L 40.511,61.089 L 37.768,60.632 L 37.539,60.632 L 36.167,60.175 L 34.795,59.946 L 33.881,59.717 L 35.024,56.516 L 36.396,52.172 L 37.996,47.599 L 37.996,47.599 L 38.454,46.227 L 39.139,44.627 L 40.054,41.426 L 41.426,37.31 L 41.883,35.71 L 42.112,35.024 L 43.712,35.253 L 64.519,37.539 Z" fill="rgba(59,130,246,0.25)" fill-rule="evenodd" stroke="rgba(59,130,246,0.9)" stroke-width="0.3" stroke-linejoin="round"/>
</svg>
