<svg xmlns="http://www.w3.org/2000/svg" width="100%" height="100%" viewBox="0 0 100 100" preserveAspectRatio="none">
  <path d="M 46.113,55.602 L 44.741,54.916 L 43.369,54.23 L 40.397,52.629 L 36.053,50.572 L 34.91,49.886 L 34.91,49.886 L 35.367,48.742 L 39.254,40.054 L 40.397,37.768 L 41.769,38.225 L 41.769,38.454 L 45.427,40.054 L 47.028,40.969 L 49.543,42.112 L 49.543,42.112 L 51.829,43.255 L 54.573,44.627 L 54.573,44.627 L 59.374,46.913 L 59.603,47.142 L 65.09,49.657 L 62.804,54.687 L 59.603,62.004 L 59.603,62.232 L 59.603,62.232 L 54.573,59.717 L 52.744,58.803 L 51.6,58.345 L 48.628,56.745 L 48.171,56.516 L 48.171,56.516 L 45.199,55.144 L 43.598,54.23 L 46.113,55.602 Z" fill="rgba(59,130,246,0.25)" fill-rule="evenodd" stroke="rgba(59,130,246,0.9)" stroke-width="0.3" stroke-linejoin="round"/>
</svg>
