<svg xmlns="http://www.w3.org/2000/svg" width="100%" height="100%" viewBox="0 0 100 100" preserveAspectRatio="none">
  <path d="M 61.889,48.4 L 58.231,52.515 L 57.545,52.972 L 54.116,56.631 L 51.829,59.146 L 48.171,55.945 L 48.171,55.945 L 47.256,55.03 L 43.598,51.6 L 43.598,51.6 L 41.769,50.0 L 40.168,48.628 L 40.168,48.628 L 39.94,48.4 L 38.339,46.799 L 38.111,46.57 L 38.111,46.113 L 37.882,45.656 L 37.425,43.827 L 39.025,43.827 L 40.397,43.598 L 43.141,43.141 L 46.113,42.455 L 46.113,42.455 L 50.686,41.54 L 55.487,41.083 L 58.231,40.854 L 62.347,40.854 L 62.575,40.854 L 62.575,40.854 L 62.347,43.369 L 62.118,45.199 L 61.889,48.4 Z" fill="rgba(59,130,246,0.25)" fill-rule="evenodd" stroke="rgba(59,130,246,0.9)" stroke-width="0.3" stroke-linejoin="round"/>
</svg>
