<svg xmlns="http://www.w3.org/2000/svg" width="100%" height="100%" viewBox="0 0 100 100" preserveAspectRatio="none">
  <path d="M 59.717,58.231 L 59.031,61.661 L 58.117,66.691 L 57.888,67.148 L 57.888,67.148 L 57.888,67.148 L 57.888,67.148 L 57.888,67.377 L 57.888,67.377 L 57.888,67.377 L 56.516,67.834 L 44.627,71.492 L 35.938,74.236 L 35.71,73.322 L 35.71,72.636 L 36.167,71.035 L 36.167,70.806 L 36.624,67.605 L 36.853,67.377 L 37.31,64.176 L 37.539,63.719 L 37.996,60.06 L 37.996,60.06 L 38.225,58.917 L 38.454,58.002 L 38.454,57.774 L 39.368,53.43 L 39.368,52.744 L 39.368,52.744 L 40.054,49.543 L 40.054,49.543 L 41.883,40.168 L 41.883,40.168 L 42.569,36.51 L 43.255,32.852 L 43.255,32.852 L 43.484,31.937 L 43.712,29.422 L 44.398,26.45 L 44.627,25.764 L 50.114,28.279 L 50.343,28.279 L 56.059,30.794 L 56.059,30.794 L 56.288,31.023 L 62.918,33.766 L 64.29,34.224 L 63.833,36.739 L 62.918,41.312 L 62.461,44.055 L 62.232,45.199 L 62.004,46.57 L 61.318,50.229 L 59.946,56.402 L 59.717,58.231 Z" fill="rgba(59,130,246,0.25)" fill-rule="evenodd" stroke="rgba(59,130,246,0.9)" stroke-width="0.3" stroke-linejoin="round"/>
</svg>
