<svg xmlns="http://www.w3.org/2000/svg" width="100%" height="100%" viewBox="0 0 100 100" preserveAspectRatio="none">
  <path d="M 64.976,53.544 L 65.433,56.516 L 65.662,58.574 L 65.662,58.803 L 66.119,62.461 L 65.662,63.376 L 62.232,67.72 L 59.946,65.662 L 56.974,63.147 L 51.943,59.717 L 46.456,56.059 L 33.881,49.428 L 33.881,49.428 L 36.396,44.398 L 38.225,40.74 L 42.34,32.28 L 47.142,34.567 L 48.285,35.024 L 49.657,35.71 L 50.114,35.938 L 57.66,39.825 L 58.574,40.054 L 60.175,40.969 L 60.632,40.969 L 63.376,41.197 L 63.604,42.569 L 64.976,53.544 L 64.976,53.544 Z M 42.34,32.28 L 42.34,32.28 L 48.285,35.253 L 58.574,40.283 L 63.604,42.798 L 63.604,42.798 L 58.574,40.283 L 48.285,35.253 L 42.34,32.28 Z" fill="rgba(59,130,246,0.25)" fill-rule="evenodd" stroke="rgba(59,130,246,0.9)" stroke-width="0.3" stroke-linejoin="round"/>
</svg>
