<svg xmlns="http://www.w3.org/2000/svg" width="100%" height="100%" viewBox="0 0 100 100" preserveAspectRatio="none">
  <path d="M 47.142,55.03 L 47.142,55.03 L 30.68,46.57 L 38.454,50.457 L 47.142,55.03 L 47.142,55.03 L 47.371,55.03 L 47.371,55.03 L 47.371,55.03 L 48.057,53.658 L 55.144,37.882 L 55.144,37.882 L 59.031,39.711 L 59.489,39.711 L 62.69,41.312 L 67.72,43.827 L 69.32,44.741 L 66.348,51.6 L 66.348,51.6 L 64.747,55.259 L 64.062,56.402 L 63.833,56.859 L 63.604,57.545 L 61.546,62.118 L 61.546,62.118 L 54.916,58.688 L 54.916,58.688 L 47.371,55.03 L 47.371,55.03 L 47.142,55.259 L 47.142,55.259 L 47.142,55.03 Z" fill="rgba(59,130,246,0.25)" fill-rule="evenodd" stroke="rgba(59,130,246,0.9)" stroke-width="0.3" stroke-linejoin="round"/>
</svg>
