<svg xmlns="http://www.w3.org/2000/svg" width="100%" height="100%" viewBox="0 0 100 100" preserveAspectRatio="none">
  <path d="M 39.482,61.432 L 39.025,60.518 L 38.111,58.46 L 36.739,55.03 L 36.281,54.116 L 34.224,48.628 L 33.766,47.942 L 33.766,47.714 L 34.681,47.485 L 35.596,47.256 L 37.882,46.342 L 42.455,44.741 L 42.455,44.741 L 50.0,41.998 L 50.0,41.998 L 56.173,39.711 L 60.746,37.882 L 62.118,37.425 L 62.575,37.196 L 63.49,38.339 L 65.776,40.626 L 66.234,41.083 L 66.005,41.54 L 65.776,41.998 L 64.404,44.741 L 58.688,55.716 L 58.688,55.716 L 58.231,55.945 L 57.088,56.402 L 55.716,57.088 L 55.487,57.088 L 51.829,58.46 L 48.171,59.832 L 48.171,59.832 L 46.342,60.518 L 46.113,60.518 L 41.312,62.347 L 40.626,62.575 L 39.94,62.804 L 39.94,62.118 L 39.482,61.432 Z" fill="rgba(59,130,246,0.25)" fill-rule="evenodd" stroke="rgba(59,130,246,0.9)" stroke-width="0.3" stroke-linejoin="round"/>
</svg>
