<svg xmlns="http://www.w3.org/2000/svg" width="100%" height="100%" viewBox="0 0 100 100" preserveAspectRatio="none">
  <path d="M 28.393,42.798 L 30.68,42.569 L 37.082,41.655 L 42.798,40.74 L 44.398,40.511 L 44.627,40.283 L 48.514,39.825 L 50.114,39.368 L 50.114,39.368 L 54.001,38.911 L 54.001,38.682 L 60.861,37.539 L 61.546,37.539 L 67.491,36.396 L 68.406,36.167 L 69.549,36.167 L 74.35,35.253 L 73.893,37.996 L 73.207,39.825 L 71.378,43.941 L 71.149,44.17 L 70.006,46.685 L 70.006,46.685 L 67.72,51.943 L 67.72,51.943 L 65.205,57.431 L 65.205,57.431 L 62.004,64.747 L 60.632,64.062 L 55.83,62.004 L 53.315,60.861 L 53.315,60.861 L 53.087,60.632 L 48.057,58.345 L 45.999,57.66 L 45.999,57.66 L 43.712,56.516 L 41.883,55.602 L 40.511,55.144 L 39.368,54.687 L 37.082,53.544 L 36.853,53.544 L 31.823,51.258 L 31.594,51.029 L 27.479,49.428 L 26.564,48.971 L 25.65,48.514 L 25.65,48.514 L 27.479,44.856 L 28.393,42.798 Z" fill="rgba(59,130,246,0.25)" fill-rule="evenodd" stroke="rgba(59,130,246,0.9)" stroke-width="0.3" stroke-linejoin="round"/>
</svg>
