<svg xmlns="http://www.w3.org/2000/svg" width="100%" height="100%" viewBox="0 0 100 100" preserveAspectRatio="none">
  <path d="M 39.597,32.28 L 39.597,32.28 L 44.17,29.536 L 48.057,27.25 L 48.285,27.021 L 52.629,24.735 L 56.516,22.449 L 60.861,19.705 L 64.29,17.876 L 66.805,21.763 L 73.665,33.423 L 73.665,33.652 L 74.579,35.253 L 73.436,41.883 L 71.607,53.087 L 68.177,74.808 L 68.177,75.494 L 67.491,75.265 L 58.803,73.893 L 54.001,75.722 L 39.139,81.438 L 37.31,82.124 L 37.082,81.438 L 35.024,77.78 L 30.68,70.692 L 26.335,63.376 L 25.878,62.461 L 25.421,61.775 L 26.793,61.089 L 30.68,58.803 L 34.338,56.516 L 38.454,54.23 L 39.597,53.544 L 42.798,51.715 L 43.712,51.029 L 45.084,50.343 L 44.627,49.2 L 44.398,48.971 L 40.74,42.569 L 36.853,35.938 L 35.938,34.338 L 39.597,32.28 Z" fill="rgba(59,130,246,0.25)" fill-rule="evenodd" stroke="rgba(59,130,246,0.9)" stroke-width="0.3" stroke-linejoin="round"/>
</svg>
