<svg xmlns="http://www.w3.org/2000/svg" width="100%" height="100%" viewBox="0 0 100 100" preserveAspectRatio="none">
  <path d="M 62.575,35.596 L 62.575,35.824 L 62.575,35.824 L 62.347,36.281 L 61.889,37.425 L 60.06,41.54 L 56.859,48.628 L 56.859,48.628 L 55.945,50.915 L 54.801,53.43 L 54.801,53.43 L 52.972,57.545 L 52.972,57.545 L 51.372,60.975 L 48.171,68.063 L 47.942,68.52 L 47.714,68.977 L 43.598,67.148 L 43.369,66.92 L 37.425,64.404 L 37.425,64.404 L 37.425,64.176 L 39.025,60.746 L 46.57,64.176 L 47.028,62.804 L 48.171,63.261 L 51.372,56.173 L 50.229,55.487 L 50.686,54.344 L 52.058,51.372 L 54.344,46.113 L 47.028,42.912 L 48.4,39.711 L 49.771,36.281 L 50.0,36.281 L 51.372,33.08 L 51.829,32.166 L 51.829,31.709 L 52.058,31.023 L 52.058,31.023 L 52.058,31.023 L 56.859,33.309 L 57.317,33.309 L 57.317,33.309 L 60.975,34.91 L 62.575,35.596 L 62.575,35.596 Z" fill="rgba(59,130,246,0.25)" fill-rule="evenodd" stroke="rgba(59,130,246,0.9)" stroke-width="0.3" stroke-linejoin="round"/>
</svg>
