<svg xmlns="http://www.w3.org/2000/svg" width="100%" height="100%" viewBox="0 0 100 100" preserveAspectRatio="none">
  <path d="M 35.481,66.119 L 35.481,66.119 L 35.024,65.891 L 32.509,63.604 L 31.366,62.69 L 32.509,61.318 L 35.938,57.431 L 39.825,53.315 L 40.74,52.172 L 41.655,51.258 L 42.34,50.572 L 42.34,50.572 L 44.17,48.285 L 45.999,46.456 L 48.742,43.255 L 49.657,42.34 L 49.657,42.34 L 50.8,41.197 L 52.858,38.911 L 53.087,38.454 L 53.087,38.454 L 54.459,36.853 L 56.059,35.253 L 56.059,35.253 L 56.745,34.567 L 56.974,34.338 L 57.202,33.881 L 58.803,35.024 L 58.803,35.253 L 62.918,38.911 L 63.376,39.139 L 67.491,43.026 L 68.634,44.17 L 67.491,45.313 L 64.29,48.971 L 62.461,51.029 L 62.004,51.029 L 61.318,51.486 L 61.318,51.715 L 58.345,53.315 L 56.745,54.23 L 55.144,55.144 L 51.943,56.974 L 51.258,57.202 L 49.428,58.345 L 47.599,59.26 L 45.77,60.403 L 45.313,60.632 L 42.34,62.232 L 40.054,63.604 L 36.396,65.662 L 36.396,65.662 L 35.481,66.119 Z" fill="rgba(59,130,246,0.25)" fill-rule="evenodd" stroke="rgba(59,130,246,0.9)" stroke-width="0.3" stroke-linejoin="round"/>
</svg>
