<svg xmlns="http://www.w3.org/2000/svg" width="100%" height="100%" viewBox="0 0 100 100" preserveAspectRatio="none">
  <path d="M 58.117,73.55 L 55.144,71.721 L 50.572,69.206 L 43.712,65.319 L 42.569,64.862 L 41.426,64.404 L 41.883,63.719 L 41.883,63.719 L 42.112,63.261 L 42.34,62.804 L 44.398,59.146 L 45.313,57.774 L 45.541,57.088 L 45.77,56.631 L 46.456,54.801 L 46.456,54.801 L 46.456,54.344 L 46.685,53.887 L 46.685,53.201 L 46.456,51.829 L 46.456,50.229 L 45.77,47.942 L 45.77,47.714 L 45.313,46.342 L 43.484,40.854 L 43.255,40.168 L 41.883,36.281 L 41.426,34.91 L 40.054,30.565 L 40.054,29.879 L 40.054,29.879 L 42.34,29.194 L 45.313,28.508 L 52.401,26.45 L 52.629,26.907 L 52.858,27.822 L 54.23,31.937 L 56.516,38.797 L 56.516,39.482 L 57.66,42.455 L 58.574,45.656 L 58.803,46.113 L 58.117,46.57 L 57.431,47.714 L 56.974,48.4 L 56.745,49.085 L 56.516,50.0 L 56.516,50.915 L 56.288,51.372 L 56.516,52.744 L 56.974,55.716 L 58.574,64.176 L 59.031,66.691 L 59.489,69.435 L 59.946,71.95 L 59.946,72.636 L 59.946,73.322 L 59.946,73.322 L 58.117,73.55 Z" fill="rgba(59,130,246,0.25)" fill-rule="evenodd" stroke="rgba(59,130,246,0.9)" stroke-width="0.3" stroke-linejoin="round"/>
</svg>
