<svg xmlns="http://www.w3.org/2000/svg" width="100%" height="100%" viewBox="0 0 100 100" preserveAspectRatio="none">
  <path d="M 61.775,54.459 L 61.546,54.459 L 56.059,56.516 L 54.001,57.202 L 51.943,57.888 L 50.114,58.345 L 50.114,58.345 L 45.77,59.717 L 41.883,60.632 L 41.883,60.632 L 35.253,61.775 L 35.481,60.861 L 35.71,59.489 L 36.624,58.117 L 38.454,55.144 L 38.454,55.144 L 39.597,53.544 L 41.655,50.343 L 41.883,49.657 L 42.798,48.514 L 44.627,45.541 L 44.856,45.084 L 45.313,44.398 L 47.371,41.197 L 48.742,39.368 L 48.971,38.682 L 49.428,38.225 L 51.943,40.511 L 54.001,42.34 L 54.23,42.569 L 54.459,42.798 L 54.916,43.255 L 56.974,45.084 L 59.26,47.142 L 59.26,47.142 L 60.861,48.514 L 62.004,49.657 L 62.69,50.114 L 62.69,50.114 L 63.833,51.486 L 64.062,52.172 L 64.29,52.629 L 64.747,53.315 L 63.833,53.544 L 61.775,54.459 Z" fill="rgba(59,130,246,0.25)" fill-rule="evenodd" stroke="rgba(59,130,246,0.9)" stroke-width="0.3" stroke-linejoin="round"/>
</svg>
