<svg xmlns="http://www.w3.org/2000/svg" width="100%" height="100%" viewBox="0 0 100 100" preserveAspectRatio="none">
  <path d="M 46.57,66.119 L 40.626,67.034 L 33.538,68.406 L 32.166,68.634 L 31.937,68.634 L 31.48,66.577 L 31.251,63.833 L 31.251,63.833 L 30.794,61.775 L 30.337,59.489 L 30.337,59.489 L 30.108,57.66 L 30.108,57.431 L 29.422,54.687 L 28.736,50.114 L 28.736,49.886 L 28.736,48.971 L 29.879,48.514 L 38.568,43.712 L 38.568,43.712 L 48.857,37.996 L 48.857,37.768 L 53.43,35.024 L 54.116,34.795 L 58.46,32.28 L 59.374,31.366 L 59.603,31.366 L 59.603,32.28 L 64.404,38.682 L 67.605,42.798 L 71.264,47.828 L 69.892,48.742 L 46.799,65.891 L 46.799,66.119 L 46.57,66.119 Z" fill="rgba(59,130,246,0.25)" fill-rule="evenodd" stroke="rgba(59,130,246,0.9)" stroke-width="0.3" stroke-linejoin="round"/>
</svg>
