<svg xmlns="http://www.w3.org/2000/svg" width="100%" height="100%" viewBox="0 0 100 100" preserveAspectRatio="none">
  <path d="M 44.284,68.749 L 42.226,52.972 L 41.998,50.457 L 40.854,43.141 L 39.94,35.596 L 39.711,33.309 L 39.711,33.309 L 39.711,33.309 L 42.455,33.08 L 48.857,32.166 L 48.857,32.166 L 55.487,31.251 L 56.402,37.653 L 57.088,43.369 L 57.088,44.513 L 57.088,44.513 L 57.774,49.771 L 57.774,50.0 L 58.46,55.03 L 58.688,55.03 L 59.374,60.746 L 59.832,65.319 L 60.289,66.92 L 60.289,66.92 L 60.289,66.92 L 58.688,66.92 L 55.487,67.377 L 55.487,67.377 L 54.116,67.605 L 50.457,68.063 L 47.485,68.291 L 47.028,68.52 L 44.284,68.749 Z" fill="rgba(59,130,246,0.25)" fill-rule="evenodd" stroke="rgba(59,130,246,0.9)" stroke-width="0.3" stroke-linejoin="round"/>
</svg>
