<svg xmlns="http://www.w3.org/2000/svg" width="100%" height="100%" viewBox="0 0 100 100" preserveAspectRatio="none">
  <path d="M 38.568,86.24 L 37.196,75.951 L 36.967,74.35 L 36.51,71.378 L 36.51,71.378 L 36.51,70.235 L 34.452,54.687 L 33.995,51.258 L 33.309,45.541 L 35.367,61.775 L 36.967,73.893 L 33.309,45.541 L 32.852,41.883 L 32.395,37.539 L 31.937,35.253 L 31.48,31.594 L 31.48,31.366 L 30.337,20.619 L 30.337,20.619 L 30.337,20.391 L 29.651,16.275 L 29.194,13.989 L 31.937,13.989 L 32.395,13.76 L 45.427,18.104 L 45.427,18.104 L 46.113,18.333 L 59.603,23.134 L 60.746,23.592 L 60.746,23.82 L 65.319,24.964 L 63.719,32.509 L 58.688,32.28 L 58.002,35.253 L 57.545,37.31 L 57.088,39.368 L 55.716,45.313 L 58.231,49.428 L 58.688,50.114 L 64.862,58.574 L 66.691,62.232 L 67.605,65.205 L 66.005,62.232 L 68.52,66.805 L 70.578,70.006 L 70.578,72.979 L 70.806,78.695 L 70.806,81.21 L 68.977,81.438 L 64.633,81.896 L 63.719,82.124 L 59.374,82.81 L 55.03,83.496 L 55.03,83.496 L 50.457,84.182 L 47.714,84.639 L 46.57,84.868 L 46.57,84.868 L 46.57,84.868 L 42.455,85.554 L 41.769,85.783 L 41.312,85.783 L 38.568,86.24 Z" fill="rgba(59,130,246,0.25)" fill-rule="evenodd" stroke="rgba(59,130,246,0.9)" stroke-width="0.3" stroke-linejoin="round"/>
</svg>
