<svg xmlns="http://www.w3.org/2000/svg" width="100%" height="100%" viewBox="0 0 100 100" preserveAspectRatio="none">
  <path d="M 64.176,45.541 L 62.347,58.117 L 61.661,58.117 L 60.975,57.888 L 59.146,57.66 L 57.088,57.431 L 54.573,56.974 L 54.344,56.974 L 52.286,56.745 L 49.543,56.516 L 47.942,56.288 L 47.485,56.288 L 47.256,56.059 L 44.284,55.144 L 43.827,54.916 L 40.626,53.773 L 38.111,53.087 L 36.739,52.629 L 36.053,52.629 L 35.824,52.629 L 36.281,51.715 L 36.281,50.572 L 36.739,46.685 L 37.196,43.712 L 37.425,41.883 L 37.425,41.883 L 43.598,42.569 L 43.598,42.569 L 45.884,42.798 L 46.113,42.798 L 49.314,43.255 L 49.314,43.255 L 50.686,43.484 L 51.143,43.484 L 51.143,43.484 L 56.402,44.398 L 56.402,44.398 L 60.746,44.856 L 60.746,44.856 L 64.176,45.541 Z" fill="rgba(59,130,246,0.25)" fill-rule="evenodd" stroke="rgba(59,130,246,0.9)" stroke-width="0.3" stroke-linejoin="round"/>
</svg>
