<svg xmlns="http://www.w3.org/2000/svg" width="100%" height="100%" viewBox="0 0 100 100" preserveAspectRatio="none">
  <path d="M 55.602,66.462 L 45.084,56.859 L 33.652,46.57 L 39.825,39.94 L 43.484,35.824 L 43.712,32.623 L 43.712,33.995 L 43.484,36.053 L 43.484,36.053 L 44.17,36.51 L 47.599,39.711 L 50.8,42.683 L 51.258,43.141 L 51.258,43.141 L 52.629,44.284 L 53.544,44.97 L 55.83,47.028 L 55.83,47.028 L 59.946,50.686 L 59.946,50.686 L 62.461,53.201 L 65.662,55.716 L 65.891,55.945 L 65.891,56.173 L 66.348,56.402 L 66.348,56.631 L 64.519,58.688 L 64.519,58.688 L 60.861,62.575 L 56.745,67.377 L 55.602,66.462 Z" fill="rgba(59,130,246,0.25)" fill-rule="evenodd" stroke="rgba(59,130,246,0.9)" stroke-width="0.3" stroke-linejoin="round"/>
</svg>
