<svg xmlns="http://www.w3.org/2000/svg" width="100%" height="100%" viewBox="0 0 100 100" preserveAspectRatio="none">
  <path d="M 67.72,51.486 L 66.348,52.172 L 64.747,52.858 L 60.861,54.001 L 60.861,54.001 L 54.687,55.83 L 54.687,55.83 L 54.23,55.83 L 54.23,55.83 L 48.057,57.431 L 45.313,58.574 L 45.313,58.574 L 44.17,59.031 L 43.941,59.26 L 42.798,58.345 L 41.883,57.888 L 41.655,57.888 L 38.225,56.288 L 33.881,54.459 L 32.28,54.23 L 33.195,52.858 L 33.881,51.258 L 35.71,48.742 L 36.853,47.142 L 36.853,46.913 L 37.996,45.084 L 39.139,42.569 L 39.825,40.74 L 40.511,40.969 L 41.426,41.197 L 45.541,43.026 L 45.541,43.026 L 51.943,45.541 L 52.172,45.541 L 66.577,51.486 L 67.72,51.486 Z" fill="rgba(59,130,246,0.25)" fill-rule="evenodd" stroke="rgba(59,130,246,0.9)" stroke-width="0.3" stroke-linejoin="round"/>
</svg>
