<svg xmlns="http://www.w3.org/2000/svg" width="100%" height="100%" viewBox="0 0 100 100" preserveAspectRatio="none">
  <path d="M 40.454,82.41 L 39.997,82.41 L 37.482,78.866 L 33.481,72.235 L 34.167,59.089 L 37.253,57.145 L 37.71,54.744 L 38.168,54.287 L 38.396,53.487 L 38.625,52.915 L 38.968,51.772 L 39.768,51.2 L 40.226,50.743 L 39.883,48.8 L 37.253,46.17 L 37.596,45.713 L 39.54,43.427 L 40.226,42.969 L 40.568,42.512 L 44.684,37.71 L 47.313,36.567 L 47.313,33.481 L 45.37,27.65 L 44.684,25.592 L 48.228,22.277 L 52.801,18.504 L 53.144,18.276 L 54.173,17.59 L 54.516,18.047 L 54.744,18.504 L 54.859,19.305 L 54.973,19.876 L 54.973,21.134 L 54.973,22.734 L 55.087,23.306 L 55.202,23.878 L 55.43,24.792 L 55.888,25.821 L 56.345,26.278 L 56.802,26.964 L 58.288,28.565 L 59.203,29.479 L 60.232,30.851 L 60.575,31.194 L 62.633,34.624 L 64.004,36.91 L 64.69,37.939 L 65.833,39.54 L 66.519,41.026 L 66.405,41.369 L 66.062,42.512 L 65.948,43.769 L 65.833,44.455 L 65.833,46.17 L 65.719,47.199 L 65.605,48.228 L 65.491,49.028 L 65.148,50.514 L 65.033,51.315 L 64.462,52.801 L 64.233,53.258 L 64.004,53.83 L 63.547,54.401 L 62.975,54.973 L 62.175,55.43 L 61.375,55.545 L 60.803,55.773 L 57.488,56.231 L 54.401,56.573 L 53.372,56.688 L 52.458,56.916 L 52.001,56.916 L 50.857,57.259 L 50.4,57.488 L 49.829,57.717 L 49.257,57.945 L 48.457,58.403 L 48.114,58.631 L 47.771,58.86 L 47.313,59.203 L 46.856,59.546 L 46.513,59.889 L 46.056,60.346 L 45.37,61.146 L 45.027,61.718 L 44.455,62.747 L 44.112,63.547 L 43.998,64.004 L 43.769,64.462 L 43.541,65.376 L 43.198,67.091 L 42.969,68.349 L 42.626,69.835 L 42.169,72.693 L 41.94,73.836 L 41.712,74.751 L 41.369,76.465 L 41.369,76.923 L 41.254,77.837 L 41.254,78.295 L 41.254,78.523 L 40.454,82.41 L 40.454,82.41 Z M 63.204,37.253 L 63.09,37.139 L 62.747,36.91 L 62.518,36.682 L 62.29,36.567 L 61.947,36.682 L 61.146,37.139 L 60.346,37.71 L 59.774,38.396 L 59.089,39.768 L 58.974,40.911 L 58.86,41.826 L 58.631,42.969 L 58.517,44.913 L 58.517,45.37 L 58.288,46.285 L 58.06,47.199 L 57.374,48.228 L 56.802,48.685 L 56.116,49.028 L 54.973,48.914 L 54.287,48.8 L 53.258,48.571 L 48.914,47.428 L 43.541,46.056 L 41.597,45.827 L 41.254,45.713 L 40.911,45.942 L 40.568,46.17 L 40.111,46.628 L 39.883,47.199 L 40.111,47.656 L 40.226,47.999 L 40.797,48.685 L 41.597,49.6 L 42.398,50.4 L 44.227,52.229 L 45.484,53.372 L 45.827,53.487 L 46.628,53.487 L 47.085,53.372 L 49.028,53.144 L 54.173,52.915 L 58.86,52.344 L 59.432,52.229 L 59.889,51.658 L 60.346,51.086 L 60.46,50.743 L 60.689,49.943 L 60.918,48.914 L 61.261,45.827 L 61.718,43.769 L 62.518,40.226 L 62.747,38.053 L 62.861,37.825 L 62.861,37.71 L 62.975,37.482 L 63.09,37.482 L 63.204,37.253 Z" fill="rgba(59,130,246,0.25)" fill-rule="evenodd" stroke="rgba(59,130,246,0.9)" stroke-width="0.3" stroke-linejoin="round"/>
</svg>
