<svg xmlns="http://www.w3.org/2000/svg" width="100%" height="100%" viewBox="0 0 100 100" preserveAspectRatio="none">
  <path d="M 54.573,72.521 L 52.058,68.634 L 50.915,66.805 L 49.085,63.833 L 47.485,61.089 L 43.827,54.916 L 43.598,54.687 L 42.455,52.629 L 42.226,52.172 L 41.769,51.258 L 41.083,49.886 L 36.967,43.255 L 35.367,40.74 L 35.367,40.511 L 31.937,35.024 L 31.937,35.024 L 31.937,34.795 L 32.395,34.567 L 33.08,34.109 L 38.568,30.222 L 38.568,30.222 L 42.683,27.479 L 50.686,30.222 L 50.686,30.222 L 52.058,30.68 L 52.286,30.908 L 58.688,33.195 L 60.289,33.881 L 64.862,35.481 L 68.063,36.624 L 64.404,46.685 L 62.575,51.029 L 56.173,67.948 L 54.573,72.521 Z" fill="rgba(59,130,246,0.25)" fill-rule="evenodd" stroke="rgba(59,130,246,0.9)" stroke-width="0.3" stroke-linejoin="round"/>
</svg>
