<svg xmlns="http://www.w3.org/2000/svg" width="100%" height="100%" viewBox="0 0 100 100" preserveAspectRatio="none">
  <path d="M 58.002,47.028 L 62.804,51.372 L 64.633,53.201 L 64.633,52.972 L 64.633,52.972 L 65.319,53.887 L 65.319,53.887 L 66.005,54.573 L 68.291,57.317 L 66.005,54.573 L 65.319,53.887 L 61.889,56.631 L 60.06,58.002 L 54.801,62.118 L 53.887,63.49 L 53.887,63.49 L 53.658,63.261 L 52.744,62.347 L 50.457,61.203 L 42.912,57.774 L 41.998,57.545 L 41.998,57.545 L 33.08,53.43 L 31.709,53.201 L 31.709,52.972 L 33.309,45.427 L 34.681,39.482 L 35.824,36.51 L 43.141,39.482 L 43.141,39.482 L 54.573,44.97 L 58.002,47.028 Z" fill="rgba(59,130,246,0.25)" fill-rule="evenodd" stroke="rgba(59,130,246,0.9)" stroke-width="0.3" stroke-linejoin="round"/>
</svg>
