<svg xmlns="http://www.w3.org/2000/svg" width="100%" height="100%" viewBox="0 0 100 100" preserveAspectRatio="none">
  <path d="M 54.116,64.404 L 36.281,58.46 L 34.681,57.774 L 32.623,57.317 L 28.279,56.402 L 27.364,54.801 L 28.736,53.43 L 30.565,51.6 L 33.538,48.628 L 33.538,48.628 L 36.739,45.199 L 40.168,41.998 L 40.168,41.998 L 40.397,41.54 L 44.055,37.882 L 45.427,36.51 L 47.942,33.995 L 50.0,31.937 L 50.229,31.709 L 51.143,30.794 L 52.286,30.337 L 52.286,30.565 L 52.972,31.48 L 55.259,37.196 L 55.716,38.568 L 58.002,44.284 L 59.146,46.799 L 59.146,47.256 L 59.374,47.485 L 59.603,47.714 L 59.832,47.942 L 60.06,47.942 L 60.746,47.942 L 62.118,47.942 L 71.035,47.256 L 71.721,47.256 L 72.407,54.801 L 72.407,54.801 L 72.636,58.46 L 72.636,60.289 L 72.636,60.746 L 72.407,61.661 L 71.035,65.319 L 69.892,68.749 L 69.892,68.977 L 69.435,69.663 L 65.776,68.52 L 65.09,68.291 L 63.49,67.834 L 58.002,65.776 L 56.402,65.319 L 54.116,64.404 Z" fill="rgba(59,130,246,0.25)" fill-rule="evenodd" stroke="rgba(59,130,246,0.9)" stroke-width="0.3" stroke-linejoin="round"/>
</svg>
