<svg xmlns="http://www.w3.org/2000/svg" width="100%" height="100%" viewBox="0 0 100 100" preserveAspectRatio="none">
  <path d="M 35.481,48.628 L 38.225,41.54 L 39.139,39.254 L 39.139,39.025 L 39.368,39.025 L 39.139,39.025 L 39.139,39.025 L 40.74,39.482 L 43.026,40.397 L 46.227,41.769 L 47.828,42.226 L 48.514,42.683 L 51.715,43.827 L 53.315,44.513 L 53.773,44.741 L 55.602,45.427 L 43.941,40.854 L 56.745,45.884 L 58.117,46.342 L 64.976,49.085 L 66.348,49.543 L 66.348,49.771 L 66.348,49.771 L 65.891,51.143 L 64.29,55.487 L 62.461,60.975 L 61.775,60.746 L 60.403,60.289 L 58.345,59.832 L 54.916,58.917 L 54.916,58.917 L 53.773,58.688 L 52.629,58.46 L 48.514,57.545 L 48.285,57.317 L 47.828,57.317 L 46.913,57.088 L 42.34,55.945 L 41.655,55.716 L 40.969,55.716 L 40.511,55.487 L 37.996,55.03 L 36.167,54.344 L 35.253,54.116 L 33.652,53.43 L 35.481,48.628 Z" fill="rgba(59,130,246,0.25)" fill-rule="evenodd" stroke="rgba(59,130,246,0.9)" stroke-width="0.3" stroke-linejoin="round"/>
</svg>
