<svg xmlns="http://www.w3.org/2000/svg" width="100%" height="100%" viewBox="0 0 100 100" preserveAspectRatio="none">
  <path d="M 40.397,39.711 L 40.397,39.482 L 42.683,36.967 L 43.827,35.824 L 44.284,36.053 L 48.171,39.482 L 50.229,40.854 L 50.229,41.083 L 54.344,43.827 L 56.631,44.741 L 56.631,44.741 L 56.859,44.741 L 57.774,44.97 L 60.518,45.427 L 61.203,45.656 L 62.347,45.656 L 65.776,45.656 L 64.862,47.485 L 63.49,49.314 L 61.432,52.744 L 60.06,54.801 L 59.146,56.402 L 58.46,57.545 L 54.116,64.176 L 53.201,63.49 L 52.058,62.347 L 50.229,60.746 L 50.0,60.518 L 47.485,58.231 L 44.97,55.945 L 44.97,55.945 L 42.455,53.887 L 40.168,51.6 L 39.94,51.6 L 37.653,49.543 L 35.138,47.028 L 34.224,46.342 L 35.138,45.427 L 35.824,44.513 L 38.797,41.312 L 40.397,39.711 Z" fill="rgba(59,130,246,0.25)" fill-rule="evenodd" stroke="rgba(59,130,246,0.9)" stroke-width="0.3" stroke-linejoin="round"/>
</svg>
