<svg xmlns="http://www.w3.org/2000/svg" width="100%" height="100%" viewBox="0 0 100 100" preserveAspectRatio="none">
  <path d="M 47.942,69.092 L 47.942,69.092 L 43.369,67.034 L 41.54,66.348 L 35.824,63.833 L 38.111,58.345 L 38.797,56.974 L 39.254,56.288 L 40.397,53.544 L 40.397,53.315 L 41.083,51.715 L 43.141,47.142 L 44.513,44.398 L 44.513,44.398 L 45.199,42.798 L 46.57,39.597 L 47.714,36.853 L 48.171,35.71 L 50.457,30.222 L 50.457,30.222 L 50.457,30.222 L 57.774,33.652 L 58.46,33.881 L 62.804,35.938 L 64.176,36.396 L 64.176,36.396 L 62.118,40.74 L 54.801,57.66 L 53.43,60.632 L 49.314,69.549 L 49.314,69.778 L 48.171,69.092 L 47.942,69.092 Z" fill="rgba(59,130,246,0.25)" fill-rule="evenodd" stroke="rgba(59,130,246,0.9)" stroke-width="0.3" stroke-linejoin="round"/>
</svg>
