<svg xmlns="http://www.w3.org/2000/svg" width="100%" height="100%" viewBox="0 0 100 100" preserveAspectRatio="none">
  <path d="M 54.459,55.03 L 52.629,59.146 L 48.742,67.834 L 48.285,69.206 L 47.371,68.749 L 43.255,66.92 L 36.853,64.176 L 37.31,63.261 L 38.454,60.289 L 39.139,58.688 L 39.597,57.317 L 40.969,54.344 L 41.883,52.515 L 41.883,52.515 L 43.712,48.171 L 43.941,47.714 L 48.514,37.653 L 50.114,33.766 L 51.258,31.48 L 51.486,30.794 L 51.486,30.794 L 51.486,30.794 L 53.544,31.709 L 55.373,32.395 L 55.602,32.623 L 59.031,33.995 L 63.147,35.824 L 60.175,42.455 L 54.459,55.03 Z" fill="rgba(59,130,246,0.25)" fill-rule="evenodd" stroke="rgba(59,130,246,0.9)" stroke-width="0.3" stroke-linejoin="round"/>
</svg>
