<svg xmlns="http://www.w3.org/2000/svg" width="100%" height="100%" viewBox="0 0 100 100" preserveAspectRatio="none">
  <path d="M 52.744,48.857 L 53.43,48.171 L 53.658,47.942 L 55.03,45.656 L 58.002,40.626 L 60.975,35.824 L 62.575,33.309 L 63.49,31.709 L 66.234,27.364 L 67.605,28.05 L 68.063,28.965 L 68.063,29.879 L 68.291,31.709 L 68.52,34.224 L 68.977,41.083 L 69.206,44.284 L 69.435,49.314 L 69.663,51.829 L 69.892,55.03 L 69.892,56.859 L 69.892,57.317 L 69.892,57.774 L 69.663,58.231 L 68.52,59.603 L 67.605,60.975 L 66.005,63.261 L 64.404,65.548 L 64.176,65.776 L 62.118,68.291 L 60.518,70.806 L 60.06,71.721 L 60.06,72.636 L 59.146,72.407 L 58.917,72.407 L 58.231,72.407 L 56.859,72.178 L 54.801,71.95 L 50.229,71.492 L 49.543,71.492 L 49.085,71.492 L 42.912,70.806 L 42.683,70.806 L 42.226,70.806 L 30.337,69.663 L 30.337,69.206 L 30.108,68.063 L 30.565,64.176 L 30.794,62.347 L 31.023,62.118 L 31.023,58.688 L 31.251,57.088 L 40.854,55.945 L 43.141,55.487 L 45.427,55.03 L 46.342,54.573 L 47.714,53.658 L 50.0,51.829 L 52.515,49.085 L 52.744,48.857 Z" fill="rgba(59,130,246,0.25)" fill-rule="evenodd" stroke="rgba(59,130,246,0.9)" stroke-width="0.3" stroke-linejoin="round"/>
</svg>
