<svg xmlns="http://www.w3.org/2000/svg" width="100%" height="100%" viewBox="0 0 100 100" preserveAspectRatio="none">
  <path d="M 59.946,61.318 L 53.087,63.604 L 48.971,65.205 L 45.541,66.577 L 43.255,67.491 L 43.255,67.491 L 43.026,66.348 L 43.026,66.348 L 43.026,66.119 L 42.798,64.976 L 41.883,61.775 L 40.054,54.459 L 37.996,47.371 L 36.853,42.34 L 36.396,40.511 L 36.167,39.597 L 36.853,39.368 L 37.539,39.139 L 42.34,37.31 L 42.569,37.31 L 44.398,36.624 L 44.398,36.624 L 48.057,35.253 L 51.715,33.881 L 51.943,33.881 L 53.315,33.195 L 54.459,32.737 L 54.916,32.509 L 55.144,33.423 L 56.288,36.853 L 56.974,38.682 L 59.031,45.313 L 59.26,45.77 L 61.546,52.858 L 63.376,58.803 L 63.833,59.717 L 59.946,61.318 Z" fill="rgba(59,130,246,0.25)" fill-rule="evenodd" stroke="rgba(59,130,246,0.9)" stroke-width="0.3" stroke-linejoin="round"/>
</svg>
