<svg xmlns="http://www.w3.org/2000/svg" width="100%" height="100%" viewBox="0 0 100 100" preserveAspectRatio="none">
  <path d="M 60.175,49.314 L 63.833,48.171 L 64.29,49.543 L 65.662,54.344 L 66.348,56.859 L 67.491,60.289 L 67.72,60.975 L 67.72,60.975 L 67.948,62.347 L 67.948,63.033 L 67.034,62.804 L 66.119,62.804 L 61.775,60.975 L 54.687,58.46 L 52.858,57.545 L 48.057,55.487 L 42.34,53.201 L 38.911,50.915 L 35.938,49.085 L 33.881,47.942 L 33.195,47.485 L 32.052,46.799 L 32.28,46.57 L 36.167,40.397 L 38.454,36.967 L 39.368,37.653 L 39.825,37.882 L 45.313,41.083 L 50.114,44.055 L 53.087,45.656 L 57.66,48.628 L 58.117,48.857 L 59.031,49.314 L 59.26,49.543 L 59.489,49.543 L 60.175,49.314 Z" fill="rgba(59,130,246,0.25)" fill-rule="evenodd" stroke="rgba(59,130,246,0.9)" stroke-width="0.3" stroke-linejoin="round"/>
</svg>
