<svg xmlns="http://www.w3.org/2000/svg" width="100%" height="100%" viewBox="0 0 100 100" preserveAspectRatio="none">
  <path d="M 59.489,66.92 L 56.059,65.319 L 54.459,64.633 L 51.029,63.49 L 51.029,63.49 L 51.715,61.661 L 50.114,59.374 L 47.142,55.716 L 45.541,53.887 L 42.798,50.229 L 39.825,46.57 L 38.225,44.741 L 37.768,44.284 L 36.624,42.912 L 35.481,41.083 L 35.253,40.626 L 34.795,39.482 L 34.795,39.482 L 36.396,39.254 L 43.255,37.196 L 45.77,36.51 L 48.971,35.824 L 48.971,35.824 L 50.343,35.596 L 50.572,35.367 L 51.943,35.138 L 52.401,35.138 L 57.66,33.995 L 62.918,33.08 L 62.004,34.91 L 62.004,35.824 L 61.775,36.51 L 61.318,38.339 L 60.403,38.797 L 59.717,39.482 L 59.489,40.168 L 59.489,41.54 L 59.489,41.769 L 59.717,41.998 L 60.175,42.912 L 60.403,43.598 L 60.632,44.055 L 61.089,44.741 L 62.69,47.714 L 63.833,49.771 L 64.976,51.6 L 65.205,51.829 L 64.976,52.058 L 64.976,52.515 L 63.604,56.402 L 62.69,59.146 L 62.004,60.975 L 61.775,61.432 L 60.861,64.862 L 60.175,66.92 L 59.489,66.92 Z" fill="rgba(59,130,246,0.25)" fill-rule="evenodd" stroke="rgba(59,130,246,0.9)" stroke-width="0.3" stroke-linejoin="round"/>
</svg>
