<svg xmlns="http://www.w3.org/2000/svg" width="100%" height="100%" viewBox="0 0 100 100" preserveAspectRatio="none">
  <path d="M 49.428,29.651 L 49.886,28.05 L 51.258,28.736 L 55.373,30.565 L 55.373,30.565 L 60.403,32.852 L 60.632,32.852 L 60.861,32.852 L 61.318,33.08 L 65.205,34.681 L 66.577,35.138 L 66.577,35.138 L 66.119,35.824 L 65.662,36.51 L 64.062,40.854 L 63.833,40.854 L 61.546,46.113 L 61.318,47.028 L 59.26,51.829 L 58.803,52.744 L 56.745,57.774 L 55.602,60.06 L 55.602,60.06 L 54.23,63.49 L 54.001,63.947 L 51.258,70.349 L 50.8,71.264 L 50.572,71.95 L 50.572,71.95 L 33.423,64.633 L 33.423,64.633 L 33.423,64.633 L 41.426,47.256 L 42.112,45.199 L 44.627,39.94 L 45.084,39.025 L 49.2,29.879 L 49.428,29.651 Z" fill="rgba(59,130,246,0.25)" fill-rule="evenodd" stroke="rgba(59,130,246,0.9)" stroke-width="0.3" stroke-linejoin="round"/>
</svg>
