<svg xmlns="http://www.w3.org/2000/svg" width="100%" height="100%" viewBox="0 0 100 100" preserveAspectRatio="none">
  <path d="M 71.035,52.972 L 70.349,54.801 L 69.206,58.46 L 68.977,58.688 L 67.834,62.347 L 66.92,64.404 L 66.691,65.09 L 66.691,65.09 L 66.005,64.862 L 63.261,63.947 L 56.173,61.432 L 54.801,60.975 L 50.229,59.603 L 49.314,59.374 L 47.028,58.46 L 43.598,57.317 L 40.626,56.402 L 28.965,52.515 L 27.364,51.6 L 27.593,50.0 L 28.508,48.171 L 29.422,45.427 L 30.794,42.226 L 31.709,40.168 L 32.166,39.254 L 32.395,38.797 L 32.395,38.797 L 34.224,35.138 L 34.224,34.91 L 34.681,35.138 L 34.91,35.367 L 37.425,36.281 L 39.711,36.967 L 43.141,37.882 L 46.799,39.254 L 47.256,39.254 L 48.628,39.94 L 54.801,41.998 L 55.03,41.998 L 60.518,43.827 L 60.746,43.827 L 63.719,44.97 L 63.719,44.97 L 65.776,45.884 L 70.806,47.714 L 71.492,47.942 L 71.721,48.171 L 72.636,48.4 L 71.035,52.972 Z" fill="rgba(59,130,246,0.25)" fill-rule="evenodd" stroke="rgba(59,130,246,0.9)" stroke-width="0.3" stroke-linejoin="round"/>
</svg>
