<svg xmlns="http://www.w3.org/2000/svg" width="100%" height="100%" viewBox="0 0 100 100" preserveAspectRatio="none">
  <path d="M 64.404,57.66 L 63.947,58.574 L 62.118,62.69 L 61.889,63.376 L 61.889,63.833 L 61.889,63.833 L 60.746,63.376 L 51.143,59.031 L 50.457,58.574 L 50.229,58.574 L 49.543,58.345 L 36.739,52.401 L 35.596,51.943 L 36.053,50.343 L 37.425,47.371 L 38.111,45.77 L 39.025,43.941 L 39.254,43.255 L 40.626,40.054 L 41.54,37.996 L 41.769,37.539 L 42.455,36.167 L 42.912,36.624 L 46.113,39.825 L 47.028,40.74 L 51.372,44.856 L 52.058,45.541 L 51.829,45.541 L 54.344,48.057 L 55.716,49.2 L 57.545,51.029 L 61.661,55.373 L 63.947,57.202 L 64.404,57.66 Z" fill="rgba(59,130,246,0.25)" fill-rule="evenodd" stroke="rgba(59,130,246,0.9)" stroke-width="0.3" stroke-linejoin="round"/>
</svg>
