<svg xmlns="http://www.w3.org/2000/svg" width="100%" height="100%" viewBox="0 0 100 100" preserveAspectRatio="none">
  <path d="M 36.853,55.602 L 38.225,49.428 L 38.911,45.77 L 39.139,44.398 L 39.368,43.255 L 39.825,40.511 L 40.74,35.938 L 41.197,33.423 L 42.569,33.881 L 44.856,34.338 L 45.541,34.338 L 47.142,34.795 L 49.657,35.253 L 49.886,35.253 L 52.858,35.938 L 54.459,36.167 L 56.059,36.624 L 56.059,36.624 L 60.175,37.31 L 61.089,37.539 L 62.004,37.31 L 62.004,38.225 L 62.004,38.454 L 62.69,43.026 L 63.376,45.77 L 63.376,45.999 L 63.604,47.828 L 63.604,47.828 L 64.062,50.114 L 64.519,52.172 L 64.519,52.172 L 64.747,54.916 L 65.205,56.974 L 63.833,57.431 L 45.084,63.376 L 36.167,66.119 L 34.795,66.577 L 34.795,66.348 L 34.795,66.348 L 34.795,66.348 L 34.795,66.348 L 35.024,65.891 L 35.938,60.861 L 36.624,57.431 L 36.853,55.602 Z" fill="rgba(59,130,246,0.25)" fill-rule="evenodd" stroke="rgba(59,130,246,0.9)" stroke-width="0.3" stroke-linejoin="round"/>
</svg>
