<svg xmlns="http://www.w3.org/2000/svg" width="100%" height="100%" viewBox="0 0 100 100" preserveAspectRatio="none">
  <path d="M 70.349,46.113 L 71.264,53.43 L 72.407,60.975 L 72.407,62.347 L 72.407,62.347 L 68.52,62.804 L 64.862,63.49 L 64.862,63.49 L 60.289,63.947 L 55.945,64.404 L 55.716,64.404 L 54.344,64.633 L 43.141,66.005 L 42.912,66.005 L 28.736,67.834 L 27.593,67.834 L 28.05,67.377 L 28.736,65.548 L 31.709,59.146 L 33.08,56.402 L 33.995,54.573 L 35.596,50.915 L 37.653,46.113 L 39.711,41.312 L 41.998,36.053 L 43.141,33.309 L 43.827,32.166 L 44.97,32.623 L 57.774,38.568 L 58.46,38.797 L 58.688,38.797 L 59.374,39.254 L 68.977,43.598 L 70.121,44.055 L 70.349,44.513 L 70.349,46.113 Z" fill="rgba(59,130,246,0.25)" fill-rule="evenodd" stroke="rgba(59,130,246,0.9)" stroke-width="0.3" stroke-linejoin="round"/>
</svg>
