<svg xmlns="http://www.w3.org/2000/svg" width="100%" height="100%" viewBox="0 0 100 100" preserveAspectRatio="none">
  <path d="M 27.822,55.144 L 35.824,50.114 L 38.568,48.514 L 42.912,45.77 L 43.598,45.313 L 45.656,44.17 L 45.656,44.17 L 50.229,41.197 L 52.515,39.825 L 54.344,38.682 L 55.716,37.539 L 61.889,33.423 L 65.319,30.908 L 67.834,29.079 L 68.749,28.393 L 71.721,26.564 L 75.837,23.592 L 75.837,23.592 L 76.065,24.964 L 76.294,25.421 L 76.294,27.25 L 76.294,28.393 L 76.523,29.765 L 76.294,31.137 L 76.294,31.823 L 76.065,32.966 L 75.608,35.481 L 75.608,35.938 L 75.608,37.31 L 75.608,40.283 L 75.608,43.026 L 75.608,46.913 L 75.608,47.371 L 75.608,48.057 L 75.608,48.514 L 76.294,50.572 L 77.208,52.401 L 77.666,53.315 L 78.58,54.687 L 79.266,56.059 L 79.952,56.745 L 79.266,56.974 L 78.809,57.202 L 78.58,57.431 L 76.294,58.117 L 73.093,59.26 L 71.95,59.489 L 71.264,59.717 L 71.035,59.946 L 67.605,61.089 L 65.776,61.775 L 64.404,62.232 L 63.719,62.461 L 62.347,62.918 L 60.518,63.376 L 59.374,63.833 L 56.173,64.747 L 55.716,64.747 L 54.801,64.976 L 53.887,65.205 L 50.915,66.119 L 50.457,66.119 L 46.113,67.491 L 44.284,67.948 L 42.683,68.863 L 39.711,70.692 L 39.254,70.921 L 37.425,72.293 L 36.967,72.521 L 36.51,72.979 L 31.023,76.408 L 31.023,76.408 L 27.822,71.378 L 27.364,70.464 L 26.45,69.549 L 25.764,69.092 L 23.706,65.662 L 22.334,63.147 L 21.191,61.318 L 21.191,61.318 L 20.962,60.861 L 20.048,59.717 L 26.45,55.83 L 27.822,55.144 Z" fill="rgba(59,130,246,0.25)" fill-rule="evenodd" stroke="rgba(59,130,246,0.9)" stroke-width="0.3" stroke-linejoin="round"/>
</svg>
