<svg xmlns="http://www.w3.org/2000/svg" width="100%" height="100%" viewBox="0 0 100 100" preserveAspectRatio="none">
  <path d="M 44.856,39.111 L 47.371,38.025 L 49.714,36.539 L 51.486,34.938 L 51.886,34.538 L 52.344,33.909 L 53.944,31.68 L 56.059,28.765 L 57.088,27.336 L 57.259,27.164 L 57.374,26.936 L 57.431,26.821 L 57.488,26.764 L 57.545,26.707 L 57.545,26.707 L 65.891,29.622 L 72.636,31.966 L 70.063,34.71 L 63.49,42.769 L 56.002,51.743 L 53.601,54.258 L 49.428,58.774 L 40.969,67.863 L 35.996,73.293 L 35.996,73.293 L 35.367,72.493 L 35.824,72.035 L 35.824,72.035 L 35.367,72.493 L 33.481,69.92 L 32.109,68.377 L 28.622,64.662 L 27.364,63.576 L 28.107,62.661 L 28.508,62.261 L 28.679,63.633 L 31.366,66.319 L 32.452,66.034 L 32.509,65.462 L 32.566,65.233 L 32.909,64.433 L 33.595,63.461 L 34.052,63.118 L 34.338,62.947 L 34.624,62.833 L 35.024,62.775 L 35.538,62.775 L 35.767,62.775 L 36.339,62.89 L 36.567,63.004 L 37.082,63.233 L 37.71,63.804 L 37.825,63.919 L 37.996,64.204 L 38.168,64.49 L 38.282,64.833 L 38.454,65.29 L 39.94,65.862 L 44.112,61.461 L 39.94,57.459 L 36.281,54.03 L 32.909,57.631 L 34.852,55.516 L 37.196,53.115 L 38.911,51.286 L 38.911,51.286 L 44.398,45.513 L 44.513,45.399 L 44.398,45.513 L 43.598,46.37 L 39.883,50.257 L 38.911,51.286 L 38.911,51.286 L 40.226,49.857 L 43.141,46.828 L 44.398,45.513 L 44.513,45.399 L 44.055,44.255 L 42.683,40.997 L 42.34,40.197 L 42.34,40.197 L 44.856,39.111 Z M 46.913,47.971 L 48.285,49.343 L 48.457,49.514 L 48.457,49.514 L 49.371,50.372 L 50.114,51.057 L 52.687,53.573 L 55.659,50.372 L 58.06,47.685 L 57.488,47.628 L 58.86,46.142 L 60.746,44.141 L 60.746,44.084 L 64.004,40.654 L 69.149,33.966 L 68.806,33.566 L 69.435,33.052 L 68.577,32.48 L 68.349,32.366 L 68.234,32.309 L 67.034,31.794 L 65.891,31.337 L 64.29,30.537 L 62.861,29.851 L 60.232,32.48 L 56.402,28.879 L 54.001,32.194 L 52.515,34.195 L 52.229,34.595 L 51.543,35.453 L 50.686,36.253 L 49.943,36.824 L 48.857,37.625 L 48.8,37.682 L 48.514,37.853 L 48.228,37.968 L 48.114,38.082 L 47.599,38.311 L 47.313,38.539 L 47.028,38.768 L 46.799,38.939 L 46.685,38.768 L 45.884,39.282 L 43.084,40.426 L 42.798,41.226 L 43.141,42.083 L 43.255,42.312 L 44.741,45.856 L 46.913,47.971 Z" fill="rgba(59,130,246,0.25)" fill-rule="evenodd" stroke="rgba(59,130,246,0.9)" stroke-width="0.3" stroke-linejoin="round"/>
</svg>
