<svg xmlns="http://www.w3.org/2000/svg" width="100%" height="100%" viewBox="0 0 100 100" preserveAspectRatio="none">
  <path d="M 40.626,25.192 L 40.168,25.421 L 40.168,25.192 L 40.397,25.192 L 40.626,25.192 L 47.028,24.735 L 47.256,24.735 L 48.171,24.735 L 52.744,24.506 L 54.801,24.278 L 55.259,28.393 L 55.259,28.393 L 55.487,32.509 L 55.487,32.737 L 55.487,33.195 L 55.487,33.195 L 55.487,34.567 L 55.716,36.396 L 55.716,36.624 L 55.716,37.082 L 55.716,37.082 L 55.945,40.283 L 56.173,43.484 L 56.173,43.484 L 56.173,44.856 L 56.402,50.8 L 56.402,50.8 L 56.859,55.83 L 57.088,59.489 L 57.088,61.318 L 57.088,61.546 L 57.317,65.891 L 57.545,69.549 L 59.832,70.921 L 59.832,70.921 L 44.97,75.722 L 44.97,75.036 L 40.626,25.192 Z" fill="rgba(59,130,246,0.25)" fill-rule="evenodd" stroke="rgba(59,130,246,0.9)" stroke-width="0.3" stroke-linejoin="round"/>
</svg>
