<svg xmlns="http://www.w3.org/2000/svg" width="100%" height="100%" viewBox="0 0 100 100" preserveAspectRatio="none">
  <path d="M 24.106,57.088 L 24.449,55.259 L 24.792,53.544 L 25.135,51.486 L 25.364,50.229 L 25.707,48.057 L 25.707,48.057 L 26.507,48.057 L 28.45,47.828 L 28.793,47.714 L 29.822,47.714 L 29.937,47.714 L 31.194,47.485 L 32.566,47.256 L 32.909,47.256 L 33.138,47.142 L 33.366,47.028 L 33.709,46.685 L 33.709,46.799 L 33.709,46.799 L 33.824,47.256 L 34.167,48.4 L 34.281,48.742 L 35.081,50.114 L 35.31,50.8 L 37.367,53.201 L 38.053,54.459 L 39.997,54.001 L 40.111,54.116 L 41.597,55.83 L 43.084,54.916 L 43.427,54.687 L 43.998,54.001 L 45.599,52.401 L 46.628,50.915 L 46.97,50.229 L 47.428,49.2 L 46.742,48.171 L 46.285,47.599 L 47.771,46.456 L 46.399,44.17 L 45.827,43.484 L 46.17,42.455 L 46.856,40.168 L 46.056,39.94 L 46.628,38.911 L 46.513,38.682 L 48.114,38.111 L 47.199,36.167 L 46.742,35.481 L 45.827,34.681 L 45.599,34.452 L 45.141,33.766 L 44.112,32.966 L 42.398,31.366 L 41.483,30.337 L 40.911,29.879 L 40.34,28.965 L 38.511,29.651 L 38.511,29.536 L 38.511,28.851 L 38.511,28.508 L 38.168,26.335 L 37.825,24.163 L 37.825,23.82 L 37.71,23.706 L 37.482,23.02 L 37.71,22.906 L 43.884,19.019 L 49.143,15.589 L 50.857,14.56 L 52.801,13.303 L 53.258,12.96 L 53.487,12.846 L 53.944,13.417 L 54.058,13.646 L 54.63,14.56 L 55.316,15.818 L 56.345,17.533 L 56.688,17.761 L 57.145,18.219 L 57.374,18.676 L 58.974,21.191 L 58.974,21.191 L 59.889,22.22 L 59.889,22.334 L 60.918,23.592 L 61.604,24.278 L 63.661,26.678 L 64.347,27.593 L 64.004,30.222 L 64.004,30.451 L 64.004,30.908 L 63.89,32.052 L 63.661,33.652 L 63.661,34.109 L 63.776,34.338 L 63.89,34.567 L 64.919,35.481 L 66.748,36.967 L 68.234,38.339 L 69.492,39.368 L 71.435,41.197 L 72.35,41.998 L 74.179,43.484 L 75.436,44.513 L 78.752,45.884 L 78.752,45.884 L 78.752,45.884 L 78.523,46.456 L 77.151,50.8 L 77.151,50.8 L 76.923,51.486 L 76.465,52.629 L 76.923,51.6 L 76.923,51.6 L 76.694,52.515 L 76.237,53.658 L 75.551,55.144 L 71.435,64.062 L 67.091,73.322 L 65.491,76.408 L 62.975,81.781 L 62.975,81.781 L 60.918,81.553 L 62.061,81.667 L 62.975,81.781 L 62.975,81.781 L 60.575,86.697 L 60.346,87.154 L 60.346,87.154 L 60.346,87.154 L 58.403,86.468 L 57.602,86.354 L 44.455,85.668 L 43.084,85.554 L 44.227,84.639 L 46.742,80.867 L 47.085,80.295 L 47.199,79.152 L 47.199,75.951 L 47.313,74.35 L 47.313,73.665 L 47.313,71.721 L 46.97,70.921 L 46.742,70.464 L 44.913,67.263 L 44.57,66.691 L 44.341,66.805 L 43.998,67.034 L 43.655,67.148 L 40.911,68.634 L 40.911,68.634 L 39.082,69.663 L 39.082,69.663 L 37.482,70.692 L 37.482,70.692 L 37.139,70.921 L 36.339,71.492 L 36.339,71.492 L 35.31,72.178 L 34.624,72.636 L 34.395,72.75 L 33.595,73.093 L 33.595,73.093 L 32.337,73.55 L 30.394,74.35 L 29.822,74.465 L 29.594,74.579 L 29.022,74.579 L 29.022,74.579 L 27.765,74.693 L 26.507,74.693 L 24.564,74.693 L 24.221,74.693 L 22.506,74.236 L 22.163,74.122 L 21.248,73.893 L 21.248,73.436 L 21.934,69.892 L 22.506,66.691 L 22.849,64.404 L 23.077,63.033 L 24.106,57.088 Z" fill="rgba(59,130,246,0.25)" fill-rule="evenodd" stroke="rgba(59,130,246,0.9)" stroke-width="0.3" stroke-linejoin="round"/>
</svg>
