<svg xmlns="http://www.w3.org/2000/svg" width="100%" height="100%" viewBox="0 0 100 100" preserveAspectRatio="none">
  <path d="M 55.259,43.484 L 55.259,43.484 L 56.631,43.941 L 66.234,45.999 L 69.892,47.142 L 69.206,49.886 L 69.206,49.886 L 68.749,51.715 L 68.291,53.773 L 67.377,57.431 L 66.92,59.26 L 66.691,60.175 L 58.46,58.345 L 58.46,58.345 L 53.43,57.202 L 52.744,56.974 L 48.628,56.288 L 45.884,55.83 L 44.284,55.602 L 43.141,55.373 L 40.626,54.916 L 39.711,54.916 L 36.739,54.459 L 31.709,53.544 L 31.023,53.544 L 30.108,53.315 L 31.709,43.712 L 32.623,39.825 L 32.852,39.825 L 32.852,39.825 L 45.427,41.883 L 55.259,43.484 L 55.259,43.484 Z" fill="rgba(59,130,246,0.25)" fill-rule="evenodd" stroke="rgba(59,130,246,0.9)" stroke-width="0.3" stroke-linejoin="round"/>
</svg>
