<svg xmlns="http://www.w3.org/2000/svg" width="100%" height="100%" viewBox="0 0 100 100" preserveAspectRatio="none">
  <path d="M 46.456,62.461 L 42.112,57.888 L 41.655,57.431 L 40.511,56.059 L 39.368,54.459 L 39.368,54.001 L 39.597,51.029 L 39.825,50.114 L 40.054,49.657 L 40.283,49.2 L 44.17,44.17 L 48.285,39.139 L 48.742,38.225 L 49.2,37.31 L 49.2,37.31 L 49.886,37.31 L 49.886,37.31 L 50.8,37.539 L 51.486,38.225 L 52.629,39.368 L 54.687,41.197 L 54.916,41.197 L 54.916,41.426 L 57.66,43.484 L 60.632,45.77 L 60.175,46.227 L 58.345,48.285 L 53.087,54.687 L 46.685,62.69 L 46.456,62.461 Z" fill="rgba(59,130,246,0.25)" fill-rule="evenodd" stroke="rgba(59,130,246,0.9)" stroke-width="0.3" stroke-linejoin="round"/>
</svg>
