<svg xmlns="http://www.w3.org/2000/svg" width="100%" height="100%" viewBox="0 0 100 100" preserveAspectRatio="none">
  <path d="M 47.485,56.631 L 43.598,55.03 L 41.54,54.344 L 37.425,52.744 L 35.367,51.829 L 34.681,51.6 L 34.681,51.6 L 35.824,48.628 L 37.196,45.427 L 37.196,45.427 L 39.254,40.168 L 39.711,38.797 L 41.083,39.254 L 43.598,40.168 L 45.427,40.854 L 47.028,41.54 L 47.256,41.54 L 47.485,41.769 L 49.771,42.455 L 52.058,43.369 L 52.286,43.369 L 55.487,44.741 L 57.774,45.427 L 58.231,45.656 L 58.46,45.656 L 61.203,46.799 L 65.319,48.628 L 64.862,49.771 L 60.746,60.289 L 60.518,61.203 L 60.06,61.203 L 59.832,61.203 L 58.002,60.518 L 53.658,58.917 L 52.058,58.231 L 50.229,57.545 L 47.485,56.631 Z" fill="rgba(59,130,246,0.25)" fill-rule="evenodd" stroke="rgba(59,130,246,0.9)" stroke-width="0.3" stroke-linejoin="round"/>
</svg>
