<svg xmlns="http://www.w3.org/2000/svg" width="100%" height="100%" viewBox="0 0 100 100" preserveAspectRatio="none">
  <path d="M 69.32,44.055 L 65.433,48.4 L 50.343,65.09 L 46.913,69.206 L 44.627,67.148 L 38.454,61.661 L 35.938,59.374 L 35.938,59.374 L 33.423,57.317 L 32.737,56.402 L 30.68,54.573 L 31.594,53.658 L 34.567,50.915 L 37.996,47.942 L 38.225,47.714 L 38.682,47.256 L 40.283,45.884 L 41.883,44.513 L 42.34,44.284 L 43.712,42.683 L 44.856,41.312 L 45.084,41.312 L 49.886,36.053 L 53.544,31.937 L 54.687,30.794 L 57.888,33.538 L 60.632,36.281 L 60.632,36.281 L 65.205,40.397 L 67.263,41.998 L 69.32,44.055 Z" fill="rgba(59,130,246,0.25)" fill-rule="evenodd" stroke="rgba(59,130,246,0.9)" stroke-width="0.3" stroke-linejoin="round"/>
</svg>
