<svg xmlns="http://www.w3.org/2000/svg" width="100%" height="100%" viewBox="0 0 100 100" preserveAspectRatio="none">
  <path d="M 30.565,44.513 L 33.995,34.91 L 34.681,33.538 L 35.596,31.48 L 35.596,31.48 L 35.824,31.48 L 36.053,31.709 L 37.882,32.166 L 46.799,35.367 L 52.058,37.196 L 54.573,38.111 L 64.862,41.769 L 65.319,41.998 L 65.319,41.998 L 65.319,41.998 L 64.633,44.513 L 63.947,46.57 L 61.661,52.744 L 61.203,54.116 L 61.889,55.259 L 65.776,60.746 L 68.063,64.404 L 69.892,66.92 L 70.121,67.605 L 70.806,68.52 L 70.806,68.52 L 68.977,67.834 L 57.774,63.719 L 57.774,63.719 L 57.545,64.404 L 56.173,60.518 L 53.43,57.545 L 53.658,54.801 L 54.116,50.686 L 57.088,48.628 L 57.774,46.113 L 54.344,38.339 L 47.028,35.596 L 45.884,36.739 L 41.998,38.797 L 38.339,41.312 L 38.339,42.226 L 37.425,42.226 L 32.623,44.97 L 32.395,44.97 L 31.937,45.427 L 31.251,46.342 L 30.794,46.799 L 30.565,47.256 L 29.651,47.942 L 29.194,48.171 L 30.565,44.513 Z" fill="rgba(59,130,246,0.25)" fill-rule="evenodd" stroke="rgba(59,130,246,0.9)" stroke-width="0.3" stroke-linejoin="round"/>
</svg>
