<svg xmlns="http://www.w3.org/2000/svg" width="100%" height="100%" viewBox="0 0 100 100" preserveAspectRatio="none">
  <path d="M 47.714,68.977 L 45.199,67.605 L 43.598,66.92 L 42.683,66.462 L 36.51,63.261 L 39.711,55.945 L 42.455,49.543 L 47.028,39.254 L 47.256,39.254 L 49.085,34.681 L 49.085,34.681 L 50.457,31.709 L 50.915,31.023 L 51.143,30.337 L 55.03,32.166 L 59.374,34.224 L 59.603,34.452 L 61.432,35.138 L 63.49,36.053 L 63.49,36.053 L 63.49,36.281 L 62.118,39.94 L 60.975,42.912 L 60.975,43.141 L 57.774,51.829 L 54.573,58.46 L 53.201,60.975 L 52.972,61.661 L 52.744,61.889 L 49.543,68.749 L 49.314,68.977 L 49.085,69.663 L 49.085,69.663 L 47.714,68.977 Z" fill="rgba(59,130,246,0.25)" fill-rule="evenodd" stroke="rgba(59,130,246,0.9)" stroke-width="0.3" stroke-linejoin="round"/>
</svg>
