<svg xmlns="http://www.w3.org/2000/svg" width="100%" height="100%" viewBox="0 0 100 100" preserveAspectRatio="none">
  <path d="M 39.139,61.546 L 39.139,61.089 L 40.283,56.059 L 41.197,50.572 L 41.655,48.742 L 42.34,44.627 L 42.569,43.484 L 43.255,39.368 L 44.398,34.338 L 45.77,34.567 L 53.087,36.167 L 52.629,39.368 L 52.858,40.054 L 52.629,40.969 L 51.486,45.999 L 54.23,46.456 L 54.001,47.371 L 54.001,47.828 L 53.315,49.886 L 52.629,52.858 L 52.172,54.001 L 51.943,57.888 L 60.861,59.717 L 60.403,62.232 L 60.175,63.376 L 59.946,64.976 L 59.717,65.662 L 58.574,65.433 L 52.401,64.062 L 42.34,62.232 L 40.511,61.775 L 39.139,61.546 L 39.139,61.546 Z" fill="rgba(59,130,246,0.25)" fill-rule="evenodd" stroke="rgba(59,130,246,0.9)" stroke-width="0.3" stroke-linejoin="round"/>
</svg>
