<svg xmlns="http://www.w3.org/2000/svg" width="100%" height="100%" viewBox="0 0 100 100" preserveAspectRatio="none">
  <path d="M 40.397,37.425 L 40.626,36.739 L 41.998,29.194 L 64.404,31.251 L 65.776,32.852 L 65.776,33.08 L 64.862,34.91 L 64.633,36.281 L 64.404,42.912 L 64.176,48.4 L 63.947,60.289 L 63.947,60.518 L 64.862,62.804 L 64.862,63.033 L 65.09,63.49 L 65.09,63.719 L 64.862,63.947 L 64.862,64.862 L 64.404,65.548 L 64.176,66.005 L 63.947,66.462 L 63.49,66.92 L 63.033,67.377 L 62.118,67.834 L 60.518,68.977 L 58.002,70.806 L 55.259,70.806 L 54.344,70.578 L 50.686,68.52 L 47.942,67.148 L 42.912,64.633 L 41.083,63.719 L 36.281,61.203 L 34.224,60.289 L 34.91,59.146 L 36.51,54.801 L 37.196,52.972 L 37.425,52.058 L 37.653,50.686 L 38.568,46.342 L 40.397,37.425 Z M 41.998,30.794 L 42.226,29.194 L 41.769,32.395 L 41.998,30.794 Z" fill="rgba(59,130,246,0.25)" fill-rule="evenodd" stroke="rgba(59,130,246,0.9)" stroke-width="0.3" stroke-linejoin="round"/>
</svg>
