<svg xmlns="http://www.w3.org/2000/svg" width="100%" height="100%" viewBox="0 0 100 100" preserveAspectRatio="none">
  <path d="M 65.891,50.114 L 66.805,50.572 L 68.863,51.486 L 69.32,51.715 L 69.32,51.715 L 67.034,56.288 L 64.29,61.775 L 62.918,64.519 L 62.918,64.519 L 60.861,63.376 L 56.288,61.089 L 54.916,60.403 L 48.971,57.431 L 48.057,56.974 L 42.34,54.23 L 41.883,54.001 L 31.137,48.514 L 30.68,48.285 L 31.823,45.313 L 33.195,42.569 L 33.195,42.569 L 34.795,38.911 L 35.938,36.167 L 36.396,35.481 L 36.396,35.481 L 41.197,37.768 L 45.084,39.825 L 45.999,40.283 L 46.456,40.511 L 48.971,41.883 L 49.2,41.883 L 58.117,46.227 L 60.403,47.371 L 60.403,47.371 L 68.406,51.258 L 65.891,50.114 Z" fill="rgba(59,130,246,0.25)" fill-rule="evenodd" stroke="rgba(59,130,246,0.9)" stroke-width="0.3" stroke-linejoin="round"/>
</svg>
