<svg xmlns="http://www.w3.org/2000/svg" width="100%" height="100%" viewBox="0 0 100 100" preserveAspectRatio="none">
  <path d="M 47.942,33.423 L 52.515,32.509 L 52.744,32.509 L 53.887,32.28 L 54.344,32.28 L 57.088,31.823 L 57.088,31.823 L 58.231,31.594 L 60.06,31.137 L 63.261,31.366 L 63.719,31.366 L 63.719,31.366 L 65.09,31.594 L 64.633,32.737 L 60.289,42.569 L 59.832,43.484 L 56.173,51.486 L 55.03,54.23 L 54.116,56.288 L 51.829,61.546 L 48.628,68.863 L 47.256,68.406 L 46.342,67.948 L 43.598,66.805 L 34.91,62.918 L 38.111,55.602 L 38.111,55.602 L 40.626,50.114 L 40.626,50.114 L 42.912,44.856 L 42.912,44.856 L 44.055,42.34 L 44.284,42.112 L 46.113,37.996 L 46.799,36.167 L 47.256,33.423 L 47.942,33.423 Z" fill="rgba(59,130,246,0.25)" fill-rule="evenodd" stroke="rgba(59,130,246,0.9)" stroke-width="0.3" stroke-linejoin="round"/>
</svg>
