<svg xmlns="http://www.w3.org/2000/svg" width="100%" height="100%" viewBox="0 0 100 100" preserveAspectRatio="none">
  <path d="M 70.921,38.339 L 70.692,39.025 L 69.549,42.226 L 68.406,45.884 L 68.406,45.884 L 66.577,50.915 L 65.891,53.201 L 65.891,53.43 L 64.747,56.402 L 64.747,56.402 L 63.833,59.146 L 62.918,62.118 L 62.69,62.347 L 61.318,66.691 L 61.089,67.377 L 59.717,71.264 L 58.574,71.492 L 53.315,71.95 L 50.343,72.178 L 46.685,72.407 L 46.227,72.636 L 45.084,72.636 L 44.17,72.864 L 40.283,73.093 L 36.853,73.322 L 36.624,73.322 L 33.195,73.55 L 31.366,73.779 L 29.079,74.236 L 29.079,74.236 L 29.079,74.007 L 29.079,72.636 L 29.079,68.749 L 29.308,66.462 L 29.536,64.404 L 29.536,64.404 L 29.536,63.947 L 29.536,63.719 L 29.994,62.347 L 30.222,61.432 L 30.222,61.203 L 30.68,59.603 L 31.366,57.774 L 31.366,57.545 L 32.052,55.945 L 32.509,54.116 L 32.509,54.116 L 32.966,52.972 L 33.652,51.143 L 33.652,51.143 L 34.109,49.314 L 34.795,47.942 L 34.795,47.714 L 35.253,46.113 L 35.938,44.055 L 35.938,44.055 L 36.167,43.827 L 36.167,43.598 L 37.539,39.482 L 38.454,36.51 L 38.454,36.51 L 39.139,34.91 L 39.825,33.08 L 39.825,33.08 L 40.969,29.194 L 42.112,26.45 L 42.112,26.45 L 42.34,25.764 L 48.057,28.279 L 53.087,30.565 L 53.773,30.794 L 53.773,30.794 L 54.916,31.251 L 54.916,31.251 L 57.66,32.623 L 57.66,32.623 L 61.775,34.452 L 61.775,34.452 L 65.891,36.281 L 66.119,36.281 L 68.406,37.196 L 70.921,38.339 L 70.921,38.339 Z" fill="rgba(59,130,246,0.25)" fill-rule="evenodd" stroke="rgba(59,130,246,0.9)" stroke-width="0.3" stroke-linejoin="round"/>
</svg>
