<svg xmlns="http://www.w3.org/2000/svg" width="100%" height="100%" viewBox="0 0 100 100" preserveAspectRatio="none">
  <path d="M 53.658,67.263 L 53.201,67.034 L 52.058,66.805 L 52.058,66.805 L 50.915,66.119 L 44.284,62.004 L 44.284,62.004 L 41.769,60.632 L 42.226,59.26 L 43.369,56.745 L 44.284,54.687 L 44.97,53.315 L 45.427,52.401 L 45.427,52.172 L 45.427,51.943 L 45.199,50.572 L 45.199,49.886 L 44.97,48.514 L 44.97,48.514 L 44.741,47.828 L 43.598,44.398 L 42.912,41.883 L 41.54,37.082 L 41.083,35.71 L 42.455,35.253 L 45.199,34.567 L 49.085,33.652 L 49.314,33.423 L 50.686,33.195 L 52.286,32.737 L 52.286,33.423 L 53.658,37.768 L 54.116,39.139 L 55.487,43.026 L 55.716,43.712 L 57.545,49.2 L 58.002,50.572 L 58.002,50.8 L 58.688,53.087 L 58.688,54.687 L 58.917,56.059 L 58.917,56.745 L 58.688,57.202 L 58.688,57.66 L 58.002,59.489 L 57.774,59.946 L 57.545,60.632 L 56.631,62.004 L 54.344,66.119 L 54.116,66.577 L 54.116,66.577 L 53.658,67.263 Z" fill="rgba(59,130,246,0.25)" fill-rule="evenodd" stroke="rgba(59,130,246,0.9)" stroke-width="0.3" stroke-linejoin="round"/>
</svg>
