<svg xmlns="http://www.w3.org/2000/svg" width="100%" height="100%" viewBox="0 0 100 100" preserveAspectRatio="none">
  <path d="M 28.393,50.8 L 29.994,47.142 L 30.222,46.685 L 31.137,44.398 L 32.966,40.511 L 34.109,37.768 L 36.167,33.195 L 36.167,33.195 L 54.459,42.112 L 60.632,45.084 L 60.861,45.313 L 60.861,45.313 L 71.607,50.572 L 68.406,55.602 L 66.119,59.031 L 63.604,62.69 L 60.861,66.805 L 56.974,64.747 L 54.23,63.604 L 54.23,63.604 L 51.943,62.461 L 50.8,62.004 L 47.371,60.175 L 47.142,60.175 L 45.313,59.26 L 45.313,59.26 L 39.139,56.288 L 37.082,55.144 L 29.536,51.486 L 28.393,50.8 L 28.393,50.8 L 28.393,50.8 Z" fill="rgba(59,130,246,0.25)" fill-rule="evenodd" stroke="rgba(59,130,246,0.9)" stroke-width="0.3" stroke-linejoin="round"/>
</svg>
