<svg xmlns="http://www.w3.org/2000/svg" width="100%" height="100%" viewBox="0 0 100 100" preserveAspectRatio="none">
  <path d="M 43.141,61.318 L 35.824,54.459 L 42.912,46.685 L 42.912,46.685 L 44.284,45.084 L 47.028,42.34 L 47.028,42.34 L 52.286,36.396 L 53.201,35.71 L 53.887,37.082 L 54.573,38.225 L 56.402,40.969 L 57.317,42.34 L 58.231,43.941 L 58.231,43.941 L 59.374,45.77 L 59.603,46.227 L 60.746,48.285 L 61.203,48.971 L 61.432,49.2 L 63.49,52.858 L 64.176,54.001 L 62.575,54.916 L 56.631,58.345 L 56.402,58.345 L 56.402,58.574 L 54.116,59.717 L 54.116,59.717 L 50.0,62.232 L 47.714,63.604 L 47.256,63.833 L 46.57,64.29 L 46.57,64.29 L 44.97,62.918 L 43.141,61.318 L 43.141,61.318 Z" fill="rgba(59,130,246,0.25)" fill-rule="evenodd" stroke="rgba(59,130,246,0.9)" stroke-width="0.3" stroke-linejoin="round"/>
</svg>
