<svg xmlns="http://www.w3.org/2000/svg" width="100%" height="100%" viewBox="0 0 100 100" preserveAspectRatio="none">
  <path d="M 40.74,40.397 L 39.825,31.937 L 39.597,31.023 L 39.597,31.023 L 46.456,33.995 L 53.773,37.196 L 56.516,36.967 L 56.745,38.568 L 57.431,43.827 L 57.431,43.827 L 57.888,47.485 L 57.888,47.714 L 57.888,47.714 L 58.117,49.771 L 58.117,49.771 L 58.117,50.0 L 58.345,52.058 L 58.574,53.887 L 59.031,56.859 L 60.403,66.92 L 60.403,66.92 L 57.431,67.148 L 53.315,67.834 L 53.315,67.834 L 51.715,68.063 L 51.715,68.063 L 45.999,68.749 L 44.627,68.977 L 40.74,40.397 Z" fill="rgba(59,130,246,0.25)" fill-rule="evenodd" stroke="rgba(59,130,246,0.9)" stroke-width="0.3" stroke-linejoin="round"/>
</svg>
