<svg xmlns="http://www.w3.org/2000/svg" width="100%" height="100%" viewBox="0 0 100 100" preserveAspectRatio="none">
  <path d="M 45.541,65.776 L 45.541,65.776 L 43.484,62.804 L 42.112,61.203 L 42.112,61.203 L 37.31,54.573 L 37.082,53.887 L 34.109,50.0 L 33.652,49.314 L 32.737,47.942 L 31.594,46.342 L 30.68,45.199 L 29.994,44.055 L 29.994,44.055 L 26.335,39.025 L 25.192,37.196 L 24.049,35.596 L 22.677,33.766 L 22.677,33.766 L 22.906,33.08 L 24.049,33.538 L 26.793,34.681 L 29.536,35.596 L 33.195,37.196 L 35.481,38.111 L 36.853,38.568 L 38.225,39.025 L 40.969,40.168 L 43.712,41.083 L 47.599,42.683 L 48.057,42.683 L 49.428,43.369 L 51.943,44.284 L 53.773,44.97 L 56.059,45.884 L 56.745,46.113 L 58.803,47.028 L 61.318,47.942 L 62.004,48.171 L 62.918,48.628 L 64.062,48.4 L 65.891,46.57 L 67.491,44.97 L 68.634,43.598 L 68.863,43.369 L 70.235,41.998 L 72.293,40.168 L 74.579,37.882 L 75.951,36.51 L 76.408,36.053 L 77.323,36.281 L 77.094,36.739 L 76.866,36.739 L 76.637,36.967 L 71.835,41.54 L 63.833,49.543 L 61.318,52.286 L 57.66,55.716 L 57.66,55.716 L 53.544,59.832 L 53.087,60.289 L 47.142,66.234 L 46.913,66.234 L 46.227,66.92 L 45.77,66.234 L 45.541,65.776 Z" fill="rgba(59,130,246,0.25)" fill-rule="evenodd" stroke="rgba(59,130,246,0.9)" stroke-width="0.3" stroke-linejoin="round"/>
</svg>
