<svg xmlns="http://www.w3.org/2000/svg" width="100%" height="100%" viewBox="0 0 100 100" preserveAspectRatio="none">
  <path d="M 31.823,52.858 L 37.31,35.938 L 37.31,35.938 L 67.491,39.139 L 67.72,39.368 L 68.863,39.368 L 68.634,40.054 L 68.177,41.655 L 66.805,45.77 L 65.891,48.971 L 65.205,50.572 L 64.747,51.943 L 64.747,51.943 L 63.147,56.516 L 61.775,60.861 L 60.632,64.062 L 60.632,64.062 L 56.974,62.69 L 56.516,62.69 L 53.315,61.546 L 53.315,61.546 L 48.742,59.946 L 48.285,59.946 L 42.569,57.888 L 42.34,57.888 L 39.825,56.974 L 39.139,56.974 L 38.682,56.745 L 32.509,54.687 L 31.137,54.23 L 31.823,52.858 Z" fill="rgba(59,130,246,0.25)" fill-rule="evenodd" stroke="rgba(59,130,246,0.9)" stroke-width="0.3" stroke-linejoin="round"/>
</svg>
