<svg xmlns="http://www.w3.org/2000/svg" width="100%" height="100%" viewBox="0 0 100 100" preserveAspectRatio="none">
  <path d="M 42.112,66.234 L 39.597,64.176 L 38.682,63.49 L 38.225,63.033 L 33.195,58.46 L 33.652,58.002 L 34.338,57.317 L 40.74,50.229 L 42.112,48.628 L 42.569,48.171 L 44.627,45.656 L 51.486,38.111 L 51.943,37.882 L 52.172,37.425 L 52.629,36.967 L 52.401,35.367 L 52.401,31.937 L 52.629,31.251 L 55.373,33.309 L 56.059,33.766 L 56.516,33.995 L 57.202,34.452 L 59.717,36.739 L 62.461,39.025 L 62.69,39.254 L 64.747,41.083 L 65.662,41.769 L 66.805,42.912 L 63.147,47.485 L 59.26,52.515 L 58.803,52.972 L 57.202,54.801 L 54.23,58.231 L 53.544,58.917 L 50.343,62.804 L 50.114,63.033 L 49.886,63.033 L 48.057,65.319 L 45.999,67.605 L 45.77,68.063 L 45.541,68.291 L 45.084,68.749 L 42.112,66.234 Z" fill="rgba(59,130,246,0.25)" fill-rule="evenodd" stroke="rgba(59,130,246,0.9)" stroke-width="0.3" stroke-linejoin="round"/>
</svg>
