<svg xmlns="http://www.w3.org/2000/svg" width="100%" height="100%" viewBox="0 0 100 100" preserveAspectRatio="none">
  <path d="M 63.919,20.762 L 62.947,23.62 L 62.204,25.907 L 61.232,28.65 L 60.66,30.251 L 60.432,30.937 L 60.146,31.737 L 60.146,31.794 L 60.089,31.851 L 59.803,32.309 L 59.517,32.766 L 53.401,43.569 L 47.228,54.316 L 47.228,54.544 L 47.171,55.173 L 47.171,55.23 L 47.171,55.287 L 47.171,55.345 L 46.885,68.32 L 46.77,75.294 L 46.77,76.208 L 46.713,76.951 L 46.656,77.066 L 46.142,78.037 L 44.77,80.61 L 42.14,85.697 L 42.14,85.697 L 42.14,85.697 L 34.024,82.496 L 34.024,82.496 L 34.367,81.924 L 35.11,80.724 L 36.196,78.094 L 39.511,69.635 L 40.197,67.977 L 40.254,67.806 L 49.343,42.369 L 54.487,23.735 L 56.545,14.303 L 56.545,14.303 L 57.059,14.303 L 57.402,14.303 L 59.574,14.36 L 61.632,14.475 L 64.89,14.703 L 65.976,14.76 L 63.919,20.762 Z" fill="rgba(59,130,246,0.25)" fill-rule="evenodd" stroke="rgba(59,130,246,0.9)" stroke-width="0.3" stroke-linejoin="round"/>
</svg>
