<svg xmlns="http://www.w3.org/2000/svg" width="100%" height="100%" viewBox="0 0 100 100" preserveAspectRatio="none">
  <path d="M 33.538,57.317 L 38.111,37.882 L 38.339,36.739 L 41.083,37.196 L 47.028,38.797 L 48.4,39.025 L 53.201,40.168 L 58.002,41.54 L 59.832,41.769 L 65.09,43.141 L 66.462,43.369 L 66.691,43.369 L 66.234,45.199 L 65.09,50.0 L 63.261,57.088 L 56.173,55.487 L 48.4,53.658 L 48.4,54.344 L 47.714,56.402 L 47.485,57.317 L 47.485,57.545 L 47.256,58.231 L 46.799,60.746 L 46.342,62.575 L 44.513,62.118 L 44.284,63.261 L 39.711,60.975 L 35.824,59.146 L 33.766,58.46 L 33.309,58.231 L 33.309,58.002 L 33.538,57.317 Z M 42.455,61.661 L 40.168,61.203 L 44.513,62.118 L 42.455,61.661 Z M 44.513,53.201 L 46.57,53.887 L 46.57,53.887 L 44.513,53.201 Z M 44.513,53.201 L 44.513,53.201 L 46.57,53.887 L 44.513,53.201 Z" fill="rgba(59,130,246,0.25)" fill-rule="evenodd" stroke="rgba(59,130,246,0.9)" stroke-width="0.3" stroke-linejoin="round"/>
</svg>
