<svg xmlns="http://www.w3.org/2000/svg" width="100%" height="100%" viewBox="0 0 100 100" preserveAspectRatio="none">
  <path d="M 65.891,50.457 L 64.747,52.744 L 60.861,61.432 L 60.403,62.575 L 59.031,61.889 L 58.803,61.889 L 58.117,61.661 L 55.602,60.289 L 54.23,59.603 L 42.112,53.658 L 40.283,52.744 L 35.481,50.457 L 34.109,49.543 L 34.338,48.628 L 38.911,39.025 L 39.139,37.882 L 39.597,37.425 L 43.026,39.025 L 45.313,40.168 L 46.456,40.854 L 46.456,40.854 L 48.971,41.998 L 49.886,42.455 L 52.401,43.598 L 52.401,43.598 L 54.23,44.741 L 56.059,45.656 L 56.059,45.656 L 56.745,45.884 L 57.202,46.113 L 57.202,46.113 L 59.717,47.256 L 64.062,49.543 L 64.519,49.771 L 65.891,50.457 Z" fill="rgba(59,130,246,0.25)" fill-rule="evenodd" stroke="rgba(59,130,246,0.9)" stroke-width="0.3" stroke-linejoin="round"/>
</svg>
