<svg xmlns="http://www.w3.org/2000/svg" width="100%" height="100%" viewBox="0 0 100 100" preserveAspectRatio="none">
  <path d="M 28.05,62.004 L 26.45,60.175 L 26.221,58.803 L 25.993,57.431 L 28.279,48.742 L 28.508,48.057 L 28.508,47.828 L 30.108,46.456 L 30.794,45.77 L 32.623,44.398 L 38.339,38.682 L 38.797,37.996 L 44.055,32.052 L 45.199,30.68 L 51.143,24.506 L 51.372,24.278 L 51.829,23.592 L 52.286,24.049 L 53.201,24.735 L 55.716,26.793 L 58.688,29.308 L 59.603,29.994 L 62.575,32.509 L 63.261,33.195 L 64.176,34.109 L 64.862,34.567 L 65.319,35.024 L 71.95,40.969 L 74.007,43.026 L 66.691,51.258 L 58.231,60.632 L 56.173,62.69 L 51.6,67.948 L 44.055,76.408 L 41.769,74.579 L 36.053,69.549 L 32.395,66.119 L 32.395,66.119 L 28.05,62.004 Z M 52.515,45.313 L 48.857,48.971 L 52.286,51.943 L 53.887,53.315 L 59.374,58.345 L 64.633,52.629 L 67.148,49.886 L 71.95,44.627 L 68.291,41.197 L 63.719,37.082 L 58.917,42.34 L 58.917,42.34 L 57.774,43.712 L 55.716,41.883 L 52.515,45.313 Z" fill="rgba(59,130,246,0.25)" fill-rule="evenodd" stroke="rgba(59,130,246,0.9)" stroke-width="0.3" stroke-linejoin="round"/>
</svg>
