<svg xmlns="http://www.w3.org/2000/svg" width="100%" height="100%" viewBox="0 0 100 100" preserveAspectRatio="none">
  <path d="M 52.744,36.739 L 52.972,37.196 L 53.201,37.196 L 53.43,37.653 L 55.03,39.025 L 57.317,41.083 L 57.317,41.312 L 59.832,43.598 L 62.575,46.113 L 62.804,46.113 L 62.118,46.799 L 61.203,47.942 L 58.917,50.457 L 57.317,52.058 L 56.173,53.43 L 53.887,55.716 L 50.0,60.06 L 47.485,63.033 L 47.028,63.261 L 46.57,62.804 L 37.882,54.573 L 37.196,53.887 L 38.339,52.744 L 40.397,50.457 L 41.54,49.085 L 43.827,46.57 L 44.741,45.656 L 45.656,44.513 L 47.714,42.226 L 47.942,41.998 L 50.0,39.711 L 51.6,37.882 L 52.058,37.425 L 52.744,36.739 Z" fill="rgba(59,130,246,0.25)" fill-rule="evenodd" stroke="rgba(59,130,246,0.9)" stroke-width="0.3" stroke-linejoin="round"/>
</svg>
