<svg xmlns="http://www.w3.org/2000/svg" width="100%" height="100%" viewBox="0 0 100 100" preserveAspectRatio="none">
  <path d="M 34.91,46.227 L 40.397,40.054 L 45.199,34.567 L 46.113,35.253 L 48.628,37.768 L 50.915,39.825 L 51.143,39.825 L 53.43,42.112 L 55.945,44.17 L 55.945,44.17 L 58.46,46.456 L 60.975,48.742 L 61.203,48.971 L 63.033,50.572 L 64.176,51.715 L 65.09,52.401 L 64.404,53.544 L 57.545,63.833 L 56.631,65.433 L 55.716,64.747 L 55.259,64.29 L 54.344,63.604 L 54.344,63.604 L 53.887,63.147 L 53.887,63.147 L 52.058,61.775 L 50.457,60.175 L 47.714,57.66 L 47.714,57.66 L 47.028,57.202 L 46.799,56.745 L 45.884,56.059 L 45.884,56.059 L 43.141,53.544 L 40.626,51.258 L 40.626,51.258 L 34.91,46.227 Z" fill="rgba(59,130,246,0.25)" fill-rule="evenodd" stroke="rgba(59,130,246,0.9)" stroke-width="0.3" stroke-linejoin="round"/>
</svg>
