<svg xmlns="http://www.w3.org/2000/svg" width="100%" height="100%" viewBox="0 0 100 100" preserveAspectRatio="none">
  <path d="M 56.059,65.776 L 56.059,65.548 L 55.602,65.548 L 54.916,65.319 L 54.687,66.462 L 50.8,63.261 L 49.2,61.432 L 48.057,59.374 L 47.599,57.317 L 45.313,56.173 L 45.084,56.173 L 42.112,54.573 L 40.054,53.201 L 39.597,52.972 L 39.139,53.43 L 35.71,51.829 L 35.481,49.771 L 35.481,49.543 L 35.253,46.799 L 35.253,45.656 L 34.795,44.513 L 34.795,44.284 L 34.795,43.598 L 34.795,43.598 L 34.795,43.598 L 34.795,43.827 L 34.795,43.598 L 35.024,40.626 L 35.024,41.083 L 35.024,40.626 L 35.253,36.51 L 35.481,34.681 L 35.481,33.538 L 39.139,34.91 L 39.597,35.138 L 40.283,35.367 L 44.17,37.882 L 45.77,38.797 L 47.828,40.397 L 48.057,40.397 L 48.285,40.626 L 48.285,40.626 L 53.315,44.055 L 53.544,44.284 L 56.059,45.884 L 58.803,47.714 L 59.26,47.942 L 60.175,48.628 L 60.175,48.628 L 61.089,49.314 L 64.747,51.6 L 65.205,51.829 L 64.976,52.058 L 62.69,54.801 L 61.775,56.173 L 60.861,57.088 L 59.26,58.917 L 58.117,60.289 L 57.431,61.661 L 56.974,62.347 L 56.288,63.49 L 56.288,63.719 L 55.83,64.404 L 55.83,65.09 L 56.059,65.776 Z" fill="rgba(59,130,246,0.25)" fill-rule="evenodd" stroke="rgba(59,130,246,0.9)" stroke-width="0.3" stroke-linejoin="round"/>
</svg>
