<svg xmlns="http://www.w3.org/2000/svg" width="100%" height="100%" viewBox="0 0 100 100" preserveAspectRatio="none">
  <path d="M 63.604,33.652 L 63.147,34.567 L 62.461,35.938 L 61.546,38.225 L 61.546,38.454 L 58.574,44.398 L 56.516,49.2 L 55.144,52.401 L 55.144,52.401 L 54.916,52.629 L 54.459,53.773 L 54.001,54.687 L 49.428,64.29 L 46.913,69.778 L 46.685,70.235 L 46.456,70.921 L 43.255,69.32 L 40.054,67.72 L 37.996,66.805 L 36.396,65.891 L 36.624,65.205 L 40.283,57.202 L 44.398,48.057 L 44.627,47.371 L 45.084,46.685 L 49.886,36.396 L 52.858,29.765 L 53.315,29.079 L 55.83,30.222 L 56.516,30.68 L 58.803,31.594 L 62.232,33.195 L 62.232,33.195 L 63.604,33.652 Z" fill="rgba(59,130,246,0.25)" fill-rule="evenodd" stroke="rgba(59,130,246,0.9)" stroke-width="0.3" stroke-linejoin="round"/>
</svg>
