<svg xmlns="http://www.w3.org/2000/svg" width="100%" height="100%" viewBox="0 0 100 100" preserveAspectRatio="none">
  <path d="M 35.481,54.23 L 36.167,53.773 L 37.996,52.629 L 37.996,52.629 L 38.911,51.943 L 39.368,51.715 L 44.17,48.971 L 46.227,48.057 L 48.057,46.913 L 49.657,45.77 L 51.258,44.398 L 53.087,41.883 L 54.916,40.054 L 55.602,38.454 L 57.888,32.737 L 64.062,35.481 L 66.577,36.624 L 68.406,42.112 L 67.263,43.712 L 67.263,43.026 L 65.433,45.541 L 64.747,46.456 L 64.519,48.742 L 62.918,49.2 L 60.175,52.629 L 58.117,54.916 L 56.974,56.516 L 55.83,57.66 L 54.23,59.717 L 53.315,60.861 L 53.773,62.461 L 53.773,63.147 L 51.258,63.833 L 50.343,62.918 L 47.142,65.205 L 44.398,67.263 L 42.34,67.263 L 41.426,67.263 L 39.368,67.263 L 37.768,66.119 L 37.539,65.891 L 36.167,64.976 L 35.938,64.747 L 34.567,63.604 L 33.881,63.376 L 33.423,63.147 L 33.195,63.833 L 31.594,62.69 L 32.966,58.117 L 33.881,56.745 L 35.481,54.23 Z" fill="rgba(59,130,246,0.25)" fill-rule="evenodd" stroke="rgba(59,130,246,0.9)" stroke-width="0.3" stroke-linejoin="round"/>
</svg>
