<svg xmlns="http://www.w3.org/2000/svg" width="100%" height="100%" viewBox="0 0 100 100" preserveAspectRatio="none">
  <path d="M 39.025,59.603 L 39.025,57.317 L 39.025,56.859 L 39.025,53.658 L 42.455,50.457 L 42.455,50.457 L 42.455,49.771 L 42.683,48.857 L 43.141,48.4 L 43.598,47.942 L 46.799,44.741 L 47.942,43.827 L 48.628,42.912 L 49.314,41.998 L 52.058,38.797 L 52.058,38.797 L 53.201,37.653 L 51.6,36.053 L 51.372,35.824 L 51.6,35.367 L 53.43,32.623 L 52.744,31.937 L 53.887,30.108 L 57.545,33.538 L 63.261,38.568 L 65.548,40.397 L 65.09,40.854 L 63.261,42.912 L 59.832,46.57 L 54.344,52.286 L 41.54,66.234 L 39.482,69.892 L 34.452,69.435 L 34.452,69.435 L 35.824,64.633 L 36.053,63.947 L 38.568,60.289 L 39.025,59.603 Z M 43.141,52.286 L 42.455,50.915 L 42.455,50.457 L 43.141,52.286 Z M 48.4,49.314 L 48.628,50.0 L 47.942,48.4 L 48.4,49.314 Z" fill="rgba(59,130,246,0.25)" fill-rule="evenodd" stroke="rgba(59,130,246,0.9)" stroke-width="0.3" stroke-linejoin="round"/>
</svg>
