<svg xmlns="http://www.w3.org/2000/svg" width="100%" height="100%" viewBox="0 0 100 100" preserveAspectRatio="none">
  <path d="M 62.69,35.596 L 62.232,36.281 L 62.004,37.196 L 60.632,39.94 L 60.403,40.626 L 60.175,40.854 L 58.803,43.827 L 58.803,43.827 L 58.803,44.055 L 58.803,44.284 L 57.202,47.485 L 55.602,51.143 L 54.459,53.658 L 47.828,68.977 L 47.828,68.977 L 47.828,68.977 L 42.112,66.462 L 37.31,64.404 L 40.969,56.402 L 41.655,54.801 L 44.856,47.485 L 45.084,46.799 L 49.657,36.739 L 50.343,34.91 L 52.172,31.023 L 53.544,31.48 L 58.803,33.995 L 59.489,34.224 L 62.69,35.596 Z" fill="rgba(59,130,246,0.25)" fill-rule="evenodd" stroke="rgba(59,130,246,0.9)" stroke-width="0.3" stroke-linejoin="round"/>
</svg>
