<svg xmlns="http://www.w3.org/2000/svg" width="100%" height="100%" viewBox="0 0 100 100" preserveAspectRatio="none">
  <path d="M 21.42,45.999 L 24.621,38.682 L 26.907,33.423 L 27.822,31.366 L 28.965,32.052 L 32.166,33.423 L 35.138,34.795 L 35.138,34.795 L 35.596,35.024 L 39.94,36.853 L 45.427,39.368 L 45.427,39.368 L 45.656,39.597 L 45.884,39.597 L 52.744,42.798 L 52.972,42.798 L 58.46,45.084 L 58.46,45.084 L 65.319,48.057 L 65.319,48.057 L 71.035,50.572 L 72.636,51.258 L 78.809,54.23 L 77.208,57.66 L 72.636,68.177 L 72.407,68.634 L 70.121,67.72 L 67.148,66.348 L 67.148,66.348 L 66.92,66.348 L 65.548,65.662 L 62.347,64.29 L 59.146,62.69 L 58.917,62.69 L 55.03,61.089 L 50.229,59.031 L 50.229,58.803 L 47.485,57.66 L 47.485,57.66 L 43.827,56.059 L 43.598,56.059 L 43.369,55.83 L 41.769,55.144 L 39.254,54.001 L 38.568,53.773 L 34.91,52.172 L 34.91,52.172 L 34.681,52.172 L 34.452,51.943 L 31.709,50.8 L 31.709,50.8 L 31.48,50.8 L 28.736,49.428 L 28.736,49.428 L 28.736,49.428 L 28.736,49.428 L 25.993,48.285 L 22.563,46.685 L 21.191,46.227 L 21.42,45.999 Z" fill="rgba(59,130,246,0.25)" fill-rule="evenodd" stroke="rgba(59,130,246,0.9)" stroke-width="0.3" stroke-linejoin="round"/>
</svg>
