<svg xmlns="http://www.w3.org/2000/svg" width="100%" height="100%" viewBox="0 0 100 100" preserveAspectRatio="none">
  <path d="M 78.809,58.117 L 68.063,61.546 L 66.92,62.004 L 56.173,65.205 L 46.799,68.406 L 40.626,70.464 L 38.339,71.149 L 37.653,71.378 L 36.967,69.778 L 35.138,64.976 L 34.452,62.461 L 34.452,62.461 L 33.995,60.861 L 33.766,60.632 L 33.309,60.175 L 31.709,58.574 L 30.337,57.431 L 29.879,56.974 L 28.736,55.83 L 27.822,54.687 L 27.364,54.001 L 26.907,53.087 L 26.907,53.087 L 25.993,51.258 L 24.621,48.742 L 23.935,48.057 L 23.477,47.599 L 22.106,46.685 L 21.42,46.227 L 21.191,45.999 L 21.648,45.77 L 22.106,46.456 L 23.249,45.77 L 24.621,44.398 L 26.45,43.255 L 28.279,41.883 L 32.395,39.597 L 33.766,38.911 L 34.91,38.225 L 38.339,42.112 L 41.769,38.911 L 46.113,42.798 L 47.485,43.712 L 47.028,45.999 L 52.972,48.514 L 57.545,53.773 L 59.832,53.315 L 58.688,47.142 L 59.603,40.511 L 63.947,38.225 L 66.234,37.539 L 66.234,36.853 L 65.776,36.396 L 64.404,34.338 L 63.947,33.881 L 63.261,31.823 L 63.49,30.451 L 63.261,29.079 L 63.261,28.851 L 63.49,28.851 L 64.404,28.622 L 66.234,28.622 L 68.291,29.308 L 72.864,30.908 L 72.864,30.908 L 72.864,31.366 L 72.864,31.594 L 72.636,33.195 L 72.636,33.195 L 72.636,34.109 L 72.636,34.338 L 72.407,35.024 L 72.407,35.481 L 72.407,36.167 L 72.636,36.853 L 73.093,38.454 L 73.322,39.139 L 73.55,39.597 L 73.55,40.969 L 73.55,41.426 L 73.55,41.655 L 73.779,42.112 L 73.779,42.569 L 74.236,43.484 L 74.693,44.627 L 74.693,45.084 L 74.922,45.084 L 74.922,45.313 L 74.922,45.541 L 75.151,45.999 L 75.379,46.456 L 76.294,49.657 L 76.523,50.8 L 76.751,51.486 L 77.666,54.23 L 78.352,56.288 L 78.352,56.745 L 78.58,56.974 L 78.809,58.117 Z" fill="rgba(59,130,246,0.25)" fill-rule="evenodd" stroke="rgba(59,130,246,0.9)" stroke-width="0.3" stroke-linejoin="round"/>
</svg>
