<svg xmlns="http://www.w3.org/2000/svg" width="100%" height="100%" viewBox="0 0 100 100" preserveAspectRatio="none">
  <path d="M 48.971,36.853 L 56.974,40.511 L 60.175,41.883 L 60.175,41.883 L 60.175,42.112 L 58.117,46.227 L 56.288,50.343 L 56.059,50.8 L 55.83,51.486 L 54.001,55.602 L 53.773,55.83 L 53.544,56.059 L 53.544,56.288 L 53.087,56.974 L 51.258,60.175 L 50.8,60.632 L 49.886,62.232 L 49.428,63.147 L 48.742,62.461 L 44.398,58.345 L 43.484,57.431 L 40.283,54.23 L 39.825,53.773 L 39.825,53.773 L 40.511,52.629 L 41.197,51.486 L 44.856,45.313 L 45.084,44.856 L 46.456,42.569 L 48.742,37.768 L 48.971,36.853 Z" fill="rgba(59,130,246,0.25)" fill-rule="evenodd" stroke="rgba(59,130,246,0.9)" stroke-width="0.3" stroke-linejoin="round"/>
</svg>
