<svg xmlns="http://www.w3.org/2000/svg" width="100%" height="100%" viewBox="0 0 100 100" preserveAspectRatio="none">
  <path d="M 65.205,66.348 L 53.544,70.006 L 51.715,70.692 L 39.139,74.579 L 38.911,74.579 L 38.454,74.808 L 38.454,74.808 L 36.167,73.436 L 35.938,69.778 L 35.71,65.433 L 35.71,65.205 L 35.71,63.376 L 35.481,59.717 L 35.024,54.687 L 35.024,54.687 L 34.795,48.742 L 34.795,47.371 L 34.795,47.371 L 34.567,44.17 L 34.338,40.969 L 34.338,40.969 L 34.338,40.511 L 34.338,40.283 L 34.109,38.454 L 34.109,37.082 L 34.109,37.082 L 34.109,36.624 L 34.109,36.396 L 33.881,32.28 L 33.881,32.28 L 33.423,28.165 L 33.423,28.165 L 35.71,27.707 L 37.539,27.479 L 40.969,27.25 L 41.197,27.25 L 44.627,27.021 L 48.514,26.793 L 49.428,26.564 L 50.572,26.564 L 51.029,26.335 L 54.687,26.107 L 57.66,25.878 L 62.918,25.421 L 64.062,25.192 L 64.062,25.421 L 64.062,26.793 L 64.519,29.765 L 64.747,35.481 L 64.747,35.71 L 64.976,38.682 L 65.205,42.112 L 65.205,42.112 L 65.205,44.627 L 65.205,44.627 L 65.433,48.742 L 65.891,52.858 L 65.891,52.858 L 65.891,55.144 L 66.119,57.431 L 66.119,57.66 L 66.348,61.775 L 66.577,64.29 L 66.577,65.891 L 65.205,66.348 Z" fill="rgba(59,130,246,0.25)" fill-rule="evenodd" stroke="rgba(59,130,246,0.9)" stroke-width="0.3" stroke-linejoin="round"/>
</svg>
