<svg xmlns="http://www.w3.org/2000/svg" width="100%" height="100%" viewBox="0 0 100 100" preserveAspectRatio="none">
  <path d="M 50.572,63.947 L 45.313,65.09 L 40.969,66.005 L 39.597,66.234 L 35.71,66.92 L 35.024,66.691 L 34.109,66.234 L 38.454,59.374 L 40.283,56.631 L 41.197,55.259 L 43.712,51.143 L 46.456,47.028 L 48.285,44.284 L 49.886,41.769 L 55.373,33.08 L 56.288,33.766 L 57.66,34.681 L 59.489,36.053 L 59.717,36.053 L 59.717,36.053 L 60.632,36.739 L 62.461,37.882 L 64.747,39.254 L 65.891,40.168 L 65.891,40.168 L 65.433,40.626 L 65.205,41.312 L 63.833,43.141 L 61.775,46.342 L 61.318,47.028 L 61.089,47.485 L 59.26,50.457 L 58.345,51.6 L 58.117,52.286 L 56.059,55.487 L 54.916,57.088 L 54.916,57.088 L 53.087,60.06 L 52.172,61.432 L 51.943,62.804 L 51.715,63.719 L 50.572,63.947 L 50.572,63.947 Z" fill="rgba(59,130,246,0.25)" fill-rule="evenodd" stroke="rgba(59,130,246,0.9)" stroke-width="0.3" stroke-linejoin="round"/>
</svg>
