<svg xmlns="http://www.w3.org/2000/svg" width="100%" height="100%" viewBox="0 0 100 100" preserveAspectRatio="none">
  <path d="M 54.916,73.665 L 54.687,73.665 L 43.255,68.634 L 43.255,68.634 L 33.881,64.519 L 27.25,61.546 L 24.964,60.632 L 25.65,59.031 L 29.994,48.742 L 30.222,47.828 L 31.137,45.77 L 32.509,42.569 L 33.195,41.197 L 33.423,40.74 L 35.71,35.253 L 36.853,32.509 L 37.768,30.222 L 40.054,25.192 L 40.74,23.82 L 40.74,23.82 L 42.112,24.278 L 43.255,24.964 L 45.541,25.878 L 45.541,25.878 L 47.828,27.021 L 47.828,27.021 L 51.258,28.393 L 53.773,29.536 L 54.001,29.536 L 54.459,29.765 L 59.26,31.823 L 59.26,31.823 L 64.519,34.109 L 64.519,34.109 L 69.092,36.167 L 69.092,36.167 L 73.893,38.225 L 75.036,38.682 L 75.036,38.682 L 72.521,45.084 L 72.521,45.084 L 70.692,49.657 L 70.692,50.114 L 70.692,50.114 L 68.406,55.83 L 68.406,55.83 L 67.72,57.66 L 67.72,57.66 L 65.891,62.69 L 65.891,62.69 L 64.976,64.976 L 64.976,65.205 L 63.147,70.006 L 62.918,70.235 L 61.089,75.036 L 60.861,76.18 L 59.489,75.722 L 54.916,73.665 Z" fill="rgba(59,130,246,0.25)" fill-rule="evenodd" stroke="rgba(59,130,246,0.9)" stroke-width="0.3" stroke-linejoin="round"/>
</svg>
