<svg xmlns="http://www.w3.org/2000/svg" width="100%" height="100%" viewBox="0 0 100 100" preserveAspectRatio="none">
  <path d="M 29.651,53.201 L 29.651,53.201 L 30.108,52.286 L 36.281,35.367 L 39.254,36.51 L 39.254,36.51 L 41.54,37.425 L 47.256,39.254 L 56.173,42.226 L 56.402,41.998 L 56.859,41.769 L 56.859,41.312 L 57.317,41.54 L 58.002,42.226 L 60.06,44.284 L 61.661,46.113 L 62.575,47.256 L 62.804,47.256 L 64.633,49.543 L 69.663,54.801 L 70.349,55.487 L 70.349,59.146 L 68.291,60.975 L 65.09,63.719 L 65.319,64.633 L 63.719,64.176 L 57.317,62.347 L 39.025,56.173 L 34.224,54.573 L 29.651,53.201 Z M 63.033,50.457 L 69.206,57.317 L 64.633,52.058 L 63.033,50.457 Z" fill="rgba(59,130,246,0.25)" fill-rule="evenodd" stroke="rgba(59,130,246,0.9)" stroke-width="0.3" stroke-linejoin="round"/>
</svg>
