<svg xmlns="http://www.w3.org/2000/svg" width="100%" height="100%" viewBox="0 0 100 100" preserveAspectRatio="none">
  <path d="M 45.541,64.29 L 45.541,64.29 L 45.541,64.29 L 45.541,64.29 L 45.999,60.861 L 46.227,58.345 L 46.227,57.66 L 46.227,57.202 L 46.227,57.202 L 45.999,56.288 L 44.398,52.629 L 40.74,44.856 L 40.511,44.17 L 39.825,42.34 L 40.054,42.112 L 40.283,41.883 L 40.74,41.197 L 40.969,40.969 L 42.569,37.768 L 44.398,33.652 L 44.398,33.423 L 45.541,34.109 L 49.886,35.938 L 50.572,36.167 L 50.8,36.167 L 51.943,36.853 L 56.745,38.911 L 56.745,38.911 L 54.001,45.313 L 53.315,46.685 L 52.858,48.285 L 51.486,50.114 L 51.486,50.343 L 51.486,50.343 L 51.943,51.258 L 54.23,56.059 L 55.83,55.83 L 58.117,55.602 L 59.031,55.373 L 58.803,56.745 L 59.031,58.117 L 60.175,62.69 L 60.175,62.918 L 59.946,66.577 L 51.029,65.205 L 45.541,64.29 Z" fill="rgba(59,130,246,0.25)" fill-rule="evenodd" stroke="rgba(59,130,246,0.9)" stroke-width="0.3" stroke-linejoin="round"/>
</svg>
