<svg xmlns="http://www.w3.org/2000/svg" width="100%" height="100%" viewBox="0 0 100 100" preserveAspectRatio="none">
  <path d="M 35.938,63.261 L 35.938,63.033 L 38.682,57.088 L 38.682,56.859 L 40.74,52.515 L 41.197,51.372 L 41.883,49.771 L 44.856,42.912 L 46.227,39.94 L 46.913,38.568 L 50.343,30.794 L 50.343,30.565 L 50.572,30.565 L 64.062,36.281 L 64.062,36.281 L 62.918,39.254 L 62.461,39.94 L 59.946,45.656 L 59.489,46.799 L 59.26,46.799 L 58.803,48.4 L 58.803,48.4 L 56.974,52.515 L 56.974,52.515 L 52.858,61.661 L 49.428,69.435 L 48.285,68.749 L 47.371,68.291 L 45.999,67.605 L 45.999,67.605 L 40.74,65.548 L 37.31,63.947 L 37.082,63.947 L 35.938,63.261 Z" fill="rgba(59,130,246,0.25)" fill-rule="evenodd" stroke="rgba(59,130,246,0.9)" stroke-width="0.3" stroke-linejoin="round"/>
</svg>
