<svg xmlns="http://www.w3.org/2000/svg" width="100%" height="100%" viewBox="0 0 100 100" preserveAspectRatio="none">
  <path d="M 57.545,67.263 L 57.545,67.263 L 54.344,65.891 L 46.342,62.232 L 46.342,62.232 L 43.598,61.089 L 41.54,59.946 L 41.54,59.946 L 39.94,59.26 L 34.452,56.745 L 33.538,56.288 L 36.281,50.114 L 37.882,46.456 L 39.025,43.941 L 41.769,37.539 L 42.912,35.024 L 44.055,32.737 L 44.055,32.737 L 44.284,32.737 L 50.0,36.853 L 50.0,36.853 L 52.744,38.682 L 52.744,38.682 L 55.945,40.74 L 56.173,40.969 L 59.603,43.255 L 66.462,47.828 L 65.319,50.343 L 62.118,57.66 L 61.889,57.888 L 61.889,57.888 L 59.603,62.918 L 57.545,67.263 Z" fill="rgba(59,130,246,0.25)" fill-rule="evenodd" stroke="rgba(59,130,246,0.9)" stroke-width="0.3" stroke-linejoin="round"/>
</svg>
