<svg xmlns="http://www.w3.org/2000/svg" width="100%" height="100%" viewBox="0 0 100 100" preserveAspectRatio="none">
  <path d="M 39.711,50.343 L 39.711,50.343 L 44.741,44.856 L 44.741,44.856 L 47.028,42.34 L 49.543,39.597 L 53.658,34.795 L 59.374,39.825 L 59.374,39.825 L 60.06,40.511 L 61.889,42.112 L 64.633,44.627 L 64.176,44.856 L 63.719,45.541 L 61.889,47.599 L 58.231,51.715 L 57.545,52.401 L 54.573,55.602 L 52.972,57.66 L 50.915,59.946 L 50.686,59.946 L 47.485,63.833 L 46.799,64.519 L 46.342,65.205 L 46.113,65.205 L 40.854,60.175 L 36.053,55.83 L 35.824,55.602 L 35.367,55.144 L 35.367,55.144 L 39.711,50.343 Z" fill="rgba(59,130,246,0.25)" fill-rule="evenodd" stroke="rgba(59,130,246,0.9)" stroke-width="0.3" stroke-linejoin="round"/>
</svg>
