<svg xmlns="http://www.w3.org/2000/svg" width="100%" height="100%" viewBox="0 0 100 100" preserveAspectRatio="none">
  <path d="M 56.631,39.254 L 60.518,52.058 L 63.49,62.118 L 64.176,63.947 L 60.289,65.09 L 59.374,65.319 L 54.344,66.691 L 51.143,67.605 L 48.628,68.291 L 48.4,68.52 L 44.513,69.663 L 42.455,62.118 L 42.226,61.889 L 40.397,55.259 L 39.94,54.344 L 39.482,52.744 L 38.339,49.543 L 37.882,47.485 L 36.053,41.083 L 35.824,40.397 L 35.824,40.397 L 41.54,37.196 L 41.998,36.967 L 49.771,32.395 L 53.658,30.337 L 53.658,30.565 L 54.573,33.08 L 55.945,37.425 L 56.631,39.254 Z" fill="rgba(59,130,246,0.25)" fill-rule="evenodd" stroke="rgba(59,130,246,0.9)" stroke-width="0.3" stroke-linejoin="round"/>
</svg>
