<svg xmlns="http://www.w3.org/2000/svg" width="100%" height="100%" viewBox="0 0 100 100" preserveAspectRatio="none">
  <path d="M 55.259,32.852 L 55.487,32.852 L 55.716,32.852 L 55.716,32.852 L 55.716,33.08 L 63.033,36.281 L 63.033,36.281 L 61.889,38.568 L 60.06,42.683 L 59.374,44.284 L 58.231,46.799 L 58.231,46.799 L 57.545,48.628 L 56.631,50.457 L 56.631,50.457 L 53.201,58.231 L 49.314,67.605 L 48.628,68.977 L 47.256,68.291 L 44.055,67.148 L 44.055,67.148 L 42.683,66.462 L 42.683,66.462 L 39.94,65.319 L 36.967,64.176 L 40.397,56.402 L 44.513,47.256 L 44.513,47.256 L 46.342,43.141 L 46.342,43.141 L 46.799,41.54 L 47.028,41.54 L 47.485,40.397 L 50.0,34.681 L 50.457,33.995 L 51.6,31.023 L 51.829,31.251 L 55.259,32.852 Z" fill="rgba(59,130,246,0.25)" fill-rule="evenodd" stroke="rgba(59,130,246,0.9)" stroke-width="0.3" stroke-linejoin="round"/>
</svg>
