<svg xmlns="http://www.w3.org/2000/svg" width="100%" height="100%" viewBox="0 0 100 100" preserveAspectRatio="none">
  <path d="M 47.142,37.082 L 49.657,37.996 L 54.459,39.368 L 54.23,40.054 L 64.747,43.712 L 64.519,45.084 L 64.519,45.541 L 64.519,45.541 L 63.376,51.258 L 63.376,51.258 L 62.232,57.202 L 61.089,63.833 L 61.089,64.519 L 60.861,64.29 L 60.403,64.062 L 59.26,63.604 L 51.029,59.946 L 50.343,59.717 L 46.913,58.345 L 45.541,57.66 L 44.17,56.974 L 44.17,56.974 L 41.197,55.602 L 38.454,54.459 L 38.454,54.459 L 36.167,53.544 L 35.253,53.087 L 36.624,48.514 L 37.539,45.77 L 38.454,42.798 L 39.368,40.054 L 40.969,35.481 L 44.627,36.396 L 46.913,37.082 L 47.142,37.082 Z" fill="rgba(59,130,246,0.25)" fill-rule="evenodd" stroke="rgba(59,130,246,0.9)" stroke-width="0.3" stroke-linejoin="round"/>
</svg>
