<svg xmlns="http://www.w3.org/2000/svg" width="100%" height="100%" viewBox="0 0 100 100" preserveAspectRatio="none">
  <path d="M 38.797,57.088 L 45.656,46.799 L 46.342,45.656 L 50.686,39.025 L 52.286,36.281 L 53.658,34.224 L 54.573,35.138 L 55.03,35.824 L 55.716,36.51 L 57.317,38.111 L 57.317,38.111 L 59.603,40.397 L 60.746,41.769 L 61.432,42.683 L 61.889,43.369 L 61.889,43.598 L 62.118,43.827 L 61.661,44.741 L 60.746,45.884 L 59.146,48.4 L 57.545,51.143 L 56.859,52.286 L 56.173,53.43 L 55.716,54.116 L 54.344,56.173 L 53.43,57.545 L 51.6,60.518 L 50.0,62.804 L 49.085,64.404 L 48.628,65.319 L 48.4,65.776 L 48.4,65.776 L 47.256,64.862 L 44.97,63.49 L 43.141,62.347 L 42.226,61.661 L 42.226,61.661 L 41.998,61.661 L 40.168,60.289 L 38.797,59.374 L 37.882,58.688 L 37.882,58.688 L 38.797,57.088 Z" fill="rgba(59,130,246,0.25)" fill-rule="evenodd" stroke="rgba(59,130,246,0.9)" stroke-width="0.3" stroke-linejoin="round"/>
</svg>
