<svg xmlns="http://www.w3.org/2000/svg" width="100%" height="100%" viewBox="0 0 100 100" preserveAspectRatio="none">
  <path d="M 49.085,62.918 L 45.427,63.604 L 45.199,60.175 L 44.284,55.144 L 44.741,52.172 L 44.055,49.657 L 44.284,47.599 L 42.455,42.34 L 41.083,40.511 L 42.226,37.082 L 42.226,37.082 L 42.455,36.396 L 43.369,36.396 L 43.827,36.853 L 44.055,37.31 L 44.055,37.31 L 43.827,39.139 L 46.113,40.969 L 47.714,43.484 L 49.085,44.627 L 50.915,48.285 L 53.201,51.258 L 53.658,52.629 L 55.259,56.516 L 57.317,58.117 L 58.917,59.946 L 58.688,60.861 L 54.344,61.775 L 49.085,62.918 Z" fill="rgba(59,130,246,0.25)" fill-rule="evenodd" stroke="rgba(59,130,246,0.9)" stroke-width="0.3" stroke-linejoin="round"/>
</svg>
