<svg xmlns="http://www.w3.org/2000/svg" width="100%" height="100%" viewBox="0 0 100 100" preserveAspectRatio="none">
  <path d="M 27.422,43.712 L 29.022,42.683 L 30.28,41.655 L 31.308,40.626 L 32.109,39.825 L 33.366,38.568 L 34.281,37.539 L 34.967,36.624 L 34.967,36.396 L 35.653,36.624 L 36.224,36.853 L 44.798,37.996 L 47.999,38.454 L 49.143,38.225 L 49.371,38.225 L 50.286,38.111 L 50.514,41.655 L 51.086,43.026 L 50.972,43.598 L 49.486,43.369 L 49.257,44.741 L 49.028,45.999 L 48.8,47.371 L 48.571,48.971 L 48.457,50.343 L 48.228,51.943 L 47.999,53.43 L 47.771,55.03 L 47.771,55.373 L 47.656,55.602 L 47.656,56.516 L 47.656,56.859 L 47.656,57.66 L 47.999,60.861 L 55.202,57.888 L 64.233,54.23 L 65.376,53.43 L 71.207,51.143 L 72.121,48.971 L 64.69,34.338 L 63.776,33.881 L 64.233,33.652 L 64.462,33.538 L 64.462,33.538 L 73.379,51.029 L 68.234,53.087 L 62.518,55.487 L 56.002,58.231 L 50.171,60.632 L 46.513,62.118 L 46.513,62.118 L 43.769,63.261 L 38.511,65.319 L 35.767,66.462 L 35.653,64.633 L 35.538,64.404 L 35.538,64.404 L 36.11,64.747 L 37.139,64.976 L 45.713,61.661 L 44.913,59.946 L 46.285,59.374 L 46.399,58.002 L 46.399,56.745 L 47.542,51.715 L 47.428,47.485 L 38.282,45.427 L 36.11,50.8 L 34.509,54.459 L 33.709,55.83 L 32.337,57.66 L 31.994,57.088 L 29.365,53.201 L 28.679,51.6 L 28.336,50.229 L 26.85,44.513 L 26.621,43.941 L 26.85,43.941 L 27.422,43.712 Z" fill="rgba(59,130,246,0.25)" fill-rule="evenodd" stroke="rgba(59,130,246,0.9)" stroke-width="0.3" stroke-linejoin="round"/>
</svg>
