<svg xmlns="http://www.w3.org/2000/svg" width="100%" height="100%" viewBox="0 0 100 100" preserveAspectRatio="none">
  <path d="M 31.709,55.373 L 31.937,54.916 L 34.452,52.172 L 35.824,50.8 L 40.168,45.999 L 41.312,44.856 L 43.141,42.798 L 47.714,37.539 L 48.4,37.082 L 53.43,41.655 L 55.716,43.712 L 62.575,49.886 L 62.575,49.886 L 64.862,51.943 L 66.462,53.315 L 67.148,53.773 L 68.291,54.916 L 68.063,55.144 L 67.834,55.373 L 66.691,57.202 L 66.462,57.66 L 65.776,59.489 L 65.548,59.717 L 64.176,61.775 L 63.719,62.232 L 63.719,62.69 L 63.49,62.918 L 61.889,62.461 L 61.203,62.232 L 61.203,62.232 L 60.518,62.004 L 56.631,60.861 L 56.631,60.861 L 54.344,60.175 L 51.6,59.489 L 51.6,59.489 L 49.771,59.031 L 44.741,57.66 L 43.827,57.431 L 43.598,57.431 L 41.312,56.974 L 38.797,56.516 L 37.882,56.516 L 35.138,55.83 L 31.709,55.373 Z" fill="rgba(59,130,246,0.25)" fill-rule="evenodd" stroke="rgba(59,130,246,0.9)" stroke-width="0.3" stroke-linejoin="round"/>
</svg>
