<svg xmlns="http://www.w3.org/2000/svg" width="100%" height="100%" viewBox="0 0 100 100" preserveAspectRatio="none">
  <path d="M 36.167,51.372 L 36.167,51.372 L 36.396,50.686 L 38.911,45.199 L 41.197,40.397 L 41.426,39.711 L 41.426,39.711 L 43.026,40.397 L 44.856,41.312 L 44.856,41.312 L 48.285,42.912 L 51.486,44.284 L 53.087,44.97 L 53.087,44.97 L 56.745,46.57 L 56.745,46.57 L 59.946,47.942 L 63.833,49.771 L 63.376,50.229 L 56.059,59.603 L 55.83,60.289 L 53.087,58.917 L 52.629,58.688 L 48.742,57.088 L 48.742,57.088 L 47.599,56.631 L 44.627,55.259 L 41.655,53.887 L 36.853,51.6 L 36.167,51.372 Z" fill="rgba(59,130,246,0.25)" fill-rule="evenodd" stroke="rgba(59,130,246,0.9)" stroke-width="0.3" stroke-linejoin="round"/>
</svg>
