<svg xmlns="http://www.w3.org/2000/svg" width="100%" height="100%" viewBox="0 0 100 100" preserveAspectRatio="none">
  <path d="M 40.854,36.51 L 41.769,34.452 L 44.97,27.593 L 46.113,28.05 L 46.342,28.279 L 52.058,31.023 L 52.286,31.023 L 58.231,33.995 L 58.231,33.995 L 63.261,36.51 L 68.291,38.797 L 69.663,39.254 L 69.663,39.254 L 69.663,39.482 L 69.435,40.168 L 68.977,40.854 L 67.605,43.827 L 67.605,43.827 L 65.776,48.4 L 65.548,48.4 L 60.975,58.688 L 55.03,72.407 L 49.543,69.892 L 49.314,69.663 L 44.513,67.377 L 44.513,67.377 L 41.769,66.005 L 39.482,64.862 L 39.482,64.862 L 36.967,63.719 L 35.367,62.804 L 31.709,61.203 L 31.709,60.975 L 30.337,60.518 L 31.709,57.317 L 33.995,52.058 L 36.51,46.342 L 38.568,41.769 L 40.854,36.51 Z" fill="rgba(59,130,246,0.25)" fill-rule="evenodd" stroke="rgba(59,130,246,0.9)" stroke-width="0.3" stroke-linejoin="round"/>
</svg>
