<svg xmlns="http://www.w3.org/2000/svg" width="100%" height="100%" viewBox="0 0 100 100" preserveAspectRatio="none">
  <path d="M 30.794,54.801 L 32.166,53.201 L 36.281,48.4 L 36.739,47.942 L 39.025,45.427 L 44.055,39.94 L 45.427,38.339 L 49.771,33.766 L 50.915,34.681 L 55.259,38.797 L 60.975,43.827 L 68.063,50.229 L 69.892,51.829 L 66.234,55.945 L 62.804,59.832 L 62.575,59.832 L 62.575,59.832 L 59.603,63.261 L 58.002,65.09 L 57.317,66.234 L 52.058,64.404 L 52.058,64.404 L 49.543,63.49 L 44.741,61.661 L 44.741,61.661 L 43.141,61.203 L 42.226,60.746 L 38.568,59.374 L 34.91,57.774 L 34.224,57.545 L 32.395,56.859 L 31.709,56.402 L 30.108,55.945 L 30.794,54.801 Z" fill="rgba(59,130,246,0.25)" fill-rule="evenodd" stroke="rgba(59,130,246,0.9)" stroke-width="0.3" stroke-linejoin="round"/>
</svg>
