<svg xmlns="http://www.w3.org/2000/svg" width="100%" height="100%" viewBox="0 0 100 100" preserveAspectRatio="none">
  <path d="M 33.538,52.401 L 37.196,42.569 L 38.111,40.054 L 38.111,39.825 L 39.711,40.511 L 40.626,40.74 L 42.455,41.426 L 44.97,41.883 L 45.427,42.112 L 46.113,42.112 L 46.799,42.34 L 51.372,43.484 L 52.286,43.712 L 52.744,43.712 L 52.972,43.941 L 57.088,44.856 L 58.231,45.084 L 59.374,45.313 L 59.374,45.313 L 62.804,46.227 L 64.862,46.685 L 66.234,47.142 L 66.92,47.371 L 66.92,47.371 L 66.462,48.514 L 64.633,53.315 L 64.633,53.544 L 61.889,60.175 L 61.889,60.175 L 61.889,60.175 L 56.173,58.574 L 56.173,58.574 L 54.116,58.117 L 54.116,58.117 L 49.771,57.202 L 49.771,56.974 L 48.171,56.745 L 48.171,56.745 L 45.427,56.059 L 43.827,55.602 L 42.912,55.373 L 41.998,55.144 L 41.998,55.144 L 37.882,54.23 L 35.596,53.773 L 34.681,53.544 L 33.08,53.087 L 33.538,52.401 Z" fill="rgba(59,130,246,0.25)" fill-rule="evenodd" stroke="rgba(59,130,246,0.9)" stroke-width="0.3" stroke-linejoin="round"/>
</svg>
