<svg xmlns="http://www.w3.org/2000/svg" width="100%" height="100%" viewBox="0 0 100 100" preserveAspectRatio="none">
  <path d="M 73.779,42.34 L 71.721,47.142 L 71.492,47.828 L 68.52,54.687 L 66.234,59.489 L 66.005,60.403 L 64.862,62.918 L 62.118,69.092 L 60.518,72.521 L 60.518,72.75 L 58.917,75.951 L 58.46,77.094 L 58.002,77.094 L 52.058,77.094 L 52.058,76.866 L 20.276,75.036 L 20.276,75.036 L 21.42,59.717 L 21.42,59.489 L 22.563,59.489 L 23.249,59.26 L 23.477,58.117 L 24.621,56.288 L 28.279,49.657 L 30.108,48.742 L 31.023,36.624 L 30.565,33.423 L 30.565,32.737 L 31.251,32.052 L 31.937,31.823 L 32.166,31.594 L 32.166,30.222 L 31.937,29.308 L 30.565,24.278 L 33.309,24.735 L 33.995,27.936 L 33.995,29.079 L 34.224,29.079 L 34.224,29.536 L 47.714,30.451 L 47.714,27.936 L 52.286,28.165 L 61.889,29.765 L 61.889,29.765 L 61.889,27.479 L 62.118,26.335 L 61.889,24.735 L 62.118,22.906 L 79.724,24.278 L 79.724,24.278 L 79.495,27.707 L 76.98,34.338 L 76.751,34.795 L 73.779,42.34 Z" fill="rgba(59,130,246,0.25)" fill-rule="evenodd" stroke="rgba(59,130,246,0.9)" stroke-width="0.3" stroke-linejoin="round"/>
</svg>
