<svg xmlns="http://www.w3.org/2000/svg" width="100%" height="100%" viewBox="0 0 100 100" preserveAspectRatio="none">
  <path d="M 44.741,70.464 L 44.741,69.092 L 43.598,61.546 L 42.683,54.23 L 42.683,52.629 L 42.455,52.172 L 42.455,52.172 L 42.455,51.715 L 42.683,51.029 L 44.513,46.913 L 44.97,45.999 L 45.656,44.398 L 46.342,43.255 L 48.4,38.682 L 50.229,34.567 L 50.457,33.881 L 51.829,30.908 L 52.286,29.536 L 52.515,30.68 L 52.744,31.823 L 54.344,44.856 L 56.402,60.175 L 56.402,60.175 L 57.545,68.863 L 54.344,69.32 L 51.372,69.778 L 51.143,69.778 L 50.915,69.778 L 47.942,70.235 L 44.741,70.464 Z" fill="rgba(59,130,246,0.25)" fill-rule="evenodd" stroke="rgba(59,130,246,0.9)" stroke-width="0.3" stroke-linejoin="round"/>
</svg>
