<svg xmlns="http://www.w3.org/2000/svg" width="100%" height="100%" viewBox="0 0 100 100" preserveAspectRatio="none">
  <path d="M 30.108,58.803 L 32.623,52.629 L 32.623,52.629 L 33.309,51.029 L 37.653,41.426 L 37.653,41.197 L 39.711,36.167 L 42.226,30.222 L 43.369,27.936 L 43.598,27.479 L 43.827,27.021 L 44.513,26.335 L 45.656,27.707 L 50.915,34.567 L 56.631,42.34 L 56.631,42.34 L 57.774,43.712 L 58.688,44.856 L 58.917,45.084 L 63.719,51.029 L 65.776,54.001 L 66.005,54.001 L 69.892,59.26 L 69.663,60.175 L 67.148,66.348 L 64.404,73.665 L 63.261,73.207 L 58.46,71.149 L 58.46,71.149 L 53.887,69.092 L 53.887,69.092 L 48.628,66.805 L 48.628,66.805 L 43.827,64.747 L 43.369,64.519 L 43.141,64.519 L 40.626,63.376 L 37.196,62.004 L 37.196,62.004 L 34.91,60.861 L 34.91,60.861 L 32.623,59.946 L 31.48,59.26 L 30.108,58.803 Z" fill="rgba(59,130,246,0.25)" fill-rule="evenodd" stroke="rgba(59,130,246,0.9)" stroke-width="0.3" stroke-linejoin="round"/>
</svg>
