<svg xmlns="http://www.w3.org/2000/svg" width="100%" height="100%" viewBox="0 0 100 100" preserveAspectRatio="none">
  <path d="M 58.231,51.943 L 57.317,54.001 L 56.173,56.059 L 54.801,59.489 L 53.887,61.089 L 52.515,64.29 L 50.686,68.634 L 50.229,69.778 L 50.0,70.006 L 47.714,75.036 L 46.57,77.551 L 46.113,78.466 L 46.113,78.466 L 35.596,73.893 L 33.766,72.979 L 30.794,71.835 L 30.794,71.835 L 40.854,49.428 L 47.256,35.481 L 47.256,35.481 L 53.43,22.22 L 53.658,21.534 L 53.658,21.534 L 56.173,22.449 L 56.173,22.449 L 56.402,22.677 L 56.402,22.677 L 56.402,22.677 L 69.206,28.165 L 69.206,28.165 L 67.605,31.823 L 63.49,40.74 L 62.804,42.112 L 62.575,42.112 L 62.575,42.112 L 61.889,43.484 L 59.603,48.742 L 58.46,51.258 L 58.231,51.943 Z M 46.57,49.2 L 47.256,48.057 L 47.485,47.142 L 47.485,47.142 L 46.57,49.2 L 46.57,49.2 L 45.656,51.258 L 45.656,51.258 L 46.57,49.2 L 46.57,49.2 Z" fill="rgba(59,130,246,0.25)" fill-rule="evenodd" stroke="rgba(59,130,246,0.9)" stroke-width="0.3" stroke-linejoin="round"/>
</svg>
