<svg xmlns="http://www.w3.org/2000/svg" width="100%" height="100%" viewBox="0 0 100 100" preserveAspectRatio="none">
  <path d="M 46.913,68.634 L 45.77,67.948 L 45.77,67.948 L 41.426,66.119 L 39.597,65.205 L 39.597,65.205 L 36.396,63.833 L 35.481,63.376 L 35.481,63.376 L 35.938,62.918 L 35.938,62.461 L 40.74,51.943 L 44.17,43.941 L 44.17,43.941 L 44.627,42.798 L 47.142,37.31 L 47.142,37.31 L 48.742,33.881 L 50.114,30.908 L 50.114,30.68 L 50.343,29.994 L 52.629,31.137 L 54.687,31.823 L 57.888,33.423 L 62.918,35.481 L 64.519,36.396 L 64.519,36.396 L 64.29,36.853 L 63.833,37.996 L 63.376,38.911 L 62.004,42.112 L 62.004,42.112 L 60.403,45.77 L 59.26,48.514 L 57.202,53.315 L 57.202,53.315 L 56.974,54.001 L 52.629,63.833 L 50.343,68.863 L 50.343,69.32 L 50.114,70.006 L 46.913,68.634 L 46.913,68.634 Z" fill="rgba(59,130,246,0.25)" fill-rule="evenodd" stroke="rgba(59,130,246,0.9)" stroke-width="0.3" stroke-linejoin="round"/>
</svg>
