<svg xmlns="http://www.w3.org/2000/svg" width="100%" height="100%" viewBox="0 0 100 100" preserveAspectRatio="none">
  <path d="M 73.207,58.46 L 71.893,61.489 L 70.692,63.376 L 69.835,64.747 L 69.606,65.09 L 68.177,65.376 L 66.291,67.034 L 65.319,68.177 L 62.861,66.519 L 61.775,66.291 L 60.403,66.634 L 60.117,66.691 L 58.974,66.977 L 57.945,67.663 L 56.516,67.777 L 55.659,68.234 L 54.516,68.806 L 53.658,69.892 L 53.601,70.406 L 52.858,70.921 L 52.744,70.978 L 52.572,71.092 L 52.458,70.978 L 52.001,70.578 L 51.6,70.349 L 50.8,69.778 L 49.543,69.206 L 46.97,67.948 L 44.455,66.748 L 43.769,66.462 L 43.141,66.348 L 42.683,66.176 L 42.226,65.948 L 41.312,65.148 L 41.254,65.148 L 41.769,64.576 L 42.855,63.09 L 42.912,62.918 L 42.855,62.747 L 42.283,62.232 L 40.34,60.632 L 38.511,59.203 L 38.282,59.089 L 38.053,59.374 L 37.425,59.432 L 35.024,59.432 L 34.167,59.432 L 34.167,59.432 L 33.995,59.432 L 33.023,59.432 L 32.052,59.432 L 31.48,59.432 L 30.851,59.374 L 30.565,59.374 L 30.337,59.26 L 29.994,59.203 L 29.251,59.031 L 28.851,58.86 L 28.736,58.86 L 28.622,58.746 L 28.565,58.688 L 28.565,58.631 L 28.336,58.231 L 28.336,58.288 L 27.364,58.574 L 26.164,58.86 L 26.107,58.86 L 25.364,58.86 L 24.964,58.86 L 23.935,58.574 L 23.763,58.574 L 23.02,58.231 L 22.449,57.831 L 22.391,57.831 L 22.391,57.831 L 22.391,57.831 L 22.22,57.66 L 21.82,57.374 L 21.02,56.516 L 20.848,56.402 L 20.734,56.345 L 20.734,56.288 L 20.619,56.173 L 20.562,55.659 L 20.734,55.487 L 21.42,54.63 L 21.82,54.116 L 21.934,54.058 L 22.334,53.544 L 22.334,53.487 L 22.391,53.487 L 23.02,53.144 L 23.306,52.972 L 23.706,52.801 L 23.878,52.687 L 24.335,52.458 L 24.449,52.401 L 24.964,52.115 L 25.535,51.829 L 25.65,51.772 L 26.05,51.486 L 26.278,51.429 L 26.393,51.315 L 26.736,50.915 L 26.793,50.857 L 26.964,50.686 L 27.079,50.572 L 27.536,49.943 L 27.936,49.543 L 27.993,49.486 L 28.508,48.857 L 28.793,48.571 L 29.308,47.942 L 29.308,47.885 L 29.365,47.828 L 29.536,47.771 L 29.994,47.542 L 30.451,47.313 L 30.565,47.256 L 30.565,47.256 L 30.565,47.313 L 30.908,47.142 L 30.908,47.085 L 30.908,47.085 L 31.823,46.628 L 31.823,46.57 L 31.823,46.57 L 31.994,46.513 L 35.195,45.313 L 35.596,45.199 L 39.368,43.941 L 40.226,43.541 L 40.34,43.484 L 41.655,41.769 L 46.227,37.768 L 51.258,34.681 L 55.888,34.052 L 57.088,33.538 L 62.061,31.366 L 62.347,31.023 L 65.491,28.908 L 65.891,29.308 L 65.605,29.479 L 66.234,30.051 L 68.12,30.451 L 68.12,30.451 L 68.291,30.508 L 69.034,32.509 L 70.635,34.224 L 71.95,35.71 L 73.093,36.91 L 74.007,37.939 L 74.35,38.282 L 75.036,38.854 L 76.18,39.768 L 76.58,40.797 L 76.808,41.369 L 77.037,42.055 L 77.666,43.541 L 78.123,44.57 L 78.98,46.113 L 79.438,47.028 L 79.438,47.028 L 79.438,47.028 L 78.695,50.8 L 77.666,55.945 L 76.351,56.231 L 76.065,56.288 L 75.379,56.573 L 75.265,56.631 L 74.179,57.66 L 73.493,58.231 L 73.207,58.46 Z M 32.223,57.374 L 31.766,57.431 L 32.223,57.374 L 32.223,57.374 Z M 32.28,57.374 L 32.223,57.374 L 32.223,57.374 L 32.28,57.374 Z" fill="rgba(59,130,246,0.25)" fill-rule="evenodd" stroke="rgba(59,130,246,0.9)" stroke-width="0.3" stroke-linejoin="round"/>
</svg>
