<svg xmlns="http://www.w3.org/2000/svg" width="100%" height="100%" viewBox="0 0 100 100" preserveAspectRatio="none">
  <path d="M 61.203,44.055 L 63.261,46.57 L 68.749,52.972 L 68.977,53.201 L 69.663,53.887 L 69.206,54.116 L 68.749,54.573 L 64.862,58.002 L 58.688,63.49 L 47.942,72.864 L 46.799,73.779 L 38.797,71.035 L 38.797,71.035 L 38.339,67.834 L 38.568,70.121 L 43.827,65.548 L 43.827,61.889 L 43.141,61.203 L 38.111,55.945 L 36.053,53.658 L 35.138,52.515 L 33.538,50.686 L 31.48,48.628 L 30.794,47.942 L 30.337,47.714 L 30.565,47.485 L 30.794,46.57 L 33.538,39.254 L 34.452,36.51 L 34.681,36.053 L 35.824,35.138 L 37.425,33.309 L 40.397,30.337 L 41.312,29.651 L 44.513,27.593 L 45.199,26.907 L 45.199,26.678 L 45.656,26.221 L 46.342,26.907 L 56.631,39.254 L 61.203,44.055 Z" fill="rgba(59,130,246,0.25)" fill-rule="evenodd" stroke="rgba(59,130,246,0.9)" stroke-width="0.3" stroke-linejoin="round"/>
</svg>
