<svg xmlns="http://www.w3.org/2000/svg" width="100%" height="100%" viewBox="0 0 100 100" preserveAspectRatio="none">
  <path d="M 53.201,58.46 L 53.201,58.46 L 46.57,55.259 L 41.54,52.744 L 41.54,52.744 L 40.854,52.286 L 40.397,52.058 L 40.168,52.058 L 38.568,51.143 L 36.053,50.0 L 35.824,49.771 L 34.224,49.085 L 32.852,48.4 L 32.852,48.4 L 31.251,47.714 L 29.194,46.799 L 28.279,46.342 L 30.565,41.54 L 33.309,35.367 L 37.425,36.967 L 37.653,37.196 L 41.312,38.797 L 41.54,38.797 L 43.369,39.711 L 44.055,39.94 L 46.799,41.083 L 46.799,41.083 L 49.771,42.455 L 56.402,45.427 L 65.548,49.543 L 65.548,49.543 L 68.291,50.686 L 70.806,51.829 L 71.035,51.829 L 71.721,52.058 L 70.578,54.344 L 69.663,56.631 L 69.206,57.545 L 66.691,63.033 L 66.234,63.947 L 66.234,64.176 L 66.005,64.633 L 66.005,64.633 L 63.49,63.49 L 62.575,63.033 L 60.06,61.889 L 60.06,61.889 L 58.917,61.203 L 56.631,60.06 L 53.201,58.46 Z" fill="rgba(59,130,246,0.25)" fill-rule="evenodd" stroke="rgba(59,130,246,0.9)" stroke-width="0.3" stroke-linejoin="round"/>
</svg>
