<svg xmlns="http://www.w3.org/2000/svg" width="100%" height="100%" viewBox="0 0 100 100" preserveAspectRatio="none">
  <path d="M 29.079,48.971 L 28.622,48.742 L 28.622,48.742 L 28.165,48.742 L 28.165,48.742 L 28.165,48.514 L 28.165,48.514 L 29.536,44.856 L 29.536,44.627 L 29.536,44.627 L 30.451,42.112 L 30.908,41.655 L 31.594,41.426 L 33.881,41.197 L 35.71,40.74 L 37.31,40.511 L 38.225,40.054 L 39.597,39.368 L 40.054,39.139 L 40.511,38.682 L 40.969,38.682 L 41.655,38.682 L 44.627,39.139 L 45.541,39.368 L 48.742,39.825 L 50.8,40.054 L 52.172,40.511 L 54.459,41.426 L 55.373,41.655 L 56.974,43.026 L 58.117,43.712 L 58.803,44.17 L 62.004,46.456 L 62.69,46.913 L 64.062,47.828 L 64.976,48.285 L 67.491,49.2 L 69.778,49.886 L 71.835,50.572 L 71.835,50.8 L 71.607,52.401 L 70.235,57.66 L 69.32,61.318 L 69.32,61.318 L 47.142,54.687 L 41.197,52.629 L 37.082,51.486 L 32.737,50.114 L 32.737,50.114 L 29.079,48.971 L 29.079,48.971 Z" fill="rgba(59,130,246,0.25)" fill-rule="evenodd" stroke="rgba(59,130,246,0.9)" stroke-width="0.3" stroke-linejoin="round"/>
</svg>
