<svg xmlns="http://www.w3.org/2000/svg" width="100%" height="100%" viewBox="0 0 100 100" preserveAspectRatio="none">
  <path d="M 62.69,86.583 L 60.632,82.01 L 58.803,78.123 L 58.574,77.666 L 58.345,77.208 L 57.888,76.98 L 57.888,76.751 L 58.803,75.837 L 60.861,72.864 L 64.519,68.063 L 64.747,67.605 L 66.119,65.548 L 67.948,63.033 L 67.72,58.231 L 67.491,54.344 L 67.263,51.6 L 66.805,43.827 L 66.577,39.711 L 66.348,35.367 L 65.891,30.108 L 65.891,29.194 L 65.891,28.508 L 65.891,28.508 L 61.775,28.736 L 60.861,28.736 L 60.632,28.736 L 58.574,27.822 L 58.345,28.05 L 57.66,29.194 L 56.974,30.108 L 54.23,34.452 L 53.315,36.053 L 51.715,38.568 L 48.742,43.369 L 45.77,48.4 L 44.398,50.686 L 44.17,50.915 L 43.484,51.6 L 41.197,51.372 L 40.283,51.143 L 39.597,51.143 L 35.253,50.457 L 32.509,50.229 L 30.222,50.0 L 26.335,49.543 L 25.878,49.314 L 24.735,48.857 L 23.592,48.171 L 21.077,46.799 L 18.79,45.427 L 17.418,44.97 L 19.019,41.998 L 19.248,42.226 L 19.476,42.455 L 22.449,44.513 L 23.363,45.199 L 24.964,46.342 L 28.851,49.085 L 40.283,50.686 L 42.112,47.485 L 43.712,44.97 L 45.084,42.455 L 46.456,40.168 L 47.599,37.653 L 48.514,36.053 L 49.2,34.452 L 50.343,32.395 L 51.486,30.337 L 52.172,28.736 L 52.858,27.822 L 53.544,26.45 L 54.001,25.535 L 54.23,24.849 L 54.916,23.706 L 55.83,22.106 L 56.974,19.591 L 57.431,18.676 L 57.888,17.99 L 58.345,17.304 L 58.803,16.39 L 59.031,15.932 L 59.031,15.932 L 59.489,15.018 L 59.717,15.018 L 60.403,13.417 L 61.546,11.359 L 62.69,9.53 L 62.69,9.302 L 62.918,9.073 L 65.205,8.844 L 67.491,8.616 L 67.948,8.387 L 68.406,8.387 L 68.634,8.387 L 69.778,8.387 L 70.006,8.158 L 71.607,8.158 L 74.122,7.701 L 75.265,7.701 L 75.722,7.472 L 76.18,7.472 L 76.637,7.472 L 79.609,7.015 L 80.066,9.759 L 80.295,13.189 L 80.524,15.018 L 80.752,17.304 L 80.981,19.591 L 81.21,21.877 L 81.438,24.163 L 81.896,26.907 L 81.896,27.593 L 81.896,28.279 L 82.353,30.794 L 82.353,31.709 L 82.582,33.766 L 81.438,39.025 L 80.066,44.97 L 79.838,45.656 L 78.923,48.857 L 73.665,70.349 L 72.75,74.693 L 76.866,85.668 L 78.466,90.241 L 75.265,91.842 L 74.579,92.299 L 74.35,92.528 L 73.665,92.985 L 73.207,92.528 L 72.293,92.07 L 71.607,91.842 L 70.464,92.07 L 68.177,92.299 L 65.433,92.756 L 65.433,92.299 L 65.433,91.842 L 64.976,91.156 L 64.062,89.327 L 63.147,87.269 L 62.69,86.583 L 62.69,86.583 Z" fill="rgba(59,130,246,0.25)" fill-rule="evenodd" stroke="rgba(59,130,246,0.9)" stroke-width="0.3" stroke-linejoin="round"/>
</svg>
