<svg xmlns="http://www.w3.org/2000/svg" width="100%" height="100%" viewBox="0 0 100 100" preserveAspectRatio="none">
  <path d="M 67.263,48.971 L 73.893,49.657 L 64.29,60.403 L 52.401,73.207 L 42.112,63.147 L 39.139,60.403 L 35.481,56.974 L 35.481,56.974 L 34.795,56.288 L 26.107,47.599 L 30.68,46.913 L 32.966,46.685 L 34.795,46.456 L 35.253,46.456 L 34.567,45.541 L 34.795,44.17 L 33.195,37.768 L 32.28,35.481 L 31.594,26.793 L 34.795,31.366 L 36.396,33.195 L 37.539,36.396 L 39.368,43.712 L 39.368,44.398 L 39.825,44.856 L 39.825,46.685 L 39.825,46.685 L 39.825,46.685 L 40.283,46.685 L 43.712,47.142 L 45.999,47.599 L 52.858,47.371 L 63.833,48.514 L 67.263,48.971 Z" fill="rgba(59,130,246,0.25)" fill-rule="evenodd" stroke="rgba(59,130,246,0.9)" stroke-width="0.3" stroke-linejoin="round"/>
</svg>
