<svg xmlns="http://www.w3.org/2000/svg" width="100%" height="100%" viewBox="0 0 100 100" preserveAspectRatio="none">
  <path d="M 37.882,53.201 L 37.882,53.201 L 31.251,50.457 L 31.023,50.457 L 31.709,48.857 L 35.596,39.711 L 37.196,36.053 L 37.196,36.053 L 37.425,36.053 L 37.425,36.053 L 37.425,36.053 L 37.425,36.053 L 37.653,36.281 L 52.515,42.683 L 53.201,42.912 L 54.573,43.598 L 54.573,43.598 L 55.03,43.827 L 55.259,43.827 L 56.631,44.513 L 56.631,44.513 L 67.377,49.085 L 68.977,49.771 L 68.977,49.771 L 67.377,53.43 L 62.804,63.947 L 62.804,63.947 L 53.887,60.289 L 46.799,57.088 L 46.799,57.088 L 37.882,53.201 Z" fill="rgba(59,130,246,0.25)" fill-rule="evenodd" stroke="rgba(59,130,246,0.9)" stroke-width="0.3" stroke-linejoin="round"/>
</svg>
