<svg xmlns="http://www.w3.org/2000/svg" width="100%" height="100%" viewBox="0 0 100 100" preserveAspectRatio="none">
  <path d="M 27.193,57.831 L 28.908,57.259 L 29.708,57.031 L 33.252,55.545 L 35.996,54.401 L 41.254,52.344 L 43.998,51.2 L 43.998,51.2 L 47.656,49.714 L 53.487,47.313 L 60.003,44.57 L 65.719,42.169 L 70.864,40.111 L 73.722,38.968 L 74.408,40.568 L 74.636,41.026 L 72.807,40.226 L 64.69,43.541 L 64.69,43.541 L 64.576,43.427 L 59.774,45.37 L 54.287,47.656 L 48.457,49.943 L 48.457,50.057 L 43.427,52.115 L 37.939,54.287 L 38.168,55.545 L 39.082,57.945 L 40.568,59.546 L 41.254,59.889 L 39.425,60.232 L 36.11,60.575 L 32.909,60.803 L 30.394,61.032 L 29.365,61.032 L 28.679,60.918 L 27.422,60.46 L 27.079,60.46 L 26.164,60.232 L 25.364,58.517 L 27.193,57.831 Z" fill="rgba(59,130,246,0.25)" fill-rule="evenodd" stroke="rgba(59,130,246,0.9)" stroke-width="0.3" stroke-linejoin="round"/>
</svg>
