<svg xmlns="http://www.w3.org/2000/svg" width="100%" height="100%" viewBox="0 0 100 100" preserveAspectRatio="none">
  <path d="M 53.715,47.085 L 56.802,47.428 L 68.577,48.228 L 68.577,48.228 L 73.15,48.571 L 73.036,49.486 L 73.15,50.286 L 73.036,52.001 L 73.036,52.001 L 68.234,51.2 L 65.948,51.086 L 65.948,52.344 L 59.203,51.886 L 59.203,51.772 L 59.203,51.658 L 59.203,51.658 L 59.089,51.658 L 59.089,51.429 L 59.089,51.086 L 58.746,49.486 L 58.517,49.371 L 57.374,49.257 L 58.06,51.772 L 58.174,52.229 L 58.174,52.915 L 58.06,53.03 L 57.831,52.801 L 57.259,52.572 L 57.374,51.886 L 56.916,51.886 L 53.258,52.344 L 51.429,52.458 L 50.972,52.458 L 48.342,52.687 L 47.999,52.687 L 48.114,52.801 L 47.656,52.801 L 47.542,52.801 L 47.542,52.801 L 45.942,52.915 L 44.57,53.144 L 43.312,53.258 L 43.312,53.258 L 42.283,53.372 L 41.026,53.487 L 39.197,53.601 L 37.825,53.715 L 37.025,53.83 L 36.11,53.944 L 34.852,53.944 L 34.052,53.944 L 33.138,53.83 L 32.566,53.83 L 32.337,53.83 L 30.851,53.715 L 30.394,53.601 L 29.822,53.601 L 27.422,52.687 L 27.193,52.572 L 26.85,51.543 L 27.079,51.772 L 27.307,52.344 L 27.536,52.458 L 27.65,52.572 L 27.765,52.687 L 28.679,52.915 L 29.708,53.258 L 30.051,53.372 L 30.28,53.487 L 30.623,53.487 L 30.737,53.372 L 30.851,53.372 L 30.966,53.144 L 31.994,52.344 L 32.109,52.229 L 32.337,52.229 L 32.452,52.229 L 32.795,52.229 L 33.595,52.229 L 34.509,52.344 L 35.538,52.344 L 36.224,52.344 L 37.253,52.344 L 37.367,52.344 L 37.596,52.344 L 38.396,52.115 L 38.625,52.115 L 38.739,52.458 L 38.854,52.572 L 38.968,53.258 L 39.082,53.487 L 39.311,53.372 L 40.34,53.372 L 40.911,53.258 L 42.055,53.258 L 42.512,53.144 L 43.198,53.144 L 44.684,52.915 L 45.599,52.915 L 46.856,52.801 L 47.771,52.687 L 47.771,51.886 L 47.771,51.772 L 47.771,51.658 L 47.771,51.658 L 47.885,51.315 L 48.228,50.629 L 48.342,50.4 L 48.342,50.286 L 48.457,50.171 L 48.457,49.943 L 48.457,49.257 L 48.457,48.8 L 48.457,48.685 L 48.457,48.571 L 48.342,48.457 L 48.342,48.342 L 48.457,47.885 L 48.571,47.542 L 48.8,46.056 L 51.2,46.628 L 51.2,46.628 L 53.715,47.085 Z" fill="rgba(59,130,246,0.25)" fill-rule="evenodd" stroke="rgba(59,130,246,0.9)" stroke-width="0.3" stroke-linejoin="round"/>
</svg>
