<svg xmlns="http://www.w3.org/2000/svg" width="100%" height="100%" viewBox="0 0 100 100" preserveAspectRatio="none">
  <path d="M 65.891,35.024 L 65.205,36.396 L 62.918,41.426 L 62.004,43.712 L 60.861,46.456 L 58.574,51.943 L 58.345,52.401 L 57.66,53.773 L 56.288,56.974 L 55.373,59.031 L 55.144,59.946 L 50.8,70.235 L 50.343,71.149 L 50.343,71.149 L 49.428,70.692 L 49.2,71.378 L 49.2,71.607 L 41.883,68.406 L 34.109,64.976 L 34.338,64.29 L 34.567,63.604 L 37.768,56.516 L 37.768,56.516 L 39.825,51.715 L 39.825,51.486 L 40.054,51.486 L 41.197,48.514 L 41.197,48.514 L 42.34,45.999 L 42.34,45.999 L 43.255,43.941 L 43.255,43.941 L 44.856,40.511 L 44.856,40.283 L 45.77,37.996 L 45.77,37.996 L 46.685,35.71 L 46.685,35.71 L 47.828,33.195 L 47.828,33.195 L 50.114,28.393 L 50.114,28.393 L 56.288,30.908 L 57.888,31.594 L 65.891,35.024 L 65.891,35.024 Z" fill="rgba(59,130,246,0.25)" fill-rule="evenodd" stroke="rgba(59,130,246,0.9)" stroke-width="0.3" stroke-linejoin="round"/>
</svg>
