<svg xmlns="http://www.w3.org/2000/svg" width="100%" height="100%" viewBox="0 0 100 100" preserveAspectRatio="none">
  <path d="M 58.917,56.974 L 48.857,59.946 L 40.397,62.461 L 32.852,64.519 L 31.48,64.747 L 31.023,64.976 L 31.023,64.976 L 30.794,64.062 L 30.794,63.833 L 30.337,62.69 L 30.337,62.004 L 29.879,60.175 L 29.651,60.175 L 28.508,56.059 L 28.279,54.916 L 28.05,53.315 L 28.05,52.401 L 28.279,51.258 L 28.508,50.343 L 28.736,48.057 L 28.279,47.371 L 28.508,46.685 L 28.965,46.227 L 29.194,45.77 L 29.651,45.084 L 29.651,45.084 L 32.166,42.112 L 35.138,38.682 L 35.138,38.454 L 35.596,38.911 L 39.94,43.484 L 40.168,43.712 L 43.141,47.142 L 46.57,50.8 L 46.799,50.8 L 53.43,48.971 L 54.801,47.142 L 55.259,46.456 L 58.46,42.569 L 63.261,36.624 L 63.947,35.71 L 64.404,35.024 L 64.404,35.253 L 67.605,37.768 L 70.806,40.283 L 71.035,40.511 L 71.721,41.197 L 71.95,41.197 L 71.264,41.883 L 70.578,42.569 L 64.633,50.114 L 58.917,56.974 Z" fill="rgba(59,130,246,0.25)" fill-rule="evenodd" stroke="rgba(59,130,246,0.9)" stroke-width="0.3" stroke-linejoin="round"/>
</svg>
