<svg xmlns="http://www.w3.org/2000/svg" width="100%" height="100%" viewBox="0 0 100 100" preserveAspectRatio="none">
  <path d="M 59.946,58.574 L 55.144,56.288 L 54.687,56.288 L 53.087,56.745 L 51.029,57.202 L 49.2,57.888 L 43.941,59.26 L 43.941,59.26 L 43.255,59.489 L 43.255,59.489 L 41.426,59.946 L 40.283,60.403 L 36.167,61.546 L 35.024,61.775 L 34.795,60.861 L 33.881,58.117 L 32.966,54.23 L 31.823,50.114 L 31.137,46.913 L 30.908,46.227 L 31.366,46.227 L 34.567,45.313 L 35.71,44.856 L 37.539,44.398 L 38.911,43.941 L 39.597,43.712 L 40.969,43.255 L 42.798,42.569 L 46.227,41.426 L 46.456,41.197 L 47.142,40.969 L 48.285,40.74 L 51.486,39.597 L 53.773,38.911 L 54.001,38.682 L 54.459,38.454 L 55.144,38.225 L 55.144,38.454 L 55.373,38.682 L 55.602,38.911 L 56.516,39.368 L 57.888,40.054 L 59.489,40.969 L 60.632,41.426 L 61.546,41.883 L 65.662,43.712 L 69.092,45.313 L 69.092,45.313 L 69.092,45.541 L 66.348,52.629 L 66.119,52.858 L 63.376,60.175 L 63.376,60.175 L 63.376,60.175 L 59.946,58.574 Z" fill="rgba(59,130,246,0.25)" fill-rule="evenodd" stroke="rgba(59,130,246,0.9)" stroke-width="0.3" stroke-linejoin="round"/>
</svg>
