<svg xmlns="http://www.w3.org/2000/svg" width="100%" height="100%" viewBox="0 0 100 100" preserveAspectRatio="none">
  <path d="M 50.457,30.908 L 50.457,30.908 L 60.975,35.024 L 63.947,36.624 L 63.947,36.853 L 60.518,44.627 L 59.832,45.999 L 58.46,48.971 L 55.487,55.83 L 54.801,57.431 L 54.344,58.574 L 52.286,62.918 L 52.286,63.147 L 49.543,69.092 L 48.4,68.634 L 48.171,68.634 L 47.942,68.406 L 40.626,65.205 L 39.94,64.976 L 36.053,63.376 L 36.053,63.376 L 36.967,60.861 L 40.397,53.315 L 41.312,51.486 L 41.312,51.486 L 42.455,48.742 L 43.369,46.913 L 44.741,43.941 L 44.97,43.484 L 46.113,40.74 L 46.342,40.283 L 47.256,38.225 L 48.628,35.024 L 49.314,33.195 L 50.457,30.908 Z" fill="rgba(59,130,246,0.25)" fill-rule="evenodd" stroke="rgba(59,130,246,0.9)" stroke-width="0.3" stroke-linejoin="round"/>
</svg>
