<svg xmlns="http://www.w3.org/2000/svg" width="100%" height="100%" viewBox="0 0 100 100" preserveAspectRatio="none">
  <path d="M 65.719,76.037 L 64.462,75.694 L 64.062,75.522 L 63.89,75.522 L 63.776,75.522 L 61.375,75.065 L 61.032,75.008 L 60.575,74.951 L 59.889,74.836 L 58.86,74.665 L 57.202,74.379 L 56.631,74.265 L 56.516,74.208 L 56.459,74.208 L 56.116,74.15 L 55.545,74.093 L 55.202,73.979 L 55.03,73.979 L 54.573,73.865 L 52.744,73.579 L 51.2,73.293 L 50.629,73.236 L 49.714,73.064 L 48.8,72.893 L 47.428,72.664 L 46.97,72.55 L 44.97,71.064 L 43.141,69.692 L 41.083,68.034 L 40.854,67.863 L 35.881,65.633 L 30.851,64.89 L 30.794,64.89 L 30.794,64.89 L 30.451,64.776 L 23.42,61.346 L 23.077,61.175 L 37.31,23.906 L 37.31,23.906 L 47.199,26.936 L 53.03,28.708 L 60.689,31.337 L 70.178,34.538 L 72.121,35.167 L 73.379,35.624 L 76.923,36.939 L 76.923,36.939 L 76.294,36.71 L 76.294,36.767 L 76.18,37.11 L 65.833,76.094 L 65.833,76.094 L 65.719,76.037 Z" fill="rgba(59,130,246,0.25)" fill-rule="evenodd" stroke="rgba(59,130,246,0.9)" stroke-width="0.3" stroke-linejoin="round"/>
</svg>
