<svg xmlns="http://www.w3.org/2000/svg" width="100%" height="100%" viewBox="0 0 100 100" preserveAspectRatio="none">
  <path d="M 48.314,77.366 L 48.228,77.394 L 48.228,77.394 L 47.628,76.68 L 47.742,76.623 L 48.114,76.451 L 48.4,76.308 L 48.685,76.165 L 48.943,76.022 L 49.143,75.937 L 49.2,75.851 L 49.4,75.594 L 49.6,75.308 L 49.743,75.108 L 49.657,74.851 L 49.457,74.336 L 49.314,73.965 L 49.171,73.564 L 49.171,73.536 L 48.971,72.964 L 48.457,71.592 L 48.571,71.049 L 49.228,68.363 L 49.343,67.963 L 49.371,67.877 L 49.543,67.134 L 49.686,66.477 L 49.657,66.219 L 49.657,66.105 L 49.6,65.791 L 49.6,65.705 L 49.6,65.619 L 49.543,65.276 L 49.514,64.99 L 49.486,64.705 L 49.457,64.419 L 49.428,64.133 L 49.4,63.904 L 49.371,63.476 L 49.314,63.133 L 48.943,63.19 L 48.885,63.19 L 48.828,63.19 L 48.771,63.218 L 48.628,63.218 L 48.314,63.276 L 48.114,63.276 L 48.085,63.304 L 47.942,63.304 L 47.914,63.304 L 47.856,63.304 L 47.799,63.333 L 47.514,63.361 L 47.313,63.39 L 47.228,63.39 L 47.199,63.418 L 47.199,63.447 L 47.056,63.676 L 46.913,63.933 L 46.828,64.133 L 46.799,64.133 L 46.742,64.247 L 46.742,64.247 L 46.713,64.304 L 46.656,64.419 L 46.599,64.505 L 46.542,64.59 L 46.485,64.705 L 46.456,64.79 L 46.342,65.019 L 46.227,65.219 L 46.142,65.362 L 46.113,65.448 L 46.056,65.562 L 45.97,65.733 L 45.884,65.848 L 45.799,66.048 L 45.656,66.305 L 45.513,66.562 L 45.427,66.762 L 45.313,66.962 L 45.17,67.277 L 44.998,67.563 L 44.827,67.877 L 44.627,68.191 L 44.398,68.591 L 42.969,68.391 L 42.483,68.048 L 42.283,67.906 L 42.169,67.82 L 41.797,67.563 L 41.769,67.534 L 41.74,67.505 L 41.655,67.448 L 41.369,67.248 L 41.026,67.02 L 40.74,66.848 L 40.454,66.648 L 40.14,66.448 L 40.083,66.391 L 39.654,65.876 L 39.111,65.276 L 38.339,64.447 L 38.311,64.019 L 38.025,60.418 L 37.853,60.303 L 36.139,59.817 L 34.967,59.474 L 34.567,59.303 L 33.966,59.046 L 33.623,56.445 L 33.481,55.616 L 33.223,54.301 L 33.423,53.501 L 34.652,52.815 L 34.652,52.444 L 33.423,52.558 L 33.423,52.444 L 33.423,52.301 L 33.366,51.958 L 33.309,51.872 L 33.223,51.758 L 33.166,51.672 L 32.023,51.615 L 30.823,51.529 L 30.908,52.358 L 30.937,52.787 L 30.794,52.787 L 30.623,52.815 L 30.623,52.815 L 30.537,52.815 L 30.508,52.815 L 30.48,52.729 L 30.451,52.672 L 30.394,52.501 L 30.394,51.901 L 30.394,51.615 L 30.394,50.986 L 30.394,50.614 L 30.394,50.1 L 30.394,50.014 L 30.422,49.9 L 30.68,49.871 L 30.966,49.814 L 30.966,49.814 L 31.051,49.7 L 31.137,49.586 L 31.223,49.443 L 31.851,49.214 L 32.48,48.957 L 32.566,48.957 L 32.737,48.9 L 32.88,48.871 L 33.109,48.671 L 33.195,48.614 L 33.166,48.185 L 33.138,47.842 L 33.052,47.785 L 33.023,47.756 L 33.023,46.499 L 33.023,46.327 L 33.109,45.784 L 33.366,43.898 L 33.395,43.812 L 33.795,43.841 L 34.138,44.041 L 34.252,43.984 L 34.309,43.841 L 34.309,43.841 L 34.452,43.784 L 34.738,43.784 L 34.767,43.812 L 34.795,43.812 L 34.938,43.87 L 35.024,43.755 L 34.224,43.527 L 33.623,43.326 L 33.681,43.241 L 33.766,43.098 L 33.852,42.926 L 33.966,42.726 L 33.995,42.498 L 33.995,42.269 L 34.024,41.983 L 34.052,41.783 L 34.024,41.497 L 33.966,40.84 L 33.909,40.611 L 33.795,40.383 L 33.824,40.097 L 33.881,39.84 L 33.881,39.783 L 33.138,39.44 L 32.623,39.182 L 32.309,39.011 L 31.88,39.039 L 31.851,38.925 L 31.251,36.667 L 31.194,36.41 L 31.166,36.41 L 31.08,36.41 L 30.966,36.41 L 30.508,36.439 L 29.565,36.439 L 29.508,36.439 L 29.508,36.353 L 29.508,35.867 L 29.508,35.095 L 29.508,34.209 L 29.508,34.124 L 30.394,34.124 L 30.451,34.124 L 30.565,34.095 L 30.565,34.095 L 31.308,34.066 L 31.994,34.267 L 33.824,34.81 L 35.796,35.381 L 35.796,35.381 L 35.824,35.381 L 35.824,35.381 L 41.312,33.638 L 41.312,33.638 L 41.34,33.638 L 41.397,33.609 L 41.397,33.609 L 42.14,33.295 L 43.084,32.866 L 43.112,32.866 L 43.112,32.866 L 43.741,32.695 L 44.655,32.466 L 46.656,32.066 L 47.485,32.152 L 47.571,32.18 L 48.657,32.495 L 48.714,32.495 L 48.714,32.495 L 48.714,32.495 L 48.714,32.495 L 49.057,31.666 L 49.085,31.609 L 49.2,31.294 L 49.2,31.237 L 49.314,30.208 L 49.343,30.208 L 49.457,30.094 L 50.572,30.237 L 50.629,30.208 L 50.686,30.208 L 51.543,29.637 L 51.972,29.351 L 52.229,29.179 L 53.144,28.493 L 53.287,28.408 L 55.573,27.093 L 55.602,27.093 L 55.63,27.036 L 56.145,26.207 L 56.231,26.15 L 57.459,25.978 L 58.374,25.864 L 58.431,25.835 L 58.431,25.835 L 58.431,25.835 L 58.46,25.807 L 58.488,25.807 L 60.289,24.292 L 61.661,23.177 L 61.661,23.177 L 61.661,23.149 L 61.661,23.149 L 61.689,23.12 L 62.061,22.606 L 62.089,22.606 L 62.089,22.606 L 62.089,22.606 L 62.089,22.663 L 62.118,23.092 L 62.004,22.692 L 61.689,23.12 L 61.661,23.177 L 62.175,23.52 L 62.175,23.606 L 62.204,23.892 L 62.89,25.064 L 63.604,26.207 L 63.976,26.836 L 64.033,26.921 L 64.033,26.921 L 64.033,26.921 L 64.204,27.007 L 65.462,27.722 L 66.405,27.55 L 67.72,27.322 L 69.063,28.493 L 69.092,28.522 L 69.092,28.55 L 69.12,28.55 L 69.292,28.779 L 70.006,29.722 L 70.492,30.18 L 69.549,32.866 L 68.634,34.209 L 68.634,34.238 L 68.52,34.409 L 68.206,36.467 L 68.006,37.61 L 67.863,38.296 L 67.577,39.554 L 67.291,40.897 L 66.891,42.669 L 66.634,43.87 L 66.377,45.041 L 66.119,46.413 L 65.891,47.642 L 65.776,48.299 L 65.748,48.385 L 65.748,48.5 L 65.548,49.814 L 65.405,50.729 L 65.348,52.244 L 65.348,52.587 L 64.347,54.13 L 63.976,55.244 L 63.919,55.445 L 63.861,55.645 L 63.804,55.816 L 63.833,56.616 L 63.861,56.902 L 63.89,57.902 L 63.861,57.96 L 63.204,59.817 L 62.718,61.246 L 62.604,62.075 L 62.49,62.904 L 62.518,63.075 L 62.575,63.333 L 62.89,64.762 L 63.176,65.448 L 63.547,66.248 L 63.919,67.077 L 64.204,67.62 L 64.347,67.848 L 64.719,68.163 L 65.062,68.563 L 63.49,69.62 L 63.347,69.792 L 60.861,70.878 L 60.26,71.135 L 57.945,71.45 L 55.43,72.993 L 53.144,74.993 L 52.486,75.851 L 52.429,75.879 L 52.001,76.08 L 50.114,76.708 L 49.914,76.765 L 48.314,77.366 Z M 46.656,32.094 L 47.656,32.237 L 48.714,32.552 L 48.714,32.523 L 47.685,32.237 L 47.571,32.209 L 46.685,32.094 L 46.656,32.094 Z M 49.343,30.208 L 49.343,30.237 L 50.514,30.38 L 50.543,30.351 L 49.343,30.208 Z" fill="rgba(59,130,246,0.25)" fill-rule="evenodd" stroke="rgba(59,130,246,0.9)" stroke-width="0.3" stroke-linejoin="round"/>
</svg>
