<svg xmlns="http://www.w3.org/2000/svg" width="100%" height="100%" viewBox="0 0 100 100" preserveAspectRatio="none">
  <path d="M 50.457,30.794 L 54.344,32.623 L 54.573,32.623 L 57.774,34.224 L 58.002,34.224 L 59.603,34.91 L 59.832,34.91 L 64.176,36.967 L 64.176,36.967 L 64.176,36.967 L 63.261,39.254 L 59.832,46.799 L 59.603,47.256 L 58.688,49.543 L 58.46,49.543 L 56.173,54.801 L 56.173,54.801 L 55.487,56.631 L 55.487,56.631 L 55.259,57.088 L 55.03,57.545 L 55.03,57.545 L 53.658,60.289 L 49.771,69.206 L 48.4,68.52 L 47.256,68.063 L 45.884,67.605 L 45.884,67.605 L 45.656,67.605 L 43.369,66.462 L 40.626,65.319 L 40.626,65.319 L 38.797,64.404 L 35.824,63.261 L 36.739,61.661 L 38.568,57.317 L 40.168,53.43 L 41.54,50.457 L 41.54,50.457 L 43.827,45.427 L 43.827,45.427 L 44.055,44.741 L 46.342,39.711 L 49.314,33.309 L 50.457,30.794 Z" fill="rgba(59,130,246,0.25)" fill-rule="evenodd" stroke="rgba(59,130,246,0.9)" stroke-width="0.3" stroke-linejoin="round"/>
</svg>
