<svg xmlns="http://www.w3.org/2000/svg" width="100%" height="100%" viewBox="0 0 100 100" preserveAspectRatio="none">
  <path d="M 55.83,42.912 L 56.059,43.598 L 57.202,42.226 L 58.117,43.598 L 58.345,44.055 L 58.574,44.513 L 58.345,44.741 L 57.66,45.884 L 57.66,46.342 L 55.602,50.457 L 54.916,52.515 L 54.916,52.744 L 55.144,52.972 L 55.602,53.201 L 56.059,53.658 L 56.059,53.887 L 54.916,57.774 L 53.773,61.661 L 53.544,62.118 L 53.087,62.347 L 52.172,62.575 L 50.572,63.261 L 51.029,60.975 L 51.486,59.374 L 41.426,52.058 L 43.484,49.314 L 52.629,36.739 L 53.773,39.025 L 54.459,40.168 L 54.459,40.168 L 55.83,42.912 Z M 45.999,53.658 L 44.17,52.515 L 42.34,51.143 L 45.999,53.658 Z" fill="rgba(59,130,246,0.25)" fill-rule="evenodd" stroke="rgba(59,130,246,0.9)" stroke-width="0.3" stroke-linejoin="round"/>
</svg>
