<svg xmlns="http://www.w3.org/2000/svg" width="100%" height="100%" viewBox="0 0 100 100" preserveAspectRatio="none">
  <path d="M 32.852,68.177 L 40.854,50.572 L 46.113,39.368 L 46.113,39.139 L 52.515,25.421 L 52.515,25.421 L 55.487,26.793 L 55.716,26.793 L 59.146,28.165 L 65.548,30.908 L 67.148,31.366 L 67.148,31.366 L 66.234,33.423 L 64.404,37.082 L 64.404,37.082 L 60.518,45.77 L 60.518,45.77 L 60.518,46.227 L 57.774,45.084 L 56.173,44.17 L 54.344,43.484 L 52.744,42.798 L 51.829,42.34 L 46.799,40.054 L 39.711,56.059 L 38.111,59.031 L 39.254,56.974 L 48.628,61.546 L 47.714,63.604 L 46.799,65.433 L 46.799,65.662 L 47.256,65.891 L 50.686,67.491 L 50.0,68.863 L 50.0,68.863 L 47.485,74.579 L 47.485,74.579 L 36.053,69.549 L 32.852,68.177 L 32.852,68.177 L 32.852,68.177 Z M 38.111,59.031 L 38.111,59.031 L 39.254,56.974 L 38.111,59.031 Z M 44.741,64.747 L 46.799,65.662 L 46.799,65.662 L 44.741,64.747 Z" fill="rgba(59,130,246,0.25)" fill-rule="evenodd" stroke="rgba(59,130,246,0.9)" stroke-width="0.3" stroke-linejoin="round"/>
</svg>
