<svg xmlns="http://www.w3.org/2000/svg" width="100%" height="100%" viewBox="0 0 100 100" preserveAspectRatio="none">
  <path d="M 59.717,77.551 L 50.114,74.35 L 48.514,73.665 L 46.913,73.207 L 41.655,71.378 L 37.996,70.235 L 33.423,68.634 L 24.735,65.662 L 24.735,65.662 L 24.278,65.662 L 17.19,63.147 L 11.016,61.318 L 7.13,59.946 L 15.132,42.112 L 15.361,41.883 L 26.335,17.418 L 29.079,11.702 L 32.052,12.617 L 32.509,13.303 L 33.652,14.675 L 34.795,16.047 L 35.481,16.733 L 36.396,17.647 L 36.396,17.876 L 38.911,20.619 L 39.825,21.534 L 39.825,21.534 L 40.969,22.677 L 41.655,23.363 L 43.484,25.192 L 45.77,27.936 L 45.77,27.936 L 48.514,31.137 L 51.715,35.024 L 51.715,35.024 L 51.943,35.024 L 52.858,36.396 L 56.745,40.511 L 56.745,40.511 L 58.574,42.569 L 60.403,44.856 L 64.29,50.114 L 65.891,52.172 L 74.808,62.918 L 75.265,63.376 L 75.494,63.833 L 75.951,64.29 L 76.408,65.433 L 76.637,65.891 L 77.78,67.72 L 78.923,69.092 L 79.381,69.549 L 80.981,71.378 L 83.953,75.036 L 86.697,78.695 L 88.298,80.524 L 91.27,84.182 L 92.87,86.468 L 92.185,88.298 L 92.185,88.298 L 91.727,88.069 L 90.813,87.612 L 77.094,83.267 L 68.634,80.524 L 59.717,77.551 L 59.717,77.551 Z" fill="rgba(59,130,246,0.25)" fill-rule="evenodd" stroke="rgba(59,130,246,0.9)" stroke-width="0.3" stroke-linejoin="round"/>
</svg>
