<svg xmlns="http://www.w3.org/2000/svg" width="100%" height="100%" viewBox="0 0 100 100" preserveAspectRatio="none">
  <path d="M 11.474,65.09 L 11.245,64.862 L 12.16,62.575 L 13.989,57.317 L 17.876,46.113 L 17.876,46.113 L 29.308,13.874 L 29.308,13.646 L 29.994,12.045 L 46.913,19.362 L 49.428,21.191 L 50.343,22.106 L 88.069,38.797 L 88.755,39.254 L 88.526,40.626 L 88.298,41.083 L 88.069,41.769 L 85.554,49.314 L 81.21,63.033 L 78.923,70.578 L 78.237,73.093 L 76.408,79.038 L 74.35,85.668 L 73.665,87.955 L 73.665,87.955 L 51.715,79.724 L 40.74,75.379 L 40.74,75.379 L 29.994,71.492 L 27.479,70.578 L 22.22,68.749 L 11.474,65.09 Z" fill="rgba(59,130,246,0.25)" fill-rule="evenodd" stroke="rgba(59,130,246,0.9)" stroke-width="0.3" stroke-linejoin="round"/>
</svg>
