<svg xmlns="http://www.w3.org/2000/svg" width="100%" height="100%" viewBox="0 0 100 100" preserveAspectRatio="none">
  <path d="M 34.338,65.891 L 35.481,63.147 L 38.225,56.974 L 43.255,45.77 L 43.484,45.084 L 46.227,38.911 L 46.456,38.682 L 46.456,38.682 L 49.657,31.366 L 52.172,25.878 L 55.83,27.707 L 62.461,30.68 L 65.662,32.28 L 65.662,32.28 L 63.604,36.624 L 62.232,39.825 L 62.232,39.825 L 61.089,42.112 L 60.175,44.17 L 59.946,44.627 L 59.717,45.313 L 59.26,46.685 L 58.117,48.971 L 55.83,54.001 L 52.629,61.318 L 49.657,68.177 L 49.428,69.092 L 48.742,70.464 L 48.057,71.835 L 47.599,73.207 L 47.142,74.122 L 46.456,73.207 L 45.77,72.293 L 44.398,71.149 L 41.883,69.092 L 41.426,69.092 L 40.054,68.406 L 38.225,67.72 L 34.338,66.119 L 34.338,65.891 Z" fill="rgba(59,130,246,0.25)" fill-rule="evenodd" stroke="rgba(59,130,246,0.9)" stroke-width="0.3" stroke-linejoin="round"/>
</svg>
