<svg xmlns="http://www.w3.org/2000/svg" width="100%" height="100%" viewBox="0 0 100 100" preserveAspectRatio="none">
  <path d="M 40.397,51.829 L 45.199,41.54 L 48.628,33.766 L 48.628,33.538 L 52.744,35.596 L 56.402,37.425 L 61.203,39.482 L 62.804,40.397 L 63.033,40.397 L 61.889,43.141 L 60.06,46.799 L 60.06,46.799 L 58.46,50.686 L 56.402,54.801 L 56.402,54.801 L 56.173,55.487 L 55.945,55.945 L 55.487,56.859 L 53.658,60.975 L 51.143,66.462 L 51.143,66.462 L 50.229,66.005 L 49.543,65.776 L 47.028,64.404 L 45.884,63.947 L 40.854,61.661 L 38.797,60.518 L 36.967,59.832 L 36.967,59.832 L 36.967,59.832 L 36.967,59.832 L 36.967,59.603 L 40.397,51.829 Z" fill="rgba(59,130,246,0.25)" fill-rule="evenodd" stroke="rgba(59,130,246,0.9)" stroke-width="0.3" stroke-linejoin="round"/>
</svg>
