<svg xmlns="http://www.w3.org/2000/svg" width="100%" height="100%" viewBox="0 0 100 100" preserveAspectRatio="none">
  <path d="M 59.374,75.608 L 59.146,75.608 L 52.744,72.864 L 42.455,68.52 L 42.226,68.291 L 28.965,62.575 L 28.965,62.575 L 25.078,60.746 L 25.535,59.832 L 26.678,57.317 L 28.965,52.286 L 29.194,52.058 L 29.651,50.915 L 31.48,46.57 L 32.852,43.369 L 38.568,31.023 L 40.854,25.764 L 41.54,24.392 L 41.769,24.392 L 58.231,31.48 L 58.231,31.48 L 66.691,35.138 L 66.92,35.367 L 74.922,39.025 L 74.922,39.025 L 74.236,40.854 L 71.721,46.57 L 71.492,47.028 L 68.291,54.344 L 65.776,60.06 L 65.776,60.289 L 62.804,66.92 L 62.804,66.92 L 61.661,69.663 L 61.661,69.663 L 59.603,74.465 L 59.374,75.608 Z" fill="rgba(59,130,246,0.25)" fill-rule="evenodd" stroke="rgba(59,130,246,0.9)" stroke-width="0.3" stroke-linejoin="round"/>
</svg>
