<svg xmlns="http://www.w3.org/2000/svg" width="100%" height="100%" viewBox="0 0 100 100" preserveAspectRatio="none">
  <path d="M 73.436,28.05 L 73.665,28.107 L 73.722,28.165 L 73.264,29.136 L 72.636,30.508 L 72.235,31.251 L 72.235,31.308 L 72.235,31.308 L 68.749,38.396 L 67.891,42.398 L 67.777,42.455 L 67.605,42.683 L 67.205,43.084 L 67.891,42.398 L 66.92,43.369 L 66.92,43.369 L 66.805,43.484 L 66.577,43.655 L 66.005,44.227 L 65.433,44.798 L 65.262,44.97 L 65.09,45.141 L 65.033,45.199 L 65.033,45.199 L 64.976,45.256 L 44.741,65.148 L 42.283,67.605 L 42.169,67.72 L 42.055,67.834 L 41.998,67.891 L 41.94,67.948 L 41.826,68.063 L 41.769,68.12 L 41.769,68.12 L 41.769,68.12 L 41.769,68.12 L 41.597,68.291 L 41.54,68.349 L 41.426,68.463 L 40.969,68.92 L 40.683,69.206 L 37.139,72.75 L 36.91,72.979 L 36.167,73.722 L 35.481,74.408 L 34.567,75.265 L 34.224,75.608 L 29.765,70.006 L 29.765,70.006 L 26.621,66.062 L 26.278,65.605 L 26.278,65.605 L 26.278,65.605 L 26.278,65.605 L 26.278,65.605 L 31.251,60.175 L 46.285,44.055 L 53.773,35.081 L 60.346,27.021 L 62.804,24.392 L 64.29,24.906 L 64.347,24.792 L 73.436,28.05 Z" fill="rgba(59,130,246,0.25)" fill-rule="evenodd" stroke="rgba(59,130,246,0.9)" stroke-width="0.3" stroke-linejoin="round"/>
</svg>
