<svg xmlns="http://www.w3.org/2000/svg" width="100%" height="100%" viewBox="0 0 100 100" preserveAspectRatio="none">
  <path d="M 69.435,38.568 L 69.206,39.025 L 67.605,42.455 L 66.234,45.427 L 64.633,49.085 L 61.661,56.173 L 60.746,58.231 L 60.746,58.231 L 58.46,63.49 L 56.402,68.291 L 54.573,71.95 L 54.573,71.95 L 52.515,71.035 L 47.485,68.749 L 45.427,67.834 L 43.141,66.92 L 43.141,66.92 L 39.94,65.548 L 36.739,64.176 L 36.739,63.947 L 33.766,62.804 L 30.565,61.432 L 30.565,61.432 L 37.196,46.113 L 38.339,43.598 L 39.94,39.94 L 41.54,36.739 L 41.54,36.51 L 41.54,36.281 L 41.54,36.281 L 42.912,33.309 L 43.141,33.08 L 43.369,32.395 L 44.741,29.651 L 44.97,28.736 L 45.427,28.05 L 46.342,28.508 L 47.942,29.194 L 48.628,29.422 L 52.286,31.251 L 52.744,31.251 L 57.088,33.309 L 58.231,33.766 L 58.231,33.766 L 61.432,35.138 L 65.09,36.739 L 65.09,36.739 L 67.834,37.882 L 68.291,38.111 L 69.435,38.568 Z" fill="rgba(59,130,246,0.25)" fill-rule="evenodd" stroke="rgba(59,130,246,0.9)" stroke-width="0.3" stroke-linejoin="round"/>
</svg>
