<svg xmlns="http://www.w3.org/2000/svg" width="100%" height="100%" viewBox="0 0 100 100" preserveAspectRatio="none">
  <path d="M 28.965,24.049 L 55.259,25.878 L 55.945,26.107 L 61.661,26.564 L 61.661,26.564 L 68.52,27.021 L 68.749,27.021 L 80.181,27.936 L 80.181,27.936 L 80.867,27.936 L 85.897,28.393 L 81.095,42.34 L 80.181,45.313 L 78.58,50.114 L 76.294,56.288 L 73.55,55.373 L 69.206,53.773 L 68.52,53.544 L 62.347,51.486 L 61.661,51.258 L 60.289,51.029 L 60.06,51.486 L 58.917,54.916 L 58.688,55.144 L 57.317,59.489 L 56.859,60.861 L 56.631,61.775 L 56.402,62.004 L 55.716,64.062 L 54.801,67.034 L 54.573,67.72 L 52.744,72.521 L 52.286,74.122 L 51.6,75.951 L 51.143,75.722 L 48.628,74.579 L 45.884,73.665 L 45.427,73.207 L 45.427,73.207 L 41.998,71.835 L 38.339,70.464 L 38.339,70.464 L 38.111,70.235 L 38.111,70.235 L 36.967,70.006 L 34.681,68.863 L 32.395,67.948 L 31.709,67.72 L 31.709,67.72 L 28.965,66.577 L 25.764,65.205 L 25.535,65.205 L 25.535,65.205 L 23.249,64.062 L 20.276,62.918 L 20.276,62.918 L 17.304,61.775 L 14.56,60.403 L 14.103,60.175 L 14.332,59.26 L 16.618,54.459 L 19.591,47.599 L 19.819,46.913 L 21.877,42.112 L 25.078,34.109 L 27.593,27.479 L 27.822,24.049 L 28.965,24.049 Z" fill="rgba(59,130,246,0.25)" fill-rule="evenodd" stroke="rgba(59,130,246,0.9)" stroke-width="0.3" stroke-linejoin="round"/>
</svg>
