<svg xmlns="http://www.w3.org/2000/svg" width="100%" height="100%" viewBox="0 0 100 100" preserveAspectRatio="none">
  <path d="M 41.883,65.09 L 41.883,65.319 L 38.454,67.834 L 38.454,67.834 L 32.052,70.578 L 31.137,67.834 L 28.851,60.06 L 26.335,51.829 L 25.878,50.229 L 25.878,50.229 L 25.878,50.229 L 26.107,50.229 L 27.479,50.0 L 34.567,48.628 L 39.825,47.714 L 39.825,47.942 L 40.74,51.372 L 42.798,54.116 L 44.398,56.173 L 47.599,55.716 L 48.057,55.716 L 48.971,55.487 L 50.8,58.002 L 62.232,49.543 L 58.574,44.513 L 59.031,44.055 L 56.516,40.168 L 55.602,39.94 L 54.001,37.653 L 63.833,30.337 L 65.205,29.422 L 65.205,29.422 L 67.034,31.937 L 68.634,34.224 L 72.293,39.254 L 74.122,41.312 L 66.577,47.028 L 66.348,47.028 L 49.2,59.832 L 41.883,65.09 Z" fill="rgba(59,130,246,0.25)" fill-rule="evenodd" stroke="rgba(59,130,246,0.9)" stroke-width="0.3" stroke-linejoin="round"/>
</svg>
