<svg xmlns="http://www.w3.org/2000/svg" width="100%" height="100%" viewBox="0 0 100 100" preserveAspectRatio="none">
  <path d="M 33.595,33.481 L 33.824,32.795 L 33.824,32.795 L 35.767,27.422 L 36.682,25.707 L 45.713,29.479 L 45.713,29.479 L 45.713,29.479 L 59.66,35.424 L 67.434,38.053 L 74.636,40.34 L 74.636,40.34 L 75.094,40.568 L 75.094,40.568 L 74.636,42.512 L 71.893,52.801 L 66.405,73.379 L 66.176,74.293 L 64.919,73.379 L 56.459,69.72 L 56.231,69.72 L 55.545,69.377 L 55.773,69.034 L 61.146,71.435 L 65.033,69.034 L 65.148,64.69 L 68.692,64.805 L 70.063,59.203 L 71.778,52.687 L 74.408,42.626 L 73.379,40.911 L 72.921,40.683 L 59.546,36.453 L 52.915,33.595 L 50.057,41.026 L 46.17,39.54 L 44.57,43.884 L 41.483,51.886 L 41.026,53.144 L 40.568,54.401 L 37.596,61.261 L 38.739,61.718 L 41.026,62.633 L 43.884,64.233 L 53.258,68.006 L 53.601,68.577 L 41.483,63.433 L 41.369,63.318 L 33.709,60.003 L 27.307,57.259 L 26.164,56.802 L 24.906,56.231 L 25.021,56.002 L 26.278,52.572 L 26.736,51.429 L 26.736,51.429 L 28.107,47.885 L 30.737,40.568 L 33.595,33.481 Z" fill="rgba(59,130,246,0.25)" fill-rule="evenodd" stroke="rgba(59,130,246,0.9)" stroke-width="0.3" stroke-linejoin="round"/>
</svg>
