<svg xmlns="http://www.w3.org/2000/svg" width="100%" height="100%" viewBox="0 0 100 100" preserveAspectRatio="none">
  <path d="M 47.828,65.205 L 47.599,65.205 L 44.856,62.69 L 42.34,60.403 L 42.34,60.175 L 40.054,58.117 L 38.454,56.745 L 38.225,56.288 L 37.996,56.288 L 37.768,55.83 L 37.539,55.602 L 37.31,55.373 L 35.71,49.886 L 34.567,46.227 L 34.338,45.541 L 33.881,44.398 L 40.054,42.569 L 42.34,41.883 L 45.541,40.74 L 52.629,38.682 L 54.001,38.225 L 60.861,35.938 L 64.976,34.795 L 64.976,35.71 L 65.433,38.225 L 66.119,41.883 L 65.662,42.34 L 65.433,42.569 L 64.976,43.255 L 62.918,45.541 L 62.461,46.227 L 60.403,48.971 L 59.946,49.428 L 59.946,49.428 L 56.974,53.315 L 55.602,54.916 L 55.373,55.144 L 55.373,55.373 L 51.486,60.403 L 51.258,60.632 L 48.742,64.062 L 47.828,65.205 L 47.828,65.205 Z" fill="rgba(59,130,246,0.25)" fill-rule="evenodd" stroke="rgba(59,130,246,0.9)" stroke-width="0.3" stroke-linejoin="round"/>
</svg>
