<svg xmlns="http://www.w3.org/2000/svg" width="100%" height="100%" viewBox="0 0 100 100" preserveAspectRatio="none">
  <path d="M 57.66,29.994 L 62.918,32.509 L 62.918,32.737 L 68.406,35.481 L 69.32,35.938 L 67.263,39.825 L 65.433,43.941 L 65.205,44.17 L 62.918,48.971 L 62.004,50.8 L 62.004,50.8 L 59.489,55.83 L 58.574,57.431 L 57.888,59.031 L 57.888,59.26 L 55.602,63.604 L 53.544,67.948 L 53.087,68.406 L 52.858,68.863 L 52.172,69.092 L 51.715,69.32 L 51.029,69.549 L 45.313,70.006 L 41.197,70.006 L 40.054,70.006 L 38.682,69.549 L 37.31,68.863 L 36.624,68.406 L 35.481,67.491 L 31.594,62.918 L 30.68,62.004 L 30.908,61.775 L 32.052,61.089 L 33.423,59.489 L 34.338,59.489 L 35.024,59.489 L 36.167,59.489 L 36.624,59.489 L 36.853,59.489 L 37.768,59.26 L 39.597,58.574 L 40.511,57.888 L 41.197,57.431 L 42.34,56.288 L 44.17,54.687 L 44.627,54.459 L 45.541,53.773 L 46.227,53.087 L 46.913,52.401 L 47.371,51.029 L 48.057,49.657 L 48.742,48.285 L 51.029,43.712 L 53.315,39.139 L 55.144,35.481 L 56.974,31.594 L 57.202,30.908 L 57.66,29.994 Z" fill="rgba(59,130,246,0.25)" fill-rule="evenodd" stroke="rgba(59,130,246,0.9)" stroke-width="0.3" stroke-linejoin="round"/>
</svg>
