<svg xmlns="http://www.w3.org/2000/svg" width="100%" height="100%" viewBox="0 0 100 100" preserveAspectRatio="none">
  <path d="M 72.521,41.998 L 71.378,44.055 L 69.206,46.913 L 68.177,48.4 L 67.377,49.428 L 66.005,50.915 L 64.176,52.744 L 61.889,54.573 L 59.489,56.745 L 56.974,58.803 L 56.059,59.603 L 55.487,59.946 L 55.259,60.06 L 53.887,60.861 L 50.457,62.118 L 47.028,63.376 L 44.741,64.29 L 42.112,64.404 L 40.397,64.633 L 40.168,64.633 L 39.025,64.862 L 35.824,64.404 L 27.25,63.261 L 26.678,63.033 L 25.993,62.804 L 26.221,62.575 L 26.678,61.546 L 27.364,60.289 L 27.822,58.917 L 28.622,55.945 L 28.965,54.459 L 29.536,52.401 L 30.565,48.628 L 31.594,44.17 L 32.166,44.398 L 32.966,44.856 L 35.024,45.884 L 36.51,46.57 L 38.339,47.142 L 39.825,47.256 L 40.74,47.142 L 41.54,47.028 L 42.912,46.685 L 44.856,45.427 L 49.771,42.683 L 55.259,40.054 L 60.975,37.082 L 64.176,35.138 L 74.007,39.597 L 72.521,41.998 Z" fill="rgba(59,130,246,0.25)" fill-rule="evenodd" stroke="rgba(59,130,246,0.9)" stroke-width="0.3" stroke-linejoin="round"/>
</svg>
