<svg xmlns="http://www.w3.org/2000/svg" width="100%" height="100%" viewBox="0 0 100 100" preserveAspectRatio="none">
  <path d="M 31.937,37.31 L 31.937,37.31 L 39.254,41.883 L 40.854,42.569 L 42.226,43.255 L 50.229,45.77 L 55.487,47.371 L 60.746,48.971 L 61.661,48.971 L 77.208,53.315 L 77.208,53.315 L 79.724,54.001 L 79.266,56.974 L 79.038,57.66 L 78.809,58.574 L 78.809,58.803 L 79.038,59.031 L 79.038,59.26 L 79.038,59.489 L 79.038,60.403 L 79.038,61.775 L 79.038,62.232 L 78.809,62.461 L 78.809,62.69 L 78.58,63.147 L 77.894,64.519 L 77.666,65.205 L 77.666,65.205 L 77.666,65.433 L 77.666,65.662 L 77.666,67.263 L 75.837,67.491 L 73.322,67.72 L 71.492,67.72 L 68.52,68.177 L 67.148,68.177 L 66.234,68.406 L 63.947,68.406 L 62.804,68.634 L 60.746,68.634 L 60.289,68.863 L 60.06,68.406 L 59.832,67.034 L 59.603,66.805 L 59.374,66.119 L 58.917,66.119 L 57.317,66.577 L 56.859,66.577 L 56.631,66.577 L 54.573,66.577 L 53.201,66.577 L 51.143,66.577 L 49.314,66.348 L 47.714,66.348 L 47.028,66.348 L 46.799,66.348 L 46.342,66.348 L 46.113,66.577 L 44.055,68.177 L 43.827,68.634 L 43.598,68.634 L 43.369,68.863 L 42.683,68.863 L 42.226,68.634 L 41.54,68.406 L 39.482,67.72 L 37.653,67.263 L 37.425,67.034 L 37.196,66.805 L 36.739,66.577 L 36.281,65.433 L 35.824,64.976 L 35.596,64.29 L 33.995,62.461 L 33.766,61.546 L 31.251,60.861 L 29.879,59.717 L 28.508,59.717 L 28.279,59.946 L 26.678,54.916 L 26.678,54.916 L 26.678,54.916 L 26.678,54.916 L 25.078,49.886 L 20.734,35.253 L 20.276,33.881 L 22.334,31.137 L 22.334,31.137 L 23.02,31.594 L 23.02,31.594 L 26.678,33.881 L 31.937,37.31 Z" fill="rgba(59,130,246,0.25)" fill-rule="evenodd" stroke="rgba(59,130,246,0.9)" stroke-width="0.3" stroke-linejoin="round"/>
</svg>
