<svg xmlns="http://www.w3.org/2000/svg" width="100%" height="100%" viewBox="0 0 100 100" preserveAspectRatio="none">
  <path d="M 63.261,49.314 L 63.261,49.543 L 61.889,50.229 L 61.889,50.0 L 61.889,50.0 L 61.432,50.229 L 59.603,51.143 L 57.774,52.058 L 57.088,52.286 L 56.859,52.515 L 56.859,52.744 L 54.801,55.259 L 53.658,56.402 L 51.6,58.917 L 51.372,59.146 L 49.771,60.746 L 47.942,63.261 L 47.485,63.719 L 46.799,64.404 L 46.57,64.633 L 45.199,66.234 L 44.741,66.691 L 43.827,66.92 L 42.226,68.063 L 41.769,68.291 L 39.482,69.435 L 37.425,70.578 L 36.967,70.806 L 35.138,71.721 L 34.452,72.178 L 32.852,72.864 L 31.709,73.55 L 29.194,74.922 L 28.965,74.922 L 28.965,75.151 L 27.364,77.208 L 26.907,77.437 L 25.307,79.495 L 22.563,82.925 L 21.877,83.61 L 21.877,82.239 L 21.648,80.638 L 21.648,80.181 L 21.42,76.98 L 21.42,76.98 L 20.962,71.721 L 21.648,71.721 L 22.563,71.035 L 23.935,69.663 L 25.078,68.52 L 26.221,67.377 L 26.45,67.377 L 27.136,66.691 L 28.05,66.005 L 29.194,65.548 L 32.852,63.719 L 33.08,63.49 L 34.681,62.575 L 36.281,61.661 L 39.94,59.603 L 41.083,58.917 L 42.912,57.545 L 42.912,57.545 L 43.598,56.859 L 44.513,55.945 L 45.199,55.03 L 45.656,54.344 L 46.342,52.744 L 47.714,50.229 L 48.171,49.085 L 48.171,49.085 L 48.171,48.171 L 48.4,47.485 L 48.4,47.485 L 48.628,45.427 L 48.628,44.513 L 48.857,44.284 L 47.485,40.854 L 45.884,36.053 L 43.598,29.194 L 42.912,27.822 L 42.455,27.364 L 44.513,24.621 L 45.656,23.02 L 46.113,22.106 L 46.57,21.877 L 47.256,21.648 L 51.143,20.962 L 53.887,20.505 L 56.402,19.819 L 61.203,19.133 L 61.432,18.905 L 64.176,18.447 L 66.462,18.219 L 67.605,17.99 L 68.291,18.219 L 69.206,18.676 L 69.663,19.133 L 70.349,18.676 L 70.578,18.447 L 71.264,17.99 L 74.465,16.39 L 74.465,16.618 L 75.608,19.819 L 76.751,22.792 L 78.352,26.907 L 79.038,28.965 L 77.894,30.565 L 76.294,32.852 L 74.693,34.91 L 74.236,35.596 L 72.636,36.281 L 70.578,37.425 L 68.291,38.568 L 66.005,39.711 L 63.033,41.083 L 62.118,41.54 L 66.92,47.256 L 66.92,47.485 L 63.261,49.314 L 63.261,49.314 Z" fill="rgba(59,130,246,0.25)" fill-rule="evenodd" stroke="rgba(59,130,246,0.9)" stroke-width="0.3" stroke-linejoin="round"/>
</svg>
