<svg xmlns="http://www.w3.org/2000/svg" width="100%" height="100%" viewBox="0 0 100 100" preserveAspectRatio="none">
  <path d="M 65.319,48.285 L 65.09,48.971 L 60.975,59.946 L 60.289,61.318 L 56.173,59.489 L 53.43,58.345 L 53.201,58.345 L 52.744,58.117 L 50.457,57.431 L 47.256,56.059 L 47.028,56.059 L 44.741,55.144 L 42.455,54.459 L 42.226,54.23 L 41.998,54.23 L 40.397,53.544 L 38.568,52.858 L 36.053,51.943 L 34.681,51.486 L 34.681,51.486 L 37.425,44.856 L 37.425,44.627 L 39.254,39.825 L 39.711,38.682 L 39.711,38.682 L 40.397,38.682 L 44.97,40.511 L 46.113,40.969 L 48.171,41.655 L 50.229,42.34 L 51.6,43.026 L 55.259,44.398 L 57.317,45.313 L 58.231,45.541 L 63.49,47.599 L 64.176,47.828 L 65.319,48.285 Z" fill="rgba(59,130,246,0.25)" fill-rule="evenodd" stroke="rgba(59,130,246,0.9)" stroke-width="0.3" stroke-linejoin="round"/>
</svg>
