<svg xmlns="http://www.w3.org/2000/svg" width="100%" height="100%" viewBox="0 0 100 100" preserveAspectRatio="none">
  <path d="M 60.746,45.656 L 58.231,51.829 L 56.173,56.631 L 55.487,58.002 L 53.887,61.661 L 53.887,61.889 L 48.628,59.603 L 48.171,59.374 L 48.4,58.688 L 50.0,55.03 L 46.342,53.658 L 44.513,52.744 L 41.54,51.372 L 40.397,53.887 L 38.797,53.201 L 39.482,51.6 L 39.482,51.6 L 40.168,50.0 L 40.626,48.857 L 41.54,46.799 L 42.455,44.97 L 43.369,42.683 L 44.97,39.482 L 45.199,38.797 L 45.427,38.111 L 45.427,38.339 L 46.799,38.797 L 47.028,38.797 L 50.229,40.397 L 52.744,41.54 L 52.744,41.54 L 57.317,43.369 L 58.688,44.055 L 61.203,45.199 L 60.746,45.656 Z" fill="rgba(59,130,246,0.25)" fill-rule="evenodd" stroke="rgba(59,130,246,0.9)" stroke-width="0.3" stroke-linejoin="round"/>
</svg>
