<svg xmlns="http://www.w3.org/2000/svg" width="100%" height="100%" viewBox="0 0 100 100" preserveAspectRatio="none">
  <path d="M 49.2,32.166 L 50.343,32.395 L 51.029,32.852 L 53.544,34.224 L 59.946,38.111 L 62.918,39.711 L 63.833,40.397 L 64.519,40.854 L 64.519,41.54 L 64.062,42.455 L 63.376,45.427 L 61.089,51.829 L 59.26,56.173 L 58.803,57.317 L 58.117,58.917 L 57.66,60.06 L 57.431,60.975 L 56.745,62.804 L 56.288,64.862 L 56.288,65.319 L 51.715,64.404 L 45.77,66.691 L 47.142,61.889 L 40.054,59.146 L 35.481,67.834 L 35.481,67.834 L 36.396,55.716 L 37.996,52.744 L 49.2,32.166 Z" fill="rgba(59,130,246,0.25)" fill-rule="evenodd" stroke="rgba(59,130,246,0.9)" stroke-width="0.3" stroke-linejoin="round"/>
</svg>
