<svg xmlns="http://www.w3.org/2000/svg" width="100%" height="100%" viewBox="0 0 100 100" preserveAspectRatio="none">
  <path d="M 41.998,64.176 L 41.998,64.176 L 36.739,63.261 L 36.51,63.033 L 35.367,63.033 L 35.367,63.033 L 35.367,62.347 L 35.596,62.118 L 35.596,61.661 L 37.653,57.317 L 37.653,57.317 L 38.339,55.716 L 39.711,53.201 L 39.711,52.972 L 39.94,49.771 L 39.94,49.771 L 39.94,47.714 L 39.94,47.485 L 40.397,42.455 L 40.626,38.111 L 40.626,37.653 L 40.626,36.51 L 40.854,34.91 L 40.854,32.852 L 40.854,32.166 L 41.083,32.166 L 49.085,34.91 L 56.631,37.653 L 56.859,37.882 L 58.231,38.339 L 60.518,39.025 L 64.633,40.626 L 64.633,40.626 L 63.719,47.942 L 63.261,50.686 L 62.347,56.631 L 62.118,58.231 L 61.889,59.832 L 61.889,59.832 L 61.432,63.947 L 61.203,64.404 L 60.975,66.462 L 60.746,67.834 L 59.603,67.605 L 51.829,66.005 L 51.829,66.005 L 41.998,64.176 Z" fill="rgba(59,130,246,0.25)" fill-rule="evenodd" stroke="rgba(59,130,246,0.9)" stroke-width="0.3" stroke-linejoin="round"/>
</svg>
