<svg xmlns="http://www.w3.org/2000/svg" width="100%" height="100%" viewBox="0 0 100 100" preserveAspectRatio="none">
  <path d="M 58.46,42.798 L 59.603,43.026 L 59.603,43.026 L 60.746,43.255 L 60.746,43.255 L 61.203,43.484 L 61.203,43.484 L 61.203,43.484 L 61.203,43.484 L 61.432,44.398 L 61.432,46.685 L 61.432,47.371 L 61.432,47.371 L 60.975,61.089 L 60.975,61.775 L 60.975,61.775 L 60.975,61.775 L 58.002,61.546 L 57.545,61.546 L 52.286,61.089 L 51.6,60.861 L 51.6,60.861 L 47.714,60.175 L 47.485,60.175 L 47.028,60.175 L 47.028,60.175 L 40.168,59.26 L 38.568,58.803 L 39.254,54.001 L 39.482,52.172 L 40.854,40.054 L 40.854,39.825 L 41.083,39.597 L 41.083,38.911 L 41.083,38.225 L 43.369,38.911 L 43.369,38.911 L 52.744,41.197 L 52.972,41.197 L 52.972,41.197 L 52.972,41.426 L 58.46,42.798 Z" fill="rgba(59,130,246,0.25)" fill-rule="evenodd" stroke="rgba(59,130,246,0.9)" stroke-width="0.3" stroke-linejoin="round"/>
</svg>
