<svg xmlns="http://www.w3.org/2000/svg" width="100%" height="100%" viewBox="0 0 100 100" preserveAspectRatio="none">
  <path d="M 50.686,35.938 L 51.143,36.624 L 52.972,39.139 L 55.259,42.569 L 57.317,45.77 L 59.832,49.657 L 60.06,49.657 L 60.975,51.258 L 61.661,52.401 L 61.889,52.629 L 62.347,53.315 L 60.975,54.001 L 47.485,60.403 L 40.626,63.147 L 39.025,64.062 L 38.339,62.69 L 37.882,61.775 L 37.653,61.546 L 38.339,60.632 L 38.797,59.946 L 41.083,55.144 L 42.912,51.029 L 43.141,50.8 L 44.284,48.514 L 44.284,48.514 L 45.656,45.541 L 47.256,42.569 L 47.256,42.569 L 47.485,42.112 L 48.857,39.139 L 50.686,35.938 Z" fill="rgba(59,130,246,0.25)" fill-rule="evenodd" stroke="rgba(59,130,246,0.9)" stroke-width="0.3" stroke-linejoin="round"/>
</svg>
