<svg xmlns="http://www.w3.org/2000/svg" width="100%" height="100%" viewBox="0 0 100 100" preserveAspectRatio="none">
  <path d="M 47.828,62.804 L 47.371,62.347 L 42.569,58.231 L 41.426,57.317 L 40.74,56.859 L 40.74,56.631 L 40.511,56.631 L 38.454,54.573 L 37.082,53.201 L 36.624,52.744 L 34.567,50.686 L 32.737,48.4 L 32.737,48.4 L 33.652,48.628 L 33.652,48.171 L 35.481,43.827 L 35.938,43.369 L 36.853,42.455 L 38.454,42.226 L 39.139,40.626 L 39.825,39.482 L 40.511,39.254 L 40.74,39.254 L 40.74,39.025 L 41.197,39.482 L 41.883,39.254 L 42.34,38.568 L 42.34,38.568 L 42.569,38.568 L 43.026,37.882 L 44.398,37.653 L 50.572,37.196 L 53.544,37.425 L 55.602,38.111 L 67.263,41.312 L 66.805,41.769 L 66.577,42.226 L 66.119,42.455 L 59.26,50.0 L 57.202,52.515 L 56.745,52.972 L 55.373,54.573 L 48.971,61.661 L 48.285,62.347 L 47.828,62.804 Z" fill="rgba(59,130,246,0.25)" fill-rule="evenodd" stroke="rgba(59,130,246,0.9)" stroke-width="0.3" stroke-linejoin="round"/>
</svg>
