<svg xmlns="http://www.w3.org/2000/svg" width="100%" height="100%" viewBox="0 0 100 100" preserveAspectRatio="none">
  <path d="M 57.317,11.359 L 63.261,14.332 L 65.548,15.475 L 65.548,15.475 L 70.121,17.533 L 70.349,17.761 L 70.578,20.048 L 70.806,21.648 L 71.035,23.935 L 71.264,26.678 L 71.264,26.678 L 71.721,29.194 L 71.721,30.565 L 71.95,31.251 L 71.95,31.709 L 72.178,32.623 L 72.178,33.309 L 72.178,33.995 L 72.407,34.452 L 72.407,35.367 L 72.636,36.281 L 73.093,36.967 L 74.465,38.797 L 75.379,39.94 L 77.666,42.455 L 77.894,42.455 L 79.724,44.513 L 82.467,47.028 L 83.153,47.485 L 83.839,48.171 L 85.211,49.543 L 85.897,50.229 L 87.04,50.915 L 87.04,51.143 L 86.811,51.6 L 86.354,52.744 L 83.153,60.975 L 82.696,62.347 L 82.239,63.261 L 81.553,64.633 L 80.181,68.291 L 79.952,68.749 L 79.038,71.492 L 78.123,73.55 L 77.894,74.236 L 72.178,88.641 L 71.035,87.955 L 69.663,87.497 L 67.377,86.354 L 67.148,86.354 L 64.633,85.211 L 62.575,84.296 L 61.432,83.839 L 58.917,82.696 L 55.945,81.324 L 53.43,80.409 L 53.43,80.181 L 50.229,78.809 L 47.485,77.666 L 47.485,77.666 L 45.656,76.98 L 43.827,76.065 L 43.827,76.065 L 43.598,76.065 L 39.482,74.465 L 36.053,72.864 L 36.053,72.864 L 32.395,71.264 L 28.279,69.435 L 28.05,69.435 L 26.678,68.977 L 26.678,68.977 L 23.249,67.377 L 20.962,66.462 L 20.276,66.005 L 17.761,64.862 L 17.533,64.862 L 15.475,63.947 L 12.96,62.804 L 13.417,62.118 L 14.56,60.746 L 16.618,58.46 L 19.819,55.03 L 19.819,55.03 L 21.191,53.887 L 23.249,51.6 L 24.621,50.0 L 24.849,49.771 L 25.078,49.314 L 25.307,48.171 L 25.535,47.485 L 25.535,47.485 L 27.822,42.683 L 29.194,39.711 L 29.194,39.711 L 31.023,35.824 L 33.08,31.023 L 33.766,31.48 L 36.281,32.623 L 38.568,33.766 L 38.797,33.766 L 41.312,35.138 L 41.998,35.367 L 43.369,36.053 L 44.513,36.281 L 45.656,36.053 L 47.485,32.166 L 49.314,28.279 L 49.314,28.279 L 51.829,23.02 L 53.201,19.819 L 53.201,19.819 L 54.116,17.533 L 56.402,12.96 L 56.859,12.045 L 57.088,11.359 L 57.317,11.359 Z" fill="rgba(59,130,246,0.25)" fill-rule="evenodd" stroke="rgba(59,130,246,0.9)" stroke-width="0.3" stroke-linejoin="round"/>
</svg>
