<svg xmlns="http://www.w3.org/2000/svg" width="100%" height="100%" viewBox="0 0 100 100" preserveAspectRatio="none">
  <path d="M 61.432,56.974 L 56.859,58.803 L 54.344,59.946 L 54.116,59.946 L 52.744,60.403 L 51.6,60.861 L 49.543,62.004 L 48.857,60.861 L 46.799,57.202 L 46.57,56.974 L 46.113,56.288 L 44.97,54.23 L 44.741,53.773 L 43.598,51.943 L 43.598,51.943 L 42.683,50.343 L 41.769,48.971 L 39.94,46.227 L 39.254,45.084 L 38.568,43.712 L 40.168,42.798 L 46.342,40.969 L 46.342,40.969 L 54.801,38.682 L 56.173,37.996 L 57.774,43.941 L 58.002,44.627 L 59.603,50.572 L 60.975,55.373 L 61.432,56.974 Z" fill="rgba(59,130,246,0.25)" fill-rule="evenodd" stroke="rgba(59,130,246,0.9)" stroke-width="0.3" stroke-linejoin="round"/>
</svg>
