<svg xmlns="http://www.w3.org/2000/svg" width="100%" height="100%" viewBox="0 0 100 100" preserveAspectRatio="none">
  <path d="M 56.059,39.025 L 57.66,42.912 L 59.946,49.314 L 64.747,58.917 L 65.433,60.289 L 60.403,63.261 L 56.745,67.148 L 56.745,67.148 L 53.315,70.806 L 49.886,74.465 L 49.2,75.608 L 47.371,74.236 L 44.856,71.721 L 44.398,71.264 L 40.969,68.291 L 40.969,68.291 L 39.825,67.377 L 39.825,67.148 L 37.082,64.862 L 35.481,63.49 L 35.024,63.033 L 34.567,62.575 L 34.567,62.575 L 39.825,55.716 L 42.34,52.286 L 45.541,47.942 L 50.572,41.312 L 56.059,39.025 Z M 50.572,24.392 L 54.001,33.538 L 50.572,24.392 L 50.572,24.392 Z" fill="rgba(59,130,246,0.25)" fill-rule="evenodd" stroke="rgba(59,130,246,0.9)" stroke-width="0.3" stroke-linejoin="round"/>
</svg>
