<svg xmlns="http://www.w3.org/2000/svg" width="100%" height="100%" viewBox="0 0 100 100" preserveAspectRatio="none">
  <path d="M 64.404,63.604 L 63.947,63.376 L 52.515,59.031 L 51.829,58.803 L 50.686,58.574 L 50.229,58.345 L 47.028,57.202 L 46.113,56.974 L 35.596,53.315 L 35.596,53.087 L 27.364,50.343 L 26.45,50.114 L 26.678,49.428 L 27.593,47.371 L 28.736,43.712 L 28.965,43.484 L 30.108,39.825 L 30.794,37.996 L 32.395,33.423 L 33.309,33.652 L 34.681,34.109 L 35.367,34.338 L 44.741,37.768 L 47.028,38.454 L 51.829,40.283 L 53.658,40.969 L 54.116,41.197 L 55.487,41.655 L 56.402,41.883 L 60.746,43.484 L 63.719,44.398 L 64.633,44.627 L 65.09,45.541 L 65.319,45.77 L 66.005,47.142 L 66.234,47.371 L 67.834,51.258 L 70.121,57.202 L 71.492,59.717 L 71.721,60.175 L 73.322,64.29 L 73.55,64.976 L 73.322,65.662 L 73.093,66.577 L 71.492,66.119 L 64.404,63.604 Z" fill="rgba(59,130,246,0.25)" fill-rule="evenodd" stroke="rgba(59,130,246,0.9)" stroke-width="0.3" stroke-linejoin="round"/>
</svg>
