<svg xmlns="http://www.w3.org/2000/svg" width="100%" height="100%" viewBox="0 0 100 100" preserveAspectRatio="none">
  <path d="M 75.379,61.546 L 74.693,62.232 L 73.55,64.747 L 69.892,72.521 L 68.52,75.722 L 68.291,76.18 L 66.691,80.066 L 63.719,86.697 L 59.603,84.868 L 56.173,83.496 L 55.945,83.267 L 54.116,82.582 L 52.058,81.667 L 52.058,81.667 L 50.0,80.752 L 46.342,79.152 L 45.656,78.695 L 43.827,78.009 L 40.626,76.637 L 39.711,76.18 L 39.711,76.18 L 39.482,76.18 L 39.482,76.18 L 39.482,75.951 L 39.482,75.951 L 37.882,75.265 L 34.224,73.665 L 34.224,73.665 L 33.766,73.665 L 28.965,71.378 L 28.965,71.378 L 28.965,71.378 L 26.678,70.464 L 26.678,70.464 L 17.99,66.577 L 15.475,65.433 L 15.932,64.747 L 22.334,49.428 L 22.563,48.971 L 25.078,43.484 L 26.45,40.511 L 32.166,27.707 L 32.395,27.25 L 36.967,16.733 L 38.568,13.303 L 41.312,14.446 L 46.57,16.961 L 46.799,16.961 L 52.286,19.476 L 52.286,19.476 L 56.402,21.305 L 60.06,22.906 L 60.289,22.906 L 68.977,26.564 L 77.437,30.222 L 77.666,30.451 L 80.638,29.994 L 80.867,31.594 L 82.239,41.883 L 82.239,41.883 L 82.239,41.883 L 83.153,49.657 L 84.068,56.288 L 84.525,60.175 L 81.781,60.632 L 79.952,60.861 L 75.379,61.546 Z" fill="rgba(59,130,246,0.25)" fill-rule="evenodd" stroke="rgba(59,130,246,0.9)" stroke-width="0.3" stroke-linejoin="round"/>
</svg>
