<svg xmlns="http://www.w3.org/2000/svg" width="100%" height="100%" viewBox="0 0 100 100" preserveAspectRatio="none">
  <path d="M 64.976,61.889 L 32.966,71.721 L 31.594,72.178 L 31.594,70.578 L 31.366,68.063 L 31.137,63.947 L 31.137,63.719 L 30.908,61.432 L 30.908,59.146 L 30.908,59.146 L 30.451,55.03 L 30.222,50.915 L 30.222,50.915 L 30.222,48.4 L 30.222,48.4 L 29.994,44.97 L 29.765,41.998 L 29.765,41.769 L 29.536,36.053 L 29.079,33.08 L 29.079,31.709 L 29.079,31.48 L 29.079,31.48 L 30.68,31.48 L 33.881,31.023 L 36.167,31.023 L 38.454,30.794 L 38.682,30.794 L 40.054,30.565 L 41.883,30.337 L 45.313,30.108 L 45.313,30.108 L 49.657,29.651 L 49.886,29.651 L 51.258,29.651 L 51.258,29.651 L 57.431,28.965 L 57.66,28.965 L 57.888,28.965 L 58.345,28.965 L 58.345,28.965 L 58.803,28.965 L 59.031,28.965 L 65.205,28.279 L 70.006,28.05 L 70.921,27.822 L 69.092,37.196 L 69.092,37.196 L 68.406,40.397 L 68.406,40.397 L 68.406,41.083 L 67.491,45.427 L 67.491,45.656 L 67.263,46.57 L 67.034,47.714 L 67.034,47.714 L 66.577,51.372 L 66.348,51.829 L 65.891,55.03 L 65.662,55.259 L 65.205,58.46 L 65.205,58.688 L 64.747,60.289 L 64.747,60.975 L 64.976,61.889 Z" fill="rgba(59,130,246,0.25)" fill-rule="evenodd" stroke="rgba(59,130,246,0.9)" stroke-width="0.3" stroke-linejoin="round"/>
</svg>
