<svg xmlns="http://www.w3.org/2000/svg" width="100%" height="100%" viewBox="0 0 100 100" preserveAspectRatio="none">
  <path d="M 31.366,46.913 L 32.966,45.313 L 35.024,44.856 L 34.795,43.026 L 40.054,42.569 L 40.283,42.569 L 40.283,41.883 L 42.34,41.655 L 42.34,41.655 L 45.77,40.511 L 44.627,38.454 L 53.773,35.481 L 59.031,33.652 L 59.946,33.423 L 61.546,32.966 L 70.464,30.451 L 70.921,31.823 L 71.149,32.966 L 71.378,33.195 L 72.064,36.853 L 72.064,37.082 L 72.064,38.911 L 71.835,40.283 L 71.378,45.999 L 71.835,48.057 L 72.064,48.285 L 57.431,66.348 L 54.459,66.119 L 52.172,69.549 L 40.969,69.092 L 28.393,64.747 L 28.622,61.089 L 30.222,59.489 L 30.908,58.803 L 27.936,54.916 L 30.222,53.544 L 28.851,50.572 L 29.765,48.742 L 31.366,46.913 Z" fill="rgba(59,130,246,0.25)" fill-rule="evenodd" stroke="rgba(59,130,246,0.9)" stroke-width="0.3" stroke-linejoin="round"/>
</svg>
