<svg xmlns="http://www.w3.org/2000/svg" width="100%" height="100%" viewBox="0 0 100 100" preserveAspectRatio="none">
  <path d="M 78.352,56.088 L 77.551,56.888 L 77.437,57.002 L 77.323,57.117 L 77.266,57.517 L 76.408,58.317 L 76.408,59.117 L 76.408,59.803 L 76.294,59.975 L 75.665,60.889 L 75.608,61.061 L 75.265,62.261 L 75.265,62.261 L 75.094,62.261 L 75.094,62.261 L 72.235,62.032 L 72.178,62.032 L 70.464,61.918 L 70.464,61.918 L 69.034,61.804 L 68.863,61.747 L 62.29,61.289 L 62.004,61.289 L 62.004,61.289 L 57.602,60.946 L 55.316,60.775 L 55.316,60.775 L 49.428,60.375 L 47.885,60.203 L 46.628,59.975 L 46.628,59.975 L 45.427,59.689 L 44.798,59.517 L 44.798,59.517 L 40.911,58.431 L 40.683,58.431 L 39.368,58.031 L 38.053,57.631 L 36.053,57.002 L 35.71,56.831 L 35.31,56.659 L 33.481,55.516 L 33.481,55.516 L 32.166,54.659 L 31.251,54.087 L 31.251,54.087 L 31.08,53.973 L 30.851,53.801 L 30.222,53.401 L 27.536,51.743 L 27.536,51.743 L 26.507,51.057 L 24.735,50.029 L 24.049,49.686 L 23.878,49.571 L 22.048,48.828 L 22.048,48.828 L 20.162,48.142 L 20.162,48.142 L 20.219,48.142 L 20.905,47.571 L 22.334,44.655 L 22.449,44.427 L 23.649,41.969 L 23.649,41.969 L 23.649,41.969 L 24.906,39.282 L 25.707,37.739 L 26.45,38.139 L 26.621,38.253 L 27.136,38.311 L 28.565,38.425 L 29.308,39.568 L 29.994,40.654 L 31.423,42.255 L 33.423,43.684 L 33.366,43.912 L 34.567,44.827 L 36.51,45.513 L 38.282,45.513 L 41.769,48.085 L 45.827,49.343 L 47.714,50.486 L 49.657,50.657 L 49.829,50.6 L 51.372,50.372 L 52.515,50.772 L 53.83,51.0 L 53.887,51.0 L 56.459,52.315 L 59.031,53.401 L 70.349,52.544 L 78.923,51.801 L 79.038,52.086 L 79.209,52.315 L 79.838,52.772 L 79.781,53.001 L 79.552,53.744 L 79.552,53.744 L 79.495,53.801 L 79.495,53.858 L 79.495,53.858 L 79.495,53.916 L 79.381,54.258 L 79.666,54.601 L 78.809,55.63 L 78.637,55.859 L 78.352,56.088 Z" fill="rgba(59,130,246,0.25)" fill-rule="evenodd" stroke="rgba(59,130,246,0.9)" stroke-width="0.3" stroke-linejoin="round"/>
</svg>
