<svg xmlns="http://www.w3.org/2000/svg" width="100%" height="100%" viewBox="0 0 100 100" preserveAspectRatio="none">
  <path d="M 58.231,65.319 L 56.631,65.09 L 52.744,65.319 L 50.229,65.319 L 48.628,65.319 L 48.628,65.319 L 48.4,65.319 L 48.4,65.319 L 45.884,65.319 L 38.797,65.548 L 35.824,65.319 L 35.138,65.319 L 36.281,64.404 L 37.425,63.49 L 39.254,62.118 L 39.94,61.432 L 40.854,60.518 L 41.998,59.146 L 42.455,58.231 L 42.683,58.002 L 42.912,57.774 L 43.141,57.317 L 43.598,56.173 L 47.714,49.771 L 50.686,44.97 L 51.143,44.284 L 53.201,41.083 L 53.887,40.168 L 55.487,37.653 L 55.945,36.967 L 57.088,35.824 L 57.545,35.138 L 57.774,34.91 L 58.231,34.452 L 58.46,34.452 L 58.688,34.452 L 61.661,35.596 L 64.862,36.739 L 64.862,36.967 L 64.633,37.425 L 64.404,38.568 L 63.261,43.598 L 61.889,50.229 L 61.889,50.457 L 61.661,51.372 L 60.975,53.887 L 60.06,57.317 L 58.231,65.319 L 58.231,65.319 Z" fill="rgba(59,130,246,0.25)" fill-rule="evenodd" stroke="rgba(59,130,246,0.9)" stroke-width="0.3" stroke-linejoin="round"/>
</svg>
