<svg xmlns="http://www.w3.org/2000/svg" width="100%" height="100%" viewBox="0 0 100 100" preserveAspectRatio="none">
  <path d="M 58.231,56.516 L 58.002,56.974 L 58.002,58.117 L 58.688,59.031 L 61.661,63.376 L 61.889,64.062 L 62.118,64.747 L 62.347,66.119 L 60.06,65.433 L 55.03,63.604 L 50.229,62.232 L 47.028,60.861 L 44.97,59.26 L 41.769,56.745 L 35.138,47.371 L 35.138,47.371 L 36.967,46.227 L 37.653,45.77 L 37.653,45.77 L 36.281,39.825 L 34.681,33.881 L 37.425,33.881 L 42.226,34.567 L 42.912,34.567 L 45.656,35.024 L 50.0,35.481 L 50.229,35.481 L 53.201,35.71 L 54.573,35.938 L 56.631,36.167 L 56.631,36.167 L 62.118,36.853 L 63.49,37.082 L 64.404,37.31 L 65.319,37.539 L 65.09,37.996 L 64.862,37.768 L 59.603,52.401 L 58.231,56.516 L 58.231,56.516 Z" fill="rgba(59,130,246,0.25)" fill-rule="evenodd" stroke="rgba(59,130,246,0.9)" stroke-width="0.3" stroke-linejoin="round"/>
</svg>
