<svg xmlns="http://www.w3.org/2000/svg" width="100%" height="100%" viewBox="0 0 100 100" preserveAspectRatio="none">
  <path d="M 44.284,67.148 L 44.055,67.148 L 43.827,67.148 L 43.369,66.691 L 42.683,66.234 L 41.083,64.862 L 39.025,62.804 L 38.797,62.804 L 38.339,62.347 L 38.339,62.347 L 36.281,60.518 L 33.538,58.002 L 33.995,57.545 L 37.882,52.972 L 39.94,50.457 L 41.54,48.628 L 46.799,42.683 L 46.799,42.683 L 47.485,41.998 L 51.829,37.425 L 55.716,32.852 L 58.688,35.596 L 58.688,35.596 L 66.462,42.455 L 66.462,42.455 L 63.719,45.199 L 60.289,49.314 L 57.545,52.286 L 56.173,53.658 L 52.058,58.231 L 48.171,62.804 L 44.741,66.691 L 44.284,67.148 Z" fill="rgba(59,130,246,0.25)" fill-rule="evenodd" stroke="rgba(59,130,246,0.9)" stroke-width="0.3" stroke-linejoin="round"/>
</svg>
