<svg xmlns="http://www.w3.org/2000/svg" width="100%" height="100%" viewBox="0 0 100 100" preserveAspectRatio="none">
  <path d="M 63.261,64.976 L 63.033,64.976 L 55.03,65.662 L 54.344,54.23 L 54.344,53.544 L 46.57,56.516 L 34.91,60.861 L 34.91,60.861 L 34.224,51.486 L 33.995,48.971 L 33.995,48.971 L 33.766,47.599 L 33.766,47.599 L 33.538,46.456 L 33.538,46.456 L 33.766,46.456 L 33.766,46.456 L 33.766,46.456 L 36.053,45.541 L 39.482,44.17 L 43.598,42.569 L 50.457,40.283 L 54.344,38.682 L 55.259,38.454 L 58.46,37.082 L 64.404,35.253 L 66.462,34.338 L 66.234,35.938 L 65.776,42.34 L 65.09,49.2 L 65.09,53.315 L 65.319,61.775 L 65.548,64.976 L 65.548,64.976 L 63.261,64.976 L 63.261,64.519 L 63.261,64.976 Z" fill="rgba(59,130,246,0.25)" fill-rule="evenodd" stroke="rgba(59,130,246,0.9)" stroke-width="0.3" stroke-linejoin="round"/>
</svg>
