<svg xmlns="http://www.w3.org/2000/svg" width="100%" height="100%" viewBox="0 0 100 100" preserveAspectRatio="none">
  <path d="M 59.146,60.746 L 57.774,60.975 L 53.43,60.975 L 52.515,60.518 L 51.372,60.289 L 47.028,60.975 L 46.342,61.203 L 44.284,61.889 L 40.168,63.033 L 39.254,63.261 L 36.967,63.49 L 36.967,62.804 L 38.111,54.801 L 38.797,49.543 L 38.797,49.543 L 39.025,47.485 L 39.94,41.769 L 40.397,38.568 L 40.626,36.51 L 42.226,36.967 L 49.085,37.882 L 49.085,37.882 L 49.543,37.882 L 49.771,37.882 L 53.658,38.568 L 53.658,38.568 L 54.344,38.797 L 59.603,39.254 L 60.06,39.254 L 63.033,39.482 L 63.033,39.482 L 63.033,39.711 L 63.033,40.626 L 62.575,55.945 L 62.347,58.917 L 62.347,60.518 L 62.347,60.518 L 59.603,60.746 L 59.146,60.746 Z" fill="rgba(59,130,246,0.25)" fill-rule="evenodd" stroke="rgba(59,130,246,0.9)" stroke-width="0.3" stroke-linejoin="round"/>
</svg>
