<svg xmlns="http://www.w3.org/2000/svg" width="100%" height="100%" viewBox="0 0 100 100" preserveAspectRatio="none">
  <path d="M 56.974,52.286 L 54.916,56.859 L 52.401,62.575 L 50.114,67.834 L 48.742,71.035 L 47.371,70.349 L 46.913,70.121 L 42.569,67.834 L 40.054,66.691 L 40.054,66.691 L 39.597,66.462 L 38.911,66.234 L 38.911,66.234 L 37.082,65.319 L 35.253,64.176 L 35.481,63.719 L 35.481,63.49 L 35.938,62.575 L 38.454,57.088 L 38.911,56.173 L 39.825,53.887 L 40.969,51.6 L 41.197,50.915 L 45.77,40.854 L 51.029,28.965 L 53.773,30.108 L 54.916,30.565 L 56.974,31.48 L 56.974,31.48 L 58.574,32.166 L 60.175,33.08 L 60.403,33.08 L 62.232,33.766 L 63.376,34.224 L 63.376,34.452 L 64.747,34.681 L 63.376,38.111 L 60.175,44.97 L 59.26,47.028 L 56.974,52.286 Z" fill="rgba(59,130,246,0.25)" fill-rule="evenodd" stroke="rgba(59,130,246,0.9)" stroke-width="0.3" stroke-linejoin="round"/>
</svg>
