<svg xmlns="http://www.w3.org/2000/svg" width="100%" height="100%" viewBox="0 0 100 100" preserveAspectRatio="none">
  <path d="M 65.205,34.795 L 64.747,36.167 L 59.031,50.343 L 53.773,64.976 L 51.029,72.064 L 48.514,71.149 L 43.941,69.32 L 34.795,65.433 L 35.024,64.29 L 36.396,60.861 L 36.396,60.861 L 37.996,56.516 L 37.996,56.516 L 38.454,55.144 L 38.682,55.144 L 40.283,50.572 L 40.283,50.572 L 40.74,49.657 L 41.655,47.142 L 41.655,47.142 L 42.798,43.941 L 42.798,43.941 L 45.541,36.853 L 45.541,36.853 L 48.285,29.536 L 48.971,27.936 L 48.971,27.936 L 50.343,28.622 L 55.144,30.451 L 55.144,30.68 L 56.059,30.908 L 62.461,33.652 L 65.205,34.795 Z" fill="rgba(59,130,246,0.25)" fill-rule="evenodd" stroke="rgba(59,130,246,0.9)" stroke-width="0.3" stroke-linejoin="round"/>
</svg>
