<svg xmlns="http://www.w3.org/2000/svg" width="100%" height="100%" viewBox="0 0 100 100" preserveAspectRatio="none">
  <path d="M 64.976,52.058 L 62.232,66.92 L 61.546,69.892 L 60.861,73.55 L 60.632,73.55 L 46.913,71.492 L 42.569,70.806 L 41.655,70.578 L 41.655,68.749 L 46.227,69.435 L 46.227,69.435 L 48.514,69.663 L 50.8,70.121 L 50.8,70.121 L 53.315,70.349 L 58.117,71.264 L 61.546,68.749 L 61.775,66.92 L 61.775,66.234 L 62.004,65.776 L 62.232,65.319 L 62.232,64.633 L 62.461,63.49 L 64.062,54.344 L 64.29,53.43 L 64.519,51.6 L 62.918,49.314 L 61.546,48.857 L 56.059,47.485 L 53.773,47.028 L 51.258,49.314 L 51.258,50.457 L 50.8,53.201 L 50.572,54.344 L 49.657,54.116 L 49.428,55.259 L 47.828,54.801 L 46.456,54.573 L 43.484,51.829 L 43.026,55.259 L 40.054,54.573 L 39.368,59.603 L 37.539,59.832 L 35.938,60.06 L 33.652,55.259 L 33.195,54.344 L 33.195,54.344 L 33.195,54.116 L 34.567,52.286 L 35.024,50.686 L 35.71,49.314 L 38.454,42.912 L 38.454,42.912 L 33.652,40.854 L 32.509,40.168 L 32.737,39.482 L 35.938,32.852 L 37.996,32.166 L 43.941,29.879 L 43.941,27.364 L 43.941,26.45 L 48.057,28.279 L 50.114,29.194 L 50.114,29.422 L 54.001,31.023 L 59.031,33.538 L 59.031,33.538 L 60.403,34.224 L 65.662,36.739 L 67.491,37.653 L 66.348,44.055 L 64.976,51.143 L 64.976,52.058 Z" fill="rgba(59,130,246,0.25)" fill-rule="evenodd" stroke="rgba(59,130,246,0.9)" stroke-width="0.3" stroke-linejoin="round"/>
</svg>
