<svg xmlns="http://www.w3.org/2000/svg" width="100%" height="100%" viewBox="0 0 100 100" preserveAspectRatio="none">
  <path d="M 58.002,45.084 L 61.432,46.456 L 71.264,50.114 L 71.264,50.343 L 71.264,50.343 L 71.264,50.343 L 70.578,52.401 L 69.663,54.916 L 69.435,55.373 L 67.377,60.403 L 67.377,60.632 L 66.691,62.232 L 65.776,64.29 L 65.776,64.29 L 63.719,63.604 L 60.06,62.232 L 49.771,58.345 L 42.912,55.602 L 41.54,55.144 L 39.94,54.687 L 33.309,51.943 L 28.736,50.114 L 31.251,41.426 L 32.395,37.768 L 33.08,35.71 L 33.08,35.71 L 33.995,35.938 L 34.452,36.167 L 40.854,38.454 L 46.342,40.511 L 46.799,40.74 L 46.799,40.74 L 55.945,44.398 L 58.002,45.084 L 58.002,45.084 Z" fill="rgba(59,130,246,0.25)" fill-rule="evenodd" stroke="rgba(59,130,246,0.9)" stroke-width="0.3" stroke-linejoin="round"/>
</svg>
