<svg xmlns="http://www.w3.org/2000/svg" width="100%" height="100%" viewBox="0 0 100 100" preserveAspectRatio="none">
  <path d="M 63.147,70.121 L 51.029,68.977 L 51.029,68.977 L 50.8,68.977 L 49.428,68.749 L 49.2,68.749 L 44.398,68.291 L 44.17,68.291 L 37.539,67.834 L 37.539,67.834 L 30.222,67.148 L 30.68,65.548 L 31.594,63.261 L 32.737,60.06 L 32.737,59.832 L 34.338,54.801 L 35.481,52.058 L 36.167,49.771 L 36.167,49.543 L 37.539,45.427 L 39.368,39.94 L 41.197,34.91 L 42.798,30.108 L 42.798,29.879 L 43.712,30.108 L 45.084,30.337 L 46.456,30.794 L 46.685,30.794 L 49.428,31.251 L 50.572,31.48 L 50.572,31.48 L 52.401,31.709 L 52.629,31.937 L 61.089,33.538 L 61.546,33.538 L 64.976,34.224 L 69.778,35.138 L 69.549,36.51 L 69.092,39.711 L 68.177,44.055 L 68.177,44.055 L 67.72,46.113 L 67.491,47.942 L 67.491,47.942 L 66.577,51.829 L 66.577,51.829 L 66.577,52.058 L 65.891,55.716 L 65.891,55.945 L 65.433,57.545 L 65.433,57.545 L 65.205,59.603 L 64.519,63.033 L 64.519,63.261 L 63.833,66.462 L 63.376,68.52 L 63.147,70.121 Z" fill="rgba(59,130,246,0.25)" fill-rule="evenodd" stroke="rgba(59,130,246,0.9)" stroke-width="0.3" stroke-linejoin="round"/>
</svg>
