<svg xmlns="http://www.w3.org/2000/svg" width="100%" height="100%" viewBox="0 0 100 100" preserveAspectRatio="none">
  <path d="M 31.023,36.853 L 31.709,37.082 L 36.51,39.368 L 39.482,40.74 L 42.455,42.112 L 43.598,42.569 L 43.598,42.569 L 47.485,44.17 L 47.942,44.398 L 50.686,45.77 L 50.915,45.084 L 58.231,35.71 L 58.688,35.253 L 58.688,35.253 L 60.06,35.71 L 61.661,36.396 L 61.661,36.624 L 63.261,37.082 L 63.261,37.31 L 68.291,39.368 L 68.291,39.368 L 70.806,40.511 L 74.236,42.112 L 74.236,42.112 L 68.977,54.001 L 64.404,64.062 L 64.176,64.747 L 63.49,64.519 L 63.261,64.519 L 61.661,63.833 L 60.746,63.376 L 58.002,62.232 L 58.002,62.232 L 48.857,58.117 L 48.171,57.888 L 42.226,55.144 L 39.254,53.773 L 39.254,53.773 L 36.51,52.629 L 35.824,52.401 L 33.995,51.486 L 33.766,51.486 L 30.108,49.886 L 29.879,49.657 L 25.764,48.057 L 28.508,42.34 L 28.736,41.655 L 31.023,36.853 Z" fill="rgba(59,130,246,0.25)" fill-rule="evenodd" stroke="rgba(59,130,246,0.9)" stroke-width="0.3" stroke-linejoin="round"/>
</svg>
