<svg xmlns="http://www.w3.org/2000/svg" width="100%" height="100%" viewBox="0 0 100 100" preserveAspectRatio="none">
  <path d="M 35.938,61.089 L 35.71,60.861 L 34.567,60.403 L 34.795,59.031 L 34.795,58.345 L 36.853,52.629 L 38.454,48.742 L 39.597,45.77 L 39.825,45.084 L 39.825,44.627 L 40.511,43.484 L 40.969,43.026 L 43.484,41.426 L 45.999,40.054 L 46.227,39.825 L 46.456,39.597 L 46.913,38.682 L 48.057,35.024 L 48.514,33.652 L 48.742,33.423 L 48.742,33.423 L 49.2,32.28 L 49.2,32.28 L 50.343,32.737 L 58.345,36.167 L 62.918,37.996 L 64.062,38.454 L 65.433,38.911 L 65.433,38.911 L 64.519,41.197 L 62.004,48.057 L 61.775,48.514 L 61.775,48.514 L 59.717,53.773 L 56.745,61.546 L 55.83,64.062 L 54.459,67.72 L 51.715,66.805 L 50.572,66.348 L 44.398,64.062 L 41.883,63.147 L 35.938,61.089 Z" fill="rgba(59,130,246,0.25)" fill-rule="evenodd" stroke="rgba(59,130,246,0.9)" stroke-width="0.3" stroke-linejoin="round"/>
</svg>
