<svg xmlns="http://www.w3.org/2000/svg" width="100%" height="100%" viewBox="0 0 100 100" preserveAspectRatio="none">
  <path d="M 74.693,38.568 L 75.837,46.342 L 76.065,49.314 L 75.379,49.314 L 71.95,49.771 L 68.291,49.314 L 68.291,49.314 L 59.603,47.942 L 59.146,47.942 L 59.146,47.942 L 48.171,46.57 L 46.113,50.915 L 39.94,62.804 L 30.794,58.46 L 30.794,58.46 L 30.337,58.231 L 23.935,55.03 L 29.651,42.912 L 29.651,42.683 L 30.794,42.683 L 44.97,40.854 L 57.774,39.254 L 58.002,39.254 L 62.347,38.797 L 66.92,38.339 L 66.92,38.339 L 70.578,37.653 L 74.465,37.196 L 74.465,37.196 L 74.693,38.568 Z" fill="rgba(59,130,246,0.25)" fill-rule="evenodd" stroke="rgba(59,130,246,0.9)" stroke-width="0.3" stroke-linejoin="round"/>
</svg>
