<svg xmlns="http://www.w3.org/2000/svg" width="100%" height="100%" viewBox="0 0 100 100" preserveAspectRatio="none">
  <path d="M 64.519,42.912 L 59.031,51.6 L 57.431,54.116 L 52.858,60.975 L 49.428,66.462 L 48.514,65.776 L 47.599,65.09 L 46.227,63.719 L 42.798,60.746 L 42.798,60.746 L 39.368,57.774 L 36.396,54.801 L 35.481,54.116 L 35.938,53.43 L 36.624,52.744 L 39.825,48.857 L 40.054,48.857 L 42.112,46.57 L 43.712,44.513 L 46.685,41.312 L 47.371,40.626 L 51.029,36.51 L 52.858,34.452 L 53.315,33.766 L 53.773,33.538 L 53.773,33.538 L 54.687,34.224 L 54.916,34.681 L 55.602,35.138 L 55.602,35.138 L 58.345,37.653 L 59.946,39.254 L 61.775,40.626 L 61.775,40.626 L 62.232,41.083 L 62.232,41.083 L 63.147,41.769 L 63.604,42.226 L 64.519,42.912 L 64.519,42.912 Z" fill="rgba(59,130,246,0.25)" fill-rule="evenodd" stroke="rgba(59,130,246,0.9)" stroke-width="0.3" stroke-linejoin="round"/>
</svg>
