<svg xmlns="http://www.w3.org/2000/svg" width="100%" height="100%" viewBox="0 0 100 100" preserveAspectRatio="none">
  <path d="M 33.195,52.858 L 33.881,51.258 L 35.481,46.913 L 38.225,40.054 L 39.825,40.283 L 40.511,40.511 L 45.313,41.655 L 45.541,41.883 L 48.742,42.569 L 51.943,43.255 L 52.401,43.484 L 54.916,43.941 L 58.803,44.856 L 58.803,45.084 L 61.089,45.541 L 63.147,45.999 L 66.119,46.685 L 66.805,46.913 L 66.805,46.913 L 66.348,48.285 L 64.519,53.087 L 62.004,59.946 L 61.775,59.946 L 61.318,59.717 L 59.031,59.26 L 55.602,58.345 L 49.2,56.745 L 48.971,56.745 L 42.34,55.144 L 42.112,55.144 L 35.481,53.315 L 34.795,53.315 L 33.195,52.858 Z" fill="rgba(59,130,246,0.25)" fill-rule="evenodd" stroke="rgba(59,130,246,0.9)" stroke-width="0.3" stroke-linejoin="round"/>
</svg>
