<svg xmlns="http://www.w3.org/2000/svg" width="100%" height="100%" viewBox="0 0 100 100" preserveAspectRatio="none">
  <path d="M 65.319,49.314 L 64.862,49.771 L 64.404,50.229 L 64.176,50.686 L 63.719,50.686 L 63.49,50.915 L 61.432,51.829 L 60.06,52.286 L 58.917,52.515 L 58.002,52.515 L 57.545,52.515 L 56.859,52.515 L 56.402,52.515 L 48.171,59.603 L 44.97,62.575 L 39.254,67.834 L 36.053,70.806 L 33.766,72.636 L 29.422,76.065 L 28.736,76.523 L 27.822,77.208 L 27.822,76.751 L 27.364,75.379 L 25.535,72.178 L 25.993,71.264 L 26.678,70.121 L 28.05,67.834 L 29.651,64.862 L 30.337,63.947 L 30.794,63.261 L 31.023,63.261 L 31.48,62.575 L 37.196,59.603 L 39.254,58.002 L 40.168,57.545 L 41.312,56.402 L 41.312,56.173 L 44.741,52.058 L 45.656,51.143 L 45.884,50.686 L 46.113,50.229 L 46.57,49.543 L 49.085,45.656 L 50.0,44.513 L 50.915,43.369 L 51.143,42.683 L 51.6,41.998 L 51.829,40.626 L 52.286,38.797 L 52.972,36.281 L 53.43,34.224 L 54.344,31.48 L 54.801,30.337 L 55.945,27.593 L 57.317,24.621 L 63.947,26.907 L 64.862,24.621 L 65.548,24.392 L 65.548,24.163 L 65.548,24.163 L 66.462,22.792 L 74.465,25.764 L 69.663,37.882 L 68.063,42.226 L 65.548,48.857 L 65.319,49.314 Z M 67.148,23.02 L 68.749,23.477 L 66.462,22.792 L 67.148,23.02 Z M 65.776,27.136 L 65.548,27.136 L 66.234,26.907 L 65.776,27.136 Z" fill="rgba(59,130,246,0.25)" fill-rule="evenodd" stroke="rgba(59,130,246,0.9)" stroke-width="0.3" stroke-linejoin="round"/>
</svg>
