<svg xmlns="http://www.w3.org/2000/svg" width="100%" height="100%" viewBox="0 0 100 100" preserveAspectRatio="none">
  <path d="M 45.199,69.435 L 44.741,68.977 L 37.425,65.548 L 36.281,64.862 L 36.967,63.49 L 41.312,53.658 L 41.998,52.515 L 42.226,51.829 L 43.827,48.171 L 44.284,47.028 L 45.199,44.97 L 46.57,41.54 L 47.485,39.94 L 48.857,36.51 L 51.829,30.108 L 52.058,29.422 L 53.658,30.337 L 59.603,32.852 L 61.889,33.766 L 63.49,34.452 L 63.719,34.681 L 63.033,35.824 L 61.889,38.568 L 59.603,43.827 L 57.545,48.628 L 55.487,53.43 L 53.887,57.088 L 52.972,58.917 L 51.6,61.661 L 48.628,68.063 L 47.942,69.892 L 47.485,70.349 L 47.485,70.578 L 47.256,70.578 L 47.256,70.578 L 46.113,69.892 L 45.199,69.435 Z" fill="rgba(59,130,246,0.25)" fill-rule="evenodd" stroke="rgba(59,130,246,0.9)" stroke-width="0.3" stroke-linejoin="round"/>
</svg>
