<svg xmlns="http://www.w3.org/2000/svg" width="100%" height="100%" viewBox="0 0 100 100" preserveAspectRatio="none">
  <path d="M 40.854,49.428 L 42.455,44.856 L 43.827,41.197 L 44.284,40.054 L 44.741,38.454 L 47.942,28.622 L 50.686,29.536 L 52.058,29.994 L 55.716,31.366 L 55.945,31.366 L 59.146,32.509 L 62.347,33.652 L 62.347,33.652 L 64.404,34.338 L 64.404,34.338 L 64.633,34.338 L 64.404,35.024 L 63.49,37.768 L 63.033,39.139 L 56.631,57.66 L 54.116,65.205 L 52.058,71.378 L 51.143,71.149 L 51.143,71.149 L 50.915,71.149 L 50.686,71.149 L 45.199,69.092 L 45.199,69.092 L 44.741,69.092 L 43.369,68.634 L 40.168,67.491 L 37.882,66.805 L 35.824,66.119 L 35.367,65.891 L 39.025,54.916 L 39.94,52.629 L 40.854,49.428 Z" fill="rgba(59,130,246,0.25)" fill-rule="evenodd" stroke="rgba(59,130,246,0.9)" stroke-width="0.3" stroke-linejoin="round"/>
</svg>
