<svg xmlns="http://www.w3.org/2000/svg" width="100%" height="100%" viewBox="0 0 100 100" preserveAspectRatio="none">
  <path d="M 35.481,37.425 L 36.396,35.596 L 36.624,35.596 L 41.426,34.452 L 45.313,33.309 L 45.313,33.08 L 46.227,34.681 L 46.227,34.91 L 46.456,35.138 L 46.913,35.596 L 47.371,35.596 L 48.971,36.281 L 51.943,36.967 L 53.315,37.196 L 54.23,37.653 L 55.373,37.653 L 57.888,37.882 L 60.175,37.882 L 64.062,37.882 L 67.948,37.882 L 67.948,37.882 L 67.491,38.797 L 67.034,39.711 L 62.918,44.741 L 59.031,49.771 L 58.803,50.229 L 58.574,50.686 L 58.345,51.6 L 58.117,54.573 L 58.117,55.03 L 59.26,56.631 L 60.403,58.002 L 60.403,58.231 L 57.431,61.661 L 54.916,64.633 L 54.916,64.633 L 54.459,65.319 L 54.23,65.776 L 53.773,66.234 L 53.544,66.92 L 53.315,66.92 L 52.629,66.005 L 51.715,65.09 L 50.114,63.033 L 49.886,63.033 L 47.599,60.289 L 45.313,57.774 L 45.313,57.774 L 43.255,55.487 L 42.34,54.573 L 40.969,53.43 L 40.511,52.286 L 40.283,52.058 L 40.283,51.829 L 39.825,51.143 L 39.139,50.229 L 37.996,48.857 L 35.71,46.57 L 35.71,46.57 L 34.109,44.97 L 33.423,44.284 L 32.966,43.598 L 32.052,42.683 L 35.481,37.425 Z" fill="rgba(59,130,246,0.25)" fill-rule="evenodd" stroke="rgba(59,130,246,0.9)" stroke-width="0.3" stroke-linejoin="round"/>
</svg>
