<svg xmlns="http://www.w3.org/2000/svg" width="100%" height="100%" viewBox="0 0 100 100" preserveAspectRatio="none">
  <path d="M 33.881,48.171 L 34.109,47.942 L 35.253,47.485 L 35.253,47.485 L 37.996,46.342 L 44.17,44.741 L 44.17,44.741 L 44.627,44.741 L 44.627,44.741 L 50.8,42.912 L 50.8,42.912 L 54.687,41.769 L 56.288,41.083 L 57.66,40.397 L 58.574,40.626 L 64.519,43.141 L 66.119,44.284 L 65.891,44.97 L 64.747,47.942 L 63.147,51.829 L 61.089,57.545 L 60.861,59.603 L 59.26,58.917 L 54.001,56.859 L 54.001,56.859 L 49.657,54.801 L 46.685,53.658 L 42.112,51.829 L 40.74,51.143 L 35.481,48.857 L 34.338,48.4 L 33.881,48.171 Z" fill="rgba(59,130,246,0.25)" fill-rule="evenodd" stroke="rgba(59,130,246,0.9)" stroke-width="0.3" stroke-linejoin="round"/>
</svg>
