<svg xmlns="http://www.w3.org/2000/svg" width="100%" height="100%" viewBox="0 0 100 100" preserveAspectRatio="none">
  <path d="M 51.6,15.875 L 51.943,14.389 L 51.943,14.389 L 51.943,14.275 L 52.286,14.046 L 53.087,14.16 L 65.776,15.989 L 66.691,16.104 L 69.892,16.447 L 70.349,16.561 L 70.578,16.561 L 70.578,16.561 L 70.349,17.704 L 70.235,18.847 L 69.435,24.449 L 69.092,27.193 L 68.749,29.708 L 68.177,31.308 L 68.177,31.308 L 67.148,35.31 L 65.205,41.483 L 64.633,43.312 L 64.633,43.312 L 64.176,44.455 L 62.918,47.656 L 61.089,51.886 L 58.46,57.831 L 57.774,59.203 L 55.373,64.576 L 55.373,64.576 L 52.172,71.435 L 52.172,71.55 L 49.543,77.151 L 45.541,85.954 L 45.541,85.954 L 43.484,84.468 L 42.112,83.896 L 42.226,83.668 L 29.422,77.723 L 29.422,77.723 L 29.651,77.38 L 29.765,77.151 L 32.166,73.493 L 38.339,64.347 L 38.454,64.233 L 41.998,51.2 L 49.771,22.277 L 51.6,15.875 Z M 67.034,27.879 L 68.177,28.45 L 69.32,21.363 L 69.549,19.533 L 69.435,18.504 L 69.32,18.162 L 69.206,17.933 L 68.977,17.704 L 68.863,17.476 L 68.634,17.361 L 68.52,17.247 L 68.406,17.133 L 68.291,17.018 L 68.063,16.904 L 67.834,16.79 L 67.491,16.675 L 66.691,16.675 L 64.976,16.447 L 64.747,18.047 L 64.404,18.733 L 63.947,21.248 L 63.719,22.163 L 63.719,22.963 L 63.147,26.05 L 63.147,26.164 L 62.804,28.908 L 63.833,30.165 L 66.119,31.766 L 66.348,29.251 L 67.034,28.45 L 67.034,27.879 Z" fill="rgba(59,130,246,0.25)" fill-rule="evenodd" stroke="rgba(59,130,246,0.9)" stroke-width="0.3" stroke-linejoin="round"/>
</svg>
