<svg xmlns="http://www.w3.org/2000/svg" width="100%" height="100%" viewBox="0 0 100 100" preserveAspectRatio="none">
  <path d="M 66.691,58.345 L 66.92,58.574 L 66.92,58.574 L 63.947,60.632 L 63.49,61.089 L 61.432,62.69 L 58.46,64.976 L 56.859,66.348 L 54.573,68.177 L 54.344,68.177 L 49.771,62.461 L 49.771,62.232 L 49.543,62.232 L 49.314,61.775 L 49.314,61.775 L 49.085,61.546 L 48.857,61.318 L 48.628,60.861 L 48.4,60.632 L 48.4,60.632 L 48.171,60.403 L 48.171,60.403 L 47.942,60.175 L 47.942,59.946 L 47.714,59.946 L 47.714,59.717 L 47.714,59.717 L 47.485,59.489 L 47.485,59.26 L 47.256,59.26 L 47.256,59.031 L 47.028,59.031 L 47.028,59.031 L 47.028,58.803 L 46.799,58.574 L 46.799,58.574 L 46.57,58.345 L 46.57,58.117 L 46.342,58.117 L 46.342,58.117 L 46.342,57.888 L 46.113,57.66 L 45.884,57.431 L 45.884,57.431 L 45.656,57.202 L 45.656,56.974 L 45.427,56.974 L 45.427,56.745 L 45.199,56.516 L 44.97,56.288 L 44.97,56.288 L 44.741,56.059 L 44.741,55.83 L 44.513,55.602 L 44.284,55.602 L 44.284,55.373 L 44.055,55.144 L 44.055,54.916 L 44.055,54.916 L 43.827,54.687 L 43.369,54.23 L 43.141,54.001 L 42.912,53.773 L 37.882,47.371 L 34.224,42.569 L 33.766,42.34 L 33.08,41.426 L 33.995,40.054 L 39.254,35.938 L 41.083,34.567 L 44.513,31.823 L 45.199,32.509 L 47.485,35.253 L 55.03,44.17 L 63.947,54.916 L 66.691,58.345 L 66.691,58.345 Z" fill="rgba(59,130,246,0.25)" fill-rule="evenodd" stroke="rgba(59,130,246,0.9)" stroke-width="0.3" stroke-linejoin="round"/>
</svg>
