<svg xmlns="http://www.w3.org/2000/svg" width="100%" height="100%" viewBox="0 0 100 100" preserveAspectRatio="none">
  <path d="M 28.851,54.916 L 36.167,49.657 L 53.315,36.853 L 53.544,36.853 L 61.089,31.137 L 62.69,33.423 L 65.662,37.539 L 65.662,37.539 L 67.948,40.74 L 68.406,41.197 L 70.464,44.17 L 70.921,44.627 L 71.149,44.856 L 71.149,44.856 L 70.464,45.313 L 70.006,45.541 L 67.948,47.142 L 62.004,51.715 L 61.775,51.943 L 57.66,54.916 L 56.745,55.602 L 54.001,57.66 L 51.029,59.946 L 50.114,60.632 L 47.599,62.461 L 43.255,65.662 L 40.054,67.948 L 39.368,68.406 L 38.911,68.863 L 38.225,67.948 L 35.481,64.29 L 34.338,62.69 L 30.68,57.202 L 28.851,54.916 Z" fill="rgba(59,130,246,0.25)" fill-rule="evenodd" stroke="rgba(59,130,246,0.9)" stroke-width="0.3" stroke-linejoin="round"/>
</svg>
