<svg xmlns="http://www.w3.org/2000/svg" width="100%" height="100%" viewBox="0 0 100 100" preserveAspectRatio="none">
  <path d="M 48.285,90.241 L 47.828,92.299 L 45.541,92.299 L 42.34,93.899 L 39.139,94.357 L 35.938,94.585 L 35.253,92.299 L 34.567,90.012 L 33.423,86.583 L 33.195,86.354 L 31.594,86.583 L 28.393,87.269 L 28.393,87.04 L 28.393,86.354 L 28.622,85.44 L 27.021,83.61 L 24.964,82.01 L 23.363,78.123 L 22.906,76.751 L 20.619,73.779 L 18.79,70.121 L 17.418,68.977 L 15.818,66.462 L 13.76,64.862 L 13.532,64.633 L 13.532,64.404 L 13.76,62.804 L 12.846,60.289 L 13.074,60.289 L 13.074,55.487 L 13.303,50.915 L 13.303,43.369 L 6.672,30.108 L 8.959,18.219 L 8.73,16.618 L 8.73,14.332 L 8.73,13.874 L 8.73,11.817 L 16.504,12.503 L 18.333,12.731 L 20.162,13.189 L 21.305,13.646 L 22.906,14.332 L 24.735,15.246 L 29.994,18.676 L 32.052,19.819 L 33.652,20.505 L 35.71,20.505 L 36.853,20.505 L 40.283,19.819 L 42.112,19.362 L 48.285,17.99 L 49.2,17.761 L 50.114,17.075 L 51.029,16.618 L 52.172,15.704 L 52.858,15.018 L 53.773,14.103 L 55.83,11.588 L 56.974,9.759 L 57.431,9.073 L 58.574,5.415 L 64.062,12.045 L 64.976,12.96 L 79.609,16.161 L 81.896,17.533 L 86.468,18.219 L 88.069,19.362 L 88.526,19.362 L 88.298,19.819 L 88.984,22.334 L 87.612,23.935 L 88.984,25.078 L 91.27,26.678 L 91.956,28.736 L 93.328,32.852 L 91.041,33.538 L 90.584,33.766 L 90.813,34.681 L 89.898,34.681 L 90.127,36.967 L 90.127,39.711 L 89.898,43.827 L 89.669,46.113 L 88.984,51.829 L 88.984,53.43 L 88.526,55.259 L 87.154,57.545 L 85.783,58.46 L 85.097,58.46 L 84.182,58.917 L 83.267,59.832 L 79.838,60.289 L 78.923,60.746 L 77.78,61.889 L 76.866,63.261 L 75.722,65.319 L 74.122,69.206 L 72.75,79.266 L 70.692,77.666 L 70.235,78.352 L 69.778,82.925 L 67.263,83.153 L 64.747,84.296 L 62.461,84.754 L 62.004,85.211 L 61.318,85.668 L 59.717,88.641 L 56.288,85.211 L 54.23,86.583 L 53.315,87.269 L 49.657,89.784 L 48.285,90.241 Z" fill="rgba(59,130,246,0.25)" fill-rule="evenodd" stroke="rgba(59,130,246,0.9)" stroke-width="0.3" stroke-linejoin="round"/>
</svg>
