<svg xmlns="http://www.w3.org/2000/svg" width="100%" height="100%" viewBox="0 0 100 100" preserveAspectRatio="none">
  <path d="M 35.824,63.719 L 36.281,62.804 L 36.281,62.804 L 38.797,56.631 L 40.626,52.972 L 40.626,52.744 L 42.455,48.4 L 43.598,46.113 L 47.256,38.111 L 50.686,30.337 L 53.201,31.48 L 61.889,35.367 L 61.889,35.367 L 64.176,36.281 L 64.176,36.281 L 64.176,36.281 L 63.947,36.967 L 63.947,37.425 L 63.49,38.339 L 62.118,41.54 L 61.889,41.54 L 60.518,44.97 L 59.146,48.4 L 58.688,48.857 L 58.688,49.085 L 58.688,49.085 L 58.46,49.543 L 55.03,57.317 L 51.143,66.005 L 49.543,69.435 L 49.543,69.663 L 46.342,68.291 L 46.342,68.291 L 41.54,66.234 L 38.339,64.862 L 35.824,63.947 L 35.824,63.947 L 35.824,63.719 L 35.824,63.719 Z" fill="rgba(59,130,246,0.25)" fill-rule="evenodd" stroke="rgba(59,130,246,0.9)" stroke-width="0.3" stroke-linejoin="round"/>
</svg>
