<svg xmlns="http://www.w3.org/2000/svg" width="100%" height="100%" viewBox="0 0 100 100" preserveAspectRatio="none">
  <path d="M 49.543,74.579 L 42.226,71.378 L 42.226,71.378 L 40.626,70.464 L 35.596,68.406 L 32.395,66.805 L 30.337,66.119 L 28.508,65.205 L 29.651,62.918 L 31.48,63.604 L 33.538,59.489 L 34.452,57.431 L 35.596,55.373 L 36.51,53.315 L 37.196,51.943 L 37.196,51.943 L 37.425,51.029 L 39.025,47.828 L 37.425,47.142 L 41.769,37.768 L 30.794,32.966 L 31.251,31.823 L 31.251,31.823 L 35.138,23.134 L 36.053,23.592 L 36.967,24.049 L 41.083,25.65 L 41.312,25.878 L 46.342,28.165 L 46.57,28.165 L 48.857,29.308 L 50.0,29.765 L 51.372,30.222 L 53.201,31.137 L 55.487,32.28 L 55.487,32.28 L 57.545,32.966 L 62.575,35.253 L 62.804,35.481 L 62.804,35.481 L 65.319,36.624 L 70.121,38.682 L 71.492,39.368 L 68.52,45.77 L 68.52,45.77 L 66.462,50.8 L 66.462,50.8 L 65.776,52.172 L 65.776,52.172 L 64.404,55.373 L 64.404,55.373 L 62.118,60.861 L 58.46,68.634 L 58.46,68.634 L 55.487,75.494 L 54.801,76.866 L 49.543,74.579 Z" fill="rgba(59,130,246,0.25)" fill-rule="evenodd" stroke="rgba(59,130,246,0.9)" stroke-width="0.3" stroke-linejoin="round"/>
</svg>
