<svg xmlns="http://www.w3.org/2000/svg" width="100%" height="100%" viewBox="0 0 100 100" preserveAspectRatio="none">
  <path d="M 53.658,65.662 L 45.656,62.918 L 44.284,62.461 L 36.51,59.717 L 36.51,59.717 L 36.739,59.031 L 38.339,53.773 L 38.568,53.315 L 39.025,52.172 L 39.482,50.343 L 39.711,49.657 L 39.94,49.657 L 39.94,49.428 L 44.055,40.969 L 44.055,40.74 L 47.714,33.423 L 53.887,40.054 L 54.344,40.283 L 54.801,40.511 L 54.801,40.511 L 55.03,40.511 L 55.487,40.969 L 55.716,41.197 L 60.746,46.456 L 61.203,47.142 L 61.661,47.371 L 63.49,49.428 L 63.49,49.428 L 62.118,53.087 L 62.118,53.544 L 58.688,61.775 L 56.859,66.577 L 56.859,66.577 L 56.859,66.577 L 53.658,65.662 Z" fill="rgba(59,130,246,0.25)" fill-rule="evenodd" stroke="rgba(59,130,246,0.9)" stroke-width="0.3" stroke-linejoin="round"/>
</svg>
