<svg xmlns="http://www.w3.org/2000/svg" width="100%" height="100%" viewBox="0 0 100 100" preserveAspectRatio="none">
  <path d="M 48.628,34.681 L 50.686,30.337 L 50.686,30.337 L 50.686,30.337 L 51.829,30.794 L 57.774,33.538 L 58.917,33.995 L 64.176,36.281 L 64.176,36.281 L 64.176,36.281 L 63.719,37.425 L 61.203,42.912 L 61.203,42.912 L 60.746,43.827 L 58.688,48.4 L 58.231,49.543 L 56.859,52.972 L 56.631,53.201 L 56.631,53.201 L 54.344,58.231 L 52.286,62.804 L 52.286,62.804 L 49.771,68.749 L 49.543,68.977 L 49.314,69.663 L 49.314,69.663 L 48.628,69.435 L 45.427,67.834 L 45.427,67.834 L 37.425,64.404 L 37.196,64.176 L 35.824,63.49 L 39.94,54.573 L 41.312,51.6 L 48.628,34.681 Z" fill="rgba(59,130,246,0.25)" fill-rule="evenodd" stroke="rgba(59,130,246,0.9)" stroke-width="0.3" stroke-linejoin="round"/>
</svg>
