<svg xmlns="http://www.w3.org/2000/svg" width="100%" height="100%" viewBox="0 0 100 100" preserveAspectRatio="none">
  <path d="M 45.199,65.662 L 44.284,64.747 L 42.455,63.147 L 39.94,60.632 L 39.711,60.632 L 34.91,56.288 L 35.824,55.373 L 37.653,53.315 L 40.397,50.343 L 40.626,50.114 L 40.626,49.886 L 44.055,46.456 L 44.284,46.227 L 44.741,45.541 L 48.857,41.197 L 48.857,40.969 L 50.0,39.825 L 51.6,38.225 L 54.116,35.253 L 55.03,34.338 L 60.06,38.911 L 64.176,42.569 L 65.09,43.484 L 61.889,46.913 L 58.002,51.486 L 55.259,54.459 L 52.744,57.202 L 48.171,62.232 L 45.199,65.662 Z" fill="rgba(59,130,246,0.25)" fill-rule="evenodd" stroke="rgba(59,130,246,0.9)" stroke-width="0.3" stroke-linejoin="round"/>
</svg>
