<svg xmlns="http://www.w3.org/2000/svg" width="100%" height="100%" viewBox="0 0 100 100" preserveAspectRatio="none">
  <path d="M 32.852,50.915 L 32.852,50.915 L 32.852,50.915 L 33.08,50.0 L 35.138,44.055 L 36.51,40.626 L 37.882,36.739 L 37.882,36.51 L 37.882,36.51 L 39.482,37.196 L 47.714,39.94 L 50.686,41.083 L 50.686,41.083 L 57.317,43.369 L 57.545,43.369 L 61.889,44.97 L 62.118,44.97 L 67.148,46.57 L 67.148,46.57 L 66.691,47.942 L 64.404,54.573 L 61.889,62.118 L 61.661,62.804 L 61.432,63.49 L 61.432,63.49 L 58.917,62.347 L 56.631,61.432 L 56.402,61.432 L 52.286,59.603 L 52.286,59.603 L 48.171,57.774 L 48.171,57.774 L 45.427,56.402 L 45.427,56.402 L 44.284,55.945 L 44.284,55.945 L 43.598,55.716 L 38.568,53.43 L 32.852,50.915 Z" fill="rgba(59,130,246,0.25)" fill-rule="evenodd" stroke="rgba(59,130,246,0.9)" stroke-width="0.3" stroke-linejoin="round"/>
</svg>
