<svg xmlns="http://www.w3.org/2000/svg" width="100%" height="100%" viewBox="0 0 100 100" preserveAspectRatio="none">
  <path d="M 47.028,62.118 L 46.799,61.661 L 44.97,56.631 L 43.369,52.058 L 43.369,52.058 L 42.683,50.229 L 40.854,44.741 L 40.626,44.741 L 39.711,41.769 L 38.568,38.568 L 44.97,35.824 L 50.915,33.309 L 52.058,36.739 L 53.201,40.168 L 53.201,40.168 L 55.945,47.485 L 56.173,47.714 L 56.173,47.714 L 56.173,48.4 L 58.688,54.573 L 61.203,61.661 L 61.432,61.889 L 61.432,61.889 L 61.203,61.889 L 57.545,63.261 L 53.658,64.862 L 53.43,64.862 L 48.857,66.691 L 48.628,66.691 L 48.628,66.691 L 48.628,66.691 L 47.028,62.118 Z" fill="rgba(59,130,246,0.25)" fill-rule="evenodd" stroke="rgba(59,130,246,0.9)" stroke-width="0.3" stroke-linejoin="round"/>
</svg>
