<svg xmlns="http://www.w3.org/2000/svg" width="100%" height="100%" viewBox="0 0 100 100" preserveAspectRatio="none">
  <path d="M 70.349,49.085 L 68.634,49.657 L 65.548,50.686 L 64.062,51.143 L 57.317,53.315 L 57.202,53.315 L 52.972,54.687 L 50.915,55.259 L 47.485,56.402 L 46.799,56.631 L 43.255,57.66 L 41.655,58.231 L 40.511,58.574 L 37.425,59.489 L 34.91,60.289 L 34.91,60.289 L 31.823,61.318 L 30.68,61.661 L 27.479,62.69 L 26.107,63.033 L 25.993,63.376 L 25.878,63.49 L 25.764,63.719 L 25.535,64.633 L 25.192,66.119 L 25.192,66.119 L 24.163,67.148 L 24.049,67.263 L 23.706,67.72 L 22.22,69.092 L 21.877,69.32 L 21.763,69.32 L 20.276,68.977 L 18.333,68.634 L 17.99,68.52 L 18.104,68.177 L 18.219,67.491 L 19.476,63.261 L 19.591,63.147 L 20.276,60.746 L 20.962,58.46 L 20.962,58.46 L 21.991,55.373 L 21.991,55.259 L 22.106,55.144 L 22.106,55.144 L 23.02,52.286 L 23.134,51.943 L 23.134,51.829 L 24.735,46.799 L 24.735,46.799 L 24.964,46.113 L 24.964,46.113 L 25.535,44.284 L 25.535,44.284 L 26.45,41.426 L 26.45,41.426 L 26.45,41.312 L 27.021,41.312 L 27.136,41.312 L 28.622,41.312 L 32.052,41.083 L 33.08,41.083 L 33.538,41.197 L 33.766,41.312 L 34.224,41.426 L 34.681,41.312 L 35.596,41.197 L 36.853,40.969 L 36.967,40.969 L 40.854,40.168 L 41.426,40.054 L 41.883,39.94 L 42.798,39.711 L 43.141,39.482 L 43.941,38.797 L 44.627,38.339 L 45.427,37.882 L 45.884,37.653 L 46.456,37.31 L 46.57,37.31 L 46.913,36.967 L 48.4,36.053 L 48.857,35.71 L 50.0,35.024 L 51.6,34.338 L 52.058,32.509 L 52.629,30.68 L 56.974,32.052 L 57.202,32.166 L 57.202,32.166 L 61.661,33.538 L 64.404,34.452 L 64.404,34.452 L 72.636,36.967 L 77.323,38.568 L 78.352,38.797 L 80.752,38.797 L 80.752,38.797 L 80.752,38.797 L 80.981,39.482 L 80.981,39.482 L 81.095,40.511 L 82.01,43.255 L 80.066,44.284 L 76.18,46.57 L 75.951,46.685 L 73.093,48.285 L 73.093,48.285 L 72.75,48.4 L 70.349,49.085 Z M 65.891,38.797 L 66.234,38.911 L 66.691,39.025 L 65.891,38.797 Z M 65.319,43.484 L 64.862,43.369 L 64.404,43.141 L 65.319,43.484 Z" fill="rgba(59,130,246,0.25)" fill-rule="evenodd" stroke="rgba(59,130,246,0.9)" stroke-width="0.3" stroke-linejoin="round"/>
</svg>
