<svg xmlns="http://www.w3.org/2000/svg" width="100%" height="100%" viewBox="0 0 100 100" preserveAspectRatio="none">
  <path d="M 48.514,39.94 L 52.629,41.998 L 54.459,42.912 L 60.403,45.656 L 61.775,46.57 L 63.376,47.256 L 64.519,47.942 L 66.119,48.857 L 67.263,49.771 L 67.491,50.0 L 67.948,50.915 L 68.634,52.286 L 65.891,53.887 L 64.519,54.573 L 62.69,55.487 L 61.089,56.402 L 53.773,60.06 L 46.227,63.49 L 44.856,63.261 L 44.627,63.261 L 43.941,63.033 L 41.197,61.661 L 36.624,59.374 L 31.366,56.859 L 31.823,56.173 L 32.737,54.344 L 34.795,50.229 L 35.71,48.4 L 36.396,47.256 L 38.225,43.141 L 40.74,38.111 L 41.655,36.51 L 45.999,38.797 L 48.514,39.94 Z" fill="rgba(59,130,246,0.25)" fill-rule="evenodd" stroke="rgba(59,130,246,0.9)" stroke-width="0.3" stroke-linejoin="round"/>
</svg>
