<svg xmlns="http://www.w3.org/2000/svg" width="100%" height="100%" viewBox="0 0 100 100" preserveAspectRatio="none">
  <path d="M 69.663,37.539 L 69.435,38.225 L 66.462,44.627 L 65.09,48.057 L 64.176,49.657 L 62.804,53.087 L 61.889,55.144 L 61.432,56.288 L 59.832,59.946 L 59.603,60.632 L 58.917,61.775 L 54.573,71.607 L 53.887,72.979 L 52.972,72.521 L 52.286,72.293 L 51.829,72.064 L 47.485,69.778 L 45.427,68.863 L 44.284,68.177 L 42.683,67.491 L 42.683,67.491 L 37.653,64.976 L 36.967,64.519 L 36.739,64.519 L 31.937,62.232 L 30.337,61.318 L 34.224,52.629 L 37.653,45.084 L 39.711,40.283 L 41.54,36.396 L 41.54,36.396 L 41.998,35.024 L 42.683,33.881 L 43.369,32.052 L 43.369,32.052 L 44.513,29.536 L 45.656,27.021 L 48.857,28.393 L 51.829,29.536 L 51.829,29.765 L 55.03,31.137 L 58.231,32.509 L 58.231,32.509 L 60.518,33.423 L 62.575,34.338 L 67.605,36.624 L 69.663,37.539 L 69.663,37.539 Z" fill="rgba(59,130,246,0.25)" fill-rule="evenodd" stroke="rgba(59,130,246,0.9)" stroke-width="0.3" stroke-linejoin="round"/>
</svg>
