<svg xmlns="http://www.w3.org/2000/svg" width="100%" height="100%" viewBox="0 0 100 100" preserveAspectRatio="none">
  <path d="M 52.172,28.05 L 52.401,27.822 L 54.23,27.822 L 54.23,27.364 L 59.031,26.45 L 59.717,26.221 L 61.546,26.221 L 64.062,26.45 L 64.062,26.678 L 64.519,26.907 L 64.747,27.364 L 67.263,27.593 L 66.348,32.852 L 66.805,38.339 L 67.034,41.54 L 66.119,48.628 L 63.147,56.402 L 63.147,56.631 L 62.461,58.688 L 62.004,60.06 L 61.318,60.518 L 60.632,62.347 L 59.031,65.776 L 59.717,64.176 L 59.031,63.947 L 56.516,65.319 L 55.602,67.377 L 55.144,68.749 L 61.775,71.492 L 60.403,73.779 L 60.403,73.779 L 59.489,73.322 L 57.66,72.636 L 55.602,71.721 L 55.144,71.492 L 51.943,70.349 L 46.913,68.063 L 46.456,67.834 L 46.456,67.834 L 45.999,66.462 L 45.999,66.234 L 45.77,66.234 L 43.255,65.319 L 40.74,64.176 L 37.082,63.033 L 34.567,62.118 L 32.737,61.432 L 33.195,60.06 L 33.652,58.46 L 37.539,45.884 L 37.768,45.427 L 38.454,42.226 L 38.682,40.168 L 38.911,39.94 L 38.911,39.025 L 39.825,38.339 L 40.511,37.882 L 42.34,36.51 L 42.569,36.281 L 44.856,34.452 L 45.084,34.452 L 46.456,33.309 L 47.142,32.623 L 49.428,30.565 L 49.886,30.108 L 50.343,29.651 L 52.172,28.05 Z" fill="rgba(59,130,246,0.25)" fill-rule="evenodd" stroke="rgba(59,130,246,0.9)" stroke-width="0.3" stroke-linejoin="round"/>
</svg>
