<svg xmlns="http://www.w3.org/2000/svg" width="100%" height="100%" viewBox="0 0 100 100" preserveAspectRatio="none">
  <path d="M 17.418,68.063 L 17.418,68.063 L 19.019,62.118 L 20.162,57.088 L 22.22,49.543 L 23.363,44.97 L 23.592,43.369 L 24.964,38.111 L 25.878,32.395 L 26.564,29.422 L 27.25,25.764 L 27.25,25.764 L 38.225,30.565 L 64.062,41.769 L 82.582,50.0 L 76.18,53.887 L 64.747,59.832 L 53.773,65.09 L 43.941,70.578 L 40.054,73.093 L 37.31,73.779 L 35.71,74.007 L 33.881,74.236 L 30.908,74.007 L 27.25,72.864 L 24.278,71.492 L 20.162,69.435 L 18.562,68.52 L 17.418,68.063 Z" fill="rgba(59,130,246,0.25)" fill-rule="evenodd" stroke="rgba(59,130,246,0.9)" stroke-width="0.3" stroke-linejoin="round"/>
</svg>
