<svg xmlns="http://www.w3.org/2000/svg" width="100%" height="100%" viewBox="0 0 100 100" preserveAspectRatio="none">
  <path d="M 57.317,51.715 L 53.887,53.773 L 49.085,56.516 L 47.485,57.66 L 44.284,59.489 L 43.827,59.717 L 38.797,62.69 L 37.882,63.147 L 36.967,63.604 L 36.967,62.918 L 36.739,60.861 L 36.51,58.803 L 36.51,58.803 L 36.51,58.117 L 40.626,55.602 L 43.141,54.23 L 44.97,53.315 L 45.427,53.087 L 45.884,52.858 L 46.113,53.087 L 52.972,48.742 L 50.915,45.084 L 48.628,40.74 L 49.314,40.511 L 50.0,40.054 L 51.143,39.368 L 53.887,37.768 L 55.716,36.853 L 56.402,36.396 L 56.859,36.853 L 63.033,47.371 L 63.49,48.285 L 63.49,48.285 L 57.317,51.715 Z" fill="rgba(59,130,246,0.25)" fill-rule="evenodd" stroke="rgba(59,130,246,0.9)" stroke-width="0.3" stroke-linejoin="round"/>
</svg>
