<svg xmlns="http://www.w3.org/2000/svg" width="100%" height="100%" viewBox="0 0 100 100" preserveAspectRatio="none">
  <path d="M 66.348,68.177 L 64.519,68.406 L 57.888,68.863 L 54.23,69.092 L 46.685,69.778 L 41.197,70.235 L 39.597,70.235 L 39.139,66.119 L 39.139,65.891 L 39.139,64.29 L 38.911,62.918 L 38.911,62.918 L 38.454,56.288 L 38.454,54.459 L 38.225,54.001 L 38.225,54.001 L 35.481,45.999 L 33.881,41.655 L 33.652,40.74 L 37.996,39.139 L 48.057,35.481 L 59.717,31.137 L 63.147,29.765 L 63.147,29.765 L 63.147,29.765 L 63.376,30.908 L 63.376,30.908 L 63.604,32.28 L 63.604,32.28 L 64.519,44.17 L 64.519,44.17 L 65.891,62.232 L 66.348,68.177 Z" fill="rgba(59,130,246,0.25)" fill-rule="evenodd" stroke="rgba(59,130,246,0.9)" stroke-width="0.3" stroke-linejoin="round"/>
</svg>
