<svg xmlns="http://www.w3.org/2000/svg" width="100%" height="100%" viewBox="0 0 100 100" preserveAspectRatio="none">
  <path d="M 39.254,29.422 L 50.229,31.937 L 68.977,36.51 L 70.349,36.967 L 70.349,36.967 L 67.605,43.827 L 66.005,48.171 L 65.319,49.771 L 62.804,56.402 L 57.545,69.663 L 57.317,70.578 L 57.088,71.035 L 56.859,71.264 L 55.03,70.349 L 35.138,61.203 L 30.565,59.146 L 29.879,58.688 L 29.651,58.688 L 29.879,58.002 L 31.937,49.543 L 33.538,42.683 L 33.766,42.226 L 36.51,30.794 L 36.967,28.736 L 38.111,28.965 L 43.598,30.337 L 47.028,31.251 L 50.229,31.937 L 50.229,31.937 L 39.254,29.422 Z" fill="rgba(59,130,246,0.25)" fill-rule="evenodd" stroke="rgba(59,130,246,0.9)" stroke-width="0.3" stroke-linejoin="round"/>
</svg>
