<svg xmlns="http://www.w3.org/2000/svg" width="100%" height="100%" viewBox="0 0 100 100" preserveAspectRatio="none">
  <path d="M 45.199,64.976 L 40.626,63.147 L 40.626,63.147 L 38.797,62.232 L 36.967,61.546 L 36.967,61.318 L 37.196,60.861 L 37.425,60.175 L 40.397,53.773 L 41.769,50.8 L 42.226,49.886 L 42.912,48.057 L 44.741,44.17 L 46.57,40.054 L 48.4,35.938 L 49.543,33.195 L 49.771,32.509 L 52.286,33.881 L 52.515,33.881 L 59.603,37.31 L 63.033,39.139 L 63.033,39.139 L 63.033,39.139 L 62.804,39.368 L 62.804,39.368 L 60.06,45.541 L 59.832,46.227 L 54.801,57.431 L 52.058,63.604 L 50.915,66.348 L 50.915,66.577 L 50.915,66.577 L 50.457,67.491 L 50.457,67.491 L 50.457,67.491 L 47.028,65.891 L 45.199,64.976 Z" fill="rgba(59,130,246,0.25)" fill-rule="evenodd" stroke="rgba(59,130,246,0.9)" stroke-width="0.3" stroke-linejoin="round"/>
</svg>
