<svg xmlns="http://www.w3.org/2000/svg" width="100%" height="100%" viewBox="0 0 100 100" preserveAspectRatio="none">
  <path d="M 42.226,73.322 L 42.226,73.093 L 35.367,61.432 L 32.852,57.545 L 36.053,54.573 L 40.854,49.771 L 41.54,49.314 L 41.769,49.085 L 44.513,46.57 L 44.741,46.342 L 47.714,43.369 L 48.857,42.226 L 50.686,40.397 L 53.201,38.111 L 54.116,37.196 L 57.774,33.538 L 62.347,28.965 L 63.719,27.822 L 64.633,27.136 L 65.319,26.678 L 65.319,28.508 L 65.776,33.08 L 66.234,37.882 L 66.234,37.882 L 66.234,39.94 L 66.234,40.168 L 66.691,44.284 L 66.92,47.256 L 66.92,48.171 L 67.148,48.857 L 66.005,49.314 L 65.09,50.229 L 64.862,50.457 L 62.804,52.515 L 60.289,55.03 L 58.917,56.402 L 55.259,60.06 L 55.03,60.518 L 55.03,60.518 L 51.6,63.719 L 48.4,67.148 L 48.4,67.148 L 45.427,70.121 L 43.598,71.95 L 42.226,73.322 Z" fill="rgba(59,130,246,0.25)" fill-rule="evenodd" stroke="rgba(59,130,246,0.9)" stroke-width="0.3" stroke-linejoin="round"/>
</svg>
