<svg xmlns="http://www.w3.org/2000/svg" width="100%" height="100%" viewBox="0 0 100 100" preserveAspectRatio="none">
  <path d="M 59.26,45.427 L 62.461,46.57 L 64.519,47.256 L 64.519,47.485 L 63.604,49.771 L 60.861,56.859 L 59.031,61.661 L 59.031,61.889 L 57.431,61.661 L 56.745,61.432 L 54.23,60.746 L 50.343,60.06 L 49.886,59.832 L 49.2,59.603 L 48.285,59.374 L 45.999,58.917 L 43.255,58.231 L 42.798,58.231 L 42.569,58.002 L 41.197,57.774 L 37.082,56.859 L 35.481,56.402 L 35.481,56.402 L 35.938,55.03 L 37.768,47.256 L 39.825,39.482 L 40.054,38.111 L 40.283,38.111 L 41.655,38.568 L 48.057,41.083 L 52.858,42.912 L 59.26,45.427 Z" fill="rgba(59,130,246,0.25)" fill-rule="evenodd" stroke="rgba(59,130,246,0.9)" stroke-width="0.3" stroke-linejoin="round"/>
</svg>
