<svg xmlns="http://www.w3.org/2000/svg" width="100%" height="100%" viewBox="0 0 100 100" preserveAspectRatio="none">
  <path d="M 48.857,65.205 L 41.312,61.775 L 39.94,61.089 L 39.94,59.717 L 40.626,54.001 L 40.626,54.001 L 40.626,53.544 L 41.083,47.599 L 41.083,47.371 L 41.083,47.371 L 41.998,37.539 L 41.998,37.31 L 42.226,35.253 L 42.455,34.795 L 42.455,34.795 L 43.141,35.024 L 43.598,35.253 L 44.97,35.938 L 45.884,36.396 L 46.57,36.624 L 47.028,37.082 L 48.857,37.996 L 50.457,38.682 L 51.829,38.682 L 52.286,38.454 L 52.286,38.454 L 52.972,38.454 L 53.43,38.454 L 57.317,39.368 L 58.688,39.597 L 60.06,39.825 L 59.603,41.197 L 58.46,43.941 L 58.002,45.541 L 56.859,47.828 L 56.859,47.828 L 55.716,50.572 L 53.658,54.916 L 52.972,56.516 L 52.744,56.974 L 52.286,57.888 L 51.372,59.946 L 50.686,61.318 L 49.085,64.747 L 48.857,65.205 Z" fill="rgba(59,130,246,0.25)" fill-rule="evenodd" stroke="rgba(59,130,246,0.9)" stroke-width="0.3" stroke-linejoin="round"/>
</svg>
