<svg xmlns="http://www.w3.org/2000/svg" width="100%" height="100%" viewBox="0 0 100 100" preserveAspectRatio="none">
  <path d="M 41.197,27.021 L 45.77,30.222 L 45.999,30.222 L 51.258,34.109 L 51.258,34.109 L 55.83,37.539 L 62.004,41.883 L 62.004,41.883 L 64.519,43.712 L 64.747,43.712 L 68.634,46.685 L 68.863,46.913 L 69.092,46.913 L 72.521,49.428 L 71.378,51.715 L 70.235,54.23 L 67.491,60.632 L 66.348,63.147 L 64.747,66.805 L 62.004,72.979 L 62.004,72.979 L 60.861,72.521 L 60.403,72.293 L 57.66,71.149 L 57.66,71.149 L 54.001,69.549 L 50.8,68.177 L 50.8,68.177 L 49.657,67.72 L 45.313,65.662 L 44.856,65.662 L 41.197,63.833 L 40.511,63.604 L 38.911,62.918 L 37.996,62.461 L 34.795,61.089 L 34.109,60.861 L 28.851,58.345 L 27.479,57.888 L 28.851,54.916 L 29.765,52.858 L 29.765,52.858 L 31.137,49.886 L 32.509,46.685 L 32.737,45.77 L 32.966,45.541 L 33.423,44.398 L 33.423,44.17 L 34.567,41.655 L 35.71,39.139 L 35.938,38.911 L 35.938,38.911 L 37.539,35.481 L 38.225,33.652 L 40.054,29.536 L 41.197,27.021 Z" fill="rgba(59,130,246,0.25)" fill-rule="evenodd" stroke="rgba(59,130,246,0.9)" stroke-width="0.3" stroke-linejoin="round"/>
</svg>
