<svg xmlns="http://www.w3.org/2000/svg" width="100%" height="100%" viewBox="0 0 100 100" preserveAspectRatio="none">
  <path d="M 42.226,31.137 L 46.342,32.28 L 52.286,34.338 L 74.465,40.969 L 74.465,40.969 L 74.922,41.197 L 74.922,41.197 L 74.007,45.313 L 73.779,46.456 L 72.407,51.943 L 71.035,57.888 L 70.806,58.803 L 69.892,62.004 L 68.52,68.863 L 68.291,69.778 L 67.834,71.378 L 65.09,70.464 L 61.432,69.549 L 61.432,69.549 L 59.832,69.092 L 59.832,69.092 L 56.173,67.948 L 56.173,67.72 L 54.573,67.263 L 54.573,67.263 L 51.143,66.348 L 51.143,66.348 L 49.085,65.662 L 49.085,65.662 L 46.113,64.747 L 46.113,64.747 L 43.598,63.833 L 43.598,63.833 L 40.854,63.147 L 40.854,63.147 L 38.111,62.232 L 38.111,62.232 L 35.596,61.318 L 35.596,61.318 L 32.623,60.403 L 32.623,60.403 L 30.565,59.946 L 30.565,59.946 L 27.364,58.803 L 27.364,58.803 L 25.307,58.345 L 25.078,58.117 L 25.078,57.431 L 25.078,57.202 L 26.678,52.172 L 28.736,45.541 L 29.879,41.883 L 31.023,38.225 L 32.852,32.509 L 34.224,28.622 L 34.224,28.622 L 37.882,29.765 L 37.882,29.765 L 42.226,31.137 Z" fill="rgba(59,130,246,0.25)" fill-rule="evenodd" stroke="rgba(59,130,246,0.9)" stroke-width="0.3" stroke-linejoin="round"/>
</svg>
