<svg xmlns="http://www.w3.org/2000/svg" width="100%" height="100%" viewBox="0 0 100 100" preserveAspectRatio="none">
  <path d="M 30.794,42.798 L 30.794,42.798 L 30.794,42.34 L 31.709,39.139 L 33.766,29.994 L 34.224,27.936 L 34.452,27.936 L 34.452,27.936 L 46.113,32.28 L 46.113,32.28 L 47.028,32.737 L 50.915,34.338 L 54.801,35.71 L 54.801,35.71 L 63.261,39.139 L 63.261,39.139 L 63.261,39.139 L 67.377,40.74 L 73.55,43.026 L 75.608,43.941 L 75.608,43.941 L 74.922,45.999 L 73.779,49.657 L 71.264,58.345 L 63.033,55.373 L 62.347,55.144 L 59.603,54.001 L 58.002,53.315 L 57.545,53.087 L 56.402,52.629 L 54.573,51.943 L 45.199,48.285 L 44.97,48.971 L 42.226,60.175 L 44.97,48.971 L 45.199,49.428 L 44.741,50.572 L 43.827,53.773 L 42.683,58.345 L 41.312,64.29 L 39.711,70.464 L 39.254,72.064 L 39.254,72.064 L 35.824,71.149 L 33.538,70.692 L 33.538,70.692 L 30.108,69.778 L 27.136,69.092 L 24.392,68.406 L 24.392,68.406 L 24.621,68.406 L 24.621,68.406 L 25.535,63.604 L 27.593,55.602 L 28.736,50.572 L 29.651,46.913 L 30.794,42.798 Z" fill="rgba(59,130,246,0.25)" fill-rule="evenodd" stroke="rgba(59,130,246,0.9)" stroke-width="0.3" stroke-linejoin="round"/>
</svg>
