<svg xmlns="http://www.w3.org/2000/svg" width="100%" height="100%" viewBox="0 0 100 100" preserveAspectRatio="none">
  <path d="M 72.407,51.258 L 70.349,54.687 L 70.121,55.83 L 68.291,60.861 L 68.291,61.318 L 68.063,61.318 L 68.063,61.546 L 67.834,61.775 L 67.834,62.004 L 67.148,61.775 L 63.947,60.175 L 61.203,60.403 L 59.374,61.089 L 58.688,61.775 L 58.917,62.918 L 58.917,63.147 L 58.917,63.147 L 59.374,63.604 L 60.518,64.976 L 59.603,65.662 L 57.774,67.263 L 57.545,67.491 L 57.545,67.263 L 57.545,67.263 L 57.545,67.034 L 57.088,66.805 L 47.028,62.918 L 36.967,59.26 L 36.51,59.031 L 36.51,59.031 L 35.824,58.117 L 35.596,57.431 L 33.766,54.916 L 31.48,51.258 L 27.593,45.77 L 26.907,44.627 L 27.364,43.255 L 29.651,37.082 L 30.337,35.024 L 31.023,32.966 L 31.023,32.509 L 31.023,32.509 L 41.998,36.853 L 63.947,45.084 L 63.947,45.313 L 73.093,48.514 L 73.093,48.742 L 72.178,50.8 L 72.407,51.258 Z" fill="rgba(59,130,246,0.25)" fill-rule="evenodd" stroke="rgba(59,130,246,0.9)" stroke-width="0.3" stroke-linejoin="round"/>
</svg>
