<svg xmlns="http://www.w3.org/2000/svg" width="100%" height="100%" viewBox="0 0 100 100" preserveAspectRatio="none">
  <path d="M 36.967,52.744 L 37.882,52.058 L 38.568,51.372 L 39.254,50.915 L 39.482,50.457 L 39.711,50.229 L 43.141,46.799 L 43.141,46.799 L 44.741,45.199 L 46.342,43.369 L 47.485,42.226 L 47.942,41.54 L 48.857,40.168 L 52.972,34.91 L 54.116,33.309 L 55.03,33.995 L 55.945,34.452 L 61.432,37.196 L 62.118,37.425 L 63.033,37.882 L 62.804,38.568 L 61.661,41.312 L 59.832,45.427 L 58.002,49.543 L 56.173,53.43 L 55.487,55.259 L 55.03,56.173 L 53.658,59.146 L 50.686,65.548 L 50.457,66.234 L 50.229,66.691 L 47.714,65.548 L 45.427,64.633 L 45.427,64.633 L 41.54,62.804 L 37.882,61.203 L 37.425,60.975 L 37.425,60.289 L 37.653,58.917 L 37.425,57.545 L 37.425,56.402 L 37.425,54.573 L 37.196,54.116 L 36.967,52.744 Z" fill="rgba(59,130,246,0.25)" fill-rule="evenodd" stroke="rgba(59,130,246,0.9)" stroke-width="0.3" stroke-linejoin="round"/>
</svg>
