<svg xmlns="http://www.w3.org/2000/svg" width="100%" height="100%" viewBox="0 0 100 100" preserveAspectRatio="none">
  <path d="M 46.799,68.52 L 44.741,67.605 L 42.683,66.462 L 41.998,66.234 L 39.94,65.09 L 37.653,63.947 L 36.053,63.033 L 38.339,57.545 L 40.168,53.658 L 40.168,53.658 L 41.312,50.915 L 41.312,50.915 L 43.598,45.884 L 46.342,39.711 L 46.342,39.482 L 48.4,35.138 L 49.771,31.937 L 50.457,30.337 L 57.317,33.309 L 57.317,33.309 L 57.545,33.309 L 59.832,34.452 L 61.661,35.138 L 63.947,36.281 L 63.947,36.281 L 61.661,41.998 L 55.487,55.716 L 54.801,57.088 L 52.058,63.49 L 49.314,69.663 L 46.799,68.52 Z" fill="rgba(59,130,246,0.25)" fill-rule="evenodd" stroke="rgba(59,130,246,0.9)" stroke-width="0.3" stroke-linejoin="round"/>
</svg>
