<svg xmlns="http://www.w3.org/2000/svg" width="100%" height="100%" viewBox="0 0 100 100" preserveAspectRatio="none">
  <path d="M 26.736,61.889 L 25.592,60.518 L 25.249,60.175 L 25.249,60.175 L 25.249,60.175 L 26.393,58.002 L 26.507,57.774 L 26.85,57.431 L 26.85,58.117 L 27.079,59.489 L 27.765,61.089 L 28.565,62.575 L 29.022,63.147 L 33.595,68.634 L 35.31,67.377 L 35.195,67.148 L 41.483,64.176 L 37.253,52.172 L 42.398,49.657 L 45.484,47.485 L 47.771,46.113 L 50.171,43.598 L 53.144,39.139 L 61.032,35.596 L 61.489,31.709 L 62.175,31.023 L 62.175,31.023 L 62.518,31.251 L 63.09,31.366 L 66.748,30.337 L 69.72,29.194 L 72.235,27.593 L 72.578,27.479 L 74.751,26.564 L 74.179,28.851 L 73.15,32.623 L 72.578,35.138 L 71.778,38.111 L 71.778,38.111 L 70.749,42.569 L 69.72,46.342 L 69.149,48.4 L 68.806,49.886 L 68.006,52.858 L 67.548,54.23 L 66.862,55.487 L 66.405,56.516 L 66.176,56.745 L 66.176,56.974 L 65.491,57.888 L 64.576,58.917 L 63.318,60.175 L 62.518,60.975 L 61.489,62.004 L 60.232,63.033 L 58.631,64.062 L 58.06,64.29 L 57.831,64.29 L 57.145,64.519 L 53.83,64.862 L 52.229,65.09 L 50.171,65.319 L 49.486,65.319 L 48.685,65.548 L 47.885,65.776 L 46.742,66.234 L 45.599,66.691 L 44.57,67.263 L 43.198,68.063 L 42.169,68.634 L 41.712,68.977 L 41.026,69.435 L 40.111,70.121 L 38.168,71.721 L 38.053,71.95 L 37.939,71.95 L 37.71,72.293 L 36.339,73.436 L 34.967,71.721 L 30.508,66.348 L 26.736,61.889 Z" fill="rgba(59,130,246,0.25)" fill-rule="evenodd" stroke="rgba(59,130,246,0.9)" stroke-width="0.3" stroke-linejoin="round"/>
</svg>
