<svg xmlns="http://www.w3.org/2000/svg" width="100%" height="100%" viewBox="0 0 100 100" preserveAspectRatio="none">
  <path d="M 34.91,47.942 L 36.51,47.256 L 44.741,43.598 L 50.457,41.083 L 54.344,39.482 L 60.289,36.967 L 60.746,37.882 L 62.347,41.998 L 64.633,48.171 L 64.862,49.314 L 65.09,49.771 L 65.09,50.0 L 64.862,50.0 L 60.975,52.744 L 60.746,52.744 L 55.716,56.173 L 55.487,56.173 L 52.972,58.002 L 52.744,58.002 L 50.686,59.374 L 45.199,63.033 L 45.199,63.033 L 44.741,62.347 L 41.769,58.231 L 41.769,58.231 L 39.482,55.03 L 39.482,55.03 L 38.568,53.658 L 37.425,52.058 L 37.425,51.829 L 36.967,51.372 L 36.053,49.771 L 35.596,48.857 L 34.91,47.942 L 34.91,47.942 Z" fill="rgba(59,130,246,0.25)" fill-rule="evenodd" stroke="rgba(59,130,246,0.9)" stroke-width="0.3" stroke-linejoin="round"/>
</svg>
