<svg xmlns="http://www.w3.org/2000/svg" width="100%" height="100%" viewBox="0 0 100 100" preserveAspectRatio="none">
  <path d="M 32.395,46.913 L 32.166,45.541 L 31.937,44.856 L 31.709,40.74 L 31.709,40.74 L 29.879,17.876 L 29.879,17.647 L 32.623,17.19 L 36.739,16.733 L 36.967,16.733 L 38.568,16.504 L 42.455,15.818 L 43.141,15.589 L 43.141,15.361 L 43.598,15.818 L 44.284,17.19 L 44.741,21.305 L 44.741,21.534 L 45.427,25.421 L 45.884,29.079 L 46.57,33.652 L 47.256,37.996 L 47.256,38.911 L 47.485,40.283 L 47.942,43.484 L 48.857,49.886 L 49.771,57.66 L 50.0,59.717 L 50.915,59.717 L 52.744,60.175 L 54.116,60.175 L 54.801,60.175 L 55.716,60.175 L 55.716,60.175 L 56.173,62.004 L 56.402,62.461 L 56.402,62.918 L 56.631,63.147 L 58.231,64.747 L 58.46,64.976 L 58.46,64.976 L 60.06,66.348 L 61.889,67.948 L 61.889,67.948 L 65.548,71.378 L 66.462,72.293 L 66.462,72.293 L 70.121,75.494 L 70.121,75.494 L 65.776,80.295 L 63.49,82.81 L 63.033,83.267 L 61.889,84.639 L 58.46,81.667 L 53.43,77.094 L 46.799,71.149 L 46.113,70.692 L 40.168,65.433 L 37.653,64.747 L 37.425,64.747 L 34.681,64.976 L 33.995,59.717 L 33.766,58.117 L 33.309,55.373 L 32.623,49.428 L 32.395,46.913 Z" fill="rgba(59,130,246,0.25)" fill-rule="evenodd" stroke="rgba(59,130,246,0.9)" stroke-width="0.3" stroke-linejoin="round"/>
</svg>
