<svg xmlns="http://www.w3.org/2000/svg" width="100%" height="100%" viewBox="0 0 100 100" preserveAspectRatio="none">
  <path d="M 61.775,59.946 L 61.775,59.946 L 61.089,59.717 L 58.117,59.031 L 56.059,58.574 L 53.773,58.117 L 53.773,57.888 L 49.886,56.974 L 47.371,56.516 L 46.913,56.288 L 43.712,55.602 L 40.511,54.916 L 40.283,54.687 L 35.481,53.544 L 34.795,53.315 L 33.195,53.087 L 33.195,53.087 L 33.195,53.087 L 34.109,50.343 L 35.71,46.227 L 37.996,40.054 L 39.597,40.511 L 40.511,40.74 L 42.798,41.197 L 46.913,42.112 L 46.913,42.112 L 47.828,42.34 L 48.742,42.569 L 50.343,43.026 L 53.087,43.712 L 53.087,43.712 L 54.687,43.941 L 54.687,44.17 L 59.031,45.084 L 59.031,45.084 L 61.089,45.541 L 61.089,45.541 L 66.805,47.142 L 66.805,47.142 L 66.348,48.514 L 64.29,53.773 L 64.29,53.773 L 62.918,56.974 L 61.775,59.946 L 61.775,59.946 Z" fill="rgba(59,130,246,0.25)" fill-rule="evenodd" stroke="rgba(59,130,246,0.9)" stroke-width="0.3" stroke-linejoin="round"/>
</svg>
