<svg xmlns="http://www.w3.org/2000/svg" width="100%" height="100%" viewBox="0 0 100 100" preserveAspectRatio="none">
  <path d="M 67.834,50.457 L 69.206,50.915 L 70.349,51.372 L 69.206,54.116 L 68.063,57.545 L 67.377,58.231 L 66.691,58.688 L 66.462,58.917 L 66.462,58.917 L 64.176,60.746 L 61.203,63.49 L 60.975,63.719 L 54.344,69.663 L 54.344,69.663 L 53.658,70.349 L 52.744,69.435 L 47.256,63.033 L 46.57,62.347 L 45.427,60.746 L 45.199,60.518 L 40.626,55.716 L 38.568,52.972 L 29.651,42.683 L 30.108,41.769 L 30.565,41.083 L 30.794,41.083 L 34.91,37.425 L 39.94,33.08 L 42.912,30.337 L 43.827,29.651 L 44.284,30.108 L 44.97,31.023 L 50.915,37.425 L 55.03,42.455 L 59.374,47.256 L 59.603,47.485 L 64.176,49.314 L 67.834,50.457 Z M 60.518,56.631 L 63.947,53.658 L 63.49,54.116 L 60.518,56.631 Z" fill="rgba(59,130,246,0.25)" fill-rule="evenodd" stroke="rgba(59,130,246,0.9)" stroke-width="0.3" stroke-linejoin="round"/>
</svg>
