<svg xmlns="http://www.w3.org/2000/svg" width="100%" height="100%" viewBox="0 0 100 100" preserveAspectRatio="none">
  <path d="M 69.949,42.969 L 70.292,42.912 L 70.235,43.541 L 70.178,44.341 L 70.178,45.027 L 70.121,45.484 L 70.121,45.77 L 70.063,46.227 L 70.006,47.256 L 70.006,47.371 L 69.949,47.999 L 69.949,47.999 L 69.949,48.171 L 69.949,48.228 L 70.063,48.514 L 70.063,48.8 L 70.121,49.486 L 70.121,49.543 L 70.178,50.057 L 71.035,50.457 L 71.149,50.343 L 71.264,50.4 L 71.778,50.743 L 72.521,51.143 L 72.578,51.143 L 73.15,51.429 L 73.264,51.943 L 73.55,52.458 L 73.95,52.915 L 74.922,53.715 L 74.979,53.43 L 75.151,53.487 L 75.151,53.487 L 75.208,53.487 L 75.265,53.487 L 75.265,53.544 L 75.265,53.544 L 75.265,53.544 L 75.379,53.601 L 75.551,53.658 L 76.465,54.001 L 76.866,54.116 L 77.894,54.459 L 77.837,54.573 L 77.837,54.573 L 77.666,55.144 L 77.437,55.716 L 77.266,56.288 L 77.094,56.688 L 77.094,56.802 L 76.98,57.088 L 76.866,57.317 L 76.523,58.403 L 76.237,59.146 L 76.008,59.832 L 75.722,60.575 L 75.436,61.432 L 75.265,61.889 L 75.094,62.461 L 74.465,62.29 L 73.893,62.118 L 69.092,60.689 L 68.92,60.518 L 67.548,60.117 L 66.691,61.489 L 66.977,61.775 L 67.377,61.889 L 67.548,62.004 L 67.548,62.004 L 67.663,62.061 L 67.834,62.175 L 67.948,64.062 L 67.491,66.691 L 67.434,66.92 L 66.977,69.32 L 66.92,69.492 L 66.862,69.835 L 66.291,69.835 L 66.176,69.663 L 65.891,69.32 L 65.433,68.92 L 64.976,68.634 L 64.69,68.406 L 64.462,68.52 L 64.462,68.577 L 64.233,69.092 L 63.49,68.92 L 63.318,69.492 L 63.204,69.949 L 63.09,70.349 L 62.975,70.806 L 62.633,71.264 L 62.575,71.321 L 62.575,71.321 L 62.518,71.378 L 61.775,71.092 L 61.146,70.921 L 60.175,70.692 L 58.688,70.349 L 58.517,70.292 L 58.403,70.406 L 58.345,70.406 L 57.831,70.121 L 57.202,70.006 L 57.088,69.949 L 56.745,69.72 L 56.859,70.121 L 56.402,69.949 L 55.087,69.435 L 55.03,69.377 L 53.944,69.206 L 53.715,69.149 L 53.43,69.149 L 52.915,69.149 L 52.401,69.149 L 52.001,69.149 L 51.829,69.149 L 51.6,69.092 L 51.2,69.092 L 51.2,69.149 L 51.086,69.149 L 50.972,69.149 L 50.4,69.149 L 50.343,69.149 L 49.943,69.206 L 49.486,69.206 L 48.8,69.435 L 48.742,69.892 L 47.942,69.72 L 47.714,69.72 L 47.828,69.206 L 47.656,69.092 L 46.913,69.034 L 46.913,68.749 L 46.913,68.692 L 47.199,68.234 L 46.913,68.063 L 46.57,68.006 L 46.513,68.006 L 46.456,67.834 L 46.17,67.777 L 45.827,67.777 L 44.17,67.663 L 43.141,67.605 L 42.455,67.605 L 41.883,67.548 L 40.969,67.434 L 40.797,67.434 L 39.997,67.32 L 39.654,67.263 L 39.425,67.205 L 39.311,67.091 L 39.197,67.148 L 38.682,67.034 L 38.625,67.148 L 38.339,67.948 L 38.454,70.006 L 38.225,70.635 L 38.225,70.635 L 38.225,70.635 L 38.225,70.635 L 37.882,71.607 L 37.882,71.607 L 35.081,70.749 L 35.367,69.778 L 34.91,69.663 L 34.281,69.435 L 34.167,69.435 L 33.595,69.206 L 32.795,68.977 L 31.194,68.463 L 28.679,67.663 L 28.279,67.548 L 27.307,67.263 L 23.82,65.719 L 27.364,56.345 L 22.106,54.287 L 25.821,44.398 L 29.251,35.424 L 27.536,34.738 L 28.622,33.995 L 28.736,33.938 L 28.851,33.881 L 29.708,33.423 L 30.108,33.195 L 30.737,33.023 L 30.851,33.023 L 31.308,32.909 L 31.937,32.68 L 32.452,32.509 L 32.566,32.509 L 32.566,32.509 L 32.566,32.509 L 32.566,32.509 L 32.737,31.651 L 32.966,31.823 L 33.195,31.937 L 33.309,31.994 L 33.423,31.994 L 34.509,32.28 L 35.481,32.452 L 35.824,32.509 L 36.167,32.566 L 36.339,32.566 L 36.567,32.452 L 36.853,32.28 L 37.139,32.166 L 37.71,31.537 L 37.939,31.366 L 38.339,31.023 L 38.396,30.966 L 38.682,30.794 L 38.854,30.737 L 38.854,30.737 L 39.082,30.623 L 39.311,30.565 L 39.311,30.565 L 40.226,30.28 L 41.54,29.879 L 42.969,29.422 L 45.37,28.393 L 45.37,28.393 L 45.77,29.651 L 45.827,29.594 L 46.17,29.594 L 46.513,29.879 L 47.142,30.051 L 47.199,30.28 L 47.599,30.737 L 47.656,30.908 L 47.828,31.423 L 47.942,31.48 L 49.143,31.937 L 49.428,31.937 L 49.657,31.994 L 50.4,32.052 L 50.514,32.052 L 50.8,32.052 L 51.258,32.109 L 51.658,32.109 L 52.286,32.109 L 52.744,32.052 L 53.144,31.994 L 53.83,31.937 L 54.744,31.88 L 55.373,31.823 L 55.888,31.766 L 55.888,31.766 L 56.516,31.709 L 57.202,31.594 L 58.002,31.537 L 58.002,31.537 L 58.002,31.651 L 58.288,31.651 L 58.288,31.537 L 58.231,31.48 L 58.403,31.48 L 59.717,31.366 L 59.946,31.366 L 60.861,31.308 L 62.918,31.08 L 62.861,31.423 L 63.147,31.537 L 63.261,31.651 L 63.09,31.709 L 62.918,31.88 L 62.918,32.052 L 63.033,32.852 L 62.804,35.881 L 62.347,36.11 L 61.432,37.768 L 61.146,38.225 L 61.089,38.511 L 60.918,38.568 L 60.632,38.568 L 60.632,38.625 L 60.346,41.883 L 60.346,42.455 L 60.346,42.455 L 68.291,42.912 L 68.291,42.969 L 68.863,42.969 L 69.778,42.969 L 69.892,42.969 L 69.892,42.969 L 69.949,42.969 Z" fill="rgba(59,130,246,0.25)" fill-rule="evenodd" stroke="rgba(59,130,246,0.9)" stroke-width="0.3" stroke-linejoin="round"/>
</svg>
