<svg xmlns="http://www.w3.org/2000/svg" width="100%" height="100%" viewBox="0 0 100 100" preserveAspectRatio="none">
  <path d="M 59.26,51.715 L 59.26,51.715 L 59.489,55.83 L 59.946,59.489 L 59.946,60.632 L 60.175,62.232 L 60.175,63.147 L 57.431,63.147 L 51.486,63.147 L 45.541,62.918 L 41.883,62.918 L 41.883,62.004 L 41.197,54.459 L 40.283,42.34 L 40.054,40.74 L 39.825,38.225 L 39.825,37.539 L 41.883,37.539 L 48.742,37.539 L 49.657,37.539 L 50.343,37.31 L 51.258,37.31 L 54.916,37.082 L 57.202,37.082 L 57.888,36.853 L 57.888,37.082 L 58.117,39.825 L 58.574,43.484 L 59.26,51.715 Z" fill="rgba(59,130,246,0.25)" fill-rule="evenodd" stroke="rgba(59,130,246,0.9)" stroke-width="0.3" stroke-linejoin="round"/>
</svg>
