<svg xmlns="http://www.w3.org/2000/svg" width="100%" height="100%" viewBox="0 0 100 100" preserveAspectRatio="none">
  <path d="M 48.971,69.206 L 48.971,69.206 L 46.913,68.291 L 45.084,67.605 L 44.856,67.377 L 40.511,65.319 L 36.624,63.49 L 36.624,63.261 L 36.624,63.261 L 36.853,62.804 L 40.054,55.716 L 43.712,47.028 L 43.712,46.799 L 45.084,44.284 L 45.541,42.912 L 47.599,38.339 L 48.971,35.138 L 51.029,30.794 L 54.23,32.395 L 56.974,33.538 L 56.974,33.538 L 56.974,33.538 L 57.202,33.766 L 59.717,34.681 L 62.004,35.596 L 63.376,36.51 L 62.69,38.111 L 61.318,41.312 L 59.26,45.656 L 59.26,45.884 L 56.516,52.058 L 54.23,57.088 L 54.23,57.088 L 53.087,59.832 L 53.087,59.832 L 51.258,63.719 L 48.971,69.206 Z" fill="rgba(59,130,246,0.25)" fill-rule="evenodd" stroke="rgba(59,130,246,0.9)" stroke-width="0.3" stroke-linejoin="round"/>
</svg>
