<svg xmlns="http://www.w3.org/2000/svg" width="100%" height="100%" viewBox="0 0 100 100" preserveAspectRatio="none">
  <path d="M 43.141,60.575 L 26.45,54.744 L 27.136,53.715 L 27.707,53.03 L 28.165,52.458 L 28.393,52.115 L 28.622,51.772 L 31.137,48.228 L 32.166,46.742 L 33.309,45.37 L 34.567,43.541 L 35.596,42.169 L 35.938,41.712 L 36.167,41.369 L 39.711,36.682 L 41.998,36.224 L 43.598,35.996 L 44.627,35.767 L 44.741,35.767 L 45.656,35.538 L 47.599,35.195 L 48.171,35.081 L 48.514,34.967 L 49.085,34.852 L 49.428,34.852 L 50.114,34.852 L 50.8,34.738 L 51.6,34.738 L 52.172,34.852 L 52.858,34.852 L 53.773,34.967 L 54.801,35.081 L 55.83,35.31 L 56.974,35.538 L 57.888,35.767 L 59.26,36.224 L 59.717,36.339 L 60.632,36.682 L 61.889,37.139 L 63.719,37.71 L 64.976,38.282 L 66.234,38.739 L 66.348,38.739 L 66.348,38.854 L 66.577,39.54 L 66.577,39.54 L 66.805,39.654 L 69.32,40.797 L 70.921,41.369 L 71.149,41.483 L 72.178,41.94 L 73.093,42.283 L 73.55,42.512 L 69.663,48.8 L 61.661,59.889 L 56.631,65.262 L 56.631,65.262 L 43.141,60.575 Z" fill="rgba(59,130,246,0.25)" fill-rule="evenodd" stroke="rgba(59,130,246,0.9)" stroke-width="0.3" stroke-linejoin="round"/>
</svg>
