<svg xmlns="http://www.w3.org/2000/svg" width="100%" height="100%" viewBox="0 0 100 100" preserveAspectRatio="none">
  <path d="M 62.118,63.49 L 61.661,64.862 L 60.518,64.404 L 59.832,64.404 L 59.832,64.176 L 57.774,63.49 L 52.515,61.661 L 47.714,59.832 L 43.598,58.46 L 39.482,56.859 L 35.824,55.487 L 33.08,54.344 L 31.937,54.116 L 31.251,53.887 L 31.709,52.058 L 32.852,49.085 L 33.538,47.028 L 33.995,46.113 L 35.596,41.769 L 37.425,37.425 L 37.882,36.053 L 38.111,35.138 L 38.111,35.138 L 38.111,35.138 L 39.025,35.596 L 48.4,39.025 L 52.286,40.397 L 68.749,46.342 L 68.749,46.342 L 67.834,48.4 L 67.148,49.771 L 64.633,56.631 L 63.719,59.374 L 62.804,62.118 L 62.118,63.49 Z" fill="rgba(59,130,246,0.25)" fill-rule="evenodd" stroke="rgba(59,130,246,0.9)" stroke-width="0.3" stroke-linejoin="round"/>
</svg>
