<svg xmlns="http://www.w3.org/2000/svg" width="100%" height="100%" viewBox="0 0 100 100" preserveAspectRatio="none">
  <path d="M 45.199,54.459 L 45.541,55.087 L 46.17,55.373 L 46.628,55.373 L 47.942,54.687 L 48.171,54.287 L 48.171,53.715 L 48.057,53.258 L 44.741,47.085 L 43.598,44.684 L 43.369,43.998 L 43.998,43.369 L 48.285,38.797 L 53.315,33.423 L 58.174,28.222 L 61.832,24.221 L 62.061,24.049 L 62.747,23.249 L 64.004,24.335 L 67.491,28.05 L 68.863,29.594 L 70.749,32.166 L 70.749,32.166 L 69.549,33.423 L 70.749,32.166 L 70.749,32.166 L 71.378,32.966 L 71.378,32.966 L 63.661,41.369 L 50.629,54.973 L 43.712,62.29 L 30.966,75.837 L 30.908,75.894 L 29.994,76.751 L 29.879,76.008 L 29.879,75.837 L 29.879,75.665 L 29.765,74.522 L 29.079,65.433 L 29.022,64.919 L 29.022,64.862 L 28.736,61.032 L 28.679,60.232 L 28.622,58.117 L 28.622,57.088 L 28.793,55.373 L 28.908,53.773 L 28.965,53.372 L 29.251,52.115 L 29.594,50.915 L 30.222,48.914 L 31.023,46.742 L 31.08,46.742 L 34.452,39.94 L 36.053,36.739 L 36.11,36.967 L 36.281,37.539 L 36.281,37.596 L 36.796,38.454 L 37.539,39.597 L 38.625,41.312 L 39.997,44.856 L 40.511,45.884 L 40.969,46.57 L 41.826,47.999 L 45.199,54.459 Z M 29.708,57.374 L 29.708,57.488 L 29.765,57.488 L 29.765,58.117 L 29.422,59.774 L 29.651,60.232 L 29.822,60.518 L 29.822,60.518 L 29.308,61.489 L 29.422,61.832 L 29.651,62.633 L 29.822,63.204 L 30.451,64.519 L 32.852,63.261 L 32.509,57.945 L 32.795,57.145 L 32.795,57.145 L 33.481,55.259 L 33.709,54.63 L 33.195,53.658 L 31.423,53.372 L 33.023,53.601 L 33.824,53.601 L 37.31,49.886 L 36.739,49.257 L 37.082,48.857 L 37.139,48.571 L 39.997,45.541 L 38.739,42.798 L 37.482,39.711 L 37.425,39.997 L 36.624,38.968 L 36.281,38.511 L 35.253,38.625 L 35.081,39.025 L 34.395,40.283 L 34.109,40.911 L 33.595,41.998 L 33.252,42.683 L 32.68,43.712 L 32.28,44.57 L 31.766,45.541 L 31.023,47.142 L 32.566,47.885 L 32.566,47.942 L 31.994,48.685 L 31.994,48.971 L 31.594,49.714 L 31.366,50.514 L 30.908,51.658 L 30.565,53.258 L 30.565,53.258 L 30.165,54.287 L 30.108,54.916 L 29.937,55.316 L 29.879,56.688 L 29.879,56.802 L 29.708,57.374 L 29.708,57.431 L 29.708,56.802 L 29.708,57.374 Z M 63.033,24.735 L 61.889,24.792 L 49.028,38.568 L 52.229,41.54 L 52.229,41.54 L 55.83,44.856 L 56.859,44.798 L 66.691,34.224 L 66.805,33.824 L 66.977,31.994 L 66.977,31.366 L 66.691,29.994 L 66.462,29.365 L 65.948,28.508 L 65.891,28.336 L 65.491,27.765 L 64.347,26.278 L 63.033,24.735 Z" fill="rgba(59,130,246,0.25)" fill-rule="evenodd" stroke="rgba(59,130,246,0.9)" stroke-width="0.3" stroke-linejoin="round"/>
</svg>
