<svg xmlns="http://www.w3.org/2000/svg" width="100%" height="100%" viewBox="0 0 100 100" preserveAspectRatio="none">
  <path d="M 38.339,55.373 L 38.111,55.144 L 38.111,54.687 L 37.882,53.087 L 37.882,52.858 L 37.653,52.172 L 36.967,50.114 L 36.967,49.657 L 39.711,48.971 L 40.168,48.971 L 41.769,48.285 L 42.683,48.057 L 43.141,47.828 L 43.369,47.371 L 44.513,43.484 L 45.656,39.368 L 45.199,38.911 L 44.741,38.682 L 44.513,38.454 L 44.513,38.225 L 45.199,36.167 L 47.256,31.594 L 47.942,30.451 L 48.171,30.222 L 47.942,29.765 L 47.714,29.308 L 45.884,26.335 L 45.427,24.964 L 45.199,24.506 L 48.857,23.134 L 50.0,24.964 L 51.143,25.878 L 52.972,27.936 L 56.402,31.137 L 58.46,32.737 L 59.374,34.109 L 59.832,34.567 L 61.661,36.167 L 62.575,37.539 L 64.404,41.426 L 61.203,42.569 L 61.432,43.026 L 60.289,45.084 L 61.889,45.541 L 60.518,50.114 L 59.832,52.172 L 60.975,53.544 L 63.719,58.117 L 60.746,60.403 L 61.661,61.546 L 63.033,63.604 L 62.118,65.662 L 61.432,67.034 L 59.374,70.006 L 56.173,73.207 L 55.03,74.579 L 54.344,75.036 L 51.372,76.866 L 48.4,73.436 L 48.171,73.207 L 44.284,74.122 L 42.912,71.607 L 38.797,66.805 L 38.339,65.433 L 36.739,62.69 L 36.51,62.004 L 35.824,59.717 L 35.596,58.803 L 35.596,58.803 L 35.596,58.574 L 36.053,58.345 L 36.51,57.66 L 36.967,56.974 L 36.967,56.974 L 37.196,56.516 L 37.425,56.288 L 38.111,55.602 L 38.339,55.373 Z" fill="rgba(59,130,246,0.25)" fill-rule="evenodd" stroke="rgba(59,130,246,0.9)" stroke-width="0.3" stroke-linejoin="round"/>
</svg>
