<svg xmlns="http://www.w3.org/2000/svg" width="100%" height="100%" viewBox="0 0 100 100" preserveAspectRatio="none">
  <path d="M 36.624,41.655 L 42.34,35.253 L 43.484,33.881 L 44.627,32.509 L 45.084,32.966 L 48.057,35.71 L 49.2,36.853 L 51.258,38.911 L 52.629,40.054 L 52.858,40.054 L 55.373,42.569 L 59.946,46.685 L 64.976,51.029 L 63.833,52.401 L 63.147,53.087 L 60.175,56.288 L 56.516,60.403 L 55.373,61.775 L 53.544,63.604 L 52.172,65.433 L 51.943,65.662 L 51.715,65.662 L 51.486,65.662 L 51.486,65.662 L 51.258,65.891 L 49.886,65.891 L 48.285,66.119 L 48.057,66.119 L 46.227,66.348 L 45.999,66.577 L 42.34,67.034 L 42.34,67.034 L 38.225,67.491 L 37.539,63.147 L 36.853,57.66 L 36.624,55.373 L 35.481,47.371 L 35.481,46.685 L 35.71,43.941 L 35.71,43.941 L 35.024,43.484 L 35.253,43.255 L 35.938,42.34 L 36.624,41.655 Z" fill="rgba(59,130,246,0.25)" fill-rule="evenodd" stroke="rgba(59,130,246,0.9)" stroke-width="0.3" stroke-linejoin="round"/>
</svg>
