<svg xmlns="http://www.w3.org/2000/svg" width="100%" height="100%" viewBox="0 0 100 100" preserveAspectRatio="none">
  <path d="M 69.092,51.829 L 67.034,56.173 L 64.976,60.289 L 64.976,60.518 L 63.604,63.261 L 62.918,64.404 L 60.861,63.49 L 56.059,60.975 L 50.8,58.46 L 48.285,57.317 L 43.484,54.801 L 41.655,53.887 L 40.054,52.972 L 37.996,52.058 L 36.396,51.372 L 30.908,48.628 L 31.137,47.942 L 31.366,47.485 L 32.28,45.427 L 33.423,43.141 L 33.423,43.141 L 34.795,39.94 L 36.853,35.596 L 36.853,35.596 L 37.31,35.824 L 48.057,41.312 L 48.514,41.54 L 54.23,44.284 L 55.144,44.741 L 61.089,47.714 L 62.461,48.4 L 67.034,50.686 L 69.092,51.829 Z" fill="rgba(59,130,246,0.25)" fill-rule="evenodd" stroke="rgba(59,130,246,0.9)" stroke-width="0.3" stroke-linejoin="round"/>
</svg>
