<svg xmlns="http://www.w3.org/2000/svg" width="100%" height="100%" viewBox="0 0 100 100" preserveAspectRatio="none">
  <path d="M 37.996,37.31 L 39.368,36.167 L 40.969,34.567 L 41.883,33.881 L 42.569,33.195 L 43.941,32.052 L 44.398,31.594 L 46.685,33.652 L 54.23,41.426 L 54.23,41.426 L 53.544,42.34 L 52.629,42.112 L 47.371,44.627 L 48.285,46.685 L 49.657,49.886 L 51.486,51.486 L 53.087,49.2 L 54.23,50.572 L 55.373,52.629 L 56.288,53.773 L 58.574,52.401 L 60.175,55.144 L 61.775,54.23 L 64.062,52.629 L 64.747,51.943 L 67.948,55.144 L 68.406,55.602 L 68.406,55.602 L 68.406,55.602 L 67.491,56.516 L 65.433,58.117 L 62.461,60.861 L 61.775,61.546 L 61.775,61.546 L 54.459,67.948 L 53.773,68.406 L 52.172,66.805 L 48.742,62.918 L 48.057,62.232 L 43.255,56.288 L 40.054,52.858 L 37.996,50.114 L 37.539,49.657 L 36.396,48.057 L 36.396,48.057 L 32.28,43.712 L 31.594,43.255 L 31.594,43.026 L 32.28,42.34 L 37.996,37.31 Z" fill="rgba(59,130,246,0.25)" fill-rule="evenodd" stroke="rgba(59,130,246,0.9)" stroke-width="0.3" stroke-linejoin="round"/>
</svg>
