<svg xmlns="http://www.w3.org/2000/svg" width="100%" height="100%" viewBox="0 0 100 100" preserveAspectRatio="none">
  <path d="M 59.146,34.224 L 59.374,34.681 L 59.374,36.51 L 59.832,43.141 L 59.832,43.141 L 60.06,44.513 L 60.06,46.113 L 60.06,46.342 L 60.518,50.457 L 60.518,50.686 L 60.518,51.6 L 60.746,56.402 L 61.432,64.404 L 60.975,64.404 L 50.457,65.319 L 44.284,65.776 L 43.369,65.776 L 43.369,63.719 L 43.369,63.719 L 42.912,58.917 L 42.455,54.344 L 42.455,52.515 L 42.455,52.286 L 42.226,51.372 L 41.083,48.171 L 38.797,42.455 L 38.568,41.769 L 40.168,41.083 L 41.083,40.626 L 42.455,39.94 L 42.455,39.94 L 44.741,39.254 L 47.714,38.111 L 47.714,38.111 L 49.085,37.653 L 50.915,36.967 L 50.915,36.967 L 53.201,36.281 L 53.201,36.053 L 56.173,35.138 L 57.545,34.452 L 58.46,34.224 L 59.146,34.224 L 59.146,34.224 Z" fill="rgba(59,130,246,0.25)" fill-rule="evenodd" stroke="rgba(59,130,246,0.9)" stroke-width="0.3" stroke-linejoin="round"/>
</svg>
