<svg xmlns="http://www.w3.org/2000/svg" width="100%" height="100%" viewBox="0 0 100 100" preserveAspectRatio="none">
  <path d="M 59.603,61.889 L 59.146,61.203 L 59.146,61.203 L 57.317,65.09 L 56.859,66.005 L 56.402,65.548 L 55.945,65.09 L 52.744,61.889 L 52.058,62.575 L 51.372,63.033 L 49.771,64.176 L 48.171,65.09 L 46.57,62.347 L 44.284,63.719 L 43.369,62.575 L 42.226,60.518 L 41.083,59.146 L 39.482,61.432 L 37.653,59.832 L 36.281,56.631 L 35.367,54.573 L 40.397,52.058 L 40.626,52.058 L 41.54,52.286 L 42.226,51.372 L 42.226,51.372 L 34.681,43.598 L 32.623,41.769 L 32.395,41.54 L 32.623,41.312 L 32.852,41.312 L 33.309,40.854 L 33.995,40.168 L 35.138,36.739 L 36.281,33.995 L 37.425,34.452 L 38.111,34.681 L 38.339,34.681 L 46.799,37.882 L 66.462,45.199 L 66.462,45.199 L 66.462,45.199 L 66.462,45.427 L 67.377,45.656 L 67.605,46.799 L 60.289,62.118 L 59.603,61.889 Z" fill="rgba(59,130,246,0.25)" fill-rule="evenodd" stroke="rgba(59,130,246,0.9)" stroke-width="0.3" stroke-linejoin="round"/>
</svg>
