<svg xmlns="http://www.w3.org/2000/svg" width="100%" height="100%" viewBox="0 0 100 100" preserveAspectRatio="none">
  <path d="M 49.886,67.148 L 49.886,67.148 L 46.456,65.548 L 43.941,64.404 L 43.941,64.404 L 38.911,62.347 L 38.911,62.118 L 37.31,61.661 L 37.31,61.432 L 37.539,60.746 L 37.996,60.289 L 39.139,57.545 L 39.825,56.173 L 40.511,54.344 L 40.511,54.344 L 41.197,52.744 L 41.197,52.744 L 43.484,47.714 L 45.541,42.912 L 45.999,41.998 L 47.828,37.653 L 50.114,32.852 L 50.114,32.852 L 51.486,33.538 L 52.858,34.224 L 53.544,34.452 L 53.544,34.452 L 56.059,35.596 L 56.059,35.596 L 58.803,36.739 L 58.803,36.739 L 60.403,37.425 L 62.69,38.568 L 62.69,38.568 L 61.318,41.54 L 60.175,43.598 L 58.803,46.799 L 58.117,48.628 L 56.974,51.143 L 56.745,51.829 L 53.773,58.231 L 53.544,59.146 L 50.8,64.862 L 49.886,67.148 Z" fill="rgba(59,130,246,0.25)" fill-rule="evenodd" stroke="rgba(59,130,246,0.9)" stroke-width="0.3" stroke-linejoin="round"/>
</svg>
