<svg xmlns="http://www.w3.org/2000/svg" width="100%" height="100%" viewBox="0 0 100 100" preserveAspectRatio="none">
  <path d="M 59.031,51.029 L 59.031,51.486 L 58.574,57.202 L 58.574,57.888 L 58.345,59.717 L 58.345,59.946 L 58.345,59.946 L 58.345,59.946 L 58.117,59.717 L 56.745,59.717 L 52.629,59.031 L 52.629,59.031 L 50.8,58.345 L 46.456,57.202 L 46.456,57.202 L 44.398,56.516 L 39.825,54.687 L 39.825,54.687 L 40.511,52.858 L 40.74,52.401 L 41.655,50.114 L 43.712,45.541 L 46.227,40.054 L 46.227,40.054 L 47.599,40.054 L 48.742,40.283 L 52.858,40.74 L 55.602,40.969 L 59.717,41.426 L 60.175,41.655 L 59.946,42.34 L 59.031,49.657 L 59.031,51.029 Z" fill="rgba(59,130,246,0.25)" fill-rule="evenodd" stroke="rgba(59,130,246,0.9)" stroke-width="0.3" stroke-linejoin="round"/>
</svg>
