<svg xmlns="http://www.w3.org/2000/svg" width="100%" height="100%" viewBox="0 0 100 100" preserveAspectRatio="none">
  <path d="M 60.975,55.602 L 60.746,55.83 L 57.088,57.66 L 55.945,58.117 L 55.03,58.803 L 54.344,59.489 L 54.116,59.489 L 52.972,60.632 L 51.829,61.775 L 50.457,63.147 L 49.543,63.833 L 48.857,63.833 L 48.857,62.918 L 48.857,62.461 L 48.628,61.318 L 48.4,59.489 L 48.171,58.345 L 47.714,56.516 L 47.028,55.144 L 46.57,54.001 L 46.113,53.544 L 45.884,52.858 L 44.97,51.943 L 43.827,50.8 L 42.455,49.428 L 42.455,49.428 L 41.769,48.742 L 40.626,47.599 L 40.168,47.142 L 39.711,46.456 L 39.254,44.856 L 39.025,43.712 L 39.025,43.026 L 39.025,42.112 L 39.254,41.655 L 39.94,40.969 L 41.312,40.283 L 42.226,39.825 L 44.284,39.597 L 45.427,39.368 L 46.57,39.139 L 51.143,38.225 L 51.143,38.225 L 53.43,37.768 L 54.801,37.539 L 55.945,37.31 L 56.402,37.31 L 56.402,37.31 L 57.317,36.624 L 58.231,36.167 L 58.231,37.082 L 58.46,38.682 L 59.146,44.398 L 59.374,44.627 L 60.289,52.401 L 60.746,54.916 L 60.975,55.602 Z" fill="rgba(59,130,246,0.25)" fill-rule="evenodd" stroke="rgba(59,130,246,0.9)" stroke-width="0.3" stroke-linejoin="round"/>
</svg>
