<svg xmlns="http://www.w3.org/2000/svg" width="100%" height="100%" viewBox="0 0 100 100" preserveAspectRatio="none">
  <path d="M 42.798,58.117 L 43.026,57.431 L 43.484,52.858 L 37.996,46.227 L 36.624,44.856 L 34.567,42.34 L 34.567,42.112 L 32.737,40.054 L 38.225,36.624 L 38.682,37.082 L 39.597,38.225 L 41.655,40.511 L 42.112,40.969 L 43.255,42.34 L 44.627,43.941 L 45.77,44.856 L 46.227,45.77 L 47.142,46.685 L 47.828,47.142 L 48.057,47.142 L 48.285,47.371 L 48.514,47.371 L 48.742,47.371 L 49.2,47.142 L 50.114,47.142 L 51.029,46.685 L 53.544,46.227 L 56.516,45.313 L 59.717,44.627 L 60.175,44.398 L 61.546,43.941 L 61.775,44.398 L 63.147,48.742 L 64.747,54.459 L 66.348,60.175 L 67.263,63.376 L 66.577,63.376 L 54.001,60.175 L 45.999,58.574 L 43.484,58.117 L 42.798,58.117 Z" fill="rgba(59,130,246,0.25)" fill-rule="evenodd" stroke="rgba(59,130,246,0.9)" stroke-width="0.3" stroke-linejoin="round"/>
</svg>
