<svg xmlns="http://www.w3.org/2000/svg" width="100%" height="100%" viewBox="0 0 100 100" preserveAspectRatio="none">
  <path d="M 31.251,68.863 L 31.251,68.634 L 32.852,66.348 L 33.766,64.976 L 40.397,52.858 L 43.827,46.227 L 55.03,25.65 L 60.518,15.132 L 62.804,16.504 L 61.661,16.275 L 50.457,36.853 L 48.857,39.825 L 47.942,51.943 L 47.942,51.943 L 52.515,43.255 L 59.603,45.999 L 58.231,50.8 L 64.176,48.514 L 68.749,49.428 L 68.063,51.486 L 67.605,53.315 L 67.377,54.687 L 66.691,56.059 L 65.776,57.202 L 64.862,58.345 L 61.889,62.918 L 61.661,63.376 L 61.432,63.833 L 60.518,64.747 L 57.088,68.863 L 57.088,69.092 L 55.945,70.235 L 55.03,70.692 L 52.972,72.293 L 47.256,75.265 L 46.799,75.951 L 46.57,75.951 L 46.113,76.637 L 45.427,77.551 L 43.827,80.524 L 42.455,82.81 L 41.769,83.953 L 41.312,84.868 L 39.254,81.21 L 34.681,74.122 L 33.309,72.064 L 32.395,70.692 L 31.251,68.863 Z" fill="rgba(59,130,246,0.25)" fill-rule="evenodd" stroke="rgba(59,130,246,0.9)" stroke-width="0.3" stroke-linejoin="round"/>
</svg>
