<svg xmlns="http://www.w3.org/2000/svg" width="100%" height="100%" viewBox="0 0 100 100" preserveAspectRatio="none">
  <path d="M 33.881,67.034 L 35.253,59.489 L 35.253,59.489 L 36.396,53.773 L 36.396,53.773 L 37.539,48.057 L 37.539,48.057 L 37.768,46.685 L 37.768,46.685 L 39.139,39.368 L 40.283,34.109 L 40.511,32.509 L 40.511,31.823 L 40.74,31.366 L 40.969,31.366 L 40.969,31.366 L 42.112,31.366 L 42.34,31.594 L 47.599,32.509 L 47.599,32.509 L 57.431,34.338 L 57.431,34.338 L 65.205,35.938 L 66.348,36.167 L 66.348,36.853 L 65.433,43.026 L 64.747,49.428 L 64.519,51.029 L 64.29,51.029 L 63.376,51.943 L 59.031,54.459 L 58.345,54.687 L 53.773,57.431 L 53.773,57.66 L 43.484,63.376 L 43.484,63.376 L 34.795,68.177 L 33.652,68.634 L 33.881,67.034 Z" fill="rgba(59,130,246,0.25)" fill-rule="evenodd" stroke="rgba(59,130,246,0.9)" stroke-width="0.3" stroke-linejoin="round"/>
</svg>
