<svg xmlns="http://www.w3.org/2000/svg" width="100%" height="100%" viewBox="0 0 100 100" preserveAspectRatio="none">
  <path d="M 47.714,74.236 L 46.113,73.779 L 39.711,71.035 L 36.281,69.663 L 36.053,69.663 L 33.08,68.291 L 33.08,68.291 L 33.08,68.291 L 37.882,57.545 L 39.254,54.801 L 44.513,42.912 L 48.171,34.452 L 50.686,28.05 L 51.6,25.764 L 51.6,25.764 L 54.573,26.907 L 54.801,26.907 L 61.203,29.422 L 66.92,31.937 L 66.691,32.623 L 65.09,36.51 L 58.688,49.771 L 52.058,46.57 L 51.6,47.485 L 44.97,44.513 L 41.083,53.43 L 39.254,57.317 L 43.369,59.374 L 45.199,60.06 L 45.427,60.289 L 45.427,60.746 L 52.286,63.947 L 50.915,67.377 L 50.915,67.377 L 48.4,72.864 L 47.714,74.236 L 47.714,74.236 Z" fill="rgba(59,130,246,0.25)" fill-rule="evenodd" stroke="rgba(59,130,246,0.9)" stroke-width="0.3" stroke-linejoin="round"/>
</svg>
