<svg xmlns="http://www.w3.org/2000/svg" width="100%" height="100%" viewBox="0 0 100 100" preserveAspectRatio="none">
  <path d="M 62.461,51.6 L 61.089,54.573 L 58.574,60.06 L 55.373,67.377 L 55.373,67.377 L 55.373,67.377 L 51.943,65.548 L 44.856,62.118 L 44.627,62.118 L 42.112,60.746 L 41.197,60.289 L 40.511,60.06 L 35.024,57.317 L 34.109,56.859 L 33.195,56.173 L 34.567,54.344 L 37.082,50.457 L 39.139,47.485 L 39.139,47.485 L 41.883,43.369 L 44.627,39.254 L 47.371,35.367 L 49.2,32.623 L 52.858,34.452 L 55.144,35.596 L 55.144,35.596 L 59.26,37.653 L 63.376,39.711 L 66.805,41.54 L 62.461,51.6 Z" fill="rgba(59,130,246,0.25)" fill-rule="evenodd" stroke="rgba(59,130,246,0.9)" stroke-width="0.3" stroke-linejoin="round"/>
</svg>
