<svg xmlns="http://www.w3.org/2000/svg" width="100%" height="100%" viewBox="0 0 100 100" preserveAspectRatio="none">
  <path d="M 57.317,47.828 L 58.688,48.514 L 64.862,51.715 L 67.148,52.858 L 66.691,53.315 L 66.234,54.001 L 66.005,54.23 L 65.776,54.459 L 55.487,59.717 L 54.801,60.175 L 48.857,63.147 L 47.485,64.062 L 46.113,61.089 L 44.513,54.459 L 44.055,51.258 L 43.827,50.114 L 43.827,49.657 L 42.912,47.828 L 39.711,42.569 L 38.568,40.74 L 37.882,38.911 L 36.967,38.225 L 36.053,37.539 L 33.08,36.396 L 32.852,36.396 L 33.08,36.167 L 33.08,35.938 L 33.08,35.938 L 36.281,37.31 L 39.482,39.139 L 40.168,39.368 L 47.256,42.798 L 48.857,43.712 L 50.915,44.627 L 54.116,46.227 L 57.317,47.828 Z" fill="rgba(59,130,246,0.25)" fill-rule="evenodd" stroke="rgba(59,130,246,0.9)" stroke-width="0.3" stroke-linejoin="round"/>
</svg>
