<svg xmlns="http://www.w3.org/2000/svg" width="100%" height="100%" viewBox="0 0 100 100" preserveAspectRatio="none">
  <path d="M 36.281,66.577 L 36.281,66.577 L 36.51,64.976 L 36.967,62.918 L 37.653,59.717 L 37.653,59.489 L 38.339,56.059 L 38.568,54.001 L 38.568,54.001 L 39.025,52.401 L 39.025,52.172 L 39.711,48.514 L 39.711,48.285 L 39.711,48.285 L 40.626,44.398 L 40.626,44.398 L 40.854,42.569 L 41.312,40.511 L 41.312,40.511 L 42.226,36.167 L 42.683,32.966 L 42.912,31.594 L 44.513,31.823 L 47.942,32.509 L 49.314,32.737 L 49.543,32.737 L 51.6,33.195 L 52.744,33.423 L 52.744,33.423 L 54.801,33.881 L 55.487,33.881 L 58.46,34.567 L 62.118,35.253 L 62.347,35.253 L 63.719,35.481 L 63.719,35.481 L 62.118,44.17 L 60.975,49.886 L 60.746,50.572 L 60.518,51.715 L 60.289,53.315 L 59.832,55.373 L 59.832,55.373 L 59.832,55.83 L 59.146,59.717 L 58.231,64.29 L 57.545,68.406 L 57.545,68.406 L 56.173,68.406 L 48.628,67.72 L 47.714,67.72 L 42.455,67.034 L 42.226,67.034 L 38.797,66.805 L 36.281,66.577 Z" fill="rgba(59,130,246,0.25)" fill-rule="evenodd" stroke="rgba(59,130,246,0.9)" stroke-width="0.3" stroke-linejoin="round"/>
</svg>
