<svg xmlns="http://www.w3.org/2000/svg" width="100%" height="100%" viewBox="0 0 100 100" preserveAspectRatio="none">
  <path d="M 57.545,22.106 L 57.774,25.535 L 58.002,28.279 L 58.231,28.965 L 58.688,34.224 L 59.146,41.54 L 60.06,51.372 L 60.746,59.832 L 61.203,66.005 L 61.889,71.95 L 61.889,72.178 L 56.859,73.55 L 52.972,74.693 L 52.744,74.922 L 52.744,74.922 L 52.515,74.922 L 45.656,76.98 L 42.683,77.894 L 41.998,71.95 L 41.083,61.889 L 39.025,36.053 L 38.797,32.623 L 38.111,23.477 L 41.083,23.249 L 44.741,23.02 L 44.97,23.02 L 47.028,23.02 L 47.256,23.02 L 51.143,22.792 L 51.143,22.792 L 51.372,22.792 L 53.201,22.563 L 53.43,22.563 L 54.344,22.563 L 57.088,22.106 L 57.088,22.334 L 56.402,22.334 L 51.372,22.792 L 50.229,22.792 L 51.372,22.792 L 57.545,22.106 Z" fill="rgba(59,130,246,0.25)" fill-rule="evenodd" stroke="rgba(59,130,246,0.9)" stroke-width="0.3" stroke-linejoin="round"/>
</svg>
