<svg xmlns="http://www.w3.org/2000/svg" width="100%" height="100%" viewBox="0 0 100 100" preserveAspectRatio="none">
  <path d="M 55.373,65.776 L 55.373,65.776 L 55.144,65.776 L 53.315,66.005 L 48.285,66.462 L 42.34,67.148 L 39.597,67.605 L 38.454,59.146 L 37.996,55.716 L 37.996,55.716 L 36.624,45.656 L 36.167,42.683 L 35.938,40.854 L 35.71,38.797 L 35.71,38.568 L 35.71,38.568 L 35.481,36.51 L 35.481,36.51 L 35.481,36.281 L 35.024,32.623 L 35.024,32.623 L 37.768,32.395 L 37.996,32.395 L 40.511,33.08 L 46.456,38.339 L 47.142,38.797 L 53.773,44.741 L 58.803,49.314 L 62.232,52.286 L 64.976,54.801 L 63.833,56.173 L 62.69,57.545 L 56.974,63.947 L 56.288,64.633 L 55.602,65.548 L 55.373,65.776 Z" fill="rgba(59,130,246,0.25)" fill-rule="evenodd" stroke="rgba(59,130,246,0.9)" stroke-width="0.3" stroke-linejoin="round"/>
</svg>
