<svg xmlns="http://www.w3.org/2000/svg" width="100%" height="100%" viewBox="0 0 100 100" preserveAspectRatio="none">
  <path d="M 60.518,43.712 L 62.118,44.398 L 71.721,47.599 L 71.721,47.599 L 70.806,49.657 L 70.121,51.715 L 69.435,51.486 L 70.121,51.715 L 70.121,52.172 L 69.435,53.773 L 68.063,57.888 L 66.005,64.062 L 66.005,64.29 L 57.088,61.089 L 53.43,59.717 L 40.626,55.373 L 40.626,55.373 L 35.824,54.001 L 32.166,52.629 L 30.108,52.172 L 28.279,51.715 L 29.651,50.343 L 29.879,50.114 L 32.395,44.856 L 35.367,37.768 L 35.367,37.539 L 36.739,35.71 L 45.427,38.682 L 50.0,40.283 L 53.658,41.426 L 58.917,43.255 L 60.518,43.712 Z" fill="rgba(59,130,246,0.25)" fill-rule="evenodd" stroke="rgba(59,130,246,0.9)" stroke-width="0.3" stroke-linejoin="round"/>
</svg>
