<svg xmlns="http://www.w3.org/2000/svg" width="100%" height="100%" viewBox="0 0 100 100" preserveAspectRatio="none">
  <path d="M 47.828,35.367 L 48.285,35.596 L 50.572,36.053 L 51.258,36.281 L 53.773,36.739 L 56.059,37.425 L 56.288,37.425 L 56.745,37.653 L 59.26,38.111 L 61.775,38.797 L 61.775,38.797 L 62.461,38.797 L 64.747,39.482 L 67.263,39.94 L 69.778,40.626 L 69.549,44.741 L 69.32,47.942 L 69.32,50.0 L 69.32,50.0 L 69.092,52.058 L 69.092,55.03 L 68.863,58.231 L 68.634,61.661 L 68.634,61.661 L 68.406,65.09 L 68.406,66.234 L 68.177,72.407 L 64.976,71.035 L 64.976,71.721 L 64.29,72.864 L 37.082,60.746 L 33.652,59.146 L 31.137,58.231 L 30.451,57.545 L 30.222,57.317 L 30.68,55.487 L 36.853,32.166 L 37.539,29.422 L 38.225,27.136 L 49.428,29.879 L 49.428,29.879 L 49.2,31.023 L 48.514,33.08 L 47.828,35.367 L 47.828,35.367 Z" fill="rgba(59,130,246,0.25)" fill-rule="evenodd" stroke="rgba(59,130,246,0.9)" stroke-width="0.3" stroke-linejoin="round"/>
</svg>
