<svg xmlns="http://www.w3.org/2000/svg" width="100%" height="100%" viewBox="0 0 100 100" preserveAspectRatio="none">
  <path d="M 52.858,31.937 L 53.315,32.395 L 54.001,33.766 L 56.288,40.626 L 57.888,45.427 L 59.26,48.857 L 59.031,49.085 L 59.031,50.0 L 58.803,52.058 L 58.803,52.058 L 58.574,52.744 L 58.574,53.658 L 58.574,53.658 L 58.117,54.801 L 56.745,57.317 L 56.059,58.917 L 55.602,59.603 L 54.916,60.518 L 54.001,61.432 L 53.315,62.118 L 53.315,62.118 L 51.486,63.49 L 50.343,64.176 L 46.685,66.234 L 45.084,67.148 L 43.484,68.063 L 43.255,67.377 L 42.798,64.862 L 41.883,57.088 L 41.655,56.859 L 40.969,51.143 L 40.74,49.543 L 40.74,48.628 L 40.74,48.628 L 42.112,47.256 L 43.255,45.884 L 43.712,44.97 L 46.456,41.312 L 48.514,38.339 L 52.172,33.309 L 52.858,31.937 Z" fill="rgba(59,130,246,0.25)" fill-rule="evenodd" stroke="rgba(59,130,246,0.9)" stroke-width="0.3" stroke-linejoin="round"/>
</svg>
