<svg xmlns="http://www.w3.org/2000/svg" width="100%" height="100%" viewBox="0 0 100 100" preserveAspectRatio="none">
  <path d="M 54.801,32.052 L 58.002,33.652 L 58.688,34.109 L 59.146,34.109 L 65.776,37.539 L 65.776,37.539 L 65.319,38.454 L 65.09,39.139 L 63.261,43.026 L 61.432,46.685 L 59.146,51.258 L 56.859,55.83 L 56.173,57.202 L 55.487,58.574 L 55.03,59.946 L 54.344,60.632 L 53.658,61.318 L 52.744,62.004 L 52.286,62.232 L 50.457,63.833 L 49.314,64.976 L 48.628,65.433 L 47.714,66.119 L 45.884,66.805 L 44.97,67.034 L 44.741,67.034 L 44.284,67.034 L 43.141,67.034 L 42.455,67.034 L 41.54,67.034 L 40.168,68.634 L 39.025,69.32 L 38.797,69.549 L 38.797,69.32 L 38.111,68.863 L 35.138,67.034 L 34.224,66.348 L 34.224,66.119 L 36.053,62.232 L 36.967,60.403 L 37.653,59.26 L 38.797,56.745 L 40.626,53.087 L 42.455,49.428 L 42.683,48.742 L 43.141,47.828 L 43.369,47.142 L 47.256,39.139 L 51.6,30.451 L 54.801,32.052 Z" fill="rgba(59,130,246,0.25)" fill-rule="evenodd" stroke="rgba(59,130,246,0.9)" stroke-width="0.3" stroke-linejoin="round"/>
</svg>
