<svg xmlns="http://www.w3.org/2000/svg" width="100%" height="100%" viewBox="0 0 100 100" preserveAspectRatio="none">
  <path d="M 36.053,69.549 L 33.08,68.863 L 29.422,67.948 L 29.422,67.263 L 30.108,67.491 L 32.166,67.263 L 37.196,68.177 L 38.797,68.634 L 39.025,68.634 L 40.626,69.092 L 41.312,68.634 L 43.369,67.72 L 47.485,61.775 L 47.485,61.775 L 47.485,61.546 L 47.714,61.318 L 47.942,61.318 L 47.942,61.089 L 48.171,60.861 L 48.171,60.632 L 48.4,60.403 L 48.4,60.403 L 48.628,60.175 L 48.628,60.175 L 48.857,59.946 L 48.857,59.717 L 49.085,59.489 L 49.314,59.489 L 49.314,59.26 L 49.543,59.031 L 49.543,58.803 L 49.771,58.803 L 50.0,58.574 L 50.0,58.574 L 50.0,58.574 L 50.0,58.574 L 50.0,58.345 L 50.229,58.117 L 50.457,58.117 L 50.457,57.888 L 50.686,57.66 L 50.915,57.431 L 50.915,57.431 L 51.143,57.202 L 51.372,56.974 L 51.372,56.974 L 51.372,56.745 L 52.286,55.83 L 53.201,54.916 L 53.887,53.773 L 54.801,52.401 L 55.487,51.029 L 55.945,49.886 L 56.402,48.742 L 56.859,47.142 L 57.317,45.77 L 57.317,44.398 L 57.545,43.026 L 57.545,41.426 L 57.545,41.426 L 57.545,40.054 L 57.317,38.682 L 57.088,37.539 L 56.859,36.167 L 56.859,36.167 L 56.631,35.253 L 56.631,35.253 L 56.631,35.024 L 56.402,34.795 L 56.402,34.567 L 56.402,34.567 L 56.402,34.338 L 56.402,34.109 L 56.173,33.881 L 56.173,33.881 L 56.173,33.652 L 56.173,33.423 L 56.173,33.423 L 56.173,33.195 L 56.173,32.966 L 56.173,32.737 L 55.945,32.509 L 55.945,32.28 L 55.945,32.28 L 55.945,32.28 L 55.945,32.28 L 55.945,32.052 L 55.945,31.823 L 55.945,31.823 L 55.945,31.594 L 55.945,31.366 L 55.945,31.137 L 55.945,31.137 L 55.945,30.908 L 55.945,30.908 L 55.945,30.68 L 55.945,30.451 L 55.945,30.222 L 55.945,29.994 L 55.945,29.994 L 55.945,29.994 L 55.945,29.994 L 55.945,29.994 L 55.945,29.765 L 55.945,29.536 L 56.173,29.308 L 56.173,29.079 L 56.173,29.079 L 56.173,28.851 L 56.173,27.936 L 55.259,26.107 L 55.716,26.335 L 55.716,26.335 L 56.402,26.564 L 58.002,27.021 L 57.774,27.25 L 57.545,27.936 L 57.545,28.165 L 57.317,28.851 L 57.317,29.308 L 65.319,31.823 L 65.776,32.966 L 66.462,34.109 L 66.462,34.567 L 67.148,36.853 L 67.377,37.082 L 69.892,38.682 L 69.892,38.682 L 70.578,39.139 L 70.349,39.597 L 70.121,40.054 L 69.892,40.511 L 68.749,42.569 L 67.148,44.856 L 66.462,45.541 L 66.005,46.227 L 65.319,46.913 L 64.633,47.599 L 68.52,48.742 L 67.148,52.172 L 64.404,51.258 L 64.862,51.943 L 65.319,52.401 L 65.548,53.087 L 63.261,53.773 L 61.661,54.23 L 60.289,53.773 L 59.374,53.087 L 58.46,53.544 L 57.088,54.23 L 55.259,59.031 L 53.201,64.519 L 52.972,65.433 L 52.744,65.433 L 52.058,67.491 L 51.143,70.692 L 49.771,73.893 L 49.085,73.665 L 43.827,72.064 L 40.854,71.149 L 40.626,71.149 L 40.626,71.149 L 36.281,69.549 L 36.053,69.549 Z" fill="rgba(59,130,246,0.25)" fill-rule="evenodd" stroke="rgba(59,130,246,0.9)" stroke-width="0.3" stroke-linejoin="round"/>
</svg>
