<svg xmlns="http://www.w3.org/2000/svg" width="100%" height="100%" viewBox="0 0 100 100" preserveAspectRatio="none">
  <path d="M 45.427,64.062 L 45.427,64.062 L 44.97,63.376 L 44.741,63.147 L 44.055,62.004 L 43.141,60.403 L 42.912,60.403 L 40.397,56.516 L 38.339,53.315 L 36.053,49.886 L 34.224,47.371 L 33.766,46.685 L 33.766,46.685 L 34.224,45.77 L 37.882,38.225 L 38.568,36.853 L 42.226,32.737 L 44.513,34.795 L 44.513,34.795 L 47.028,36.853 L 50.915,41.426 L 56.631,48.285 L 63.49,59.489 L 66.005,64.747 L 66.005,64.747 L 66.234,65.662 L 66.234,65.662 L 60.518,67.263 L 50.457,66.577 L 49.314,66.577 L 48.171,66.348 L 47.256,65.891 L 46.57,65.433 L 45.427,64.062 Z" fill="rgba(59,130,246,0.25)" fill-rule="evenodd" stroke="rgba(59,130,246,0.9)" stroke-width="0.3" stroke-linejoin="round"/>
</svg>
