<svg xmlns="http://www.w3.org/2000/svg" width="100%" height="100%" viewBox="0 0 100 100" preserveAspectRatio="none">
  <path d="M 34.738,83.382 L 34.852,82.925 L 35.081,82.353 L 39.197,68.177 L 38.511,70.578 L 39.997,65.319 L 40.226,64.976 L 40.568,63.604 L 41.026,62.232 L 42.169,58.117 L 42.855,56.059 L 43.998,51.829 L 44.57,49.886 L 44.227,51.143 L 45.942,45.313 L 46.056,45.199 L 48.571,41.54 L 48.685,41.312 L 48.8,41.197 L 51.086,37.768 L 50.972,37.882 L 51.543,37.082 L 53.372,34.338 L 57.717,27.822 L 62.518,20.619 L 65.262,16.618 L 65.262,16.618 L 56.459,34.681 L 41.483,67.948 L 34.738,83.382 Z" fill="rgba(59,130,246,0.25)" fill-rule="evenodd" stroke="rgba(59,130,246,0.9)" stroke-width="0.3" stroke-linejoin="round"/>
</svg>
