<svg xmlns="http://www.w3.org/2000/svg" width="100%" height="100%" viewBox="0 0 100 100" preserveAspectRatio="none">
  <path d="M 39.025,51.258 L 38.797,50.114 L 39.482,49.428 L 41.312,48.742 L 44.055,48.514 L 45.884,49.428 L 47.256,50.114 L 47.942,50.343 L 47.942,50.114 L 48.171,49.886 L 48.171,49.657 L 48.4,49.657 L 48.4,49.2 L 50.229,44.17 L 50.457,43.026 L 52.515,39.597 L 52.286,39.139 L 53.201,36.853 L 53.201,36.853 L 54.344,37.31 L 57.088,38.454 L 62.347,40.511 L 62.347,40.511 L 61.889,42.569 L 59.832,51.715 L 58.917,54.916 L 58.917,55.373 L 58.917,55.373 L 58.917,55.373 L 57.774,59.489 L 56.859,63.147 L 56.859,63.147 L 56.859,63.147 L 54.116,62.461 L 45.884,60.403 L 45.427,60.403 L 43.598,59.946 L 42.226,59.489 L 42.226,59.489 L 40.626,58.574 L 38.111,56.974 L 37.653,56.516 L 37.653,56.516 L 37.653,55.83 L 37.882,55.602 L 39.711,54.001 L 40.626,53.315 L 39.025,51.486 L 39.025,51.486 L 39.025,51.258 Z" fill="rgba(59,130,246,0.25)" fill-rule="evenodd" stroke="rgba(59,130,246,0.9)" stroke-width="0.3" stroke-linejoin="round"/>
</svg>
