<svg xmlns="http://www.w3.org/2000/svg" width="100%" height="100%" viewBox="0 0 100 100" preserveAspectRatio="none">
  <path d="M 65.776,34.91 L 65.548,35.596 L 65.319,36.281 L 63.719,39.482 L 62.804,41.769 L 61.889,43.598 L 60.975,45.656 L 60.518,46.799 L 59.832,48.4 L 59.832,48.4 L 57.545,54.344 L 55.716,58.002 L 55.487,58.46 L 53.43,63.261 L 53.201,63.49 L 50.457,70.578 L 50.0,71.721 L 48.4,71.035 L 44.513,69.435 L 44.513,69.435 L 44.284,69.435 L 34.224,64.862 L 34.452,64.404 L 34.91,63.719 L 36.053,60.746 L 38.111,55.945 L 38.111,55.716 L 38.339,55.259 L 39.482,52.972 L 39.711,52.286 L 40.854,49.543 L 41.312,48.4 L 42.226,46.342 L 42.912,44.741 L 44.284,41.769 L 44.97,39.94 L 46.113,37.425 L 47.028,35.367 L 47.256,34.91 L 49.543,29.651 L 49.771,28.965 L 50.0,28.279 L 51.6,28.965 L 56.859,31.251 L 56.859,31.251 L 58.231,31.937 L 60.289,32.623 L 60.289,32.623 L 60.289,32.623 L 61.889,33.309 L 61.889,33.309 L 65.776,34.91 Z" fill="rgba(59,130,246,0.25)" fill-rule="evenodd" stroke="rgba(59,130,246,0.9)" stroke-width="0.3" stroke-linejoin="round"/>
</svg>
