<svg xmlns="http://www.w3.org/2000/svg" width="100%" height="100%" viewBox="0 0 100 100" preserveAspectRatio="none">
  <path d="M 41.083,51.372 L 44.284,44.513 L 50.229,30.565 L 50.686,30.108 L 53.201,31.251 L 57.774,33.08 L 64.176,36.053 L 62.804,39.482 L 61.889,41.083 L 61.889,41.312 L 60.975,43.141 L 60.975,43.141 L 59.832,46.113 L 59.603,46.113 L 57.317,51.829 L 57.088,51.829 L 55.03,56.631 L 49.543,69.206 L 49.085,69.892 L 47.485,68.977 L 47.256,68.977 L 43.598,67.148 L 43.141,66.92 L 38.568,64.633 L 35.824,63.49 L 35.824,63.261 L 38.568,64.633 L 41.312,66.005 L 38.568,64.633 L 35.824,63.261 L 35.824,63.261 L 35.824,63.261 L 36.967,60.746 L 39.94,54.344 L 41.083,51.372 Z" fill="rgba(59,130,246,0.25)" fill-rule="evenodd" stroke="rgba(59,130,246,0.9)" stroke-width="0.3" stroke-linejoin="round"/>
</svg>
