<svg xmlns="http://www.w3.org/2000/svg" width="100%" height="100%" viewBox="0 0 100 100" preserveAspectRatio="none">
  <path d="M 51.372,28.393 L 53.43,29.308 L 55.259,30.222 L 57.088,31.137 L 60.06,32.509 L 60.746,32.966 L 61.432,33.423 L 66.462,35.71 L 62.118,44.398 L 58.231,52.401 L 58.002,53.087 L 57.545,54.001 L 57.317,54.687 L 55.487,58.345 L 53.658,62.004 L 52.515,64.519 L 51.829,65.662 L 50.915,67.491 L 49.085,71.378 L 49.085,71.607 L 47.714,70.692 L 44.284,67.948 L 41.769,65.891 L 41.083,65.433 L 39.025,63.604 L 38.797,63.376 L 38.568,63.147 L 36.51,61.546 L 36.281,61.318 L 34.224,59.489 L 33.538,59.031 L 33.766,58.803 L 34.91,57.202 L 35.138,56.974 L 36.281,55.602 L 37.653,53.773 L 37.882,53.544 L 38.568,51.943 L 39.711,50.343 L 40.626,48.742 L 41.54,47.142 L 42.455,45.999 L 42.455,45.77 L 43.369,44.398 L 44.284,42.798 L 44.284,42.34 L 44.741,41.883 L 45.199,40.969 L 45.884,39.597 L 46.57,38.225 L 47.485,36.167 L 48.171,34.795 L 48.628,34.109 L 49.543,32.28 L 50.686,29.994 L 50.915,29.079 L 51.372,28.393 Z" fill="rgba(59,130,246,0.25)" fill-rule="evenodd" stroke="rgba(59,130,246,0.9)" stroke-width="0.3" stroke-linejoin="round"/>
</svg>
