<svg xmlns="http://www.w3.org/2000/svg" width="100%" height="100%" viewBox="0 0 100 100" preserveAspectRatio="none">
  <path d="M 58.46,59.832 L 53.887,62.575 L 53.887,62.575 L 50.229,64.633 L 50.229,64.633 L 47.028,59.374 L 46.799,58.688 L 46.57,58.46 L 43.598,53.201 L 43.141,52.744 L 43.141,52.744 L 40.168,47.714 L 37.425,42.683 L 38.797,41.769 L 42.226,39.711 L 43.827,38.797 L 47.714,36.51 L 49.771,35.367 L 50.229,36.053 L 53.201,41.083 L 53.887,42.683 L 54.116,42.912 L 55.945,45.884 L 58.688,50.915 L 59.146,51.6 L 62.118,56.631 L 62.575,57.317 L 62.347,57.545 L 58.46,59.832 Z" fill="rgba(59,130,246,0.25)" fill-rule="evenodd" stroke="rgba(59,130,246,0.9)" stroke-width="0.3" stroke-linejoin="round"/>
</svg>
