<svg xmlns="http://www.w3.org/2000/svg" width="100%" height="100%" viewBox="0 0 100 100" preserveAspectRatio="none">
  <path d="M 48.4,71.721 L 43.141,69.435 L 41.998,68.977 L 36.053,66.234 L 34.91,65.776 L 34.91,65.776 L 36.51,62.118 L 37.425,60.06 L 38.568,57.088 L 39.94,54.116 L 41.083,51.372 L 41.54,50.686 L 44.284,44.284 L 45.427,41.769 L 45.656,41.312 L 47.028,38.111 L 47.942,36.053 L 50.457,30.337 L 51.372,28.279 L 52.744,28.736 L 56.173,30.337 L 58.917,31.48 L 58.917,31.48 L 58.917,31.48 L 58.917,31.48 L 61.661,32.852 L 61.889,32.852 L 61.889,32.852 L 64.633,33.995 L 64.862,34.224 L 65.09,34.224 L 65.09,34.224 L 64.862,34.91 L 64.633,34.91 L 61.203,43.141 L 59.832,46.113 L 57.317,51.6 L 55.945,54.573 L 55.945,54.573 L 55.03,56.859 L 55.03,56.859 L 52.972,61.432 L 52.972,61.432 L 50.457,67.148 L 50.457,67.148 L 48.857,70.806 L 48.4,71.721 Z" fill="rgba(59,130,246,0.25)" fill-rule="evenodd" stroke="rgba(59,130,246,0.9)" stroke-width="0.3" stroke-linejoin="round"/>
</svg>
