<svg xmlns="http://www.w3.org/2000/svg" width="100%" height="100%" viewBox="0 0 100 100" preserveAspectRatio="none">
  <path d="M 59.031,60.175 L 58.803,60.403 L 48.285,63.376 L 47.371,63.604 L 47.142,62.461 L 46.913,62.232 L 46.913,61.775 L 46.227,59.717 L 45.313,56.974 L 45.084,56.288 L 44.856,55.144 L 43.941,51.943 L 43.712,51.486 L 43.484,51.029 L 43.484,50.8 L 43.484,50.572 L 43.255,50.572 L 43.255,50.114 L 42.798,48.971 L 42.34,48.057 L 42.34,47.599 L 42.112,47.142 L 42.112,46.913 L 42.112,46.456 L 42.112,45.084 L 41.883,44.627 L 41.655,43.941 L 41.197,42.34 L 40.969,41.655 L 40.969,40.969 L 40.969,40.511 L 41.197,39.825 L 41.197,39.597 L 41.197,38.682 L 41.197,38.682 L 41.426,37.082 L 41.426,36.853 L 41.426,36.396 L 42.569,36.853 L 45.541,37.31 L 47.142,37.539 L 51.029,36.853 L 51.029,37.31 L 51.029,37.31 L 51.943,38.682 L 52.172,39.139 L 52.629,40.054 L 53.087,41.197 L 53.773,42.569 L 54.23,42.798 L 54.23,43.026 L 54.23,43.026 L 55.144,44.17 L 55.602,45.084 L 55.83,45.541 L 56.516,47.371 L 56.974,49.2 L 57.66,54.459 L 57.888,54.916 L 58.803,59.031 L 58.803,59.031 L 59.031,60.175 Z" fill="rgba(59,130,246,0.25)" fill-rule="evenodd" stroke="rgba(59,130,246,0.9)" stroke-width="0.3" stroke-linejoin="round"/>
</svg>
