<svg xmlns="http://www.w3.org/2000/svg" width="100%" height="100%" viewBox="0 0 100 100" preserveAspectRatio="none">
  <path d="M 36.853,70.921 L 37.31,66.577 L 37.539,61.775 L 37.996,58.574 L 38.225,56.288 L 38.454,53.544 L 38.911,51.029 L 39.368,49.428 L 40.054,47.371 L 40.969,44.398 L 41.655,43.026 L 41.655,43.026 L 44.398,38.911 L 44.627,38.225 L 48.285,33.881 L 51.486,30.68 L 54.23,28.622 L 57.202,26.793 L 59.946,24.964 L 60.403,26.335 L 60.632,26.564 L 60.632,27.25 L 61.318,31.594 L 62.004,35.938 L 62.004,36.624 L 62.004,37.996 L 62.232,38.682 L 62.69,40.054 L 63.604,41.655 L 62.461,43.026 L 62.232,42.34 L 60.861,39.597 L 60.861,39.597 L 59.031,36.167 L 49.886,48.742 L 48.742,50.572 L 47.828,51.486 L 57.888,58.803 L 57.431,60.403 L 56.974,62.69 L 56.516,62.69 L 53.773,63.376 L 53.773,63.833 L 54.459,65.891 L 54.687,66.805 L 54.916,68.406 L 54.916,68.863 L 55.144,69.092 L 54.916,69.32 L 54.001,70.235 L 53.773,70.692 L 53.773,70.692 L 52.858,72.064 L 51.715,72.979 L 51.258,73.207 L 50.8,73.436 L 50.114,73.436 L 47.371,73.893 L 44.856,74.35 L 44.627,74.35 L 42.569,74.35 L 41.883,74.579 L 37.996,75.036 L 36.396,75.036 L 36.624,73.436 L 36.853,71.835 L 36.853,70.921 Z" fill="rgba(59,130,246,0.25)" fill-rule="evenodd" stroke="rgba(59,130,246,0.9)" stroke-width="0.3" stroke-linejoin="round"/>
</svg>
