<svg xmlns="http://www.w3.org/2000/svg" width="100%" height="100%" viewBox="0 0 100 100" preserveAspectRatio="none">
  <path d="M 77.666,34.795 L 77.666,35.71 L 77.666,35.938 L 77.666,35.938 L 77.666,36.167 L 77.437,36.396 L 77.437,36.624 L 77.437,36.853 L 77.437,36.853 L 77.437,36.853 L 77.437,36.853 L 77.437,36.853 L 77.437,37.082 L 77.437,37.31 L 77.437,37.539 L 77.437,37.768 L 77.437,37.768 L 77.437,37.996 L 77.437,37.996 L 77.437,38.225 L 77.437,38.454 L 77.437,38.682 L 77.437,38.682 L 77.437,38.911 L 77.437,39.139 L 77.437,39.139 L 77.437,39.139 L 77.437,39.139 L 77.437,39.368 L 77.666,39.597 L 77.666,39.825 L 77.666,40.054 L 77.666,40.283 L 77.666,40.283 L 77.666,40.511 L 77.666,40.74 L 77.666,40.74 L 77.894,40.969 L 77.894,41.197 L 77.894,41.426 L 77.894,41.426 L 77.894,41.655 L 78.123,41.883 L 78.123,42.112 L 78.123,42.112 L 78.352,43.026 L 78.352,43.026 L 78.58,44.398 L 78.809,45.541 L 79.038,46.913 L 79.038,48.285 L 79.038,48.285 L 79.038,49.886 L 78.809,51.258 L 78.809,52.629 L 78.352,54.001 L 77.894,55.602 L 77.437,56.745 L 76.98,57.888 L 76.294,59.26 L 75.379,60.632 L 74.693,61.775 L 73.779,62.69 L 72.864,63.604 L 72.864,63.833 L 72.864,63.833 L 72.636,64.062 L 72.407,64.29 L 72.407,64.29 L 72.178,64.519 L 71.95,64.747 L 71.95,64.976 L 71.721,64.976 L 71.492,65.205 L 71.492,65.433 L 71.492,65.433 L 71.492,65.433 L 71.492,65.433 L 71.264,65.662 L 71.035,65.662 L 71.035,65.891 L 70.806,66.119 L 70.806,66.348 L 70.578,66.348 L 70.349,66.577 L 70.349,66.805 L 70.121,67.034 L 70.121,67.034 L 69.892,67.263 L 69.892,67.263 L 69.663,67.491 L 69.663,67.72 L 69.435,67.948 L 69.435,68.177 L 69.206,68.177 L 68.977,68.406 L 68.977,68.634 L 68.977,68.634 L 64.862,74.579 L 62.804,75.494 L 62.118,75.951 L 60.518,75.494 L 60.289,75.494 L 58.688,75.036 L 53.658,74.122 L 51.6,74.35 L 50.915,74.122 L 51.372,72.064 L 51.829,72.064 L 53.658,71.835 L 51.829,72.064 L 50.915,71.835 L 51.372,72.064 L 50.915,74.122 L 50.686,74.122 L 48.857,73.893 L 44.97,73.436 L 43.598,73.207 L 42.226,72.979 L 39.711,72.293 L 39.482,72.064 L 39.025,72.064 L 37.882,71.835 L 35.367,71.835 L 33.766,71.607 L 31.48,68.863 L 31.48,67.034 L 31.709,63.604 L 32.395,56.288 L 31.937,62.461 L 33.766,62.461 L 34.224,56.516 L 34.452,52.172 L 33.08,50.343 L 28.965,49.886 L 25.307,49.657 L 24.849,49.428 L 21.42,49.2 L 20.962,49.2 L 21.191,36.396 L 24.392,32.737 L 26.45,30.222 L 27.593,29.079 L 30.108,26.335 L 31.709,24.506 L 32.166,24.049 L 32.395,24.049 L 32.852,24.278 L 34.452,24.735 L 36.739,24.964 L 36.739,24.964 L 40.626,25.65 L 45.884,26.335 L 46.342,26.335 L 47.256,26.335 L 47.714,26.335 L 47.714,26.335 L 51.143,26.793 L 53.887,27.479 L 54.801,27.479 L 57.317,27.936 L 59.603,28.393 L 59.832,28.393 L 60.746,28.622 L 65.776,29.994 L 67.605,30.451 L 67.605,30.451 L 70.349,31.137 L 72.636,31.823 L 72.636,31.823 L 76.523,32.966 L 76.751,32.966 L 77.666,34.795 Z" fill="rgba(59,130,246,0.25)" fill-rule="evenodd" stroke="rgba(59,130,246,0.9)" stroke-width="0.3" stroke-linejoin="round"/>
</svg>
