<svg xmlns="http://www.w3.org/2000/svg" width="100%" height="100%" viewBox="0 0 100 100" preserveAspectRatio="none">
  <path d="M 57.545,40.511 L 57.774,41.197 L 58.46,44.398 L 59.603,48.514 L 60.518,52.401 L 61.432,55.144 L 61.661,56.059 L 60.289,56.516 L 59.832,56.745 L 56.631,57.431 L 53.658,58.345 L 51.143,58.803 L 50.229,59.26 L 49.314,59.26 L 48.857,59.489 L 48.628,59.489 L 48.4,59.489 L 48.171,59.26 L 47.942,59.26 L 47.256,58.803 L 46.342,57.888 L 45.884,56.974 L 44.741,56.059 L 43.369,54.459 L 42.226,53.087 L 41.769,52.629 L 39.711,50.343 L 38.797,49.2 L 38.339,48.742 L 38.797,48.285 L 39.254,48.057 L 41.083,46.685 L 41.54,46.456 L 44.513,44.627 L 46.113,43.712 L 47.942,43.255 L 52.286,41.883 L 52.744,41.883 L 55.716,40.969 L 56.631,40.74 L 57.545,40.511 Z" fill="rgba(59,130,246,0.25)" fill-rule="evenodd" stroke="rgba(59,130,246,0.9)" stroke-width="0.3" stroke-linejoin="round"/>
</svg>
