<svg xmlns="http://www.w3.org/2000/svg" width="100%" height="100%" viewBox="0 0 100 100" preserveAspectRatio="none">
  <path d="M 55.03,68.177 L 48.4,65.433 L 48.171,65.205 L 48.171,65.205 L 42.455,62.69 L 42.226,62.69 L 36.739,60.175 L 36.739,59.489 L 37.882,52.858 L 39.025,46.913 L 39.025,46.913 L 40.168,41.197 L 40.168,41.197 L 40.168,40.74 L 41.083,35.938 L 41.54,32.509 L 41.998,31.366 L 41.998,31.366 L 41.998,31.366 L 47.942,31.823 L 48.171,31.823 L 54.344,32.509 L 61.889,33.195 L 63.261,33.195 L 63.261,33.195 L 60.746,45.77 L 59.832,50.8 L 57.774,61.089 L 56.402,68.634 L 55.03,68.177 Z" fill="rgba(59,130,246,0.25)" fill-rule="evenodd" stroke="rgba(59,130,246,0.9)" stroke-width="0.3" stroke-linejoin="round"/>
</svg>
