<svg xmlns="http://www.w3.org/2000/svg" width="100%" height="100%" viewBox="0 0 100 100" preserveAspectRatio="none">
  <path d="M 45.313,55.83 L 45.77,54.687 L 44.856,48.514 L 43.941,41.197 L 42.798,31.594 L 41.655,23.363 L 40.511,15.132 L 40.511,13.989 L 44.856,13.303 L 49.2,12.617 L 50.114,12.388 L 54.459,11.931 L 56.288,11.702 L 58.117,39.368 L 58.345,40.74 L 58.803,41.883 L 59.26,54.001 L 54.459,54.687 L 54.459,54.687 L 54.687,56.059 L 59.489,88.298 L 59.26,87.154 L 58.803,83.267 L 58.574,82.582 L 57.888,77.323 L 57.66,75.494 L 57.202,72.979 L 56.745,70.006 L 56.516,68.634 L 56.288,68.177 L 56.059,67.034 L 55.83,65.205 L 55.373,62.232 L 54.916,58.803 L 54.916,57.888 L 54.687,56.516 L 54.459,55.602 L 54.23,54.687 L 52.858,54.916 L 45.77,55.83 L 45.313,55.83 Z" fill="rgba(59,130,246,0.25)" fill-rule="evenodd" stroke="rgba(59,130,246,0.9)" stroke-width="0.3" stroke-linejoin="round"/>
</svg>
