<svg xmlns="http://www.w3.org/2000/svg" width="100%" height="100%" viewBox="0 0 100 100" preserveAspectRatio="none">
  <path d="M 56.402,74.35 L 45.199,70.692 L 34.224,67.034 L 33.995,65.662 L 33.538,64.29 L 29.879,59.031 L 29.879,57.888 L 31.251,54.23 L 33.08,49.657 L 33.08,49.657 L 33.309,48.971 L 33.995,46.913 L 35.367,43.484 L 36.739,39.597 L 36.967,39.139 L 37.196,38.454 L 37.425,37.768 L 38.111,35.71 L 38.797,33.652 L 40.168,29.994 L 41.083,27.479 L 41.312,26.564 L 41.769,25.421 L 41.769,25.421 L 42.683,25.65 L 50.915,28.393 L 50.915,28.622 L 61.432,32.28 L 62.347,32.509 L 64.862,33.423 L 59.603,37.082 L 56.402,40.969 L 65.776,55.83 L 68.063,59.489 L 70.121,61.546 L 69.892,61.546 L 69.435,62.004 L 68.977,62.461 L 65.548,65.662 L 65.09,66.119 L 63.719,67.491 L 60.746,70.235 L 57.774,73.207 L 57.545,73.665 L 56.859,74.579 L 56.402,74.35 Z" fill="rgba(59,130,246,0.25)" fill-rule="evenodd" stroke="rgba(59,130,246,0.9)" stroke-width="0.3" stroke-linejoin="round"/>
</svg>
