<svg xmlns="http://www.w3.org/2000/svg" width="100%" height="100%" viewBox="0 0 100 100" preserveAspectRatio="none">
  <path d="M 36.281,62.69 L 37.653,59.26 L 37.882,58.574 L 41.998,49.428 L 43.598,45.77 L 44.97,42.569 L 46.342,39.597 L 48.628,34.567 L 50.229,30.908 L 51.372,31.594 L 51.6,31.594 L 55.03,33.195 L 60.289,35.253 L 60.289,35.253 L 61.661,35.938 L 62.575,36.396 L 63.719,37.082 L 60.289,44.856 L 56.631,53.087 L 56.631,53.087 L 52.972,61.089 L 52.972,61.318 L 52.972,61.546 L 49.771,68.406 L 49.543,69.092 L 49.543,69.092 L 43.598,66.119 L 43.369,66.119 L 37.653,63.376 L 37.425,63.147 L 36.281,62.69 Z" fill="rgba(59,130,246,0.25)" fill-rule="evenodd" stroke="rgba(59,130,246,0.9)" stroke-width="0.3" stroke-linejoin="round"/>
</svg>
