<svg xmlns="http://www.w3.org/2000/svg" width="100%" height="100%" viewBox="0 0 100 100" preserveAspectRatio="none">
  <path d="M 42.798,43.026 L 53.773,38.454 L 63.376,34.567 L 63.604,34.795 L 63.147,35.024 L 63.604,34.795 L 66.805,44.17 L 66.577,44.17 L 67.263,45.999 L 67.263,47.599 L 67.72,48.057 L 68.863,50.8 L 66.348,51.943 L 64.747,52.629 L 63.376,53.315 L 58.803,55.373 L 55.602,56.974 L 50.8,59.489 L 46.685,60.861 L 45.541,61.318 L 43.255,62.004 L 40.74,62.461 L 36.853,63.147 L 35.71,63.604 L 35.253,63.833 L 33.881,64.519 L 33.652,64.519 L 32.509,65.433 L 33.423,47.142 L 31.137,47.828 L 31.137,47.599 L 42.798,43.026 Z M 64.747,40.054 L 62.918,41.197 L 63.147,40.969 L 64.747,40.054 Z" fill="rgba(59,130,246,0.25)" fill-rule="evenodd" stroke="rgba(59,130,246,0.9)" stroke-width="0.3" stroke-linejoin="round"/>
</svg>
