<svg xmlns="http://www.w3.org/2000/svg" width="100%" height="100%" viewBox="0 0 100 100" preserveAspectRatio="none">
  <path d="M 26.221,71.492 L 27.822,62.118 L 29.194,54.344 L 29.651,50.229 L 30.337,49.771 L 36.281,45.427 L 37.196,44.741 L 52.286,33.538 L 52.286,33.538 L 56.859,30.108 L 61.661,26.678 L 61.661,26.678 L 61.661,26.678 L 74.007,38.797 L 70.806,41.312 L 68.977,42.683 L 67.377,43.827 L 67.148,44.055 L 65.319,45.427 L 62.804,47.256 L 62.804,47.256 L 58.231,50.457 L 53.43,54.116 L 48.4,47.256 L 46.113,48.857 L 41.769,42.912 L 33.766,48.857 L 29.879,55.259 L 27.822,66.005 L 27.822,66.005 L 27.136,68.977 L 26.221,73.322 L 25.993,73.322 L 26.221,71.492 Z" fill="rgba(59,130,246,0.25)" fill-rule="evenodd" stroke="rgba(59,130,246,0.9)" stroke-width="0.3" stroke-linejoin="round"/>
</svg>
