<svg xmlns="http://www.w3.org/2000/svg" width="100%" height="100%" viewBox="0 0 100 100" preserveAspectRatio="none">
  <path d="M 55.716,59.489 L 50.229,65.433 L 50.229,65.433 L 46.342,69.778 L 44.284,67.72 L 37.653,61.775 L 37.196,61.318 L 36.51,60.861 L 35.596,59.946 L 31.937,56.745 L 31.023,56.059 L 31.48,55.602 L 31.709,55.373 L 31.937,54.916 L 33.995,52.629 L 35.824,50.343 L 36.053,50.343 L 36.281,50.114 L 39.482,46.227 L 40.168,45.541 L 43.141,42.112 L 44.741,40.283 L 45.199,39.825 L 49.085,34.795 L 52.744,30.222 L 54.801,32.052 L 55.487,32.966 L 58.002,35.024 L 58.002,35.024 L 60.518,37.31 L 66.691,42.798 L 68.977,44.856 L 63.49,50.8 L 58.46,56.516 L 55.716,59.489 Z" fill="rgba(59,130,246,0.25)" fill-rule="evenodd" stroke="rgba(59,130,246,0.9)" stroke-width="0.3" stroke-linejoin="round"/>
</svg>
