<svg xmlns="http://www.w3.org/2000/svg" width="100%" height="100%" viewBox="0 0 100 100" preserveAspectRatio="none">
  <path d="M 58.117,62.918 L 44.17,77.78 L 40.969,77.78 L 31.137,76.408 L 34.567,76.866 L 31.137,76.408 L 32.509,70.006 L 34.338,65.433 L 35.253,62.232 L 36.853,59.26 L 36.853,58.117 L 40.054,54.001 L 40.511,53.087 L 42.569,48.971 L 45.313,44.856 L 45.999,44.17 L 51.486,37.996 L 55.83,32.28 L 56.745,28.851 L 58.803,22.22 L 63.833,34.567 L 68.863,45.541 L 57.431,57.66 L 57.202,58.803 L 55.83,60.403 L 58.117,62.918 Z M 58.574,25.192 L 60.175,27.25 L 61.546,29.079 L 58.574,25.192 Z M 39.139,55.144 L 43.484,57.202 L 42.112,56.516 L 39.139,55.144 Z" fill="rgba(59,130,246,0.25)" fill-rule="evenodd" stroke="rgba(59,130,246,0.9)" stroke-width="0.3" stroke-linejoin="round"/>
</svg>
