<svg xmlns="http://www.w3.org/2000/svg" width="100%" height="100%" viewBox="0 0 100 100" preserveAspectRatio="none">
  <path d="M 70.692,46.628 L 70.006,47.085 L 68.063,49.371 L 67.72,49.829 L 70.349,52.458 L 70.692,54.401 L 70.235,54.859 L 69.435,55.43 L 69.092,56.573 L 68.863,57.145 L 68.634,57.945 L 68.177,58.403 L 67.72,60.803 L 64.633,62.747 L 63.947,75.894 L 67.948,82.524 L 70.464,86.068 L 70.921,86.068 L 70.921,86.068 L 70.921,86.068 L 70.464,88.926 L 70.235,90.641 L 70.235,90.641 L 70.235,90.641 L 58.002,85.268 L 50.8,82.181 L 32.052,73.95 L 26.907,71.664 L 26.907,71.664 L 25.993,71.207 L 19.362,68.234 L 19.248,68.234 L 19.248,68.234 L 15.361,66.405 L 15.361,66.405 L 16.047,64.919 L 16.39,63.89 L 16.504,63.776 L 16.847,62.633 L 17.304,61.604 L 17.876,60.46 L 19.019,57.945 L 19.133,57.945 L 19.248,57.488 L 19.476,57.031 L 19.819,56.231 L 20.276,54.859 L 20.276,54.859 L 21.191,52.572 L 21.648,51.429 L 22.106,50.286 L 22.334,49.943 L 23.592,50.629 L 23.592,50.629 L 26.907,52.687 L 27.479,53.03 L 27.479,53.03 L 28.05,53.144 L 28.279,53.258 L 28.851,53.487 L 29.422,53.715 L 32.852,55.659 L 35.138,56.916 L 36.624,57.831 L 37.539,57.717 L 37.539,57.717 L 39.482,57.374 L 42.112,56.916 L 43.598,56.573 L 44.398,56.345 L 44.513,56.345 L 45.656,56.002 L 47.028,55.43 L 48.057,55.087 L 49.771,54.058 L 51.943,52.801 L 53.658,51.658 L 54.116,51.315 L 54.116,51.315 L 54.459,51.086 L 54.801,50.629 L 55.259,49.943 L 55.373,49.6 L 55.83,48.685 L 56.059,47.656 L 56.288,47.199 L 56.631,45.599 L 57.088,43.655 L 57.088,43.541 L 57.202,43.084 L 56.288,41.826 L 54.916,40.568 L 54.001,39.654 L 53.43,39.082 L 52.972,38.625 L 52.629,38.168 L 50.572,35.653 L 49.886,34.738 L 48.742,33.366 L 47.599,31.994 L 47.142,31.08 L 47.142,30.966 L 46.685,30.165 L 46.113,29.365 L 45.541,28.336 L 45.084,27.536 L 44.284,26.05 L 44.055,25.707 L 43.941,25.478 L 43.484,24.678 L 43.141,23.763 L 42.226,22.163 L 42.112,21.934 L 41.998,21.591 L 41.883,21.134 L 42.569,21.02 L 46.342,19.991 L 50.572,18.733 L 55.602,17.247 L 58.46,13.817 L 61.432,10.045 L 61.775,9.702 L 62.118,9.359 L 63.947,10.959 L 64.862,11.417 L 65.776,11.76 L 67.034,11.988 L 68.406,12.56 L 73.436,14.961 L 78.58,17.476 L 81.095,18.619 L 82.696,19.762 L 83.496,20.219 L 84.411,21.02 L 84.639,21.248 L 83.61,21.934 L 83.267,22.163 L 78.695,25.935 L 75.151,29.251 L 75.837,31.308 L 77.78,37.139 L 77.78,40.226 L 75.151,41.369 L 71.035,46.17 L 70.692,46.628 Z M 24.049,58.631 L 21.763,59.546 L 23.706,60.003 L 22.677,63.547 L 22.677,63.547 L 24.278,63.547 L 25.078,63.547 L 25.078,63.547 L 26.221,63.547 L 26.221,63.547 L 26.678,64.462 L 30.337,63.318 L 29.651,57.717 L 26.45,57.717 L 24.278,58.517 L 24.163,58.517 L 24.163,58.517 L 24.049,58.631 Z" fill="rgba(59,130,246,0.25)" fill-rule="evenodd" stroke="rgba(59,130,246,0.9)" stroke-width="0.3" stroke-linejoin="round"/>
</svg>
