<svg xmlns="http://www.w3.org/2000/svg" width="100%" height="100%" viewBox="0 0 100 100" preserveAspectRatio="none">
  <path d="M 50.4,67.148 L 50.229,67.205 L 50.171,67.263 L 49.714,67.491 L 49.143,67.777 L 48.8,67.948 L 48.4,68.12 L 48.171,68.234 L 47.599,68.52 L 47.085,68.806 L 46.97,68.863 L 46.685,68.977 L 46.456,69.092 L 46.285,69.206 L 46.056,69.32 L 45.713,69.492 L 45.37,69.663 L 44.455,70.121 L 29.136,72.807 L 29.136,72.807 L 29.136,72.807 L 29.079,72.807 L 28.622,72.75 L 26.393,72.35 L 23.592,71.835 L 21.477,71.492 L 19.305,71.092 L 17.876,70.864 L 15.875,70.521 L 15.246,70.292 L 12.274,69.377 L 10.502,68.863 L 9.302,68.52 L 7.072,67.777 L 6.386,67.605 L 6.215,67.548 L 16.561,28.565 L 16.675,28.222 L 16.675,28.165 L 17.304,28.393 L 17.418,28.45 L 17.418,28.45 L 17.704,27.193 L 17.704,27.193 L 17.704,27.193 L 17.704,27.193 L 18.333,27.422 L 19.305,27.879 L 20.505,28.45 L 21.42,28.851 L 23.992,30.051 L 24.392,30.28 L 24.506,30.337 L 25.249,30.68 L 25.993,31.08 L 27.536,31.766 L 27.765,31.88 L 28.908,32.395 L 33.881,34.681 L 34.338,34.91 L 34.338,34.91 L 34.395,34.91 L 33.995,35.938 L 33.995,35.996 L 33.824,36.453 L 33.995,35.996 L 33.995,35.938 L 34.395,34.91 L 34.624,35.024 L 35.31,35.31 L 37.082,36.167 L 38.053,36.624 L 38.797,36.853 L 40.511,37.425 L 41.254,37.653 L 42.398,37.939 L 43.427,38.225 L 45.427,38.682 L 45.656,38.739 L 46.685,38.968 L 47.942,39.197 L 47.999,39.197 L 49.2,39.368 L 50.686,39.597 L 51.715,39.711 L 54.001,39.94 L 54.801,39.997 L 55.716,39.997 L 57.202,40.054 L 58.688,40.054 L 59.374,40.054 L 59.603,40.054 L 61.089,40.054 L 63.776,39.825 L 65.948,39.654 L 66.519,39.597 L 67.148,39.54 L 68.234,39.368 L 70.464,38.968 L 72.178,38.625 L 72.636,38.511 L 73.036,39.197 L 74.35,38.911 L 79.209,37.425 L 85.725,34.738 L 86.64,34.281 L 86.64,34.281 L 86.64,34.281 L 86.64,34.281 L 86.926,34.681 L 93.785,45.942 L 91.156,47.599 L 89.441,48.628 L 86.983,50.171 L 85.897,50.857 L 84.639,51.658 L 82.353,53.03 L 80.409,54.23 L 79.552,54.801 L 79.209,54.973 L 77.78,55.888 L 75.894,57.031 L 74.408,57.945 L 74.007,58.174 L 73.722,58.403 L 73.093,58.803 L 72.464,58.974 L 72.35,59.031 L 71.835,59.26 L 70.978,59.546 L 70.464,59.717 L 70.063,59.889 L 69.778,60.003 L 69.263,60.175 L 68.634,60.403 L 67.434,60.861 L 66.862,61.089 L 64.976,61.775 L 63.776,62.232 L 62.347,62.747 L 59.317,63.89 L 57.66,64.462 L 57.488,64.576 L 55.602,65.262 L 52.858,66.234 L 52.229,66.462 L 51.543,66.748 L 50.572,67.091 L 50.4,67.148 Z" fill="rgba(59,130,246,0.25)" fill-rule="evenodd" stroke="rgba(59,130,246,0.9)" stroke-width="0.3" stroke-linejoin="round"/>
</svg>
