<svg xmlns="http://www.w3.org/2000/svg" width="100%" height="100%" viewBox="0 0 100 100" preserveAspectRatio="none">
  <path d="M 66.577,42.112 L 66.119,42.569 L 64.519,44.398 L 62.004,47.142 L 60.861,48.285 L 58.803,50.8 L 53.773,56.516 L 51.258,59.26 L 49.886,60.861 L 47.599,63.147 L 45.77,65.433 L 43.941,67.263 L 43.255,66.805 L 42.34,65.662 L 40.74,64.519 L 39.597,63.376 L 38.454,62.232 L 38.454,62.232 L 35.938,59.946 L 34.338,58.574 L 33.423,57.888 L 33.423,57.888 L 37.539,53.544 L 42.112,48.057 L 42.34,48.057 L 43.484,46.685 L 43.941,45.999 L 45.084,45.084 L 50.114,39.368 L 55.373,33.423 L 55.83,32.737 L 55.83,32.737 L 56.059,32.966 L 58.803,35.481 L 60.861,37.31 L 60.861,37.31 L 61.318,37.768 L 61.546,37.768 L 63.604,39.825 L 65.205,41.197 L 65.891,41.655 L 66.348,42.112 L 66.577,42.112 Z" fill="rgba(59,130,246,0.25)" fill-rule="evenodd" stroke="rgba(59,130,246,0.9)" stroke-width="0.3" stroke-linejoin="round"/>
</svg>
