<svg xmlns="http://www.w3.org/2000/svg" width="100%" height="100%" viewBox="0 0 100 100" preserveAspectRatio="none">
  <path d="M 41.883,69.549 L 41.197,69.092 L 40.74,68.863 L 40.283,68.406 L 39.597,67.491 L 39.139,66.577 L 37.996,63.604 L 36.853,60.632 L 35.938,58.117 L 35.71,57.66 L 35.481,56.059 L 35.024,54.916 L 35.024,54.687 L 35.71,53.087 L 36.167,51.486 L 36.624,47.828 L 36.624,47.828 L 37.539,48.057 L 47.828,49.2 L 49.2,49.428 L 49.886,44.398 L 50.343,40.283 L 52.172,27.936 L 52.401,26.335 L 56.288,26.793 L 64.976,27.936 L 64.747,29.765 L 63.833,36.167 L 63.376,40.74 L 61.775,51.258 L 61.775,51.258 L 61.546,53.087 L 60.175,63.833 L 60.175,64.062 L 59.489,69.32 L 59.489,70.235 L 57.202,71.835 L 54.459,73.207 L 54.001,73.436 L 53.544,73.665 L 53.087,73.665 L 51.943,73.665 L 48.285,73.665 L 48.285,73.436 L 46.227,72.521 L 45.313,72.064 L 43.941,71.607 L 42.569,70.921 L 43.026,70.235 L 41.883,69.549 Z" fill="rgba(59,130,246,0.25)" fill-rule="evenodd" stroke="rgba(59,130,246,0.9)" stroke-width="0.3" stroke-linejoin="round"/>
</svg>
