<svg xmlns="http://www.w3.org/2000/svg" width="100%" height="100%" viewBox="0 0 100 100" preserveAspectRatio="none">
  <path d="M 53.544,32.966 L 53.544,32.966 L 54.687,42.34 L 58.574,70.921 L 58.574,71.149 L 58.574,70.921 L 58.345,70.921 L 55.373,71.378 L 52.629,71.607 L 52.629,71.607 L 52.401,71.607 L 51.715,71.835 L 49.657,72.064 L 46.913,72.521 L 46.685,71.149 L 45.77,63.833 L 45.084,57.431 L 44.17,50.114 L 43.026,42.34 L 42.798,40.511 L 42.569,39.139 L 42.569,37.996 L 41.655,32.052 L 41.655,31.823 L 41.426,29.765 L 41.426,28.393 L 41.426,27.479 L 52.401,32.509 L 53.544,32.966 Z" fill="rgba(59,130,246,0.25)" fill-rule="evenodd" stroke="rgba(59,130,246,0.9)" stroke-width="0.3" stroke-linejoin="round"/>
</svg>
