<svg xmlns="http://www.w3.org/2000/svg" width="100%" height="100%" viewBox="0 0 100 100" preserveAspectRatio="none">
  <path d="M 38.196,70.864 L 38.482,70.978 L 36.767,70.121 L 36.767,70.121 L 36.767,70.121 L 36.767,70.121 L 36.767,70.121 L 36.767,70.121 L 36.767,70.006 L 36.767,70.006 L 36.767,70.121 L 36.996,69.492 L 37.453,68.177 L 38.082,65.948 L 38.311,65.319 L 38.196,65.548 L 38.196,65.548 L 38.196,65.548 L 38.196,65.548 L 38.253,65.491 L 38.253,65.491 L 38.253,65.376 L 38.368,65.148 L 38.482,64.69 L 38.482,64.69 L 38.482,64.633 L 38.596,64.29 L 38.654,64.119 L 38.939,63.09 L 39.34,61.775 L 39.911,59.832 L 43.284,52.115 L 50.772,35.481 L 55.173,26.45 L 61.175,29.251 L 61.175,29.251 L 61.175,29.251 L 61.575,29.422 L 61.518,29.536 L 62.204,29.822 L 63.233,30.565 L 63.233,30.565 L 62.204,32.68 L 60.146,37.31 L 59.403,38.968 L 59.403,38.968 L 57.459,43.255 L 57.459,43.255 L 57.459,43.312 L 54.83,48.971 L 54.716,49.2 L 53.973,50.857 L 53.973,50.857 L 52.258,54.687 L 50.715,58.002 L 50.715,58.002 L 49.743,60.175 L 48.142,63.661 L 48.142,63.661 L 47.399,65.205 L 46.599,67.034 L 45.57,69.263 L 45.513,69.206 L 45.513,69.263 L 43.569,73.55 L 43.569,73.55 L 41.397,72.464 L 40.826,72.178 L 40.826,72.178 L 41.454,70.978 L 41.454,70.978 L 40.826,72.178 L 40.826,72.178 L 39.911,71.721 L 39.911,71.721 L 39.911,71.721 L 39.797,71.664 L 39.74,71.664 L 38.196,70.864 Z" fill="rgba(59,130,246,0.25)" fill-rule="evenodd" stroke="rgba(59,130,246,0.9)" stroke-width="0.3" stroke-linejoin="round"/>
</svg>
