<svg xmlns="http://www.w3.org/2000/svg" width="100%" height="100%" viewBox="0 0 100 100" preserveAspectRatio="none">
  <path d="M 51.029,64.976 L 50.343,64.976 L 50.114,64.976 L 47.828,64.062 L 44.856,62.918 L 41.883,61.775 L 37.768,60.175 L 37.768,60.175 L 37.31,60.175 L 37.539,59.946 L 42.569,47.142 L 45.77,38.911 L 47.371,35.024 L 48.742,35.481 L 51.258,36.396 L 59.031,39.368 L 61.089,40.054 L 62.004,40.283 L 62.69,40.74 L 61.546,43.484 L 59.489,49.2 L 58.117,53.087 L 57.202,55.83 L 58.803,61.318 L 59.031,62.461 L 59.031,62.461 L 54.916,63.376 L 53.315,64.062 L 51.029,64.976 Z" fill="rgba(59,130,246,0.25)" fill-rule="evenodd" stroke="rgba(59,130,246,0.9)" stroke-width="0.3" stroke-linejoin="round"/>
</svg>
