<svg xmlns="http://www.w3.org/2000/svg" width="100%" height="100%" viewBox="0 0 100 100" preserveAspectRatio="none">
  <path d="M 38.053,78.523 L 36.796,79.781 L 35.424,76.237 L 31.994,70.864 L 28.45,66.176 L 24.449,60.803 L 24.678,60.117 L 24.906,59.774 L 25.135,61.489 L 29.136,66.519 L 33.595,63.09 L 36.567,60.689 L 35.538,59.317 L 36.682,57.259 L 38.396,58.174 L 37.139,58.517 L 45.141,69.835 L 56.916,57.145 L 62.175,51.658 L 55.773,37.139 L 55.316,35.538 L 57.031,33.481 L 58.403,31.651 L 62.633,27.536 L 56.231,21.363 L 55.202,21.934 L 54.058,22.506 L 54.173,22.849 L 53.944,22.963 L 53.944,23.077 L 53.83,23.077 L 51.658,25.592 L 51.429,25.707 L 50.514,24.564 L 50.629,24.449 L 50.629,24.449 L 51.886,23.535 L 52.801,22.849 L 52.915,22.734 L 53.715,22.163 L 54.63,21.477 L 56.231,20.219 L 62.633,26.507 L 70.749,33.824 L 75.551,38.282 L 74.179,39.883 L 66.405,48.228 L 56.688,58.631 L 46.628,69.377 L 38.053,78.523 Z" fill="rgba(59,130,246,0.25)" fill-rule="evenodd" stroke="rgba(59,130,246,0.9)" stroke-width="0.3" stroke-linejoin="round"/>
</svg>
