<svg xmlns="http://www.w3.org/2000/svg" width="100%" height="100%" viewBox="0 0 100 100" preserveAspectRatio="none">
  <path d="M 77.094,45.999 L 75.951,46.227 L 75.722,46.456 L 74.808,54.001 L 74.35,55.83 L 73.665,57.888 L 72.293,61.089 L 70.006,65.433 L 64.29,68.177 L 64.29,68.406 L 66.577,70.235 L 68.406,73.436 L 64.519,75.494 L 53.544,80.524 L 40.511,85.783 L 39.139,85.325 L 21.991,51.943 L 21.991,51.943 L 23.134,51.258 L 24.964,49.657 L 29.994,45.541 L 34.795,41.197 L 39.368,37.539 L 43.026,33.881 L 45.77,30.908 L 47.371,28.851 L 49.428,25.878 L 53.773,20.162 L 56.059,16.047 L 57.202,14.217 L 61.089,16.275 L 58.574,20.391 L 57.431,24.964 L 58.345,27.936 L 57.888,29.308 L 58.345,29.536 L 60.861,28.851 L 61.546,27.707 L 64.976,28.165 L 67.72,28.393 L 70.006,32.966 L 74.35,36.167 L 78.009,40.74 L 78.009,40.969 L 77.551,43.941 L 77.094,45.999 Z" fill="rgba(59,130,246,0.25)" fill-rule="evenodd" stroke="rgba(59,130,246,0.9)" stroke-width="0.3" stroke-linejoin="round"/>
</svg>
