<svg xmlns="http://www.w3.org/2000/svg" width="100%" height="100%" viewBox="0 0 100 100" preserveAspectRatio="none">
  <path d="M 75.494,29.251 L 74.693,34.395 L 74.693,34.509 L 74.693,34.852 L 75.036,38.053 L 75.379,39.883 L 75.608,41.826 L 75.722,42.741 L 75.837,42.969 L 75.951,43.655 L 76.18,44.341 L 76.18,44.455 L 77.437,47.542 L 78.352,49.714 L 78.809,50.743 L 79.038,51.2 L 79.266,51.543 L 79.266,51.886 L 79.381,52.344 L 79.609,53.258 L 80.181,55.773 L 81.21,59.317 L 82.124,62.975 L 82.582,64.576 L 82.696,65.148 L 82.696,65.262 L 82.696,65.262 L 82.81,65.719 L 82.81,65.719 L 82.696,65.262 L 82.81,65.719 L 82.81,65.719 L 82.81,65.833 L 82.81,65.833 L 82.696,65.833 L 82.696,65.833 L 80.981,66.519 L 75.151,68.692 L 70.121,70.521 L 67.948,71.321 L 67.605,71.321 L 65.548,72.121 L 62.804,73.15 L 59.26,74.408 L 57.545,75.208 L 54.573,76.465 L 52.629,77.266 L 49.771,78.523 L 45.656,80.352 L 44.856,80.695 L 44.741,80.695 L 44.741,80.695 L 35.367,84.811 L 34.681,83.668 L 34.681,83.668 L 33.08,81.038 L 33.08,80.924 L 31.48,78.18 L 30.108,74.865 L 29.994,74.751 L 27.479,66.291 L 26.907,64.69 L 26.335,62.861 L 26.107,61.947 L 25.65,60.575 L 24.621,57.259 L 23.706,54.173 L 23.363,53.258 L 21.877,48.228 L 19.934,41.826 L 19.591,40.911 L 18.905,38.739 L 18.447,37.482 L 18.447,37.367 L 17.533,34.624 L 17.418,33.595 L 17.19,32.909 L 20.619,32.566 L 29.651,29.822 L 32.509,28.908 L 36.853,27.65 L 36.967,27.536 L 39.254,26.85 L 43.369,25.592 L 43.598,25.478 L 48.057,24.106 L 48.057,24.106 L 48.057,24.106 L 54.459,22.163 L 56.402,21.591 L 56.402,21.591 L 67.034,18.162 L 68.52,17.704 L 68.52,17.704 L 72.979,16.332 L 73.207,16.332 L 76.523,15.189 L 76.637,17.476 L 76.751,18.504 L 76.751,19.533 L 76.751,20.105 L 76.637,21.934 L 76.294,24.678 L 75.494,29.251 Z" fill="rgba(59,130,246,0.25)" fill-rule="evenodd" stroke="rgba(59,130,246,0.9)" stroke-width="0.3" stroke-linejoin="round"/>
</svg>
