<svg xmlns="http://www.w3.org/2000/svg" width="100%" height="100%" viewBox="0 0 100 100" preserveAspectRatio="none">
  <path d="M 32.966,45.999 L 32.966,45.999 L 36.853,45.084 L 41.197,43.712 L 41.197,43.712 L 43.026,43.255 L 45.084,42.569 L 47.142,41.883 L 52.629,39.825 L 52.858,39.825 L 54.916,38.911 L 55.83,38.682 L 63.376,35.938 L 65.205,35.481 L 68.406,34.109 L 70.006,33.881 L 70.006,33.881 L 70.464,33.652 L 70.692,34.567 L 70.921,35.253 L 71.149,35.71 L 72.979,38.911 L 73.665,40.74 L 74.579,42.34 L 74.808,42.798 L 74.35,43.255 L 73.665,43.484 L 71.378,45.541 L 66.348,49.886 L 66.119,50.114 L 66.119,50.114 L 61.089,54.459 L 56.745,58.117 L 55.144,59.717 L 54.916,59.717 L 54.23,59.946 L 54.23,59.946 L 47.142,62.004 L 44.17,62.69 L 41.883,63.376 L 41.883,63.376 L 40.283,63.833 L 38.911,64.062 L 38.682,64.29 L 34.795,65.205 L 32.052,65.891 L 30.68,66.348 L 30.451,64.747 L 29.079,60.632 L 27.25,54.687 L 26.335,51.715 L 25.65,49.657 L 25.421,49.2 L 25.421,48.285 L 25.192,47.371 L 25.192,47.371 L 26.335,47.142 L 32.966,45.999 Z" fill="rgba(59,130,246,0.25)" fill-rule="evenodd" stroke="rgba(59,130,246,0.9)" stroke-width="0.3" stroke-linejoin="round"/>
</svg>
