<svg xmlns="http://www.w3.org/2000/svg" width="100%" height="100%" viewBox="0 0 100 100" preserveAspectRatio="none">
  <path d="M 40.854,33.08 L 44.97,32.623 L 44.97,32.623 L 48.628,32.166 L 48.857,31.937 L 50.686,31.709 L 50.915,31.709 L 52.515,31.48 L 53.887,31.48 L 54.116,31.251 L 54.116,31.251 L 54.116,31.709 L 54.344,32.395 L 54.573,33.08 L 55.259,37.882 L 56.173,44.284 L 56.173,44.284 L 56.631,48.628 L 57.088,51.829 L 57.317,52.972 L 57.317,53.201 L 58.002,59.374 L 58.917,64.633 L 59.146,66.462 L 58.917,66.691 L 55.487,67.148 L 55.259,67.148 L 55.259,67.148 L 52.515,67.605 L 52.286,67.605 L 49.314,68.291 L 47.028,68.52 L 45.656,68.749 L 45.656,68.749 L 45.199,67.148 L 44.741,62.575 L 44.055,56.859 L 43.827,56.859 L 43.141,51.829 L 43.141,51.6 L 42.455,46.342 L 42.455,46.342 L 42.455,45.199 L 41.769,39.482 L 40.854,33.08 Z" fill="rgba(59,130,246,0.25)" fill-rule="evenodd" stroke="rgba(59,130,246,0.9)" stroke-width="0.3" stroke-linejoin="round"/>
</svg>
