<svg xmlns="http://www.w3.org/2000/svg" width="100%" height="100%" viewBox="0 0 100 100" preserveAspectRatio="none">
  <path d="M 48.285,25.535 L 54.001,27.822 L 54.001,28.736 L 54.001,30.108 L 54.23,32.166 L 54.23,32.395 L 55.144,38.339 L 55.144,39.482 L 55.373,40.854 L 55.602,42.683 L 56.745,50.457 L 57.66,57.774 L 58.345,64.176 L 59.26,71.492 L 59.489,72.864 L 59.489,72.864 L 55.83,73.322 L 52.401,73.779 L 52.401,73.779 L 49.2,74.007 L 45.77,74.465 L 44.627,65.776 L 44.627,65.776 L 42.569,50.457 L 40.969,37.425 L 40.74,36.281 L 40.511,35.138 L 41.197,33.995 L 41.426,33.538 L 42.34,31.251 L 42.798,30.565 L 43.255,29.879 L 45.084,28.279 L 45.77,27.593 L 47.599,25.993 L 48.285,25.535 Z" fill="rgba(59,130,246,0.25)" fill-rule="evenodd" stroke="rgba(59,130,246,0.9)" stroke-width="0.3" stroke-linejoin="round"/>
</svg>
