<svg xmlns="http://www.w3.org/2000/svg" width="100%" height="100%" viewBox="0 0 100 100" preserveAspectRatio="none">
  <path d="M 18.162,61.261 L 19.591,61.146 L 20.619,60.46 L 21.763,60.175 L 22.048,60.117 L 23.42,59.774 L 24.506,60.003 L 26.964,61.661 L 27.936,60.518 L 29.822,58.86 L 31.251,58.574 L 31.48,58.231 L 32.337,56.859 L 33.538,54.973 L 34.852,51.943 L 35.138,51.715 L 35.824,51.143 L 36.91,50.114 L 37.025,50.057 L 37.71,49.771 L 37.996,49.714 L 39.311,49.428 L 40.34,44.284 L 41.083,40.511 L 41.14,40.511 L 41.14,40.568 L 43.484,41.083 L 41.483,40.626 L 41.712,40.683 L 43.484,41.083 L 43.484,41.083 L 43.484,41.083 L 43.541,41.083 L 46.685,40.911 L 48.514,40.283 L 48.514,40.283 L 48.514,40.283 L 48.514,40.283 L 49.771,38.396 L 49.943,38.053 L 51.943,36.396 L 51.943,36.396 L 49.943,38.053 L 49.943,38.053 L 50.686,37.482 L 50.857,37.31 L 51.943,36.453 L 52.001,36.396 L 52.115,36.339 L 52.286,36.224 L 52.286,36.224 L 52.286,36.224 L 52.286,36.224 L 53.258,34.624 L 53.372,34.452 L 53.658,33.938 L 54.23,33.08 L 54.23,33.08 L 54.859,32.395 L 56.631,31.423 L 56.859,31.251 L 57.202,31.023 L 57.831,30.623 L 57.945,30.565 L 58.174,30.394 L 58.174,30.394 L 58.174,30.394 L 56.859,31.251 L 57.888,30.623 L 58.174,30.394 L 59.26,29.194 L 59.374,29.022 L 58.46,30.108 L 58.86,29.651 L 59.26,29.194 L 59.374,29.079 L 59.374,29.022 L 59.832,28.908 L 59.832,28.908 L 59.946,28.908 L 60.175,28.851 L 60.46,28.736 L 61.318,28.508 L 61.318,28.508 L 61.318,28.508 L 61.318,28.508 L 61.318,28.508 L 61.832,28.393 L 62.518,28.165 L 62.518,28.165 L 62.804,28.107 L 62.804,28.107 L 62.804,28.107 L 62.804,28.107 L 63.318,27.765 L 64.404,27.079 L 64.404,27.079 L 64.404,27.079 L 64.576,27.193 L 64.862,27.364 L 65.491,27.765 L 66.119,28.107 L 66.176,28.165 L 66.176,28.165 L 66.234,28.165 L 66.348,28.222 L 66.634,28.45 L 66.691,28.45 L 66.691,28.45 L 67.091,28.565 L 67.148,28.622 L 67.32,28.679 L 68.006,28.851 L 68.52,29.022 L 69.149,28.851 L 69.32,28.793 L 69.72,28.679 L 70.806,28.393 L 70.864,28.393 L 70.921,28.336 L 70.978,28.336 L 70.978,28.336 L 70.978,28.336 L 71.035,28.336 L 71.092,28.336 L 71.321,28.222 L 71.492,28.165 L 71.721,28.107 L 71.893,28.05 L 71.95,28.05 L 71.95,28.05 L 72.007,28.05 L 72.464,27.879 L 72.636,27.822 L 72.75,27.765 L 73.036,27.707 L 73.15,27.65 L 73.15,27.65 L 73.207,27.65 L 73.379,27.593 L 73.665,27.479 L 73.665,27.479 L 73.665,27.479 L 73.722,27.479 L 73.893,27.422 L 73.95,27.364 L 74.236,27.25 L 74.408,27.079 L 75.036,26.736 L 75.322,26.621 L 75.837,26.335 L 76.294,25.935 L 77.094,25.307 L 77.094,25.307 L 77.666,24.849 L 77.894,24.678 L 78.295,24.392 L 78.352,24.335 L 78.352,24.335 L 78.352,24.335 L 78.352,24.335 L 78.352,24.335 L 78.409,24.335 L 78.923,24.506 L 78.98,24.564 L 79.266,24.621 L 79.381,24.678 L 79.381,24.678 L 79.381,24.678 L 80.066,24.906 L 80.467,25.078 L 80.638,25.135 L 81.724,25.65 L 82.181,25.878 L 82.696,26.107 L 83.553,26.507 L 83.725,26.621 L 83.839,26.678 L 84.411,26.964 L 84.754,27.079 L 84.868,27.136 L 84.868,27.136 L 84.925,27.193 L 84.982,27.193 L 85.211,27.307 L 85.211,27.307 L 84.982,27.193 L 85.154,27.307 L 85.211,27.307 L 85.783,27.593 L 85.783,27.593 L 83.725,31.709 L 83.553,32.052 L 83.153,32.68 L 83.039,32.909 L 82.753,33.252 L 82.296,33.709 L 82.01,33.995 L 81.324,34.681 L 81.153,34.91 L 80.924,35.138 L 80.638,35.367 L 80.352,35.653 L 80.066,35.938 L 79.724,36.224 L 79.438,36.453 L 79.095,36.796 L 78.923,36.967 L 78.523,37.31 L 77.952,37.882 L 77.551,38.225 L 77.151,38.682 L 76.751,39.197 L 76.637,39.54 L 76.523,39.883 L 76.408,40.168 L 76.18,40.969 L 76.122,41.312 L 75.951,41.769 L 75.951,42.112 L 75.951,42.398 L 76.008,42.626 L 76.18,43.141 L 76.351,43.541 L 76.58,43.941 L 76.751,44.17 L 76.923,44.455 L 77.208,44.798 L 77.723,45.541 L 77.952,45.827 L 78.123,46.113 L 78.237,46.342 L 78.352,46.856 L 78.58,48.628 L 78.58,49.143 L 78.466,49.6 L 78.409,49.886 L 78.18,50.457 L 77.952,50.915 L 77.494,52.001 L 77.094,52.801 L 76.866,53.315 L 76.808,53.487 L 76.523,54.173 L 76.351,54.516 L 76.008,55.202 L 75.665,56.002 L 75.322,56.974 L 75.151,57.717 L 75.094,58.345 L 74.979,60.117 L 74.922,60.918 L 74.808,61.718 L 74.693,62.232 L 74.236,63.604 L 73.722,65.033 L 73.264,66.005 L 73.207,66.176 L 72.921,66.577 L 72.464,67.091 L 71.378,67.948 L 70.406,68.406 L 68.291,68.749 L 67.32,68.977 L 67.148,69.034 L 65.833,69.492 L 64.576,70.521 L 64.004,71.321 L 63.89,71.321 L 63.433,71.092 L 63.147,71.264 L 62.518,71.092 L 62.29,71.035 L 61.546,70.806 L 61.146,70.978 L 60.689,70.806 L 59.717,71.207 L 59.66,71.207 L 59.317,70.978 L 59.203,70.978 L 59.317,70.235 L 58.746,70.121 L 57.831,70.006 L 57.717,69.835 L 57.602,69.206 L 57.202,68.692 L 57.145,68.12 L 56.573,67.32 L 54.344,66.748 L 53.601,66.862 L 52.858,66.92 L 51.658,67.434 L 53.087,68.349 L 53.201,68.92 L 53.03,69.149 L 51.658,67.491 L 51.372,68.406 L 51.258,68.577 L 50.972,69.034 L 50.457,69.663 L 50.229,69.892 L 50.057,70.063 L 49.771,70.292 L 49.314,70.578 L 49.085,70.635 L 47.085,71.092 L 46.227,71.264 L 45.942,71.264 L 45.427,71.264 L 45.027,71.092 L 44.513,70.806 L 43.198,69.949 L 42.741,69.72 L 42.34,69.549 L 42.055,69.435 L 41.597,69.32 L 41.14,69.263 L 38.968,69.092 L 37.139,69.034 L 35.024,69.263 L 34.224,69.492 L 33.595,69.663 L 32.68,69.892 L 31.709,70.349 L 29.422,70.864 L 26.05,71.893 L 25.021,72.407 L 23.535,72.807 L 22.792,73.036 L 21.477,74.122 L 20.162,75.322 L 20.105,75.608 L 20.105,75.665 L 20.048,75.551 L 19.476,74.751 L 19.133,74.236 L 18.447,73.093 L 17.418,71.378 L 17.247,71.207 L 16.733,70.521 L 16.275,70.063 L 15.532,69.263 L 15.303,68.92 L 15.075,68.692 L 14.846,68.177 L 14.732,67.72 L 14.675,67.434 L 14.618,67.148 L 14.618,66.348 L 14.618,65.719 L 14.56,65.433 L 14.503,65.033 L 14.389,64.805 L 14.217,64.576 L 14.389,64.462 L 14.503,64.404 L 15.246,63.89 L 15.303,63.376 L 16.161,62.29 L 17.304,61.718 L 18.162,61.261 Z" fill="rgba(59,130,246,0.25)" fill-rule="evenodd" stroke="rgba(59,130,246,0.9)" stroke-width="0.3" stroke-linejoin="round"/>
</svg>
