<svg xmlns="http://www.w3.org/2000/svg" width="100%" height="100%" viewBox="0 0 100 100" preserveAspectRatio="none">
  <path d="M 66.462,44.055 L 65.776,44.513 L 64.862,45.199 L 63.49,46.342 L 58.917,50.915 L 55.259,54.573 L 54.344,55.487 L 51.829,57.774 L 50.0,59.603 L 48.857,60.746 L 45.884,63.719 L 45.656,63.947 L 42.912,66.462 L 42.683,66.691 L 42.455,65.776 L 40.854,60.975 L 40.626,60.746 L 40.168,59.374 L 33.995,53.201 L 33.538,52.515 L 33.766,52.286 L 38.339,49.314 L 42.683,46.342 L 42.683,46.342 L 48.171,42.683 L 50.229,41.312 L 50.457,41.312 L 52.972,39.482 L 53.201,39.482 L 58.231,36.053 L 58.46,36.053 L 62.347,33.309 L 62.575,33.309 L 62.804,33.995 L 65.09,39.711 L 66.234,42.912 L 66.462,43.827 L 66.462,44.055 Z" fill="rgba(59,130,246,0.25)" fill-rule="evenodd" stroke="rgba(59,130,246,0.9)" stroke-width="0.3" stroke-linejoin="round"/>
</svg>
