<svg xmlns="http://www.w3.org/2000/svg" width="100%" height="100%" viewBox="0 0 100 100" preserveAspectRatio="none">
  <path d="M 44.513,38.797 L 49.314,28.279 L 50.0,26.45 L 52.515,20.962 L 53.43,19.133 L 56.859,10.216 L 57.545,8.844 L 61.661,8.844 L 61.661,8.844 L 61.661,13.189 L 61.889,17.075 L 62.118,20.048 L 62.575,23.935 L 62.575,23.935 L 62.804,25.764 L 62.804,25.764 L 62.804,27.136 L 62.804,27.364 L 63.033,29.194 L 63.261,29.879 L 63.261,29.879 L 63.261,30.337 L 63.261,30.337 L 63.719,32.623 L 63.719,32.623 L 64.404,36.739 L 64.404,36.967 L 64.404,36.967 L 65.548,47.714 L 65.548,47.942 L 66.005,51.6 L 66.462,53.887 L 66.92,58.231 L 68.063,67.605 L 68.52,71.035 L 70.578,86.583 L 70.578,87.726 L 70.578,87.726 L 71.035,90.698 L 68.063,91.156 L 67.834,90.927 L 59.374,87.269 L 50.686,83.61 L 50.457,83.61 L 46.799,82.01 L 42.683,80.181 L 42.683,80.181 L 37.196,77.666 L 36.967,77.666 L 31.709,75.151 L 28.965,74.007 L 31.251,68.52 L 33.309,63.49 L 40.854,47.028 L 44.513,38.797 Z" fill="rgba(59,130,246,0.25)" fill-rule="evenodd" stroke="rgba(59,130,246,0.9)" stroke-width="0.3" stroke-linejoin="round"/>
</svg>
