<svg xmlns="http://www.w3.org/2000/svg" width="100%" height="100%" viewBox="0 0 100 100" preserveAspectRatio="none">
  <path d="M 37.31,57.088 L 35.938,53.658 L 35.481,52.515 L 34.567,50.457 L 32.737,45.656 L 32.509,44.284 L 32.28,43.827 L 31.823,42.226 L 34.338,40.626 L 35.481,39.94 L 36.396,39.482 L 35.938,37.882 L 35.938,37.425 L 35.024,31.48 L 34.795,29.651 L 34.795,29.651 L 35.71,29.194 L 41.426,27.364 L 44.398,26.45 L 48.285,25.307 L 48.971,25.078 L 51.029,24.392 L 51.715,24.163 L 52.401,23.935 L 53.087,26.45 L 54.916,31.251 L 55.602,32.852 L 51.258,34.224 L 48.514,35.138 L 44.398,36.51 L 43.484,36.739 L 45.084,37.882 L 45.541,38.339 L 49.657,40.168 L 54.916,42.683 L 58.345,44.055 L 59.946,44.97 L 60.175,44.97 L 60.861,44.741 L 61.318,44.741 L 61.318,44.97 L 61.089,45.427 L 58.803,48.628 L 57.202,50.686 L 56.059,52.058 L 67.948,57.545 L 68.177,57.545 L 67.72,58.231 L 67.491,58.917 L 66.119,60.746 L 63.833,63.719 L 63.376,64.176 L 63.147,64.633 L 62.461,65.319 L 62.232,65.776 L 58.574,70.806 L 56.516,76.065 L 43.712,71.035 L 42.34,70.578 L 37.539,68.291 L 36.624,67.834 L 38.911,62.804 L 37.996,59.603 L 37.31,57.088 Z" fill="rgba(59,130,246,0.25)" fill-rule="evenodd" stroke="rgba(59,130,246,0.9)" stroke-width="0.3" stroke-linejoin="round"/>
</svg>
