<svg xmlns="http://www.w3.org/2000/svg" width="100%" height="100%" viewBox="0 0 100 100" preserveAspectRatio="none">
  <path d="M 47.256,34.681 L 50.686,40.397 L 53.887,38.111 L 55.259,37.196 L 59.603,34.224 L 60.06,34.91 L 66.234,41.083 L 66.691,42.455 L 66.92,42.683 L 68.52,47.485 L 68.749,48.171 L 68.749,48.4 L 68.063,48.857 L 63.261,53.658 L 60.289,56.402 L 60.06,56.631 L 46.113,64.862 L 44.055,65.776 L 44.055,65.776 L 43.598,65.09 L 40.626,60.06 L 37.425,54.344 L 35.367,51.143 L 34.681,49.543 L 31.709,44.513 L 31.251,43.827 L 33.766,42.455 L 36.739,40.626 L 43.598,36.51 L 47.028,34.452 L 47.256,34.681 Z" fill="rgba(59,130,246,0.25)" fill-rule="evenodd" stroke="rgba(59,130,246,0.9)" stroke-width="0.3" stroke-linejoin="round"/>
</svg>
