<svg xmlns="http://www.w3.org/2000/svg" width="100%" height="100%" viewBox="0 0 100 100" preserveAspectRatio="none">
  <path d="M 63.147,38.568 L 63.147,38.797 L 61.546,42.455 L 59.26,47.485 L 57.888,50.457 L 56.516,53.658 L 54.916,57.317 L 50.8,66.462 L 50.572,67.148 L 49.2,66.92 L 49.2,66.691 L 48.057,66.234 L 46.227,65.548 L 45.999,65.548 L 44.398,64.633 L 42.798,63.947 L 42.798,63.947 L 40.74,63.033 L 39.597,62.575 L 36.853,61.432 L 37.768,59.146 L 40.511,53.43 L 40.74,52.515 L 43.712,46.113 L 43.941,45.427 L 45.084,42.912 L 45.77,41.083 L 47.142,37.882 L 48.285,35.824 L 49.657,32.852 L 53.544,34.452 L 54.23,34.681 L 61.546,37.882 L 61.775,38.111 L 62.004,38.111 L 63.147,38.568 Z" fill="rgba(59,130,246,0.25)" fill-rule="evenodd" stroke="rgba(59,130,246,0.9)" stroke-width="0.3" stroke-linejoin="round"/>
</svg>
