<svg xmlns="http://www.w3.org/2000/svg" width="100%" height="100%" viewBox="0 0 100 100" preserveAspectRatio="none">
  <path d="M 57.602,58.803 L 57.831,58.917 L 58.746,59.26 L 67.434,62.347 L 67.777,62.461 L 68.806,62.804 L 72.578,64.176 L 75.551,65.09 L 84.468,68.063 L 89.155,69.663 L 89.155,69.663 L 89.041,70.006 L 88.126,72.864 L 88.126,72.864 L 88.126,72.864 L 59.089,64.404 L 13.017,49.2 L 10.845,48.628 L 10.845,48.628 L 13.36,43.255 L 15.646,38.225 L 15.646,38.225 L 15.989,37.425 L 20.677,27.136 L 23.077,28.05 L 23.192,28.736 L 23.42,30.451 L 23.649,31.48 L 23.992,32.737 L 25.021,34.338 L 30.851,42.912 L 32.452,45.084 L 32.909,45.77 L 36.224,50.457 L 37.825,51.715 L 38.854,52.515 L 40.454,53.201 L 45.37,54.801 L 46.513,55.144 L 52.001,56.974 L 57.602,58.803 Z" fill="rgba(59,130,246,0.25)" fill-rule="evenodd" stroke="rgba(59,130,246,0.9)" stroke-width="0.3" stroke-linejoin="round"/>
</svg>
