<svg xmlns="http://www.w3.org/2000/svg" width="100%" height="100%" viewBox="0 0 100 100" preserveAspectRatio="none">
  <path d="M 41.998,64.976 L 41.998,64.747 L 43.369,54.001 L 43.598,52.172 L 43.598,52.172 L 45.199,41.655 L 45.656,37.082 L 46.57,30.68 L 46.799,28.851 L 52.744,29.536 L 52.744,29.536 L 58.688,30.451 L 58.231,32.509 L 56.173,48.285 L 56.173,48.742 L 56.173,48.742 L 55.716,52.172 L 55.259,53.773 L 55.259,54.916 L 54.801,57.888 L 54.573,60.632 L 54.573,61.318 L 53.887,67.948 L 53.201,67.948 L 48.628,68.177 L 48.4,68.177 L 46.342,68.406 L 46.342,68.406 L 45.427,68.634 L 44.513,68.863 L 43.598,69.32 L 42.912,70.006 L 41.312,71.149 L 41.312,71.149 L 41.312,70.235 L 41.998,64.976 Z" fill="rgba(59,130,246,0.25)" fill-rule="evenodd" stroke="rgba(59,130,246,0.9)" stroke-width="0.3" stroke-linejoin="round"/>
</svg>
