<svg xmlns="http://www.w3.org/2000/svg" width="100%" height="100%" viewBox="0 0 100 100" preserveAspectRatio="none">
  <path d="M 47.942,40.854 L 47.942,40.854 L 49.771,41.312 L 51.829,41.54 L 51.829,41.54 L 57.317,42.455 L 58.46,42.455 L 58.46,42.455 L 63.947,43.369 L 58.46,42.455 L 58.46,42.455 L 57.317,45.884 L 52.744,59.146 L 51.143,58.917 L 44.284,58.231 L 39.025,57.774 L 36.053,56.402 L 36.053,56.402 L 36.053,56.402 L 40.626,46.57 L 41.083,45.199 L 42.683,41.54 L 43.141,41.54 L 43.141,41.54 L 43.141,41.312 L 46.799,40.854 L 46.799,40.854 L 47.942,40.854 L 47.942,40.854 Z" fill="rgba(59,130,246,0.25)" fill-rule="evenodd" stroke="rgba(59,130,246,0.9)" stroke-width="0.3" stroke-linejoin="round"/>
</svg>
