<svg xmlns="http://www.w3.org/2000/svg" width="100%" height="100%" viewBox="0 0 100 100" preserveAspectRatio="none">
  <path d="M 62.575,69.32 L 61.432,68.863 L 46.57,64.29 L 44.97,63.604 L 41.998,62.69 L 30.108,59.031 L 30.108,58.803 L 30.794,56.745 L 31.709,53.315 L 31.937,52.858 L 32.623,51.029 L 33.538,48.285 L 34.91,44.398 L 34.91,43.941 L 35.138,43.712 L 34.91,43.484 L 33.766,41.655 L 32.623,39.597 L 31.023,36.624 L 30.565,35.938 L 30.337,35.481 L 30.108,34.795 L 29.651,33.881 L 29.422,33.652 L 29.422,33.423 L 29.422,32.052 L 29.651,31.366 L 30.337,30.68 L 30.565,30.68 L 35.596,32.966 L 36.967,33.423 L 38.797,34.109 L 41.083,35.024 L 45.199,36.624 L 47.942,37.768 L 48.628,38.225 L 50.686,39.139 L 53.658,40.283 L 54.344,40.511 L 55.259,40.969 L 55.945,41.197 L 56.402,41.426 L 60.518,43.026 L 62.347,43.712 L 65.776,45.084 L 68.749,46.456 L 69.663,46.913 L 70.578,47.142 L 70.121,48.057 L 66.92,56.745 L 65.319,61.546 L 64.404,64.062 L 64.176,64.747 L 63.49,67.034 L 62.575,69.32 L 62.575,69.32 Z" fill="rgba(59,130,246,0.25)" fill-rule="evenodd" stroke="rgba(59,130,246,0.9)" stroke-width="0.3" stroke-linejoin="round"/>
</svg>
