<svg xmlns="http://www.w3.org/2000/svg" width="100%" height="100%" viewBox="0 0 100 100" preserveAspectRatio="none">
  <path d="M 50.915,24.278 L 52.058,26.335 L 52.286,26.564 L 55.945,32.737 L 57.545,35.481 L 59.374,38.454 L 60.518,40.283 L 60.518,40.283 L 63.033,44.17 L 59.832,52.401 L 59.146,54.001 L 57.088,59.26 L 50.915,75.722 L 47.714,74.122 L 41.998,67.263 L 41.998,67.263 L 41.312,66.348 L 41.312,66.348 L 37.425,61.318 L 36.967,60.632 L 36.967,60.632 L 36.967,60.632 L 37.653,58.574 L 38.111,56.745 L 40.168,52.172 L 40.168,51.943 L 41.312,48.742 L 42.683,45.541 L 42.683,45.541 L 43.369,43.484 L 45.199,38.911 L 47.028,33.652 L 47.485,32.737 L 50.0,26.107 L 50.686,24.964 L 50.915,24.278 Z" fill="rgba(59,130,246,0.25)" fill-rule="evenodd" stroke="rgba(59,130,246,0.9)" stroke-width="0.3" stroke-linejoin="round"/>
</svg>
