<svg xmlns="http://www.w3.org/2000/svg" width="100%" height="100%" viewBox="0 0 100 100" preserveAspectRatio="none">
  <path d="M 39.368,43.026 L 39.825,42.569 L 40.511,41.655 L 40.969,41.197 L 41.197,41.197 L 45.999,38.454 L 46.913,38.454 L 46.913,37.539 L 50.572,35.024 L 54.459,32.966 L 55.602,31.823 L 62.918,34.567 L 66.348,42.34 L 65.662,44.856 L 62.69,46.913 L 62.232,51.029 L 62.004,53.773 L 64.747,56.745 L 66.119,60.632 L 63.604,67.491 L 61.775,68.177 L 60.403,67.72 L 60.632,67.491 L 60.403,64.29 L 60.403,66.119 L 33.652,55.83 L 33.652,55.83 L 33.881,55.144 L 36.853,46.913 L 37.082,46.227 L 37.539,44.856 L 37.768,44.398 L 38.225,44.17 L 39.139,43.484 L 39.368,43.026 Z" fill="rgba(59,130,246,0.25)" fill-rule="evenodd" stroke="rgba(59,130,246,0.9)" stroke-width="0.3" stroke-linejoin="round"/>
</svg>
