<svg xmlns="http://www.w3.org/2000/svg" width="100%" height="100%" viewBox="0 0 100 100" preserveAspectRatio="none">
  <path d="M 42.226,48.742 L 42.226,48.742 L 44.741,43.255 L 44.741,43.255 L 45.656,41.426 L 46.342,39.597 L 46.342,39.597 L 48.628,34.338 L 49.314,32.737 L 52.286,33.881 L 54.116,34.795 L 54.116,34.795 L 56.859,35.938 L 59.146,37.082 L 59.374,37.082 L 59.374,37.082 L 60.746,37.539 L 61.889,37.996 L 63.261,38.682 L 60.975,43.484 L 59.146,47.828 L 58.688,48.742 L 56.631,53.544 L 54.344,58.574 L 54.344,58.574 L 53.658,60.175 L 53.658,60.175 L 52.972,62.004 L 52.286,63.376 L 51.143,66.119 L 50.686,66.577 L 50.457,67.263 L 48.857,66.577 L 47.485,66.119 L 47.485,66.119 L 45.656,65.205 L 43.598,64.29 L 40.397,62.918 L 40.397,62.918 L 36.739,61.318 L 36.739,61.318 L 36.967,60.632 L 37.425,60.175 L 38.111,58.345 L 39.254,55.83 L 39.254,55.602 L 39.254,55.602 L 40.168,54.001 L 42.226,48.742 Z" fill="rgba(59,130,246,0.25)" fill-rule="evenodd" stroke="rgba(59,130,246,0.9)" stroke-width="0.3" stroke-linejoin="round"/>
</svg>
