<svg xmlns="http://www.w3.org/2000/svg" width="100%" height="100%" viewBox="0 0 100 100" preserveAspectRatio="none">
  <path d="M 35.138,48.628 L 35.138,47.714 L 35.367,44.97 L 35.367,44.741 L 35.824,41.083 L 35.824,40.168 L 36.053,38.568 L 36.281,38.797 L 36.281,38.797 L 39.482,38.568 L 41.769,38.568 L 43.369,38.339 L 44.741,37.882 L 44.741,37.882 L 46.799,37.425 L 47.256,37.425 L 52.058,36.053 L 52.515,36.053 L 55.716,35.138 L 56.173,34.91 L 57.774,34.452 L 58.46,34.452 L 61.432,33.538 L 63.49,33.08 L 63.719,32.852 L 64.633,32.852 L 64.862,32.852 L 64.633,34.452 L 64.633,37.882 L 64.404,38.111 L 64.176,39.94 L 63.719,43.827 L 63.947,44.97 L 63.947,45.427 L 63.719,45.427 L 62.347,46.342 L 61.432,47.028 L 58.917,48.4 L 57.088,49.314 L 57.088,49.314 L 55.487,50.457 L 54.573,50.915 L 55.03,51.372 L 55.487,51.829 L 62.575,58.688 L 62.575,58.688 L 62.347,59.146 L 62.118,59.374 L 61.432,60.06 L 61.432,60.06 L 59.832,61.661 L 58.46,63.261 L 58.46,63.261 L 58.231,63.719 L 56.173,66.005 L 55.03,67.148 L 54.573,66.691 L 53.43,65.776 L 52.058,64.633 L 52.058,64.404 L 50.229,62.804 L 50.229,62.804 L 47.714,60.518 L 47.714,60.518 L 44.97,58.231 L 44.97,58.231 L 39.94,53.658 L 37.653,51.829 L 36.053,50.229 L 35.138,49.314 L 35.138,48.628 Z" fill="rgba(59,130,246,0.25)" fill-rule="evenodd" stroke="rgba(59,130,246,0.9)" stroke-width="0.3" stroke-linejoin="round"/>
</svg>
