<svg xmlns="http://www.w3.org/2000/svg" width="100%" height="100%" viewBox="0 0 100 100" preserveAspectRatio="none">
  <path d="M 40.054,29.308 L 43.026,27.25 L 43.026,27.25 L 43.026,27.25 L 47.142,32.28 L 64.747,54.23 L 64.976,54.459 L 64.976,54.459 L 64.976,54.459 L 74.122,65.891 L 74.122,65.891 L 74.122,65.891 L 69.32,69.32 L 64.747,72.75 L 63.147,70.464 L 60.861,67.948 L 55.602,61.089 L 51.715,64.062 L 51.486,63.833 L 50.572,62.69 L 49.657,61.546 L 48.742,60.403 L 48.057,59.489 L 47.828,59.26 L 46.913,58.117 L 46.227,56.974 L 45.313,55.83 L 44.398,54.687 L 43.712,53.773 L 42.798,52.629 L 42.112,51.943 L 41.197,50.572 L 31.823,38.682 L 30.908,37.539 L 30.908,37.31 L 30.451,36.853 L 30.451,36.853 L 30.222,36.396 L 29.994,36.167 L 29.765,35.938 L 29.536,35.71 L 29.079,35.024 L 28.851,34.795 L 28.393,34.338 L 28.165,33.881 L 27.936,33.652 L 27.707,33.423 L 27.479,32.966 L 27.25,32.737 L 27.021,32.509 L 26.793,32.28 L 26.564,32.052 L 26.335,31.823 L 26.335,31.594 L 26.107,31.366 L 25.878,31.137 L 25.878,30.908 L 25.878,31.137 L 30.451,36.853 L 30.68,36.853 L 32.966,35.024 L 34.567,33.652 L 37.539,31.366 L 39.597,29.765 L 40.054,29.308 Z" fill="rgba(59,130,246,0.25)" fill-rule="evenodd" stroke="rgba(59,130,246,0.9)" stroke-width="0.3" stroke-linejoin="round"/>
</svg>
