<svg xmlns="http://www.w3.org/2000/svg" width="100%" height="100%" viewBox="0 0 100 100" preserveAspectRatio="none">
  <path d="M 55.487,57.545 L 51.143,60.518 L 49.771,61.432 L 46.57,63.719 L 43.141,58.002 L 42.912,57.774 L 39.482,51.6 L 35.367,44.97 L 36.51,44.284 L 38.797,43.141 L 47.942,39.025 L 52.286,37.196 L 54.344,36.281 L 54.344,36.281 L 55.03,37.196 L 55.487,38.111 L 56.402,39.711 L 56.859,40.168 L 56.859,40.397 L 58.002,41.998 L 58.917,43.369 L 58.917,43.369 L 61.203,46.57 L 61.203,46.57 L 64.176,50.686 L 64.633,51.372 L 60.289,54.344 L 55.716,57.317 L 55.487,57.545 Z" fill="rgba(59,130,246,0.25)" fill-rule="evenodd" stroke="rgba(59,130,246,0.9)" stroke-width="0.3" stroke-linejoin="round"/>
</svg>
