<svg xmlns="http://www.w3.org/2000/svg" width="100%" height="100%" viewBox="0 0 100 100" preserveAspectRatio="none">
  <path d="M 64.29,46.113 L 64.29,46.342 L 64.062,46.799 L 64.062,46.799 L 63.833,47.028 L 63.147,52.515 L 63.147,52.515 L 62.461,57.774 L 59.031,57.088 L 59.031,57.088 L 54.687,56.631 L 54.687,56.631 L 49.428,55.716 L 49.428,55.716 L 48.971,55.716 L 47.599,55.487 L 47.599,55.487 L 44.398,55.03 L 44.17,55.03 L 41.883,54.801 L 41.883,54.801 L 35.71,54.116 L 35.71,52.972 L 36.167,48.857 L 36.396,47.028 L 36.853,43.598 L 37.082,42.226 L 37.996,42.455 L 39.139,42.455 L 42.798,42.912 L 43.026,42.912 L 43.712,43.141 L 44.627,43.141 L 48.742,43.827 L 49.2,43.827 L 50.114,44.055 L 54.687,44.741 L 54.916,44.741 L 56.059,44.97 L 59.946,45.427 L 60.403,45.427 L 63.376,45.884 L 64.29,46.113 Z" fill="rgba(59,130,246,0.25)" fill-rule="evenodd" stroke="rgba(59,130,246,0.9)" stroke-width="0.3" stroke-linejoin="round"/>
</svg>
