<svg xmlns="http://www.w3.org/2000/svg" width="100%" height="100%" viewBox="0 0 100 100" preserveAspectRatio="none">
  <path d="M 34.452,63.49 L 44.284,41.769 L 49.771,29.651 L 50.457,28.279 L 50.686,28.279 L 52.058,28.965 L 55.487,30.337 L 60.975,32.852 L 60.975,32.852 L 64.633,34.452 L 66.234,35.138 L 66.005,35.824 L 65.776,36.51 L 63.49,41.769 L 63.261,42.226 L 62.347,44.284 L 61.203,46.799 L 60.518,48.628 L 59.146,51.6 L 58.46,53.201 L 57.545,55.259 L 57.088,56.402 L 55.945,59.146 L 55.716,59.832 L 54.573,62.118 L 54.344,62.575 L 54.344,62.804 L 52.286,67.605 L 51.143,70.578 L 50.686,71.264 L 50.457,71.721 L 50.457,71.721 L 49.085,71.264 L 45.199,69.663 L 44.741,69.435 L 44.513,69.435 L 44.284,69.435 L 39.254,67.148 L 39.254,67.148 L 35.138,65.319 L 33.766,64.633 L 34.452,63.49 Z" fill="rgba(59,130,246,0.25)" fill-rule="evenodd" stroke="rgba(59,130,246,0.9)" stroke-width="0.3" stroke-linejoin="round"/>
</svg>
