<svg xmlns="http://www.w3.org/2000/svg" width="100%" height="100%" viewBox="0 0 100 100" preserveAspectRatio="none">
  <path d="M 67.948,37.768 L 67.034,40.969 L 65.205,43.712 L 63.147,46.456 L 60.861,49.657 L 59.031,52.629 L 58.803,52.858 L 60.403,52.629 L 61.089,54.687 L 51.029,59.489 L 51.029,59.489 L 51.029,59.489 L 51.029,59.489 L 49.657,59.946 L 47.599,61.546 L 47.142,62.918 L 44.627,64.29 L 32.052,58.803 L 35.253,58.803 L 36.396,59.489 L 36.624,59.717 L 38.225,60.861 L 40.283,60.861 L 41.197,60.861 L 43.255,60.861 L 45.999,58.803 L 49.2,56.516 L 50.114,57.431 L 52.629,56.745 L 52.629,56.059 L 52.172,54.459 L 53.087,53.315 L 54.687,51.258 L 55.83,50.114 L 56.974,48.514 L 59.031,46.227 L 61.775,42.798 L 63.376,42.34 L 63.604,40.054 L 64.29,39.139 L 66.119,36.624 L 66.119,37.31 L 67.263,35.71 L 67.948,37.768 Z" fill="rgba(59,130,246,0.25)" fill-rule="evenodd" stroke="rgba(59,130,246,0.9)" stroke-width="0.3" stroke-linejoin="round"/>
</svg>
