<svg xmlns="http://www.w3.org/2000/svg" width="100%" height="100%" viewBox="0 0 100 100" preserveAspectRatio="none">
  <path d="M 73.55,62.347 L 71.95,62.804 L 68.52,63.947 L 64.862,65.319 L 64.633,65.319 L 58.688,67.605 L 55.945,68.749 L 55.716,68.749 L 50.686,71.492 L 50.686,71.492 L 41.54,60.06 L 41.54,60.06 L 41.54,60.06 L 41.312,59.832 L 23.706,37.882 L 19.591,32.852 L 19.591,32.852 L 19.362,32.623 L 19.362,32.623 L 22.106,30.337 L 22.563,29.651 L 23.02,29.194 L 24.163,28.508 L 23.249,31.023 L 22.334,33.538 L 24.849,36.51 L 25.535,37.425 L 27.364,39.711 L 28.965,41.998 L 31.023,44.284 L 36.281,50.686 L 38.797,48.171 L 39.254,48.628 L 41.998,51.6 L 44.284,49.085 L 44.741,49.314 L 47.256,50.686 L 48.857,51.372 L 50.915,51.372 L 51.829,51.143 L 53.201,55.487 L 57.545,53.887 L 57.545,53.658 L 59.603,60.518 L 67.148,61.203 L 74.465,60.289 L 80.409,57.774 L 80.638,59.374 L 73.55,62.347 Z" fill="rgba(59,130,246,0.25)" fill-rule="evenodd" stroke="rgba(59,130,246,0.9)" stroke-width="0.3" stroke-linejoin="round"/>
</svg>
