<svg xmlns="http://www.w3.org/2000/svg" width="100%" height="100%" viewBox="0 0 100 100" preserveAspectRatio="none">
  <path d="M 36.396,77.666 L 35.71,67.834 L 41.655,50.457 L 41.197,50.229 L 42.112,47.256 L 42.798,45.656 L 43.484,42.912 L 44.627,39.94 L 45.541,37.425 L 45.999,35.824 L 47.142,32.852 L 47.599,33.08 L 51.029,22.334 L 51.715,22.792 L 54.001,23.706 L 56.974,25.078 L 57.202,25.078 L 57.202,25.078 L 60.632,26.678 L 62.461,27.364 L 64.29,28.279 L 64.29,28.279 L 64.29,28.279 L 64.062,28.965 L 64.062,28.965 L 62.918,31.709 L 61.775,35.596 L 61.775,35.596 L 61.089,37.425 L 60.403,39.025 L 60.403,39.025 L 59.489,41.998 L 58.117,46.113 L 58.117,46.342 L 57.888,46.57 L 57.888,46.57 L 57.202,48.628 L 56.745,50.229 L 56.745,50.457 L 56.059,51.829 L 55.602,53.658 L 55.602,53.658 L 54.916,55.487 L 54.459,56.631 L 54.459,56.631 L 54.001,58.46 L 53.315,60.06 L 53.315,60.289 L 52.629,62.118 L 52.172,63.719 L 52.172,63.947 L 51.943,64.862 L 51.486,66.234 L 51.486,66.462 L 51.486,66.92 L 51.486,66.92 L 51.258,68.977 L 51.029,71.264 L 51.029,75.151 L 51.029,76.523 L 51.029,76.751 L 48.971,76.98 L 44.398,77.208 L 43.484,77.208 L 43.255,77.208 L 36.853,77.666 L 36.624,77.666 L 36.396,77.666 Z" fill="rgba(59,130,246,0.25)" fill-rule="evenodd" stroke="rgba(59,130,246,0.9)" stroke-width="0.3" stroke-linejoin="round"/>
</svg>
