<svg xmlns="http://www.w3.org/2000/svg" width="100%" height="100%" viewBox="0 0 100 100" preserveAspectRatio="none">
  <path d="M 55.602,35.824 L 59.26,40.854 L 59.26,40.854 L 59.946,41.998 L 60.861,43.141 L 62.004,44.741 L 62.918,46.113 L 63.376,46.799 L 62.69,47.485 L 62.004,47.942 L 61.546,48.857 L 59.946,52.972 L 59.031,55.03 L 57.66,58.231 L 57.66,58.46 L 57.202,59.603 L 56.745,60.518 L 56.059,62.118 L 55.602,63.033 L 54.687,64.862 L 53.087,68.749 L 52.629,69.892 L 52.401,70.349 L 50.8,69.663 L 47.142,68.063 L 47.142,68.063 L 41.655,65.548 L 38.225,64.176 L 36.853,63.49 L 36.624,63.49 L 37.31,62.347 L 41.655,52.744 L 46.685,41.312 L 51.715,30.337 L 51.715,30.337 L 51.943,29.651 L 51.943,29.651 L 52.172,29.879 L 51.943,30.565 L 51.943,30.565 L 53.315,32.395 L 54.459,33.995 L 55.602,35.824 Z" fill="rgba(59,130,246,0.25)" fill-rule="evenodd" stroke="rgba(59,130,246,0.9)" stroke-width="0.3" stroke-linejoin="round"/>
</svg>
