<svg xmlns="http://www.w3.org/2000/svg" width="100%" height="100%" viewBox="0 0 100 100" preserveAspectRatio="none">
  <path d="M 52.172,58.803 L 48.971,57.202 L 47.599,56.516 L 44.627,54.916 L 43.026,54.23 L 41.883,53.544 L 40.054,52.629 L 36.624,51.029 L 32.737,48.971 L 31.137,48.285 L 29.994,47.599 L 32.509,42.112 L 34.109,37.768 L 35.253,35.253 L 36.853,36.167 L 41.655,38.454 L 41.883,38.454 L 42.569,38.911 L 47.599,41.426 L 47.599,41.426 L 49.2,42.112 L 50.343,42.798 L 52.401,43.712 L 56.745,45.999 L 57.202,46.227 L 57.888,46.456 L 58.803,46.913 L 59.946,47.599 L 67.263,51.029 L 67.72,51.486 L 68.634,51.943 L 69.778,52.629 L 69.778,52.629 L 70.006,52.629 L 64.29,64.747 L 62.69,64.062 L 54.459,59.946 L 53.315,59.489 L 53.315,59.26 L 52.401,58.803 L 52.172,58.803 Z" fill="rgba(59,130,246,0.25)" fill-rule="evenodd" stroke="rgba(59,130,246,0.9)" stroke-width="0.3" stroke-linejoin="round"/>
</svg>
