<svg xmlns="http://www.w3.org/2000/svg" width="100%" height="100%" viewBox="0 0 100 100" preserveAspectRatio="none">
  <path d="M 43.598,67.263 L 38.339,64.976 L 36.51,64.062 L 36.51,64.062 L 36.739,63.376 L 36.739,62.918 L 39.025,57.888 L 43.369,48.057 L 43.598,47.371 L 43.598,47.371 L 45.656,42.569 L 46.799,39.825 L 48.4,36.167 L 48.4,36.167 L 49.771,32.966 L 50.229,32.052 L 50.686,30.908 L 50.915,30.451 L 50.915,30.451 L 50.915,30.451 L 58.231,33.652 L 63.49,35.938 L 63.49,35.938 L 61.203,41.426 L 59.603,45.313 L 58.231,48.514 L 57.545,50.114 L 57.545,50.114 L 56.173,52.858 L 54.116,57.431 L 53.43,59.031 L 53.43,59.26 L 52.286,62.004 L 51.829,62.69 L 51.143,64.062 L 48.857,69.549 L 48.857,69.549 L 43.598,67.263 Z" fill="rgba(59,130,246,0.25)" fill-rule="evenodd" stroke="rgba(59,130,246,0.9)" stroke-width="0.3" stroke-linejoin="round"/>
</svg>
