<svg xmlns="http://www.w3.org/2000/svg" width="100%" height="100%" viewBox="0 0 100 100" preserveAspectRatio="none">
  <path d="M 43.255,70.349 L 42.569,68.977 L 42.112,67.148 L 41.655,64.404 L 40.74,60.746 L 39.139,55.03 L 37.768,50.457 L 35.938,46.113 L 35.938,45.656 L 34.795,42.226 L 34.795,40.397 L 35.481,37.653 L 35.938,36.51 L 37.768,34.91 L 40.74,32.166 L 44.398,28.965 L 44.627,28.965 L 44.627,28.965 L 44.627,28.965 L 44.856,28.965 L 44.856,28.965 L 45.084,29.194 L 45.084,29.194 L 46.913,31.48 L 48.971,33.538 L 49.428,33.995 L 50.8,35.367 L 52.858,37.425 L 53.087,37.425 L 53.087,37.653 L 53.773,38.111 L 54.916,39.025 L 59.717,43.141 L 60.175,43.598 L 65.205,48.171 L 64.747,48.857 L 64.519,49.085 L 58.574,55.259 L 57.431,56.631 L 52.172,62.575 L 51.715,63.261 L 45.999,68.977 L 44.17,70.349 L 43.484,71.035 L 43.255,70.349 Z" fill="rgba(59,130,246,0.25)" fill-rule="evenodd" stroke="rgba(59,130,246,0.9)" stroke-width="0.3" stroke-linejoin="round"/>
</svg>
