<svg xmlns="http://www.w3.org/2000/svg" width="100%" height="100%" viewBox="0 0 100 100" preserveAspectRatio="none">
  <path d="M 53.544,74.122 L 47.828,71.607 L 44.17,70.006 L 42.34,69.092 L 40.969,68.406 L 40.74,68.406 L 35.253,66.119 L 31.594,64.29 L 29.536,63.376 L 29.536,63.376 L 29.994,62.461 L 31.594,58.803 L 31.594,58.803 L 34.109,53.087 L 34.109,53.087 L 36.167,48.514 L 36.167,48.514 L 37.082,46.227 L 37.082,46.227 L 38.454,43.255 L 40.969,37.768 L 42.34,34.795 L 45.77,26.564 L 45.999,26.564 L 46.227,25.878 L 49.886,27.479 L 50.572,27.707 L 53.087,28.851 L 54.687,29.536 L 54.916,29.765 L 55.144,29.765 L 58.803,31.366 L 58.803,31.366 L 61.546,32.509 L 61.546,32.737 L 66.348,34.795 L 70.235,36.396 L 70.464,36.396 L 70.235,36.624 L 68.406,41.197 L 68.177,41.426 L 66.119,45.999 L 66.119,45.999 L 63.376,52.172 L 57.888,64.747 L 55.83,69.549 L 54.23,72.75 L 53.544,74.122 Z" fill="rgba(59,130,246,0.25)" fill-rule="evenodd" stroke="rgba(59,130,246,0.9)" stroke-width="0.3" stroke-linejoin="round"/>
</svg>
