<svg xmlns="http://www.w3.org/2000/svg" width="100%" height="100%" viewBox="0 0 100 100" preserveAspectRatio="none">
  <path d="M 67.263,67.263 L 67.263,67.263 L 67.263,67.263 L 66.119,66.805 L 58.803,63.376 L 58.117,63.147 L 55.144,61.775 L 54.916,61.546 L 52.629,60.632 L 52.172,60.403 L 49.428,59.26 L 49.428,59.26 L 48.514,59.031 L 44.398,57.66 L 43.712,57.431 L 32.737,52.172 L 34.795,47.828 L 37.082,42.798 L 37.082,42.798 L 37.31,42.569 L 40.511,35.253 L 41.655,32.737 L 41.655,32.737 L 41.883,32.966 L 48.514,37.539 L 55.83,42.34 L 57.66,43.712 L 64.976,48.742 L 66.805,50.114 L 67.034,50.114 L 65.433,52.401 L 65.662,55.373 L 66.119,57.888 L 67.034,65.433 L 67.263,67.263 Z" fill="rgba(59,130,246,0.25)" fill-rule="evenodd" stroke="rgba(59,130,246,0.9)" stroke-width="0.3" stroke-linejoin="round"/>
</svg>
