<svg xmlns="http://www.w3.org/2000/svg" width="100%" height="100%" viewBox="0 0 100 100" preserveAspectRatio="none">
  <path d="M 65.09,39.254 L 64.404,39.94 L 64.176,40.397 L 63.947,40.854 L 62.804,43.141 L 60.289,49.085 L 58.231,54.116 L 58.231,54.344 L 53.887,63.947 L 53.201,65.548 L 53.201,65.548 L 50.686,71.721 L 42.683,68.291 L 41.083,67.605 L 34.91,65.09 L 34.91,65.09 L 37.653,58.46 L 39.254,54.344 L 39.711,53.658 L 41.54,49.085 L 42.683,46.799 L 43.369,44.741 L 44.97,41.083 L 45.656,39.711 L 47.714,34.91 L 50.229,28.736 L 50.686,28.279 L 50.686,28.279 L 52.744,29.194 L 54.801,30.108 L 54.801,30.108 L 57.088,31.023 L 57.545,31.251 L 57.774,31.023 L 58.688,30.794 L 59.603,32.166 L 62.347,35.824 L 63.947,38.111 L 65.09,39.254 Z" fill="rgba(59,130,246,0.25)" fill-rule="evenodd" stroke="rgba(59,130,246,0.9)" stroke-width="0.3" stroke-linejoin="round"/>
</svg>
