<svg xmlns="http://www.w3.org/2000/svg" width="100%" height="100%" viewBox="0 0 100 100" preserveAspectRatio="none">
  <path d="M 63.947,63.376 L 63.147,63.033 L 60.861,62.118 L 60.861,62.118 L 59.146,61.432 L 57.202,60.632 L 57.202,60.632 L 54.116,59.374 L 51.029,58.117 L 50.915,58.002 L 50.915,58.002 L 47.256,56.402 L 47.256,56.288 L 47.256,56.288 L 47.142,56.288 L 47.028,56.288 L 45.313,55.487 L 45.199,55.373 L 45.199,55.373 L 38.454,52.515 L 38.339,52.515 L 36.853,51.715 L 31.594,49.657 L 31.594,49.657 L 28.851,48.514 L 27.25,47.714 L 27.136,47.714 L 26.45,47.371 L 26.335,47.371 L 25.421,46.913 L 25.307,46.913 L 25.307,46.913 L 25.878,45.541 L 26.678,43.827 L 26.678,43.827 L 28.851,39.139 L 28.851,39.139 L 29.765,39.597 L 32.395,40.74 L 35.024,41.883 L 35.024,41.883 L 37.882,43.141 L 38.797,43.484 L 41.083,44.513 L 41.083,44.513 L 41.197,44.513 L 41.769,44.856 L 41.769,44.741 L 42.455,45.084 L 42.569,45.199 L 46.57,46.913 L 46.57,46.913 L 48.171,47.714 L 48.514,47.828 L 48.514,47.828 L 51.258,49.085 L 51.829,49.314 L 54.23,50.457 L 54.23,50.457 L 60.518,53.201 L 61.889,50.0 L 62.118,49.657 L 62.118,49.543 L 63.833,45.77 L 63.833,45.77 L 65.548,41.769 L 65.662,41.54 L 65.776,41.426 L 67.948,36.51 L 72.407,38.454 L 73.55,38.911 L 74.693,39.482 L 72.979,43.369 L 71.149,47.371 L 70.578,48.514 L 69.663,50.686 L 69.663,50.8 L 68.749,52.629 L 67.491,55.716 L 67.491,55.716 L 67.263,56.173 L 67.263,56.173 L 67.263,56.288 L 67.263,56.288 L 65.205,60.861 L 64.062,63.376 L 63.947,63.49 L 63.947,63.376 Z" fill="rgba(59,130,246,0.25)" fill-rule="evenodd" stroke="rgba(59,130,246,0.9)" stroke-width="0.3" stroke-linejoin="round"/>
</svg>
