<svg xmlns="http://www.w3.org/2000/svg" width="100%" height="100%" viewBox="0 0 100 100" preserveAspectRatio="none">
  <path d="M 42.455,71.835 L 38.568,67.263 L 36.053,65.205 L 39.482,60.861 L 39.94,59.946 L 39.482,56.288 L 39.482,56.059 L 39.254,54.001 L 38.797,51.029 L 38.797,51.029 L 37.425,40.054 L 37.196,38.682 L 37.196,38.682 L 37.196,37.996 L 36.053,30.222 L 36.053,29.994 L 36.053,29.994 L 36.053,29.994 L 38.797,29.765 L 39.254,29.536 L 42.226,29.308 L 45.884,28.851 L 47.256,28.622 L 47.256,28.622 L 50.457,28.165 L 52.058,28.165 L 52.058,28.165 L 52.515,29.765 L 54.801,36.167 L 55.03,36.624 L 57.774,44.17 L 57.774,44.17 L 60.518,51.715 L 60.975,52.629 L 63.947,60.861 L 59.832,62.461 L 55.945,64.062 L 49.085,67.034 L 47.028,67.948 L 42.455,71.835 Z" fill="rgba(59,130,246,0.25)" fill-rule="evenodd" stroke="rgba(59,130,246,0.9)" stroke-width="0.3" stroke-linejoin="round"/>
</svg>
