<svg xmlns="http://www.w3.org/2000/svg" width="100%" height="100%" viewBox="0 0 100 100" preserveAspectRatio="none">
  <path d="M 45.084,22.334 L 45.084,22.334 L 52.401,25.307 L 53.087,25.764 L 55.83,27.136 L 62.918,31.251 L 67.034,33.995 L 67.034,33.995 L 77.78,40.626 L 80.295,42.226 L 81.21,42.912 L 81.21,42.912 L 79.152,45.656 L 79.609,47.028 L 83.953,61.661 L 85.554,66.691 L 85.554,66.691 L 85.554,66.691 L 75.951,70.806 L 70.235,72.636 L 64.976,74.236 L 61.318,75.379 L 61.318,75.379 L 60.403,75.151 L 58.345,74.236 L 54.001,72.636 L 49.886,70.806 L 45.77,68.749 L 44.627,68.291 L 42.34,67.377 L 38.911,66.234 L 37.539,65.776 L 37.539,66.462 L 37.539,67.148 L 37.31,68.063 L 37.31,68.977 L 36.624,71.492 L 35.71,75.379 L 35.71,75.608 L 35.253,77.666 L 35.024,79.495 L 35.024,79.724 L 35.024,79.724 L 34.567,79.495 L 34.338,79.495 L 33.423,79.495 L 32.28,79.495 L 29.994,79.724 L 28.165,79.952 L 24.506,80.181 L 23.363,80.409 L 22.22,80.409 L 22.22,80.409 L 18.104,80.409 L 14.446,79.266 L 16.733,73.093 L 21.077,61.661 L 22.906,56.631 L 24.049,54.116 L 25.421,50.229 L 31.823,33.538 L 32.737,30.794 L 33.195,29.651 L 35.481,22.563 L 37.539,19.591 L 45.084,22.334 Z M 43.712,63.719 L 43.712,63.719 L 45.999,65.548 L 48.971,66.92 L 50.343,63.49 L 50.343,63.49 L 52.172,59.146 L 52.401,58.917 L 54.916,60.06 L 57.888,53.43 L 53.544,51.6 L 53.544,51.6 L 53.087,51.372 L 49.428,49.771 L 49.2,50.0 L 41.655,46.799 L 41.426,46.57 L 37.082,57.774 L 38.454,58.002 L 38.682,58.002 L 39.597,60.746 L 39.368,62.575 L 42.112,63.261 L 42.112,63.033 L 42.569,63.261 L 43.712,63.719 Z M 32.966,56.859 L 33.423,56.859 L 32.966,56.859 L 32.966,56.859 Z M 32.966,56.859 L 31.137,56.402 L 32.966,56.859 L 32.966,56.859 Z M 30.222,66.462 L 29.765,66.234 L 30.222,66.462 L 30.222,66.462 L 30.222,66.234 L 30.222,66.462 Z" fill="rgba(59,130,246,0.25)" fill-rule="evenodd" stroke="rgba(59,130,246,0.9)" stroke-width="0.3" stroke-linejoin="round"/>
</svg>
