<svg xmlns="http://www.w3.org/2000/svg" width="100%" height="100%" viewBox="0 0 100 100" preserveAspectRatio="none">
  <path d="M 48.171,65.433 L 45.884,63.376 L 43.827,61.546 L 43.369,61.089 L 43.141,60.861 L 42.912,60.632 L 40.854,58.803 L 38.339,56.516 L 38.568,56.059 L 39.025,55.144 L 39.94,53.544 L 41.54,51.258 L 43.369,48.285 L 44.284,46.913 L 45.656,44.856 L 46.113,44.17 L 46.799,43.026 L 47.485,41.883 L 49.085,39.139 L 50.686,36.624 L 51.6,35.481 L 52.058,34.567 L 52.515,35.71 L 53.887,36.853 L 54.801,37.768 L 56.859,40.054 L 56.859,40.054 L 59.146,42.569 L 61.432,45.313 L 61.661,45.313 L 61.203,45.999 L 57.774,50.8 L 54.801,55.373 L 51.829,60.175 L 49.085,64.29 L 48.628,64.976 L 48.171,65.433 Z" fill="rgba(59,130,246,0.25)" fill-rule="evenodd" stroke="rgba(59,130,246,0.9)" stroke-width="0.3" stroke-linejoin="round"/>
</svg>
