<svg xmlns="http://www.w3.org/2000/svg" width="100%" height="100%" viewBox="0 0 100 100" preserveAspectRatio="none">
  <path d="M 32.966,70.235 L 33.881,67.72 L 35.938,62.004 L 37.768,56.516 L 37.768,56.516 L 37.768,56.059 L 41.197,46.227 L 41.197,46.227 L 41.197,46.227 L 43.026,41.197 L 43.484,39.597 L 44.856,35.481 L 48.514,24.506 L 48.742,24.049 L 49.2,22.677 L 49.886,20.391 L 52.629,12.16 L 55.144,13.074 L 57.431,13.76 L 60.632,14.903 L 62.461,15.361 L 62.461,15.361 L 67.948,17.418 L 68.177,17.418 L 68.406,17.418 L 68.177,18.104 L 67.263,21.305 L 67.034,21.763 L 66.805,21.763 L 65.891,24.278 L 66.119,24.506 L 65.205,27.021 L 64.29,29.765 L 64.062,30.451 L 65.891,31.137 L 65.891,31.137 L 62.461,41.883 L 62.004,41.655 L 60.861,44.627 L 60.403,46.227 L 59.489,48.742 L 58.345,51.715 L 57.66,54.459 L 56.974,56.059 L 56.059,59.031 L 56.516,59.26 L 52.172,71.607 L 51.943,72.293 L 50.572,76.637 L 51.258,86.468 L 48.514,86.926 L 47.599,86.926 L 47.371,86.926 L 45.313,87.154 L 45.313,87.154 L 41.426,87.383 L 41.197,87.383 L 39.139,87.383 L 38.911,87.383 L 35.253,87.612 L 32.28,87.84 L 32.28,85.783 L 32.28,85.783 L 31.823,81.21 L 31.594,75.265 L 31.823,73.893 L 32.052,72.979 L 32.966,70.235 Z" fill="rgba(59,130,246,0.25)" fill-rule="evenodd" stroke="rgba(59,130,246,0.9)" stroke-width="0.3" stroke-linejoin="round"/>
</svg>
