<svg xmlns="http://www.w3.org/2000/svg" width="100%" height="100%" viewBox="0 0 100 100" preserveAspectRatio="none">
  <path d="M 58.46,59.489 L 56.631,59.031 L 54.344,58.574 L 52.286,58.117 L 50.229,57.888 L 48.4,57.66 L 47.028,57.66 L 45.884,57.431 L 44.284,57.431 L 42.912,57.66 L 41.54,57.66 L 40.854,57.66 L 39.711,57.888 L 39.025,58.117 L 37.882,58.345 L 33.995,59.031 L 32.166,59.489 L 31.937,59.489 L 35.367,56.059 L 37.882,53.315 L 45.656,49.657 L 45.884,49.428 L 52.286,46.456 L 57.317,43.941 L 65.319,40.054 L 66.92,39.597 L 68.063,39.368 L 67.834,41.426 L 67.148,44.627 L 63.033,57.66 L 62.118,60.632 L 61.203,60.403 L 58.46,59.489 Z" fill="rgba(59,130,246,0.25)" fill-rule="evenodd" stroke="rgba(59,130,246,0.9)" stroke-width="0.3" stroke-linejoin="round"/>
</svg>
