<svg xmlns="http://www.w3.org/2000/svg" width="100%" height="100%" viewBox="0 0 100 100" preserveAspectRatio="none">
  <path d="M 32.623,47.714 L 41.083,44.97 L 41.312,44.97 L 54.801,40.626 L 57.774,39.711 L 63.947,37.653 L 67.377,36.51 L 66.234,38.111 L 64.176,40.397 L 63.033,41.769 L 60.975,44.055 L 60.518,44.741 L 57.545,47.714 L 53.887,51.829 L 51.6,54.344 L 49.771,56.402 L 49.085,57.088 L 48.171,58.231 L 45.884,60.746 L 45.199,61.432 L 43.827,63.033 L 43.369,63.49 L 39.025,59.603 L 38.568,59.374 L 35.367,56.402 L 35.138,56.173 L 33.766,54.801 L 33.766,54.801 L 33.08,51.143 L 32.623,48.628 L 32.623,47.714 Z" fill="rgba(59,130,246,0.25)" fill-rule="evenodd" stroke="rgba(59,130,246,0.9)" stroke-width="0.3" stroke-linejoin="round"/>
</svg>
