<svg xmlns="http://www.w3.org/2000/svg" width="100%" height="100%" viewBox="0 0 100 100" preserveAspectRatio="none">
  <path d="M 57.745,73.464 L 57.459,73.35 L 56.659,73.007 L 55.973,72.721 L 54.887,72.264 L 53.973,71.921 L 53.001,71.521 L 52.829,71.464 L 52.544,71.292 L 51.801,71.007 L 50.886,70.549 L 49.514,69.863 L 49.057,69.635 L 48.943,69.578 L 48.371,69.292 L 47.456,68.892 L 46.027,68.206 L 45.113,67.806 L 43.97,67.291 L 43.798,67.234 L 43.569,67.177 L 43.569,67.005 L 43.341,65.576 L 43.341,65.462 L 43.226,64.89 L 43.226,64.833 L 43.226,64.776 L 43.169,64.376 L 43.112,64.319 L 42.998,63.404 L 42.998,63.404 L 42.941,63.118 L 42.883,62.547 L 42.826,62.089 L 42.826,62.032 L 42.769,61.861 L 42.769,61.747 L 42.655,61.003 L 42.598,60.603 L 42.483,59.917 L 42.426,59.517 L 42.369,59.174 L 42.312,59.003 L 42.312,58.774 L 42.198,58.26 L 42.198,58.088 L 40.997,50.2 L 40.94,49.857 L 40.94,49.857 L 42.14,49.686 L 42.026,46.656 L 41.912,46.37 L 41.855,46.027 L 41.397,39.111 L 41.397,38.482 L 41.34,37.053 L 41.34,36.31 L 40.826,35.51 L 40.597,35.11 L 40.368,34.367 L 39.968,33.509 L 39.911,33.452 L 38.368,31.337 L 37.625,30.137 L 37.968,28.65 L 38.082,28.136 L 38.196,27.622 L 38.368,26.879 L 39.625,26.936 L 40.025,25.049 L 38.882,24.764 L 38.882,24.706 L 38.596,24.592 L 35.224,23.392 L 37.167,24.078 L 37.282,24.135 L 38.253,24.478 L 39.111,24.764 L 39.683,24.935 L 40.025,24.992 L 40.14,24.992 L 42.026,25.335 L 42.826,25.735 L 43.627,26.135 L 45.399,26.707 L 48.485,27.622 L 48.542,27.507 L 49.743,27.907 L 51.0,28.25 L 51.343,28.365 L 51.286,28.479 L 51.115,28.422 L 50.829,28.479 L 50.772,28.422 L 50.2,28.422 L 49.914,28.536 L 49.914,28.536 L 49.8,28.822 L 49.571,28.936 L 48.885,28.536 L 48.085,28.479 L 47.342,33.509 L 47.342,36.367 L 47.571,36.539 L 47.685,38.082 L 47.056,38.596 L 46.256,38.768 L 43.741,39.74 L 43.398,40.254 L 43.226,40.483 L 42.14,40.654 L 42.026,41.283 L 42.083,44.655 L 42.083,45.856 L 42.198,46.199 L 42.255,46.313 L 42.312,46.485 L 42.369,46.485 L 42.541,46.485 L 42.541,46.485 L 42.883,46.427 L 43.169,46.427 L 43.112,45.57 L 42.941,43.912 L 45.341,44.084 L 47.628,44.198 L 47.742,44.37 L 47.799,44.541 L 47.971,45.113 L 47.914,45.97 L 50.6,45.742 L 50.6,46.485 L 48.142,47.856 L 47.742,49.457 L 48.257,52.086 L 48.542,53.744 L 48.828,55.859 L 49.228,58.946 L 50.429,59.46 L 51.229,59.803 L 53.573,60.489 L 57.002,61.461 L 57.345,61.689 L 57.917,68.892 L 57.974,69.749 L 59.517,71.407 L 60.603,72.607 L 61.461,73.636 L 61.575,73.75 L 62.204,74.15 L 62.775,74.55 L 63.347,74.893 L 64.033,75.351 L 64.605,75.751 L 64.776,75.865 L 64.376,76.608 L 64.204,76.494 L 63.69,76.265 L 62.947,75.865 L 61.518,75.122 L 60.203,74.436 L 59.917,74.322 L 59.346,73.979 L 59.231,73.922 L 58.431,73.522 L 58.317,73.407 L 58.317,73.407 L 58.031,73.35 L 57.802,73.407 L 57.745,73.464 Z" fill="rgba(59,130,246,0.25)" fill-rule="evenodd" stroke="rgba(59,130,246,0.9)" stroke-width="0.3" stroke-linejoin="round"/>
</svg>
