<svg xmlns="http://www.w3.org/2000/svg" width="100%" height="100%" viewBox="0 0 100 100" preserveAspectRatio="none">
  <path d="M 36.281,47.942 L 35.824,46.57 L 35.367,45.427 L 36.967,44.055 L 40.626,39.94 L 41.54,39.025 L 41.54,38.797 L 44.055,36.053 L 44.284,35.824 L 44.741,36.281 L 45.427,36.967 L 50.457,41.54 L 50.457,41.54 L 54.573,45.427 L 55.259,45.884 L 59.146,49.543 L 60.06,50.229 L 64.404,54.116 L 64.633,54.116 L 64.633,54.344 L 62.118,57.088 L 61.889,57.088 L 55.716,64.176 L 55.259,63.719 L 50.915,60.06 L 47.714,57.088 L 45.884,55.259 L 45.199,54.801 L 42.226,52.286 L 41.083,51.143 L 40.168,50.229 L 39.025,49.085 L 37.196,48.4 L 36.281,47.942 Z" fill="rgba(59,130,246,0.25)" fill-rule="evenodd" stroke="rgba(59,130,246,0.9)" stroke-width="0.3" stroke-linejoin="round"/>
</svg>
