<svg xmlns="http://www.w3.org/2000/svg" width="100%" height="100%" viewBox="0 0 100 100" preserveAspectRatio="none">
  <path d="M 40.283,70.121 L 35.938,41.312 L 34.795,33.309 L 34.795,33.309 L 34.795,33.309 L 34.795,32.852 L 37.539,32.623 L 37.768,32.395 L 39.825,32.166 L 42.34,31.937 L 42.569,31.937 L 42.569,31.937 L 48.057,31.023 L 48.057,31.023 L 48.057,31.023 L 50.572,30.794 L 51.029,30.794 L 58.117,29.879 L 59.489,29.651 L 59.717,30.565 L 59.946,31.48 L 60.175,32.852 L 60.175,33.766 L 60.632,37.196 L 61.089,40.168 L 61.318,41.998 L 61.546,43.141 L 61.775,43.598 L 62.004,44.97 L 62.461,47.942 L 62.918,50.457 L 63.147,52.286 L 63.833,57.545 L 64.062,58.231 L 64.519,62.118 L 64.747,63.261 L 65.205,66.234 L 64.519,66.462 L 63.376,66.691 L 60.861,66.92 L 55.602,67.834 L 54.459,67.834 L 53.773,68.063 L 48.742,68.749 L 43.484,69.663 L 43.026,69.892 L 40.283,70.349 L 40.283,70.121 Z" fill="rgba(59,130,246,0.25)" fill-rule="evenodd" stroke="rgba(59,130,246,0.9)" stroke-width="0.3" stroke-linejoin="round"/>
</svg>
