<svg xmlns="http://www.w3.org/2000/svg" width="100%" height="100%" viewBox="0 0 100 100" preserveAspectRatio="none">
  <path d="M 35.138,64.862 L 35.138,64.862 L 36.967,60.975 L 39.254,55.945 L 41.312,51.372 L 50.686,30.794 L 50.686,30.794 L 52.515,31.48 L 54.573,32.623 L 59.603,34.91 L 60.746,35.367 L 63.261,36.739 L 63.947,36.967 L 64.862,37.425 L 62.804,42.226 L 60.975,46.113 L 60.975,46.113 L 59.603,49.085 L 57.317,53.887 L 57.317,53.887 L 57.088,54.573 L 56.859,55.716 L 56.631,56.173 L 56.402,56.402 L 55.03,58.002 L 52.972,60.289 L 51.6,61.432 L 51.6,61.432 L 48.4,64.862 L 46.342,67.148 L 45.199,68.52 L 44.741,69.206 L 44.513,68.977 L 44.055,68.977 L 43.369,68.52 L 40.168,67.148 L 38.111,66.234 L 35.138,64.862 L 35.138,64.862 Z" fill="rgba(59,130,246,0.25)" fill-rule="evenodd" stroke="rgba(59,130,246,0.9)" stroke-width="0.3" stroke-linejoin="round"/>
</svg>
