<svg xmlns="http://www.w3.org/2000/svg" width="100%" height="100%" viewBox="0 0 100 100" preserveAspectRatio="none">
  <path d="M 43.712,68.406 L 42.569,67.263 L 41.655,66.577 L 39.597,64.747 L 39.368,64.519 L 36.624,62.232 L 34.109,59.946 L 33.423,59.489 L 32.966,59.26 L 32.28,58.803 L 32.28,58.803 L 34.109,56.516 L 53.087,31.594 L 53.544,32.052 L 54.001,32.509 L 55.602,33.881 L 58.345,36.167 L 58.345,36.396 L 59.489,37.31 L 59.489,37.31 L 62.918,40.283 L 63.376,40.74 L 65.891,43.255 L 67.72,44.627 L 66.577,45.77 L 62.918,49.886 L 58.117,55.144 L 57.888,55.144 L 56.745,56.516 L 55.373,58.117 L 54.916,58.345 L 53.315,59.717 L 51.715,61.089 L 51.258,61.546 L 51.029,61.775 L 47.599,64.747 L 44.627,67.491 L 43.712,68.406 Z" fill="rgba(59,130,246,0.25)" fill-rule="evenodd" stroke="rgba(59,130,246,0.9)" stroke-width="0.3" stroke-linejoin="round"/>
</svg>
