<svg xmlns="http://www.w3.org/2000/svg" viewBox="0 0 1155 1155" width="1155" height="1155">
<path class="zone" data-zone-id="11215780_020_01" d="M 942.31 866.02 L 942.03 866.15 L 939.52 861.89 L 938.37 859.93 L 934.60 853.87 L 928.32 844.51 L 927.65 843.51 L 912.42 820.84 L 899.10 801.02 L 885.78 780.97 L 874.61 765.03 L 871.63 761.19 L 871.68 761.11 L 874.65 755.19 L 896.98 710.26 L 901.19 701.52 L 923.69 677.64 L 937.43 689.45 L 937.43 689.45 L 952.47 702.38 L 975.61 730.17 L 1009.89 771.35 L 1051.66 837.95 L 1065.97 870.67 L 1066.02 870.77 L 1068.06 875.46 L 1068.06 875.46 L 1033.49 885.96 L 972.94 881.33 L 966.09 880.67 L 959.04 879.59 L 953.25 876.66 L 949.94 873.74 L 942.31 866.02 Z "/>
<path class="zone" data-zone-id="11215780_020_02" d="M 813.46 732.24 L 793.45 722.33 L 715.30 683.46 L 715.20 683.41 L 715.83 682.15 L 741.27 630.92 L 751.25 610.60 L 766.48 579.58 L 766.48 579.58 L 766.48 579.58 L 766.73 579.70 L 841.76 618.77 L 875.15 641.28 L 905.44 661.96 L 923.69 677.64 L 901.19 701.52 L 896.98 710.26 L 874.65 755.19 L 871.68 761.11 L 871.63 761.19 L 871.49 761.01 L 813.46 732.24 Z "/>
<path class="zone" data-zone-id="11215780_020_03" d="M 645.81 648.69 L 601.09 626.93 L 600.71 626.74 L 580.14 616.21 L 558.73 605.81 L 588.79 545.57 L 594.94 533.25 L 610.36 502.36 L 647.37 520.67 L 696.21 544.82 L 696.21 544.82 L 766.48 579.58 L 766.48 579.58 L 751.25 610.60 L 741.27 630.92 L 715.83 682.15 L 715.20 683.41 L 655.53 653.42 L 645.81 648.69 Z "/>
<path class="zone" data-zone-id="11215780_020_00" d="M 401.61 528.06 L 420.68 489.67 L 437.74 455.51 L 453.17 424.62 L 453.17 424.62 L 453.17 424.62 L 610.36 502.36 L 594.94 533.25 L 588.79 545.57 L 580.41 562.37 L 558.73 605.81 L 521.33 587.32 L 488.22 570.95 L 476.06 564.94 L 468.04 560.97 L 427.04 540.66 L 401.61 528.06 Z "/>
<path class="zone" data-zone-id="11215780_020_05" d="M 357.07 505.99 L 334.61 494.86 L 325.79 490.41 L 267.60 461.08 L 249.47 452.29 L 244.86 450.06 L 248.93 441.49 L 260.11 419.59 L 269.66 400.64 L 280.92 377.98 L 296.30 347.03 L 453.17 424.62 L 453.17 424.62 L 437.74 455.51 L 420.68 489.67 L 401.61 528.06 L 357.07 505.99 Z "/>
<path class="zone" data-zone-id="11215780_020_06" d="M 136.34 396.15 L 131.91 393.98 L 112.72 384.59 L 112.64 384.55 L 86.93 371.69 L 98.99 347.79 L 112.51 321.01 L 122.99 301.02 L 123.59 299.88 L 139.76 269.04 L 202.69 300.39 L 202.69 300.39 L 295.10 346.44 L 296.30 347.03 L 280.92 377.98 L 269.66 400.64 L 260.11 419.59 L 248.93 441.49 L 244.86 450.06 L 161.52 408.38 L 160.64 407.94 L 136.34 396.15 Z "/>
</svg>
