<svg xmlns="http://www.w3.org/2000/svg" viewBox="0 0 1155 1155" width="1155" height="1155">
<path class="zone" data-zone-id="11215870_060_01" d="M 181.47 978.75 L 190.52 931.79 L 195.91 903.86 L 197.84 893.70 L 199.29 886.09 L 203.25 865.24 L 209.76 831.23 L 213.42 812.15 L 224.07 814.31 L 240.83 817.85 L 246.31 819.01 L 257.61 821.31 L 277.60 825.39 L 277.75 825.41 L 300.55 830.06 L 311.94 832.37 L 324.19 834.85 L 324.48 834.91 L 356.18 841.37 L 362.83 842.07 L 369.49 841.44 L 368.93 847.07 L 369.04 849.40 L 375.18 883.28 L 379.12 904.88 L 379.25 905.60 L 381.66 918.86 L 381.70 919.08 L 384.87 936.42 L 387.63 951.64 L 387.78 952.50 L 390.56 971.97 L 394.06 988.93 L 383.38 991.58 L 242.17 1035.86 L 176.28 1056.53 L 165.88 1059.66 L 165.99 1059.09 L 165.99 1059.09 L 166.21 1057.97 L 166.21 1057.97 L 166.80 1054.92 L 174.18 1016.60 L 179.03 991.39 L 181.47 978.75 Z "/>
<path class="zone" data-zone-id="11215870_060_02" d="M 213.42 812.15 L 224.29 755.36 L 239.47 677.62 L 246.73 640.45 L 264.64 546.17 L 275.11 547.14 L 329.52 552.20 L 329.61 552.21 L 353.82 554.42 L 377.13 556.53 L 377.72 556.58 L 412.73 559.77 L 415.60 560.11 L 422.30 560.90 L 421.42 565.60 L 420.49 570.55 L 418.26 582.27 L 410.96 620.72 L 400.70 675.60 L 400.67 675.81 L 398.46 686.02 L 398.36 686.55 L 390.11 729.37 L 390.10 729.43 L 381.97 772.54 L 381.87 773.03 L 370.68 828.09 L 369.49 841.44 L 362.83 842.07 L 356.18 841.37 L 324.48 834.91 L 324.19 834.85 L 311.94 832.37 L 300.55 830.06 L 277.75 825.41 L 277.60 825.39 L 257.61 821.31 L 246.31 819.01 L 240.83 817.85 L 224.07 814.31 L 213.42 812.15 Z "/>
<path class="zone" data-zone-id="11215870_060_00" d="M 276.56 481.26 L 281.86 451.44 L 282.57 447.75 L 282.57 447.75 L 285.34 433.32 L 287.83 420.40 L 289.40 412.21 L 290.49 406.56 L 290.50 406.49 L 298.41 365.13 L 304.29 334.45 L 310.99 299.43 L 321.60 301.58 L 335.84 304.47 L 410.01 319.00 L 422.92 321.58 L 456.63 328.32 L 465.57 330.03 L 464.94 335.33 L 464.64 350.37 L 463.63 363.50 L 463.36 371.87 L 463.26 375.07 L 462.97 379.38 L 461.11 407.17 L 459.24 445.48 L 459.22 445.88 L 458.11 462.29 L 458.07 462.88 L 456.51 486.07 L 456.11 487.64 L 447.01 507.22 L 441.83 518.47 L 441.79 518.54 L 426.07 551.70 L 425.43 553.96 L 424.74 556.72 L 423.64 561.06 L 422.30 560.90 L 415.60 560.11 L 412.73 559.77 L 377.72 556.58 L 377.13 556.53 L 353.82 554.42 L 329.61 552.21 L 329.52 552.20 L 275.11 547.14 L 264.64 546.17 L 264.64 546.17 L 270.57 514.97 L 276.56 481.26 Z "/>
<path class="zone" data-zone-id="11215870_060_00" d="M 411.45 233.44 L 417.72 212.40 L 422.06 196.60 L 422.93 192.35 L 424.04 186.90 L 404.31 183.12 L 411.81 145.09 L 413.19 138.05 L 411.43 133.29 L 414.81 108.43 L 492.89 123.81 L 494.77 124.18 L 505.33 127.21 L 504.02 134.17 L 499.12 158.50 L 489.85 204.48 L 476.65 273.69 L 474.20 285.97 L 407.16 271.44 L 408.93 242.15 L 411.45 233.44 Z "/>
<path class="zone" data-zone-id="11215870_060_01" d="M 310.99 299.43 L 311.61 296.17 L 318.87 257.64 L 326.63 216.49 L 329.34 202.59 L 335.34 171.75 L 336.80 164.11 L 342.58 133.81 L 349.93 95.33 L 360.20 97.68 L 414.81 108.43 L 411.43 133.29 L 413.19 138.05 L 411.81 145.09 L 404.31 183.12 L 424.04 186.90 L 422.93 192.35 L 422.06 196.60 L 417.72 212.40 L 411.45 233.44 L 408.93 242.15 L 407.16 271.44 L 474.20 285.97 L 470.40 305.07 L 468.99 312.75 L 466.18 324.91 L 465.57 330.03 L 456.63 328.32 L 410.01 319.00 L 335.84 304.47 L 321.60 301.58 L 310.99 299.43 L 310.99 299.43 Z "/>
<path class="zone" data-zone-id="11215870_060_00" d="M 591.60 187.20 L 635.43 215.34 L 627.12 271.29 L 624.32 291.38 L 589.59 288.12 L 565.59 285.86 L 527.97 282.32 L 521.31 236.13 L 512.89 234.84 L 484.87 230.55 L 489.85 204.48 L 492.74 190.14 L 508.11 192.60 L 509.74 182.88 L 517.29 138.02 L 553.48 162.59 L 568.02 172.47 L 581.36 180.80 L 591.60 187.20 Z "/>
<path class="zone" data-zone-id="11215870_060_01" d="M 662.08 195.92 L 669.23 203.26 L 671.63 205.74 L 671.29 206.39 L 668.59 211.67 L 659.97 266.97 L 653.82 315.46 L 653.71 316.28 L 649.09 351.97 L 644.07 390.09 L 643.62 393.34 L 643.62 393.33 L 612.00 381.38 L 595.77 375.87 L 585.82 372.48 L 526.66 350.89 L 466.36 330.18 L 465.57 330.03 L 466.18 324.91 L 468.99 312.75 L 470.40 305.07 L 476.65 273.69 L 484.87 230.55 L 512.89 234.84 L 521.31 236.13 L 527.97 282.32 L 565.59 285.86 L 589.59 288.12 L 624.32 291.38 L 627.12 271.29 L 635.43 215.34 L 591.60 187.20 L 581.36 180.80 L 568.02 172.47 L 553.48 162.59 L 517.29 138.02 L 509.74 182.88 L 508.11 192.60 L 492.74 190.14 L 504.02 134.17 L 505.33 127.21 L 515.27 130.06 L 662.08 195.92 Z "/>
<path class="zone" data-zone-id="11215870_060_00" d="M 666.57 417.29 L 664.62 415.21 L 678.93 403.88 L 659.94 379.05 L 696.66 350.57 L 696.66 350.57 L 710.30 340.00 L 710.30 340.00 L 710.30 340.00 L 710.30 340.00 L 723.74 329.57 L 723.74 329.57 L 752.84 307.00 L 774.03 333.94 L 795.75 361.57 L 797.72 364.07 L 823.75 397.18 L 830.33 405.70 L 830.05 405.91 L 821.86 410.26 L 797.85 429.78 L 769.74 452.98 L 769.59 453.11 L 755.05 465.42 L 734.41 481.77 L 729.47 485.69 L 726.21 480.73 L 692.78 445.16 L 666.57 417.29 Z M 746.24 358.16 L 768.69 386.69 L 744.94 356.50 L 746.24 358.16 Z "/>
<path class="zone" data-zone-id="11215870_060_01" d="M 679.87 214.21 L 752.84 307.00 L 723.74 329.57 L 723.74 329.57 L 710.30 340.00 L 710.30 340.00 L 710.30 340.00 L 710.30 340.00 L 696.66 350.57 L 696.66 350.57 L 659.94 379.05 L 678.93 403.88 L 664.62 415.21 L 660.21 410.52 L 643.62 393.34 L 644.07 390.09 L 649.09 351.97 L 653.71 316.28 L 653.82 315.46 L 659.97 266.97 L 668.56 211.84 L 668.59 211.67 L 671.29 206.39 L 671.63 205.74 L 675.15 209.36 L 679.87 214.21 Z "/>
<path class="zone" data-zone-id="11215870_060_07" d="M 988.94 608.94 L 989.15 609.22 L 988.93 609.38 L 909.59 668.26 L 900.62 674.63 L 900.60 674.60 L 874.19 644.52 L 849.33 617.57 L 813.10 578.30 L 795.78 559.52 L 795.59 559.31 L 732.06 489.63 L 729.47 485.69 L 734.41 481.77 L 755.05 465.42 L 769.59 453.11 L 769.74 452.98 L 797.85 429.78 L 821.86 410.26 L 830.05 405.91 L 830.33 405.70 L 836.90 414.21 L 961.80 574.18 L 988.94 608.94 Z "/>
<path class="zone" data-zone-id="11215870_060_08" d="M 856.66 706.89 L 756.12 781.33 L 696.18 825.71 L 687.75 832.01 L 660.19 793.80 L 636.59 763.99 L 600.82 716.31 L 601.38 708.14 L 617.39 698.83 L 660.60 665.45 L 683.61 647.39 L 700.56 634.10 L 701.04 633.72 L 714.59 623.39 L 733.52 608.54 L 734.80 607.54 L 736.59 606.14 L 737.07 605.77 L 742.94 601.16 L 757.44 589.85 L 757.71 589.64 L 778.03 573.78 L 786.98 566.60 L 792.04 562.31 L 795.59 559.31 L 795.78 559.52 L 813.10 578.30 L 849.33 617.57 L 874.19 644.52 L 900.60 674.60 L 900.62 674.63 L 895.55 678.24 L 890.85 681.58 L 856.66 706.89 Z "/>
<path class="zone" data-zone-id="11215870_060_00" d="M 502.59 968.83 L 457.84 976.81 L 404.74 986.28 L 395.37 988.61 L 394.06 988.93 L 390.56 971.97 L 387.78 952.50 L 387.63 951.64 L 384.87 936.42 L 381.70 919.08 L 381.66 918.86 L 379.25 905.60 L 379.12 904.88 L 375.18 883.28 L 369.04 849.40 L 368.93 847.07 L 369.49 841.44 L 378.68 837.87 L 442.25 801.75 L 443.14 801.25 L 519.63 757.82 L 520.98 757.03 L 555.11 737.13 L 560.39 734.05 L 592.05 715.51 L 599.67 709.14 L 601.38 708.14 L 600.82 716.31 L 636.59 763.99 L 660.19 793.80 L 687.75 832.01 L 678.33 839.05 L 505.03 967.96 L 504.26 968.54 L 502.59 968.83 Z "/>
<path class="zone" data-zone-id="11215870_060_10" d="M 370.68 828.09 L 381.87 773.03 L 381.97 772.54 L 390.10 729.43 L 390.11 729.37 L 398.36 686.55 L 398.46 686.02 L 400.67 675.81 L 400.70 675.60 L 410.96 620.72 L 418.26 582.27 L 420.49 570.55 L 421.42 565.60 L 422.30 560.90 L 423.64 561.06 L 423.94 561.09 L 432.09 562.07 L 434.97 562.42 L 473.75 569.77 L 474.48 569.91 L 547.26 583.73 L 547.46 583.77 L 605.89 596.12 L 614.81 597.61 L 614.16 602.57 L 608.03 649.19 L 602.23 696.05 L 601.38 708.14 L 599.67 709.14 L 592.05 715.51 L 560.39 734.05 L 555.11 737.13 L 520.98 757.03 L 519.63 757.82 L 443.14 801.25 L 442.25 801.75 L 378.68 837.87 L 369.49 841.44 L 370.68 828.09 Z "/>
<path class="zone" data-zone-id="11215870_060_11" d="M 601.38 708.14 L 602.23 696.05 L 608.03 649.19 L 614.16 602.57 L 614.81 597.61 L 618.14 572.34 L 618.82 567.87 L 623.55 537.72 L 623.56 537.66 L 626.92 513.58 L 633.12 469.26 L 643.62 393.34 L 660.21 410.52 L 726.21 480.73 L 729.47 485.69 L 732.06 489.63 L 795.59 559.31 L 792.04 562.31 L 786.98 566.60 L 778.03 573.78 L 757.71 589.64 L 757.44 589.85 L 742.94 601.16 L 737.07 605.77 L 736.59 606.14 L 734.80 607.54 L 733.52 608.54 L 714.59 623.39 L 701.04 633.72 L 700.56 634.10 L 683.61 647.39 L 660.60 665.45 L 617.39 698.83 L 601.38 708.14 Z "/>
<path class="zone" data-zone-id="11215870_060_00" d="M 474.48 569.91 L 473.75 569.77 L 434.97 562.42 L 432.09 562.07 L 423.94 561.09 L 423.64 561.06 L 424.74 556.72 L 425.43 553.96 L 426.07 551.70 L 441.79 518.54 L 441.83 518.47 L 447.01 507.22 L 456.11 487.64 L 456.51 486.07 L 458.07 462.88 L 458.11 462.29 L 459.22 445.88 L 459.24 445.48 L 461.11 407.17 L 463.26 375.07 L 463.36 371.87 L 463.63 363.50 L 464.64 350.37 L 464.94 335.33 L 465.57 330.03 L 466.36 330.18 L 526.66 350.89 L 583.85 371.76 L 585.82 372.48 L 595.77 375.87 L 612.00 381.38 L 643.62 393.33 L 643.62 393.34 L 636.06 447.97 L 633.12 469.26 L 626.92 513.58 L 625.15 526.26 L 623.56 537.66 L 623.55 537.72 L 618.82 567.87 L 618.14 572.34 L 616.11 587.78 L 614.81 597.61 L 605.89 596.12 L 547.46 583.77 L 547.26 583.73 L 474.48 569.91 Z "/>
</svg>
