<svg xmlns="http://www.w3.org/2000/svg" viewBox="0 0 1154 1155" width="1154" height="1155">
<path class="zone" data-zone-id="11215810_050_00" d="M 668.39 701.11 L 547.21 748.08 L 532.20 744.51 L 524.96 739.83 L 524.84 739.61 L 523.83 729.74 L 484.29 654.74 L 478.31 643.84 L 497.99 617.93 L 509.08 598.21 L 533.00 546.49 L 563.05 469.51 L 693.43 498.64 L 693.66 559.55 L 677.77 630.76 L 677.50 647.75 L 677.11 667.66 L 656.80 675.61 L 668.39 701.11 Z "/>
<path class="zone" data-zone-id="11215810_050_01" d="M 695.85 631.64 L 696.02 627.53 L 696.70 614.09 L 697.63 610.89 L 698.24 606.02 L 701.00 584.06 L 703.94 562.75 L 707.09 539.92 L 709.68 519.41 L 712.49 498.00 L 715.65 477.52 L 718.47 459.42 L 721.40 440.73 L 742.91 443.94 L 745.00 435.70 L 737.31 416.97 L 733.19 365.93 L 744.87 364.87 L 782.73 362.42 L 814.92 350.43 L 863.20 332.43 L 911.93 313.57 L 925.16 306.22 L 937.62 313.28 L 1042.28 519.70 L 1030.50 550.45 L 947.12 583.48 L 931.17 595.14 L 803.55 646.37 L 700.15 689.09 L 696.15 643.79 L 695.85 631.64 Z "/>
<path class="zone" data-zone-id="11215810_050_02" d="M 408.32 445.49 L 431.97 431.21 L 449.04 417.17 L 464.20 402.54 L 475.91 390.88 L 493.68 372.14 L 506.27 357.45 L 515.41 344.39 L 516.71 342.09 L 525.21 345.05 L 534.31 348.23 L 655.11 364.76 L 701.73 370.87 L 717.85 367.59 L 720.19 367.11 L 733.19 365.93 L 737.31 416.97 L 745.00 435.70 L 742.91 443.94 L 721.40 440.73 L 718.47 459.42 L 715.65 477.52 L 712.49 498.00 L 709.68 519.41 L 707.09 539.92 L 703.94 562.75 L 701.00 584.06 L 698.24 606.02 L 697.63 610.89 L 696.70 614.09 L 696.02 627.53 L 695.85 631.64 L 696.15 643.79 L 700.15 689.09 L 803.55 646.37 L 931.17 595.14 L 947.12 583.48 L 1030.50 550.45 L 1042.28 519.70 L 937.62 313.28 L 925.16 306.22 L 930.66 303.16 L 934.65 300.50 L 934.66 300.50 L 1061.02 549.04 L 988.30 578.96 L 906.60 612.72 L 814.12 650.93 L 731.59 685.00 L 680.56 706.02 L 680.32 706.12 L 640.21 722.64 L 566.72 752.83 L 527.80 768.38 L 525.07 741.86 L 524.84 739.61 L 524.96 739.83 L 532.20 744.51 L 547.21 748.08 L 668.39 701.11 L 656.80 675.61 L 677.11 667.66 L 677.50 647.75 L 677.77 630.76 L 693.66 559.55 L 693.43 498.64 L 563.05 469.51 L 533.00 546.49 L 509.08 598.21 L 497.99 617.93 L 478.31 643.84 L 473.65 635.34 L 437.44 579.69 L 427.68 558.15 L 421.34 537.48 L 400.53 457.12 L 398.48 449.21 L 401.02 448.55 L 408.32 445.49 Z "/>
<path class="zone" data-zone-id="11215810_050_00" d="M 378.57 776.45 L 364.48 728.70 L 363.03 729.08 L 332.72 741.07 L 323.65 710.08 L 323.00 707.87 L 322.89 707.51 L 318.86 694.25 L 315.14 682.01 L 312.97 674.88 L 312.56 674.16 L 308.37 666.82 L 305.79 659.06 L 301.79 647.03 L 297.75 634.88 L 297.58 634.33 L 294.01 622.79 L 290.17 610.36 L 286.11 597.23 L 284.32 591.43 L 282.66 587.49 L 277.40 574.99 L 272.91 564.33 L 269.09 555.27 L 267.76 551.01 L 263.74 538.17 L 260.10 526.51 L 256.57 515.25 L 252.30 513.44 L 239.51 508.02 L 236.75 500.73 L 229.31 481.06 L 240.09 476.40 L 250.78 471.94 L 256.59 469.52 L 259.32 468.75 L 268.37 466.19 L 279.66 464.21 L 289.52 462.96 L 319.00 459.75 L 340.47 457.41 L 387.25 452.09 L 398.48 449.21 L 400.53 457.12 L 421.34 537.48 L 427.68 558.15 L 437.44 579.69 L 473.65 635.34 L 484.29 654.74 L 523.83 729.74 L 525.07 741.86 L 526.63 756.97 L 483.61 774.64 L 432.30 781.03 L 378.57 776.45 Z "/>
<path class="zone" data-zone-id="11215810_050_01" d="M 161.87 645.29 L 149.05 628.76 L 136.63 612.75 L 131.40 606.33 L 114.10 585.07 L 119.93 568.01 L 126.33 549.27 L 147.23 531.69 L 159.93 521.94 L 176.23 510.98 L 190.04 502.48 L 209.97 491.04 L 224.39 483.20 L 229.31 481.06 L 236.75 500.73 L 239.51 508.02 L 252.30 513.44 L 256.57 515.25 L 260.10 526.51 L 263.74 538.17 L 267.76 551.01 L 269.09 555.27 L 272.91 564.33 L 277.40 574.99 L 282.66 587.49 L 284.32 591.43 L 286.11 597.23 L 290.17 610.36 L 294.01 622.79 L 297.58 634.33 L 297.75 634.88 L 301.79 647.03 L 305.79 659.06 L 308.37 666.82 L 312.56 674.16 L 312.97 674.88 L 315.14 682.01 L 318.86 694.25 L 322.89 707.51 L 323.00 707.87 L 323.65 710.08 L 317.41 712.11 L 301.68 711.27 L 291.04 706.02 L 273.40 697.32 L 270.27 695.26 L 254.07 712.57 L 233.39 691.65 L 231.27 689.51 L 212.80 707.46 L 174.95 661.25 L 161.87 645.29 Z "/>
<path class="zone" data-zone-id="11215810_050_02" d="M 476.75 788.77 L 465.12 793.01 L 441.51 801.62 L 415.27 811.20 L 414.56 811.46 L 371.93 827.01 L 352.29 835.20 L 351.16 835.68 L 314.88 854.50 L 314.62 854.25 L 250.86 773.60 L 250.86 773.60 L 250.86 773.60 L 249.32 771.64 L 123.82 616.63 L 94.02 579.56 L 94.02 579.56 L 92.95 578.23 L 92.95 578.23 L 111.75 561.61 L 115.55 558.26 L 119.45 555.07 L 126.33 549.27 L 119.93 568.01 L 114.10 585.07 L 131.40 606.33 L 136.63 612.75 L 149.05 628.76 L 161.87 645.29 L 174.95 661.25 L 212.80 707.46 L 231.27 689.51 L 233.39 691.65 L 254.07 712.57 L 270.27 695.26 L 273.40 697.32 L 291.04 706.02 L 301.68 711.27 L 317.41 712.11 L 323.65 710.08 L 332.72 741.07 L 363.03 729.08 L 364.48 728.70 L 378.57 776.45 L 432.30 781.03 L 483.61 774.64 L 526.63 756.97 L 527.80 768.38 L 476.75 788.77 Z "/>
</svg>
