<svg xmlns="http://www.w3.org/2000/svg" viewBox="0 0 1155 1155" width="1155" height="1155">
<path class="zone" data-zone-id="11215750_030_01" d="M 828.45 783.97 L 815.95 699.35 L 809.88 659.22 L 801.27 602.36 L 789.24 522.30 L 788.32 512.07 L 787.69 505.03 L 797.35 503.73 L 797.48 503.71 L 805.19 502.48 L 831.86 498.10 L 833.28 497.86 L 835.18 497.55 L 877.20 490.48 L 897.22 487.11 L 897.22 487.11 L 897.22 487.11 L 897.37 488.07 L 897.37 488.10 L 897.37 488.10 L 897.37 488.12 L 897.38 488.15 L 897.38 488.15 L 897.39 488.22 L 897.39 488.22 L 905.92 543.35 L 905.92 543.35 L 906.10 544.56 L 914.64 599.73 L 914.68 600.01 L 920.94 640.50 L 923.28 655.58 L 923.29 655.64 L 931.57 711.04 L 931.70 711.89 L 940.12 768.15 L 940.26 769.92 L 940.36 771.16 L 953.84 935.08 L 953.86 935.31 L 956.35 965.63 L 956.98 970.34 L 958.28 980.15 L 960.62 997.84 L 966.03 1040.02 L 968.60 1060.10 L 948.44 1061.47 L 897.21 1039.42 L 847.79 1017.25 L 846.04 1004.46 L 838.68 950.94 L 836.62 932.04 L 834.30 910.75 L 845.35 894.67 L 844.90 894.35 L 831.34 885.02 L 841.40 865.53 L 840.78 861.87 L 836.39 832.62 L 828.45 783.97 Z "/>
<path class="zone" data-zone-id="11215750_030_02" d="M 847.79 1017.25 L 847.50 1017.12 L 847.49 1017.04 L 839.56 1013.56 L 786.49 989.79 L 782.16 987.86 L 760.33 977.85 L 758.08 976.81 L 742.84 969.82 L 739.83 968.63 L 719.94 960.76 L 719.73 960.67 L 713.37 958.14 L 683.10 948.84 L 677.71 946.59 L 599.56 909.87 L 613.99 878.59 L 630.60 842.31 L 630.62 842.27 L 631.57 840.15 L 655.32 787.68 L 663.43 769.76 L 664.09 770.21 L 664.63 770.58 L 713.26 803.78 L 764.87 839.28 L 778.32 848.53 L 831.34 885.02 L 844.90 894.35 L 845.35 894.67 L 834.30 910.75 L 836.62 932.04 L 838.68 950.94 L 846.04 1004.46 L 847.79 1017.25 Z "/>
<path class="zone" data-zone-id="11215750_030_03" d="M 599.56 909.87 L 599.03 909.62 L 576.68 899.41 L 519.75 873.49 L 519.09 873.19 L 498.82 864.08 L 484.41 856.99 L 484.27 856.92 L 472.60 851.18 L 434.37 833.46 L 426.80 829.95 L 446.36 785.77 L 457.81 760.01 L 465.99 741.59 L 486.18 696.16 L 494.29 678.40 L 502.46 660.51 L 503.24 661.07 L 503.51 661.26 L 545.34 690.10 L 545.48 690.20 L 564.48 703.10 L 564.56 703.15 L 588.20 719.21 L 589.17 719.86 L 614.20 736.51 L 663.43 769.76 L 655.32 787.68 L 631.57 840.15 L 630.62 842.27 L 630.60 842.31 L 613.99 878.59 L 599.56 909.87 Z "/>
<path class="zone" data-zone-id="11215750_030_04" d="M 502.46 660.51 L 478.66 643.49 L 477.18 642.43 L 475.48 641.22 L 446.64 620.59 L 445.36 619.68 L 427.63 607.00 L 436.41 587.09 L 449.77 556.78 L 454.66 545.69 L 456.85 540.71 L 468.69 514.36 L 488.68 469.83 L 493.94 458.13 L 495.67 454.27 L 497.95 449.19 L 544.02 469.61 L 573.62 482.69 L 579.70 485.38 L 571.66 503.80 L 550.19 553.05 L 534.14 589.97 L 512.06 640.79 L 503.24 661.07 L 502.46 660.51 Z "/>
<path class="zone" data-zone-id="11215750_030_05" d="M 427.48 606.89 L 383.19 575.20 L 350.77 551.96 L 350.48 551.75 L 311.40 523.74 L 311.29 523.66 L 278.20 499.88 L 276.94 498.97 L 276.75 498.84 L 260.84 487.37 L 228.48 464.17 L 205.89 446.72 L 186.41 437.62 L 186.70 436.95 L 204.25 399.45 L 232.95 333.72 L 251.26 341.41 L 274.04 350.99 L 308.23 365.28 L 309.16 365.67 L 331.42 375.27 L 332.66 375.81 L 374.46 394.29 L 375.48 394.74 L 406.01 408.29 L 407.41 408.91 L 420.04 414.46 L 420.80 414.79 L 457.85 431.28 L 458.77 431.69 L 497.95 449.19 L 495.67 454.27 L 493.94 458.13 L 488.68 469.83 L 468.69 514.36 L 456.85 540.71 L 454.66 545.69 L 449.77 556.78 L 436.41 587.09 L 427.63 607.00 L 427.48 606.89 Z "/>
<path class="zone" data-zone-id="11215750_030_06" d="M 233.54 332.37 L 236.32 326.00 L 236.34 325.96 L 255.48 282.12 L 267.39 255.11 L 267.59 254.64 L 281.33 223.46 L 289.47 205.70 L 315.47 148.94 L 340.44 93.53 L 358.26 101.39 L 420.40 128.82 L 420.40 128.82 L 437.70 136.46 L 437.72 136.47 L 437.72 136.47 L 435.86 140.82 L 434.70 143.53 L 431.24 151.26 L 421.86 172.77 L 421.16 174.37 L 410.78 197.95 L 400.07 222.45 L 397.68 226.65 L 396.92 228.00 L 396.86 228.10 L 395.31 230.83 L 370.56 287.45 L 343.82 348.91 L 331.74 374.54 L 331.42 375.27 L 309.16 365.67 L 308.23 365.28 L 274.04 350.99 L 251.26 341.41 L 232.95 333.72 L 232.95 333.72 L 233.54 332.37 L 233.54 332.37 Z "/>
<path class="zone" data-zone-id="11215750_030_00" d="M 343.37 349.87 L 343.82 348.91 L 370.56 287.45 L 395.31 230.83 L 396.86 228.10 L 396.92 228.00 L 397.68 226.65 L 400.07 222.45 L 400.79 220.79 L 453.73 244.17 L 437.02 281.56 L 427.07 303.81 L 423.44 311.94 L 431.30 315.64 L 408.32 367.22 L 400.86 363.90 L 396.86 373.97 L 343.37 349.87 Z "/>
<path class="zone" data-zone-id="11215750_030_01" d="M 512.18 169.36 L 513.21 169.82 L 513.21 169.82 L 511.19 174.20 L 507.90 181.36 L 494.46 211.82 L 471.57 262.70 L 471.56 262.72 L 464.55 278.45 L 456.83 295.98 L 456.71 296.25 L 443.36 326.44 L 443.14 326.93 L 432.23 351.11 L 409.11 401.49 L 407.73 404.39 L 406.01 408.29 L 375.48 394.74 L 374.46 394.29 L 332.66 375.81 L 331.42 375.27 L 331.74 374.54 L 343.37 349.87 L 396.86 373.97 L 400.86 363.90 L 408.32 367.22 L 431.30 315.64 L 423.44 311.94 L 427.07 303.81 L 437.02 281.56 L 453.73 244.17 L 400.79 220.79 L 410.78 197.95 L 421.16 174.37 L 421.86 172.77 L 431.24 151.26 L 434.70 143.53 L 435.86 140.82 L 437.72 136.47 L 437.72 136.47 L 437.72 136.47 L 472.09 151.65 L 474.59 152.76 L 474.84 152.87 L 500.75 164.31 L 512.12 169.34 L 512.18 169.36 Z "/>
<path class="zone" data-zone-id="11215750_030_08" d="M 520.88 173.20 L 542.93 182.93 L 556.90 189.10 L 561.13 190.97 L 587.86 202.77 L 602.72 209.34 L 602.72 209.34 L 600.63 214.09 L 593.36 230.62 L 580.87 258.70 L 548.44 331.21 L 547.24 333.99 L 533.42 365.90 L 533.31 366.16 L 527.81 378.44 L 518.14 400.04 L 513.62 410.14 L 509.29 420.84 L 500.26 443.14 L 497.95 449.19 L 458.77 431.69 L 457.85 431.28 L 420.80 414.79 L 420.04 414.46 L 407.41 408.91 L 406.01 408.29 L 407.73 404.39 L 409.11 401.49 L 432.23 351.11 L 443.14 326.93 L 443.36 326.44 L 456.71 296.25 L 456.83 295.98 L 464.55 278.45 L 471.56 262.72 L 471.57 262.70 L 494.46 211.82 L 507.90 181.36 L 511.19 174.20 L 513.21 169.82 L 513.21 169.82 L 513.21 169.82 L 513.80 170.07 L 513.83 170.09 L 520.88 173.20 Z "/>
<path class="zone" data-zone-id="11215750_030_00" d="M 732.80 240.48 L 752.62 237.80 L 753.22 243.07 L 753.65 246.80 L 760.65 294.92 L 760.74 295.70 L 767.94 352.28 L 768.80 359.01 L 777.64 428.24 L 787.69 505.03 L 783.29 505.73 L 747.07 511.16 L 735.10 512.96 L 733.50 513.20 L 733.03 513.27 L 718.32 515.53 L 709.32 516.91 L 701.86 518.05 L 699.42 518.42 L 691.97 519.56 L 688.33 520.10 L 671.41 522.60 L 671.15 522.64 L 666.19 523.37 L 662.18 521.76 L 659.05 520.50 L 627.81 506.62 L 624.22 505.04 L 605.97 496.97 L 598.09 493.50 L 592.19 490.89 L 586.98 488.60 L 579.78 485.42 L 579.70 485.38 L 583.70 476.21 L 611.69 412.78 L 624.70 383.30 L 664.72 293.85 L 686.05 246.15 L 690.88 246.03 L 705.07 244.15 L 732.80 240.48 Z "/>
<path class="zone" data-zone-id="11215750_030_10" d="M 821.23 228.46 L 837.51 226.30 L 858.83 223.47 L 858.83 223.47 L 858.83 223.47 L 858.83 223.52 L 866.75 280.48 L 866.75 280.48 L 858.14 223.77 L 866.75 280.49 L 866.75 280.49 L 871.96 317.96 L 880.46 375.87 L 880.60 376.80 L 888.61 431.45 L 888.68 431.93 L 897.22 487.11 L 897.22 487.11 L 877.20 490.48 L 835.18 497.55 L 833.28 497.86 L 831.86 498.10 L 805.19 502.48 L 797.48 503.71 L 797.35 503.73 L 787.69 505.03 L 777.64 428.24 L 768.80 359.01 L 767.94 352.28 L 760.74 295.70 L 760.65 294.92 L 753.65 246.80 L 753.22 243.07 L 752.62 237.80 L 752.62 237.80 L 775.24 234.75 L 821.23 228.46 Z "/>
<path class="zone" data-zone-id="11215750_030_11" d="M 664.63 770.58 L 673.36 749.74 L 675.54 744.53 L 720.42 645.38 L 720.67 644.84 L 737.85 609.19 L 737.98 608.94 L 740.72 603.73 L 742.29 600.73 L 780.22 519.46 L 783.43 516.54 L 788.32 512.07 L 789.24 522.30 L 801.27 602.36 L 809.88 659.22 L 815.95 699.35 L 828.45 783.97 L 836.39 832.62 L 840.78 861.87 L 841.40 865.53 L 831.34 885.02 L 778.32 848.53 L 764.87 839.28 L 713.26 803.78 L 664.63 770.58 Z "/>
<path class="zone" data-zone-id="11215750_030_12" d="M 788.32 512.07 L 783.43 516.54 L 780.22 519.46 L 742.29 600.73 L 740.72 603.73 L 737.98 608.94 L 737.85 609.19 L 720.67 644.84 L 720.42 645.38 L 675.54 744.53 L 673.36 749.74 L 664.63 770.58 L 664.09 770.21 L 663.43 769.76 L 614.20 736.51 L 589.17 719.86 L 588.20 719.21 L 598.41 699.65 L 599.89 696.80 L 618.77 657.30 L 618.89 657.07 L 638.73 615.55 L 639.17 614.65 L 640.06 610.29 L 639.46 605.55 L 637.98 603.80 L 635.36 603.17 L 632.00 603.27 L 629.14 602.14 L 628.50 599.80 L 629.36 595.24 L 642.11 568.21 L 642.30 567.79 L 659.77 528.91 L 660.74 526.03 L 662.18 521.76 L 666.19 523.37 L 671.15 522.64 L 688.33 520.10 L 691.97 519.56 L 709.32 516.91 L 718.32 515.53 L 733.03 513.27 L 733.50 513.20 L 735.10 512.96 L 747.07 511.16 L 783.29 505.73 L 787.69 505.03 L 788.32 512.07 Z "/>
<path class="zone" data-zone-id="11215750_030_13" d="M 588.20 719.21 L 564.56 703.15 L 564.48 703.10 L 545.48 690.20 L 545.34 690.10 L 503.51 661.26 L 503.24 661.07 L 512.06 640.79 L 534.14 589.97 L 550.19 553.05 L 571.66 503.80 L 579.70 485.38 L 579.78 485.42 L 586.98 488.60 L 592.19 490.89 L 605.97 496.97 L 624.22 505.04 L 627.81 506.62 L 659.05 520.50 L 662.18 521.76 L 660.74 526.03 L 659.77 528.91 L 642.30 567.79 L 642.11 568.21 L 629.36 595.24 L 628.50 599.80 L 629.14 602.14 L 632.00 603.27 L 635.36 603.17 L 637.98 603.80 L 639.46 605.55 L 640.06 610.29 L 639.17 614.65 L 638.73 615.55 L 618.89 657.07 L 618.77 657.30 L 599.89 696.80 L 598.41 699.65 L 588.20 719.21 Z "/>
<path class="zone" data-zone-id="11215750_030_14" d="M 624.70 383.30 L 611.69 412.78 L 583.70 476.21 L 579.70 485.38 L 573.62 482.69 L 544.02 469.61 L 497.95 449.19 L 500.26 443.14 L 509.29 420.84 L 513.62 410.14 L 518.14 400.04 L 527.81 378.44 L 533.31 366.16 L 533.42 365.90 L 547.24 333.99 L 548.44 331.21 L 580.87 258.70 L 593.36 230.62 L 600.63 214.09 L 602.72 209.34 L 602.72 209.34 L 602.72 209.34 L 617.55 215.88 L 631.27 221.92 L 632.31 222.38 L 656.95 233.23 L 686.05 246.15 L 664.72 293.85 L 624.70 383.30 Z "/>
</svg>
