<svg xmlns="http://www.w3.org/2000/svg" viewBox="0 0 1154 1155" width="1154" height="1155">
<path class="zone" data-zone-id="11215810_130_01" d="M 641.69 834.67 L 638.55 839.02 L 632.45 847.44 L 623.62 859.50 L 612.96 874.08 L 591.31 866.51 L 450.03 809.85 L 466.02 769.69 L 494.80 730.15 L 497.19 726.80 L 501.13 722.08 L 504.26 718.33 L 507.70 713.99 L 524.04 691.08 L 534.38 676.58 L 537.13 672.87 L 541.37 667.14 L 621.38 704.45 L 622.76 705.10 L 622.91 705.17 L 632.65 709.75 L 671.73 729.23 L 680.22 735.74 L 701.46 752.03 L 685.35 774.17 L 645.58 829.28 L 641.69 834.67 Z "/>
<path class="zone" data-zone-id="11215810_130_02" d="M 302.85 663.70 L 292.00 636.65 L 288.28 627.40 L 281.52 612.58 L 268.54 575.78 L 265.22 565.47 L 264.13 561.74 L 260.61 549.67 L 279.97 537.40 L 289.23 531.53 L 295.78 528.12 L 293.18 515.66 L 292.43 512.09 L 284.55 466.74 L 282.80 451.69 L 282.83 451.35 L 291.57 448.60 L 335.02 434.96 L 358.07 427.72 L 387.89 418.35 L 392.24 416.98 L 409.02 411.71 L 413.34 410.36 L 419.40 408.45 L 425.23 426.93 L 439.21 464.82 L 443.56 476.61 L 409.45 487.93 L 388.94 494.74 L 357.05 505.28 L 351.20 507.21 L 362.24 515.03 L 367.13 518.50 L 398.49 533.21 L 439.03 552.22 L 465.48 563.49 L 477.09 569.23 L 479.52 569.64 L 484.89 568.66 L 488.33 567.55 L 487.47 569.14 L 485.24 573.12 L 467.54 597.94 L 456.20 613.37 L 447.17 625.05 L 539.18 666.11 L 541.37 667.14 L 537.13 672.87 L 534.38 676.58 L 524.04 691.08 L 507.70 713.99 L 504.26 718.33 L 501.13 722.08 L 497.19 726.80 L 494.80 730.15 L 466.02 769.69 L 450.03 809.85 L 352.66 770.79 L 342.51 766.72 L 304.96 749.89 L 298.23 746.86 L 315.24 706.62 L 308.75 682.17 L 302.85 663.70 Z "/>
<path class="zone" data-zone-id="11215810_130_03" d="M 298.23 746.86 L 277.79 737.70 L 248.20 724.44 L 96.40 656.37 L 126.83 638.34 L 171.42 610.41 L 212.39 582.42 L 257.93 551.37 L 260.61 549.67 L 264.13 561.74 L 265.22 565.47 L 268.54 575.78 L 281.52 612.58 L 288.28 627.40 L 292.00 636.65 L 302.85 663.70 L 308.75 682.17 L 315.24 706.62 L 298.23 746.86 Z "/>
<path class="zone" data-zone-id="11215810_130_00" d="M 548.39 477.10 L 560.68 465.23 L 575.59 460.78 L 574.16 446.57 L 614.59 442.93 L 616.24 442.78 L 615.80 438.06 L 632.79 436.28 L 632.73 435.95 L 657.80 427.81 L 649.21 411.16 L 719.67 388.18 L 760.63 375.37 L 767.80 373.13 L 780.35 369.42 L 847.73 349.45 L 851.16 359.77 L 854.28 369.19 L 854.89 371.00 L 861.35 400.01 L 861.35 400.44 L 860.58 414.34 L 858.08 426.50 L 855.43 468.91 L 859.29 485.93 L 860.02 486.57 L 748.32 625.78 L 724.58 624.89 L 708.36 650.92 L 620.59 648.23 L 525.29 614.06 L 526.82 586.54 L 538.45 573.19 L 543.95 568.93 L 520.40 539.16 L 538.29 527.20 L 528.16 504.53 L 534.65 490.38 L 548.39 477.10 Z "/>
<path class="zone" data-zone-id="11215810_130_01" d="M 719.67 388.18 L 649.21 411.16 L 657.80 427.81 L 632.73 435.95 L 632.79 436.28 L 615.80 438.06 L 616.24 442.78 L 614.59 442.93 L 574.16 446.57 L 575.59 460.78 L 560.68 465.23 L 548.39 477.10 L 534.65 490.38 L 528.16 504.53 L 538.29 527.20 L 520.40 539.16 L 543.95 568.93 L 538.45 573.19 L 526.82 586.54 L 525.29 614.06 L 620.59 648.23 L 708.36 650.92 L 724.58 624.89 L 748.32 625.78 L 860.02 486.57 L 883.31 507.01 L 853.56 546.48 L 816.57 596.05 L 762.37 668.70 L 758.63 673.71 L 753.78 680.40 L 737.18 702.12 L 717.44 730.07 L 701.46 752.03 L 680.22 735.74 L 671.73 729.23 L 632.65 709.75 L 622.91 705.17 L 622.76 705.10 L 621.38 704.45 L 541.37 667.14 L 539.18 666.11 L 447.17 625.05 L 456.20 613.37 L 467.54 597.94 L 485.24 573.12 L 487.47 569.14 L 488.33 567.55 L 484.89 568.66 L 479.52 569.64 L 477.09 569.23 L 465.48 563.49 L 439.03 552.22 L 398.49 533.21 L 367.13 518.50 L 362.24 515.03 L 351.20 507.21 L 357.05 505.28 L 388.94 494.74 L 409.45 487.93 L 443.56 476.61 L 448.16 475.09 L 466.53 468.99 L 514.17 453.17 L 585.87 429.36 L 668.61 404.15 L 678.35 401.10 L 719.67 388.18 Z "/>
<path class="zone" data-zone-id="11215810_130_05" d="M 898.01 333.85 L 934.92 322.31 L 981.35 307.39 L 1005.98 299.47 L 1006.44 299.32 L 1011.95 297.34 L 1057.58 280.91 L 1055.51 283.54 L 1004.98 345.42 L 954.99 411.83 L 910.34 471.16 L 883.31 507.01 L 859.29 485.93 L 855.43 468.91 L 858.08 426.50 L 860.58 414.34 L 861.35 400.44 L 861.35 400.01 L 854.89 371.00 L 851.16 359.77 L 847.73 349.45 L 849.94 348.79 L 854.86 347.33 L 898.01 333.85 Z "/>
</svg>
