<svg xmlns="http://www.w3.org/2000/svg" viewBox="0 0 1154 1155" width="1154" height="1155">
<path class="zone" data-zone-id="11215830_080_01" d="M 390.23 910.31 L 387.01 908.48 L 388.76 901.35 L 399.27 858.60 L 413.21 801.97 L 413.37 801.34 L 427.18 743.20 L 435.84 705.52 L 439.57 691.14 L 447.08 692.81 L 454.93 694.64 L 493.56 703.64 L 546.28 715.93 L 542.57 732.29 L 520.17 824.85 L 519.66 826.99 L 506.43 882.49 L 489.47 950.53 L 488.10 956.03 L 438.36 933.06 L 413.82 921.72 L 390.23 910.31 Z "/>
<path class="zone" data-zone-id="11215830_080_00" d="M 280.56 829.17 L 285.21 809.87 L 286.86 803.03 L 287.08 802.06 L 288.72 795.24 L 293.07 777.47 L 294.32 772.36 L 357.00 787.50 L 413.50 800.77 L 413.37 801.34 L 413.21 801.97 L 399.27 858.60 L 388.76 901.35 L 387.01 908.48 L 374.93 901.61 L 291.96 863.23 L 274.36 854.87 L 262.28 849.12 L 261.73 848.86 L 263.60 841.15 L 276.89 844.37 L 280.56 829.17 Z M 301.78 850.39 L 289.32 847.38 L 276.89 844.37 L 301.78 850.39 Z "/>
<path class="zone" data-zone-id="11215830_080_01" d="M 174.75 802.83 L 211.98 646.05 L 214.31 636.38 L 236.22 641.61 L 283.28 653.03 L 294.35 655.72 L 333.27 665.35 L 371.60 674.84 L 385.08 678.06 L 428.30 688.40 L 437.91 690.77 L 439.57 691.14 L 435.84 705.52 L 427.18 743.20 L 413.50 800.77 L 357.00 787.50 L 294.32 772.36 L 293.07 777.47 L 288.72 795.24 L 287.08 802.06 L 286.86 803.03 L 285.21 809.87 L 280.56 829.17 L 276.89 844.37 L 263.60 841.15 L 261.73 848.86 L 224.57 830.94 L 194.16 816.57 L 177.69 811.05 L 173.16 809.54 L 173.60 807.70 L 174.75 802.83 Z M 245.82 836.85 L 228.03 832.55 L 263.60 841.15 L 245.82 836.85 Z M 262.04 769.97 L 279.86 774.27 L 279.86 774.27 L 262.04 769.97 Z M 262.04 769.97 L 262.07 769.98 L 279.86 774.27 L 262.04 769.97 Z "/>
<path class="zone" data-zone-id="11215830_080_03" d="M 214.31 636.38 L 241.68 522.63 L 252.05 479.48 L 265.54 423.53 L 287.55 428.78 L 311.09 434.40 L 337.54 440.77 L 338.59 441.03 L 356.33 445.44 L 382.72 451.81 L 383.91 452.09 L 380.77 463.14 L 370.05 507.31 L 369.83 508.23 L 364.59 531.47 L 359.40 553.49 L 359.17 554.49 L 349.21 596.71 L 348.35 600.40 L 334.89 658.36 L 333.27 665.35 L 294.35 655.72 L 283.28 653.03 L 236.22 641.61 L 214.31 636.38 Z "/>
<path class="zone" data-zone-id="11215830_080_00" d="M 315.24 218.08 L 315.33 217.73 L 316.09 214.70 L 322.35 188.42 L 339.53 116.25 L 343.98 98.42 L 344.77 98.72 L 344.88 98.25 L 438.34 134.25 L 438.34 134.25 L 445.52 137.13 L 476.73 149.65 L 507.14 161.85 L 507.25 161.89 L 576.19 188.85 L 576.61 189.02 L 576.61 189.02 L 609.28 201.73 L 657.15 219.88 L 674.09 226.31 L 674.09 226.31 L 668.81 243.89 L 659.92 273.55 L 639.05 343.16 L 573.67 318.03 L 569.15 316.29 L 547.24 307.87 L 533.99 302.27 L 530.87 300.95 L 521.69 297.07 L 505.56 290.87 L 430.49 262.03 L 429.11 267.75 L 407.52 357.33 L 429.17 267.84 L 430.83 270.26 L 427.16 280.15 L 420.82 306.34 L 411.48 343.21 L 399.29 390.00 L 387.24 440.36 L 383.91 452.09 L 382.72 451.81 L 356.33 445.44 L 338.59 441.03 L 337.54 440.77 L 311.09 434.40 L 287.55 428.78 L 265.54 423.53 L 265.55 423.46 L 265.68 422.94 L 265.82 422.35 L 274.70 385.10 L 290.21 320.66 L 300.01 279.92 L 306.85 251.48 L 315.24 218.08 Z "/>
<path class="zone" data-zone-id="11215830_080_00" d="M 873.15 302.34 L 901.37 312.65 L 979.54 343.34 L 980.57 343.74 L 980.82 343.84 L 980.82 343.84 L 974.21 360.92 L 966.60 380.56 L 964.90 384.87 L 948.82 425.75 L 948.31 427.04 L 943.41 439.46 L 936.94 455.85 L 936.66 456.56 L 919.45 449.97 L 890.64 439.05 L 808.22 407.83 L 752.66 386.78 L 741.29 382.43 L 730.26 378.20 L 676.88 357.69 L 639.05 343.16 L 659.92 273.55 L 668.81 243.89 L 674.09 226.31 L 674.09 226.31 L 681.60 229.16 L 685.43 230.51 L 736.54 248.56 L 779.88 266.08 L 783.88 267.70 L 783.96 267.74 L 856.63 296.30 L 873.06 302.31 L 873.15 302.34 Z "/>
<path class="zone" data-zone-id="11215830_080_06" d="M 430.56 262.11 L 514.69 294.50 L 521.67 297.19 L 524.81 298.53 L 533.94 302.44 L 530.78 312.85 L 516.74 372.05 L 511.99 392.10 L 490.49 478.16 L 489.45 477.84 L 475.62 474.08 L 436.85 464.57 L 383.91 452.09 L 387.24 440.36 L 399.29 390.00 L 411.48 343.21 L 420.82 306.34 L 427.16 280.15 L 430.83 270.26 L 429.17 267.84 L 430.56 262.11 Z "/>
<path class="zone" data-zone-id="11215830_080_07" d="M 547.15 308.09 L 610.12 332.21 L 639.02 343.27 L 638.98 343.40 L 636.91 350.29 L 634.46 358.35 L 619.67 419.09 L 619.07 421.50 L 600.45 496.77 L 597.92 504.38 L 597.42 504.25 L 569.71 497.61 L 553.03 493.81 L 552.58 493.71 L 542.62 491.55 L 541.79 491.37 L 520.67 486.40 L 503.28 482.11 L 490.49 478.16 L 511.99 392.10 L 516.74 372.05 L 530.78 312.85 L 533.94 302.44 L 547.15 308.09 Z "/>
<path class="zone" data-zone-id="11215830_080_08" d="M 894.57 440.59 L 919.39 450.00 L 936.66 456.56 L 936.51 456.95 L 928.98 476.02 L 907.36 532.87 L 892.52 571.69 L 891.71 573.81 L 880.11 571.28 L 873.93 569.94 L 853.02 564.92 L 822.18 557.70 L 819.48 557.03 L 813.78 555.61 L 805.61 553.58 L 787.14 549.31 L 765.61 544.16 L 762.93 543.52 L 760.72 542.95 L 749.85 540.14 L 717.44 532.39 L 704.42 529.71 L 704.61 529.01 L 707.81 517.99 L 722.58 456.13 L 737.64 393.24 L 741.19 382.73 L 741.29 382.43 L 752.66 386.78 L 804.86 406.58 L 842.77 420.95 L 894.57 440.59 Z "/>
<path class="zone" data-zone-id="11215830_080_09" d="M 884.57 592.48 L 854.73 672.07 L 852.52 677.83 L 833.60 727.32 L 820.94 760.43 L 813.00 781.15 L 802.45 778.59 L 678.29 748.53 L 652.93 742.39 L 652.96 742.27 L 654.64 735.43 L 667.62 682.65 L 679.03 633.77 L 690.14 588.32 L 699.51 547.87 L 704.42 529.71 L 717.44 532.39 L 749.85 540.14 L 760.72 542.95 L 762.93 543.52 L 765.61 544.16 L 787.14 549.31 L 805.61 553.58 L 813.78 555.61 L 819.48 557.03 L 822.18 557.70 L 853.02 564.92 L 873.93 569.94 L 880.11 571.28 L 891.71 573.81 L 884.57 592.48 Z "/>
<path class="zone" data-zone-id="11215830_080_10" d="M 565.30 721.18 L 652.93 742.41 L 803.31 778.84 L 812.99 781.19 L 812.82 781.63 L 791.69 836.79 L 778.66 870.77 L 773.26 884.74 L 752.68 937.98 L 711.49 1044.63 L 709.14 1050.19 L 706.91 1055.47 L 706.37 1056.73 L 690.54 1050.02 L 531.63 976.59 L 495.54 959.47 L 488.81 956.36 L 488.10 956.03 L 489.47 950.53 L 506.43 882.49 L 519.66 826.99 L 520.17 824.85 L 542.57 732.29 L 546.28 715.93 L 555.78 718.15 L 599.00 729.01 L 627.82 736.24 L 652.96 742.27 L 652.93 742.39 L 565.30 721.18 Z "/>
<path class="zone" data-zone-id="11215830_080_11" d="M 439.57 691.14 L 437.91 690.77 L 428.30 688.40 L 385.08 678.06 L 371.60 674.84 L 333.27 665.35 L 334.89 658.36 L 348.35 600.40 L 349.21 596.71 L 359.17 554.49 L 359.40 553.49 L 364.59 531.47 L 369.83 508.23 L 370.05 507.31 L 380.77 463.14 L 383.91 452.09 L 436.85 464.57 L 475.62 474.08 L 489.45 477.84 L 490.49 478.16 L 490.31 478.87 L 480.26 519.69 L 466.50 575.58 L 464.60 583.73 L 442.99 676.20 L 439.65 690.80 L 439.57 691.14 Z "/>
<path class="zone" data-zone-id="11215830_080_12" d="M 546.28 715.93 L 493.56 703.64 L 454.93 694.64 L 447.08 692.81 L 439.57 691.14 L 439.65 690.80 L 442.99 676.20 L 464.60 583.73 L 466.50 575.58 L 480.26 519.69 L 490.31 478.87 L 490.49 478.16 L 503.28 482.11 L 520.67 486.40 L 541.79 491.37 L 542.62 491.55 L 552.58 493.71 L 553.03 493.81 L 569.71 497.61 L 597.42 504.25 L 597.92 504.38 L 593.94 516.39 L 575.98 590.76 L 568.30 622.39 L 564.35 638.70 L 548.28 707.08 L 546.28 715.93 Z "/>
<path class="zone" data-zone-id="11215830_080_13" d="M 652.96 742.27 L 627.82 736.24 L 599.00 729.01 L 555.78 718.15 L 546.28 715.93 L 548.28 707.08 L 564.35 638.70 L 568.30 622.39 L 575.98 590.76 L 593.94 516.39 L 597.92 504.38 L 628.04 512.31 L 649.89 517.15 L 651.93 517.61 L 674.45 522.72 L 703.87 529.60 L 704.42 529.71 L 699.51 547.87 L 690.14 588.32 L 679.03 633.77 L 667.62 682.65 L 654.64 735.43 L 652.96 742.27 Z "/>
<path class="zone" data-zone-id="11215830_080_14" d="M 600.45 496.77 L 619.07 421.50 L 619.67 419.09 L 634.46 358.35 L 636.91 350.29 L 638.98 343.40 L 639.02 343.27 L 730.26 378.21 L 741.29 382.43 L 741.19 382.73 L 737.64 393.24 L 722.58 456.13 L 707.81 517.99 L 704.61 529.01 L 704.42 529.71 L 703.87 529.60 L 674.45 522.72 L 651.93 517.61 L 649.89 517.15 L 628.04 512.31 L 597.92 504.38 L 600.45 496.77 Z "/>
</svg>
