<svg xmlns="http://www.w3.org/2000/svg" viewBox="0 0 1155 1155" width="1155" height="1155">
<path class="zone" data-zone-id="11215840_060_00" d="M 771.10 382.07 L 767.30 392.52 L 759.69 390.07 L 754.82 388.50 L 754.06 388.26 L 739.27 383.50 L 702.35 369.69 L 669.91 357.47 L 640.95 346.91 L 611.07 336.35 L 586.00 326.92 L 566.25 319.50 L 559.07 317.40 L 553.48 315.76 L 557.73 303.48 L 565.25 282.35 L 570.38 267.95 L 573.39 260.45 L 585.01 231.36 L 596.57 200.82 L 599.90 190.80 L 601.98 184.55 L 601.98 184.55 L 602.55 184.76 L 608.41 186.89 L 674.32 210.89 L 702.02 220.98 L 816.07 262.51 L 816.07 262.51 L 810.17 276.94 L 806.00 287.15 L 788.37 334.90 L 781.21 354.28 L 774.47 372.80 L 771.10 382.07 Z "/>
<path class="zone" data-zone-id="11215840_060_00" d="M 529.00 386.81 L 531.41 380.89 L 538.03 362.53 L 547.69 332.51 L 549.11 328.39 L 553.48 315.76 L 559.07 317.40 L 566.25 319.50 L 611.07 336.35 L 640.95 346.91 L 669.91 357.47 L 702.35 369.69 L 739.27 383.50 L 754.82 388.50 L 759.69 390.07 L 767.30 392.52 L 765.62 397.13 L 743.00 459.28 L 734.36 483.03 L 710.64 546.06 L 703.57 543.60 L 693.58 540.09 L 635.77 519.75 L 604.19 483.98 L 574.19 449.35 L 551.26 422.96 L 533.88 402.95 L 528.11 397.36 L 524.51 393.87 L 525.41 392.92 L 527.43 389.49 L 529.00 386.81 Z "/>
<path class="zone" data-zone-id="11215840_060_00" d="M 693.58 540.09 L 703.57 543.60 L 710.64 546.06 L 703.26 565.67 L 694.38 588.89 L 690.44 594.38 L 685.58 598.42 L 684.44 599.36 L 683.80 598.72 L 668.34 612.34 L 647.68 630.55 L 645.77 632.24 L 598.12 674.47 L 598.55 674.94 L 593.21 679.57 L 587.67 673.21 L 548.55 627.57 L 544.99 623.16 L 536.64 612.83 L 534.45 610.12 L 503.23 576.05 L 487.66 557.77 L 425.55 484.82 L 428.82 479.45 L 432.60 474.92 L 433.90 473.81 L 462.60 449.36 L 498.37 418.30 L 519.05 399.61 L 524.51 393.87 L 528.11 397.36 L 533.88 402.95 L 574.19 449.35 L 604.19 483.98 L 634.09 517.84 L 635.77 519.75 L 668.23 531.16 L 693.58 540.09 Z M 641.62 582.68 L 666.53 562.94 L 663.46 565.38 L 641.62 582.68 Z "/>
<path class="zone" data-zone-id="11215840_060_00" d="M 128.33 719.06 L 128.33 719.06 L 130.74 712.60 L 174.73 595.05 L 194.56 602.27 L 195.03 602.44 L 211.44 608.42 L 251.62 621.51 L 313.32 642.12 L 315.49 640.74 L 317.54 639.43 L 318.87 636.20 L 321.86 637.25 L 326.60 642.43 L 340.18 657.26 L 352.07 670.24 L 358.33 677.08 L 359.28 678.10 L 373.40 693.30 L 407.76 730.28 L 412.54 735.42 L 412.98 760.40 L 398.30 773.93 L 376.55 793.98 L 377.60 799.89 L 366.60 796.60 L 322.16 783.32 L 193.24 740.69 L 159.63 729.58 L 128.33 719.06 Z M 362.32 699.79 L 405.47 748.67 L 373.07 711.97 L 362.32 699.79 Z "/>
<path class="zone" data-zone-id="11215840_060_01" d="M 534.45 610.12 L 548.55 627.57 L 587.67 673.21 L 588.56 674.23 L 593.21 679.57 L 591.12 681.39 L 588.22 683.93 L 560.72 708.06 L 516.85 746.87 L 440.99 812.28 L 434.20 818.13 L 378.24 800.09 L 377.60 799.89 L 373.72 777.94 L 376.55 793.98 L 412.98 760.40 L 412.54 735.42 L 407.76 730.28 L 373.40 693.30 L 358.33 677.08 L 352.07 670.24 L 340.18 657.26 L 326.60 642.43 L 321.86 637.25 L 318.87 636.20 L 319.80 633.95 L 321.81 628.03 L 340.27 576.70 L 347.10 558.14 L 349.30 554.19 L 356.45 547.31 L 368.19 535.90 L 388.87 514.84 L 394.43 509.73 L 417.26 494.42 L 422.23 490.29 L 422.85 489.27 L 425.55 484.82 L 429.82 489.84 L 503.23 576.05 L 534.45 610.12 Z "/>
<path class="zone" data-zone-id="11215840_060_05" d="M 434.20 818.13 L 443.46 821.11 L 482.35 835.95 L 528.92 853.77 L 558.68 866.18 L 593.60 880.61 L 622.41 891.22 L 667.89 906.65 L 778.03 943.72 L 826.98 960.19 L 872.49 975.22 L 916.37 989.86 L 953.38 1002.22 L 1042.50 1032.15 L 1035.23 1062.45 L 554.39 899.61 L 390.23 849.36 L 112.51 764.35 L 126.56 723.80 L 128.33 719.06 L 159.63 729.58 L 322.16 783.32 L 378.24 800.09 L 434.20 818.13 Z "/>
<path class="zone" data-zone-id="11215840_060_00" d="M 174.73 595.05 L 175.45 593.12 L 175.45 593.12 L 228.70 450.82 L 229.95 447.64 L 229.95 447.64 L 243.56 413.06 L 266.34 355.20 L 267.33 352.68 L 276.36 326.61 L 276.36 326.61 L 276.75 325.49 L 276.75 325.49 L 291.39 339.65 L 291.99 340.23 L 303.50 351.36 L 305.81 353.59 L 331.63 377.82 L 338.76 384.51 L 341.11 387.08 L 374.03 423.08 L 377.28 426.63 L 407.86 464.57 L 414.50 472.80 L 415.13 473.48 L 424.46 483.54 L 425.55 484.82 L 422.23 490.29 L 417.54 494.19 L 417.26 494.42 L 394.43 509.73 L 388.87 514.84 L 368.19 535.90 L 356.45 547.31 L 349.30 554.19 L 347.10 558.14 L 340.27 576.70 L 321.81 628.03 L 319.80 633.95 L 318.30 637.60 L 317.54 639.43 L 313.32 642.12 L 310.78 641.27 L 251.62 621.51 L 211.44 608.42 L 195.08 602.46 L 194.56 602.27 L 174.73 595.05 Z "/>
<path class="zone" data-zone-id="11215840_060_00" d="M 467.90 312.87 L 468.73 311.98 L 475.39 301.14 L 538.43 324.44 L 544.30 326.61 L 549.11 328.39 L 547.69 332.51 L 538.03 362.53 L 531.41 380.89 L 529.00 386.81 L 525.41 392.92 L 524.51 393.87 L 519.05 399.61 L 498.37 418.30 L 462.60 449.36 L 439.06 469.42 L 428.06 454.37 L 411.41 431.56 L 380.68 392.92 L 385.43 381.09 L 419.60 295.97 L 443.08 304.52 L 443.47 303.39 L 467.90 312.87 Z "/>
<path class="zone" data-zone-id="11215840_060_01" d="M 301.51 253.97 L 301.61 253.69 L 306.67 239.07 L 306.67 239.07 L 306.67 239.07 L 327.94 246.89 L 433.57 285.69 L 433.98 285.84 L 475.39 301.14 L 468.73 311.98 L 467.90 312.87 L 443.47 303.39 L 443.08 304.52 L 419.60 295.97 L 385.43 381.09 L 380.68 392.92 L 411.41 431.56 L 428.06 454.37 L 439.06 469.42 L 432.60 474.92 L 428.82 479.45 L 425.55 484.82 L 424.46 483.54 L 414.50 472.80 L 377.28 426.63 L 338.76 384.51 L 305.81 353.59 L 303.50 351.36 L 291.99 340.23 L 276.75 325.49 L 296.55 268.30 L 301.51 253.97 Z "/>
<path class="zone" data-zone-id="11215840_060_08" d="M 488.81 142.35 L 492.09 143.58 L 543.28 162.66 L 601.98 184.55 L 601.98 184.55 L 601.98 184.55 L 596.57 200.82 L 585.01 231.36 L 573.39 260.45 L 570.38 267.95 L 557.73 303.48 L 553.48 315.76 L 549.11 328.39 L 544.30 326.61 L 538.43 324.44 L 433.98 285.84 L 433.57 285.69 L 327.94 246.89 L 306.67 239.07 L 306.67 239.07 L 316.35 211.10 L 358.98 92.57 L 358.98 92.57 L 358.98 92.57 L 359.13 92.62 L 488.42 142.21 L 488.81 142.35 Z "/>
</svg>
