<svg xmlns="http://www.w3.org/2000/svg" viewBox="0 0 1155 1155" width="1155" height="1155">
<path class="zone" data-zone-id="11215847_070_01" d="M 607.45 470.74 L 603.77 481.43 L 595.53 505.35 L 595.37 505.80 L 587.43 528.83 L 582.01 542.46 L 580.90 545.47 L 580.61 546.25 L 575.46 544.49 L 559.46 539.00 L 514.94 523.44 L 506.22 520.86 L 477.02 512.26 L 472.57 510.65 L 457.76 505.28 L 436.50 497.58 L 417.74 491.36 L 345.19 467.31 L 334.55 461.74 L 336.64 451.19 L 341.37 440.02 L 348.10 422.82 L 356.90 403.32 L 362.52 390.85 L 365.36 384.20 L 366.11 382.44 L 366.33 381.93 L 376.97 358.63 L 377.26 357.97 L 380.91 359.64 L 381.67 359.99 L 397.87 365.71 L 412.11 370.38 L 432.68 376.90 L 455.64 384.42 L 458.45 385.42 L 467.60 388.65 L 505.50 401.63 L 507.13 402.17 L 542.50 413.75 L 542.76 413.85 L 561.40 420.86 L 561.53 420.91 L 574.21 425.50 L 606.83 438.21 L 610.97 439.65 L 611.60 439.87 L 617.47 441.92 L 607.45 470.74 Z "/>
<path class="zone" data-zone-id="11215847_070_02" d="M 580.61 546.25 L 578.23 552.71 L 575.62 558.91 L 570.25 574.43 L 562.16 597.07 L 557.47 610.00 L 552.77 623.69 L 551.51 627.32 L 545.96 626.15 L 540.90 625.08 L 531.55 623.44 L 497.77 619.37 L 497.13 619.29 L 484.60 617.64 L 457.84 614.67 L 456.06 614.48 L 429.73 611.32 L 411.57 609.34 L 408.32 608.99 L 377.87 605.17 L 355.81 604.58 L 349.01 603.95 L 347.12 595.46 L 344.96 577.70 L 344.79 575.73 L 341.18 533.60 L 336.53 474.89 L 334.28 463.07 L 334.55 461.74 L 345.19 467.31 L 417.74 491.36 L 436.50 497.58 L 457.76 505.28 L 472.57 510.65 L 477.02 512.26 L 506.22 520.86 L 514.94 523.44 L 559.46 539.00 L 575.46 544.49 L 580.61 546.25 Z "/>
<path class="zone" data-zone-id="11215847_070_00" d="M 507.52 746.77 L 506.67 749.06 L 505.69 756.42 L 510.26 762.57 L 529.50 788.44 L 530.70 793.91 L 531.48 797.44 L 533.42 806.24 L 518.45 801.42 L 487.11 790.90 L 458.23 781.20 L 437.03 772.90 L 424.41 763.08 L 404.13 747.31 L 363.16 689.38 L 362.82 688.90 L 374.80 681.29 L 379.19 678.51 L 379.48 678.33 L 370.11 642.48 L 360.86 604.72 L 377.87 605.17 L 408.32 608.99 L 411.57 609.34 L 429.73 611.32 L 456.06 614.48 L 457.84 614.67 L 475.84 616.67 L 484.60 617.64 L 497.13 619.29 L 497.77 619.37 L 531.55 623.44 L 540.90 625.08 L 545.96 626.15 L 551.51 627.32 L 550.50 630.23 L 549.15 629.55 L 516.53 720.13 L 507.16 746.13 L 507.52 746.77 Z "/>
<path class="zone" data-zone-id="11215847_070_01" d="M 357.39 681.06 L 337.85 652.83 L 264.45 545.53 L 252.03 525.68 L 247.40 511.14 L 245.17 498.11 L 241.93 476.10 L 240.07 467.25 L 210.38 455.97 L 220.40 433.81 L 221.43 431.55 L 224.24 425.37 L 257.65 436.13 L 267.54 439.32 L 273.72 441.31 L 325.90 459.01 L 334.55 461.74 L 334.28 463.07 L 336.53 474.89 L 341.18 533.60 L 344.79 575.73 L 344.96 577.70 L 347.12 595.46 L 349.01 603.95 L 355.81 604.58 L 360.86 604.72 L 370.11 642.48 L 379.48 678.33 L 379.19 678.51 L 374.80 681.29 L 362.82 688.90 L 357.39 681.06 Z "/>
<path class="zone" data-zone-id="11215847_070_04" d="M 671.31 851.80 L 675.42 853.62 L 685.46 858.07 L 795.29 896.23 L 798.42 897.32 L 811.29 901.73 L 859.53 918.29 L 896.57 930.61 L 1007.64 967.31 L 1066.81 987.20 L 1066.81 987.20 L 1065.24 991.41 L 1052.72 1027.55 L 1052.72 1027.55 L 1052.68 1027.54 L 689.85 921.83 L 114.14 732.47 L 88.20 724.38 L 88.20 724.38 L 118.41 657.97 L 147.35 594.37 L 147.78 594.40 L 152.31 584.38 L 210.38 455.97 L 240.07 467.25 L 241.93 476.10 L 245.17 498.11 L 247.40 511.14 L 252.03 525.68 L 264.45 545.53 L 337.85 652.83 L 357.39 681.06 L 363.16 689.38 L 404.13 747.31 L 424.41 763.08 L 437.03 772.90 L 458.23 781.20 L 518.45 801.42 L 533.42 806.24 L 602.29 828.44 L 671.31 851.80 Z "/>
<path class="zone" data-zone-id="11215847_070_05" d="M 240.82 388.93 L 287.37 286.63 L 319.85 300.79 L 323.55 307.42 L 327.41 317.08 L 339.13 340.53 L 377.26 357.97 L 376.97 358.63 L 366.33 381.93 L 366.11 382.44 L 365.36 384.20 L 362.52 390.85 L 356.90 403.32 L 348.10 422.82 L 341.37 440.02 L 336.64 451.19 L 334.55 461.74 L 325.90 459.01 L 273.72 441.31 L 267.54 439.32 L 257.65 436.13 L 224.24 425.37 L 240.82 388.93 Z "/>
<path class="zone" data-zone-id="11215847_070_06" d="M 359.79 127.46 L 384.37 135.87 L 422.85 147.39 L 469.86 163.56 L 469.98 163.60 L 462.61 175.11 L 461.77 176.42 L 442.79 220.11 L 426.94 254.00 L 426.27 255.43 L 417.14 263.85 L 405.55 262.10 L 402.30 261.60 L 392.42 261.72 L 354.46 262.18 L 345.57 261.30 L 337.70 260.02 L 304.53 248.92 L 359.79 127.46 L 359.79 127.46 Z "/>
<path class="zone" data-zone-id="11215847_070_07" d="M 618.53 213.50 L 628.62 216.95 L 688.46 237.46 L 688.46 237.46 L 683.79 251.11 L 679.54 263.52 L 674.35 261.84 L 679.54 263.52 L 678.48 266.61 L 675.43 275.52 L 666.26 302.28 L 652.95 340.87 L 652.73 341.49 L 597.03 321.38 L 574.73 313.33 L 495.09 286.70 L 494.85 286.62 L 465.43 277.11 L 441.56 269.27 L 428.61 266.59 L 417.14 263.85 L 426.27 255.43 L 426.94 254.00 L 442.79 220.11 L 461.77 176.42 L 462.61 175.11 L 469.98 163.60 L 524.75 181.83 L 553.91 191.82 L 575.77 198.83 L 608.49 210.05 L 618.53 213.50 Z "/>
<path class="zone" data-zone-id="11215847_070_08" d="M 630.52 404.73 L 629.99 406.22 L 619.80 435.22 L 619.53 435.99 L 617.47 441.92 L 611.60 439.87 L 610.97 439.65 L 606.83 438.21 L 574.21 425.50 L 561.53 420.91 L 561.40 420.86 L 542.76 413.85 L 542.50 413.75 L 507.13 402.17 L 505.50 401.63 L 467.60 388.65 L 458.45 385.42 L 455.64 384.42 L 432.68 376.90 L 412.11 370.38 L 397.87 365.71 L 381.67 359.99 L 380.91 359.64 L 377.26 357.97 L 339.13 340.53 L 327.41 317.08 L 323.55 307.42 L 319.85 300.79 L 287.37 286.63 L 299.24 260.54 L 304.53 248.92 L 337.70 260.02 L 345.57 261.30 L 354.46 262.18 L 392.42 261.72 L 402.30 261.60 L 405.55 262.10 L 417.14 263.85 L 428.61 266.59 L 441.56 269.27 L 465.43 277.11 L 494.85 286.62 L 495.09 286.70 L 574.73 313.33 L 597.03 321.38 L 652.73 341.49 L 643.07 369.00 L 630.52 404.73 Z "/>
</svg>
