<svg xmlns="http://www.w3.org/2000/svg" viewBox="0 0 1155 1155" width="1155" height="1155">
<path class="zone" data-zone-id="11215850_020_01" d="M 836.47 694.96 L 797.99 679.20 L 796.75 678.67 L 796.71 678.65 L 763.01 663.91 L 762.61 663.73 L 730.02 648.25 L 730.34 644.61 L 737.23 606.78 L 743.53 571.92 L 743.55 571.82 L 749.76 538.35 L 749.76 538.35 L 750.09 536.54 L 755.32 508.31 L 758.89 489.04 L 760.57 481.45 L 760.59 481.41 L 760.62 481.41 L 796.09 484.87 L 796.19 484.88 L 833.28 488.46 L 875.92 492.15 L 884.25 492.41 L 884.25 492.41 L 870.38 565.39 L 864.76 594.16 L 853.01 654.34 L 844.59 698.29 L 836.47 694.96 Z "/>
<path class="zone" data-zone-id="11215850_020_02" d="M 817.98 837.04 L 814.22 856.55 L 808.51 886.21 L 808.05 888.57 L 808.05 888.57 L 807.88 889.44 L 807.88 889.44 L 807.80 889.88 L 807.80 889.88 L 807.40 890.00 L 798.96 892.54 L 730.11 914.05 L 680.14 929.66 L 678.71 924.66 L 679.24 920.99 L 680.88 911.57 L 681.22 909.64 L 684.62 891.07 L 684.85 889.84 L 688.27 871.10 L 688.76 868.45 L 692.50 848.06 L 692.54 847.80 L 693.73 841.40 L 694.82 835.36 L 694.85 835.23 L 699.71 809.29 L 700.42 804.99 L 700.43 804.94 L 703.69 787.24 L 703.85 786.39 L 713.96 733.07 L 713.96 733.05 L 718.05 711.56 L 722.05 690.56 L 722.12 690.20 L 723.27 684.09 L 725.78 670.16 L 729.18 652.58 L 730.02 648.25 L 762.61 663.73 L 763.01 663.91 L 796.71 678.65 L 796.75 678.67 L 797.99 679.20 L 836.47 694.96 L 844.59 698.29 L 841.77 713.07 L 836.73 739.39 L 833.66 755.52 L 832.54 761.42 L 831.04 769.28 L 826.87 790.90 L 819.87 827.25 L 817.98 837.04 Z "/>
<path class="zone" data-zone-id="11215850_020_03" d="M 680.14 929.66 L 494.95 987.52 L 486.67 990.00 L 486.13 981.07 L 485.17 965.47 L 483.73 941.79 L 483.68 940.92 L 482.84 927.26 L 482.07 914.57 L 482.05 914.25 L 480.21 890.35 L 478.87 866.75 L 478.87 866.69 L 478.00 851.53 L 477.99 851.27 L 477.14 832.05 L 476.35 814.05 L 476.32 813.46 L 474.13 779.78 L 472.38 762.79 L 471.34 754.83 L 471.55 754.23 L 471.57 754.23 L 481.64 753.12 L 500.10 751.57 L 513.62 750.42 L 526.79 749.30 L 527.79 749.21 L 535.81 748.54 L 545.89 747.55 L 565.42 745.62 L 566.24 745.55 L 591.87 743.33 L 592.48 743.27 L 600.71 742.55 L 601.00 742.53 L 636.86 739.41 L 637.09 739.39 L 639.10 739.22 L 641.20 739.03 L 641.34 739.02 L 643.81 738.72 L 645.92 738.46 L 681.11 735.67 L 709.56 733.42 L 713.96 733.07 L 703.85 786.39 L 703.69 787.24 L 700.43 804.94 L 700.42 804.99 L 699.71 809.29 L 694.85 835.23 L 694.82 835.36 L 693.73 841.40 L 692.54 847.80 L 692.50 848.06 L 688.76 868.45 L 688.27 871.10 L 684.85 889.84 L 684.62 891.07 L 681.22 909.64 L 680.88 911.57 L 679.24 920.99 L 678.71 924.66 L 680.14 929.66 Z "/>
<path class="zone" data-zone-id="11215850_020_04" d="M 477.88 992.64 L 410.37 1014.10 L 400.05 1017.38 L 326.91 1040.17 L 325.52 1040.61 L 323.24 1041.35 L 322.99 1041.20 L 309.74 1033.47 L 309.35 1012.93 L 307.56 987.14 L 307.52 986.42 L 306.90 975.52 L 305.70 954.10 L 304.03 924.27 L 304.03 924.25 L 302.04 890.48 L 301.65 881.97 L 301.63 881.73 L 300.60 863.15 L 299.62 845.82 L 299.61 845.73 L 299.41 842.12 L 299.38 841.59 L 298.75 830.54 L 298.32 822.70 L 298.31 822.61 L 298.15 819.73 L 298.10 819.01 L 296.23 794.52 L 296.21 794.33 L 294.38 770.53 L 294.61 770.50 L 307.53 768.56 L 318.26 767.56 L 337.87 766.11 L 338.61 766.06 L 359.27 764.55 L 381.23 762.57 L 387.08 761.88 L 393.33 761.13 L 396.25 760.79 L 417.44 759.19 L 435.24 757.06 L 464.72 755.13 L 471.55 754.23 L 471.34 754.83 L 472.38 762.79 L 474.13 779.78 L 476.32 813.46 L 476.35 814.05 L 477.14 832.05 L 477.99 851.27 L 478.00 851.53 L 478.87 866.69 L 478.87 866.75 L 480.21 890.35 L 482.05 914.25 L 482.07 914.57 L 482.84 927.26 L 483.68 940.92 L 483.73 941.79 L 485.17 965.47 L 486.13 981.07 L 486.67 990.00 L 477.88 992.64 Z "/>
<path class="zone" data-zone-id="11215850_020_05" d="M 211.92 776.75 L 209.77 776.93 L 209.76 776.83 L 211.03 776.72 L 211.32 776.70 L 249.27 773.47 L 249.98 773.41 L 255.78 773.24 L 281.85 771.73 L 294.38 770.53 L 296.21 794.33 L 296.23 794.52 L 298.10 819.01 L 298.15 819.73 L 298.31 822.61 L 298.32 822.70 L 298.75 830.54 L 299.38 841.59 L 299.41 842.12 L 299.61 845.73 L 299.62 845.82 L 300.60 863.15 L 301.63 881.73 L 301.65 881.97 L 302.04 890.48 L 304.03 924.25 L 304.03 924.27 L 305.70 954.10 L 306.90 975.52 L 307.52 986.42 L 307.56 987.14 L 309.35 1012.93 L 309.74 1033.47 L 322.99 1041.20 L 323.24 1041.35 L 237.03 1069.34 L 236.74 1065.98 L 211.92 776.75 Z "/>
<path class="zone" data-zone-id="11215850_020_06" d="M 209.76 776.83 L 204.73 718.61 L 239.19 618.14 L 236.67 617.31 L 242.81 599.29 L 245.95 590.07 L 251.00 575.24 L 256.93 557.86 L 261.89 543.29 L 265.45 532.84 L 271.08 516.31 L 273.65 517.16 L 294.55 455.79 L 297.81 457.26 L 311.07 463.21 L 328.51 471.04 L 329.31 471.40 L 329.67 471.55 L 350.08 480.16 L 359.98 483.78 L 370.41 489.15 L 370.62 489.26 L 371.12 489.48 L 369.74 493.24 L 369.74 493.25 L 363.72 509.68 L 355.89 532.20 L 355.86 532.28 L 352.38 542.29 L 348.88 552.35 L 348.81 552.54 L 343.34 568.65 L 335.04 593.30 L 334.77 594.10 L 334.10 596.09 L 334.06 596.22 L 329.97 608.32 L 326.93 617.31 L 326.77 617.81 L 323.87 626.37 L 320.23 637.14 L 320.18 637.29 L 316.82 647.24 L 314.57 654.03 L 314.34 654.72 L 310.84 665.13 L 307.68 674.58 L 307.57 674.91 L 303.71 686.43 L 300.63 695.64 L 300.50 696.02 L 298.96 702.54 L 297.38 710.12 L 297.22 710.86 L 296.53 714.17 L 296.51 714.31 L 295.27 725.39 L 294.34 739.23 L 293.90 761.33 L 294.34 770.03 L 294.38 770.53 L 281.85 771.73 L 255.78 773.24 L 249.98 773.41 L 249.27 773.47 L 211.32 776.70 L 211.03 776.72 L 209.76 776.83 Z "/>
<path class="zone" data-zone-id="11215850_020_00" d="M 472.37 190.75 L 472.57 190.82 L 472.41 191.29 L 472.21 191.23 L 467.27 205.84 L 462.92 218.70 L 462.72 219.30 L 459.01 230.25 L 455.41 240.92 L 455.29 241.27 L 449.59 257.92 L 443.21 277.03 L 442.96 277.76 L 438.76 290.17 L 434.34 303.26 L 433.49 306.08 L 430.31 316.65 L 430.30 316.69 L 418.40 351.68 L 417.31 354.90 L 403.00 397.01 L 399.62 406.77 L 399.61 406.83 L 391.69 429.50 L 384.78 449.29 L 371.91 484.99 L 370.41 489.15 L 359.98 483.78 L 350.08 480.16 L 329.67 471.55 L 329.31 471.40 L 328.51 471.04 L 311.07 463.21 L 297.81 457.26 L 294.55 455.79 L 294.60 455.65 L 283.34 450.62 L 284.79 447.08 L 290.16 431.28 L 295.30 416.18 L 293.81 415.67 L 299.29 400.45 L 301.01 401.03 L 301.65 398.74 L 307.03 379.50 L 308.36 375.82 L 308.42 375.65 L 313.92 377.54 L 377.62 190.15 L 387.00 162.58 L 387.11 162.23 L 472.37 190.75 Z "/>
<path class="zone" data-zone-id="11215850_020_08" d="M 472.41 191.29 L 469.81 198.96 L 472.41 191.29 L 479.76 193.55 L 516.28 205.96 L 518.49 206.63 L 521.76 207.61 L 536.98 212.45 L 537.98 212.79 L 571.33 224.17 L 573.71 224.99 L 600.49 233.90 L 600.81 234.00 L 619.40 240.41 L 621.11 241.00 L 643.13 248.43 L 643.24 248.45 L 643.03 249.06 L 633.06 277.19 L 623.50 306.13 L 612.57 338.97 L 604.53 362.67 L 604.19 363.67 L 599.88 376.49 L 594.48 392.91 L 584.43 422.66 L 584.11 423.59 L 577.77 442.29 L 573.12 455.74 L 569.77 465.01 L 569.72 465.00 L 540.99 455.25 L 540.13 454.96 L 514.73 446.25 L 513.43 445.80 L 474.53 432.48 L 474.17 432.35 L 456.93 426.44 L 409.39 410.14 L 399.65 406.78 L 399.62 406.77 L 403.00 397.01 L 418.40 351.68 L 430.30 316.69 L 430.31 316.65 L 434.34 303.26 L 438.76 290.17 L 442.96 277.76 L 443.21 277.03 L 449.59 257.92 L 455.29 241.27 L 455.41 240.92 L 459.01 230.25 L 462.72 219.30 L 462.92 218.70 L 467.27 205.84 L 472.21 191.23 L 472.41 191.29 Z "/>
<path class="zone" data-zone-id="11215850_020_09" d="M 475.33 182.69 L 508.13 85.67 L 508.13 85.66 L 682.64 104.29 L 684.24 104.49 L 690.49 105.29 L 689.72 108.38 L 686.82 118.38 L 678.91 142.08 L 672.85 160.13 L 669.63 169.74 L 666.86 177.52 L 666.82 177.63 L 658.17 204.17 L 649.50 230.22 L 643.24 248.45 L 643.13 248.43 L 621.11 241.00 L 619.40 240.41 L 600.81 234.00 L 600.49 233.90 L 573.71 224.99 L 571.33 224.17 L 537.98 212.79 L 536.98 212.45 L 521.76 207.61 L 518.49 206.63 L 516.28 205.96 L 479.76 193.55 L 472.41 191.29 L 475.33 182.69 Z "/>
<path class="zone" data-zone-id="11215850_020_00" d="M 821.23 119.65 L 829.35 120.75 L 828.68 129.15 L 827.83 135.49 L 823.30 157.31 L 815.99 192.52 L 815.47 195.62 L 815.35 196.28 L 814.43 201.34 L 808.65 231.82 L 808.05 234.91 L 799.77 278.27 L 771.07 273.27 L 755.24 270.51 L 752.05 269.95 L 749.68 269.54 L 700.20 259.81 L 698.41 259.50 L 691.01 258.17 L 687.67 257.57 L 687.45 257.53 L 680.94 256.13 L 665.61 253.24 L 664.30 252.99 L 655.95 251.40 L 648.11 249.51 L 643.24 248.45 L 649.50 230.22 L 658.17 204.17 L 666.82 177.63 L 666.86 177.52 L 669.63 169.74 L 672.85 160.13 L 678.91 142.08 L 686.82 118.38 L 689.72 108.38 L 690.49 105.29 L 699.57 106.45 L 821.23 119.65 Z "/>
<path class="zone" data-zone-id="11215850_020_00" d="M 944.57 173.23 L 940.10 196.68 L 938.97 202.59 L 934.32 226.46 L 932.23 237.23 L 926.22 269.08 L 920.60 298.90 L 920.12 301.42 L 920.12 301.42 L 920.12 301.42 L 912.30 300.43 L 910.78 300.15 L 889.03 295.85 L 872.50 292.54 L 868.28 291.70 L 856.41 289.35 L 856.35 289.34 L 849.81 288.15 L 837.98 286.04 L 836.24 285.70 L 828.53 284.17 L 808.11 280.29 L 799.77 278.27 L 808.05 234.91 L 808.65 231.82 L 809.83 225.56 L 814.43 201.34 L 815.35 196.28 L 815.47 195.62 L 815.99 192.52 L 817.01 187.60 L 823.30 157.31 L 827.83 135.49 L 828.68 129.15 L 829.35 120.75 L 838.27 121.95 L 859.23 125.92 L 889.38 131.62 L 942.61 141.68 L 950.26 143.44 L 950.26 143.44 L 944.57 173.23 Z "/>
<path class="zone" data-zone-id="11215850_020_12" d="M 730.02 648.25 L 729.18 652.58 L 725.78 670.16 L 723.27 684.09 L 722.12 690.20 L 722.05 690.56 L 718.05 711.56 L 713.96 733.05 L 713.96 733.07 L 709.56 733.42 L 681.11 735.67 L 645.92 738.46 L 643.81 738.72 L 641.34 739.02 L 641.20 739.03 L 639.10 739.22 L 637.09 739.39 L 636.86 739.41 L 601.00 742.53 L 600.71 742.55 L 592.48 743.27 L 591.87 743.33 L 566.24 745.55 L 565.42 745.62 L 545.89 747.55 L 535.81 748.54 L 527.79 749.21 L 526.79 749.30 L 513.62 750.42 L 500.10 751.57 L 481.64 753.12 L 471.57 754.23 L 471.55 754.23 L 479.64 730.70 L 480.86 727.14 L 489.74 701.31 L 489.95 700.72 L 496.02 683.05 L 501.40 667.44 L 501.43 667.34 L 507.37 649.60 L 507.45 649.35 L 512.08 635.51 L 522.12 606.12 L 522.22 605.84 L 529.32 585.29 L 535.78 566.49 L 536.99 562.96 L 540.34 564.79 L 556.10 571.87 L 569.35 577.47 L 570.43 577.93 L 574.16 579.51 L 574.94 579.85 L 586.12 584.76 L 598.83 590.34 L 599.26 590.53 L 615.15 597.51 L 632.05 605.34 L 632.23 605.42 L 640.50 609.02 L 648.87 612.50 L 668.30 621.03 L 671.95 622.63 L 719.60 644.19 L 726.08 646.59 L 729.75 648.12 L 730.02 648.25 Z "/>
<path class="zone" data-zone-id="11215850_020_13" d="M 536.99 562.96 L 535.78 566.49 L 529.32 585.29 L 522.22 605.84 L 522.12 606.12 L 512.08 635.51 L 507.45 649.35 L 507.37 649.60 L 501.43 667.34 L 501.40 667.44 L 496.02 683.05 L 489.95 700.72 L 489.74 701.31 L 480.86 727.14 L 479.64 730.70 L 471.55 754.23 L 464.72 755.13 L 435.24 757.06 L 417.44 759.19 L 396.25 760.79 L 393.33 761.13 L 387.08 761.88 L 381.23 762.57 L 359.27 764.55 L 338.61 766.06 L 337.87 766.11 L 318.26 767.56 L 307.53 768.56 L 294.61 770.50 L 294.38 770.53 L 294.34 770.03 L 293.90 761.33 L 294.34 739.23 L 295.27 725.39 L 296.51 714.31 L 296.53 714.17 L 297.22 710.86 L 297.38 710.12 L 298.96 702.54 L 300.50 696.02 L 300.63 695.64 L 303.71 686.43 L 307.57 674.91 L 307.68 674.58 L 310.84 665.13 L 314.34 654.72 L 314.57 654.03 L 316.82 647.24 L 320.18 637.29 L 320.23 637.14 L 323.87 626.37 L 326.77 617.81 L 326.93 617.31 L 329.97 608.32 L 334.06 596.22 L 334.10 596.09 L 334.77 594.10 L 335.04 593.30 L 343.34 568.65 L 348.81 552.54 L 348.88 552.35 L 352.38 542.29 L 355.86 532.28 L 355.89 532.20 L 363.72 509.68 L 369.74 493.25 L 369.74 493.24 L 371.12 489.48 L 403.60 504.16 L 433.26 517.69 L 437.28 519.13 L 437.87 519.34 L 443.41 521.70 L 443.87 521.91 L 460.31 529.45 L 460.37 529.48 L 483.66 539.66 L 483.72 539.69 L 508.32 550.63 L 508.35 550.65 L 521.70 556.59 L 536.55 562.72 L 536.99 562.96 Z "/>
<path class="zone" data-zone-id="11215850_020_00" d="M 760.62 481.41 L 760.59 481.41 L 762.49 472.88 L 764.85 460.74 L 768.59 441.64 L 768.77 440.71 L 772.57 421.14 L 774.88 409.32 L 774.92 409.11 L 776.88 399.06 L 777.06 398.14 L 781.19 376.99 L 781.38 376.03 L 781.38 376.03 L 785.87 353.07 L 785.99 352.45 L 787.91 342.64 L 790.23 330.74 L 790.33 330.23 L 794.95 304.88 L 798.07 287.29 L 799.77 278.27 L 808.11 280.29 L 828.53 284.17 L 836.24 285.70 L 837.98 286.04 L 849.81 288.15 L 856.35 289.34 L 856.41 289.35 L 868.28 291.70 L 872.50 292.54 L 889.03 295.85 L 910.78 300.15 L 912.30 300.43 L 920.12 301.42 L 920.12 301.42 L 910.38 352.28 L 904.26 384.29 L 903.41 388.72 L 902.19 395.06 L 900.27 405.06 L 898.12 416.23 L 898.12 416.23 L 897.57 419.09 L 893.47 442.17 L 888.83 468.26 L 884.25 492.41 L 884.25 492.41 L 875.92 492.15 L 833.28 488.46 L 826.72 487.83 L 796.19 484.88 L 796.09 484.87 L 775.95 482.90 L 760.62 481.41 Z "/>
<path class="zone" data-zone-id="11215850_020_15" d="M 371.12 489.48 L 370.62 489.26 L 370.41 489.15 L 371.91 484.99 L 384.78 449.29 L 391.69 429.50 L 399.61 406.83 L 399.62 406.77 L 399.65 406.78 L 409.39 410.14 L 456.93 426.44 L 474.17 432.35 L 474.53 432.48 L 513.43 445.80 L 514.73 446.25 L 540.13 454.96 L 540.99 455.25 L 569.72 465.00 L 569.77 465.01 L 567.05 472.52 L 553.89 511.15 L 539.34 555.23 L 537.99 559.28 L 536.99 562.96 L 536.55 562.72 L 521.70 556.59 L 508.35 550.65 L 508.32 550.63 L 483.72 539.69 L 483.66 539.66 L 460.37 529.48 L 460.31 529.45 L 443.87 521.91 L 443.41 521.70 L 437.87 519.34 L 437.28 519.13 L 433.26 517.69 L 403.60 504.16 L 371.12 489.48 Z "/>
<path class="zone" data-zone-id="11215850_020_00" d="M 648.94 489.57 L 663.96 494.38 L 691.68 503.26 L 690.66 506.29 L 751.56 528.63 L 750.09 536.54 L 749.76 538.35 L 749.76 538.35 L 743.55 571.82 L 743.53 571.92 L 737.23 606.78 L 730.34 644.61 L 730.02 648.25 L 729.75 648.12 L 726.08 646.59 L 719.60 644.19 L 671.95 622.63 L 668.30 621.03 L 648.87 612.50 L 640.50 609.02 L 632.23 605.42 L 632.05 605.34 L 615.15 597.51 L 599.26 590.53 L 598.83 590.34 L 586.12 584.76 L 580.02 582.08 L 588.50 556.48 L 594.06 539.69 L 599.45 523.45 L 604.88 507.07 L 613.88 479.91 L 635.01 485.23 L 648.73 489.50 L 648.94 489.57 Z "/>
<path class="zone" data-zone-id="11215850_020_01" d="M 574.94 579.85 L 574.16 579.51 L 570.43 577.93 L 569.35 577.47 L 556.10 571.87 L 540.34 564.79 L 536.99 562.96 L 537.99 559.28 L 539.34 555.23 L 553.89 511.15 L 567.05 472.52 L 569.77 465.01 L 612.51 468.35 L 612.64 468.36 L 651.45 471.31 L 652.68 471.42 L 679.55 473.90 L 681.32 474.06 L 689.78 474.84 L 690.14 474.87 L 690.67 474.92 L 760.59 481.41 L 760.57 481.45 L 758.89 489.04 L 755.32 508.31 L 751.56 528.63 L 690.66 506.29 L 691.68 503.26 L 663.96 494.38 L 648.94 489.57 L 648.73 489.50 L 635.01 485.23 L 613.88 479.91 L 604.88 507.07 L 599.45 523.45 L 594.06 539.69 L 588.50 556.48 L 580.02 582.08 L 574.94 579.85 Z "/>
<path class="zone" data-zone-id="11215850_020_17" d="M 760.59 481.41 L 690.67 474.92 L 690.14 474.87 L 689.78 474.84 L 681.32 474.06 L 679.55 473.90 L 652.68 471.42 L 651.45 471.31 L 612.64 468.36 L 612.51 468.35 L 569.77 465.01 L 573.12 455.74 L 577.77 442.29 L 584.11 423.59 L 584.43 422.66 L 594.48 392.91 L 599.88 376.49 L 604.19 363.67 L 604.53 362.67 L 612.57 338.97 L 623.50 306.13 L 633.06 277.19 L 643.03 249.06 L 643.24 248.45 L 648.11 249.51 L 655.95 251.40 L 664.30 252.99 L 665.61 253.24 L 680.94 256.13 L 687.45 257.53 L 687.67 257.57 L 698.41 259.50 L 700.20 259.81 L 749.68 269.54 L 752.05 269.95 L 771.07 273.27 L 799.77 278.27 L 798.07 287.29 L 794.95 304.88 L 790.33 330.23 L 790.23 330.74 L 787.91 342.64 L 785.99 352.45 L 785.87 353.07 L 781.38 376.03 L 781.38 376.03 L 781.19 376.99 L 777.06 398.14 L 776.88 399.06 L 774.92 409.11 L 774.88 409.32 L 772.57 421.14 L 768.77 440.71 L 768.59 441.64 L 764.85 460.74 L 762.49 472.88 L 760.59 481.41 Z "/>
</svg>
