<svg xmlns="http://www.w3.org/2000/svg" viewBox="0 0 1155 1155" width="1155" height="1155">
<path class="zone" data-zone-id="11215740_020_01" d="M 413.30 874.51 L 413.01 874.36 L 365.85 850.85 L 328.21 832.43 L 328.10 832.38 L 323.59 829.92 L 319.09 827.89 L 318.66 827.70 L 305.36 821.11 L 287.16 812.12 L 286.71 811.90 L 274.87 806.19 L 263.68 801.03 L 263.58 800.98 L 252.14 795.89 L 236.72 788.80 L 230.99 786.16 L 246.94 751.25 L 268.32 704.43 L 297.59 717.52 L 299.22 718.23 L 326.85 730.25 L 327.20 730.40 L 342.10 736.83 L 346.49 738.73 L 366.77 747.94 L 366.80 747.96 L 388.61 757.58 L 438.00 779.37 L 503.92 808.78 L 503.97 808.80 L 525.22 818.00 L 543.26 826.07 L 544.74 826.59 L 549.29 828.19 L 541.88 844.79 L 534.36 862.18 L 531.40 869.04 L 513.60 909.23 L 510.10 915.44 L 509.58 916.54 L 507.47 921.31 L 507.45 921.30 L 489.14 912.04 L 482.29 908.57 L 464.75 899.87 L 464.45 899.73 L 455.99 895.56 L 439.48 887.44 L 413.30 874.51 Z "/>
<path class="zone" data-zone-id="11215740_020_00" d="M 305.90 622.80 L 311.60 625.33 L 346.49 640.75 L 368.58 650.74 L 390.52 660.67 L 398.83 664.43 L 399.03 664.52 L 427.37 677.39 L 429.90 678.51 L 450.32 687.62 L 453.23 683.84 L 506.40 614.56 L 509.49 610.54 L 509.76 610.67 L 519.63 615.10 L 530.88 620.15 L 531.61 620.48 L 543.00 625.32 L 543.09 625.36 L 580.45 641.83 L 580.81 641.99 L 599.24 650.03 L 623.78 660.98 L 623.90 661.03 L 584.99 748.20 L 551.70 822.77 L 549.29 828.19 L 544.74 826.59 L 543.26 826.07 L 532.23 821.13 L 525.22 818.00 L 503.97 808.80 L 503.92 808.78 L 438.00 779.37 L 432.07 776.75 L 388.61 757.58 L 366.80 747.96 L 366.77 747.94 L 346.49 738.73 L 342.10 736.83 L 327.20 730.40 L 326.85 730.25 L 299.22 718.23 L 297.59 717.52 L 268.32 704.43 L 287.32 662.70 L 289.62 657.76 L 305.90 622.80 Z "/>
<path class="zone" data-zone-id="11215740_020_03" d="M 305.90 622.80 L 306.00 622.60 L 308.42 617.24 L 326.65 576.94 L 342.95 541.29 L 344.61 536.97 L 344.97 537.15 L 355.96 542.40 L 370.65 549.31 L 370.85 549.39 L 395.64 560.13 L 418.82 570.48 L 430.57 575.73 L 431.09 575.96 L 457.87 587.77 L 458.05 587.85 L 481.11 597.95 L 509.49 610.54 L 506.40 614.56 L 453.23 683.84 L 450.32 687.62 L 429.90 678.51 L 427.37 677.39 L 399.03 664.52 L 398.83 664.43 L 390.52 660.67 L 368.58 650.74 L 346.49 640.75 L 311.60 625.33 L 305.90 622.80 Z "/>
<path class="zone" data-zone-id="11215740_020_04" d="M 344.61 536.97 L 346.61 532.70 L 359.42 505.38 L 373.12 475.41 L 373.13 475.39 L 376.06 469.00 L 394.36 429.08 L 411.57 391.38 L 440.21 328.60 L 480.85 346.88 L 513.28 360.91 L 523.95 365.10 L 518.71 376.94 L 501.26 415.76 L 501.25 415.78 L 495.40 429.35 L 489.36 442.92 L 489.28 443.08 L 471.59 483.61 L 471.46 483.90 L 449.87 533.10 L 449.28 534.43 L 449.10 534.85 L 440.94 553.41 L 434.89 566.71 L 432.84 570.98 L 430.57 575.73 L 418.82 570.48 L 395.64 560.13 L 370.85 549.39 L 370.65 549.31 L 355.96 542.40 L 344.97 537.15 L 344.61 536.97 Z "/>
<path class="zone" data-zone-id="11215740_020_05" d="M 440.21 328.60 L 443.45 321.64 L 455.64 294.82 L 464.70 274.62 L 464.83 274.35 L 482.78 235.07 L 484.70 230.77 L 495.09 207.44 L 499.65 197.21 L 499.77 196.94 L 519.03 154.37 L 519.47 153.40 L 535.07 119.18 L 537.00 114.75 L 546.67 94.53 L 556.74 97.86 L 595.10 113.43 L 622.05 123.94 L 627.93 126.24 L 630.21 127.13 L 630.43 127.22 L 622.05 145.64 L 601.13 191.65 L 584.12 229.05 L 581.86 234.01 L 581.79 234.15 L 564.98 271.59 L 564.86 271.84 L 555.28 293.51 L 542.66 322.05 L 529.57 353.05 L 523.95 365.10 L 513.28 360.91 L 480.85 346.88 L 440.21 328.60 Z "/>
<path class="zone" data-zone-id="11215740_020_06" d="M 630.43 127.22 L 659.99 140.26 L 660.20 140.36 L 685.24 151.41 L 686.24 151.85 L 698.62 157.31 L 699.28 157.60 L 731.53 171.83 L 731.53 171.83 L 732.45 172.23 L 724.62 189.46 L 699.45 244.90 L 698.18 247.69 L 690.58 264.58 L 690.27 265.28 L 673.13 303.37 L 673.07 303.48 L 667.28 316.35 L 667.10 316.73 L 665.71 319.66 L 664.19 323.17 L 664.03 323.53 L 654.93 344.05 L 625.19 409.10 L 615.19 404.84 L 606.77 401.35 L 597.23 397.20 L 597.12 397.15 L 596.27 396.77 L 579.34 389.20 L 559.26 380.25 L 559.11 380.18 L 544.64 373.72 L 523.95 365.10 L 529.57 353.05 L 542.66 322.05 L 555.28 293.51 L 564.86 271.84 L 564.98 271.59 L 581.79 234.15 L 581.86 234.01 L 584.12 229.05 L 601.13 191.65 L 622.05 145.64 L 630.43 127.22 Z "/>
<path class="zone" data-zone-id="11215740_020_07" d="M 732.45 172.23 L 732.58 172.29 L 747.36 178.81 L 749.24 179.64 L 759.29 184.07 L 760.06 184.41 L 784.49 194.93 L 824.33 212.10 L 816.13 229.75 L 810.03 243.45 L 800.25 265.68 L 793.59 280.82 L 791.59 285.35 L 783.07 304.71 L 781.32 308.68 L 771.49 330.98 L 765.59 344.38 L 757.37 363.01 L 757.31 363.15 L 750.65 377.99 L 725.71 433.55 L 717.83 450.91 L 717.81 450.96 L 717.70 450.91 L 700.96 443.47 L 690.01 438.58 L 689.86 438.52 L 669.90 429.63 L 669.42 429.41 L 650.97 421.18 L 650.80 421.11 L 646.02 418.98 L 635.89 414.26 L 625.72 409.33 L 625.19 409.10 L 654.93 344.05 L 664.03 323.53 L 664.19 323.17 L 665.71 319.66 L 667.10 316.73 L 667.28 316.35 L 673.07 303.48 L 673.13 303.37 L 690.27 265.28 L 690.58 264.58 L 698.18 247.69 L 699.45 244.90 L 724.62 189.46 L 732.45 172.23 Z "/>
<path class="zone" data-zone-id="11215740_020_08" d="M 824.33 212.10 L 824.43 212.15 L 900.71 242.87 L 924.00 254.28 L 923.38 255.67 L 898.06 313.12 L 893.66 323.08 L 883.63 345.78 L 861.36 396.18 L 856.22 407.80 L 852.30 416.57 L 838.23 447.96 L 837.42 449.77 L 817.70 493.77 L 808.82 490.15 L 807.60 489.65 L 804.94 488.69 L 751.27 465.37 L 746.06 463.13 L 717.81 450.96 L 717.83 450.91 L 725.71 433.55 L 750.65 377.99 L 757.31 363.15 L 757.37 363.01 L 765.59 344.38 L 771.49 330.98 L 781.32 308.68 L 783.07 304.71 L 791.59 285.35 L 793.59 280.82 L 800.25 265.68 L 810.03 243.45 L 816.13 229.75 L 824.33 212.10 Z "/>
<path class="zone" data-zone-id="11215740_020_09" d="M 817.70 493.77 L 817.09 495.13 L 805.08 521.93 L 789.08 558.13 L 779.40 580.03 L 768.97 603.63 L 756.57 631.79 L 727.18 698.54 L 724.81 703.92 L 715.48 701.02 L 714.23 700.63 L 707.21 697.59 L 692.47 691.15 L 691.99 690.94 L 678.92 685.26 L 667.60 680.23 L 667.53 680.21 L 652.08 673.41 L 644.97 670.28 L 623.90 661.03 L 631.06 645.00 L 650.21 602.07 L 652.77 596.29 L 673.95 548.45 L 676.30 543.15 L 684.22 525.00 L 690.06 511.70 L 700.20 488.65 L 707.50 472.40 L 717.81 450.96 L 746.06 463.13 L 751.27 465.37 L 804.94 488.69 L 807.60 489.65 L 808.82 490.15 L 817.70 493.77 Z "/>
<path class="zone" data-zone-id="11215740_020_10" d="M 667.98 832.85 L 652.62 867.51 L 634.23 909.01 L 617.22 947.41 L 607.00 970.25 L 597.70 965.68 L 593.88 963.80 L 561.25 947.76 L 543.87 939.24 L 543.81 939.21 L 539.85 937.22 L 534.92 934.89 L 534.88 934.87 L 522.25 928.62 L 507.47 921.31 L 509.58 916.54 L 510.10 915.44 L 513.60 909.23 L 531.40 869.04 L 534.36 862.18 L 541.88 844.79 L 549.29 828.19 L 551.70 822.77 L 584.99 748.20 L 623.90 661.03 L 644.97 670.28 L 652.08 673.41 L 667.53 680.21 L 667.60 680.23 L 678.92 685.26 L 691.99 690.94 L 692.47 691.15 L 707.21 697.59 L 714.23 700.63 L 715.48 701.02 L 724.81 703.92 L 714.07 728.32 L 691.41 779.77 L 685.34 793.52 L 667.98 832.85 Z "/>
<path class="zone" data-zone-id="11215740_020_11" d="M 607.00 970.25 L 599.26 987.53 L 570.31 1052.42 L 566.72 1060.50 L 557.24 1055.86 L 555.88 1055.24 L 550.70 1052.70 L 531.99 1043.53 L 521.39 1038.47 L 432.04 994.27 L 418.33 987.27 L 384.29 970.13 L 373.00 964.65 L 375.50 956.88 L 408.04 886.06 L 411.22 879.08 L 413.30 874.51 L 439.48 887.44 L 455.99 895.56 L 464.45 899.73 L 464.75 899.87 L 482.29 908.57 L 489.14 912.04 L 507.45 921.30 L 507.47 921.31 L 522.25 928.62 L 534.88 934.87 L 534.92 934.89 L 539.85 937.22 L 543.81 939.21 L 543.87 939.24 L 561.25 947.76 L 593.88 963.80 L 597.70 965.68 L 607.00 970.25 Z "/>
<path class="zone" data-zone-id="11215740_020_00" d="M 471.46 483.90 L 471.59 483.61 L 489.28 443.08 L 489.36 442.92 L 495.40 429.35 L 501.25 415.78 L 501.26 415.76 L 518.71 376.94 L 523.95 365.10 L 544.64 373.72 L 559.11 380.18 L 559.26 380.25 L 579.34 389.20 L 596.27 396.77 L 597.12 397.15 L 597.23 397.20 L 606.77 401.35 L 615.19 404.84 L 625.19 409.10 L 608.79 445.34 L 595.18 476.39 L 592.46 482.64 L 577.09 517.88 L 560.74 555.38 L 560.59 555.72 L 555.49 567.20 L 555.33 567.57 L 549.66 580.42 L 545.36 590.18 L 535.79 610.47 L 533.43 615.13 L 530.88 620.15 L 519.63 615.10 L 509.76 610.67 L 509.49 610.54 L 496.81 604.92 L 481.11 597.95 L 458.05 587.85 L 457.87 587.77 L 431.09 575.96 L 430.57 575.73 L 432.84 570.98 L 434.89 566.71 L 440.94 553.41 L 449.10 534.85 L 449.28 534.43 L 449.87 533.10 L 455.03 521.34 L 471.46 483.90 Z "/>
<path class="zone" data-zone-id="11215740_020_13" d="M 623.90 661.03 L 623.78 660.98 L 599.24 650.03 L 580.81 641.99 L 580.45 641.83 L 543.09 625.36 L 543.00 625.32 L 531.61 620.48 L 530.88 620.15 L 533.43 615.13 L 535.79 610.47 L 545.36 590.18 L 549.66 580.42 L 555.33 567.57 L 555.49 567.20 L 560.59 555.72 L 560.74 555.38 L 577.09 517.88 L 592.46 482.64 L 595.18 476.39 L 608.79 445.34 L 625.19 409.10 L 625.72 409.33 L 635.89 414.26 L 646.02 418.98 L 650.80 421.11 L 650.97 421.18 L 669.42 429.41 L 669.90 429.63 L 689.86 438.52 L 690.01 438.58 L 700.96 443.47 L 717.70 450.91 L 717.81 450.96 L 707.50 472.40 L 700.20 488.65 L 690.06 511.70 L 684.22 525.00 L 676.30 543.15 L 673.95 548.45 L 652.77 596.29 L 650.21 602.07 L 631.06 645.00 L 623.90 661.03 Z "/>
</svg>
