<svg xmlns="http://www.w3.org/2000/svg" viewBox="0 0 1155 1155" width="1155" height="1155">
<path class="zone" data-zone-id="11215810_010_01" d="M 1032.55 151.15 L 1036.89 152.71 L 1038.35 153.24 L 1029.24 172.89 L 1017.28 198.66 L 1009.68 214.01 L 1009.62 214.13 L 1009.62 214.13 L 941.37 352.17 L 924.52 430.12 L 923.20 431.46 L 918.95 435.61 L 911.35 443.03 L 924.40 430.15 L 905.95 448.31 L 905.93 448.32 L 903.70 450.49 L 899.85 454.25 L 887.88 466.01 L 877.13 476.63 L 873.85 479.87 L 870.08 483.59 L 869.62 484.04 L 869.18 484.48 L 868.35 485.29 L 475.81 871.48 L 427.93 919.28 L 425.43 921.72 L 423.81 923.34 L 421.91 925.24 L 421.31 925.84 L 418.96 928.17 L 417.63 929.47 L 417.62 929.48 L 417.60 929.50 L 417.60 929.50 L 414.78 932.31 L 413.28 933.80 L 410.72 936.34 L 402.39 944.65 L 396.85 950.17 L 328.28 1018.76 L 323.01 1024.00 L 308.66 1038.24 L 295.93 1050.86 L 278.14 1068.48 L 271.79 1074.76 L 184.68 965.70 L 184.68 965.70 L 123.62 889.25 L 116.67 880.54 L 116.67 880.54 L 116.67 880.54 L 116.64 880.51 L 116.65 880.51 L 213.06 775.25 L 505.04 462.01 L 650.27 288.08 L 778.54 130.95 L 826.58 80.22 L 854.46 90.13 L 856.24 88.60 L 1032.55 151.15 Z "/>
</svg>
