<svg xmlns="http://www.w3.org/2000/svg" viewBox="0 0 1155 1155" width="1155" height="1155">
<path class="zone" data-zone-id="11215760_050_01" d="M 260.70 827.56 L 274.49 833.40 L 287.97 839.11 L 297.56 843.64 L 319.74 854.12 L 320.42 854.44 L 357.55 855.76 L 369.90 856.20 L 375.42 854.82 L 378.47 853.45 L 384.61 850.70 L 412.55 835.50 L 436.19 819.81 L 437.70 818.61 L 452.32 806.92 L 461.51 800.10 L 469.54 795.28 L 480.72 792.77 L 488.10 791.95 L 488.10 791.95 L 511.64 789.33 L 512.45 789.30 L 560.36 787.15 L 567.80 786.81 L 585.57 786.02 L 585.92 795.55 L 587.93 850.59 L 591.73 949.66 L 591.94 955.30 L 594.15 1013.13 L 538.52 1028.82 L 498.78 1040.04 L 488.41 1042.96 L 482.80 1040.65 L 482.26 1040.43 L 399.20 1003.70 L 380.66 1001.63 L 378.61 1001.44 L 336.61 997.56 L 335.19 997.44 L 331.27 997.09 L 285.47 993.05 L 220.44 986.66 L 206.85 985.09 L 191.71 983.34 L 192.58 981.37 L 230.89 894.98 L 241.27 871.49 L 259.05 831.25 L 260.70 827.56 Z "/>
<path class="zone" data-zone-id="11215760_050_02" d="M 252.99 811.91 L 245.22 807.56 L 241.92 804.72 L 237.45 800.93 L 229.06 791.23 L 223.76 781.76 L 211.67 750.02 L 200.47 720.65 L 191.54 694.60 L 189.47 688.54 L 186.30 671.21 L 182.05 660.54 L 180.89 657.64 L 187.82 640.66 L 194.36 624.63 L 199.09 587.36 L 199.18 586.70 L 206.89 587.67 L 315.63 601.38 L 329.67 603.15 L 336.80 550.24 L 342.50 507.04 L 359.90 379.09 L 362.36 361.25 L 403.06 366.86 L 494.67 378.42 L 492.00 398.35 L 482.88 464.68 L 476.47 511.33 L 461.51 622.85 L 461.50 622.90 L 459.12 640.09 L 444.87 751.83 L 444.50 754.73 L 437.58 808.95 L 436.19 819.81 L 412.55 835.50 L 384.61 850.70 L 378.47 853.45 L 375.42 854.82 L 369.90 856.20 L 357.55 855.76 L 320.42 854.44 L 319.74 854.12 L 297.56 843.64 L 287.97 839.11 L 274.49 833.40 L 260.70 827.56 L 264.76 818.51 L 252.99 811.91 Z "/>
<path class="zone" data-zone-id="11215760_050_03" d="M 362.36 361.25 L 374.77 271.14 L 376.66 257.45 L 385.56 192.53 L 391.92 147.28 L 394.75 127.11 L 395.23 124.30 L 397.30 112.04 L 411.90 115.02 L 437.24 120.81 L 449.20 123.62 L 468.19 128.12 L 486.95 132.53 L 507.01 137.25 L 517.97 139.84 L 524.76 141.42 L 524.76 141.42 L 525.14 141.51 L 525.31 141.55 L 523.01 157.21 L 522.43 161.18 L 521.43 169.64 L 514.05 232.14 L 514.01 232.41 L 512.33 246.65 L 494.67 378.42 L 403.06 366.86 L 362.36 361.25 Z "/>
<path class="zone" data-zone-id="11215760_050_04" d="M 540.30 145.01 L 542.46 145.55 L 542.79 145.63 L 543.09 145.70 L 584.03 155.29 L 585.85 155.75 L 594.84 157.88 L 599.12 158.87 L 641.21 168.76 L 646.56 170.09 L 646.57 170.09 L 763.09 198.96 L 763.47 199.06 L 762.53 205.01 L 761.79 212.86 L 761.61 214.77 L 761.34 217.07 L 746.28 342.94 L 744.09 361.35 L 736.82 413.03 L 721.43 409.28 L 638.17 400.29 L 617.25 395.84 L 555.27 387.33 L 555.00 387.29 L 494.67 378.42 L 512.33 246.65 L 514.01 232.41 L 514.05 232.14 L 521.43 169.64 L 522.43 161.18 L 523.01 157.21 L 525.31 141.55 L 538.85 144.71 L 540.30 145.01 Z "/>
<path class="zone" data-zone-id="11215760_050_05" d="M 944.33 244.79 L 955.20 247.64 L 955.20 247.64 L 968.85 251.22 L 968.85 251.22 L 973.73 252.49 L 973.74 252.50 L 973.74 252.50 L 973.74 252.51 L 973.90 261.56 L 974.11 286.27 L 973.91 294.04 L 973.91 294.04 L 970.39 435.32 L 970.20 443.00 L 970.20 443.00 L 970.20 443.00 L 939.81 440.75 L 934.05 440.32 L 880.09 435.28 L 872.36 433.93 L 872.15 433.90 L 830.97 427.52 L 830.80 427.50 L 824.38 426.63 L 823.84 426.56 L 753.15 417.02 L 736.82 413.03 L 744.09 361.35 L 746.28 342.94 L 761.34 217.07 L 761.61 214.77 L 761.79 212.86 L 762.53 205.01 L 763.47 199.06 L 787.49 205.01 L 787.49 205.01 L 883.92 228.90 L 887.04 229.81 L 887.41 230.11 L 887.55 230.33 L 944.33 244.79 Z "/>
<path class="zone" data-zone-id="11215760_050_06" d="M 915.91 779.01 L 908.80 794.48 L 871.56 885.19 L 863.61 904.56 L 837.51 962.33 L 811.34 953.01 L 806.77 953.45 L 761.47 965.65 L 645.70 1000.03 L 614.90 1007.28 L 594.15 1013.13 L 591.94 955.30 L 591.73 949.66 L 587.93 850.59 L 585.92 795.55 L 585.57 786.02 L 589.20 785.85 L 661.56 782.60 L 722.20 779.88 L 748.38 778.70 L 780.80 777.26 L 819.60 778.54 L 884.49 778.86 L 915.91 779.01 Z "/>
<path class="zone" data-zone-id="11215760_050_07" d="M 884.49 778.86 L 819.60 778.54 L 780.80 777.26 L 748.38 778.70 L 722.20 779.88 L 661.56 782.60 L 589.20 785.85 L 585.57 786.02 L 567.80 786.81 L 574.02 717.01 L 590.80 709.80 L 609.31 706.62 L 639.94 695.76 L 662.99 692.30 L 687.86 693.41 L 698.31 692.31 L 698.52 692.29 L 723.03 690.06 L 730.87 687.96 L 775.43 676.07 L 796.52 669.94 L 803.36 667.95 L 848.10 659.39 L 859.63 663.31 L 870.89 667.13 L 915.85 666.34 L 929.99 664.66 L 933.79 664.47 L 963.08 663.05 L 963.08 663.05 L 963.08 663.05 L 962.42 674.31 L 960.42 722.32 L 960.42 722.32 L 959.76 738.29 L 959.26 779.23 L 959.26 779.23 L 915.91 779.01 L 884.49 778.86 Z "/>
<path class="zone" data-zone-id="11215760_050_08" d="M 929.99 664.66 L 915.85 666.34 L 870.89 667.13 L 859.63 663.31 L 848.10 659.39 L 803.36 667.95 L 796.52 669.94 L 775.43 676.07 L 730.87 687.96 L 723.03 690.06 L 698.52 692.29 L 699.35 685.90 L 710.11 603.02 L 717.14 548.89 L 717.26 547.89 L 720.09 526.24 L 728.78 468.34 L 733.73 433.25 L 736.82 413.03 L 753.15 417.02 L 823.84 426.56 L 824.38 426.63 L 830.80 427.50 L 830.97 427.52 L 872.15 433.90 L 872.36 433.93 L 880.09 435.28 L 934.05 440.32 L 939.81 440.75 L 970.20 443.00 L 970.20 443.00 L 970.10 446.77 L 969.91 454.53 L 965.91 614.73 L 964.16 644.62 L 963.08 663.05 L 963.08 663.05 L 933.79 664.47 L 929.99 664.66 Z "/>
<path class="zone" data-zone-id="11215760_050_09" d="M 444.50 754.73 L 444.87 751.83 L 459.12 640.09 L 461.50 622.90 L 461.51 622.85 L 476.47 511.33 L 482.88 464.68 L 492.00 398.35 L 494.67 378.42 L 555.00 387.29 L 555.27 387.33 L 617.25 395.84 L 614.08 417.21 L 591.16 581.20 L 590.45 586.27 L 590.40 586.62 L 586.22 621.31 L 583.08 639.01 L 580.96 651.00 L 577.12 682.25 L 574.69 709.45 L 574.02 717.01 L 567.80 786.81 L 560.36 787.15 L 512.45 789.30 L 511.64 789.33 L 488.10 791.95 L 488.10 791.95 L 480.72 792.77 L 469.54 795.28 L 461.51 800.10 L 452.32 806.92 L 437.70 818.61 L 436.19 819.81 L 437.58 808.95 L 444.50 754.73 Z "/>
<path class="zone" data-zone-id="11215760_050_10" d="M 736.82 413.03 L 733.73 433.25 L 728.78 468.34 L 720.09 526.24 L 717.26 547.89 L 717.14 548.89 L 710.11 603.02 L 699.35 685.90 L 698.52 692.29 L 698.31 692.31 L 687.86 693.41 L 662.99 692.30 L 639.94 695.76 L 609.31 706.62 L 590.80 709.80 L 574.02 717.01 L 574.69 709.45 L 577.12 682.25 L 580.96 651.00 L 583.08 639.01 L 586.22 621.31 L 590.40 586.62 L 590.45 586.27 L 591.16 581.20 L 614.08 417.21 L 617.25 395.84 L 638.17 400.29 L 721.43 409.28 L 736.82 413.03 Z "/>
</svg>
