<svg xmlns="http://www.w3.org/2000/svg" viewBox="0 0 1155 1155" width="1155" height="1155">
<path class="zone" data-zone-id="11215830_030_01" d="M 582.13 776.57 L 579.76 777.45 L 579.13 777.69 L 573.77 780.40 L 567.10 783.76 L 563.34 785.66 L 558.86 787.92 L 556.16 789.29 L 549.67 792.56 L 543.26 795.79 L 542.27 796.29 L 538.73 798.07 L 536.35 799.26 L 534.14 800.38 L 531.48 801.72 L 527.83 803.55 L 523.22 805.88 L 512.71 811.05 L 335.05 842.43 L 334.91 842.43 L 334.86 842.43 L 334.62 842.43 L 328.95 841.42 L 302.97 836.89 L 270.29 831.20 L 245.78 826.90 L 220.48 822.47 L 204.18 819.64 L 180.90 815.59 L 173.66 813.31 L 139.19 802.65 L 118.36 796.28 L 104.92 792.16 L 78.42 784.06 L 71.10 781.84 L 69.09 781.23 L 189.25 328.49 L 190.27 324.65 L 190.44 323.99 L 197.37 326.53 L 198.66 327.00 L 198.67 326.98 L 202.19 312.56 L 202.19 312.56 L 202.19 312.56 L 202.19 312.56 L 209.81 315.11 L 220.85 320.32 L 234.53 326.91 L 245.30 332.03 L 275.41 345.94 L 279.79 348.44 L 280.96 349.10 L 289.52 353.24 L 298.43 357.35 L 316.48 365.68 L 319.18 366.92 L 332.27 373.13 L 389.94 399.75 L 395.68 402.19 L 395.71 402.20 L 395.99 402.31 L 391.43 414.19 L 391.14 414.94 L 389.22 419.93 L 391.10 415.04 L 391.43 414.19 L 395.99 402.32 L 398.50 403.38 L 406.67 407.00 L 427.36 416.60 L 438.63 421.74 L 446.95 424.82 L 466.92 431.21 L 475.78 433.72 L 489.02 437.47 L 500.69 440.35 L 524.33 446.17 L 526.63 446.65 L 538.87 449.20 L 553.71 451.95 L 553.89 451.98 L 567.78 454.08 L 585.31 456.55 L 597.13 457.90 L 624.09 460.54 L 633.19 460.97 L 643.87 461.48 L 660.62 462.05 L 678.53 461.95 L 686.24 462.13 L 688.96 462.20 L 706.08 461.70 L 736.99 459.50 L 762.19 457.02 L 769.16 456.58 L 776.62 455.66 L 789.00 453.84 L 815.17 449.29 L 834.83 445.04 L 839.88 443.93 L 844.54 451.89 L 860.13 448.72 L 916.27 431.35 L 992.16 399.94 L 1003.05 394.73 L 1003.05 394.73 L 1003.05 394.74 L 1003.06 394.76 L 1006.08 399.69 L 1085.92 530.44 L 1055.18 549.42 L 1035.54 561.55 L 1006.67 579.39 L 994.01 587.22 L 979.28 596.35 L 952.93 612.67 L 930.52 626.55 L 920.31 632.88 L 916.65 635.15 L 899.96 645.51 L 878.01 659.08 L 860.55 669.81 L 856.09 672.57 L 852.63 674.71 L 845.23 679.31 L 838.34 681.83 L 837.02 682.31 L 830.65 684.65 L 821.27 688.08 L 814.75 690.47 L 810.30 692.13 L 807.17 693.30 L 800.70 695.69 L 793.42 698.41 L 779.91 703.44 L 772.84 706.07 L 751.39 714.05 L 737.56 719.18 L 720.93 725.36 L 685.44 738.48 L 666.25 745.62 L 663.99 746.45 L 642.38 754.43 L 610.44 766.18 L 603.45 768.75 L 595.02 771.85 L 584.07 775.85 L 582.13 776.57 Z "/>
</svg>
