<svg xmlns="http://www.w3.org/2000/svg" viewBox="0 0 1155 1155" width="1155" height="1155">
<path class="zone" data-zone-id="11215710_011_01" d="M 105.33 856.35 L 110.05 843.86 L 129.08 793.73 L 159.90 711.82 L 164.98 698.30 L 180.60 657.05 L 208.40 583.62 L 217.46 559.70 L 220.31 552.20 L 234.50 514.85 L 242.01 495.08 L 271.32 418.67 L 279.01 398.64 L 296.18 353.89 L 297.46 350.54 L 314.66 355.73 L 332.34 355.27 L 333.10 355.31 L 337.88 355.55 L 343.58 354.78 L 359.90 353.30 L 368.19 352.55 L 378.41 351.73 L 383.73 351.45 L 387.45 351.43 L 388.20 351.42 L 390.14 352.14 L 390.39 352.29 L 387.47 368.30 L 385.00 367.60 L 376.22 370.86 L 364.70 375.15 L 356.08 377.23 L 354.72 377.56 L 343.59 380.25 L 335.63 384.58 L 320.80 392.26 L 318.76 393.31 L 316.52 394.80 L 296.43 407.81 L 327.87 420.13 L 265.93 581.86 L 198.55 760.99 L 293.76 797.71 L 229.36 966.65 L 292.62 994.23 L 310.16 999.77 L 316.84 1001.88 L 363.09 1016.52 L 391.76 1025.57 L 405.59 1029.94 L 416.60 1033.21 L 418.50 1033.80 L 429.65 1037.32 L 437.47 1039.78 L 432.90 1057.59 L 483.10 1073.18 L 482.99 1073.48 L 482.99 1073.48 L 425.81 1055.41 L 425.81 1055.41 L 425.81 1055.41 L 424.91 1055.13 L 420.55 1053.75 L 355.23 1033.12 L 285.34 1008.61 L 159.96 955.56 L 159.96 955.56 L 78.27 920.99 L 78.27 920.99 L 87.58 903.31 L 105.33 856.35 Z "/>
<path class="zone" data-zone-id="11215710_011_00" d="M 467.95 259.99 L 459.94 279.42 L 459.21 279.12 L 453.05 295.16 L 439.94 288.08 L 430.02 280.35 L 429.86 280.25 L 424.44 277.81 L 422.95 277.11 L 422.49 278.55 L 409.59 275.30 L 401.17 273.18 L 392.75 271.07 L 398.75 256.72 L 400.07 253.26 L 419.11 203.15 L 419.94 203.52 L 454.31 218.80 L 454.96 216.98 L 471.76 224.37 L 473.88 225.30 L 474.28 225.48 L 493.07 233.74 L 480.59 263.52 L 468.54 258.58 L 467.95 259.99 Z "/>
<path class="zone" data-zone-id="11215710_011_01" d="M 435.89 93.61 L 435.89 93.61 L 468.44 107.42 L 472.15 109.24 L 484.69 115.38 L 516.33 134.34 L 534.92 145.94 L 535.05 146.02 L 583.31 176.44 L 594.15 183.41 L 598.89 186.46 L 598.89 186.46 L 589.80 198.55 L 591.83 205.47 L 611.34 270.95 L 618.39 293.48 L 618.39 293.48 L 618.41 293.54 L 574.64 312.37 L 549.52 320.29 L 525.09 327.99 L 509.17 333.00 L 508.83 332.88 L 504.88 331.47 L 496.11 327.45 L 476.15 320.36 L 457.53 312.05 L 439.08 303.18 L 433.81 300.58 L 423.25 296.59 L 407.61 291.48 L 402.27 289.73 L 402.11 292.18 L 401.85 296.14 L 401.20 299.60 L 400.42 303.72 L 397.86 315.15 L 393.94 332.72 L 393.58 334.31 L 391.67 342.77 L 390.56 351.36 L 390.39 352.29 L 390.14 352.14 L 388.20 351.42 L 387.45 351.43 L 383.73 351.45 L 378.41 351.73 L 368.19 352.55 L 359.90 353.30 L 343.58 354.78 L 337.88 355.55 L 333.10 355.31 L 332.34 355.27 L 314.66 355.73 L 297.46 350.54 L 308.04 322.98 L 328.09 271.37 L 336.34 248.62 L 340.52 237.10 L 346.76 219.89 L 376.53 143.81 L 380.37 131.98 L 382.05 126.78 L 392.52 94.49 L 402.09 81.50 L 435.89 93.61 Z M 429.86 280.25 L 430.02 280.35 L 439.94 288.08 L 453.05 295.16 L 459.21 279.12 L 459.94 279.42 L 467.95 259.99 L 468.54 258.58 L 480.59 263.52 L 493.07 233.74 L 474.28 225.48 L 473.88 225.30 L 471.76 224.37 L 454.96 216.98 L 454.31 218.80 L 419.94 203.52 L 419.11 203.15 L 400.07 253.26 L 405.84 254.63 L 406.93 254.90 L 410.68 266.32 L 409.59 275.30 L 422.49 278.55 L 422.95 277.11 L 424.44 277.81 L 429.86 280.25 Z M 381.48 248.82 L 383.26 249.27 L 381.48 248.82 L 381.48 248.82 Z M 381.48 248.82 L 373.07 246.81 L 381.48 248.82 L 381.48 248.82 Z M 369.36 292.15 L 367.26 291.54 L 369.15 292.39 L 369.36 292.15 L 368.63 291.94 L 369.36 292.15 Z "/>
<path class="zone" data-zone-id="11215710_011_03" d="M 642.04 214.19 L 642.04 214.19 L 674.89 234.72 L 682.45 238.43 L 688.77 241.54 L 724.45 252.85 L 747.97 259.62 L 772.38 266.40 L 775.54 267.28 L 845.93 286.84 L 845.93 286.84 L 857.30 289.43 L 854.86 303.37 L 854.47 305.63 L 853.72 309.88 L 853.52 311.35 L 854.01 312.24 L 854.49 313.03 L 854.78 314.31 L 854.67 317.85 L 854.04 324.24 L 853.93 326.80 L 853.72 327.36 L 853.13 328.95 L 851.94 331.21 L 849.15 336.80 L 848.02 339.81 L 847.90 340.44 L 847.83 340.83 L 847.81 341.57 L 848.50 349.79 L 840.18 350.39 L 829.07 351.02 L 820.59 351.80 L 807.35 352.90 L 800.94 353.43 L 796.15 354.00 L 786.34 354.84 L 780.94 355.30 L 771.64 355.86 L 769.73 356.07 L 768.94 354.69 L 767.40 348.59 L 767.03 347.71 L 765.65 344.45 L 763.70 344.36 L 756.87 345.95 L 754.38 346.34 L 753.33 346.37 L 743.58 346.48 L 737.61 346.27 L 728.20 346.00 L 720.80 345.60 L 713.42 344.90 L 710.14 344.80 L 709.14 344.80 L 707.02 345.20 L 705.52 345.88 L 696.58 353.87 L 695.40 355.17 L 694.68 355.95 L 693.83 356.34 L 690.78 356.20 L 687.97 355.78 L 685.23 354.92 L 676.36 351.74 L 668.13 349.17 L 666.43 348.18 L 665.52 347.32 L 664.16 345.74 L 661.43 341.48 L 659.62 339.35 L 658.31 335.41 L 651.51 327.24 L 649.90 324.00 L 638.41 320.22 L 633.13 315.44 L 626.25 315.76 L 625.60 315.81 L 618.64 293.44 L 618.41 293.54 L 618.39 293.48 L 618.39 293.48 L 611.34 270.95 L 591.83 205.47 L 589.80 198.55 L 598.89 186.46 L 598.89 186.46 L 602.23 188.60 L 602.23 188.60 L 618.34 198.96 L 642.04 214.19 Z "/>
<path class="zone" data-zone-id="11215710_011_00" d="M 902.24 298.50 L 929.60 301.63 L 1035.43 309.58 L 1035.47 309.58 L 1076.76 312.50 L 1075.58 320.49 L 1076.75 328.00 L 1075.60 342.95 L 1075.60 342.95 L 1032.74 335.79 L 1012.55 335.12 L 1012.07 346.31 L 951.63 341.96 L 951.41 341.18 L 951.35 340.32 L 951.16 340.34 L 950.38 340.42 L 950.34 337.46 L 950.30 334.63 L 947.59 319.99 L 945.40 319.78 L 934.40 318.74 L 940.72 341.35 L 941.85 345.23 L 942.25 351.56 L 940.70 352.42 L 939.33 350.24 L 934.11 348.25 L 935.01 341.94 L 930.32 342.44 L 897.96 345.90 L 881.12 347.29 L 877.33 347.59 L 853.62 349.42 L 850.71 349.62 L 850.77 350.47 L 847.45 350.65 L 845.89 350.73 L 845.59 350.12 L 831.97 351.81 L 818.97 353.43 L 808.26 354.76 L 808.04 354.78 L 798.17 355.63 L 787.59 356.54 L 770.73 357.98 L 758.32 359.04 L 750.97 359.67 L 742.86 360.15 L 731.45 360.81 L 724.02 360.41 L 716.56 360.00 L 710.78 359.67 L 709.35 359.52 L 696.08 358.19 L 691.09 357.91 L 686.05 357.31 L 664.29 348.84 L 662.48 347.94 L 659.62 339.35 L 661.43 341.48 L 664.16 345.74 L 665.52 347.32 L 666.43 348.18 L 668.13 349.17 L 676.36 351.74 L 685.23 354.92 L 687.97 355.78 L 690.78 356.20 L 693.83 356.34 L 694.68 355.95 L 695.40 355.17 L 696.58 353.87 L 705.52 345.88 L 707.02 345.20 L 709.14 344.80 L 710.14 344.80 L 713.42 344.90 L 720.80 345.60 L 728.20 346.00 L 737.61 346.27 L 743.58 346.48 L 753.33 346.37 L 754.38 346.34 L 756.87 345.95 L 763.70 344.36 L 765.65 344.45 L 767.03 347.71 L 767.40 348.59 L 768.94 354.69 L 769.73 356.07 L 771.64 355.86 L 780.94 355.30 L 786.34 354.84 L 796.15 354.00 L 800.94 353.43 L 807.35 352.90 L 820.59 351.80 L 829.07 351.02 L 840.18 350.39 L 848.50 349.79 L 847.81 341.57 L 847.83 340.83 L 847.90 340.44 L 848.02 339.81 L 849.15 336.80 L 851.94 331.21 L 853.13 328.95 L 853.72 327.36 L 853.93 326.80 L 854.04 324.24 L 854.67 317.85 L 854.78 314.31 L 854.49 313.03 L 854.01 312.24 L 853.52 311.35 L 853.72 309.88 L 854.47 305.63 L 854.86 303.37 L 857.30 289.43 L 879.20 294.42 L 879.21 294.42 L 902.24 298.50 Z "/>
</svg>
