<svg xmlns="http://www.w3.org/2000/svg" viewBox="0 0 1155 1155" width="1155" height="1155">
<path class="zone" data-zone-id="11215710_010_00" d="M 934.94 453.31 L 940.42 452.76 L 939.83 463.74 L 939.07 477.71 L 938.38 490.50 L 937.95 498.32 L 937.66 503.77 L 937.10 511.65 L 935.77 530.31 L 935.65 531.98 L 934.81 543.77 L 934.80 543.86 L 934.64 546.08 L 934.55 547.39 L 936.52 553.14 L 936.91 557.63 L 937.97 569.79 L 938.06 570.76 L 938.89 580.30 L 954.49 587.29 L 955.77 585.38 L 957.82 586.57 L 967.78 592.27 L 981.30 599.37 L 981.46 599.46 L 992.08 605.19 L 993.76 613.98 L 999.07 623.25 L 1006.34 631.18 L 1023.40 645.80 L 1025.33 640.33 L 1028.39 641.63 L 1028.38 641.66 L 1029.10 641.98 L 1029.74 642.20 L 1029.90 642.26 L 1029.90 642.26 L 1029.90 642.26 L 1032.34 643.80 L 1035.01 644.75 L 1051.48 650.46 L 1058.75 652.93 L 1076.94 659.13 L 1076.22 661.18 L 1076.21 661.20 L 1072.57 671.68 L 1069.09 681.70 L 1065.63 691.66 L 1062.92 699.45 L 1062.22 701.46 L 1060.54 706.39 L 1059.05 710.75 L 1052.48 729.33 L 1047.80 742.55 L 1043.19 755.59 L 1038.49 768.87 L 1033.33 783.48 L 1030.18 792.38 L 1026.56 802.62 L 1015.89 799.07 L 1005.73 796.05 L 919.77 770.48 L 916.17 767.93 L 891.74 760.20 L 876.39 785.01 L 881.24 789.80 L 888.34 792.38 L 892.22 794.22 L 892.22 794.22 L 894.30 795.21 L 896.73 797.36 L 899.00 830.87 L 890.48 878.20 L 889.75 882.26 L 881.55 924.94 L 880.96 927.98 L 879.33 934.40 L 869.34 934.01 L 867.23 931.38 L 862.12 925.02 L 853.64 917.96 L 846.22 912.89 L 840.93 909.28 L 836.89 910.71 L 836.38 911.84 L 831.99 921.48 L 818.85 917.93 L 816.27 928.09 L 814.26 936.01 L 812.13 943.94 L 810.12 951.44 L 804.08 960.15 L 803.16 961.47 L 802.63 961.21 L 802.02 962.39 L 788.52 956.70 L 777.21 953.42 L 760.07 949.94 L 733.08 943.48 L 729.63 942.65 L 727.81 944.71 L 726.66 944.08 L 717.58 939.16 L 706.09 937.21 L 704.56 936.20 L 698.36 932.09 L 700.04 939.82 L 692.07 936.67 L 668.24 926.68 L 667.39 926.33 L 647.89 923.21 L 643.84 922.56 L 639.10 922.52 L 630.12 922.44 L 620.32 922.35 L 613.29 922.28 L 610.55 922.26 L 606.82 921.43 L 599.40 921.36 L 599.22 921.75 L 597.49 921.81 L 594.90 921.93 L 584.42 922.22 L 583.43 922.48 L 576.41 922.74 L 568.59 923.02 L 555.95 927.53 L 554.98 935.58 L 541.17 932.77 L 537.02 931.93 L 538.33 923.56 L 535.92 921.00 L 521.90 919.53 L 522.56 914.90 L 522.64 914.34 L 527.43 905.70 L 522.78 902.70 L 516.25 901.41 L 515.74 901.30 L 514.58 898.83 L 508.95 897.96 L 503.43 897.38 L 473.63 895.83 L 454.61 894.63 L 442.32 893.95 L 431.98 893.12 L 416.36 891.80 L 412.82 891.38 L 398.56 889.33 L 391.94 888.08 L 387.90 887.32 L 386.09 884.80 L 384.28 886.51 L 374.56 884.05 L 373.66 886.59 L 368.67 900.54 L 371.23 936.98 L 367.22 948.35 L 366.92 949.15 L 366.92 949.15 L 366.92 949.16 L 360.56 966.38 L 360.56 966.38 L 310.72 950.91 L 315.26 933.23 L 307.50 930.78 L 296.43 927.29 L 294.54 926.70 L 283.62 923.45 L 269.88 919.12 L 241.42 910.13 L 195.50 895.60 L 188.88 893.50 L 171.46 888.00 L 108.66 860.63 L 172.59 692.91 L 78.07 656.46 L 144.96 478.62 L 206.45 318.07 L 175.24 305.83 L 195.19 292.92 L 197.42 291.44 L 199.44 290.39 L 214.16 282.77 L 222.06 278.47 L 233.11 275.80 L 234.46 275.47 L 243.01 273.41 L 254.45 269.15 L 263.17 265.91 L 265.13 266.47 L 265.05 266.49 L 265.63 266.61 L 265.66 266.46 L 268.52 250.71 L 273.18 253.45 L 277.15 255.68 L 279.14 256.50 L 281.40 257.27 L 300.05 261.58 L 318.16 265.28 L 323.56 266.60 L 329.70 267.66 L 333.00 267.24 L 337.28 265.53 L 342.63 262.54 L 346.92 259.64 L 358.03 249.01 L 361.41 245.73 L 369.38 239.60 L 370.31 238.89 L 375.22 235.82 L 378.10 234.39 L 378.32 234.27 L 382.71 232.65 L 386.10 231.44 L 386.44 231.57 L 402.24 226.59 L 426.50 218.94 L 451.44 211.08 L 494.89 192.39 L 495.12 192.29 L 502.09 214.70 L 502.68 214.45 L 509.50 214.13 L 514.74 218.88 L 526.15 222.63 L 527.75 225.84 L 534.50 233.95 L 535.80 237.87 L 538.64 246.40 L 540.44 247.29 L 562.04 255.70 L 567.04 256.30 L 572.00 256.57 L 585.17 257.90 L 586.59 258.04 L 592.33 258.37 L 599.73 258.77 L 607.11 259.18 L 618.44 258.51 L 626.49 258.04 L 633.78 257.42 L 646.11 256.36 L 662.85 254.93 L 673.35 254.03 L 683.10 253.21 L 683.37 253.17 L 693.99 251.85 L 706.90 250.24 L 720.42 248.56 L 720.72 249.17 L 721.39 250.53 L 725.67 250.33 L 725.57 248.91 L 725.50 248.07 L 728.40 247.87 L 751.94 246.05 L 755.70 245.75 L 772.41 244.37 L 809.19 240.44 L 808.30 246.70 L 813.48 248.68 L 814.84 250.85 L 812.30 252.26 L 808.48 254.95 L 809.36 258.32 L 810.87 272.16 L 806.71 326.08 L 798.81 330.48 L 782.39 359.87 L 776.84 368.69 L 775.84 373.18 L 772.91 375.07 L 768.17 374.97 L 768.11 375.82 L 763.22 434.31 L 762.36 444.51 L 762.36 444.51 L 905.44 452.51 L 905.39 453.26 L 915.63 453.40 L 931.68 453.64 L 934.17 453.39 L 934.17 453.39 L 934.94 453.31 Z "/>
<path class="zone" data-zone-id="11215710_010_02" d="M 268.52 250.71 L 268.69 249.79 L 269.80 241.27 L 271.69 232.87 L 272.04 231.28 L 275.94 213.85 L 278.48 202.50 L 279.90 194.97 L 280.16 191.04 L 280.32 188.61 L 301.15 195.42 L 311.63 199.38 L 316.86 201.96 L 335.17 210.76 L 353.66 219.02 L 373.47 226.05 L 382.18 230.05 L 386.10 231.44 L 382.71 232.65 L 378.32 234.27 L 378.10 234.39 L 375.22 235.82 L 370.31 238.89 L 369.38 239.60 L 361.41 245.73 L 358.03 249.01 L 346.92 259.64 L 342.63 262.54 L 337.28 265.53 L 333.00 267.24 L 329.70 267.66 L 323.56 266.60 L 318.16 265.28 L 300.05 261.58 L 281.40 257.27 L 279.14 256.50 L 277.15 255.68 L 273.18 253.45 L 268.52 250.71 Z "/>
</svg>
