<svg xmlns="http://www.w3.org/2000/svg" viewBox="0 0 1154 1155" width="1154" height="1155">
<path class="zone" data-zone-id="11215760_020_01" d="M 744.98 969.87 L 734.00 971.93 L 733.13 972.09 L 689.48 980.35 L 683.58 981.22 L 638.36 987.91 L 628.86 989.60 L 621.35 990.92 L 564.41 1000.96 L 559.04 1001.91 L 495.36 1013.17 L 494.90 1013.25 L 460.15 1019.37 L 459.83 1019.43 L 443.71 1022.27 L 408.02 1027.98 L 407.45 1028.07 L 392.14 1030.53 L 338.43 1039.12 L 280.29 1048.43 L 258.62 1049.63 L 264.47 1036.86 L 287.18 987.36 L 287.32 987.06 L 313.44 929.82 L 313.57 929.55 L 351.68 846.04 L 355.24 836.47 L 355.79 834.97 L 418.46 701.85 L 433.29 665.65 L 435.23 657.93 L 448.52 664.90 L 519.46 696.36 L 520.85 696.98 L 521.08 697.08 L 576.68 723.09 L 576.96 723.22 L 618.91 742.84 L 623.87 745.17 L 625.77 746.06 L 626.02 746.18 L 663.22 763.64 L 665.03 764.50 L 675.72 767.64 L 675.75 767.65 L 680.09 768.92 L 710.15 783.45 L 711.07 783.90 L 717.21 787.29 L 717.37 787.38 L 723.32 790.67 L 755.75 804.29 L 756.28 804.52 L 765.13 806.79 L 803.99 823.87 L 804.61 824.14 L 876.21 856.46 L 882.06 858.87 L 893.16 863.43 L 883.94 884.31 L 849.92 961.12 L 849.14 962.87 L 835.71 961.32 L 835.57 961.32 L 831.90 961.37 L 802.03 959.74 L 784.80 962.91 L 774.38 964.72 L 774.00 964.78 L 748.92 969.13 L 744.98 969.87 Z "/>
<path class="zone" data-zone-id="11215760_020_00" d="M 218.20 912.16 L 179.40 894.45 L 196.65 856.62 L 233.59 775.64 L 293.72 803.19 L 297.79 794.47 L 360.66 824.64 L 355.79 834.97 L 355.24 836.47 L 351.68 846.04 L 313.57 929.55 L 313.44 929.82 L 301.83 955.27 L 236.57 924.60 L 238.17 921.28 L 234.26 919.50 L 218.20 912.16 Z "/>
<path class="zone" data-zone-id="11215760_020_01" d="M 258.58 1049.63 L 244.03 1045.87 L 183.74 1021.12 L 153.82 1008.77 L 150.66 1007.45 L 122.31 995.67 L 122.26 995.65 L 122.28 995.60 L 167.93 895.64 L 179.54 870.20 L 228.44 759.61 L 263.02 680.79 L 286.90 621.95 L 293.83 601.05 L 293.88 601.06 L 321.82 611.80 L 324.05 612.66 L 382.38 635.32 L 435.23 657.93 L 433.29 665.65 L 418.46 701.85 L 360.66 824.64 L 297.79 794.47 L 293.72 803.19 L 233.59 775.64 L 196.65 856.62 L 179.40 894.45 L 218.20 912.16 L 234.26 919.50 L 238.17 921.28 L 236.57 924.60 L 301.83 955.27 L 287.32 987.06 L 287.18 987.36 L 264.47 1036.86 L 258.62 1049.63 L 258.58 1049.63 Z "/>
<path class="zone" data-zone-id="11215760_020_03" d="M 293.83 601.05 L 293.85 600.99 L 304.86 567.80 L 340.82 452.43 L 361.14 379.36 L 361.19 379.37 L 387.30 387.91 L 392.72 389.68 L 414.40 396.77 L 431.26 402.28 L 436.11 403.87 L 449.36 409.68 L 458.89 414.05 L 458.45 418.33 L 456.34 438.82 L 456.16 440.58 L 447.52 532.10 L 447.51 532.14 L 447.32 534.22 L 442.12 589.14 L 441.78 592.73 L 441.74 593.07 L 436.76 645.90 L 435.23 657.93 L 382.38 635.32 L 324.05 612.66 L 321.82 611.80 L 293.88 601.06 L 293.83 601.05 Z "/>
<path class="zone" data-zone-id="11215760_020_04" d="M 398.62 148.33 L 401.15 126.77 L 403.61 105.73 L 403.65 105.43 L 403.68 105.43 L 403.68 105.43 L 411.00 106.26 L 424.47 108.24 L 437.68 109.90 L 517.00 119.78 L 517.75 118.53 L 518.43 117.41 L 531.25 119.98 L 573.42 128.43 L 575.05 128.76 L 579.80 129.71 L 623.62 135.22 L 641.78 137.51 L 667.87 140.82 L 667.06 146.60 L 666.32 151.86 L 665.11 160.48 L 660.57 191.43 L 654.07 235.85 L 652.50 246.61 L 650.96 252.70 L 647.70 265.60 L 644.08 296.42 L 641.92 314.46 L 638.04 350.93 L 636.79 361.41 L 636.73 361.87 L 634.99 378.66 L 631.88 406.26 L 627.57 442.76 L 626.11 453.56 L 623.48 461.18 L 609.51 459.18 L 596.18 456.51 L 560.87 449.58 L 556.95 449.20 L 550.39 449.55 L 550.33 449.56 L 545.38 450.27 L 533.91 450.91 L 518.69 443.86 L 502.71 435.16 L 497.21 432.68 L 491.87 430.28 L 482.18 425.82 L 469.90 419.30 L 466.13 417.23 L 460.22 414.66 L 458.89 414.05 L 449.36 409.68 L 436.11 403.87 L 431.26 402.28 L 414.40 396.77 L 392.72 389.68 L 387.30 387.91 L 361.19 379.37 L 361.14 379.36 L 361.16 379.30 L 369.64 348.81 L 378.00 303.00 L 383.45 252.24 L 398.62 148.33 Z "/>
<path class="zone" data-zone-id="11215760_020_05" d="M 673.87 141.58 L 685.81 143.13 L 688.73 143.51 L 698.90 144.82 L 715.06 146.92 L 756.36 152.27 L 770.19 154.04 L 787.60 156.27 L 861.65 165.80 L 867.51 166.55 L 868.90 166.74 L 888.21 169.31 L 891.06 169.68 L 891.38 169.72 L 891.46 169.74 L 891.54 169.75 L 891.78 169.79 L 891.86 169.79 L 918.84 173.53 L 918.84 173.53 L 918.83 173.60 L 917.17 184.62 L 915.75 193.98 L 901.19 287.36 L 893.06 286.23 L 865.29 282.37 L 861.83 281.89 L 826.09 276.37 L 815.65 274.76 L 812.91 274.33 L 771.02 268.12 L 762.70 266.88 L 758.27 266.22 L 720.01 261.07 L 711.74 259.94 L 705.97 259.16 L 702.06 258.63 L 668.22 254.28 L 659.11 253.45 L 650.96 252.70 L 652.50 246.61 L 654.07 235.85 L 660.57 191.43 L 665.11 160.48 L 666.32 151.86 L 667.06 146.60 L 667.87 140.82 L 667.97 140.83 L 669.49 141.03 L 673.87 141.58 Z "/>
<path class="zone" data-zone-id="11215760_020_06" d="M 929.45 175.00 L 943.23 176.59 L 993.20 182.59 L 994.85 182.79 L 1003.75 183.88 L 1004.64 183.98 L 1004.97 184.02 L 1005.14 184.02 L 1005.79 184.10 L 1006.07 184.16 L 1006.29 184.16 L 1006.99 184.24 L 1007.26 184.30 L 1007.45 184.30 L 1007.68 184.32 L 1007.46 184.30 L 1007.55 184.30 L 1007.69 184.32 L 1008.01 184.37 L 1008.31 184.43 L 1009.43 184.55 L 1009.60 184.56 L 1009.70 184.57 L 1010.71 184.67 L 1011.12 184.71 L 1011.19 184.72 L 1012.11 184.85 L 1013.66 185.04 L 1013.76 185.06 L 1013.88 185.07 L 1015.04 185.20 L 1015.05 185.20 L 1015.59 185.25 L 1015.80 185.28 L 1016.17 185.33 L 1016.40 185.35 L 1016.48 185.36 L 1018.56 185.63 L 1019.04 185.73 L 1019.18 185.76 L 1019.41 185.82 L 1020.12 185.95 L 1021.53 186.24 L 1031.74 188.41 L 1029.92 199.16 L 1029.49 201.66 L 1026.98 219.59 L 1021.33 259.82 L 1013.42 317.54 L 1011.75 329.70 L 1000.72 409.82 L 988.39 408.12 L 946.41 402.19 L 945.79 402.10 L 934.97 400.58 L 885.00 394.94 L 891.54 347.08 L 891.56 346.94 L 898.53 297.27 L 899.63 293.55 L 899.68 293.35 L 900.87 289.36 L 901.19 287.36 L 915.75 193.98 L 917.17 184.62 L 918.83 173.60 L 918.84 173.53 L 929.45 175.00 Z "/>
<path class="zone" data-zone-id="11215760_020_07" d="M 1000.72 409.82 L 998.54 425.67 L 983.08 539.42 L 978.02 577.83 L 971.69 624.87 L 959.22 623.30 L 862.62 611.11 L 855.77 610.25 L 868.45 512.83 L 885.00 394.94 L 934.97 400.58 L 945.79 402.10 L 946.41 402.19 L 988.39 408.12 L 1000.72 409.82 Z "/>
<path class="zone" data-zone-id="11215760_020_08" d="M 840.56 675.89 L 844.34 685.38 L 847.16 700.78 L 849.00 706.17 L 856.93 729.33 L 866.87 755.44 L 877.61 783.66 L 882.32 792.07 L 889.77 800.70 L 893.74 804.07 L 896.68 806.60 L 903.58 810.47 L 914.03 816.33 L 910.42 824.38 L 908.95 827.66 L 893.16 863.43 L 882.06 858.87 L 876.21 856.46 L 804.61 824.14 L 803.99 823.87 L 765.13 806.79 L 756.28 804.52 L 755.75 804.29 L 723.32 790.67 L 717.37 787.38 L 717.21 787.29 L 711.07 783.90 L 710.15 783.45 L 680.09 768.92 L 675.75 767.65 L 675.72 767.64 L 665.03 764.50 L 663.22 763.64 L 626.02 746.18 L 625.77 746.06 L 623.87 745.17 L 618.91 742.84 L 576.96 723.22 L 576.68 723.09 L 521.08 697.08 L 520.85 696.98 L 519.46 696.36 L 521.56 691.76 L 536.19 659.67 L 541.75 647.62 L 550.77 628.10 L 555.03 619.93 L 557.07 616.03 L 563.56 601.54 L 581.29 560.62 L 592.18 536.70 L 592.36 536.30 L 603.21 514.20 L 608.63 499.70 L 619.07 473.93 L 623.48 461.18 L 624.02 461.26 L 630.68 462.21 L 642.74 465.59 L 667.21 471.24 L 697.23 483.53 L 700.97 485.06 L 728.52 494.41 L 731.09 494.86 L 735.29 495.58 L 748.64 496.99 L 774.42 499.70 L 792.77 501.56 L 796.58 502.10 L 818.37 505.22 L 838.32 508.25 L 855.28 510.83 L 860.99 511.70 L 868.45 512.83 L 855.77 610.25 L 855.70 610.84 L 851.49 643.97 L 845.69 658.22 L 839.53 673.31 L 840.56 675.89 Z "/>
<path class="zone" data-zone-id="11215760_020_09" d="M 519.46 696.36 L 448.52 664.90 L 435.23 657.93 L 436.76 645.90 L 441.74 593.07 L 441.78 592.73 L 442.12 589.14 L 447.32 534.22 L 447.51 532.14 L 447.52 532.10 L 456.16 440.58 L 456.34 438.82 L 458.45 418.33 L 458.89 414.05 L 460.22 414.66 L 466.13 417.23 L 469.90 419.30 L 482.18 425.82 L 491.87 430.28 L 497.21 432.68 L 502.71 435.16 L 518.69 443.86 L 533.91 450.91 L 545.38 450.27 L 550.33 449.56 L 550.39 449.55 L 556.95 449.20 L 560.87 449.58 L 596.18 456.51 L 609.51 459.18 L 623.48 461.18 L 619.07 473.93 L 608.63 499.70 L 603.21 514.20 L 592.36 536.30 L 592.18 536.70 L 581.29 560.62 L 563.56 601.54 L 557.07 616.03 L 555.03 619.93 L 550.77 628.10 L 541.75 647.62 L 536.19 659.67 L 521.56 691.76 L 519.46 696.36 Z "/>
<path class="zone" data-zone-id="11215760_020_10" d="M 901.19 287.36 L 900.87 289.36 L 899.68 293.35 L 899.63 293.55 L 898.53 297.27 L 891.56 346.94 L 891.54 347.08 L 885.00 394.94 L 853.01 390.41 L 852.83 390.39 L 812.65 384.69 L 812.12 384.60 L 764.17 377.15 L 764.07 377.13 L 760.56 376.58 L 747.49 374.91 L 747.14 374.86 L 716.92 370.99 L 716.59 370.95 L 693.80 368.08 L 693.39 368.03 L 636.79 361.41 L 638.04 350.93 L 641.92 314.46 L 644.08 296.42 L 647.70 265.60 L 650.96 252.70 L 659.11 253.45 L 668.22 254.28 L 702.06 258.63 L 705.97 259.16 L 711.74 259.94 L 720.01 261.07 L 758.27 266.22 L 762.70 266.88 L 771.02 268.12 L 812.91 274.33 L 815.65 274.76 L 826.09 276.37 L 861.83 281.89 L 865.29 282.37 L 893.06 286.23 L 901.19 287.36 Z "/>
<path class="zone" data-zone-id="11215760_020_11" d="M 885.00 394.94 L 868.45 512.83 L 860.99 511.70 L 855.28 510.83 L 838.32 508.25 L 818.37 505.22 L 796.58 502.10 L 792.77 501.56 L 774.42 499.70 L 748.64 496.99 L 735.29 495.58 L 731.09 494.86 L 728.52 494.41 L 700.97 485.06 L 697.23 483.53 L 667.21 471.24 L 642.74 465.59 L 630.68 462.21 L 624.02 461.26 L 623.48 461.18 L 626.11 453.56 L 627.57 442.76 L 631.88 406.26 L 634.99 378.66 L 636.73 361.87 L 636.79 361.41 L 693.39 368.03 L 693.80 368.08 L 716.59 370.95 L 716.92 370.99 L 747.14 374.86 L 747.49 374.91 L 760.56 376.58 L 764.07 377.13 L 764.17 377.15 L 812.12 384.60 L 812.65 384.69 L 852.83 390.39 L 853.01 390.41 L 885.00 394.94 Z "/>
</svg>
