<svg xmlns="http://www.w3.org/2000/svg" viewBox="0 0 1155 1155" width="1155" height="1155">
<path class="zone" data-zone-id="11215710_030_01" d="M 726.84 1030.40 L 675.14 1009.25 L 675.03 1009.21 L 600.99 978.51 L 587.90 971.49 L 591.61 959.77 L 610.89 908.95 L 610.98 908.71 L 630.24 857.97 L 630.29 857.84 L 639.12 834.57 L 639.20 834.34 L 659.24 781.54 L 659.28 781.42 L 665.52 764.98 L 665.57 764.87 L 688.05 705.68 L 688.15 705.40 L 689.33 702.35 L 707.82 654.14 L 707.87 654.03 L 732.58 589.83 L 732.66 589.64 L 760.55 516.53 L 785.12 452.14 L 787.42 443.15 L 788.55 444.65 L 793.95 451.75 L 832.61 500.73 L 833.59 501.98 L 840.04 510.45 L 840.41 510.91 L 898.14 581.46 L 930.75 595.98 L 895.60 688.83 L 884.15 719.25 L 814.79 903.58 L 771.97 1016.39 L 761.35 1044.51 L 726.84 1030.40 Z "/>
<path class="zone" data-zone-id="11215710_030_00" d="M 528.52 944.59 L 527.36 944.09 L 410.65 893.91 L 410.34 893.78 L 315.05 852.18 L 248.34 823.07 L 224.30 812.57 L 231.04 795.65 L 274.80 691.62 L 278.43 683.18 L 287.46 662.20 L 301.72 629.05 L 307.31 616.07 L 309.86 610.20 L 333.65 555.58 L 346.23 526.69 L 355.52 505.30 L 378.34 452.73 L 384.49 440.06 L 384.88 439.19 L 397.59 444.59 L 410.36 449.99 L 432.45 459.92 L 432.64 460.01 L 456.60 470.75 L 456.90 470.88 L 491.98 486.15 L 516.67 496.90 L 519.51 498.13 L 523.60 499.91 L 572.39 520.67 L 572.63 520.77 L 625.84 543.68 L 626.24 543.85 L 672.01 563.55 L 672.12 563.60 L 720.78 584.54 L 732.66 589.64 L 732.58 589.83 L 707.87 654.03 L 707.82 654.14 L 689.33 702.35 L 688.15 705.40 L 688.05 705.68 L 665.57 764.87 L 665.52 764.98 L 659.28 781.42 L 659.24 781.54 L 639.20 834.34 L 639.12 834.57 L 630.29 857.84 L 630.24 857.97 L 610.98 908.71 L 610.89 908.95 L 591.61 959.77 L 587.90 971.49 L 575.12 964.62 L 528.52 944.59 Z "/>
<path class="zone" data-zone-id="11215710_030_03" d="M 384.88 439.19 L 411.05 377.66 L 411.10 377.55 L 418.27 360.68 L 460.19 262.08 L 460.34 261.74 L 483.06 208.48 L 508.66 148.51 L 518.56 125.31 L 521.09 121.12 L 524.31 117.22 L 529.86 110.49 L 542.87 124.05 L 595.06 192.82 L 654.64 272.73 L 654.91 273.09 L 665.67 286.73 L 674.62 298.15 L 675.89 299.77 L 725.12 361.20 L 747.46 390.59 L 747.92 391.20 L 787.42 443.15 L 785.12 452.14 L 760.55 516.53 L 732.66 589.64 L 720.78 584.54 L 672.12 563.60 L 672.01 563.55 L 626.24 543.85 L 625.84 543.68 L 572.63 520.77 L 572.39 520.67 L 523.60 499.91 L 519.51 498.13 L 516.67 496.90 L 491.98 486.15 L 456.90 470.88 L 456.60 470.75 L 432.64 460.01 L 432.45 459.92 L 410.36 449.99 L 397.59 444.59 L 384.88 439.19 Z "/>
</svg>
