<svg xmlns="http://www.w3.org/2000/svg" viewBox="0 0 1155 1155" width="1155" height="1155">
<path class="zone" data-zone-id="11215810_120_01" d="M 436.03 1059.99 L 427.67 1059.22 L 390.54 1006.96 L 332.00 907.34 L 342.44 712.82 L 386.88 683.55 L 395.10 647.34 L 400.86 640.22 L 404.06 629.47 L 407.25 620.07 L 412.49 602.68 L 425.38 594.61 L 432.06 587.49 L 425.88 559.81 L 387.53 520.80 L 393.46 513.21 L 421.91 479.26 L 431.11 472.46 L 437.06 465.54 L 497.89 394.85 L 536.88 376.59 L 536.57 330.67 L 508.84 244.56 L 498.91 213.72 L 550.31 164.03 L 619.06 107.89 L 623.73 104.90 L 639.15 95.04 L 644.39 101.49 L 647.71 107.48 L 650.04 119.53 L 651.72 128.17 L 651.85 148.23 L 652.19 171.21 L 653.14 179.88 L 654.74 189.10 L 658.18 202.48 L 665.15 216.40 L 670.92 224.34 L 678.59 233.69 L 700.00 257.24 L 713.83 272.26 L 730.26 291.42 L 734.06 297.60 L 765.84 347.45 L 786.64 381.50 L 796.01 396.84 L 812.98 420.62 L 822.99 443.52 L 820.69 448.57 L 816.25 465.56 L 814.21 483.77 L 813.54 495.03 L 812.86 520.66 L 812.07 535.66 L 810.17 550.57 L 808.29 562.74 L 803.63 585.62 L 800.87 596.44 L 792.93 618.21 L 790.03 625.59 L 785.07 634.48 L 779.75 642.26 L 770.08 651.29 L 758.04 657.42 L 747.22 660.43 L 738.29 662.56 L 688.02 669.55 L 642.25 675.13 L 628.05 677.04 L 613.32 679.52 L 607.50 680.75 L 590.29 685.39 L 583.37 688.07 L 575.36 691.30 L 565.62 696.04 L 555.04 701.77 L 548.52 705.45 L 543.86 708.47 L 536.89 713.98 L 531.15 719.21 L 525.30 724.59 L 519.46 730.73 L 508.67 743.77 L 503.92 750.79 L 494.75 767.65 L 489.96 779.08 L 487.56 786.16 L 485.38 793.00 L 481.49 805.71 L 475.93 830.89 L 472.00 849.58 L 468.07 872.10 L 460.61 914.27 L 457.61 931.17 L 454.62 946.41 L 449.05 971.12 L 448.44 978.67 L 447.47 991.51 L 447.19 999.06 L 446.88 1002.39 L 436.04 1059.99 L 436.03 1059.99 Z M 774.42 388.09 L 771.38 385.29 L 767.84 382.05 L 763.90 378.16 L 760.85 376.96 L 754.89 379.16 L 742.74 386.43 L 731.97 394.33 L 722.56 405.23 L 713.43 425.04 L 710.41 442.53 L 708.70 454.76 L 706.59 473.23 L 704.02 501.13 L 703.31 507.60 L 701.23 521.53 L 696.49 534.68 L 687.16 551.31 L 679.05 557.85 L 668.30 562.58 L 651.33 561.01 L 640.49 559.03 L 625.95 555.34 L 561.61 538.35 L 481.05 518.35 L 452.92 514.27 L 447.18 514.13 L 441.33 515.91 L 436.21 519.70 L 430.12 526.15 L 427.52 535.59 L 429.29 542.61 L 432.34 548.15 L 439.60 557.89 L 451.88 570.99 L 464.56 583.27 L 491.65 609.51 L 510.21 626.85 L 514.66 629.32 L 526.66 629.38 L 534.00 627.83 L 562.92 623.71 L 639.95 620.21 L 708.82 612.82 L 717.22 610.74 L 724.71 601.86 L 731.24 592.56 L 732.96 588.84 L 736.53 576.32 L 739.05 561.14 L 744.61 514.75 L 751.36 483.56 L 762.89 431.46 L 767.21 398.70 L 768.05 396.14 L 769.30 393.61 L 770.61 391.56 L 771.92 390.06 L 774.42 388.09 Z "/>
<path class="zone" data-zone-id="11215810_120_02" d="M 774.42 388.09 L 771.92 390.06 L 770.61 391.56 L 769.30 393.61 L 768.05 396.14 L 767.21 398.70 L 762.89 431.46 L 751.36 483.56 L 744.61 514.75 L 739.05 561.14 L 736.53 576.32 L 732.96 588.84 L 731.24 592.56 L 724.71 601.86 L 717.22 610.74 L 708.82 612.82 L 639.95 620.21 L 562.92 623.71 L 534.00 627.83 L 526.66 629.38 L 514.66 629.32 L 510.21 626.85 L 491.65 609.51 L 464.56 583.27 L 451.88 570.99 L 439.60 557.89 L 432.34 548.15 L 429.29 542.61 L 427.52 535.59 L 430.12 526.15 L 436.21 519.70 L 441.33 515.91 L 447.18 514.13 L 452.92 514.27 L 481.05 518.35 L 561.61 538.35 L 625.95 555.34 L 640.49 559.03 L 651.33 561.01 L 668.30 562.58 L 679.05 557.85 L 687.16 551.31 L 696.49 534.68 L 701.23 521.53 L 703.31 507.60 L 704.02 501.13 L 706.59 473.23 L 708.70 454.76 L 710.41 442.53 L 713.43 425.04 L 722.56 405.23 L 731.97 394.33 L 742.74 386.43 L 754.89 379.16 L 760.85 376.96 L 763.90 378.16 L 767.84 382.05 L 771.38 385.29 L 774.42 388.09 Z "/>
</svg>
