<svg xmlns="http://www.w3.org/2000/svg" viewBox="0 0 1154 1155" width="1154" height="1155">
<path class="zone" data-zone-id="11215770_012_01" d="M 632.97 844.96 L 635.18 836.86 L 629.63 796.18 L 623.36 746.41 L 614.90 680.76 L 608.22 626.31 L 600.68 569.60 L 599.75 562.63 L 628.80 558.18 L 658.24 553.63 L 665.11 552.57 L 693.95 549.28 L 706.93 547.10 L 718.25 733.26 L 720.65 742.76 L 722.68 750.79 L 726.28 833.07 L 694.33 837.50 L 693.90 837.56 L 695.26 846.55 L 728.24 1063.95 L 727.09 1056.74 L 722.83 1030.11 L 722.15 1025.82 L 716.60 989.71 L 714.96 978.13 L 712.57 961.29 L 709.31 941.35 L 707.43 931.47 L 706.77 927.99 L 705.32 920.29 L 703.13 907.96 L 700.33 887.64 L 697.36 865.24 L 696.60 859.64 L 695.19 849.13 L 694.16 843.17 L 693.07 836.89 L 683.38 839.03 L 635.77 844.59 L 632.97 844.96 Z "/>
<path class="zone" data-zone-id="11215770_012_02" d="M 632.97 844.96 L 615.57 847.22 L 615.54 847.23 L 615.54 847.23 L 578.83 852.45 L 578.07 844.75 L 577.58 839.78 L 564.20 741.09 L 557.35 686.30 L 550.48 634.65 L 543.45 579.16 L 542.52 571.82 L 550.62 569.60 L 569.34 567.18 L 599.30 562.70 L 599.75 562.63 L 600.68 569.60 L 608.22 626.31 L 614.90 680.76 L 623.36 746.41 L 629.63 796.18 L 635.18 836.86 L 632.97 844.96 Z "/>
<path class="zone" data-zone-id="11215770_012_03" d="M 578.83 852.45 L 578.69 852.47 L 576.41 852.77 L 559.84 854.85 L 546.49 856.54 L 544.54 856.81 L 525.50 859.53 L 510.36 748.55 L 504.56 704.90 L 504.55 704.80 L 501.02 678.24 L 495.27 632.93 L 488.65 580.85 L 488.62 580.60 L 508.08 577.89 L 510.65 577.53 L 514.85 576.89 L 542.20 571.91 L 542.52 571.82 L 542.52 571.82 L 543.45 579.16 L 550.48 634.65 L 557.35 686.30 L 564.20 741.09 L 577.58 839.78 L 578.07 844.75 L 578.83 852.45 Z "/>
<path class="zone" data-zone-id="11215770_012_04" d="M 488.62 580.60 L 479.83 512.23 L 478.35 500.77 L 475.78 480.79 L 475.75 480.53 L 474.84 473.41 L 461.34 367.69 L 458.44 344.49 L 453.60 305.79 L 467.97 416.20 L 478.50 497.08 L 453.60 305.76 L 450.59 281.71 L 446.82 252.74 L 444.77 236.98 L 441.53 212.10 L 441.45 211.43 L 432.93 137.63 L 432.92 137.51 L 432.88 137.26 L 428.47 108.64 L 426.22 94.05 L 445.04 92.66 L 447.79 92.45 L 534.79 121.39 L 535.99 121.78 L 539.94 123.17 L 630.20 155.70 L 639.07 158.72 L 638.75 160.09 L 669.23 166.90 L 659.17 218.68 L 624.82 216.98 L 620.35 236.77 L 617.18 250.84 L 614.00 264.94 L 604.82 305.50 L 622.04 332.26 L 625.05 336.96 L 666.71 394.11 L 678.22 419.76 L 685.18 439.20 L 673.76 419.80 L 691.22 449.45 L 704.44 471.31 L 704.60 491.04 L 705.89 530.07 L 706.93 547.10 L 693.95 549.28 L 665.11 552.57 L 658.24 553.63 L 628.80 558.18 L 599.75 562.63 L 599.30 562.70 L 569.34 567.18 L 550.62 569.60 L 542.52 571.82 L 542.52 571.82 L 542.20 571.91 L 514.85 576.89 L 510.65 577.53 L 508.08 577.89 L 488.62 580.60 Z "/>
</svg>
