<svg xmlns="http://www.w3.org/2000/svg" viewBox="0 0 1154 1155" width="1154" height="1155">
<path class="zone" data-zone-id="11215820_020_00" d="M 905.64 457.18 L 904.80 453.33 L 903.39 451.61 L 828.12 426.96 L 799.54 417.79 L 783.68 412.70 L 770.12 408.35 L 767.14 407.39 L 757.65 404.34 L 752.74 402.01 L 743.75 398.75 L 737.62 392.68 L 757.05 361.25 L 780.44 368.66 L 787.96 371.05 L 792.51 374.28 L 796.46 375.45 L 804.65 377.89 L 901.28 406.66 L 914.13 410.48 L 926.18 414.49 L 908.88 464.49 L 906.19 463.58 L 906.17 463.46 L 905.64 457.18 Z "/>
<path class="zone" data-zone-id="11215820_020_01" d="M 1027.80 382.10 L 1022.75 396.96 L 1017.59 412.49 L 1016.19 416.69 L 1015.01 425.43 L 1016.35 458.13 L 1018.21 484.01 L 1002.11 482.93 L 985.06 481.79 L 967.80 480.86 L 946.90 479.25 L 930.17 478.24 L 917.93 478.26 L 913.76 477.82 L 907.48 480.13 L 907.12 474.50 L 906.85 470.17 L 906.19 463.58 L 908.88 464.49 L 926.18 414.49 L 927.63 414.98 L 932.21 402.02 L 936.19 390.74 L 942.73 372.24 L 948.68 355.42 L 954.51 338.90 L 960.43 322.16 L 968.74 298.64 L 970.63 293.11 L 972.76 286.87 L 973.64 284.33 L 977.07 274.45 L 981.45 261.85 L 985.86 249.15 L 986.30 247.86 L 990.46 235.88 L 990.47 235.86 L 991.41 233.27 L 1001.00 236.54 L 1010.84 239.94 L 1011.86 240.30 L 1031.88 247.22 L 1053.30 254.62 L 1054.36 254.98 L 1069.20 260.11 L 1050.01 316.65 L 1049.26 318.84 L 1038.93 349.30 L 1027.80 382.10 Z "/>
<path class="zone" data-zone-id="11215820_020_00" d="M 1006.16 846.90 L 998.61 844.41 L 960.42 831.83 L 969.14 764.80 L 970.15 757.04 L 971.13 749.56 L 1017.23 749.13 L 1024.48 754.16 L 1027.35 756.16 L 1030.43 758.30 L 1034.07 800.50 L 1034.50 805.44 L 1031.96 822.99 L 1034.20 845.43 L 1006.16 846.90 Z "/>
<path class="zone" data-zone-id="11215820_020_01" d="M 863.54 713.39 L 864.03 713.63 L 872.76 717.99 L 881.64 722.18 L 903.09 732.67 L 902.82 733.59 L 946.87 705.52 L 958.94 723.06 L 955.60 718.20 L 951.83 728.34 L 896.36 769.54 L 869.81 861.45 L 843.44 853.11 L 838.64 851.60 L 815.61 844.31 L 782.65 833.90 L 792.92 810.01 L 792.88 809.32 L 791.62 807.13 L 740.42 770.16 L 771.20 673.11 L 797.85 650.10 L 856.51 682.33 L 854.39 695.17 L 852.53 706.50 L 863.54 713.39 Z "/>
<path class="zone" data-zone-id="11215820_020_02" d="M 971.13 749.56 L 969.14 764.80 L 938.26 764.90 L 963.44 697.08 L 1024.49 691.69 L 1029.70 753.08 L 1027.35 756.16 L 1024.48 754.16 L 1017.23 749.13 L 971.13 749.56 Z M 955.60 718.20 L 957.27 720.63 L 958.94 723.06 L 955.60 718.20 Z "/>
<path class="zone" data-zone-id="11215820_020_03" d="M 1028.19 921.46 L 1015.61 919.13 L 962.99 900.93 L 870.30 872.01 L 869.91 871.88 L 838.73 861.86 L 788.67 845.77 L 788.47 845.71 L 785.98 844.91 L 736.20 828.90 L 736.03 828.85 L 635.61 796.57 L 555.65 770.87 L 502.69 753.84 L 502.65 753.82 L 502.65 753.82 L 513.38 719.95 L 518.71 702.98 L 513.80 701.46 L 468.32 687.44 L 469.55 682.31 L 473.22 669.99 L 481.33 642.71 L 459.91 641.80 L 424.29 639.90 L 413.67 639.34 L 375.99 637.93 L 340.43 636.73 L 337.29 635.75 L 332.15 634.15 L 321.09 630.40 L 307.97 625.66 L 292.96 620.24 L 287.93 618.20 L 280.60 613.22 L 276.94 610.64 L 258.68 597.78 L 254.20 594.62 L 248.60 590.38 L 239.85 583.75 L 234.32 581.20 L 221.24 576.90 L 213.90 574.64 L 202.02 572.86 L 183.41 569.93 L 178.29 569.12 L 161.72 566.07 L 158.06 566.09 L 155.63 566.64 L 152.36 568.61 L 149.59 570.27 L 142.47 574.44 L 136.99 576.26 L 127.41 578.31 L 117.14 579.92 L 105.18 581.79 L 100.77 583.59 L 98.45 585.69 L 93.34 599.54 L 98.45 585.69 L 98.42 585.14 L 95.18 538.99 L 101.49 521.32 L 102.64 518.11 L 114.94 521.23 L 117.33 521.83 L 119.51 522.24 L 124.63 523.21 L 133.00 524.79 L 151.04 527.39 L 155.53 527.92 L 175.28 529.60 L 188.38 530.64 L 203.92 531.51 L 227.98 533.03 L 265.70 534.99 L 272.68 535.72 L 279.80 536.82 L 281.27 539.96 L 281.92 540.09 L 290.19 541.73 L 296.07 545.52 L 290.01 556.47 L 289.90 557.18 L 289.07 563.04 L 306.81 564.90 L 309.86 568.15 L 308.20 578.75 L 313.45 579.81 L 330.93 583.36 L 332.16 573.17 L 348.14 567.46 L 358.04 567.10 L 366.92 566.78 L 368.17 566.44 L 381.44 566.08 L 384.72 565.93 L 386.90 565.85 L 387.13 565.36 L 396.52 565.45 L 401.24 566.50 L 404.71 566.53 L 413.61 566.61 L 426.01 566.72 L 437.36 566.83 L 443.37 566.88 L 448.49 567.70 L 473.17 571.65 L 474.24 572.10 L 504.40 584.74 L 514.47 588.74 L 512.35 578.94 L 520.20 584.15 L 522.13 585.43 L 536.67 587.90 L 548.16 594.14 L 549.61 594.93 L 551.92 592.32 L 556.28 593.37 L 590.43 601.55 L 612.13 605.96 L 626.43 610.11 L 643.51 617.32 L 644.29 615.82 L 644.96 616.15 L 646.12 614.48 L 653.76 603.45 L 656.31 593.95 L 659.00 583.91 L 661.55 573.88 L 664.81 561.02 L 681.44 565.51 L 686.99 553.30 L 687.63 551.88 L 692.75 550.06 L 699.44 554.63 L 708.83 561.05 L 719.56 569.99 L 726.02 578.05 L 728.69 581.38 L 741.33 581.88 L 743.40 573.75 L 744.15 569.89 L 754.53 515.85 L 755.45 510.70 L 766.23 450.76 L 763.36 408.32 L 760.27 405.59 L 757.65 404.34 L 770.12 408.35 L 828.12 426.96 L 903.39 451.61 L 904.80 453.33 L 905.64 457.18 L 906.17 463.46 L 906.69 468.58 L 906.85 470.17 L 907.12 474.50 L 907.48 480.13 L 913.76 477.82 L 917.93 478.26 L 921.34 478.26 L 930.17 478.24 L 946.90 479.25 L 967.80 480.86 L 985.06 481.79 L 1002.11 482.93 L 1018.21 484.01 L 1019.05 495.81 L 1022.80 548.17 L 1024.18 567.44 L 1035.31 714.07 L 1041.19 770.71 L 1044.84 805.09 L 1050.96 862.76 L 1055.46 921.71 L 1028.19 921.46 Z M 773.81 514.77 L 760.74 515.91 L 773.78 514.77 L 773.81 514.77 L 755.45 510.70 L 773.81 514.77 Z M 786.58 517.60 L 773.81 514.77 L 804.15 512.14 L 773.81 514.77 L 786.58 517.60 Z M 740.42 770.16 L 791.62 807.13 L 792.88 809.32 L 792.92 810.01 L 782.65 833.90 L 815.61 844.31 L 838.64 851.60 L 843.44 853.11 L 869.81 861.45 L 896.36 769.54 L 951.83 728.34 L 938.26 764.90 L 969.14 764.80 L 960.42 831.83 L 998.61 844.41 L 1006.16 846.90 L 1034.20 845.43 L 1031.96 822.99 L 1034.50 805.44 L 1034.07 800.50 L 1030.43 758.30 L 1027.35 756.16 L 1029.70 753.08 L 1024.49 691.69 L 963.44 697.08 L 955.60 718.20 L 946.87 705.52 L 902.82 733.59 L 903.09 732.67 L 881.64 722.18 L 872.76 717.99 L 864.03 713.63 L 863.54 713.39 L 852.53 706.50 L 854.39 695.17 L 856.51 682.33 L 797.85 650.10 L 771.20 673.11 L 740.42 770.16 Z "/>
<path class="zone" data-zone-id="11215820_020_00" d="M 470.28 661.52 L 466.55 673.40 L 462.49 686.36 L 455.12 709.87 L 426.77 700.93 L 421.38 718.84 L 376.65 704.72 L 354.50 697.73 L 359.92 679.82 L 324.60 668.63 L 330.63 643.76 L 332.85 634.39 L 332.15 634.15 L 337.29 635.75 L 340.43 636.73 L 375.99 637.93 L 413.67 639.34 L 424.29 639.90 L 459.91 641.80 L 476.25 642.50 L 470.28 661.52 Z "/>
<path class="zone" data-zone-id="11215820_020_01" d="M 367.49 710.44 L 321.09 695.57 L 321.09 695.57 L 318.81 694.83 L 318.28 694.67 L 318.28 694.67 L 323.22 674.30 L 324.60 668.63 L 359.92 679.82 L 354.50 697.73 L 376.65 704.72 L 421.38 718.84 L 426.77 700.93 L 455.12 709.87 L 462.49 686.36 L 466.55 673.40 L 470.28 661.52 L 476.25 642.50 L 481.33 642.71 L 473.22 669.99 L 469.55 682.31 L 468.32 687.44 L 513.80 701.46 L 518.71 702.98 L 513.38 719.95 L 502.65 753.82 L 461.86 740.70 L 427.21 729.59 L 367.49 710.44 Z "/>
<path class="zone" data-zone-id="11215820_020_04" d="M 89.66 624.29 L 87.28 623.54 L 87.28 623.54 L 84.78 622.75 L 84.78 622.75 L 84.92 622.38 L 85.28 622.49 L 92.84 600.97 L 93.34 599.54 L 93.34 599.54 L 98.45 585.69 L 100.77 583.59 L 105.18 581.79 L 117.14 579.92 L 127.41 578.31 L 136.99 576.26 L 142.47 574.44 L 149.59 570.27 L 152.36 568.61 L 155.63 566.64 L 158.06 566.09 L 161.72 566.07 L 178.29 569.12 L 183.41 569.93 L 202.02 572.86 L 213.90 574.64 L 221.24 576.90 L 234.32 581.20 L 239.85 583.75 L 248.60 590.38 L 254.20 594.62 L 258.68 597.78 L 276.94 610.64 L 280.60 613.22 L 287.93 618.20 L 292.96 620.24 L 307.97 625.66 L 321.09 630.40 L 332.15 634.15 L 332.85 634.39 L 330.63 643.76 L 323.22 674.30 L 318.28 694.67 L 318.28 694.67 L 192.44 656.57 L 158.28 645.85 L 135.72 638.76 L 110.45 630.82 L 110.45 630.82 L 89.85 624.35 L 89.66 624.29 Z "/>
</svg>
