<svg xmlns="http://www.w3.org/2000/svg" viewBox="0 0 1155 1155" width="1155" height="1155">
<path class="zone" data-zone-id="11215750_020_01" d="M 379.00 632.84 L 397.60 590.65 L 435.31 504.32 L 436.90 500.84 L 453.49 508.09 L 481.09 520.15 L 521.09 537.71 L 511.85 558.47 L 507.08 569.34 L 506.68 570.25 L 501.57 581.90 L 501.54 581.95 L 493.26 600.34 L 493.22 600.43 L 477.88 634.48 L 477.74 634.79 L 464.30 664.61 L 429.80 742.00 L 427.93 746.18 L 418.49 741.48 L 417.06 740.79 L 394.00 729.64 L 391.21 728.29 L 362.14 714.22 L 346.05 706.44 L 346.34 705.75 L 362.23 713.67 L 379.46 722.28 L 362.50 713.76 L 346.36 705.71 L 346.56 705.23 L 346.56 705.23 L 352.77 690.60 L 371.20 650.54 L 379.00 632.84 Z "/>
<path class="zone" data-zone-id="11215750_020_02" d="M 436.90 500.84 L 437.43 499.69 L 454.51 462.21 L 472.05 422.22 L 475.54 414.28 L 513.23 328.83 L 528.32 294.05 L 528.32 294.05 L 528.91 292.68 L 545.25 300.57 L 567.48 311.31 L 574.02 314.28 L 606.21 328.90 L 612.41 331.72 L 601.56 356.35 L 596.58 367.65 L 569.32 429.51 L 567.53 433.54 L 547.18 479.20 L 543.02 488.52 L 521.09 537.71 L 481.09 520.15 L 453.49 508.09 L 436.90 500.84 Z "/>
<path class="zone" data-zone-id="11215750_020_00" d="M 542.84 261.11 L 543.17 260.39 L 561.74 218.37 L 563.62 214.11 L 563.66 214.04 L 564.47 212.21 L 582.80 170.04 L 611.06 105.02 L 618.61 87.73 L 635.34 95.55 L 654.75 110.54 L 682.54 130.47 L 696.21 140.32 L 696.37 140.44 L 697.46 141.22 L 690.55 156.63 L 679.11 182.18 L 674.03 193.08 L 663.98 214.69 L 663.90 214.85 L 663.35 216.10 L 656.41 231.98 L 649.38 247.99 L 649.30 248.18 L 645.70 256.38 L 645.48 256.89 L 643.11 262.24 L 634.37 282.02 L 625.98 300.74 L 625.97 300.77 L 620.24 314.21 L 612.41 331.72 L 606.21 328.90 L 574.02 314.28 L 567.48 311.31 L 545.25 300.57 L 528.91 292.68 L 528.91 292.68 L 530.46 289.11 L 542.84 261.11 Z "/>
<path class="zone" data-zone-id="11215750_020_04" d="M 697.46 141.22 L 725.88 161.64 L 725.98 161.71 L 759.54 185.78 L 759.80 185.96 L 787.65 205.91 L 825.69 233.14 L 825.82 233.23 L 841.04 244.12 L 842.14 244.91 L 866.92 262.63 L 868.38 263.67 L 869.65 264.58 L 890.10 279.20 L 883.08 294.57 L 876.11 309.82 L 858.77 348.85 L 851.74 364.67 L 841.91 386.80 L 825.10 424.75 L 824.81 425.41 L 818.93 422.75 L 815.79 421.32 L 798.82 414.00 L 798.74 413.97 L 775.83 404.08 L 756.78 395.84 L 756.54 395.73 L 749.25 392.27 L 722.50 380.50 L 720.01 379.43 L 696.35 369.17 L 693.27 367.84 L 682.29 362.96 L 676.89 360.56 L 658.08 352.20 L 652.64 349.77 L 620.40 335.32 L 612.41 331.72 L 620.24 314.21 L 625.97 300.77 L 625.98 300.74 L 634.37 282.02 L 643.11 262.24 L 645.48 256.89 L 645.70 256.38 L 649.30 248.18 L 649.38 247.99 L 656.41 231.98 L 663.35 216.10 L 663.90 214.85 L 663.98 214.69 L 674.03 193.08 L 679.11 182.18 L 690.55 156.63 L 697.46 141.22 Z "/>
<path class="zone" data-zone-id="11215750_020_05" d="M 824.81 425.41 L 823.44 428.51 L 814.17 449.29 L 805.83 468.01 L 796.40 489.67 L 777.10 533.97 L 771.93 545.85 L 771.82 546.08 L 757.41 578.82 L 744.69 607.72 L 733.74 631.61 L 733.62 631.56 L 720.57 625.75 L 689.72 611.15 L 676.76 605.44 L 662.88 599.54 L 662.87 599.54 L 643.68 591.02 L 623.62 582.35 L 623.16 582.16 L 604.72 574.30 L 585.56 565.77 L 585.57 565.77 L 627.22 471.39 L 633.98 456.10 L 643.74 433.98 L 652.79 413.50 L 653.51 411.85 L 653.65 411.54 L 653.91 410.95 L 662.05 392.55 L 662.70 391.10 L 664.39 387.35 L 672.67 369.54 L 674.84 364.94 L 676.89 360.56 L 682.29 362.96 L 693.27 367.84 L 696.35 369.17 L 720.01 379.43 L 722.50 380.50 L 749.25 392.27 L 756.54 395.73 L 756.78 395.84 L 775.83 404.08 L 798.74 413.97 L 798.82 414.00 L 815.79 421.32 L 818.93 422.75 L 824.81 425.41 Z "/>
<path class="zone" data-zone-id="11215750_020_06" d="M 733.74 631.61 L 732.09 635.23 L 713.84 675.05 L 704.83 695.52 L 700.43 705.52 L 690.92 727.12 L 685.70 738.99 L 682.26 746.81 L 672.47 769.83 L 671.10 773.06 L 667.73 780.56 L 640.72 840.73 L 636.56 849.95 L 630.65 847.29 L 627.10 845.65 L 623.80 843.98 L 596.63 830.44 L 584.33 824.31 L 576.84 820.57 L 567.08 815.70 L 567.04 815.68 L 536.94 800.75 L 531.44 798.02 L 530.26 797.44 L 501.07 782.92 L 491.54 778.17 L 515.44 723.79 L 535.61 677.90 L 549.34 647.24 L 559.74 624.04 L 559.74 624.02 L 563.63 615.34 L 566.94 607.92 L 571.48 597.51 L 571.57 597.31 L 578.38 581.56 L 585.56 565.77 L 604.72 574.30 L 623.16 582.16 L 623.62 582.35 L 643.68 591.02 L 662.87 599.54 L 662.88 599.54 L 676.76 605.44 L 689.72 611.15 L 720.57 625.75 L 733.62 631.56 L 733.74 631.61 Z "/>
<path class="zone" data-zone-id="11215750_020_07" d="M 601.95 926.64 L 602.05 926.68 L 609.10 929.79 L 617.29 933.87 L 660.77 955.16 L 664.54 957.01 L 670.57 959.97 L 670.47 960.17 L 635.92 1034.78 L 620.88 1067.27 L 556.45 1035.17 L 554.31 1034.10 L 411.07 962.73 L 411.07 962.73 L 411.07 962.73 L 411.07 962.73 L 424.94 930.13 L 438.27 899.91 L 458.20 854.36 L 465.83 858.16 L 475.42 862.93 L 499.38 874.76 L 520.72 885.31 L 531.82 890.79 L 539.49 894.58 L 548.64 899.10 L 567.66 908.47 L 576.13 912.65 L 595.58 922.24 L 596.79 922.89 L 602.48 925.71 L 602.06 926.66 L 602.01 926.64 L 580.38 915.98 L 601.94 926.66 L 601.95 926.64 Z "/>
<path class="zone" data-zone-id="11215750_020_08" d="M 267.43 891.15 L 267.43 891.15 L 264.92 889.90 L 278.38 857.91 L 303.50 801.75 L 312.50 781.93 L 328.63 789.94 L 366.41 808.70 L 374.29 812.62 L 388.06 819.48 L 399.99 825.42 L 405.67 828.25 L 418.12 834.44 L 422.38 836.56 L 450.04 850.31 L 458.20 854.36 L 438.27 899.91 L 424.94 930.13 L 411.07 962.73 L 411.07 962.73 L 410.75 962.57 L 267.43 891.15 Z "/>
<path class="zone" data-zone-id="11215750_020_09" d="M 312.50 781.93 L 312.83 781.21 L 335.47 731.36 L 346.05 706.44 L 346.05 706.44 L 362.14 714.22 L 391.21 728.29 L 394.00 729.64 L 417.06 740.79 L 418.49 741.48 L 427.93 746.18 L 447.02 755.68 L 456.09 760.27 L 478.93 771.80 L 484.13 774.43 L 491.54 778.17 L 484.66 793.82 L 473.54 819.32 L 458.20 854.36 L 450.04 850.31 L 422.38 836.56 L 418.12 834.44 L 405.67 828.25 L 399.99 825.42 L 388.06 819.48 L 374.29 812.62 L 366.41 808.70 L 328.63 789.94 L 312.50 781.93 Z "/>
<path class="zone" data-zone-id="11215750_020_10" d="M 595.58 922.24 L 576.13 912.65 L 567.66 908.47 L 548.64 899.10 L 539.49 894.58 L 531.82 890.79 L 520.72 885.31 L 499.38 874.76 L 475.42 862.93 L 465.83 858.16 L 458.20 854.36 L 473.54 819.32 L 484.66 793.82 L 491.54 778.17 L 501.07 782.92 L 530.26 797.44 L 531.44 798.02 L 536.94 800.75 L 567.04 815.68 L 567.08 815.70 L 576.84 820.57 L 584.33 824.31 L 596.63 830.44 L 623.80 843.98 L 627.10 845.65 L 630.65 847.29 L 636.56 849.95 L 643.27 853.25 L 688.52 875.50 L 691.54 877.04 L 697.04 879.86 L 704.23 884.20 L 704.68 884.47 L 705.38 884.81 L 670.57 959.97 L 660.48 955.01 L 609.03 929.72 L 602.06 926.66 L 602.48 925.71 L 596.79 922.89 L 595.58 922.24 Z "/>
<path class="zone" data-zone-id="11215750_020_11" d="M 491.54 778.17 L 484.13 774.43 L 478.93 771.80 L 456.09 760.27 L 447.02 755.68 L 427.93 746.18 L 429.80 742.00 L 464.30 664.61 L 477.74 634.79 L 477.88 634.48 L 493.22 600.43 L 493.26 600.34 L 501.54 581.95 L 501.57 581.90 L 506.68 570.25 L 507.08 569.34 L 511.85 558.47 L 521.09 537.71 L 550.77 550.70 L 585.12 565.58 L 585.56 565.77 L 578.38 581.56 L 571.57 597.31 L 571.48 597.51 L 566.94 607.92 L 563.63 615.34 L 559.74 624.02 L 559.74 624.04 L 549.34 647.24 L 535.61 677.90 L 515.44 723.79 L 491.54 778.17 Z "/>
<path class="zone" data-zone-id="11215750_020_12" d="M 676.89 360.56 L 674.84 364.94 L 672.67 369.54 L 664.39 387.35 L 662.70 391.10 L 662.05 392.55 L 653.91 410.95 L 653.65 411.54 L 653.51 411.85 L 652.79 413.50 L 643.74 433.98 L 633.98 456.10 L 627.22 471.39 L 585.57 565.77 L 585.56 565.77 L 585.12 565.58 L 550.77 550.70 L 521.09 537.71 L 543.02 488.52 L 547.18 479.20 L 567.53 433.54 L 569.32 429.51 L 596.58 367.65 L 601.56 356.35 L 612.41 331.72 L 620.40 335.32 L 652.64 349.77 L 658.08 352.20 L 676.89 360.56 Z "/>
</svg>
