<svg xmlns="http://www.w3.org/2000/svg" viewBox="0 0 1155 1155" width="1155" height="1155">
<path class="zone" data-zone-id="11215740_010_01" d="M 329.59 1015.34 L 335.52 1018.40 L 299.58 999.94 L 299.58 999.94 L 299.67 999.98 L 299.80 999.61 L 299.72 999.58 L 299.79 999.53 L 300.45 997.51 L 300.52 997.31 L 299.87 999.42 L 304.45 986.58 L 314.33 958.89 L 327.92 912.78 L 331.85 899.43 L 330.23 904.43 L 330.29 904.22 L 330.39 903.92 L 330.54 903.44 L 330.76 902.72 L 330.92 902.20 L 331.59 900.03 L 333.01 895.43 L 335.96 885.88 L 336.06 885.55 L 336.19 885.17 L 338.58 877.02 L 339.50 873.92 L 345.73 852.74 L 353.88 825.11 L 365.98 784.07 L 436.91 621.33 L 594.32 272.50 L 686.78 82.73 L 812.23 141.30 L 811.98 141.82 L 812.23 141.30 L 820.49 145.15 L 819.57 147.16 L 834.03 153.86 L 855.43 168.84 L 855.43 168.85 L 834.75 213.33 L 791.44 310.70 L 775.79 345.42 L 775.78 345.45 L 734.88 436.18 L 734.86 436.21 L 734.62 436.75 L 679.48 555.75 L 677.13 560.80 L 661.45 595.34 L 661.44 595.37 L 625.05 675.51 L 593.13 745.72 L 593.11 745.75 L 572.29 791.55 L 538.65 864.35 L 538.63 864.38 L 523.60 896.92 L 506.01 934.93 L 485.01 981.57 L 483.72 980.93 L 483.29 981.92 L 442.93 1072.51 L 442.93 1072.51 L 396.65 1049.31 L 384.79 1043.36 L 384.79 1043.36 L 397.88 1017.63 L 397.82 1017.60 L 384.79 1043.36 L 384.79 1043.36 L 365.72 1033.80 L 365.72 1033.80 L 365.71 1033.80 L 363.33 1032.57 L 362.30 1032.05 L 329.59 1015.34 Z "/>
<path class="zone" data-zone-id="11215740_010_02" d="M 365.98 784.07 L 367.48 778.99 L 369.12 773.41 L 412.82 623.82 L 405.64 649.26 L 421.66 594.74 L 423.04 590.52 L 427.18 576.43 L 431.62 561.45 L 444.40 518.16 L 450.66 496.94 L 463.76 451.94 L 469.59 431.92 L 465.51 445.30 L 483.55 384.30 L 484.42 382.62 L 510.87 344.66 L 512.61 342.12 L 513.31 341.07 L 537.64 304.69 L 536.60 306.27 L 542.24 298.16 L 561.45 269.31 L 607.66 200.32 L 657.74 125.26 L 686.28 82.50 L 686.78 82.73 L 594.32 272.50 L 436.91 621.33 L 365.98 784.07 Z "/>
</svg>
