<svg xmlns="http://www.w3.org/2000/svg" viewBox="0 0 1154 1155" width="1154" height="1155">
<path class="zone" data-zone-id="11215770_020_01" d="M 229.21 137.21 L 254.56 149.24 L 269.90 156.53 L 272.59 157.94 L 285.35 164.67 L 321.76 183.23 L 346.88 194.96 L 366.31 203.19 L 374.77 207.02 L 378.58 208.75 L 405.20 219.39 L 430.38 229.46 L 459.73 241.21 L 477.60 248.71 L 499.79 257.97 L 507.67 261.25 L 504.24 264.94 L 490.83 285.08 L 476.80 304.29 L 475.76 305.72 L 475.72 305.77 L 455.29 333.93 L 441.94 353.02 L 441.94 353.03 L 425.73 390.28 L 411.62 421.96 L 406.13 436.64 L 404.63 440.38 L 399.76 452.46 L 378.37 444.21 L 358.27 439.09 L 335.97 435.21 L 306.33 430.79 L 307.48 419.16 L 308.01 413.66 L 316.53 335.02 L 317.00 330.71 L 306.01 329.64 L 158.15 315.26 L 157.93 313.83 L 154.53 291.35 L 149.84 260.36 L 136.73 173.72 L 135.89 167.81 L 132.04 140.87 L 130.94 133.19 L 127.07 106.05 L 124.61 91.22 L 130.65 92.97 L 135.23 94.30 L 165.45 108.01 L 190.17 119.21 L 229.21 137.21 Z "/>
<path class="zone" data-zone-id="11215770_020_02" d="M 522.67 260.84 L 526.76 263.15 L 547.84 274.57 L 550.83 276.19 L 566.99 284.74 L 574.25 288.59 L 609.29 306.53 L 647.92 326.27 L 668.81 336.95 L 681.90 343.63 L 687.72 346.31 L 685.53 350.83 L 678.46 365.41 L 668.25 385.80 L 665.42 395.21 L 660.96 394.08 L 636.16 387.78 L 629.54 386.12 L 624.65 384.90 L 604.97 379.99 L 597.63 378.02 L 564.86 369.22 L 536.42 363.71 L 533.95 363.23 L 506.09 359.72 L 487.31 357.36 L 460.29 353.96 L 451.31 352.85 L 441.94 353.02 L 455.29 333.93 L 475.72 305.77 L 475.76 305.72 L 476.80 304.29 L 490.83 285.08 L 504.24 264.94 L 507.67 261.25 L 508.51 260.34 L 516.02 258.01 L 522.42 260.74 L 522.67 260.84 Z "/>
<path class="zone" data-zone-id="11215770_020_03" d="M 687.72 346.31 L 695.71 349.99 L 711.65 358.99 L 729.18 369.02 L 736.80 373.38 L 744.11 376.95 L 747.43 377.75 L 773.09 380.66 L 788.67 382.43 L 807.77 384.74 L 837.25 388.10 L 841.49 388.81 L 848.55 390.02 L 863.49 392.55 L 862.19 394.17 L 845.12 412.78 L 829.59 424.17 L 820.08 430.26 L 814.80 432.99 L 798.68 437.50 L 782.84 440.04 L 717.89 446.87 L 717.26 446.93 L 711.04 448.21 L 708.10 448.81 L 694.91 452.13 L 674.89 457.86 L 670.84 458.99 L 659.99 462.03 L 659.28 449.76 L 658.91 443.42 L 660.95 424.28 L 663.20 404.28 L 663.65 400.62 L 665.40 395.25 L 665.42 395.21 L 668.25 385.80 L 678.46 365.41 L 685.53 350.83 L 687.72 346.31 Z "/>
<path class="zone" data-zone-id="11215770_020_04" d="M 863.49 392.55 L 868.29 386.60 L 869.01 385.57 L 879.36 370.66 L 899.89 336.45 L 919.37 304.01 L 929.82 287.09 L 937.05 275.40 L 954.85 246.62 L 963.94 251.66 L 966.50 257.83 L 967.78 262.95 L 968.65 276.25 L 969.66 292.80 L 972.90 338.57 L 974.54 360.74 L 976.91 394.72 L 977.95 411.57 L 979.29 433.41 L 979.84 446.31 L 979.66 449.82 L 979.53 452.54 L 977.86 455.72 L 970.91 465.21 L 964.10 474.51 L 952.84 489.76 L 942.13 504.25 L 941.04 505.73 L 927.77 523.76 L 915.60 540.37 L 913.83 547.30 L 912.54 552.38 L 906.72 551.88 L 905.90 551.81 L 901.13 551.25 L 891.46 550.12 L 877.95 548.78 L 846.22 545.71 L 842.20 545.34 L 838.15 544.97 L 797.78 541.24 L 794.98 540.98 L 791.92 540.70 L 712.28 533.51 L 711.91 529.96 L 711.13 522.33 L 713.92 495.44 L 715.49 483.77 L 715.84 481.14 L 717.22 457.98 L 717.89 446.87 L 782.84 440.04 L 798.68 437.50 L 814.80 432.99 L 820.08 430.26 L 829.59 424.17 L 845.12 412.78 L 862.19 394.17 L 863.49 392.55 Z "/>
<path class="zone" data-zone-id="11215770_020_05" d="M 954.85 246.62 L 959.06 239.82 L 963.58 232.51 L 965.70 230.11 L 978.95 236.72 L 981.00 236.88 L 986.62 237.34 L 1014.63 235.43 L 1014.91 235.41 L 1015.18 240.35 L 1015.47 245.62 L 1017.69 281.67 L 1019.42 311.61 L 1021.09 339.52 L 1024.36 392.20 L 1025.73 409.76 L 1027.38 437.25 L 1029.40 469.65 L 1017.14 486.48 L 1007.14 500.17 L 1005.30 502.73 L 981.08 536.46 L 966.72 555.89 L 960.60 562.63 L 960.25 562.28 L 956.63 559.96 L 953.39 558.51 L 949.85 557.29 L 942.92 555.21 L 940.09 554.76 L 914.07 552.51 L 912.54 552.38 L 913.83 547.30 L 915.60 540.37 L 927.77 523.76 L 941.04 505.73 L 942.13 504.25 L 952.84 489.76 L 964.10 474.51 L 970.91 465.21 L 977.86 455.72 L 979.53 452.54 L 979.66 449.82 L 979.84 446.31 L 979.29 433.41 L 977.95 411.57 L 976.91 394.72 L 974.54 360.74 L 972.90 338.57 L 969.66 292.80 L 968.65 276.25 L 967.78 262.95 L 966.50 257.83 L 963.94 251.66 L 954.85 246.62 Z "/>
<path class="zone" data-zone-id="11215770_020_06" d="M 961.31 563.35 L 963.39 565.46 L 965.46 568.89 L 967.51 572.12 L 979.66 597.90 L 994.15 628.60 L 994.18 628.67 L 996.19 633.28 L 1003.14 647.80 L 1009.02 659.24 L 1011.52 664.79 L 1012.02 667.10 L 1012.87 671.14 L 1010.10 671.63 L 978.34 677.46 L 960.99 680.74 L 943.07 684.12 L 916.67 689.13 L 910.77 690.92 L 908.87 692.80 L 905.07 698.13 L 897.38 708.95 L 884.33 727.98 L 878.45 736.55 L 854.07 771.36 L 839.84 791.55 L 822.51 816.87 L 820.27 813.06 L 816.09 806.00 L 813.24 797.08 L 808.25 779.26 L 808.12 778.81 L 803.98 764.81 L 799.79 751.17 L 799.53 750.29 L 796.71 740.56 L 790.41 721.52 L 781.40 698.00 L 779.92 692.30 L 780.10 692.10 L 805.25 664.59 L 833.76 633.60 L 840.97 625.33 L 844.90 620.81 L 860.66 603.17 L 880.46 581.12 L 894.07 566.03 L 897.99 561.11 L 899.78 555.49 L 901.13 551.25 L 905.90 551.81 L 906.72 551.88 L 912.54 552.38 L 914.07 552.51 L 940.09 554.76 L 942.92 555.21 L 949.85 557.29 L 953.39 558.51 L 956.63 559.96 L 960.25 562.28 L 960.60 562.63 L 961.31 563.35 Z "/>
<path class="zone" data-zone-id="11215770_020_07" d="M 884.33 727.98 L 886.77 731.80 L 892.10 740.16 L 906.76 786.14 L 918.44 820.03 L 926.32 842.87 L 926.13 844.22 L 925.37 850.94 L 923.63 864.11 L 923.57 864.54 L 923.14 869.53 L 922.10 874.44 L 922.06 874.59 L 919.11 882.41 L 910.54 900.15 L 905.59 910.08 L 902.55 914.89 L 897.05 921.96 L 891.37 928.04 L 886.76 932.42 L 886.07 933.08 L 874.72 941.49 L 867.18 946.06 L 841.22 961.05 L 831.51 966.71 L 820.01 972.89 L 818.07 968.63 L 814.93 950.28 L 808.91 898.82 L 808.62 896.30 L 803.22 857.74 L 801.80 847.62 L 800.91 841.23 L 801.73 840.61 L 810.46 832.06 L 818.60 822.59 L 822.51 816.87 L 839.84 791.55 L 854.07 771.36 L 878.45 736.55 L 884.33 727.98 Z "/>
<path class="zone" data-zone-id="11215770_020_08" d="M 820.01 972.89 L 818.48 973.71 L 794.70 985.99 L 786.80 990.28 L 779.68 994.70 L 774.60 998.41 L 774.32 998.67 L 765.83 1006.66 L 758.71 1014.04 L 749.03 1024.19 L 743.22 1027.95 L 738.52 1028.65 L 738.03 1022.69 L 737.66 1019.40 L 736.81 1011.90 L 734.94 998.73 L 733.83 991.89 L 729.89 978.56 L 726.32 969.71 L 722.39 961.74 L 720.32 958.10 L 717.38 954.13 L 712.52 947.56 L 704.34 939.39 L 695.48 931.27 L 695.22 931.03 L 689.49 925.57 L 682.88 918.64 L 679.36 914.84 L 676.55 910.25 L 673.06 899.71 L 671.41 892.65 L 671.16 887.79 L 672.03 880.73 L 672.77 878.61 L 678.03 873.24 L 687.11 868.27 L 693.78 865.28 L 706.92 863.53 L 715.29 862.08 L 723.15 860.72 L 753.50 855.14 L 754.05 855.04 L 768.41 852.41 L 778.74 850.48 L 785.82 849.16 L 788.63 848.64 L 788.99 848.45 L 796.23 844.75 L 800.91 841.23 L 801.80 847.62 L 803.22 857.74 L 808.62 896.30 L 808.91 898.82 L 814.93 950.28 L 818.07 968.63 L 820.01 972.89 Z "/>
<path class="zone" data-zone-id="11215770_020_00" d="M 679.84 1012.11 L 673.63 1006.51 L 667.71 1001.16 L 659.17 993.43 L 655.99 990.56 L 645.02 980.63 L 643.74 979.36 L 643.42 979.07 L 637.97 974.11 L 631.97 968.65 L 648.28 950.49 L 652.06 946.27 L 642.09 928.30 L 634.58 914.76 L 632.45 910.92 L 618.37 917.79 L 610.61 903.85 L 609.89 902.55 L 601.50 887.50 L 607.58 884.05 L 598.72 867.95 L 600.07 861.66 L 620.14 850.04 L 612.13 836.03 L 602.96 820.00 L 600.73 815.94 L 561.29 838.32 L 561.39 838.25 L 586.08 824.21 L 602.82 814.71 L 621.96 803.84 L 625.81 801.68 L 637.95 794.89 L 649.90 788.21 L 662.67 781.20 L 667.55 778.43 L 688.77 766.37 L 698.77 760.76 L 710.75 754.03 L 730.04 743.13 L 731.16 742.41 L 735.64 739.54 L 737.79 738.16 L 750.47 724.12 L 772.97 699.89 L 779.92 692.30 L 781.40 698.00 L 790.41 721.52 L 796.71 740.56 L 799.53 750.29 L 799.79 751.17 L 803.98 764.81 L 808.12 778.81 L 808.25 779.26 L 813.24 797.08 L 816.09 806.00 L 820.27 813.06 L 822.51 816.87 L 818.60 822.59 L 810.46 832.06 L 801.73 840.61 L 800.91 841.23 L 796.23 844.75 L 788.99 848.45 L 788.63 848.64 L 785.82 849.16 L 778.74 850.48 L 768.41 852.41 L 754.05 855.04 L 753.50 855.14 L 723.15 860.72 L 715.29 862.08 L 706.92 863.53 L 693.78 865.28 L 687.11 868.27 L 678.03 873.24 L 672.77 878.61 L 672.03 880.73 L 671.16 887.79 L 671.41 892.65 L 673.06 899.71 L 676.55 910.25 L 679.36 914.84 L 682.88 918.64 L 689.49 925.57 L 695.22 931.03 L 695.48 931.27 L 704.34 939.39 L 712.52 947.56 L 717.38 954.13 L 720.32 958.10 L 722.39 961.74 L 726.32 969.71 L 729.89 978.56 L 733.83 991.89 L 734.94 998.73 L 736.81 1011.90 L 737.66 1019.40 L 738.03 1022.69 L 738.52 1028.65 L 741.40 1063.49 L 737.13 1063.80 L 725.35 1053.17 L 711.47 1040.65 L 704.72 1034.56 L 703.93 1033.85 L 697.48 1028.03 L 691.63 1022.75 L 679.84 1012.11 Z "/>
<path class="zone" data-zone-id="11215770_020_10" d="M 555.93 841.36 L 555.56 841.56 L 552.95 839.22 L 536.14 824.11 L 528.26 817.02 L 535.50 808.89 L 559.03 782.72 L 584.95 753.93 L 591.58 746.57 L 596.87 740.69 L 601.40 735.67 L 601.79 735.23 L 615.12 720.42 L 626.87 707.38 L 645.92 686.21 L 651.09 680.46 L 651.25 680.29 L 659.12 671.44 L 672.57 656.33 L 675.37 653.17 L 675.42 653.11 L 684.36 643.08 L 694.13 632.43 L 694.52 632.00 L 699.13 626.73 L 700.39 625.37 L 703.25 622.28 L 713.36 631.05 L 713.57 631.24 L 741.35 656.15 L 743.74 658.33 L 772.58 684.51 L 779.92 692.30 L 772.97 699.89 L 750.47 724.12 L 737.79 738.16 L 735.64 739.54 L 731.16 742.41 L 730.04 743.13 L 710.75 754.03 L 698.77 760.76 L 688.77 766.37 L 667.55 778.43 L 662.67 781.20 L 649.90 788.21 L 637.95 794.89 L 625.81 801.68 L 621.96 803.84 L 602.82 814.71 L 586.08 824.21 L 561.39 838.25 L 561.29 838.32 L 555.93 841.36 Z "/>
<path class="zone" data-zone-id="11215770_020_11" d="M 528.26 817.02 L 521.78 811.20 L 465.71 761.07 L 460.67 756.57 L 464.55 752.27 L 480.95 734.11 L 523.14 687.39 L 543.83 664.24 L 581.15 622.46 L 583.80 619.48 L 583.98 619.63 L 601.58 634.71 L 602.05 635.12 L 618.97 650.76 L 619.06 650.84 L 631.13 662.00 L 631.98 662.79 L 641.15 671.25 L 648.08 677.45 L 651.25 680.29 L 651.09 680.46 L 645.92 686.21 L 626.87 707.38 L 615.12 720.42 L 601.79 735.23 L 601.40 735.67 L 596.87 740.69 L 591.58 746.57 L 584.95 753.93 L 559.03 782.72 L 535.50 808.89 L 528.26 817.02 Z "/>
<path class="zone" data-zone-id="11215770_020_12" d="M 460.67 756.57 L 399.70 702.06 L 391.70 695.21 L 420.17 663.49 L 443.98 636.48 L 444.19 636.24 L 456.91 621.92 L 457.22 621.57 L 470.66 606.46 L 485.90 588.94 L 485.99 588.83 L 497.69 575.13 L 499.38 573.62 L 500.01 573.07 L 507.92 563.91 L 515.57 559.41 L 517.22 559.22 L 523.16 565.29 L 534.38 575.87 L 549.70 589.29 L 583.80 619.48 L 581.15 622.46 L 543.83 664.24 L 523.14 687.39 L 480.95 734.11 L 464.55 752.27 L 460.67 756.57 Z "/>
<path class="zone" data-zone-id="11215770_020_13" d="M 384.17 688.76 L 313.00 624.82 L 235.16 554.88 L 276.61 508.99 L 301.25 481.71 L 303.48 459.56 L 302.81 469.75 L 301.80 482.61 L 301.80 482.61 L 306.14 486.42 L 330.36 508.43 L 351.88 528.61 L 354.07 530.66 L 354.09 530.68 L 363.55 538.90 L 369.35 543.95 L 385.01 557.57 L 385.31 557.84 L 413.32 582.80 L 413.38 582.85 L 430.99 598.99 L 451.24 616.90 L 452.90 618.37 L 453.64 618.92 L 457.22 621.57 L 456.91 621.92 L 444.19 636.24 L 443.98 636.48 L 420.17 663.49 L 391.70 695.21 L 384.17 688.76 Z "/>
<path class="zone" data-zone-id="11215770_020_14" d="M 303.48 459.56 L 304.70 447.46 L 306.33 430.79 L 335.97 435.21 L 358.27 439.09 L 378.37 444.21 L 399.76 452.46 L 400.03 452.56 L 430.30 463.92 L 443.64 468.89 L 444.35 469.15 L 485.65 481.42 L 486.09 481.55 L 513.66 486.28 L 522.69 487.08 L 521.70 497.62 L 521.20 502.94 L 518.81 528.66 L 518.64 530.44 L 516.87 548.26 L 516.76 553.78 L 517.22 559.22 L 515.57 559.41 L 507.92 563.91 L 500.01 573.07 L 499.38 573.62 L 497.69 575.13 L 485.99 588.83 L 485.90 588.94 L 470.66 606.46 L 457.22 621.57 L 453.64 618.92 L 452.90 618.37 L 451.24 616.90 L 430.99 598.99 L 413.38 582.85 L 413.32 582.80 L 385.31 557.84 L 385.01 557.57 L 369.35 543.95 L 363.55 538.90 L 354.09 530.68 L 354.07 530.66 L 351.88 528.61 L 330.36 508.43 L 306.14 486.42 L 301.80 482.61 L 301.80 482.61 L 302.81 469.75 L 303.48 459.56 Z "/>
<path class="zone" data-zone-id="11215770_020_15" d="M 901.13 551.25 L 899.78 555.49 L 897.99 561.11 L 894.07 566.03 L 880.46 581.12 L 860.66 603.17 L 844.90 620.81 L 840.97 625.33 L 833.76 633.60 L 805.25 664.59 L 780.10 692.10 L 779.92 692.30 L 772.58 684.51 L 743.74 658.33 L 741.35 656.15 L 713.57 631.24 L 713.36 631.05 L 703.25 622.28 L 703.12 622.17 L 654.67 576.71 L 651.18 573.18 L 647.86 569.82 L 654.19 566.27 L 665.37 559.88 L 665.80 559.64 L 678.33 552.38 L 694.51 543.18 L 701.85 538.65 L 710.20 533.32 L 712.28 533.51 L 791.92 540.70 L 794.98 540.98 L 797.78 541.24 L 838.15 544.97 L 842.20 545.34 L 846.22 545.71 L 877.95 548.78 L 891.46 550.12 L 901.13 551.25 Z "/>
<path class="zone" data-zone-id="11215770_020_16" d="M 516.76 553.78 L 516.87 548.26 L 518.64 530.44 L 518.81 528.66 L 521.20 502.94 L 521.70 497.62 L 522.69 487.08 L 523.93 487.19 L 524.87 487.18 L 546.19 486.99 L 561.83 485.78 L 572.79 484.16 L 581.57 482.07 L 581.94 481.98 L 596.09 478.56 L 598.77 477.91 L 631.20 469.54 L 635.07 468.55 L 656.58 462.99 L 659.99 462.03 L 670.84 458.99 L 674.89 457.86 L 694.91 452.13 L 708.10 448.81 L 711.04 448.21 L 717.26 446.93 L 717.89 446.87 L 717.22 457.98 L 715.84 481.14 L 715.49 483.77 L 713.92 495.44 L 711.13 522.33 L 711.91 529.96 L 712.28 533.51 L 710.20 533.32 L 701.85 538.65 L 694.51 543.18 L 678.33 552.38 L 665.80 559.64 L 665.37 559.88 L 654.19 566.27 L 647.86 569.82 L 651.18 573.18 L 654.67 576.71 L 703.12 622.17 L 703.25 622.28 L 700.39 625.37 L 699.13 626.73 L 694.52 632.00 L 694.13 632.43 L 684.36 643.08 L 675.42 653.11 L 675.37 653.17 L 672.57 656.33 L 659.12 671.44 L 651.25 680.29 L 648.08 677.45 L 641.15 671.25 L 631.98 662.79 L 631.13 662.00 L 619.06 650.84 L 618.97 650.76 L 602.05 635.12 L 601.58 634.71 L 583.98 619.63 L 583.80 619.48 L 549.70 589.29 L 534.38 575.87 L 523.16 565.29 L 517.22 559.22 L 516.76 553.78 Z "/>
<path class="zone" data-zone-id="11215770_020_17" d="M 524.87 487.18 L 525.73 473.84 L 525.76 469.04 L 528.88 428.06 L 529.90 418.71 L 535.85 368.51 L 536.42 363.71 L 564.86 369.22 L 597.63 378.02 L 604.97 379.99 L 624.65 384.90 L 629.54 386.12 L 636.16 387.78 L 660.96 394.08 L 665.42 395.21 L 665.40 395.25 L 663.65 400.62 L 663.20 404.28 L 660.95 424.28 L 658.91 443.42 L 659.28 449.76 L 659.99 462.03 L 656.58 462.99 L 635.07 468.55 L 631.20 469.54 L 598.77 477.91 L 596.09 478.56 L 581.94 481.98 L 581.57 482.07 L 572.79 484.16 L 561.83 485.78 L 546.19 486.99 L 524.87 487.18 Z "/>
<path class="zone" data-zone-id="11215770_020_00" d="M 528.88 428.06 L 528.65 431.10 L 525.76 469.04 L 525.73 473.84 L 524.92 486.35 L 524.87 487.18 L 523.96 487.19 L 523.93 487.19 L 522.69 487.08 L 513.66 486.28 L 486.09 481.55 L 485.65 481.42 L 473.25 477.73 L 444.35 469.15 L 443.64 468.89 L 430.30 463.92 L 400.03 452.56 L 399.76 452.46 L 404.63 440.38 L 406.13 436.64 L 411.62 421.96 L 425.73 390.28 L 441.94 353.03 L 441.94 353.02 L 451.31 352.85 L 460.29 353.96 L 487.31 357.36 L 506.09 359.72 L 533.95 363.23 L 536.42 363.71 L 535.85 368.51 L 529.90 418.71 L 528.88 428.06 Z "/>
</svg>
