<svg xmlns="http://www.w3.org/2000/svg" viewBox="0 0 1154 1155" width="1154" height="1155">
<path class="zone" data-zone-id="11215730_020_01" d="M 511.84 1017.12 L 494.17 1012.09 L 484.58 1009.36 L 484.58 1009.36 L 474.91 1006.61 L 474.91 1006.61 L 474.91 1006.61 L 481.04 986.81 L 505.72 964.88 L 522.92 965.74 L 681.21 973.67 L 690.43 975.95 L 714.15 983.73 L 714.15 983.73 L 679.60 1053.99 L 662.62 1067.44 L 662.18 1068.04 L 662.18 1068.04 L 662.18 1068.04 L 657.66 1066.42 L 625.85 1055.74 L 511.84 1017.12 Z "/>
<path class="zone" data-zone-id="11215730_020_00" d="M 345.80 903.27 L 348.23 904.32 L 338.36 937.62 L 337.09 957.96 L 321.55 958.23 L 301.26 955.69 L 240.24 945.43 L 225.03 925.10 L 241.43 836.43 L 254.99 826.77 L 258.43 827.76 L 278.80 833.21 L 281.97 833.60 L 306.49 833.60 L 321.30 833.30 L 336.81 832.27 L 336.98 832.26 L 343.68 831.21 L 346.21 830.59 L 352.43 828.84 L 356.01 827.45 L 366.64 826.61 L 361.59 860.46 L 357.87 884.48 L 350.33 887.60 L 350.92 889.31 L 345.80 903.27 Z "/>
<path class="zone" data-zone-id="11215730_020_01" d="M 420.45 991.11 L 363.29 977.71 L 353.69 975.46 L 353.69 975.46 L 353.69 975.46 L 295.49 965.98 L 219.64 953.63 L 219.64 953.63 L 219.64 953.63 L 217.56 953.30 L 217.56 953.30 L 220.27 941.15 L 222.18 932.56 L 222.37 931.70 L 226.35 913.08 L 241.94 825.78 L 241.94 825.78 L 242.41 823.17 L 253.15 826.25 L 254.99 826.77 L 241.43 836.43 L 225.03 925.10 L 240.24 945.43 L 301.26 955.69 L 321.55 958.23 L 337.09 957.96 L 338.36 937.62 L 348.23 904.32 L 345.80 903.27 L 350.92 889.31 L 350.33 887.60 L 357.87 884.48 L 361.59 860.46 L 366.64 826.61 L 356.01 827.45 L 376.69 819.39 L 390.94 814.12 L 391.27 813.98 L 401.46 809.76 L 404.51 808.38 L 412.85 803.36 L 424.62 795.06 L 425.01 794.78 L 434.35 788.11 L 438.38 785.30 L 438.51 785.21 L 457.51 772.31 L 458.24 771.91 L 479.22 760.44 L 479.56 760.26 L 512.67 742.61 L 517.21 740.37 L 521.61 738.09 L 524.59 736.55 L 528.32 742.87 L 550.46 782.50 L 552.63 786.94 L 557.43 796.82 L 556.93 820.77 L 556.70 828.58 L 556.12 848.40 L 554.97 887.16 L 553.89 900.64 L 550.22 907.60 L 519.45 952.68 L 505.72 964.88 L 481.04 986.81 L 474.91 1006.61 L 474.91 1006.61 L 459.83 1002.32 L 459.83 1002.32 L 454.30 1000.74 L 445.89 998.35 L 445.89 998.35 L 442.70 997.44 L 420.45 991.11 Z "/>
<path class="zone" data-zone-id="11215730_020_00" d="M 408.88 475.15 L 408.72 474.25 L 408.34 472.06 L 406.56 462.24 L 406.18 460.82 L 404.86 455.83 L 400.57 443.49 L 401.65 441.63 L 418.38 437.41 L 419.86 436.91 L 429.83 433.49 L 436.29 431.77 L 439.10 429.69 L 439.63 427.95 L 446.36 404.31 L 453.63 379.44 L 451.39 376.46 L 448.25 374.87 L 447.04 373.81 L 446.53 371.89 L 451.25 360.32 L 463.78 332.29 L 467.66 325.69 L 468.19 323.78 L 467.51 320.63 L 466.33 318.80 L 454.40 300.94 L 451.67 291.85 L 451.46 289.01 L 473.23 280.85 L 480.40 291.81 L 486.55 298.07 L 497.25 309.71 L 518.25 329.72 L 530.61 338.66 L 536.03 346.86 L 539.62 349.75 L 549.73 360.34 L 555.37 368.59 L 567.10 391.53 L 547.16 398.08 L 548.78 401.76 L 541.80 413.66 L 551.02 416.28 L 543.79 444.02 L 539.13 456.77 L 545.48 464.19 L 562.51 491.75 L 545.05 505.91 L 550.48 512.74 L 558.74 525.45 L 553.11 538.12 L 548.31 545.95 L 536.38 564.06 L 517.15 583.85 L 509.97 591.26 L 505.64 594.54 L 488.22 605.78 L 470.73 585.19 L 469.31 583.48 L 445.89 588.68 L 437.19 573.91 L 411.76 544.10 L 409.49 536.09 L 399.22 520.50 L 398.48 515.90 L 394.80 502.52 L 392.26 496.26 L 392.97 495.86 L 392.89 495.58 L 395.59 493.32 L 398.40 489.42 L 400.89 485.97 L 400.99 485.83 L 403.21 482.53 L 403.93 481.77 L 408.80 476.66 L 408.88 475.15 Z "/>
<path class="zone" data-zone-id="11215730_020_01" d="M 277.34 620.59 L 281.26 598.28 L 284.95 578.11 L 289.48 553.39 L 292.30 537.93 L 296.67 512.23 L 296.74 511.78 L 305.51 510.88 L 328.87 508.49 L 333.73 508.07 L 345.79 507.05 L 347.46 506.79 L 363.08 504.38 L 378.51 502.57 L 383.60 501.92 L 385.94 501.11 L 388.42 499.33 L 392.89 495.58 L 392.97 495.86 L 392.26 496.26 L 394.80 502.52 L 398.48 515.90 L 399.22 520.50 L 409.49 536.09 L 411.76 544.10 L 437.19 573.91 L 445.89 588.68 L 469.31 583.48 L 470.73 585.19 L 488.22 605.78 L 505.64 594.54 L 509.97 591.26 L 517.15 583.85 L 536.38 564.06 L 548.31 545.95 L 553.11 538.12 L 558.74 525.45 L 550.48 512.74 L 545.05 505.91 L 562.51 491.75 L 545.48 464.19 L 539.13 456.77 L 543.79 444.02 L 551.02 416.28 L 541.80 413.66 L 548.78 401.76 L 547.16 398.08 L 567.10 391.53 L 555.37 368.59 L 549.73 360.34 L 539.62 349.75 L 536.03 346.86 L 530.61 338.66 L 518.25 329.72 L 497.25 309.71 L 486.55 298.07 L 480.40 291.81 L 473.23 280.85 L 451.46 289.01 L 451.33 287.32 L 451.37 279.64 L 451.05 276.07 L 446.84 248.65 L 442.81 222.54 L 442.03 219.48 L 441.26 217.44 L 438.12 209.24 L 440.92 207.49 L 515.61 160.92 L 578.89 120.28 L 599.30 107.33 L 623.32 92.09 L 629.11 88.54 L 631.67 86.97 L 636.56 94.03 L 638.20 96.39 L 645.07 107.08 L 653.61 122.19 L 666.39 142.37 L 669.70 145.75 L 675.40 151.56 L 679.03 157.43 L 697.79 186.96 L 698.26 187.54 L 708.39 200.23 L 708.61 200.50 L 721.26 215.70 L 729.28 225.01 L 753.66 253.70 L 763.13 264.84 L 758.66 295.88 L 758.22 298.95 L 757.69 304.88 L 756.44 318.70 L 754.72 337.78 L 754.20 343.60 L 755.90 346.30 L 757.60 348.17 L 769.93 359.42 L 790.82 377.93 L 809.37 394.35 L 824.02 407.32 L 847.60 428.07 L 859.17 438.24 L 880.57 456.73 L 895.99 469.40 L 936.46 484.93 L 936.46 484.93 L 936.46 484.94 L 934.18 491.72 L 917.46 544.47 L 917.46 544.47 L 914.59 552.77 L 909.29 566.64 L 914.21 554.71 L 914.21 554.71 L 910.99 564.86 L 905.31 579.64 L 898.02 597.21 L 848.52 704.19 L 794.92 816.55 L 776.98 854.16 L 745.96 918.18 L 745.96 918.18 L 720.99 915.33 L 735.56 917.02 L 745.96 918.18 L 745.96 918.18 L 717.13 977.67 L 714.15 983.73 L 714.15 983.73 L 714.15 983.73 L 690.43 975.95 L 681.21 973.67 L 522.92 965.74 L 505.72 964.88 L 519.45 952.68 L 550.22 907.60 L 553.89 900.64 L 554.97 887.16 L 556.12 848.40 L 556.70 828.58 L 556.93 820.77 L 557.43 796.82 L 552.63 786.94 L 550.46 782.50 L 528.32 742.87 L 524.59 736.55 L 521.61 738.09 L 517.21 740.37 L 512.67 742.61 L 479.56 760.26 L 479.22 760.44 L 458.24 771.91 L 457.51 772.31 L 438.51 785.21 L 438.38 785.30 L 434.35 788.11 L 425.01 794.78 L 424.62 795.06 L 412.85 803.36 L 404.51 808.38 L 401.46 809.76 L 391.27 813.98 L 390.94 814.12 L 376.69 819.39 L 352.43 828.84 L 346.21 830.59 L 343.68 831.21 L 336.98 832.26 L 336.81 832.27 L 321.30 833.30 L 306.49 833.60 L 281.97 833.60 L 278.80 833.21 L 258.43 827.76 L 253.15 826.25 L 242.41 823.17 L 243.27 818.36 L 250.67 774.68 L 257.18 736.29 L 261.76 709.26 L 264.82 691.80 L 277.34 620.59 Z "/>
<path class="zone" data-zone-id="11215730_020_00" d="M 451.64 313.97 L 453.65 317.80 L 460.16 309.55 L 466.33 318.80 L 467.51 320.63 L 468.19 323.78 L 467.66 325.69 L 463.78 332.29 L 462.63 334.85 L 451.25 360.32 L 446.53 371.89 L 447.04 373.81 L 448.25 374.87 L 451.39 376.46 L 453.63 379.44 L 453.52 379.83 L 446.36 404.31 L 439.63 427.95 L 439.10 429.69 L 436.29 431.77 L 429.83 433.49 L 419.86 436.91 L 423.87 423.15 L 426.66 413.58 L 366.05 369.33 L 378.42 352.32 L 433.32 276.89 L 440.22 290.85 L 443.42 297.33 L 443.42 297.33 L 451.64 313.97 Z M 392.63 379.68 L 381.45 371.61 L 370.27 363.53 L 392.63 379.68 Z "/>
<path class="zone" data-zone-id="11215730_020_01" d="M 299.31 486.21 L 301.42 461.07 L 303.86 431.88 L 305.52 412.11 L 306.91 398.03 L 308.44 382.48 L 312.19 366.36 L 314.78 357.16 L 318.22 344.96 L 324.65 326.59 L 328.44 318.82 L 328.44 318.82 L 343.99 293.67 L 346.74 289.23 L 367.65 263.35 L 387.26 243.71 L 403.97 231.94 L 421.35 219.70 L 438.12 209.24 L 441.26 217.44 L 442.03 219.48 L 442.81 222.54 L 446.84 248.65 L 451.05 276.07 L 451.37 279.64 L 451.33 287.32 L 451.67 291.85 L 454.40 300.94 L 460.16 309.55 L 453.65 317.80 L 451.64 313.97 L 443.42 297.33 L 443.42 297.33 L 433.32 276.89 L 378.42 352.32 L 370.27 363.53 L 366.05 369.33 L 426.66 413.58 L 423.87 423.15 L 419.86 436.91 L 418.38 437.41 L 401.65 441.63 L 400.57 443.49 L 404.86 455.83 L 406.56 462.24 L 408.34 472.06 L 408.72 474.25 L 408.88 475.15 L 408.80 476.66 L 403.21 482.53 L 400.99 485.83 L 400.89 485.97 L 395.59 493.32 L 388.42 499.33 L 385.94 501.11 L 383.60 501.92 L 378.51 502.57 L 363.08 504.38 L 347.46 506.79 L 345.79 507.05 L 333.73 508.07 L 328.87 508.49 L 305.51 510.88 L 296.74 511.78 L 298.15 502.35 L 298.92 491.69 L 299.31 486.21 Z "/>
</svg>
