<svg xmlns="http://www.w3.org/2000/svg" viewBox="0 0 1155 1155" width="1155" height="1155">
<path class="zone" data-zone-id="11215870_020_00" d="M 364.94 759.05 L 380.37 778.84 L 335.85 814.04 L 271.01 865.32 L 212.13 791.09 L 208.76 765.11 L 218.97 744.96 L 245.10 693.40 L 259.14 665.69 L 273.71 673.04 L 309.43 691.05 L 359.54 716.82 L 379.59 727.40 L 380.66 727.99 L 364.94 759.05 Z "/>
<path class="zone" data-zone-id="11215870_020_01" d="M 601.02 262.04 L 634.56 226.51 L 634.77 226.37 L 636.18 224.40 L 638.18 223.01 L 637.58 216.69 L 653.58 208.40 L 669.76 200.03 L 762.52 290.49 L 701.83 352.06 L 680.81 378.01 L 655.58 408.68 L 662.48 433.32 L 756.37 645.27 L 679.74 727.07 L 505.85 912.70 L 387.73 746.29 L 406.70 742.32 L 406.77 742.36 L 412.74 743.47 L 434.13 743.33 L 452.09 730.92 L 464.36 722.33 L 470.18 718.18 L 474.17 714.74 L 477.45 711.06 L 479.69 708.10 L 481.23 705.13 L 483.41 700.08 L 484.84 693.76 L 485.15 690.85 L 485.06 689.08 L 484.80 687.12 L 483.89 684.07 L 477.81 668.43 L 477.34 665.54 L 479.44 578.18 L 480.32 538.38 L 482.14 489.34 L 483.24 480.06 L 490.15 466.43 L 492.46 460.66 L 492.93 456.84 L 495.53 429.96 L 501.37 369.57 L 501.77 365.37 L 505.85 323.28 L 507.60 305.35 L 511.72 301.65 L 520.20 295.08 L 546.79 274.48 L 552.91 269.74 L 584.14 247.00 L 597.65 265.08 L 601.02 262.04 Z M 408.65 746.16 L 400.53 752.29 L 402.30 754.05 L 407.39 759.11 L 416.31 757.49 L 414.00 754.07 L 410.85 749.41 L 408.65 746.16 Z "/>
<path class="zone" data-zone-id="11215870_020_02" d="M 400.85 1041.51 L 382.94 1060.50 L 362.89 1007.63 L 311.99 929.28 L 260.30 859.84 L 201.10 780.32 L 205.64 771.28 L 208.76 765.11 L 212.13 791.09 L 271.01 865.32 L 335.85 814.04 L 380.37 778.84 L 364.94 759.05 L 380.66 727.99 L 406.70 742.32 L 387.73 746.29 L 505.85 912.70 L 679.74 727.07 L 756.37 645.27 L 662.48 433.32 L 655.58 408.68 L 680.81 378.01 L 701.83 352.06 L 762.52 290.49 L 669.76 200.03 L 653.58 208.40 L 637.58 216.69 L 638.18 223.01 L 636.18 224.40 L 634.77 226.37 L 634.56 226.51 L 601.02 262.04 L 597.65 265.08 L 584.14 247.00 L 586.34 245.39 L 586.60 245.20 L 604.73 231.88 L 618.27 221.92 L 620.95 219.95 L 631.72 211.85 L 645.15 201.73 L 668.75 183.97 L 762.55 276.40 L 882.14 383.62 L 953.92 448.59 L 932.24 472.28 L 818.88 596.22 L 676.22 748.29 L 528.04 906.60 L 400.85 1041.51 Z "/>
<path class="zone" data-zone-id="11215870_020_00" d="M 304.26 498.39 L 305.43 492.64 L 315.08 438.06 L 481.27 452.46 L 490.94 464.45 L 490.15 466.43 L 483.24 480.06 L 482.14 489.34 L 480.32 538.38 L 479.44 578.18 L 477.34 665.54 L 477.81 668.43 L 483.89 684.07 L 484.80 687.12 L 485.06 689.08 L 485.15 690.85 L 484.84 693.76 L 483.41 700.08 L 481.23 705.13 L 479.69 708.10 L 477.45 711.06 L 474.17 714.74 L 470.18 718.18 L 464.36 722.33 L 452.09 730.92 L 434.13 743.33 L 412.74 743.47 L 406.77 742.36 L 379.59 727.40 L 359.54 716.82 L 322.07 697.55 L 309.43 691.05 L 273.71 673.04 L 259.14 665.69 L 263.21 657.66 L 275.91 626.67 L 280.53 613.05 L 282.35 604.91 L 284.41 595.63 L 290.87 563.99 L 304.26 498.39 Z M 316.09 449.76 L 318.29 438.34 L 313.89 461.18 L 316.09 449.76 Z "/>
<path class="zone" data-zone-id="11215870_020_01" d="M 318.29 438.34 L 324.67 405.17 L 328.83 383.50 L 332.00 366.98 L 480.87 393.96 L 477.79 410.50 L 497.07 413.99 L 492.93 456.84 L 492.46 460.66 L 490.94 464.45 L 481.27 452.46 L 470.16 451.50 L 318.29 438.34 Z "/>
<path class="zone" data-zone-id="11215870_020_02" d="M 483.95 377.43 L 480.87 393.96 L 332.00 366.98 L 328.83 383.50 L 328.60 383.46 L 343.82 304.46 L 372.77 257.59 L 431.29 214.37 L 464.08 258.32 L 480.76 245.91 L 518.10 296.70 L 511.72 301.65 L 507.60 305.35 L 505.85 323.28 L 497.07 413.99 L 477.79 410.50 L 483.95 377.43 Z "/>
<path class="zone" data-zone-id="11215870_020_03" d="M 317.62 423.67 L 329.66 355.54 L 338.70 297.16 L 343.20 268.11 L 347.23 265.10 L 391.22 232.68 L 398.60 227.25 L 509.93 145.13 L 509.95 145.12 L 543.38 120.27 L 578.00 94.54 L 578.00 94.54 L 578.00 94.54 L 668.75 183.97 L 645.15 201.73 L 631.72 211.85 L 620.95 219.95 L 618.27 221.92 L 604.73 231.88 L 586.60 245.20 L 586.34 245.39 L 552.91 269.74 L 518.10 296.70 L 480.76 245.91 L 464.08 258.32 L 431.29 214.37 L 372.77 257.59 L 343.82 304.46 L 328.60 383.46 L 328.83 383.50 L 324.67 405.17 L 318.29 438.34 L 315.08 438.06 L 317.62 423.67 Z "/>
</svg>
