<svg xmlns="http://www.w3.org/2000/svg" viewBox="0 0 1154 1155" width="1154" height="1155">
<path class="zone" data-zone-id="11215870_061_01" d="M 358.31 163.77 L 364.82 130.47 L 369.74 105.30 L 373.63 85.40 L 373.68 85.17 L 375.53 85.67 L 375.53 85.67 L 392.19 91.68 L 424.44 100.89 L 425.92 101.36 L 428.37 102.14 L 428.37 102.14 L 492.66 128.12 L 485.96 145.94 L 478.11 178.68 L 470.21 222.29 L 470.05 223.14 L 462.00 220.83 L 421.05 212.76 L 359.45 200.62 L 351.62 198.82 L 351.75 198.13 L 351.75 198.13 L 351.75 198.13 L 358.31 163.77 Z "/>
<path class="zone" data-zone-id="11215870_061_02" d="M 620.35 188.71 L 647.66 212.75 L 657.06 223.85 L 657.98 223.07 L 657.98 223.07 L 661.68 227.28 L 661.68 227.28 L 664.96 231.01 L 678.04 246.61 L 664.96 231.01 L 661.68 227.28 L 642.16 242.76 L 631.04 251.58 L 601.01 275.01 L 596.79 283.04 L 596.70 282.95 L 594.96 281.15 L 589.51 275.55 L 576.66 269.78 L 533.58 250.44 L 528.19 248.19 L 528.26 248.05 L 477.62 225.32 L 470.05 223.14 L 470.21 222.29 L 478.11 178.68 L 485.96 145.94 L 492.66 128.12 L 534.52 145.03 L 534.52 145.03 L 600.50 176.18 L 620.35 188.71 Z "/>
<path class="zone" data-zone-id="11215870_061_03" d="M 788.19 378.95 L 789.04 380.02 L 789.04 380.02 L 773.04 392.61 L 770.27 394.79 L 758.21 404.27 L 740.93 417.71 L 731.63 424.85 L 718.38 435.05 L 718.29 434.93 L 691.96 402.62 L 691.37 401.89 L 690.60 400.90 L 689.38 399.35 L 688.73 398.53 L 687.90 397.48 L 686.70 395.95 L 685.33 394.21 L 684.13 392.67 L 683.64 392.05 L 682.87 391.07 L 682.38 390.45 L 681.66 389.53 L 681.04 388.75 L 680.43 387.96 L 679.95 387.35 L 679.34 386.58 L 678.75 385.82 L 678.20 385.13 L 677.55 384.31 L 676.83 383.39 L 676.21 382.59 L 676.17 382.54 L 675.52 381.71 L 674.88 380.90 L 674.14 379.96 L 673.47 379.11 L 672.80 378.25 L 672.33 377.66 L 672.16 377.43 L 671.46 376.55 L 670.66 375.54 L 669.96 374.64 L 669.28 373.77 L 668.40 372.65 L 667.72 371.78 L 666.96 370.82 L 666.18 369.82 L 665.50 368.96 L 664.75 368.00 L 664.08 367.15 L 663.27 366.13 L 662.33 364.92 L 661.64 364.05 L 660.82 363.01 L 660.06 362.04 L 659.27 361.03 L 658.39 359.91 L 658.33 359.83 L 657.01 358.15 L 655.50 356.23 L 653.62 353.84 L 652.87 352.88 L 624.19 316.38 L 602.94 289.37 L 600.80 287.17 L 596.79 283.04 L 601.01 275.01 L 631.04 251.58 L 642.16 242.76 L 661.68 227.28 L 664.96 231.01 L 678.04 246.61 L 721.41 298.36 L 773.13 360.22 L 788.19 378.95 L 788.19 378.95 Z "/>
<path class="zone" data-zone-id="11215870_061_04" d="M 914.10 640.80 L 914.10 640.81 L 827.64 704.63 L 821.91 708.86 L 812.55 696.19 L 794.90 672.31 L 787.47 662.35 L 771.30 640.69 L 774.95 638.10 L 778.13 635.83 L 788.80 627.90 L 830.43 596.99 L 838.42 591.05 L 838.60 590.92 L 838.77 590.79 L 838.61 590.58 L 861.48 573.41 L 892.03 612.59 L 904.27 628.23 L 914.10 640.80 Z "/>
<path class="zone" data-zone-id="11215870_061_05" d="M 784.62 736.39 L 698.64 800.72 L 698.28 800.99 L 660.16 829.17 L 649.95 816.53 L 628.73 788.23 L 619.25 774.83 L 609.31 761.05 L 609.07 760.73 L 615.49 755.92 L 661.14 722.10 L 738.57 664.72 L 759.81 648.98 L 763.85 645.99 L 767.28 643.55 L 767.48 643.41 L 767.69 643.26 L 770.98 640.92 L 771.30 640.69 L 787.47 662.35 L 794.90 672.31 L 812.55 696.19 L 821.91 708.86 L 787.75 734.05 L 784.62 736.39 Z "/>
<path class="zone" data-zone-id="11215870_061_00" d="M 574.26 844.83 L 571.16 847.04 L 592.23 875.36 L 526.52 924.09 L 516.60 910.48 L 511.74 911.24 L 509.21 911.58 L 490.45 914.14 L 481.71 902.23 L 469.84 886.06 L 463.89 866.75 L 464.31 865.74 L 467.96 865.09 L 469.23 864.86 L 469.82 864.43 L 479.52 857.25 L 499.03 842.68 L 545.59 808.02 L 554.61 820.49 L 559.69 822.01 L 574.26 844.83 Z "/>
<path class="zone" data-zone-id="11215870_061_01" d="M 476.68 965.20 L 476.25 965.52 L 455.98 980.17 L 455.96 980.18 L 419.91 996.28 L 415.23 980.99 L 401.36 935.68 L 387.23 889.34 L 385.27 880.51 L 385.26 880.47 L 385.25 880.42 L 386.25 880.17 L 393.39 878.40 L 433.87 871.18 L 464.31 865.74 L 463.89 866.75 L 469.84 886.06 L 481.71 902.23 L 490.45 914.14 L 509.21 911.58 L 511.74 911.24 L 516.60 910.48 L 526.52 924.09 L 592.23 875.36 L 571.16 847.04 L 574.26 844.83 L 559.69 822.01 L 554.61 820.49 L 545.59 808.02 L 601.89 766.10 L 609.07 760.73 L 609.31 761.05 L 619.25 774.83 L 628.73 788.23 L 649.95 816.53 L 660.16 829.17 L 616.65 861.35 L 616.27 861.63 L 517.50 934.91 L 476.68 965.20 Z "/>
<path class="zone" data-zone-id="11215870_061_00" d="M 322.23 1016.48 L 240.39 1042.12 L 230.43 1010.57 L 229.30 1006.81 L 218.71 1009.91 L 226.16 963.27 L 231.79 928.05 L 269.51 916.22 L 377.11 882.44 L 385.25 880.42 L 385.26 880.47 L 385.27 880.51 L 387.23 889.34 L 401.36 935.68 L 402.69 940.04 L 410.35 965.04 L 415.23 980.99 L 419.02 993.36 L 381.32 1005.09 L 379.30 998.60 L 322.23 1016.48 Z M 364.83 952.16 L 383.76 946.10 L 402.69 940.04 L 364.83 952.16 Z "/>
<path class="zone" data-zone-id="11215870_061_01" d="M 284.17 1039.22 L 228.62 1056.73 L 189.50 1069.07 L 187.04 1069.82 L 190.08 1051.01 L 194.25 1025.19 L 196.30 1012.54 L 199.00 997.98 L 211.36 934.37 L 219.28 931.98 L 228.59 929.06 L 231.79 928.05 L 226.16 963.27 L 218.71 1009.91 L 229.30 1006.81 L 230.43 1010.57 L 240.39 1042.12 L 322.23 1016.48 L 379.30 998.60 L 381.32 1005.09 L 419.02 993.36 L 419.91 996.28 L 419.83 996.31 L 289.85 1037.43 L 284.17 1039.22 Z "/>
<path class="zone" data-zone-id="11215870_061_08" d="M 773.04 392.61 L 789.04 380.02 L 789.04 380.02 L 789.04 380.02 L 813.05 409.88 L 914.15 534.75 L 915.39 536.32 L 915.39 536.32 L 915.39 536.32 L 966.75 601.29 L 966.95 601.49 L 966.95 601.49 L 940.07 621.49 L 914.10 640.80 L 904.27 628.23 L 892.03 612.59 L 861.48 573.41 L 838.61 590.58 L 837.52 589.20 L 832.80 583.14 L 827.97 576.96 L 822.55 569.99 L 818.26 564.51 L 817.55 563.61 L 812.20 556.73 L 807.73 551.01 L 802.14 543.84 L 797.21 537.53 L 792.88 531.98 L 787.97 525.67 L 784.52 521.24 L 778.48 513.51 L 725.97 446.20 L 720.35 438.96 L 719.96 438.44 L 717.73 435.56 L 717.56 435.35 L 715.83 433.10 L 714.51 431.38 L 713.35 429.89 L 712.30 428.53 L 709.92 425.50 L 708.19 423.29 L 706.54 421.20 L 704.89 419.09 L 703.48 417.30 L 701.97 415.39 L 700.28 413.23 L 699.00 411.60 L 697.98 410.30 L 697.09 409.16 L 695.98 407.76 L 694.83 406.29 L 693.72 404.88 L 692.79 403.70 L 691.74 402.37 L 691.37 401.89 L 691.96 402.62 L 718.29 434.93 L 718.38 435.05 L 731.63 424.85 L 740.93 417.71 L 758.21 404.27 L 770.27 394.79 L 773.04 392.61 Z "/>
</svg>
