<svg xmlns="http://www.w3.org/2000/svg" viewBox="0 0 1155 1155" width="1155" height="1155">
<path class="zone" data-zone-id="11215770_030_01" d="M 940.69 757.39 L 939.89 761.62 L 935.18 782.60 L 933.04 805.03 L 942.44 823.21 L 946.65 842.51 L 952.42 894.91 L 954.32 916.79 L 950.77 933.75 L 950.07 957.34 L 949.98 975.47 L 946.72 992.43 L 939.15 1009.08 L 930.74 1022.85 L 923.77 1034.61 L 916.52 1045.22 L 793.83 1007.93 L 722.98 985.99 L 689.88 970.11 L 657.75 954.68 L 581.84 939.91 L 579.13 939.38 L 563.82 937.77 L 541.47 931.19 L 507.77 919.65 L 467.95 905.63 L 463.33 904.00 L 380.06 874.75 L 378.28 874.16 L 249.02 831.20 L 244.92 831.51 L 216.97 833.58 L 216.29 829.12 L 214.94 820.39 L 212.15 802.27 L 212.00 801.31 L 210.72 787.26 L 236.94 784.86 L 269.76 752.65 L 301.11 719.99 L 320.88 699.38 L 334.87 684.80 L 346.41 676.85 L 353.76 670.93 L 360.81 665.27 L 360.98 665.13 L 369.93 660.18 L 433.61 658.51 L 460.99 657.79 L 507.73 657.76 L 512.52 657.67 L 520.73 657.53 L 542.38 657.15 L 567.54 656.96 L 578.81 656.60 L 589.55 656.81 L 592.39 657.05 L 601.19 657.78 L 602.84 658.04 L 617.06 660.29 L 659.94 672.46 L 670.45 676.62 L 677.37 679.36 L 711.18 687.95 L 746.99 697.06 L 772.49 696.67 L 779.98 696.56 L 814.50 696.03 L 839.75 708.31 L 881.72 728.72 L 940.69 757.39 Z "/>
<path class="zone" data-zone-id="11215770_030_00" d="M 232.07 487.94 L 352.00 488.67 L 353.00 488.66 L 352.64 505.54 L 353.93 606.41 L 355.29 646.21 L 360.81 665.27 L 353.76 670.93 L 346.41 676.85 L 334.87 684.80 L 320.88 699.38 L 301.11 719.99 L 269.76 752.65 L 236.94 784.86 L 216.22 786.76 L 210.72 787.26 L 209.03 768.72 L 205.37 728.46 L 202.72 700.46 L 200.68 661.84 L 201.21 617.28 L 201.69 577.89 L 202.33 562.53 L 204.25 516.34 L 204.89 505.51 L 205.93 487.78 L 211.45 487.81 L 232.07 487.94 Z "/>
<path class="zone" data-zone-id="11215770_030_03" d="M 205.93 487.78 L 207.61 459.03 L 211.46 304.90 L 239.04 303.90 L 243.38 303.75 L 335.94 302.68 L 350.72 302.53 L 351.08 302.52 L 351.82 302.52 L 351.99 318.79 L 350.78 370.39 L 352.25 443.48 L 353.00 488.66 L 352.00 488.67 L 232.07 487.94 L 205.93 487.78 Z "/>
<path class="zone" data-zone-id="11215770_030_04" d="M 215.31 150.49 L 215.49 143.02 L 215.29 119.25 L 215.14 110.54 L 215.14 110.53 L 215.17 110.54 L 219.92 111.74 L 220.77 111.74 L 242.04 111.64 L 244.41 111.62 L 325.28 111.23 L 351.59 111.11 L 351.55 117.08 L 351.48 127.52 L 351.35 185.96 L 351.29 209.80 L 351.22 243.17 L 351.82 302.52 L 351.08 302.52 L 350.72 302.53 L 335.94 302.68 L 243.38 303.75 L 239.04 303.90 L 211.46 304.90 L 211.64 297.43 L 211.73 293.81 L 211.92 286.41 L 215.31 150.49 Z "/>
<path class="zone" data-zone-id="11215770_030_05" d="M 625.95 109.78 L 627.72 116.39 L 640.19 162.86 L 646.75 187.77 L 657.85 232.31 L 667.22 269.92 L 669.49 279.01 L 681.61 282.58 L 734.79 298.24 L 673.57 301.84 L 665.84 302.29 L 660.78 302.59 L 589.76 302.30 L 567.97 302.21 L 566.60 302.20 L 519.23 302.30 L 511.06 302.34 L 510.76 302.34 L 495.96 302.43 L 495.69 302.43 L 437.87 302.76 L 432.24 302.73 L 428.37 302.71 L 425.00 302.69 L 365.45 302.38 L 351.82 302.52 L 351.22 243.17 L 351.29 209.80 L 351.35 185.96 L 351.48 127.52 L 351.55 117.08 L 351.59 111.11 L 625.95 109.78 Z "/>
<path class="zone" data-zone-id="11215770_030_06" d="M 589.76 302.30 L 589.73 309.54 L 589.48 381.75 L 589.15 442.88 L 588.95 482.36 L 588.93 487.90 L 563.46 487.94 L 512.60 486.89 L 492.42 486.48 L 433.85 487.39 L 433.70 487.39 L 353.00 488.66 L 352.25 443.48 L 350.78 370.39 L 351.99 318.79 L 351.82 302.52 L 365.45 302.38 L 425.00 302.69 L 428.37 302.71 L 432.24 302.73 L 437.87 302.76 L 495.69 302.43 L 495.96 302.43 L 510.76 302.34 L 511.06 302.34 L 519.23 302.30 L 566.60 302.20 L 567.97 302.21 L 589.76 302.30 Z "/>
<path class="zone" data-zone-id="11215770_030_07" d="M 588.93 487.90 L 593.44 487.89 L 670.51 487.76 L 707.72 487.70 L 716.73 487.57 L 723.88 487.47 L 728.57 506.20 L 777.70 688.14 L 779.98 696.56 L 772.49 696.67 L 746.99 697.06 L 711.18 687.95 L 677.37 679.36 L 670.45 676.62 L 659.94 672.46 L 617.06 660.29 L 602.84 658.04 L 601.19 657.78 L 592.39 657.05 L 589.55 656.81 L 578.81 656.60 L 567.54 656.96 L 542.38 657.15 L 520.73 657.53 L 512.52 657.67 L 507.73 657.76 L 460.99 657.79 L 433.61 658.51 L 369.93 660.18 L 360.98 665.13 L 360.81 665.27 L 355.29 646.21 L 353.93 606.41 L 352.64 505.54 L 353.00 488.66 L 433.70 487.39 L 433.85 487.39 L 492.42 486.48 L 512.60 486.89 L 563.46 487.94 L 588.93 487.90 Z "/>
</svg>
