<svg xmlns="http://www.w3.org/2000/svg" viewBox="0 0 1155 1155" width="1155" height="1155">
<path class="zone" data-zone-id="11215780_011_01" d="M 1053.51 679.68 L 1040.02 693.23 L 1038.28 694.73 L 1035.83 696.84 L 1035.01 703.46 L 1020.57 717.32 L 1021.02 730.54 L 1020.55 742.18 L 1018.78 744.82 L 1008.61 760.08 L 1006.88 763.01 L 1002.03 783.58 L 1002.03 783.58 L 999.00 783.34 L 999.00 783.34 L 950.24 779.48 L 949.42 779.42 L 920.56 777.13 L 920.49 777.13 L 896.60 775.23 L 893.93 775.04 L 783.32 766.99 L 779.14 766.70 L 778.93 766.68 L 704.76 761.44 L 666.32 758.72 L 666.27 758.72 L 567.72 751.31 L 542.24 748.40 L 520.79 744.60 L 520.79 744.60 L 500.39 739.95 L 489.80 737.54 L 489.80 737.54 L 424.26 719.33 L 421.31 718.51 L 398.58 712.19 L 376.68 705.88 L 343.45 695.35 L 337.56 692.46 L 330.52 689.00 L 299.93 669.89 L 299.93 669.89 L 277.86 655.70 L 262.86 646.06 L 262.86 646.06 L 259.75 644.06 L 255.33 641.22 L 245.23 634.73 L 200.30 606.40 L 200.17 606.32 L 182.86 595.53 L 153.39 577.87 L 141.71 572.15 L 138.26 570.46 L 107.95 557.59 L 107.95 557.59 L 76.47 546.31 L 76.47 546.31 L 76.78 545.90 L 88.59 536.54 L 112.65 487.67 L 114.72 483.46 L 134.79 442.08 L 135.12 442.12 L 134.79 442.08 L 156.38 397.56 L 168.87 371.40 L 182.18 377.90 L 184.48 380.39 L 193.75 381.16 L 217.33 383.12 L 229.79 402.47 L 241.17 420.17 L 265.31 447.13 L 298.81 471.62 L 297.92 474.72 L 318.45 490.11 L 350.95 502.40 L 380.74 502.33 L 438.75 545.03 L 507.42 566.63 L 538.70 585.79 L 571.34 588.24 L 574.23 587.86 L 600.40 583.51 L 619.86 590.42 L 641.18 594.54 L 642.35 594.55 L 685.57 616.46 L 728.84 634.84 L 919.14 619.57 L 1063.06 607.80 L 1064.54 612.63 L 1067.95 616.03 L 1078.50 624.27 L 1077.38 627.82 L 1073.46 640.26 L 1073.20 640.65 L 1072.60 641.54 L 1072.84 641.75 L 1072.95 641.86 L 1072.53 643.21 L 1070.87 648.40 L 1075.35 654.62 L 1060.93 672.23 L 1057.89 675.28 L 1053.51 679.68 Z "/>
</svg>
