<svg xmlns="http://www.w3.org/2000/svg" viewBox="0 0 1155 1155" width="1155" height="1155">
<path class="zone" data-zone-id="11215830_020_01" d="M 842.95 105.78 L 842.96 105.87 L 853.51 146.26 L 887.57 146.40 L 892.61 146.42 L 992.48 146.82 L 714.18 794.49 L 674.65 832.54 L 664.97 841.94 L 632.08 873.93 L 588.19 918.25 L 583.00 923.48 L 576.44 930.18 L 569.71 936.93 L 549.02 957.80 L 515.34 991.65 L 507.38 999.60 L 503.30 1002.24 L 485.86 1013.61 L 467.92 1024.96 L 428.61 1049.24 L 162.54 613.53 L 162.52 613.50 L 162.50 613.46 L 162.51 613.45 L 270.62 556.38 L 410.50 469.57 L 543.95 374.63 L 579.38 345.14 L 646.54 289.24 L 842.93 105.80 L 842.95 105.78 Z "/>
</svg>
