<svg xmlns="http://www.w3.org/2000/svg" viewBox="0 0 1154 1155" width="1154" height="1155">
<path class="zone" data-zone-id="11215760_040_01" d="M 598.88 879.76 L 598.88 879.76 L 605.04 865.04 L 633.56 800.59 L 633.70 800.27 L 667.20 724.57 L 690.13 672.74 L 690.29 672.38 L 703.76 641.92 L 704.00 641.39 L 708.99 630.10 L 709.08 629.90 L 730.07 581.92 L 730.18 581.67 L 758.49 519.51 L 841.25 556.68 L 867.52 568.48 L 875.72 571.87 L 888.17 577.01 L 887.52 578.49 L 878.54 598.89 L 854.20 654.19 L 846.09 672.36 L 832.16 703.55 L 830.28 707.77 L 819.80 731.25 L 792.28 793.35 L 789.31 800.06 L 778.14 825.49 L 765.19 854.95 L 752.76 883.27 L 744.17 902.83 L 728.22 939.13 L 716.12 933.53 L 675.45 914.71 L 598.88 879.76 Z "/>
<path class="zone" data-zone-id="11215760_040_00" d="M 472.94 504.09 L 431.55 593.27 L 447.57 600.48 L 432.45 632.14 L 428.96 639.46 L 428.78 640.49 L 423.00 652.56 L 413.35 672.69 L 403.69 692.86 L 394.02 713.06 L 375.13 752.47 L 356.36 744.41 L 346.28 766.98 L 342.57 765.33 L 299.36 746.07 L 274.67 735.07 L 247.38 723.07 L 247.38 723.07 L 247.44 722.93 L 271.87 669.50 L 271.96 669.31 L 368.83 457.44 L 472.94 504.09 Z "/>
<path class="zone" data-zone-id="11215760_040_01" d="M 546.99 856.58 L 478.10 825.81 L 478.10 825.81 L 461.85 818.55 L 415.11 797.68 L 383.51 783.57 L 364.73 775.20 L 346.28 766.98 L 356.36 744.41 L 375.13 752.47 L 394.02 713.06 L 403.69 692.86 L 413.35 672.69 L 423.00 652.56 L 428.78 640.49 L 428.96 639.46 L 432.45 632.14 L 447.57 600.48 L 431.55 593.27 L 472.94 504.09 L 368.83 457.44 L 373.34 447.56 L 373.55 447.11 L 410.67 364.94 L 418.32 368.18 L 427.25 371.95 L 466.39 389.28 L 468.56 390.25 L 517.60 412.07 L 519.16 412.76 L 541.28 422.56 L 551.39 427.04 L 564.28 432.75 L 582.67 440.90 L 605.03 450.82 L 605.05 450.83 L 624.38 459.40 L 671.36 480.23 L 674.68 481.70 L 674.78 481.74 L 699.26 492.59 L 744.24 512.52 L 758.49 519.51 L 730.18 581.67 L 730.07 581.92 L 709.08 629.90 L 708.99 630.10 L 704.00 641.39 L 703.76 641.92 L 690.29 672.38 L 690.13 672.74 L 667.20 724.57 L 633.70 800.27 L 633.56 800.59 L 605.04 865.04 L 598.88 879.76 L 546.99 856.58 Z "/>
<path class="zone" data-zone-id="11215760_040_00" d="M 346.78 440.11 L 371.62 451.34 L 278.63 654.71 L 246.67 639.93 L 241.12 637.37 L 242.21 634.99 L 259.31 597.53 L 168.23 555.41 L 159.06 575.42 L 150.06 595.27 L 172.39 546.03 L 241.91 392.67 L 288.65 413.81 L 298.08 418.08 L 314.29 425.41 L 331.06 433.00 L 346.78 440.11 Z "/>
<path class="zone" data-zone-id="11215760_040_01" d="M 107.14 661.36 L 185.30 493.13 L 234.44 385.53 L 235.21 383.83 L 294.97 252.97 L 295.03 252.99 L 324.35 265.18 L 327.62 266.54 L 358.57 279.32 L 420.93 304.91 L 435.99 308.80 L 436.02 308.80 L 426.92 328.66 L 410.77 364.72 L 410.67 364.94 L 373.55 447.11 L 373.34 447.56 L 371.62 451.34 L 346.78 440.11 L 331.06 433.00 L 314.29 425.41 L 298.08 418.08 L 288.65 413.81 L 241.91 392.67 L 172.39 546.03 L 159.06 575.42 L 168.23 555.41 L 259.31 597.53 L 250.22 617.45 L 242.21 634.99 L 241.12 637.37 L 246.67 639.93 L 278.63 654.71 L 271.96 669.31 L 271.87 669.50 L 247.44 722.93 L 247.38 723.07 L 137.33 674.69 L 107.17 661.44 L 107.13 661.40 L 107.14 661.36 Z M 159.06 575.42 L 159.11 575.32 L 168.23 555.41 L 159.06 575.42 Z M 221.17 628.15 L 241.12 637.37 L 241.12 637.37 L 221.17 628.15 Z "/>
<path class="zone" data-zone-id="11215760_040_04" d="M 436.02 308.80 L 458.44 307.57 L 518.58 297.94 L 574.14 289.05 L 589.98 286.51 L 590.56 286.42 L 627.48 280.50 L 644.15 277.57 L 644.49 277.51 L 680.43 271.17 L 680.90 271.09 L 746.78 259.44 L 752.32 258.46 L 811.22 248.08 L 819.00 246.71 L 828.83 244.97 L 875.60 238.05 L 871.05 264.52 L 864.03 281.56 L 846.34 321.44 L 846.09 322.00 L 834.82 347.42 L 834.67 347.75 L 813.24 396.08 L 812.93 396.77 L 789.30 450.05 L 789.08 450.54 L 758.49 519.51 L 744.24 512.52 L 699.26 492.59 L 674.78 481.74 L 674.68 481.70 L 671.36 480.23 L 624.38 459.40 L 605.05 450.83 L 605.03 450.82 L 582.67 440.90 L 564.28 432.75 L 551.39 427.04 L 541.28 422.56 L 519.16 412.76 L 517.60 412.07 L 468.56 390.25 L 466.39 389.28 L 427.25 371.95 L 418.32 368.18 L 410.67 364.94 L 410.77 364.72 L 426.92 328.66 L 436.02 308.80 Z "/>
<path class="zone" data-zone-id="11215760_040_05" d="M 881.70 237.15 L 926.85 228.60 L 927.75 228.44 L 939.11 226.31 L 943.18 225.54 L 969.13 221.04 L 969.52 220.97 L 980.29 219.10 L 998.12 215.83 L 1029.01 217.52 L 1032.82 217.46 L 1032.96 217.46 L 1046.85 219.07 L 1042.19 229.60 L 999.56 324.98 L 995.98 333.00 L 961.72 409.92 L 949.78 437.05 L 941.68 455.45 L 919.11 506.73 L 888.17 577.01 L 875.72 571.87 L 867.52 568.48 L 841.25 556.68 L 758.49 519.51 L 789.08 450.54 L 789.30 450.05 L 812.93 396.77 L 813.24 396.08 L 834.67 347.75 L 834.82 347.42 L 846.09 322.00 L 846.34 321.44 L 864.03 281.56 L 871.05 264.52 L 875.60 238.05 L 881.70 237.15 Z "/>
</svg>
