<svg xmlns="http://www.w3.org/2000/svg" viewBox="0 0 1155 1155" width="1155" height="1155">
<path class="zone" data-zone-id="11215770_011_01" d="M 812.19 977.72 L 812.53 978.42 L 808.37 980.42 L 808.13 979.94 L 807.89 980.07 L 806.44 980.86 L 800.78 983.73 L 794.99 986.28 L 793.14 987.10 L 792.67 987.65 L 792.31 988.07 L 785.67 995.89 L 782.59 999.51 L 775.81 1007.49 L 775.27 1008.14 L 770.59 1013.64 L 764.28 1021.06 L 763.02 1022.55 L 761.16 1024.74 L 760.52 1025.49 L 756.09 1030.71 L 754.53 1031.55 L 752.02 1032.90 L 746.46 1035.90 L 745.16 1036.60 L 738.34 1040.27 L 731.50 1043.95 L 730.42 1044.53 L 724.61 1047.66 L 722.31 1048.90 L 717.84 1051.31 L 714.19 1053.28 L 706.08 1057.64 L 705.78 1057.81 L 705.35 1058.33 L 700.17 1064.69 L 699.34 1065.71 L 694.15 1072.10 L 685.67 1082.52 L 683.55 1084.68 L 683.26 1080.52 L 682.90 1075.20 L 682.78 1073.77 L 682.08 1063.71 L 681.95 1063.72 L 680.62 1047.68 L 682.79 1047.36 L 685.47 1045.63 L 689.93 1040.96 L 693.21 1037.56 L 697.12 1033.88 L 697.25 1033.76 L 699.59 1032.06 L 702.87 1030.02 L 706.51 1028.04 L 717.46 1022.39 L 718.17 1022.01 L 723.47 1019.17 L 727.94 1016.56 L 739.90 1009.66 L 743.38 1007.56 L 748.61 1003.68 L 748.93 1003.38 L 751.05 1001.37 L 753.67 998.57 L 756.20 995.32 L 757.60 993.10 L 759.88 988.53 L 763.83 980.36 L 765.19 976.76 L 765.21 976.69 L 765.69 974.43 L 765.89 972.14 L 765.91 971.94 L 766.71 965.87 L 767.06 962.78 L 767.15 962.16 L 763.52 951.64 L 758.14 936.04 L 751.39 914.88 L 748.93 911.03 L 747.81 909.27 L 753.82 900.51 L 757.36 895.53 L 759.11 893.07 L 759.99 892.21 L 762.71 891.39 L 774.87 889.08 L 783.12 887.52 L 791.12 886.01 L 805.75 883.33 L 807.03 883.10 L 815.43 881.61 L 822.28 880.41 L 826.10 879.73 L 828.35 881.03 L 830.76 882.42 L 832.57 883.46 L 834.28 882.39 L 835.39 881.72 L 837.65 880.38 L 847.14 874.94 L 847.53 876.02 L 851.15 885.88 L 854.54 895.14 L 859.21 907.85 L 861.62 914.44 L 857.86 919.47 L 852.88 926.11 L 847.96 932.67 L 846.33 934.84 L 841.87 937.07 L 835.08 940.45 L 827.95 944.01 L 821.08 947.44 L 811.95 952.00 L 808.85 953.54 L 823.80 971.41 L 823.65 971.68 L 812.52 977.55 L 812.19 977.72 Z "/>
<path class="zone" data-zone-id="11215770_011_02" d="M 798.40 863.52 L 791.73 849.39 L 786.13 837.52 L 785.18 836.03 L 784.23 834.45 L 783.27 833.48 L 782.95 833.15 L 785.77 830.05 L 792.38 821.11 L 803.54 805.58 L 804.39 804.40 L 809.00 798.09 L 814.65 790.35 L 813.71 775.43 L 812.96 762.78 L 812.32 754.69 L 810.82 730.44 L 810.05 717.59 L 809.25 703.81 L 808.23 687.21 L 808.09 684.79 L 807.97 682.52 L 807.84 682.52 L 794.94 683.40 L 792.35 683.19 L 791.40 683.12 L 785.30 680.08 L 784.32 681.18 L 782.24 684.54 L 780.30 687.68 L 772.09 700.92 L 768.76 706.31 L 763.95 714.10 L 754.98 729.03 L 745.51 744.78 L 740.74 751.64 L 740.41 752.12 L 738.20 754.86 L 731.32 753.69 L 728.06 753.14 L 726.11 752.80 L 712.53 751.26 L 703.73 750.20 L 696.55 749.38 L 684.73 748.04 L 683.20 747.67 L 679.83 746.03 L 676.32 744.02 L 668.25 739.40 L 660.90 735.26 L 657.22 733.57 L 661.61 724.52 L 662.49 725.13 L 663.51 725.87 L 672.64 732.52 L 675.20 734.37 L 680.75 738.37 L 692.49 746.78 L 728.09 751.35 L 734.27 741.70 L 739.27 733.88 L 743.42 725.93 L 747.20 718.69 L 751.03 711.35 L 753.71 706.21 L 756.39 701.07 L 759.66 694.79 L 763.06 688.27 L 765.66 683.29 L 767.16 680.40 L 769.49 675.94 L 771.04 672.97 L 771.98 671.16 L 773.72 667.82 L 776.39 662.69 L 780.52 655.01 L 782.01 652.24 L 783.31 649.82 L 784.31 647.95 L 786.13 644.57 L 786.71 643.43 L 786.76 643.39 L 788.22 640.79 L 788.53 640.25 L 791.09 635.71 L 794.77 629.17 L 797.91 623.58 L 798.38 622.76 L 798.88 621.87 L 805.86 621.09 L 813.10 620.28 L 814.30 620.14 L 815.70 619.99 L 816.53 619.89 L 820.38 619.46 L 821.05 619.39 L 826.19 618.76 L 833.89 617.81 L 837.56 617.40 L 838.67 617.27 L 840.39 617.08 L 841.65 616.94 L 851.16 615.87 L 852.08 624.27 L 853.23 634.87 L 853.85 640.53 L 854.62 647.62 L 855.39 654.63 L 856.16 661.70 L 856.92 668.71 L 857.87 677.38 L 858.13 679.77 L 858.34 681.68 L 859.19 689.46 L 859.55 692.80 L 860.25 699.16 L 856.54 715.43 L 852.20 733.99 L 851.69 736.15 L 848.62 746.05 L 832.64 813.29 L 829.55 826.28 L 842.11 861.02 L 847.14 874.94 L 837.65 880.38 L 835.39 881.72 L 834.28 882.39 L 832.57 883.46 L 830.76 882.42 L 828.35 881.03 L 826.10 879.73 L 822.28 880.41 L 815.43 881.61 L 807.03 883.10 L 806.64 881.24 L 806.41 880.18 L 805.26 877.62 L 802.55 872.36 L 799.35 865.68 L 798.42 863.55 L 798.40 863.52 Z "/>
<path class="zone" data-zone-id="11215770_011_03" d="M 574.26 694.41 L 570.63 692.90 L 560.40 688.64 L 552.17 685.18 L 538.65 679.78 L 527.05 675.14 L 514.78 670.24 L 513.03 669.45 L 509.13 667.68 L 500.18 663.89 L 488.61 658.49 L 471.83 649.95 L 465.95 646.85 L 464.71 646.20 L 457.64 642.85 L 445.96 637.31 L 427.97 629.03 L 416.59 623.87 L 402.66 617.56 L 400.55 616.94 L 397.77 616.14 L 397.46 614.28 L 394.46 596.01 L 394.23 594.54 L 393.17 587.71 L 393.10 587.25 L 393.01 586.64 L 392.24 581.56 L 392.04 580.25 L 390.40 569.31 L 390.36 569.06 L 389.89 565.92 L 388.81 558.65 L 387.97 553.06 L 387.83 552.13 L 387.52 550.11 L 387.24 548.24 L 385.84 539.07 L 385.13 534.42 L 383.75 525.97 L 382.89 520.77 L 382.22 516.70 L 381.92 514.56 L 381.46 511.28 L 380.43 504.85 L 380.12 502.80 L 365.18 404.44 L 364.55 400.29 L 364.75 400.26 L 379.52 398.21 L 377.86 360.21 L 376.92 356.50 L 375.81 352.11 L 370.57 266.12 L 370.10 258.26 L 369.50 240.23 L 369.43 231.11 L 363.31 221.02 L 360.52 216.28 L 357.30 207.30 L 352.34 196.25 L 351.98 195.45 L 332.72 169.06 L 323.37 154.53 L 327.61 135.79 L 329.08 129.28 L 330.55 122.78 L 332.62 113.64 L 348.50 114.42 L 353.15 90.50 L 339.05 87.36 L 339.20 86.72 L 335.10 85.33 L 293.38 70.31 L 317.45 78.77 L 318.89 79.27 L 331.28 83.64 L 341.77 87.23 L 348.72 89.27 L 353.49 89.78 L 354.33 89.94 L 377.95 94.54 L 387.95 99.34 L 398.24 104.28 L 420.29 111.11 L 458.46 122.71 L 459.24 121.56 L 474.30 126.08 L 489.88 130.66 L 494.10 131.91 L 493.43 133.32 L 491.39 132.75 L 487.85 133.39 L 487.26 133.17 L 480.16 132.97 L 476.76 133.97 L 476.24 134.13 L 475.41 137.60 L 472.17 138.93 L 463.76 134.37 L 453.46 133.29 L 444.51 196.61 L 444.72 232.08 L 447.55 234.32 L 448.97 253.13 L 440.83 259.43 L 431.06 262.24 L 399.67 274.19 L 395.40 280.33 L 393.22 283.47 L 379.86 285.19 L 378.05 293.49 L 379.06 335.40 L 379.13 350.20 L 380.60 354.85 L 380.88 355.72 L 381.67 358.21 L 382.21 358.20 L 384.47 358.14 L 384.87 358.11 L 388.82 357.74 L 392.63 357.38 L 391.69 347.05 L 389.81 326.25 L 419.68 327.90 L 447.83 329.46 L 449.73 331.92 L 450.51 333.90 L 452.20 341.35 L 451.73 351.89 L 485.25 348.78 L 485.25 358.40 L 454.44 375.23 L 449.60 395.16 L 455.60 428.28 L 459.35 448.99 L 462.92 474.85 L 468.29 513.70 L 483.26 519.74 L 493.05 523.92 L 522.00 532.62 L 565.30 544.59 L 569.26 547.49 L 576.32 637.58 L 577.17 648.46 L 596.14 669.11 L 609.93 684.13 L 620.58 696.83 L 622.14 697.88 L 629.69 702.98 L 637.19 708.04 L 644.24 712.79 L 652.43 718.32 L 659.98 723.41 L 661.61 724.52 L 657.22 733.57 L 654.54 732.33 L 648.51 729.26 L 638.88 724.34 L 621.08 715.26 L 604.94 707.00 L 601.59 705.23 L 594.15 701.29 L 592.77 700.54 L 583.05 695.29 L 581.17 694.22 L 581.06 694.18 L 578.11 692.92 L 574.65 693.99 L 574.26 694.41 Z "/>
</svg>
