<svg xmlns="http://www.w3.org/2000/svg" viewBox="0 0 1154 1155" width="1154" height="1155">
<path class="zone" data-zone-id="11215860_080_01" d="M 487.33 781.74 L 487.02 781.85 L 437.37 799.35 L 420.11 805.45 L 401.19 811.77 L 386.44 816.56 L 385.88 816.74 L 348.57 828.45 L 313.36 835.85 L 313.14 835.89 L 254.93 847.05 L 257.03 837.79 L 259.57 826.59 L 267.46 814.69 L 284.29 788.56 L 284.58 788.10 L 293.01 774.95 L 311.42 746.26 L 314.78 741.02 L 321.98 729.81 L 338.79 703.62 L 340.76 700.49 L 344.92 693.89 L 362.47 666.15 L 373.28 649.20 L 376.31 644.44 L 379.17 639.90 L 401.91 660.61 L 419.31 676.13 L 422.20 678.71 L 423.34 679.73 L 428.51 684.28 L 446.60 699.59 L 466.58 717.85 L 466.98 718.22 L 479.54 729.76 L 490.37 740.09 L 495.20 744.53 L 495.59 744.88 L 505.75 756.45 L 508.22 761.29 L 510.12 765.56 L 513.24 772.61 L 506.75 774.89 L 487.33 781.74 Z "/>
<path class="zone" data-zone-id="11215860_080_00" d="M 245.36 848.88 L 199.60 857.87 L 162.02 865.48 L 150.64 867.79 L 116.38 874.81 L 110.76 871.80 L 102.48 867.38 L 140.13 807.71 L 155.18 784.26 L 163.59 771.16 L 185.97 736.31 L 208.88 700.63 L 225.29 675.08 L 239.15 653.49 L 287.48 578.22 L 295.91 583.72 L 308.24 591.76 L 324.81 603.49 L 324.94 603.58 L 326.73 604.80 L 334.60 610.16 L 350.47 620.42 L 369.63 632.31 L 379.16 639.89 L 379.17 639.90 L 376.31 644.44 L 373.28 649.20 L 362.47 666.15 L 344.92 693.89 L 340.76 700.49 L 338.79 703.62 L 321.98 729.81 L 314.78 741.02 L 311.42 746.26 L 293.01 774.95 L 284.58 788.10 L 284.29 788.56 L 267.46 814.69 L 259.57 826.59 L 257.03 837.79 L 254.93 847.05 L 245.62 848.83 L 245.36 848.88 Z "/>
<path class="zone" data-zone-id="11215860_080_03" d="M 296.69 563.89 L 355.92 473.03 L 361.81 463.99 L 400.33 404.88 L 414.39 382.45 L 426.74 362.75 L 433.87 371.14 L 438.76 376.90 L 444.53 383.13 L 457.20 396.72 L 457.58 397.12 L 477.50 418.32 L 488.39 430.20 L 493.82 438.22 L 497.67 444.00 L 498.98 445.97 L 499.98 447.87 L 495.41 454.87 L 488.64 465.24 L 474.14 488.56 L 459.51 511.75 L 453.37 521.53 L 447.16 531.40 L 443.44 537.31 L 432.10 555.21 L 424.00 568.00 L 407.60 594.12 L 394.73 614.87 L 386.81 627.64 L 382.07 635.27 L 379.17 639.90 L 379.16 639.89 L 369.63 632.31 L 350.47 620.42 L 334.60 610.16 L 326.73 604.80 L 324.94 603.58 L 324.81 603.49 L 308.24 591.76 L 295.91 583.72 L 287.48 578.22 L 288.31 576.94 L 296.69 563.89 Z "/>
<path class="zone" data-zone-id="11215860_080_04" d="M 455.28 317.20 L 464.97 301.73 L 465.20 301.73 L 508.92 292.06 L 542.33 280.41 L 542.92 280.18 L 549.97 293.48 L 550.69 294.85 L 552.01 296.60 L 556.83 300.81 L 559.18 302.24 L 573.98 306.73 L 600.94 313.71 L 611.14 316.25 L 620.91 318.69 L 629.45 320.13 L 651.83 320.86 L 671.67 321.50 L 706.94 321.36 L 739.43 321.38 L 739.29 321.70 L 735.84 329.21 L 732.04 337.49 L 696.13 382.23 L 662.18 424.74 L 659.31 429.33 L 657.25 434.04 L 655.59 441.56 L 654.87 467.16 L 654.71 472.67 L 664.45 486.50 L 674.03 498.33 L 674.59 499.02 L 648.76 530.04 L 626.96 555.16 L 626.73 555.48 L 622.24 561.82 L 619.87 565.69 L 616.80 570.24 L 613.25 575.52 L 612.92 575.16 L 606.00 567.36 L 598.83 559.29 L 583.29 541.89 L 582.62 541.14 L 561.43 517.42 L 542.07 495.53 L 541.70 495.11 L 525.02 476.23 L 516.20 466.89 L 504.78 456.96 L 499.98 447.87 L 498.98 445.97 L 497.67 444.00 L 493.82 438.22 L 488.39 430.20 L 477.50 418.32 L 457.58 397.12 L 457.20 396.72 L 444.53 383.13 L 438.76 376.90 L 433.87 371.14 L 426.74 362.75 L 455.28 317.20 Z "/>
<path class="zone" data-zone-id="11215860_080_00" d="M 988.70 516.02 L 986.63 514.29 L 958.11 491.12 L 930.88 469.03 L 929.38 467.83 L 914.99 456.35 L 899.13 443.55 L 897.95 442.61 L 868.12 418.64 L 839.39 395.60 L 839.37 395.58 L 823.27 382.61 L 813.66 374.87 L 790.79 356.58 L 789.33 355.40 L 788.98 355.11 L 769.54 339.32 L 761.15 329.88 L 753.99 323.27 L 746.39 321.64 L 776.15 321.40 L 860.38 320.73 L 876.84 320.45 L 882.66 320.35 L 890.74 308.66 L 898.38 313.79 L 962.17 364.38 L 1031.14 419.63 L 1047.41 433.89 L 1050.74 436.81 L 1051.55 442.76 L 1050.79 449.06 L 1049.55 450.73 L 1017.18 494.33 L 1012.13 501.13 L 1005.87 508.65 L 1000.00 515.68 L 995.19 521.45 L 989.60 516.77 L 988.70 516.02 Z "/>
<path class="zone" data-zone-id="11215860_080_06" d="M 883.16 660.32 L 793.90 685.84 L 720.22 707.17 L 653.34 726.64 L 641.32 729.00 L 638.84 729.48 L 638.76 729.50 L 636.42 721.77 L 635.94 720.17 L 632.90 709.37 L 631.53 704.52 L 627.12 688.58 L 627.05 688.36 L 616.35 651.54 L 614.24 641.36 L 612.89 628.46 L 613.08 619.33 L 614.13 610.22 L 615.31 601.20 L 618.48 581.42 L 613.25 575.52 L 616.80 570.24 L 619.87 565.69 L 622.24 561.82 L 626.73 555.48 L 626.96 555.16 L 648.76 530.04 L 674.59 499.02 L 674.03 498.33 L 678.88 502.61 L 716.00 542.42 L 717.56 544.11 L 744.46 573.41 L 774.61 604.88 L 775.38 605.68 L 834.43 589.38 L 846.30 574.21 L 850.65 568.64 L 878.99 533.10 L 920.71 481.83 L 926.91 474.08 L 929.38 467.83 L 930.88 469.03 L 958.11 491.12 L 986.63 514.29 L 988.70 516.02 L 995.19 521.45 L 995.59 521.78 L 991.01 527.37 L 984.96 534.77 L 931.79 599.74 L 883.16 660.32 Z "/>
<path class="zone" data-zone-id="11215860_080_07" d="M 638.76 729.50 L 624.66 732.43 L 595.23 743.48 L 580.80 748.90 L 513.24 772.61 L 510.12 765.56 L 508.22 761.29 L 505.75 756.45 L 495.59 744.88 L 495.20 744.53 L 490.37 740.09 L 479.54 729.76 L 466.98 718.22 L 466.58 717.85 L 470.23 713.44 L 474.26 708.57 L 497.58 672.02 L 524.82 630.36 L 550.91 590.83 L 580.01 546.84 L 583.29 541.89 L 598.83 559.29 L 606.00 567.36 L 612.92 575.16 L 613.25 575.52 L 618.48 581.42 L 615.31 601.20 L 614.13 610.22 L 613.08 619.33 L 612.89 628.46 L 614.24 641.36 L 616.35 651.54 L 627.05 688.36 L 627.12 688.58 L 631.53 704.52 L 632.90 709.37 L 635.94 720.17 L 636.42 721.77 L 638.76 729.50 Z "/>
<path class="zone" data-zone-id="11215860_080_08" d="M 466.58 717.85 L 446.60 699.59 L 428.51 684.28 L 423.34 679.73 L 422.20 678.71 L 419.31 676.13 L 401.91 660.61 L 379.17 639.90 L 382.07 635.27 L 386.81 627.64 L 394.73 614.87 L 407.60 594.12 L 424.00 568.00 L 432.10 555.21 L 443.44 537.31 L 447.16 531.40 L 453.37 521.53 L 459.51 511.75 L 474.14 488.56 L 488.64 465.24 L 495.41 454.87 L 499.98 447.87 L 504.78 456.96 L 516.20 466.89 L 525.02 476.23 L 541.70 495.11 L 542.07 495.53 L 561.43 517.42 L 582.62 541.14 L 583.29 541.89 L 580.01 546.84 L 550.91 590.83 L 524.82 630.36 L 497.58 672.02 L 474.26 708.57 L 470.23 713.44 L 466.58 717.85 Z "/>
<path class="zone" data-zone-id="11215860_080_09" d="M 716.00 542.42 L 678.88 502.61 L 674.03 498.33 L 664.45 486.50 L 654.71 472.67 L 654.87 467.16 L 655.59 441.56 L 657.25 434.04 L 659.31 429.33 L 662.18 424.74 L 696.13 382.23 L 732.04 337.49 L 735.84 329.21 L 739.29 321.70 L 739.43 321.38 L 745.20 321.38 L 746.39 321.64 L 753.99 323.27 L 761.15 329.88 L 769.54 339.32 L 788.98 355.11 L 789.33 355.40 L 790.79 356.58 L 813.66 374.87 L 839.37 395.58 L 835.53 400.32 L 821.14 418.06 L 775.18 473.39 L 717.56 544.11 L 716.00 542.42 Z "/>
<path class="zone" data-zone-id="11215860_080_10" d="M 775.38 605.68 L 774.61 604.88 L 744.46 573.41 L 717.56 544.11 L 775.18 473.39 L 821.14 418.06 L 835.53 400.32 L 839.37 395.58 L 839.39 395.60 L 868.12 418.64 L 897.95 442.61 L 899.13 443.55 L 914.99 456.35 L 929.38 467.83 L 926.91 474.08 L 920.71 481.83 L 878.99 533.10 L 850.65 568.64 L 846.30 574.21 L 834.43 589.38 L 775.38 605.68 Z "/>
</svg>
