<svg xmlns="http://www.w3.org/2000/svg" viewBox="0 0 1155 1155" width="1155" height="1155">
<path class="zone" data-zone-id="11215860_031_00" d="M 268.03 778.68 L 290.35 780.64 L 314.21 782.74 L 318.42 783.30 L 342.66 785.43 L 371.37 787.96 L 382.48 800.66 L 379.93 831.38 L 379.93 831.43 L 376.40 874.03 L 363.62 872.91 L 351.18 871.82 L 348.89 898.01 L 287.82 892.92 L 274.02 891.49 L 258.62 890.39 L 244.71 874.10 L 251.71 792.38 L 268.03 778.68 Z "/>
<path class="zone" data-zone-id="11215860_031_01" d="M 684.78 679.50 L 684.20 685.31 L 684.03 686.70 L 683.87 688.03 L 683.73 689.28 L 683.61 690.57 L 683.50 691.87 L 683.41 693.15 L 683.38 693.71 L 683.37 693.81 L 683.36 693.91 L 683.33 694.48 L 683.26 695.76 L 683.21 697.06 L 683.17 698.36 L 683.15 699.66 L 683.13 700.97 L 683.14 702.23 L 683.14 702.24 L 683.15 703.55 L 683.19 704.86 L 683.23 706.16 L 683.29 707.46 L 683.36 708.76 L 683.42 709.65 L 683.49 710.49 L 683.50 710.57 L 683.51 710.67 L 683.56 711.29 L 683.70 712.87 L 683.87 714.33 L 684.07 715.85 L 684.30 717.36 L 684.50 718.62 L 684.53 718.77 L 684.83 720.39 L 685.13 721.88 L 685.46 723.38 L 685.82 724.87 L 686.20 726.37 L 686.21 726.39 L 686.61 727.83 L 687.05 729.32 L 687.28 730.07 L 687.45 730.64 L 689.19 736.61 L 689.38 737.36 L 691.39 746.00 L 692.93 755.18 L 693.91 764.42 L 694.34 773.47 L 694.34 774.16 L 694.06 785.65 L 693.16 794.99 L 691.72 804.16 L 689.71 813.32 L 686.37 824.68 L 683.10 833.48 L 679.31 841.99 L 675.00 850.30 L 668.84 860.40 L 663.39 868.06 L 657.56 875.29 L 651.62 881.79 L 651.28 882.17 L 650.18 883.30 L 649.09 884.45 L 648.01 885.59 L 646.94 886.74 L 645.87 887.91 L 644.81 889.08 L 643.77 890.25 L 642.73 891.43 L 641.69 892.62 L 641.06 893.35 L 641.05 893.36 L 641.04 893.37 L 640.66 893.81 L 639.64 895.02 L 638.63 896.22 L 637.63 897.43 L 636.63 898.66 L 635.63 899.89 L 634.66 901.11 L 633.69 902.35 L 632.71 903.60 L 631.69 904.94 L 631.46 905.25 L 630.64 906.33 L 629.70 907.59 L 628.77 908.86 L 627.85 910.14 L 626.93 911.42 L 626.02 912.71 L 625.12 914.00 L 624.22 915.31 L 623.83 915.90 L 623.72 916.04 L 595.07 958.33 L 581.08 965.15 L 575.05 968.08 L 564.37 965.26 L 563.18 964.95 L 551.64 962.19 L 516.39 954.70 L 502.46 956.71 L 497.39 955.67 L 500.36 939.96 L 502.81 940.48 L 516.93 938.44 L 502.95 940.46 L 497.61 939.37 L 500.36 939.96 L 497.39 955.67 L 494.89 955.16 L 482.89 953.48 L 455.58 949.64 L 446.15 947.86 L 436.94 947.12 L 418.99 941.50 L 417.68 941.37 L 413.70 939.97 L 406.24 939.43 L 387.64 938.31 L 377.31 937.57 L 360.39 918.15 L 361.34 904.57 L 362.93 881.22 L 367.15 830.32 L 363.62 872.91 L 376.40 874.03 L 379.93 831.38 L 382.48 800.66 L 371.37 787.96 L 342.66 785.43 L 318.42 783.30 L 314.21 782.74 L 290.35 780.64 L 287.93 780.43 L 288.41 690.04 L 311.41 664.35 L 325.95 648.11 L 334.03 639.14 L 351.41 619.86 L 362.60 607.52 L 365.57 604.24 L 367.30 604.93 L 371.16 606.46 L 381.26 608.85 L 397.92 611.27 L 398.32 611.33 L 425.35 615.27 L 461.03 620.48 L 464.46 620.49 L 470.91 620.14 L 474.26 619.95 L 474.29 619.96 L 498.07 624.05 L 518.21 627.62 L 524.37 628.71 L 542.41 631.78 L 558.14 634.59 L 558.94 634.73 L 566.36 636.52 L 600.95 645.38 L 613.56 648.87 L 613.72 648.92 L 633.20 654.28 L 648.79 658.65 L 648.90 658.69 L 676.62 667.25 L 677.33 667.44 L 684.78 679.50 Z "/>
<path class="zone" data-zone-id="11215860_031_02" d="M 543.53 971.19 L 523.04 965.61 L 496.61 959.82 L 497.39 955.67 L 502.46 956.71 L 516.39 954.70 L 551.64 962.19 L 563.18 964.95 L 564.37 965.26 L 575.05 968.08 L 581.08 965.15 L 595.07 958.33 L 623.72 916.04 L 623.83 915.90 L 624.22 915.31 L 625.12 914.00 L 626.02 912.71 L 626.93 911.42 L 627.85 910.14 L 628.77 908.86 L 629.70 907.59 L 630.64 906.33 L 631.46 905.25 L 631.69 904.94 L 632.71 903.60 L 633.69 902.35 L 634.66 901.11 L 635.63 899.89 L 636.63 898.66 L 637.63 897.43 L 638.63 896.22 L 639.64 895.02 L 640.66 893.81 L 641.04 893.37 L 641.05 893.36 L 641.06 893.35 L 641.69 892.62 L 642.73 891.43 L 643.77 890.25 L 644.81 889.08 L 645.87 887.91 L 646.94 886.74 L 648.01 885.59 L 649.09 884.45 L 650.18 883.30 L 651.28 882.17 L 651.62 881.79 L 657.56 875.29 L 663.39 868.06 L 668.84 860.40 L 675.00 850.30 L 679.31 841.99 L 683.10 833.48 L 686.37 824.68 L 689.71 813.32 L 691.72 804.16 L 693.16 794.99 L 694.06 785.65 L 694.34 774.16 L 694.34 773.47 L 693.91 764.42 L 692.93 755.18 L 691.39 746.00 L 689.38 737.36 L 689.19 736.61 L 687.45 730.64 L 687.28 730.07 L 687.05 729.32 L 686.61 727.83 L 686.21 726.39 L 686.20 726.37 L 685.82 724.87 L 685.46 723.38 L 685.13 721.88 L 684.83 720.39 L 684.53 718.77 L 684.50 718.62 L 684.30 717.36 L 684.07 715.85 L 683.87 714.33 L 683.70 712.87 L 683.56 711.29 L 683.51 710.67 L 683.50 710.57 L 683.49 710.49 L 683.42 709.65 L 683.36 708.76 L 683.29 707.46 L 683.23 706.16 L 683.19 704.86 L 683.15 703.55 L 683.14 702.24 L 683.14 702.23 L 683.13 700.97 L 683.15 699.66 L 683.17 698.36 L 683.21 697.06 L 683.26 695.76 L 683.33 694.48 L 683.36 693.91 L 683.37 693.81 L 683.38 693.71 L 683.41 693.15 L 683.50 691.87 L 683.61 690.57 L 683.73 689.28 L 683.87 688.03 L 684.03 686.70 L 684.20 685.31 L 684.78 679.50 L 677.33 667.44 L 680.72 668.34 L 681.99 668.68 L 685.75 669.68 L 697.44 672.78 L 696.33 675.13 L 694.82 678.87 L 693.98 681.28 L 692.74 685.43 L 691.72 689.84 L 748.42 706.10 L 752.39 714.58 L 756.15 722.60 L 757.26 726.26 L 762.00 741.79 L 762.59 743.74 L 780.93 754.66 L 780.60 755.44 L 785.10 758.18 L 784.01 761.20 L 782.23 764.04 L 779.80 768.06 L 771.84 781.23 L 761.76 797.72 L 757.32 802.87 L 752.64 808.23 L 749.32 811.77 L 744.35 816.95 L 770.67 824.44 L 761.80 849.36 L 741.50 842.88 L 745.42 847.55 L 748.22 850.97 L 749.92 856.05 L 734.75 860.45 L 722.23 864.15 L 713.61 861.27 L 706.67 855.94 L 700.68 859.18 L 690.24 863.87 L 677.97 896.83 L 663.81 936.07 L 661.73 941.83 L 660.47 941.76 L 654.95 956.81 L 649.00 979.79 L 639.63 1002.08 L 635.05 1000.23 L 597.34 988.29 L 577.12 982.82 L 575.33 982.17 L 574.88 982.01 L 544.42 971.44 L 543.53 971.19 Z "/>
<path class="zone" data-zone-id="11215860_031_03" d="M 496.61 959.82 L 493.15 959.06 L 490.70 958.83 L 440.78 954.08 L 408.76 951.78 L 357.81 948.13 L 277.59 942.37 L 256.56 940.87 L 248.03 940.29 L 248.03 940.29 L 211.72 937.83 L 211.72 937.83 L 92.55 929.75 L 92.55 929.75 L 94.83 906.46 L 113.10 885.98 L 131.34 865.74 L 137.76 858.61 L 138.34 857.97 L 148.02 847.11 L 159.92 833.76 L 204.57 783.69 L 207.27 780.67 L 219.26 767.28 L 233.48 751.39 L 248.06 735.10 L 257.82 724.21 L 275.19 704.80 L 288.41 690.04 L 287.93 780.43 L 268.03 778.68 L 251.71 792.38 L 244.71 874.10 L 258.62 890.39 L 274.02 891.49 L 287.82 892.92 L 348.89 898.01 L 351.18 871.82 L 363.62 872.91 L 362.93 881.22 L 361.34 904.57 L 360.39 918.15 L 377.31 937.57 L 387.64 938.31 L 406.24 939.43 L 413.70 939.97 L 417.68 941.37 L 418.99 941.50 L 436.94 947.12 L 446.15 947.86 L 455.58 949.64 L 482.89 953.48 L 494.89 955.16 L 497.39 955.67 L 496.61 959.82 Z "/>
<path class="zone" data-zone-id="11215860_031_02" d="M 474.29 619.96 L 476.32 617.74 L 493.88 598.55 L 502.72 588.89 L 534.17 554.53 L 542.14 545.81 L 554.65 531.96 L 587.39 495.72 L 591.06 491.66 L 626.03 523.28 L 642.29 537.98 L 690.78 581.50 L 691.20 581.87 L 707.67 596.71 L 718.51 606.37 L 722.32 609.76 L 730.15 616.76 L 728.73 619.27 L 727.63 620.57 L 720.27 632.97 L 718.79 635.47 L 712.69 648.28 L 711.03 650.57 L 701.78 664.65 L 699.48 668.78 L 698.22 671.14 L 697.44 672.78 L 685.75 669.68 L 681.99 668.68 L 680.72 668.34 L 676.62 667.25 L 648.90 658.69 L 648.79 658.65 L 633.20 654.28 L 613.72 648.92 L 613.56 648.87 L 600.95 645.38 L 566.36 636.52 L 558.94 634.73 L 558.14 634.59 L 542.41 631.78 L 524.37 628.71 L 518.21 627.62 L 498.07 624.05 L 474.29 619.96 Z "/>
<path class="zone" data-zone-id="11215860_031_00" d="M 807.72 425.55 L 812.54 421.33 L 825.23 413.65 L 825.95 413.18 L 831.78 408.45 L 834.71 406.53 L 869.36 388.09 L 882.39 381.11 L 895.14 373.81 L 907.00 365.20 L 918.52 355.17 L 931.92 338.19 L 943.29 325.16 L 948.48 313.57 L 965.39 274.54 L 1008.71 293.17 L 1026.40 301.08 L 1039.07 340.07 L 1031.17 350.80 L 1029.76 345.73 L 1017.73 363.96 L 1013.23 370.79 L 1010.58 386.92 L 1000.61 388.89 L 980.68 412.97 L 967.12 429.36 L 958.25 440.08 L 951.11 448.72 L 939.74 462.46 L 933.08 470.51 L 935.71 483.08 L 936.58 487.26 L 917.71 491.66 L 912.60 486.42 L 889.61 502.19 L 870.17 515.53 L 856.64 515.90 L 849.72 516.09 L 834.93 516.49 L 823.31 507.75 L 822.06 506.81 L 812.69 499.77 L 810.62 498.22 L 800.66 490.74 L 796.08 488.44 L 793.31 486.87 L 791.03 492.01 L 779.84 483.78 L 789.76 452.72 L 796.07 441.94 L 807.72 425.55 Z "/>
<path class="zone" data-zone-id="11215860_031_01" d="M 523.24 430.33 L 558.06 391.18 L 565.14 383.22 L 583.68 362.37 L 588.39 357.07 L 603.52 340.05 L 618.12 323.63 L 621.42 319.91 L 647.28 290.83 L 655.84 281.21 L 667.47 268.13 L 679.44 254.67 L 680.21 253.81 L 690.37 260.70 L 680.28 253.86 L 681.31 252.77 L 687.23 246.41 L 717.24 213.54 L 743.83 184.43 L 745.27 180.59 L 753.60 171.21 L 769.87 152.87 L 810.54 177.59 L 864.10 204.20 L 880.39 212.29 L 880.46 212.32 L 933.83 236.88 L 933.85 236.89 L 936.30 237.98 L 1028.32 279.02 L 1041.83 285.04 L 1042.09 285.16 L 1062.46 294.52 L 1047.82 328.19 L 1045.45 331.40 L 1039.07 340.07 L 1026.40 301.08 L 1008.71 293.17 L 965.39 274.54 L 948.48 313.57 L 943.29 325.16 L 931.92 338.19 L 918.52 355.17 L 907.00 365.20 L 895.14 373.81 L 882.39 381.11 L 869.36 388.09 L 834.71 406.53 L 831.78 408.45 L 825.95 413.18 L 825.23 413.65 L 812.54 421.33 L 807.72 425.55 L 796.07 441.94 L 789.76 452.72 L 779.84 483.78 L 791.03 492.01 L 786.01 503.37 L 781.42 501.95 L 772.66 524.71 L 767.92 542.30 L 762.65 555.43 L 761.92 557.45 L 756.76 571.70 L 750.31 589.54 L 744.81 596.48 L 733.71 610.47 L 730.15 616.76 L 722.32 609.76 L 718.51 606.37 L 707.67 596.71 L 691.20 581.87 L 690.78 581.50 L 642.29 537.98 L 626.03 523.28 L 591.06 491.66 L 591.02 491.62 L 522.53 431.10 L 523.24 430.33 Z "/>
</svg>
