<svg xmlns="http://www.w3.org/2000/svg" viewBox="0 0 1155 1155" width="1155" height="1155">
<path class="zone" data-zone-id="11215740_030_01" d="M 385.39 560.23 L 390.69 548.22 L 410.48 503.27 L 418.20 507.18 L 419.37 507.77 L 456.99 525.77 L 457.46 526.00 L 495.64 544.50 L 496.16 544.76 L 528.62 560.86 L 561.53 575.64 L 569.14 579.28 L 569.19 579.30 L 569.86 579.62 L 567.94 583.91 L 565.60 589.12 L 557.25 607.89 L 557.24 607.91 L 544.17 637.29 L 543.90 637.90 L 514.59 703.95 L 475.16 791.91 L 441.21 775.37 L 439.18 774.39 L 407.97 759.12 L 407.62 758.96 L 390.04 750.32 L 375.65 743.38 L 375.52 743.32 L 359.25 735.39 L 348.96 730.38 L 325.82 718.98 L 325.44 718.78 L 316.95 714.61 L 325.88 694.66 L 340.74 661.11 L 356.81 624.86 L 370.23 594.59 L 385.39 560.23 Z "/>
<path class="zone" data-zone-id="11215740_030_02" d="M 410.48 503.27 L 419.86 481.96 L 421.93 477.26 L 447.61 418.96 L 458.44 394.36 L 467.55 373.74 L 476.00 354.61 L 489.98 322.99 L 500.48 299.58 L 508.82 303.24 L 510.16 303.83 L 532.08 313.50 L 564.90 327.60 L 565.04 327.66 L 574.49 331.60 L 579.97 333.99 L 587.84 338.54 L 565.05 389.50 L 541.71 442.25 L 541.57 442.55 L 519.12 493.48 L 518.67 494.51 L 518.02 495.96 L 497.83 541.02 L 496.16 544.76 L 495.64 544.50 L 457.46 526.00 L 456.99 525.77 L 419.37 507.77 L 418.20 507.18 L 410.48 503.27 Z "/>
<path class="zone" data-zone-id="11215740_030_03" d="M 500.48 299.58 L 501.01 298.39 L 518.24 259.95 L 518.94 258.37 L 531.23 230.95 L 534.66 223.29 L 539.14 213.14 L 558.60 169.11 L 567.36 149.29 L 571.20 140.59 L 593.32 90.41 L 593.87 89.19 L 594.51 89.50 L 681.02 126.54 L 681.57 126.79 L 673.55 145.15 L 671.09 150.10 L 655.01 186.06 L 651.44 194.05 L 651.36 194.23 L 647.24 203.45 L 647.20 203.53 L 635.28 230.21 L 635.27 230.25 L 609.57 289.21 L 587.84 338.54 L 579.97 333.99 L 574.49 331.60 L 565.04 327.66 L 564.90 327.60 L 532.08 313.50 L 510.16 303.83 L 508.82 303.24 L 500.48 299.58 Z "/>
<path class="zone" data-zone-id="11215740_030_04" d="M 704.72 137.13 L 707.14 138.24 L 707.55 138.43 L 707.86 138.57 L 708.10 138.68 L 754.46 159.87 L 754.59 159.93 L 747.89 174.87 L 736.45 200.41 L 731.42 212.01 L 724.79 227.29 L 724.75 227.38 L 719.72 238.69 L 714.44 250.95 L 714.27 251.35 L 692.43 301.43 L 666.47 360.83 L 661.79 370.45 L 652.93 366.12 L 632.66 357.87 L 632.43 357.78 L 624.72 354.21 L 624.61 354.17 L 607.12 346.62 L 587.84 338.54 L 609.57 289.21 L 635.27 230.25 L 635.28 230.21 L 647.20 203.53 L 647.24 203.45 L 651.36 194.23 L 651.44 194.05 L 655.01 186.06 L 671.09 150.10 L 673.55 145.15 L 681.57 126.79 L 682.51 127.21 L 704.72 137.13 Z "/>
<path class="zone" data-zone-id="11215740_030_05" d="M 754.59 159.93 L 756.83 160.82 L 796.79 176.83 L 835.88 193.16 L 828.75 209.35 L 827.45 212.32 L 818.86 232.04 L 811.52 248.68 L 811.42 248.91 L 795.32 285.44 L 794.98 286.22 L 794.82 286.58 L 774.97 332.76 L 768.83 346.56 L 746.72 396.26 L 741.49 406.68 L 732.19 401.45 L 717.97 395.30 L 702.12 388.55 L 701.19 388.16 L 700.65 387.92 L 700.40 387.81 L 683.35 380.13 L 661.79 370.45 L 666.47 360.83 L 692.43 301.43 L 714.27 251.35 L 714.44 250.95 L 719.72 238.69 L 724.75 227.38 L 724.79 227.29 L 731.42 212.01 L 736.45 200.41 L 747.89 174.87 L 754.59 159.93 Z "/>
<path class="zone" data-zone-id="11215740_030_06" d="M 882.51 212.59 L 882.72 212.68 L 912.70 225.26 L 921.88 229.65 L 922.98 230.16 L 915.12 248.17 L 885.68 315.90 L 866.58 359.83 L 865.74 361.74 L 865.71 361.82 L 863.75 366.25 L 844.40 410.02 L 844.06 410.77 L 831.16 439.94 L 829.55 443.66 L 829.55 443.66 L 828.93 445.08 L 828.93 445.08 L 828.93 445.08 L 813.49 437.98 L 801.49 432.46 L 786.77 426.06 L 786.48 425.94 L 786.07 425.76 L 741.49 406.68 L 746.72 396.26 L 768.83 346.56 L 774.97 332.76 L 794.82 286.58 L 794.98 286.22 L 795.32 285.44 L 811.42 248.91 L 811.52 248.68 L 818.86 232.04 L 827.45 212.32 L 828.75 209.35 L 835.88 193.16 L 836.09 193.25 L 860.52 203.33 L 882.51 212.59 Z "/>
<path class="zone" data-zone-id="11215740_030_00" d="M 646.06 858.17 L 639.59 873.41 L 639.59 873.41 L 639.38 873.91 L 639.38 873.91 L 622.96 865.73 L 594.61 851.59 L 559.83 834.24 L 556.35 832.51 L 558.08 828.98 L 556.25 832.49 L 556.19 832.45 L 558.09 828.40 L 559.05 826.36 L 580.40 783.49 L 581.70 780.88 L 583.36 777.52 L 591.98 760.14 L 613.07 717.58 L 617.01 706.57 L 629.73 670.94 L 632.90 662.06 L 633.09 661.52 L 634.70 657.03 L 639.69 643.13 L 640.25 641.57 L 649.06 617.59 L 649.15 617.38 L 658.84 623.13 L 674.29 630.15 L 687.92 636.80 L 691.64 638.76 L 700.59 643.48 L 704.46 645.52 L 718.34 651.94 L 734.25 659.30 L 733.70 660.50 L 732.05 664.13 L 692.76 754.05 L 673.38 798.00 L 665.26 816.44 L 646.06 858.17 Z M 683.74 680.35 L 683.74 680.35 L 683.74 680.35 L 683.74 680.35 L 689.63 667.28 L 683.74 680.35 Z "/>
<path class="zone" data-zone-id="11215740_030_08" d="M 594.22 852.31 L 622.72 865.65 L 639.36 873.95 L 639.36 873.95 L 639.06 874.67 L 639.06 874.67 L 628.04 900.63 L 604.45 952.56 L 588.16 944.58 L 539.52 920.76 L 530.47 916.33 L 519.43 910.92 L 496.27 899.58 L 480.92 892.06 L 439.85 871.95 L 440.00 871.62 L 460.63 824.66 L 475.16 791.91 L 521.31 815.04 L 531.29 820.03 L 547.95 828.35 L 555.90 832.31 L 556.19 832.45 L 556.25 832.49 L 555.83 833.29 L 594.22 852.31 Z "/>
<path class="zone" data-zone-id="11215740_030_09" d="M 554.55 1065.79 L 551.93 1064.48 L 543.66 1060.36 L 542.76 1059.91 L 459.68 1018.52 L 459.68 1018.52 L 459.65 1018.50 L 459.61 1018.48 L 389.98 983.79 L 389.98 983.79 L 389.98 983.79 L 404.65 951.07 L 418.97 919.13 L 439.85 871.95 L 480.92 892.06 L 496.27 899.58 L 519.43 910.92 L 530.47 916.33 L 539.52 920.76 L 588.16 944.58 L 604.45 952.56 L 604.11 953.31 L 594.73 973.96 L 568.57 1032.46 L 554.55 1065.79 L 554.55 1065.79 Z "/>
<path class="zone" data-zone-id="11215740_030_10" d="M 232.02 905.59 L 232.02 905.59 L 240.23 886.92 L 264.58 832.13 L 265.92 829.12 L 265.92 829.12 L 281.70 793.61 L 289.49 797.71 L 337.02 821.10 L 348.56 826.85 L 366.69 835.76 L 366.81 835.82 L 370.27 837.56 L 389.02 846.97 L 396.11 850.54 L 407.62 856.17 L 439.82 871.94 L 439.85 871.95 L 418.97 919.13 L 404.65 951.07 L 389.98 983.79 L 389.98 983.79 L 388.92 983.26 L 349.53 963.63 L 232.02 905.59 Z "/>
<path class="zone" data-zone-id="11215740_030_11" d="M 353.52 829.21 L 345.36 825.19 L 336.25 820.71 L 317.23 811.35 L 289.50 797.68 L 281.70 793.61 L 281.77 793.45 L 284.91 786.39 L 310.20 729.70 L 316.95 714.61 L 325.44 718.78 L 325.82 718.98 L 348.96 730.38 L 359.25 735.39 L 375.52 743.32 L 375.65 743.38 L 390.04 750.32 L 407.62 758.96 L 407.97 759.12 L 439.18 774.39 L 441.21 775.37 L 475.16 791.91 L 460.63 824.66 L 440.00 871.62 L 439.85 871.95 L 439.82 871.94 L 407.62 856.17 L 396.11 850.54 L 389.02 846.97 L 370.27 837.56 L 366.81 835.82 L 366.69 835.76 L 348.56 826.85 L 337.02 821.10 L 353.52 829.21 Z "/>
<path class="zone" data-zone-id="11215740_030_12" d="M 718.34 651.94 L 704.46 645.52 L 691.64 638.76 L 687.92 636.80 L 674.29 630.15 L 658.84 623.13 L 649.15 617.38 L 664.55 581.88 L 675.84 556.01 L 675.91 555.85 L 683.07 539.54 L 683.21 539.22 L 697.77 506.09 L 715.30 466.30 L 715.43 466.00 L 728.16 436.95 L 736.90 417.22 L 741.49 406.68 L 786.07 425.76 L 786.48 425.94 L 786.77 426.06 L 801.49 432.46 L 813.49 437.98 L 828.93 445.08 L 828.93 445.08 L 813.21 481.31 L 773.95 570.33 L 770.32 578.60 L 752.04 620.25 L 734.25 659.30 L 718.34 651.94 Z "/>
<path class="zone" data-zone-id="11215740_030_00" d="M 547.95 828.35 L 531.29 820.03 L 521.31 815.04 L 515.55 812.16 L 475.16 791.91 L 496.50 744.30 L 514.59 703.95 L 543.90 637.90 L 544.17 637.29 L 557.24 607.91 L 557.25 607.89 L 565.60 589.12 L 567.94 583.91 L 569.86 579.62 L 595.50 591.76 L 623.24 605.25 L 624.45 605.81 L 635.32 610.81 L 648.78 617.16 L 649.15 617.38 L 649.06 617.59 L 640.25 641.57 L 633.09 661.52 L 632.90 662.06 L 613.07 717.58 L 591.98 760.14 L 583.36 777.52 L 581.70 780.88 L 580.40 783.49 L 559.05 826.36 L 558.09 828.40 L 556.19 832.45 L 555.90 832.31 L 547.95 828.35 Z "/>
<path class="zone" data-zone-id="11215740_030_14" d="M 649.15 617.38 L 648.78 617.16 L 635.32 610.81 L 624.45 605.81 L 623.24 605.25 L 595.50 591.76 L 569.86 579.62 L 569.19 579.30 L 569.14 579.28 L 570.93 575.25 L 591.22 529.67 L 615.73 474.11 L 615.98 473.55 L 623.48 456.58 L 627.04 448.51 L 640.29 418.63 L 649.74 397.24 L 661.79 370.45 L 683.35 380.13 L 700.40 387.81 L 700.65 387.92 L 701.19 388.16 L 702.12 388.55 L 717.97 395.30 L 732.19 401.45 L 741.49 406.68 L 736.90 417.22 L 728.16 436.95 L 715.43 466.00 L 715.30 466.30 L 697.77 506.09 L 683.21 539.22 L 683.07 539.54 L 675.91 555.85 L 675.84 556.01 L 664.55 581.88 L 649.15 617.38 Z "/>
<path class="zone" data-zone-id="11215740_030_15" d="M 569.14 579.28 L 561.53 575.64 L 528.62 560.86 L 496.16 544.76 L 497.83 541.02 L 518.02 495.96 L 518.67 494.51 L 519.12 493.48 L 541.57 442.55 L 541.71 442.25 L 565.05 389.50 L 587.84 338.54 L 607.12 346.62 L 624.61 354.17 L 624.72 354.21 L 632.43 357.78 L 632.66 357.87 L 652.93 366.12 L 661.79 370.45 L 649.74 397.24 L 640.29 418.63 L 627.04 448.51 L 623.48 456.58 L 615.98 473.55 L 615.73 474.11 L 591.22 529.67 L 570.93 575.25 L 569.14 579.28 Z "/>
</svg>
