<svg xmlns="http://www.w3.org/2000/svg" viewBox="0 0 1155 1155" width="1155" height="1155">
<path class="zone" data-zone-id="11215810_111_00" d="M 925.44 800.84 L 891.69 807.72 L 889.74 777.08 L 881.06 731.10 L 885.13 703.42 L 879.48 680.37 L 882.15 662.11 L 865.61 614.66 L 853.31 599.16 L 862.34 567.86 L 862.34 567.86 L 864.21 561.37 L 874.39 561.51 L 878.24 564.58 L 879.77 568.09 L 880.66 570.15 L 877.48 586.09 L 897.61 601.84 L 913.01 625.16 L 925.29 635.99 L 941.10 669.64 L 962.92 694.84 L 966.19 708.84 L 982.27 743.91 L 1000.18 758.33 L 1014.86 775.08 L 1013.31 782.95 L 972.50 791.26 L 925.44 800.84 Z "/>
<path class="zone" data-zone-id="11215810_111_01" d="M 486.03 737.86 L 473.97 705.19 L 473.81 704.76 L 464.18 667.27 L 449.77 615.47 L 441.28 587.93 L 432.93 567.19 L 427.35 553.95 L 390.90 485.51 L 388.57 481.62 L 373.07 458.99 L 336.33 413.36 L 332.39 408.75 L 328.86 404.50 L 326.54 402.43 L 322.63 400.50 L 253.62 377.61 L 249.82 377.24 L 246.87 377.49 L 243.79 378.81 L 233.74 388.60 L 227.99 394.80 L 208.71 417.16 L 206.96 418.88 L 200.09 425.26 L 198.40 426.64 L 196.36 427.73 L 194.35 427.47 L 191.66 425.52 L 186.10 420.70 L 176.53 412.05 L 174.20 409.49 L 169.72 404.22 L 164.87 398.52 L 162.93 395.85 L 161.82 393.91 L 159.71 389.29 L 158.32 386.12 L 150.22 367.59 L 138.01 339.65 L 140.37 342.96 L 142.31 331.46 L 189.01 289.64 L 237.22 249.80 L 265.31 241.30 L 319.22 226.79 L 356.70 208.23 L 478.24 170.71 L 561.89 151.73 L 597.07 135.61 L 629.43 126.96 L 652.63 120.73 L 681.79 112.95 L 759.39 104.42 L 826.64 106.06 L 833.39 106.59 L 833.62 123.89 L 833.69 129.68 L 833.97 150.53 L 835.39 164.46 L 814.39 271.58 L 875.45 392.11 L 873.38 547.23 L 870.69 547.23 L 878.24 564.58 L 874.39 561.51 L 864.21 561.37 L 866.09 554.88 L 862.34 567.86 L 862.34 567.86 L 853.31 599.16 L 865.61 614.66 L 882.15 662.11 L 879.48 680.37 L 885.13 703.42 L 881.06 731.10 L 889.74 777.08 L 891.69 807.72 L 925.44 800.84 L 972.50 791.26 L 1013.31 782.95 L 1005.30 823.54 L 1003.45 832.87 L 992.90 840.48 L 991.56 845.68 L 983.96 847.00 L 947.73 853.27 L 934.11 852.58 L 906.81 848.03 L 897.84 844.73 L 896.57 844.22 L 855.70 827.75 L 835.59 822.16 L 819.23 822.83 L 808.37 824.81 L 811.89 839.30 L 808.05 851.34 L 816.21 870.74 L 819.49 875.32 L 832.15 892.99 L 835.12 897.13 L 836.61 904.45 L 814.56 910.04 L 776.14 931.28 L 766.81 990.93 L 777.44 1046.20 L 756.24 1050.57 L 715.35 1004.16 L 660.86 981.40 L 664.78 959.88 L 652.33 952.20 L 614.71 915.66 L 582.75 944.96 L 550.92 910.22 L 540.82 915.58 L 527.61 922.59 L 491.49 943.34 L 457.53 966.88 L 444.56 977.92 L 435.15 984.12 L 430.86 977.55 L 426.91 980.03 L 424.47 978.00 L 441.68 965.58 L 474.98 941.37 L 483.47 935.48 L 497.71 926.46 L 517.37 914.00 L 524.01 909.34 L 536.43 900.81 L 533.66 891.49 L 528.17 873.04 L 521.45 847.20 L 515.92 823.94 L 499.22 775.85 L 486.23 738.43 L 486.03 737.86 Z "/>
</svg>
