<svg xmlns="http://www.w3.org/2000/svg" viewBox="0 0 1154 1155" width="1154" height="1155">
<path class="zone" data-zone-id="11215810_070_01" d="M 349.46 678.64 L 95.85 589.99 L 106.38 575.60 L 115.10 563.68 L 121.12 555.38 L 124.22 551.07 L 128.06 545.75 L 167.33 491.33 L 183.24 469.47 L 199.02 447.78 L 218.52 420.19 L 234.91 398.74 L 239.69 392.14 L 243.38 387.19 L 296.91 315.44 L 331.10 309.39 L 356.41 304.92 L 371.66 302.26 L 373.16 302.00 L 388.20 297.78 L 416.99 292.52 L 426.08 290.63 L 431.42 289.75 L 439.39 288.43 L 445.08 287.48 L 455.96 287.19 L 464.95 286.94 L 478.23 287.01 L 485.85 287.22 L 497.60 288.13 L 510.43 289.12 L 527.10 291.52 L 542.25 294.43 L 559.08 298.44 L 574.10 302.63 L 594.82 309.10 L 601.26 311.23 L 614.73 315.70 L 633.90 322.26 L 661.50 332.08 L 681.84 339.62 L 700.23 346.44 L 700.99 347.29 L 701.52 348.86 L 704.69 359.15 L 705.59 360.06 L 708.61 361.58 L 747.10 377.58 L 770.46 387.29 L 775.54 389.52 L 789.70 395.18 L 803.85 400.83 L 811.52 403.89 L 751.79 500.84 L 631.11 669.45 L 553.80 751.15 L 553.77 751.19 L 349.46 678.64 Z "/>
<path class="zone" data-zone-id="11215810_070_02" d="M 1058.12 502.34 L 1004.07 606.61 L 962.30 696.82 L 882.92 868.10 L 882.91 868.10 L 882.91 868.10 L 882.91 868.11 L 880.62 867.28 L 873.82 864.83 L 553.83 751.21 L 553.77 751.19 L 553.80 751.15 L 631.11 669.45 L 751.79 500.84 L 811.52 403.89 L 1058.02 502.30 L 1058.12 502.34 Z "/>
</svg>
