<svg xmlns="http://www.w3.org/2000/svg" viewBox="0 0 1155 1155" width="1155" height="1155">
<path class="zone" data-zone-id="11215750_010_01" d="M 277.70 513.14 L 274.85 511.68 L 232.10 490.66 L 225.76 487.54 L 229.69 478.83 L 255.20 421.98 L 258.39 414.89 L 259.69 411.83 L 268.93 390.09 L 272.19 382.69 L 277.12 371.49 L 286.11 351.07 L 290.26 341.62 L 298.78 322.28 L 316.02 284.66 L 317.58 281.24 L 327.11 285.50 L 362.10 300.65 L 375.03 306.25 L 384.57 310.52 L 384.91 310.67 L 381.63 318.44 L 375.11 333.65 L 361.31 365.16 L 349.31 392.53 L 337.05 421.09 L 328.05 441.37 L 322.76 452.65 L 315.38 468.40 L 297.50 505.89 L 292.93 515.83 L 291.12 519.72 L 290.77 520.48 L 290.11 520.15 L 289.69 519.90 L 282.90 515.80 L 277.70 513.14 Z "/>
<path class="zone" data-zone-id="11215750_010_00" d="M 353.65 200.21 L 358.54 188.99 L 376.78 147.13 L 385.69 126.66 L 393.57 108.98 L 402.33 89.35 L 403.62 86.42 L 403.90 85.79 L 410.05 88.64 L 441.07 103.01 L 450.54 107.67 L 450.66 107.73 L 462.35 113.49 L 478.80 120.88 L 479.34 121.12 L 477.17 125.67 L 463.93 153.45 L 456.31 166.68 L 454.51 169.81 L 433.29 205.58 L 429.18 212.78 L 425.69 218.92 L 425.34 219.59 L 421.75 226.69 L 420.51 229.45 L 414.81 242.23 L 406.63 260.68 L 404.85 264.67 L 399.89 275.85 L 396.00 284.86 L 388.49 302.22 L 384.91 310.67 L 384.57 310.52 L 376.82 307.05 L 375.03 306.25 L 362.10 300.65 L 332.64 287.90 L 327.11 285.50 L 317.58 281.24 L 327.92 258.66 L 339.94 231.36 L 353.56 200.43 L 353.65 200.21 Z "/>
<path class="zone" data-zone-id="11215750_010_03" d="M 479.34 121.12 L 525.55 142.16 L 543.69 150.45 L 544.11 150.65 L 543.84 151.25 L 532.70 175.56 L 521.97 199.52 L 520.65 202.47 L 519.15 205.83 L 507.71 229.50 L 506.60 231.66 L 505.91 233.00 L 505.30 234.21 L 502.65 238.48 L 491.49 256.56 L 490.02 258.91 L 483.53 269.24 L 480.78 273.62 L 477.16 270.08 L 451.97 245.46 L 446.93 240.53 L 428.48 222.63 L 425.34 219.59 L 425.69 218.92 L 429.18 212.78 L 433.29 205.58 L 454.51 169.81 L 456.31 166.68 L 463.93 153.45 L 477.17 125.67 L 479.34 121.12 Z "/>
<path class="zone" data-zone-id="11215750_010_04" d="M 611.92 182.28 L 636.49 189.83 L 641.65 191.88 L 641.82 191.95 L 657.96 198.34 L 660.40 199.31 L 672.78 204.98 L 674.60 205.82 L 692.32 213.95 L 695.83 215.52 L 738.90 234.81 L 674.62 206.61 L 641.46 192.06 L 638.84 190.91 L 605.36 181.32 L 638.84 190.92 L 641.46 192.06 L 637.35 195.82 L 627.01 205.29 L 622.80 208.91 L 612.59 217.66 L 608.83 221.77 L 606.20 226.39 L 600.86 238.75 L 599.49 242.01 L 596.58 248.93 L 593.08 257.26 L 585.22 274.58 L 583.82 277.66 L 572.96 302.24 L 560.88 328.73 L 557.78 335.58 L 553.42 345.22 L 550.51 342.51 L 537.74 330.62 L 513.33 306.23 L 502.61 295.56 L 495.36 288.34 L 480.67 273.80 L 480.78 273.62 L 483.53 269.24 L 490.02 258.91 L 491.49 256.56 L 502.65 238.48 L 505.30 234.21 L 505.91 233.00 L 506.60 231.66 L 507.71 229.50 L 519.15 205.83 L 520.65 202.47 L 521.97 199.52 L 532.70 175.56 L 543.84 151.25 L 544.11 150.65 L 607.54 180.46 L 611.92 182.28 Z "/>
<path class="zone" data-zone-id="11215750_010_05" d="M 641.46 192.06 L 674.62 206.61 L 674.74 211.20 L 674.92 218.65 L 676.54 231.55 L 676.64 232.38 L 680.95 267.29 L 681.86 274.19 L 682.83 281.53 L 684.28 292.54 L 690.06 337.37 L 695.42 380.33 L 700.22 417.88 L 705.64 459.86 L 706.66 467.85 L 706.42 467.88 L 685.87 470.58 L 665.67 473.25 L 665.33 473.29 L 646.05 475.73 L 626.78 478.17 L 620.15 427.71 L 620.11 427.39 L 608.67 338.22 L 599.23 262.19 L 597.86 255.33 L 596.58 248.93 L 599.49 242.01 L 600.86 238.75 L 606.20 226.39 L 608.83 221.77 L 612.59 217.66 L 622.80 208.91 L 627.01 205.29 L 637.35 195.82 L 641.46 192.06 Z "/>
<path class="zone" data-zone-id="11215750_010_06" d="M 744.88 237.49 L 745.35 237.70 L 752.44 292.01 L 774.21 458.80 L 774.52 461.14 L 774.14 458.81 L 773.43 458.91 L 756.24 461.25 L 740.18 463.43 L 739.43 463.53 L 739.00 463.59 L 734.44 464.25 L 722.71 465.73 L 706.66 467.85 L 705.64 459.86 L 700.22 417.88 L 695.42 380.33 L 690.06 337.37 L 684.28 292.54 L 682.83 281.53 L 681.86 274.19 L 680.95 267.29 L 676.64 232.38 L 676.54 231.55 L 674.92 218.65 L 674.74 211.20 L 674.62 206.61 L 738.91 234.82 L 744.88 237.49 Z "/>
<path class="zone" data-zone-id="11215750_010_07" d="M 767.85 674.14 L 734.11 678.41 L 732.60 668.96 L 729.37 642.52 L 727.56 628.52 L 726.32 619.01 L 722.90 593.66 L 722.84 593.20 L 719.55 567.46 L 715.58 537.02 L 711.74 506.83 L 708.02 478.42 L 706.66 467.85 L 722.71 465.73 L 734.44 464.25 L 739.00 463.59 L 739.43 463.53 L 740.18 463.43 L 756.24 461.25 L 773.43 458.91 L 774.14 458.81 L 774.52 461.14 L 774.75 462.95 L 775.93 471.94 L 801.76 669.85 L 801.66 669.86 L 767.85 674.14 Z "/>
<path class="zone" data-zone-id="11215750_010_08" d="M 822.39 827.84 L 806.04 702.60 L 807.80 715.77 L 807.84 716.05 L 815.27 771.63 L 818.20 793.54 L 822.90 828.74 L 805.49 862.37 L 782.76 851.06 L 767.55 843.48 L 751.40 835.42 L 737.80 828.63 L 740.12 823.91 L 742.54 819.09 L 750.11 804.02 L 750.47 801.43 L 750.64 800.21 L 746.48 770.21 L 743.00 743.90 L 740.01 721.27 L 736.71 696.29 L 734.75 682.44 L 734.11 678.41 L 767.85 674.14 L 801.66 669.86 L 801.76 669.85 L 806.03 702.54 L 822.39 827.84 Z "/>
<path class="zone" data-zone-id="11215750_010_09" d="M 806.04 702.60 L 801.76 669.85 L 832.14 666.00 L 877.01 660.04 L 894.32 657.76 L 894.37 658.10 L 896.05 670.68 L 901.85 714.81 L 907.49 757.79 L 909.43 772.49 L 921.50 864.34 L 921.54 864.64 L 921.69 865.76 L 927.57 910.54 L 928.05 914.22 L 911.51 913.72 L 909.68 913.67 L 894.79 906.33 L 850.55 884.60 L 847.37 883.03 L 833.54 876.24 L 805.49 862.37 L 822.90 828.74 L 818.20 793.54 L 815.27 771.63 L 807.84 716.05 L 807.80 715.77 L 806.04 702.60 Z "/>
<path class="zone" data-zone-id="11215750_010_10" d="M 774.76 462.99 L 774.52 461.16 L 774.21 458.80 L 782.08 457.72 L 815.67 453.43 L 816.16 453.36 L 824.62 452.28 L 825.87 452.12 L 849.64 449.10 L 866.25 446.98 L 868.98 467.73 L 875.40 515.86 L 875.40 515.87 L 889.62 622.49 L 889.91 624.66 L 894.32 657.75 L 894.32 657.76 L 877.01 660.04 L 832.14 666.00 L 801.76 669.85 L 775.91 471.80 L 774.76 462.99 Z "/>
<path class="zone" data-zone-id="11215750_010_11" d="M 752.44 291.97 L 746.06 243.09 L 745.35 237.70 L 745.58 237.81 L 785.70 255.79 L 827.28 273.69 L 843.64 272.58 L 844.76 281.32 L 848.77 312.59 L 848.81 312.89 L 851.59 334.55 L 851.60 334.62 L 851.63 334.84 L 853.18 346.97 L 853.20 347.14 L 853.44 349.04 L 854.93 360.72 L 856.28 371.26 L 858.58 388.73 L 866.24 446.95 L 866.25 446.98 L 849.64 449.10 L 825.87 452.12 L 824.62 452.28 L 816.16 453.36 L 815.67 453.43 L 782.08 457.72 L 774.21 458.80 L 752.44 291.97 Z "/>
<path class="zone" data-zone-id="11215750_010_00" d="M 937.68 987.30 L 939.86 1003.91 L 941.34 1016.45 L 941.47 1017.55 L 944.03 1039.33 L 940.82 1043.62 L 921.66 1069.21 L 908.36 1057.78 L 890.71 1042.61 L 861.41 1022.61 L 829.11 1000.83 L 756.53 963.05 L 756.29 962.93 L 770.82 933.01 L 780.81 912.73 L 805.49 862.37 L 833.54 876.24 L 840.00 879.41 L 847.37 883.03 L 850.55 884.60 L 894.79 906.33 L 899.95 908.87 L 909.68 913.67 L 911.51 913.72 L 928.05 914.22 L 929.25 923.31 L 937.64 987.06 L 937.68 987.30 Z M 805.75 862.94 L 805.72 863.00 L 839.73 879.96 L 899.51 909.76 L 928.72 924.33 L 928.69 924.05 L 899.60 909.58 L 839.78 879.85 L 805.75 862.94 Z "/>
<path class="zone" data-zone-id="11215750_010_13" d="M 641.08 905.94 L 605.27 888.24 L 619.39 858.42 L 654.61 787.10 L 693.27 806.40 L 693.58 806.56 L 699.67 809.59 L 715.35 817.42 L 733.39 826.42 L 737.42 828.44 L 737.80 828.63 L 751.40 835.42 L 767.55 843.48 L 782.76 851.06 L 805.49 862.37 L 780.81 912.73 L 770.82 933.01 L 756.29 962.93 L 688.32 929.31 L 641.08 905.94 Z "/>
<path class="zone" data-zone-id="11215750_010_14" d="M 605.27 888.24 L 453.22 813.03 L 468.24 783.29 L 502.70 712.59 L 537.97 729.89 L 566.03 743.66 L 577.86 749.46 L 600.05 760.34 L 653.55 786.57 L 654.61 787.10 L 619.39 858.42 L 605.27 888.24 Z "/>
<path class="zone" data-zone-id="11215750_010_15" d="M 301.48 737.98 L 300.32 737.41 L 315.64 707.16 L 340.07 658.93 L 340.08 658.91 L 351.02 637.27 L 294.88 609.67 L 297.55 610.95 L 297.83 611.08 L 351.36 636.61 L 390.74 656.38 L 426.78 674.48 L 467.23 694.79 L 502.18 712.34 L 502.70 712.59 L 468.24 783.29 L 453.22 813.03 L 301.48 737.98 Z "/>
<path class="zone" data-zone-id="11215750_010_16" d="M 210.94 692.87 L 225.15 662.17 L 257.80 591.68 L 257.89 591.49 L 294.86 609.66 L 351.02 637.27 L 340.08 658.91 L 340.07 658.93 L 315.64 707.16 L 300.32 737.41 L 210.94 692.87 Z "/>
<path class="zone" data-zone-id="11215750_010_00" d="M 588.75 667.32 L 628.41 686.87 L 640.91 693.02 L 648.06 696.08 L 655.17 691.27 L 656.63 700.28 L 660.31 731.49 L 664.45 766.62 L 656.83 782.61 L 654.61 787.10 L 653.55 786.57 L 602.99 761.78 L 600.05 760.34 L 577.86 749.46 L 566.03 743.66 L 537.97 729.89 L 502.70 712.59 L 514.32 688.75 L 535.76 644.76 L 536.38 643.48 L 572.71 661.32 L 573.33 659.72 L 587.08 666.50 L 588.75 667.32 Z "/>
<path class="zone" data-zone-id="11215750_010_00" d="M 535.76 644.76 L 502.70 712.59 L 502.18 712.34 L 492.51 707.49 L 467.23 694.79 L 457.49 689.90 L 454.59 688.44 L 451.79 687.04 L 426.78 674.48 L 398.52 660.29 L 390.74 656.38 L 351.36 636.61 L 386.30 567.56 L 442.80 595.38 L 443.16 595.56 L 461.03 604.38 L 461.56 604.65 L 537.11 641.98 L 573.33 659.72 L 572.71 661.32 L 536.38 643.48 L 535.76 644.76 Z M 480.99 642.46 L 475.17 639.56 L 478.08 641.01 L 480.99 642.46 Z "/>
<path class="zone" data-zone-id="11215750_010_19" d="M 573.33 659.72 L 574.61 654.12 L 573.79 645.29 L 571.41 627.29 L 566.94 593.41 L 562.02 557.35 L 559.76 540.76 L 553.68 495.67 L 552.58 487.58 L 570.56 485.29 L 588.41 483.04 L 589.06 482.95 L 590.35 482.79 L 607.92 480.56 L 626.78 478.17 L 630.26 503.20 L 634.17 531.55 L 654.72 688.48 L 655.17 691.27 L 648.06 696.08 L 640.91 693.02 L 628.41 686.87 L 588.75 667.32 L 573.33 659.72 Z "/>
<path class="zone" data-zone-id="11215750_010_20" d="M 562.02 557.35 L 566.94 593.41 L 571.41 627.29 L 573.79 645.29 L 574.61 654.12 L 573.33 659.72 L 537.11 641.98 L 461.56 604.65 L 461.03 604.38 L 443.16 595.56 L 442.80 595.38 L 386.30 567.56 L 399.01 541.14 L 462.61 549.14 L 463.11 549.22 L 465.51 549.60 L 516.26 557.54 L 516.60 557.59 L 537.10 560.57 L 558.06 557.86 L 562.02 557.35 Z "/>
<path class="zone" data-zone-id="11215750_010_21" d="M 553.68 495.67 L 559.76 540.76 L 562.02 557.35 L 558.06 557.86 L 537.10 560.57 L 516.60 557.59 L 516.26 557.54 L 465.51 549.60 L 463.11 549.22 L 462.61 549.14 L 399.01 541.14 L 386.30 567.56 L 351.36 636.61 L 297.83 611.08 L 297.55 610.95 L 294.88 609.67 L 257.89 591.49 L 290.77 520.48 L 291.12 519.72 L 298.21 518.86 L 380.18 508.83 L 455.39 499.66 L 456.15 499.57 L 481.66 496.44 L 507.95 493.23 L 508.19 493.20 L 530.00 490.44 L 552.06 487.64 L 552.58 487.58 L 553.68 495.67 Z "/>
<path class="zone" data-zone-id="11215750_010_22" d="M 552.58 487.58 L 551.51 479.63 L 545.64 435.45 L 540.57 392.40 L 539.44 383.42 L 539.22 380.50 L 539.20 380.31 L 539.22 377.58 L 540.00 374.34 L 551.11 350.33 L 553.42 345.22 L 557.78 335.58 L 560.88 328.73 L 572.96 302.24 L 583.82 277.66 L 585.22 274.58 L 593.08 257.26 L 596.58 248.93 L 597.86 255.33 L 599.23 262.19 L 608.67 338.22 L 620.11 427.39 L 620.15 427.71 L 626.78 478.17 L 607.92 480.56 L 590.35 482.79 L 589.06 482.95 L 588.41 483.04 L 570.56 485.29 L 552.58 487.58 Z "/>
<path class="zone" data-zone-id="11215750_010_00" d="M 540.57 392.40 L 545.64 435.45 L 551.51 479.63 L 552.58 487.58 L 552.06 487.64 L 530.00 490.44 L 508.19 493.20 L 507.95 493.23 L 481.66 496.44 L 456.15 499.57 L 455.39 499.66 L 446.92 500.69 L 380.89 508.75 L 380.18 508.83 L 298.21 518.86 L 291.12 519.72 L 292.93 515.83 L 297.50 505.89 L 315.38 468.40 L 322.76 452.65 L 328.05 441.37 L 337.05 421.09 L 349.31 392.53 L 361.31 365.16 L 375.11 333.65 L 381.63 318.44 L 384.91 310.67 L 392.68 314.13 L 466.65 348.26 L 471.25 350.24 L 471.66 350.42 L 476.59 352.55 L 532.33 377.42 L 539.22 380.50 L 539.44 383.42 L 540.57 392.40 Z "/>
<path class="zone" data-zone-id="11215750_010_24" d="M 553.42 345.22 L 551.11 350.33 L 540.00 374.34 L 539.22 377.58 L 539.20 380.31 L 539.22 380.50 L 532.33 377.42 L 476.59 352.55 L 471.66 350.42 L 471.25 350.24 L 466.65 348.26 L 392.68 314.13 L 384.91 310.67 L 388.49 302.22 L 396.00 284.86 L 399.89 275.85 L 404.85 264.67 L 406.63 260.68 L 414.81 242.23 L 420.51 229.45 L 421.75 226.69 L 425.34 219.59 L 428.48 222.63 L 446.93 240.53 L 451.97 245.46 L 477.16 270.08 L 480.78 273.62 L 480.67 273.80 L 495.36 288.34 L 502.61 295.56 L 513.33 306.23 L 537.74 330.62 L 550.51 342.51 L 553.42 345.22 Z "/>
<path class="zone" data-zone-id="11215750_010_00" d="M 733.39 826.42 L 715.35 817.42 L 699.67 809.59 L 693.58 806.56 L 693.27 806.40 L 686.84 803.19 L 654.61 787.10 L 656.83 782.61 L 664.45 766.62 L 661.29 739.85 L 656.63 700.28 L 655.17 691.27 L 660.36 687.76 L 694.42 683.44 L 695.04 683.37 L 734.05 678.42 L 734.11 678.41 L 734.75 682.44 L 736.71 696.29 L 740.01 721.27 L 743.00 743.90 L 746.48 770.21 L 750.64 800.21 L 750.47 801.43 L 750.11 804.02 L 742.54 819.09 L 740.12 823.91 L 737.80 828.63 L 737.42 828.44 L 733.39 826.42 Z "/>
<path class="zone" data-zone-id="11215750_010_26" d="M 734.11 678.41 L 734.05 678.42 L 695.04 683.37 L 694.42 683.44 L 660.36 687.76 L 655.17 691.27 L 654.72 688.48 L 634.17 531.55 L 630.26 503.20 L 626.78 478.17 L 646.05 475.73 L 665.33 473.29 L 665.67 473.25 L 685.87 470.58 L 706.42 467.88 L 706.66 467.85 L 708.02 478.42 L 711.74 506.83 L 715.58 537.02 L 719.55 567.46 L 722.84 593.20 L 722.90 593.66 L 726.32 619.01 L 727.56 628.52 L 729.37 642.52 L 732.60 668.96 L 734.11 678.41 Z "/>
</svg>
