<svg xmlns="http://www.w3.org/2000/svg" viewBox="0 0 1154 1155" width="1154" height="1155">
<path class="zone" data-zone-id="11215840_050_00" d="M 331.10 696.26 L 284.81 680.54 L 255.49 669.72 L 237.51 662.29 L 237.09 662.12 L 232.10 660.06 L 228.08 652.60 L 254.03 568.88 L 302.64 516.56 L 316.70 535.00 L 338.73 559.60 L 374.14 602.37 L 378.26 606.95 L 402.52 633.93 L 413.98 646.76 L 414.14 646.94 L 434.07 669.24 L 448.80 684.52 L 447.48 685.03 L 433.74 726.09 L 436.57 731.78 L 381.89 713.37 L 331.10 696.26 Z "/>
<path class="zone" data-zone-id="11215840_050_01" d="M 228.08 652.60 L 232.10 660.06 L 219.94 655.03 L 189.65 642.38 L 142.25 624.23 L 102.66 609.11 L 97.77 607.53 L 93.24 606.07 L 99.31 600.83 L 100.15 600.11 L 177.36 533.48 L 199.98 513.45 L 222.02 493.94 L 252.96 466.77 L 255.09 464.92 L 255.89 465.84 L 260.36 470.34 L 289.41 500.07 L 289.72 500.46 L 298.70 511.58 L 301.21 514.69 L 302.64 516.56 L 254.03 568.88 L 251.27 577.79 L 228.08 652.60 Z "/>
<path class="zone" data-zone-id="11215840_050_02" d="M 676.80 687.26 L 688.09 687.15 L 705.86 686.84 L 733.85 686.00 L 745.26 687.13 L 731.31 745.39 L 725.18 770.86 L 725.10 771.21 L 715.15 812.70 L 713.54 819.43 L 712.41 824.11 L 621.70 793.62 L 584.03 781.03 L 580.85 779.97 L 539.36 766.11 L 532.49 763.84 L 525.83 761.64 L 519.20 759.45 L 493.04 750.80 L 436.57 731.78 L 433.74 726.09 L 447.48 685.03 L 448.80 684.52 L 453.73 689.64 L 457.47 689.67 L 462.56 689.71 L 467.12 689.75 L 527.87 681.71 L 535.97 684.46 L 537.57 684.78 L 541.68 685.60 L 546.03 686.48 L 571.84 686.61 L 572.44 686.61 L 580.70 686.63 L 585.73 686.64 L 607.39 687.89 L 611.46 687.87 L 657.02 687.58 L 675.08 687.28 L 675.89 687.27 L 676.07 687.27 L 676.80 687.26 Z "/>
<path class="zone" data-zone-id="11215840_050_02" d="M 302.28 423.91 L 311.33 415.58 L 323.35 404.54 L 329.74 398.67 L 334.54 394.25 L 344.63 385.96 L 347.96 383.20 L 362.97 398.16 L 418.02 453.02 L 417.52 453.64 L 412.91 459.30 L 405.36 457.73 L 369.15 476.96 L 375.38 490.53 L 384.64 514.30 L 397.08 524.54 L 409.79 509.20 L 417.70 518.41 L 425.44 533.00 L 432.69 542.24 L 447.67 531.88 L 460.21 550.70 L 472.02 544.57 L 487.87 533.48 L 493.06 528.86 L 515.21 550.93 L 519.12 554.83 L 519.04 554.89 L 519.02 554.92 L 512.37 560.50 L 497.71 572.61 L 475.37 592.75 L 471.33 596.31 L 470.90 596.69 L 418.56 642.73 L 413.98 646.76 L 402.52 633.93 L 378.26 606.95 L 374.14 602.37 L 338.73 559.60 L 316.70 535.00 L 301.21 514.69 L 298.70 511.58 L 289.72 500.46 L 289.41 500.07 L 260.36 470.34 L 255.89 465.84 L 255.09 464.92 L 260.52 460.19 L 302.28 423.91 Z "/>
<path class="zone" data-zone-id="11215840_050_03" d="M 521.37 557.07 L 524.39 550.62 L 537.47 522.75 L 537.79 523.08 L 542.15 527.64 L 584.80 563.55 L 585.34 562.93 L 597.49 572.42 L 624.93 546.44 L 640.32 525.08 L 656.70 502.33 L 657.09 501.79 L 648.60 491.85 L 640.05 481.83 L 654.07 461.24 L 665.76 444.07 L 666.94 437.22 L 590.46 410.20 L 590.88 409.04 L 648.98 430.22 L 651.88 431.28 L 658.02 433.53 L 681.55 441.95 L 681.97 442.10 L 686.51 443.78 L 696.39 447.43 L 700.22 448.84 L 703.49 450.05 L 720.59 456.58 L 744.90 465.57 L 742.11 469.20 L 740.52 471.26 L 737.06 475.88 L 729.52 484.53 L 726.14 489.26 L 713.97 507.69 L 710.02 513.66 L 695.28 537.16 L 692.11 542.21 L 670.42 575.88 L 641.50 621.49 L 636.89 629.73 L 635.29 632.58 L 631.28 629.95 L 622.98 624.51 L 609.34 615.57 L 598.87 608.71 L 595.64 606.71 L 581.78 598.11 L 567.92 589.50 L 554.06 580.90 L 552.39 579.86 L 549.05 577.59 L 546.92 576.16 L 540.60 571.69 L 527.29 562.26 L 526.88 561.97 L 521.69 557.71 L 519.02 554.92 L 519.04 554.89 L 519.12 554.83 L 521.37 557.07 Z "/>
<path class="zone" data-zone-id="11215840_050_04" d="M 645.43 271.73 L 713.62 296.13 L 720.48 298.58 L 723.77 299.86 L 732.82 303.39 L 732.88 303.41 L 740.13 306.23 L 740.54 306.82 L 740.70 307.06 L 881.18 360.78 L 883.38 361.63 L 883.57 363.03 L 883.74 364.25 L 882.67 364.67 L 881.73 365.05 L 875.04 367.74 L 860.33 373.64 L 835.67 383.61 L 808.47 402.84 L 801.47 409.53 L 796.93 413.85 L 790.40 420.73 L 778.87 430.91 L 772.88 435.95 L 767.90 440.12 L 758.92 451.55 L 751.37 462.78 L 748.57 466.96 L 746.95 466.32 L 744.90 465.57 L 720.59 456.58 L 703.49 450.05 L 700.22 448.84 L 696.39 447.43 L 686.51 443.78 L 681.97 442.10 L 681.55 441.95 L 658.02 433.53 L 651.88 431.28 L 648.98 430.22 L 590.88 409.04 L 613.34 346.29 L 618.13 332.90 L 640.64 270.05 L 641.36 270.31 L 645.40 271.80 L 645.43 271.73 Z "/>
<path class="zone" data-zone-id="11215840_050_00" d="M 884.68 370.12 L 887.67 372.79 L 904.58 384.39 L 916.39 391.53 L 916.62 391.60 L 915.65 395.52 L 904.92 438.89 L 903.51 444.60 L 902.79 447.48 L 889.80 499.99 L 887.43 509.96 L 886.48 513.87 L 885.31 518.66 L 827.01 496.23 L 817.18 492.44 L 816.48 492.17 L 793.00 483.59 L 792.20 483.29 L 769.33 475.08 L 755.13 469.52 L 748.57 466.96 L 751.37 462.78 L 758.92 451.55 L 767.90 440.12 L 772.88 435.95 L 778.87 430.91 L 790.40 420.73 L 796.93 413.85 L 801.47 409.53 L 808.47 402.84 L 835.67 383.61 L 860.33 373.64 L 875.04 367.74 L 881.73 365.05 L 882.67 364.67 L 883.74 364.25 L 884.46 369.53 L 884.62 370.69 L 884.46 369.53 L 884.68 370.12 Z "/>
<path class="zone" data-zone-id="11215840_050_00" d="M 894.08 332.37 L 892.59 324.66 L 896.89 320.17 L 910.11 314.11 L 929.10 313.46 L 943.42 319.68 L 953.20 323.94 L 956.94 325.40 L 958.11 323.80 L 958.39 323.41 L 959.90 321.34 L 960.23 320.89 L 961.19 318.05 L 973.30 282.19 L 976.14 273.80 L 989.80 249.55 L 989.13 246.07 L 995.17 230.34 L 995.27 230.06 L 1003.27 233.14 L 1022.22 240.42 L 1060.80 255.24 L 1060.80 255.24 L 1056.83 271.14 L 1041.50 335.51 L 1035.92 358.95 L 1035.24 361.65 L 1035.17 361.96 L 1035.17 361.96 L 1027.68 391.75 L 1021.58 417.11 L 1021.58 417.11 L 1021.58 417.11 L 1002.04 412.51 L 942.00 398.39 L 939.94 397.94 L 926.98 395.12 L 916.62 391.60 L 916.39 391.53 L 904.58 384.39 L 887.67 372.79 L 884.68 370.12 L 884.46 369.53 L 883.82 364.86 L 885.15 363.68 L 898.56 351.70 L 905.26 347.05 L 894.46 333.59 L 894.27 333.35 L 894.08 332.37 Z "/>
<path class="zone" data-zone-id="11215840_050_07" d="M 990.83 545.19 L 978.81 595.09 L 969.55 633.57 L 945.14 735.01 L 945.14 735.01 L 925.69 730.44 L 894.46 723.10 L 894.05 723.00 L 887.13 721.32 L 850.11 712.15 L 840.27 709.65 L 842.63 698.40 L 862.63 617.46 L 875.79 562.18 L 884.92 523.87 L 886.09 518.96 L 895.73 522.68 L 937.99 532.30 L 942.59 533.33 L 945.68 534.02 L 971.41 539.75 L 991.09 544.13 L 991.09 544.13 L 990.96 544.66 L 990.85 545.12 L 990.85 545.13 L 990.83 545.19 L 990.83 545.19 Z "/>
<path class="zone" data-zone-id="11215840_050_08" d="M 945.14 735.01 L 945.14 735.01 L 943.07 743.63 L 909.87 883.46 L 908.84 887.80 L 908.45 889.44 L 908.45 889.44 L 908.45 889.44 L 908.45 889.44 L 899.79 924.92 L 899.78 924.96 L 896.61 923.80 L 896.62 923.76 L 795.65 886.70 L 804.47 855.14 L 805.88 850.10 L 807.43 844.58 L 837.14 723.85 L 840.27 709.65 L 850.11 712.15 L 887.13 721.32 L 894.05 723.00 L 894.46 723.10 L 925.69 730.44 L 945.14 735.01 L 945.14 735.01 Z "/>
<path class="zone" data-zone-id="11215840_050_09" d="M 840.27 709.65 L 796.21 698.62 L 754.68 688.69 L 745.46 687.15 L 745.26 687.13 L 745.40 686.52 L 758.88 630.02 L 764.85 604.94 L 769.31 586.73 L 770.82 580.53 L 771.18 578.94 L 781.66 532.24 L 789.56 495.75 L 791.71 488.15 L 793.00 483.59 L 816.48 492.17 L 817.18 492.44 L 885.31 518.66 L 886.09 518.96 L 884.92 523.87 L 875.79 562.18 L 862.63 617.46 L 842.63 698.40 L 840.27 709.65 Z "/>
<path class="zone" data-zone-id="11215840_050_10" d="M 745.46 687.15 L 754.68 688.69 L 796.21 698.62 L 840.27 709.65 L 837.14 723.85 L 807.43 844.58 L 805.88 850.10 L 804.47 855.14 L 795.65 886.70 L 759.93 873.59 L 705.01 854.98 L 712.41 824.11 L 713.54 819.43 L 715.15 812.70 L 725.10 771.21 L 725.18 770.86 L 731.31 745.39 L 745.26 687.13 L 745.46 687.15 Z "/>
<path class="zone" data-zone-id="11215840_050_11" d="M 745.26 687.13 L 733.85 686.00 L 705.86 686.84 L 688.09 687.15 L 676.80 687.26 L 676.07 687.27 L 675.89 687.27 L 675.08 687.28 L 657.02 687.58 L 607.39 687.89 L 585.73 686.64 L 580.70 686.63 L 589.00 680.02 L 597.62 673.17 L 609.85 663.68 L 614.36 659.21 L 620.81 652.91 L 629.45 641.96 L 633.16 636.37 L 634.53 633.92 L 635.29 632.58 L 636.89 629.73 L 641.50 621.49 L 670.42 575.88 L 692.11 542.21 L 695.28 537.16 L 710.02 513.66 L 713.97 507.69 L 726.14 489.26 L 729.52 484.53 L 737.06 475.88 L 740.52 471.26 L 742.11 469.20 L 744.90 465.57 L 746.95 466.32 L 748.57 466.96 L 769.33 475.08 L 792.20 483.29 L 793.00 483.59 L 791.71 488.15 L 789.56 495.75 L 781.66 532.24 L 771.18 578.94 L 770.82 580.53 L 769.31 586.73 L 764.85 604.94 L 758.88 630.02 L 745.40 686.52 L 745.26 687.13 Z "/>
<path class="zone" data-zone-id="11215840_050_12" d="M 580.70 686.63 L 572.44 686.61 L 571.84 686.61 L 546.03 686.48 L 535.97 684.46 L 527.87 681.71 L 467.12 689.75 L 462.56 689.71 L 457.47 689.67 L 453.73 689.64 L 434.07 669.24 L 413.98 646.76 L 418.56 642.73 L 470.90 596.69 L 471.33 596.31 L 475.37 592.75 L 497.71 572.61 L 512.37 560.50 L 519.02 554.92 L 521.69 557.71 L 526.88 561.97 L 527.29 562.26 L 540.60 571.69 L 546.92 576.16 L 549.05 577.59 L 552.39 579.86 L 554.06 580.90 L 567.92 589.50 L 581.78 598.11 L 595.64 606.71 L 598.87 608.71 L 609.34 615.57 L 622.98 624.51 L 631.28 629.95 L 635.29 632.58 L 634.53 633.92 L 633.16 636.37 L 629.45 641.96 L 620.81 652.91 L 614.36 659.21 L 609.85 663.68 L 597.62 673.17 L 589.00 680.02 L 580.70 686.63 Z "/>
<path class="zone" data-zone-id="11215840_050_13" d="M 945.68 534.02 L 942.59 533.33 L 937.99 532.30 L 895.73 522.68 L 886.09 518.96 L 885.31 518.66 L 886.48 513.87 L 887.43 509.96 L 889.80 499.99 L 902.79 447.48 L 903.51 444.60 L 904.92 438.89 L 915.65 395.52 L 916.62 391.60 L 926.98 395.12 L 939.94 397.94 L 942.00 398.39 L 1002.04 412.51 L 1021.58 417.11 L 1021.58 417.11 L 1012.84 453.45 L 999.01 510.91 L 991.09 544.13 L 991.09 544.13 L 991.09 544.13 L 971.41 539.75 L 945.68 534.02 Z "/>
</svg>
