<svg xmlns="http://www.w3.org/2000/svg" viewBox="0 0 1155 1155" width="1155" height="1155">
<path class="zone" data-zone-id="11215860_060_01" d="M 594.19 969.42 L 549.44 1018.99 L 548.70 1019.81 L 517.22 1054.88 L 499.02 1038.75 L 443.03 987.59 L 439.84 984.74 L 434.88 980.31 L 426.81 973.10 L 395.45 947.00 L 388.77 941.45 L 392.56 936.90 L 393.72 935.50 L 396.90 931.76 L 414.12 911.56 L 429.36 893.68 L 429.61 893.38 L 431.78 890.89 L 459.20 859.31 L 464.57 853.38 L 488.86 824.69 L 503.16 808.73 L 506.59 804.89 L 538.45 763.33 L 569.75 725.71 L 585.90 741.15 L 592.88 747.40 L 613.93 766.07 L 614.05 766.17 L 634.44 784.11 L 686.37 830.40 L 704.39 846.46 L 658.68 897.56 L 616.46 944.75 L 594.19 969.42 Z "/>
<path class="zone" data-zone-id="11215860_060_02" d="M 363.66 920.58 L 343.70 903.46 L 335.26 896.22 L 331.85 893.24 L 289.11 855.81 L 292.99 851.75 L 298.13 846.36 L 352.14 785.99 L 363.81 772.28 L 367.30 768.46 L 384.94 749.15 L 442.02 685.94 L 445.25 682.63 L 447.70 680.12 L 451.21 675.57 L 449.97 662.31 L 449.56 633.43 L 452.02 628.83 L 474.80 644.93 L 479.62 648.34 L 482.92 650.68 L 489.61 655.73 L 511.11 673.54 L 533.69 693.69 L 534.45 694.36 L 552.26 709.74 L 560.19 716.55 L 569.75 725.71 L 538.45 763.33 L 506.59 804.89 L 503.16 808.73 L 488.86 824.69 L 464.57 853.38 L 459.20 859.31 L 431.78 890.89 L 429.61 893.38 L 429.36 893.68 L 414.12 911.56 L 396.90 931.76 L 393.72 935.50 L 392.56 936.90 L 388.77 941.45 L 363.66 920.58 Z "/>
<path class="zone" data-zone-id="11215860_060_03" d="M 289.11 855.81 L 284.75 851.99 L 244.97 817.13 L 236.76 809.72 L 231.02 804.54 L 230.78 804.33 L 229.13 802.84 L 211.00 785.99 L 199.45 774.65 L 195.89 770.73 L 179.77 752.99 L 163.48 735.70 L 163.83 735.72 L 170.85 736.10 L 170.88 733.33 L 186.08 695.98 L 189.34 692.57 L 198.00 686.12 L 210.42 684.21 L 216.03 669.79 L 222.93 659.96 L 228.47 658.45 L 230.31 657.82 L 230.97 657.59 L 233.83 659.90 L 240.01 659.25 L 243.93 653.11 L 244.29 652.99 L 244.80 652.81 L 249.59 647.25 L 261.52 645.42 L 312.15 640.74 L 336.62 643.98 L 354.07 648.36 L 451.21 675.57 L 447.70 680.12 L 445.25 682.63 L 442.02 685.94 L 384.94 749.15 L 367.30 768.46 L 363.81 772.28 L 352.14 785.99 L 298.13 846.36 L 292.99 851.75 L 289.11 855.81 Z "/>
<path class="zone" data-zone-id="11215860_060_04" d="M 452.02 628.83 L 456.07 621.22 L 462.50 615.89 L 460.08 608.64 L 455.44 580.01 L 476.47 569.91 L 490.20 555.33 L 530.41 512.59 L 524.90 505.92 L 537.42 493.02 L 514.04 464.85 L 530.35 444.25 L 534.34 439.92 L 572.56 390.96 L 591.17 367.52 L 600.23 356.11 L 601.68 354.81 L 601.93 354.58 L 617.29 340.73 L 641.36 319.03 L 662.99 299.54 L 669.76 293.44 L 679.75 276.28 L 680.73 274.59 L 721.20 220.49 L 740.65 205.52 L 747.27 200.42 L 752.97 198.31 L 810.49 177.02 L 810.53 177.00 L 817.21 194.74 L 827.61 222.38 L 782.12 240.79 L 740.12 296.15 L 711.83 333.36 L 690.73 361.10 L 647.70 417.69 L 647.42 418.06 L 489.75 625.50 L 474.95 644.73 L 474.80 644.93 L 452.02 628.83 Z "/>
<path class="zone" data-zone-id="11215860_060_05" d="M 827.61 222.38 L 839.65 254.39 L 859.64 307.49 L 898.53 387.43 L 905.32 398.46 L 863.59 423.69 L 832.39 456.09 L 831.98 456.52 L 803.76 487.94 L 776.37 518.50 L 769.22 526.79 L 754.87 514.78 L 732.76 494.75 L 729.01 491.35 L 700.90 465.88 L 700.61 465.62 L 691.87 457.70 L 691.60 457.45 L 669.54 437.81 L 656.34 425.74 L 651.42 421.50 L 647.42 418.06 L 647.70 417.69 L 690.73 361.10 L 711.83 333.36 L 740.12 296.15 L 782.12 240.79 L 827.61 222.38 Z M 781.60 100.13 L 810.53 177.00 L 781.60 100.13 L 781.60 100.13 Z "/>
<path class="zone" data-zone-id="11215860_060_06" d="M 905.32 398.46 L 951.81 473.90 L 991.52 525.40 L 969.30 550.48 L 922.08 603.20 L 891.90 636.89 L 874.02 620.71 L 858.11 606.32 L 820.27 572.13 L 820.19 572.05 L 796.53 550.64 L 769.22 526.79 L 776.37 518.50 L 803.76 487.94 L 831.98 456.52 L 832.39 456.09 L 863.59 423.69 L 905.32 398.46 Z "/>
<path class="zone" data-zone-id="11215860_060_07" d="M 891.90 636.89 L 859.52 673.04 L 733.95 813.41 L 704.39 846.46 L 686.37 830.40 L 634.44 784.11 L 614.05 766.17 L 613.93 766.07 L 592.88 747.40 L 585.90 741.15 L 569.75 725.71 L 577.68 717.00 L 601.37 694.60 L 631.33 669.14 L 631.70 668.83 L 636.58 664.55 L 649.36 653.83 L 663.74 641.79 L 667.11 638.64 L 678.32 626.45 L 688.78 615.03 L 688.84 614.95 L 729.77 570.39 L 760.51 536.90 L 769.22 526.79 L 796.53 550.64 L 820.19 572.05 L 820.27 572.13 L 858.11 606.32 L 874.02 620.71 L 891.90 636.89 Z "/>
<path class="zone" data-zone-id="11215860_060_08" d="M 569.75 725.71 L 560.19 716.55 L 552.26 709.74 L 534.45 694.36 L 533.69 693.69 L 511.11 673.54 L 489.61 655.73 L 482.92 650.68 L 479.62 648.34 L 474.80 644.93 L 474.95 644.73 L 489.75 625.50 L 647.42 418.06 L 651.42 421.50 L 656.34 425.74 L 669.54 437.81 L 691.60 457.45 L 691.87 457.70 L 700.61 465.62 L 700.90 465.88 L 729.01 491.35 L 732.76 494.75 L 754.87 514.78 L 769.22 526.79 L 760.51 536.90 L 729.77 570.39 L 688.84 614.95 L 688.78 615.03 L 678.32 626.45 L 667.11 638.64 L 663.74 641.79 L 649.36 653.83 L 636.58 664.55 L 631.70 668.83 L 631.33 669.14 L 601.37 694.60 L 577.68 717.00 L 569.75 725.71 Z "/>
</svg>
