<svg xmlns="http://www.w3.org/2000/svg" viewBox="0 0 1155 1155" width="1155" height="1155">
<path class="zone" data-zone-id="11215840_010_00" d="M 570.19 844.10 L 573.38 834.10 L 576.34 824.84 L 576.59 824.10 L 597.66 829.19 L 699.39 853.76 L 699.40 853.76 L 650.21 1057.55 L 632.04 1050.41 L 588.00 1033.11 L 527.16 1009.22 L 520.76 1006.70 L 526.57 988.14 L 528.93 979.65 L 542.53 930.65 L 550.04 907.15 L 570.19 844.10 Z "/>
<path class="zone" data-zone-id="11215840_010_01" d="M 687.12 729.31 L 707.19 736.50 L 712.97 746.25 L 722.39 758.49 L 710.74 806.76 L 699.39 853.76 L 597.66 829.19 L 576.59 824.10 L 595.43 768.10 L 597.64 762.14 L 598.32 759.73 L 601.52 748.38 L 596.06 746.10 L 591.73 744.17 L 614.01 699.74 L 648.08 714.58 L 663.88 721.47 L 668.70 723.57 L 669.21 722.89 L 687.12 729.31 Z "/>
<path class="zone" data-zone-id="11215840_010_02" d="M 435.05 443.83 L 437.85 444.51 L 456.31 449.02 L 461.22 450.22 L 479.99 454.81 L 498.60 459.35 L 499.51 459.57 L 503.27 460.47 L 521.89 464.91 L 540.74 469.41 L 541.42 469.58 L 545.78 470.60 L 564.37 474.97 L 582.81 479.31 L 602.91 484.03 L 600.98 515.69 L 599.55 539.10 L 598.57 555.26 L 598.53 555.93 L 597.68 571.50 L 596.50 593.28 L 595.11 618.77 L 593.75 643.95 L 593.74 644.15 L 592.37 671.15 L 592.00 678.42 L 589.56 726.78 L 566.32 716.53 L 565.53 720.40 L 560.46 730.20 L 353.77 637.87 L 326.61 625.74 L 308.23 617.53 L 302.42 612.86 L 300.89 611.63 L 304.56 597.75 L 351.96 418.37 L 357.36 397.95 L 361.82 381.08 L 447.15 401.86 L 446.97 402.51 L 444.66 410.51 L 439.97 426.78 L 435.21 443.27 L 435.05 443.83 Z "/>
<path class="zone" data-zone-id="11215840_010_03" d="M 458.58 361.33 L 453.95 377.74 L 449.28 394.31 L 447.15 401.86 L 361.82 381.08 L 366.27 364.21 L 387.55 283.68 L 407.27 209.53 L 493.65 236.91 L 484.89 268.00 L 479.51 287.09 L 471.25 316.39 L 463.17 345.04 L 458.58 361.33 Z "/>
<path class="zone" data-zone-id="11215840_010_04" d="M 560.46 730.20 L 565.53 720.40 L 566.32 716.53 L 589.56 726.78 L 592.00 678.42 L 592.37 671.15 L 593.74 644.15 L 593.75 643.95 L 595.11 618.77 L 596.50 593.28 L 597.68 571.50 L 598.53 555.93 L 598.57 555.26 L 599.55 539.10 L 600.98 515.69 L 602.91 484.03 L 582.81 479.31 L 564.37 474.97 L 545.78 470.60 L 541.42 469.58 L 540.74 469.41 L 521.89 464.91 L 503.27 460.47 L 499.51 459.57 L 498.60 459.35 L 479.99 454.81 L 461.22 450.22 L 456.31 449.02 L 437.85 444.51 L 435.05 443.83 L 435.21 443.27 L 439.97 426.78 L 442.32 418.64 L 442.42 418.66 L 446.97 402.51 L 452.00 385.08 L 451.89 385.06 L 453.95 377.74 L 458.58 361.33 L 463.17 345.04 L 471.25 316.39 L 479.51 287.09 L 484.89 268.00 L 493.65 236.91 L 407.27 209.53 L 429.52 125.80 L 437.43 96.06 L 438.94 96.54 L 438.94 96.54 L 438.94 96.54 L 535.73 127.11 L 539.09 128.17 L 539.09 128.17 L 542.30 129.19 L 542.55 129.27 L 542.55 129.27 L 533.13 158.49 L 519.08 202.09 L 510.06 230.07 L 500.87 259.40 L 485.35 308.91 L 474.10 347.78 L 473.82 349.59 L 473.00 354.93 L 475.37 355.67 L 490.42 360.34 L 490.59 360.39 L 514.91 367.95 L 515.04 367.99 L 530.33 372.74 L 530.67 372.84 L 552.78 379.71 L 552.83 379.73 L 572.62 385.88 L 572.69 385.90 L 593.45 392.34 L 593.62 392.39 L 614.18 398.78 L 614.19 398.79 L 633.38 404.74 L 633.56 404.80 L 656.83 412.03 L 657.00 412.09 L 673.03 417.06 L 673.06 417.07 L 697.60 424.69 L 697.75 424.74 L 710.63 428.73 L 710.74 428.76 L 738.78 437.48 L 738.92 437.53 L 750.38 441.09 L 750.50 441.13 L 778.34 449.57 L 799.36 455.94 L 793.22 481.37 L 769.85 578.11 L 768.35 584.28 L 758.21 626.25 L 755.69 636.66 L 751.25 655.04 L 742.16 692.63 L 739.82 702.32 L 738.50 707.80 L 737.12 713.49 L 727.75 752.31 L 715.97 801.06 L 698.24 874.43 L 684.89 929.71 L 682.18 940.90 L 671.96 983.19 L 654.71 1054.63 L 653.67 1058.90 L 650.21 1057.55 L 699.40 853.76 L 699.39 853.76 L 710.74 806.76 L 722.39 758.49 L 712.97 746.25 L 707.19 736.50 L 687.12 729.31 L 669.21 722.89 L 668.70 723.57 L 663.88 721.47 L 648.08 714.58 L 614.01 699.74 L 591.73 744.17 L 560.46 730.20 Z "/>
<path class="zone" data-zone-id="11215840_010_02" d="M 604.35 148.66 L 634.75 158.20 L 680.77 172.64 L 850.32 223.93 L 851.03 224.15 L 854.11 225.13 L 854.11 225.13 L 847.46 256.65 L 845.65 265.27 L 835.26 307.85 L 823.95 352.25 L 822.29 359.04 L 815.97 384.99 L 804.07 436.47 L 802.30 443.80 L 799.36 455.94 L 778.34 449.57 L 750.50 441.13 L 750.38 441.09 L 738.92 437.53 L 738.78 437.48 L 710.74 428.76 L 710.63 428.73 L 697.75 424.74 L 697.60 424.69 L 673.06 417.07 L 673.03 417.06 L 657.00 412.09 L 656.83 412.03 L 633.56 404.80 L 633.38 404.74 L 614.19 398.79 L 614.18 398.78 L 593.62 392.39 L 593.45 392.34 L 572.69 385.90 L 572.62 385.88 L 552.83 379.73 L 552.78 379.71 L 530.67 372.84 L 530.33 372.74 L 515.04 367.99 L 514.91 367.95 L 490.59 360.39 L 490.42 360.34 L 475.37 355.67 L 473.00 354.93 L 473.82 349.59 L 474.10 347.78 L 485.35 308.91 L 500.87 259.40 L 510.06 230.07 L 519.08 202.09 L 533.13 158.49 L 542.55 129.27 L 542.55 129.27 L 570.31 137.98 L 570.31 137.98 L 604.35 148.66 Z "/>
</svg>
