<svg xmlns="http://www.w3.org/2000/svg" viewBox="0 0 1154 1155" width="1154" height="1155">
<path class="zone" data-zone-id="11215830_010_01" d="M 931.01 288.18 L 920.60 359.95 L 920.45 360.99 L 920.42 366.02 L 924.92 409.71 L 929.12 436.10 L 933.29 463.56 L 934.91 475.12 L 935.63 479.31 L 937.82 488.86 L 941.29 498.75 L 941.33 498.85 L 958.77 542.44 L 971.11 572.94 L 976.81 587.54 L 980.34 593.77 L 983.19 599.15 L 984.12 602.55 L 985.99 609.43 L 987.89 621.76 L 997.22 657.60 L 1010.41 707.02 L 1023.87 758.00 L 1029.52 779.40 L 1031.68 787.92 L 1032.09 789.60 L 1032.09 789.61 L 1033.57 795.66 L 1032.95 795.89 L 1031.40 789.39 L 1032.95 795.89 L 1033.57 795.66 L 1033.85 796.82 L 1033.85 796.82 L 1031.19 797.91 L 1031.19 797.91 L 1008.34 807.33 L 926.79 837.46 L 857.15 862.55 L 825.89 873.34 L 821.90 874.72 L 793.48 885.43 L 754.63 899.33 L 705.96 917.09 L 681.86 927.42 L 639.23 945.69 L 612.58 957.22 L 572.46 975.03 L 516.45 999.38 L 505.28 1004.22 L 503.27 1005.08 L 503.17 1004.94 L 372.27 1062.69 L 362.44 1045.78 L 362.41 1045.72 L 341.20 1009.51 L 340.04 1007.51 L 318.18 969.62 L 298.87 923.01 L 298.47 921.73 L 262.24 803.17 L 255.60 781.44 L 247.56 755.77 L 243.71 743.47 L 237.56 723.82 L 223.42 678.67 L 209.66 634.72 L 205.70 622.08 L 184.49 552.90 L 157.02 463.35 L 152.96 450.39 L 143.19 419.22 L 137.67 402.22 L 137.02 400.24 L 124.69 362.27 L 121.96 348.30 L 120.18 339.17 L 166.54 333.93 L 292.65 295.53 L 333.43 283.12 L 393.81 264.73 L 394.87 264.40 L 427.07 254.39 L 483.27 236.92 L 487.43 235.63 L 548.72 216.58 L 549.08 216.46 L 549.13 216.45 L 637.75 188.91 L 665.14 180.40 L 665.60 180.26 L 812.81 133.91 L 833.60 127.36 L 834.50 127.08 L 895.68 108.27 L 898.68 107.35 L 946.36 92.32 L 947.96 124.44 L 948.41 137.80 L 948.66 151.95 L 948.82 160.51 L 947.21 185.67 L 941.96 224.79 L 931.01 288.18 Z "/>
</svg>
