<svg xmlns="http://www.w3.org/2000/svg" viewBox="0 0 1154 1155" width="1154" height="1155">
<path class="zone" data-zone-id="11215710_040_01" d="M 599.52 1055.08 L 579.37 1024.44 L 569.33 1009.17 L 554.38 983.97 L 540.67 960.85 L 510.84 910.60 L 508.77 907.10 L 500.40 890.38 L 498.69 886.98 L 494.24 878.97 L 488.50 868.64 L 454.22 812.52 L 441.63 791.90 L 440.39 789.86 L 413.07 745.14 L 412.32 743.90 L 412.03 743.44 L 416.77 740.12 L 422.22 736.30 L 467.29 704.72 L 467.40 704.64 L 501.07 682.14 L 567.16 705.29 L 567.88 705.54 L 579.18 709.56 L 581.88 710.52 L 634.99 729.93 L 647.96 734.67 L 684.96 748.45 L 712.93 758.86 L 681.36 841.22 L 667.23 878.09 L 613.33 1018.69 L 599.52 1055.08 Z "/>
<path class="zone" data-zone-id="11215710_040_02" d="M 412.03 743.44 L 393.63 713.34 L 378.50 686.71 L 370.27 674.36 L 362.59 662.85 L 352.41 648.34 L 340.23 620.63 L 332.78 607.95 L 331.57 605.88 L 321.29 588.83 L 312.32 573.96 L 305.91 562.49 L 305.91 562.48 L 301.49 554.59 L 299.09 549.45 L 291.87 534.06 L 285.80 517.83 L 265.97 465.14 L 257.60 439.00 L 247.23 406.62 L 246.82 403.32 L 246.36 399.62 L 252.40 362.00 L 255.11 345.13 L 263.19 347.13 L 272.10 348.75 L 298.76 352.89 L 302.85 353.37 L 314.17 354.00 L 315.30 354.06 L 437.64 365.88 L 443.45 366.53 L 467.50 367.55 L 530.27 370.21 L 543.58 378.21 L 548.59 385.85 L 560.94 404.67 L 580.68 415.37 L 582.94 415.84 L 625.01 419.74 L 628.91 420.74 L 628.98 420.77 L 632.22 421.98 L 661.71 436.44 L 671.37 441.94 L 676.08 445.02 L 699.72 464.24 L 708.18 472.21 L 714.90 480.04 L 716.52 481.93 L 720.18 486.19 L 744.63 512.96 L 756.49 525.56 L 758.86 527.57 L 762.03 530.47 L 764.64 532.55 L 765.93 533.42 L 794.46 543.93 L 786.79 565.13 L 771.62 607.00 L 734.74 701.98 L 715.29 752.71 L 712.93 758.86 L 684.96 748.45 L 647.96 734.67 L 634.99 729.93 L 581.88 710.52 L 579.18 709.56 L 567.88 705.54 L 567.16 705.29 L 501.07 682.14 L 467.40 704.64 L 467.29 704.72 L 422.22 736.30 L 416.77 740.12 L 412.03 743.44 Z "/>
<path class="zone" data-zone-id="11215710_040_00" d="M 494.33 337.73 L 443.63 291.50 L 454.94 259.19 L 470.57 262.56 L 474.71 245.30 L 510.15 253.27 L 579.41 268.21 L 577.78 276.64 L 574.57 288.69 L 566.01 317.80 L 556.29 349.93 L 554.90 354.46 L 552.71 361.60 L 550.66 369.26 L 549.51 374.15 L 548.99 378.95 L 548.95 379.33 L 548.85 380.31 L 548.60 385.79 L 548.59 385.85 L 543.81 378.56 L 543.58 378.21 L 530.27 370.21 L 521.62 369.84 L 510.69 369.38 L 494.85 338.34 L 494.85 338.26 L 494.33 337.73 Z "/>
<path class="zone" data-zone-id="11215710_040_01" d="M 383.61 228.33 L 393.99 229.94 L 419.43 234.25 L 430.03 236.05 L 462.91 242.65 L 470.27 244.30 L 474.71 245.30 L 470.57 262.56 L 454.94 259.19 L 452.85 265.16 L 443.63 291.50 L 494.33 337.73 L 494.85 338.26 L 497.16 309.55 L 494.85 338.34 L 510.69 369.38 L 467.50 367.55 L 443.45 366.53 L 437.64 365.88 L 357.72 358.16 L 355.47 345.87 L 351.55 335.98 L 348.82 329.11 L 338.39 306.88 L 321.45 270.76 L 329.59 267.07 L 333.86 236.99 L 374.65 243.72 L 376.75 227.26 L 383.61 228.33 Z "/>
<path class="zone" data-zone-id="11215710_040_02" d="M 264.28 288.03 L 264.81 284.75 L 276.41 212.55 L 276.46 212.26 L 283.33 213.34 L 289.49 214.31 L 331.41 220.21 L 356.07 224.05 L 376.75 227.26 L 374.65 243.72 L 333.86 236.99 L 329.59 267.07 L 321.45 270.76 L 338.39 306.88 L 348.82 329.11 L 351.55 335.98 L 355.47 345.87 L 357.72 358.16 L 315.30 354.06 L 314.17 354.00 L 302.85 353.37 L 298.76 352.89 L 272.10 348.75 L 263.19 347.13 L 255.11 345.13 L 264.28 288.03 Z "/>
<path class="zone" data-zone-id="11215710_040_00" d="M 483.68 130.33 L 483.68 130.33 L 496.86 133.42 L 575.43 151.83 L 606.01 160.54 L 600.15 184.02 L 600.12 184.15 L 596.53 198.55 L 592.16 216.38 L 585.10 245.38 L 581.38 260.06 L 579.41 268.21 L 510.61 253.37 L 510.15 253.27 L 470.27 244.30 L 462.91 242.65 L 430.03 236.05 L 407.69 232.26 L 393.99 229.94 L 383.61 228.33 L 363.20 225.15 L 356.07 224.05 L 331.41 220.21 L 289.49 214.31 L 283.33 213.34 L 276.46 212.26 L 289.47 131.73 L 296.57 99.87 L 299.44 100.32 L 299.44 100.32 L 403.69 117.30 L 483.68 130.33 L 483.68 130.33 Z "/>
<path class="zone" data-zone-id="11215710_040_05" d="M 643.91 282.62 L 642.74 282.33 L 626.57 279.10 L 624.98 278.78 L 616.80 276.89 L 579.41 268.21 L 581.38 260.06 L 585.10 245.38 L 592.16 216.38 L 596.53 198.55 L 600.12 184.15 L 606.01 160.54 L 610.40 161.79 L 610.40 161.79 L 621.96 165.08 L 629.55 167.24 L 629.55 167.24 L 650.28 173.14 L 650.28 173.14 L 663.57 176.93 L 663.57 176.93 L 676.75 180.68 L 701.04 187.59 L 857.74 240.66 L 901.47 255.34 L 907.67 257.57 L 890.08 281.49 L 870.84 340.91 L 840.77 332.97 L 780.03 316.94 L 769.00 314.20 L 728.27 304.07 L 643.91 282.62 Z "/>
<path class="zone" data-zone-id="11215710_040_06" d="M 870.84 340.91 L 867.73 350.49 L 860.69 372.25 L 805.93 512.27 L 794.46 543.93 L 765.93 533.42 L 764.64 532.55 L 762.03 530.47 L 758.86 527.57 L 756.49 525.56 L 744.63 512.96 L 720.18 486.19 L 716.52 481.93 L 714.90 480.04 L 708.18 472.21 L 699.72 464.24 L 676.08 445.02 L 671.37 441.94 L 661.71 436.44 L 632.22 421.98 L 628.98 420.77 L 628.91 420.74 L 625.01 419.74 L 582.94 415.84 L 580.68 415.37 L 560.94 404.67 L 548.59 385.85 L 548.60 385.79 L 548.85 380.31 L 548.95 379.33 L 549.51 374.15 L 550.66 369.26 L 552.71 361.60 L 554.90 354.46 L 556.29 349.93 L 566.01 317.80 L 574.57 288.69 L 577.78 276.64 L 579.41 268.21 L 616.80 276.89 L 624.98 278.78 L 626.57 279.10 L 642.74 282.33 L 643.91 282.62 L 728.27 304.07 L 769.00 314.20 L 780.03 316.94 L 840.77 332.97 L 870.84 340.91 Z "/>
</svg>
