<svg xmlns="http://www.w3.org/2000/svg" viewBox="0 0 1154 1155" width="1154" height="1155">
<path class="zone" data-zone-id="11215847_050_01" d="M 426.47 678.72 L 422.69 677.34 L 323.95 641.17 L 318.49 639.17 L 308.70 635.60 L 305.15 634.35 L 277.46 624.62 L 270.58 622.20 L 179.81 590.32 L 179.46 590.20 L 108.41 565.15 L 101.52 562.73 L 103.05 558.58 L 110.51 539.82 L 121.43 508.12 L 121.64 507.50 L 132.97 474.57 L 138.04 459.86 L 151.81 420.19 L 159.64 422.74 L 170.98 426.46 L 176.58 428.30 L 258.33 457.20 L 277.99 464.15 L 319.87 479.54 L 335.51 485.73 L 339.27 487.22 L 350.60 490.85 L 357.46 493.06 L 396.16 506.44 L 420.62 514.69 L 428.32 516.93 L 432.67 524.17 L 434.23 526.78 L 441.56 539.02 L 442.47 540.52 L 456.40 572.58 L 477.11 624.04 L 487.23 646.27 L 489.32 650.85 L 504.24 686.54 L 504.70 690.92 L 503.04 698.13 L 501.29 705.69 L 487.41 701.03 L 426.47 678.72 Z "/>
<path class="zone" data-zone-id="11215847_050_02" d="M 154.65 412.02 L 169.04 371.05 L 169.76 369.00 L 187.03 319.81 L 200.32 281.95 L 218.92 227.99 L 231.53 191.16 L 235.73 178.89 L 243.03 157.54 L 249.45 138.76 L 249.45 138.76 L 250.07 138.97 L 327.70 165.35 L 400.00 188.69 L 517.13 226.50 L 525.48 229.66 L 530.12 231.42 L 557.72 241.88 L 571.90 247.70 L 602.35 259.99 L 607.01 261.87 L 607.01 261.87 L 599.83 284.39 L 600.50 285.25 L 651.19 350.24 L 651.24 350.30 L 686.25 394.87 L 698.95 411.01 L 721.83 439.65 L 722.05 439.92 L 737.48 459.23 L 759.74 487.06 L 759.80 487.14 L 801.15 536.24 L 815.15 550.94 L 784.66 614.62 L 783.87 616.26 L 748.58 690.05 L 748.29 690.66 L 747.56 692.32 L 745.63 696.68 L 740.41 713.42 L 737.29 723.12 L 736.05 726.96 L 721.41 772.41 L 719.29 778.98 L 676.77 764.64 L 670.05 762.38 L 665.39 760.81 L 637.11 751.31 L 593.01 736.50 L 592.84 736.44 L 519.50 711.81 L 513.53 709.80 L 512.91 709.60 L 501.29 705.69 L 503.04 698.13 L 504.70 690.92 L 504.24 686.54 L 489.32 650.85 L 487.23 646.27 L 477.11 624.04 L 456.40 572.58 L 442.47 540.52 L 441.56 539.02 L 434.23 526.78 L 432.67 524.17 L 428.32 516.93 L 420.62 514.69 L 396.16 506.44 L 357.46 493.06 L 350.60 490.85 L 339.27 487.22 L 335.51 485.73 L 319.87 479.54 L 277.99 464.15 L 258.33 457.20 L 176.58 428.30 L 170.98 426.46 L 159.64 422.74 L 151.81 420.19 L 154.65 412.02 Z "/>
<path class="zone" data-zone-id="11215847_050_03" d="M 607.01 261.87 L 607.18 261.94 L 709.55 294.44 L 735.55 302.69 L 750.08 307.31 L 887.57 350.95 L 872.58 395.47 L 867.91 408.17 L 865.02 416.01 L 864.94 416.24 L 851.00 453.93 L 836.42 493.40 L 815.15 550.94 L 801.15 536.24 L 759.80 487.14 L 759.74 487.06 L 737.48 459.23 L 722.05 439.92 L 721.83 439.65 L 698.95 411.01 L 686.25 394.87 L 651.24 350.30 L 651.19 350.24 L 600.50 285.25 L 599.83 284.39 L 607.01 261.87 L 607.01 261.87 Z "/>
<path class="zone" data-zone-id="11215847_050_04" d="M 975.21 378.59 L 1052.48 402.25 L 1052.48 402.25 L 1000.23 547.65 L 988.36 581.96 L 988.36 581.96 L 982.16 599.89 L 982.03 600.24 L 975.95 617.81 L 951.69 687.96 L 951.69 687.96 L 951.21 689.34 L 951.21 689.34 L 951.21 689.34 L 934.94 671.75 L 932.41 669.03 L 928.35 664.64 L 884.86 618.13 L 882.57 616.10 L 878.80 613.70 L 876.89 612.78 L 876.23 612.42 L 872.74 610.52 L 869.73 608.27 L 815.15 550.94 L 836.42 493.40 L 851.00 453.93 L 864.94 416.24 L 865.02 416.01 L 867.91 408.17 L 872.58 395.47 L 887.57 350.95 L 888.81 351.34 L 889.52 351.57 L 939.48 367.33 L 971.01 377.26 L 975.21 378.59 Z "/>
<path class="zone" data-zone-id="11215847_050_00" d="M 798.05 805.53 L 867.56 828.82 L 882.65 833.88 L 894.33 837.79 L 894.33 837.79 L 892.80 841.70 L 827.54 1016.25 L 827.54 1016.25 L 827.54 1016.25 L 816.93 1012.28 L 816.93 1012.28 L 801.36 1006.44 L 683.47 962.25 L 704.23 904.13 L 687.39 897.57 L 676.97 893.51 L 718.68 778.77 L 719.29 778.98 L 719.33 778.99 L 724.65 780.78 L 787.32 801.91 L 798.05 805.53 Z "/>
<path class="zone" data-zone-id="11215847_050_01" d="M 586.70 930.84 L 584.20 930.11 L 545.49 874.03 L 536.89 860.89 L 534.58 857.37 L 537.05 856.62 L 547.49 851.05 L 563.65 838.44 L 563.92 838.23 L 571.41 831.64 L 592.20 816.27 L 620.47 796.52 L 628.22 792.14 L 655.38 772.66 L 660.34 766.80 L 665.39 760.81 L 670.05 762.38 L 676.77 764.64 L 711.47 776.34 L 718.68 778.77 L 676.97 893.51 L 687.39 897.57 L 704.23 904.13 L 683.47 962.25 L 673.51 958.52 L 655.95 953.14 L 641.36 948.68 L 641.00 948.56 L 586.70 930.84 Z "/>
<path class="zone" data-zone-id="11215847_050_06" d="M 867.56 828.82 L 798.05 805.53 L 787.32 801.91 L 719.33 778.99 L 719.29 778.98 L 721.41 772.41 L 736.05 726.96 L 737.29 723.12 L 740.41 713.42 L 745.63 696.68 L 747.56 692.32 L 748.29 690.66 L 748.58 690.05 L 783.87 616.26 L 784.66 614.62 L 815.15 550.94 L 869.73 608.27 L 872.74 610.52 L 876.23 612.42 L 876.89 612.78 L 878.80 613.70 L 882.57 616.10 L 884.86 618.13 L 928.35 664.64 L 932.41 669.03 L 934.94 671.75 L 951.21 689.34 L 951.21 689.34 L 940.15 721.32 L 938.93 724.40 L 911.02 795.38 L 894.33 837.79 L 894.33 837.79 L 894.33 837.79 L 867.56 828.82 Z "/>
</svg>
