<svg xmlns="http://www.w3.org/2000/svg" viewBox="0 0 1155 1155" width="1155" height="1155">
<path class="zone" data-zone-id="11215860_010_00" d="M 972.22 720.87 L 949.41 772.86 L 929.38 805.18 L 914.41 827.90 L 910.43 833.95 L 886.06 838.89 L 854.40 867.13 L 837.47 886.28 L 796.14 857.81 L 777.61 854.03 L 754.07 860.18 L 749.37 861.41 L 730.13 866.43 L 712.66 878.13 L 688.36 879.50 L 673.30 887.35 L 653.94 897.45 L 639.09 915.97 L 638.77 924.72 L 626.08 932.84 L 624.16 934.06 L 620.76 936.24 L 618.99 934.07 L 610.86 927.57 L 604.87 923.80 L 590.50 913.69 L 569.31 903.70 L 525.90 882.75 L 482.59 862.13 L 471.26 857.23 L 460.20 855.06 L 452.36 852.29 L 445.19 848.42 L 429.05 834.93 L 428.85 834.77 L 437.08 824.91 L 455.86 799.64 L 456.23 796.58 L 455.84 793.69 L 446.32 785.35 L 412.81 758.54 L 381.82 733.98 L 378.11 731.49 L 374.18 737.16 L 363.36 737.35 L 322.44 737.68 L 307.99 737.79 L 307.41 737.67 L 304.61 737.67 L 288.82 737.66 L 271.69 737.72 L 262.05 737.41 L 251.18 737.06 L 247.03 736.36 L 242.29 735.18 L 237.33 733.94 L 224.23 730.55 L 217.05 728.37 L 215.90 727.68 L 213.56 725.64 L 212.92 724.79 L 212.57 724.12 L 209.14 717.67 L 208.86 717.78 L 192.63 723.43 L 171.39 728.13 L 171.28 728.13 L 158.24 728.25 L 151.67 727.69 L 133.45 723.51 L 131.00 722.95 L 118.22 717.06 L 108.57 710.62 L 107.99 710.22 L 107.76 710.06 L 107.76 710.06 L 104.53 707.67 L 97.54 702.50 L 83.81 688.43 L 81.01 685.91 L 79.70 684.73 L 79.06 684.16 L 77.44 682.70 L 76.80 673.58 L 79.69 670.64 L 91.25 656.43 L 98.33 647.72 L 99.47 646.33 L 106.53 637.65 L 107.11 636.94 L 107.52 636.72 L 118.58 630.76 L 123.56 628.08 L 129.65 624.80 L 132.78 623.11 L 140.71 618.84 L 142.18 618.05 L 151.51 613.03 L 160.80 608.02 L 162.58 607.07 L 170.16 602.98 L 173.59 601.13 L 175.71 599.99 L 181.75 592.88 L 182.62 591.85 L 185.16 588.87 L 186.88 586.84 L 195.48 576.72 L 201.86 569.21 L 202.60 568.34 L 211.84 557.46 L 216.04 552.52 L 225.10 541.86 L 225.59 541.28 L 226.23 540.53 L 228.75 539.42 L 236.65 535.93 L 244.37 532.02 L 246.35 530.94 L 246.67 530.76 L 246.99 531.42 L 252.67 528.70 L 252.21 527.74 L 252.66 527.50 L 267.83 519.50 L 268.04 519.13 L 268.04 519.13 L 270.48 518.23 L 325.66 497.82 L 331.84 495.53 L 396.42 474.15 L 410.47 467.39 L 413.23 466.07 L 434.88 437.74 L 513.23 368.95 L 598.75 316.34 L 677.02 306.23 L 697.54 297.30 L 782.06 260.52 L 787.28 254.43 L 841.06 218.76 L 847.12 225.59 L 842.44 227.84 L 853.38 238.14 L 885.58 244.98 L 885.59 244.99 L 888.53 246.02 L 901.03 279.65 L 928.10 309.46 L 950.53 334.15 L 969.51 354.93 L 985.21 372.20 L 990.93 378.36 L 1002.59 387.75 L 1022.68 403.55 L 1029.08 420.38 L 1032.83 430.97 L 1037.39 442.08 L 1047.64 467.04 L 1055.01 484.60 L 1069.64 511.34 L 1078.20 526.99 L 1078.20 526.99 L 1078.20 526.99 L 1065.37 591.09 L 1047.95 678.29 L 1025.20 683.17 L 1020.35 684.21 L 1009.20 689.38 L 1007.08 690.37 L 988.51 707.60 L 977.12 717.70 L 972.22 720.87 Z M 274.53 702.73 L 266.78 703.26 L 274.53 702.73 L 274.53 702.73 Z M 276.05 702.63 L 274.53 702.73 L 274.53 702.73 L 276.05 702.63 Z "/>
</svg>
