<svg xmlns="http://www.w3.org/2000/svg" viewBox="0 0 1154 1155" width="1154" height="1155">
<path class="zone" data-zone-id="11215770_021_01" d="M 342.46 351.89 L 342.45 351.85 L 341.06 342.84 L 337.32 318.62 L 337.29 318.45 L 332.19 285.46 L 332.08 284.74 L 326.99 251.77 L 326.98 251.73 L 326.98 251.71 L 326.98 251.70 L 326.97 251.68 L 326.88 251.11 L 321.78 218.11 L 321.74 217.82 L 316.95 185.14 L 316.87 184.58 L 311.79 149.95 L 308.68 127.55 L 324.98 235.00 L 327.40 251.02 L 327.51 251.68 L 332.51 284.70 L 352.54 416.78 L 332.51 284.70 L 327.51 251.68 L 339.08 249.71 L 341.76 249.25 L 364.21 245.51 L 385.33 242.22 L 388.24 241.77 L 393.65 241.12 L 416.21 237.65 L 427.02 235.96 L 431.26 235.33 L 434.66 234.84 L 434.71 235.15 L 441.94 285.89 L 442.58 288.85 L 449.31 334.06 L 450.94 340.86 L 451.94 346.99 L 452.46 350.30 L 454.57 363.67 L 455.34 368.57 L 455.74 371.06 L 456.30 374.65 L 456.49 374.71 L 458.05 384.11 L 460.50 401.31 L 460.45 401.32 L 456.97 401.87 L 452.16 402.63 L 447.94 403.24 L 434.39 405.29 L 420.86 407.28 L 413.70 408.49 L 412.18 409.48 L 410.39 410.65 L 410.08 410.85 L 407.24 412.44 L 390.62 414.97 L 383.71 416.00 L 382.08 416.24 L 365.27 418.52 L 352.60 420.23 L 352.51 419.17 L 347.49 385.53 L 347.41 385.02 L 342.46 351.89 Z "/>
<path class="zone" data-zone-id="11215770_021_02" d="M 327.40 251.02 L 308.68 127.54 L 303.95 93.48 L 303.94 93.45 L 303.93 93.35 L 303.67 91.44 L 315.78 89.72 L 317.02 89.54 L 325.52 88.47 L 336.06 87.14 L 337.50 86.95 L 337.59 86.94 L 360.95 83.62 L 360.95 83.62 L 360.96 83.62 L 372.03 82.18 L 373.81 81.94 L 404.10 78.41 L 410.26 77.04 L 410.95 81.04 L 411.61 84.83 L 412.51 91.51 L 412.99 95.08 L 414.88 109.33 L 416.66 122.25 L 418.05 130.10 L 418.98 134.99 L 419.39 137.20 L 420.59 143.49 L 422.66 156.17 L 424.18 166.88 L 425.23 174.25 L 428.76 197.22 L 429.19 199.95 L 431.90 216.89 L 432.63 221.47 L 434.66 234.84 L 431.26 235.33 L 427.02 235.96 L 416.21 237.65 L 393.65 241.12 L 388.24 241.77 L 385.33 242.22 L 364.21 245.51 L 341.76 249.25 L 339.08 249.71 L 327.51 251.68 L 327.40 251.02 Z "/>
<path class="zone" data-zone-id="11215770_021_03" d="M 470.07 515.56 L 462.86 515.29 L 448.29 513.90 L 446.91 513.78 L 434.77 512.73 L 427.90 511.44 L 427.20 507.34 L 424.59 488.84 L 421.79 468.94 L 419.63 453.07 L 417.23 437.18 L 417.06 436.02 L 414.40 417.71 L 411.44 412.50 L 410.39 410.65 L 412.18 409.48 L 413.70 408.49 L 420.86 407.28 L 434.39 405.29 L 447.94 403.24 L 452.16 402.63 L 456.97 401.87 L 460.45 401.32 L 460.50 401.31 L 461.20 406.18 L 463.64 423.26 L 464.17 427.01 L 472.48 481.93 L 475.46 501.58 L 477.61 515.83 L 476.52 515.79 L 470.07 515.56 Z "/>
<path class="zone" data-zone-id="11215770_021_00" d="M 578.15 529.27 L 572.76 579.12 L 572.41 582.60 L 571.69 589.97 L 571.46 589.94 L 571.29 589.92 L 552.95 589.90 L 540.94 590.58 L 520.74 592.64 L 501.29 596.89 L 500.95 596.97 L 488.16 599.92 L 487.70 600.00 L 476.89 601.89 L 470.99 602.56 L 463.77 603.09 L 463.55 603.11 L 459.67 603.02 L 457.39 602.97 L 451.23 602.30 L 451.12 602.28 L 443.70 601.09 L 439.82 600.35 L 438.78 592.23 L 434.40 558.23 L 430.69 530.63 L 428.88 517.18 L 427.90 511.44 L 434.77 512.73 L 446.91 513.78 L 448.29 513.90 L 462.86 515.29 L 470.07 515.56 L 476.52 515.79 L 477.61 515.83 L 477.75 516.74 L 571.49 525.85 L 578.45 526.53 L 578.15 529.27 Z "/>
<path class="zone" data-zone-id="11215770_021_05" d="M 568.47 622.26 L 552.85 639.55 L 550.48 642.03 L 535.91 657.93 L 525.98 668.56 L 510.28 654.38 L 510.16 654.27 L 505.97 650.47 L 490.24 636.23 L 490.19 636.19 L 482.40 629.16 L 476.10 623.41 L 475.61 622.96 L 475.10 622.47 L 467.76 615.41 L 466.94 614.10 L 466.41 612.25 L 466.00 610.83 L 463.77 603.09 L 470.99 602.56 L 476.89 601.89 L 488.16 599.92 L 500.95 596.97 L 501.29 596.89 L 520.74 592.64 L 540.94 590.58 L 552.95 589.90 L 571.29 589.92 L 571.46 589.94 L 571.69 589.97 L 570.65 600.54 L 569.88 608.21 L 568.47 622.26 Z "/>
<path class="zone" data-zone-id="11215770_021_00" d="M 835.62 1049.26 L 829.28 1056.09 L 816.02 1070.43 L 812.92 1074.28 L 809.60 1077.98 L 793.89 1063.94 L 793.55 1063.64 L 789.71 1060.21 L 788.16 1058.82 L 776.19 1048.13 L 757.91 1031.80 L 746.97 1022.03 L 735.52 1011.80 L 722.74 1000.40 L 744.22 976.34 L 757.13 961.75 L 759.14 959.54 L 763.71 954.49 L 781.92 934.40 L 785.59 937.73 L 786.39 938.54 L 793.35 944.84 L 795.36 946.65 L 800.78 951.55 L 804.53 954.95 L 808.47 958.50 L 815.94 965.24 L 819.65 968.59 L 823.74 972.27 L 824.24 972.73 L 828.52 976.59 L 837.32 984.52 L 844.79 991.26 L 847.49 991.07 L 848.64 1004.90 L 849.29 1014.20 L 849.67 1019.94 L 848.40 1022.01 L 844.84 1027.78 L 845.53 1028.43 L 850.32 1032.49 L 845.77 1037.68 L 836.00 1048.82 L 835.62 1049.26 Z M 795.63 1026.10 L 789.17 1033.42 L 776.19 1048.13 L 795.63 1026.10 Z M 759.95 1007.32 L 772.93 992.62 L 746.97 1022.03 L 759.95 1007.32 Z "/>
<path class="zone" data-zone-id="11215770_021_00" d="M 634.83 921.86 L 643.18 912.48 L 654.90 899.32 L 656.04 898.04 L 670.42 881.95 L 671.30 880.94 L 675.99 875.60 L 680.92 870.19 L 682.70 868.16 L 693.68 855.80 L 711.87 835.39 L 720.11 842.87 L 725.68 847.20 L 728.03 848.89 L 729.69 850.38 L 729.92 850.25 L 733.31 848.32 L 758.32 834.14 L 759.73 836.71 L 765.54 846.87 L 770.63 855.76 L 757.90 863.12 L 757.05 867.11 L 762.66 877.31 L 758.81 879.50 L 764.12 889.04 L 764.58 889.87 L 769.50 898.70 L 778.43 894.34 L 779.77 896.77 L 784.54 905.36 L 790.86 916.76 L 788.46 919.43 L 778.12 930.95 L 781.92 934.40 L 774.60 942.48 L 763.71 954.49 L 759.14 959.54 L 757.13 961.75 L 744.22 976.34 L 722.74 1000.40 L 710.34 989.31 L 696.00 976.50 L 680.96 963.07 L 673.21 956.14 L 634.83 921.86 Z "/>
<path class="zone" data-zone-id="11215770_021_08" d="M 634.83 921.86 L 621.45 909.90 L 608.27 898.13 L 608.24 898.11 L 603.91 894.25 L 599.64 890.42 L 599.62 890.40 L 590.57 882.31 L 574.71 868.14 L 548.18 844.45 L 553.27 838.41 L 569.02 820.86 L 581.49 806.94 L 584.54 803.56 L 589.41 798.15 L 591.81 800.31 L 639.69 843.13 L 671.37 871.46 L 675.99 875.60 L 671.30 880.94 L 670.42 881.95 L 656.04 898.04 L 654.90 899.32 L 643.18 912.48 L 634.83 921.86 Z "/>
<path class="zone" data-zone-id="11215770_021_09" d="M 461.09 765.20 L 460.97 765.32 L 459.97 765.43 L 452.56 766.27 L 430.68 768.74 L 405.40 771.60 L 392.91 773.01 L 388.19 737.55 L 386.18 722.26 L 386.17 722.24 L 380.53 679.34 L 378.84 666.47 L 377.85 658.70 L 376.75 650.10 L 376.57 648.70 L 376.55 648.57 L 375.41 639.64 L 375.39 639.47 L 375.39 639.42 L 373.34 623.46 L 373.31 623.24 L 385.12 622.10 L 385.96 622.00 L 397.43 625.36 L 422.96 647.51 L 425.67 649.86 L 454.49 675.75 L 475.33 694.48 L 489.95 707.62 L 502.46 718.86 L 497.24 724.71 L 491.85 730.73 L 467.46 758.05 L 464.88 760.94 L 461.48 764.76 L 461.09 765.20 Z "/>
<path class="zone" data-zone-id="11215770_021_10" d="M 363.37 545.95 L 362.59 540.08 L 362.22 537.27 L 360.73 519.14 L 360.72 519.00 L 352.66 420.97 L 352.60 420.23 L 365.27 418.52 L 382.08 416.24 L 383.71 416.00 L 390.62 414.97 L 407.24 412.44 L 410.08 410.85 L 410.39 410.65 L 411.44 412.50 L 414.40 417.71 L 417.06 436.02 L 417.23 437.18 L 419.63 453.07 L 421.79 468.94 L 424.59 488.84 L 427.20 507.34 L 427.90 511.44 L 428.88 517.18 L 430.69 530.63 L 434.40 558.23 L 438.78 592.23 L 439.82 600.35 L 443.70 601.09 L 451.23 602.30 L 457.39 602.97 L 459.67 603.02 L 463.55 603.11 L 463.77 603.09 L 466.00 610.83 L 466.41 612.25 L 466.94 614.10 L 467.76 615.41 L 475.10 622.47 L 475.61 622.96 L 476.10 623.41 L 482.40 629.16 L 490.19 636.19 L 490.24 636.23 L 505.97 650.47 L 510.16 654.27 L 510.28 654.38 L 525.98 668.56 L 525.98 668.56 L 507.35 688.75 L 496.98 700.12 L 495.09 702.14 L 489.95 707.62 L 475.33 694.48 L 454.49 675.75 L 425.67 649.86 L 422.96 647.51 L 397.43 625.36 L 385.96 622.00 L 385.12 622.10 L 373.31 623.24 L 370.36 600.20 L 369.53 593.76 L 368.00 581.76 L 364.76 556.53 L 363.37 545.95 Z "/>
<path class="zone" data-zone-id="11215770_021_11" d="M 467.46 758.05 L 491.85 730.73 L 497.24 724.71 L 502.46 718.86 L 504.57 720.75 L 516.66 732.61 L 521.38 737.24 L 530.77 745.64 L 536.64 750.90 L 537.08 751.30 L 548.66 761.66 L 568.06 779.04 L 589.41 798.15 L 584.54 803.56 L 581.49 806.94 L 569.02 820.86 L 553.27 838.41 L 548.18 844.45 L 540.89 852.28 L 534.18 859.94 L 533.20 860.78 L 532.17 861.13 L 531.34 861.30 L 531.33 861.30 L 530.31 861.51 L 525.02 862.29 L 517.78 863.09 L 516.42 863.26 L 508.62 864.25 L 508.29 864.30 L 492.55 866.82 L 491.90 866.91 L 474.62 869.12 L 472.12 850.11 L 469.04 826.67 L 467.70 816.53 L 463.17 782.39 L 462.78 778.91 L 464.06 767.95 L 463.86 767.76 L 461.09 765.20 L 461.48 764.76 L 464.88 760.94 L 467.46 758.05 Z "/>
<path class="zone" data-zone-id="11215770_021_12" d="M 680.92 870.19 L 675.99 875.60 L 671.37 871.46 L 639.69 843.13 L 591.81 800.31 L 589.41 798.15 L 594.47 792.30 L 597.01 789.34 L 608.34 777.04 L 625.37 758.08 L 625.80 757.60 L 630.88 761.94 L 669.53 796.50 L 708.27 831.13 L 712.37 834.82 L 717.37 839.32 L 728.03 848.89 L 725.68 847.20 L 720.11 842.87 L 711.87 835.39 L 693.68 855.80 L 682.70 868.16 L 680.92 870.19 Z "/>
<path class="zone" data-zone-id="11215770_021_13" d="M 608.34 777.04 L 597.01 789.34 L 594.47 792.30 L 589.41 798.15 L 568.06 779.04 L 548.66 761.66 L 537.08 751.30 L 536.64 750.90 L 530.77 745.64 L 521.38 737.24 L 516.66 732.61 L 504.57 720.75 L 502.46 718.86 L 489.95 707.62 L 495.09 702.14 L 496.98 700.12 L 507.35 688.75 L 525.98 668.56 L 525.98 668.56 L 535.91 657.93 L 550.48 642.03 L 552.85 639.55 L 526.57 668.64 L 621.03 753.52 L 625.80 757.60 L 625.37 758.08 L 608.34 777.04 Z "/>
</svg>
