<svg xmlns="http://www.w3.org/2000/svg" viewBox="0 0 1154 1155" width="1154" height="1155">
<path class="zone" data-zone-id="11215840_070_00" d="M 824.98 849.11 L 839.01 870.32 L 870.82 913.74 L 864.41 932.09 L 843.54 990.40 L 834.47 1015.75 L 830.60 1014.34 L 749.86 984.91 L 524.85 900.61 L 619.51 854.60 L 645.19 841.82 L 645.30 842.06 L 779.39 776.88 L 824.98 849.11 Z "/>
<path class="zone" data-zone-id="11215840_070_01" d="M 652.09 949.27 L 496.39 892.53 L 495.49 892.20 L 504.26 868.30 L 567.40 696.21 L 576.71 699.26 L 741.70 753.24 L 764.11 757.01 L 895.06 804.56 L 907.40 809.05 L 870.82 913.74 L 839.01 870.32 L 824.98 849.11 L 779.39 776.88 L 645.30 842.06 L 645.19 841.82 L 619.51 854.60 L 524.85 900.61 L 749.86 984.91 L 652.09 949.27 Z "/>
<path class="zone" data-zone-id="11215840_070_00" d="M 567.96 694.67 L 567.40 696.21 L 524.83 812.23 L 504.26 868.30 L 495.49 892.20 L 495.49 892.20 L 424.34 865.64 L 417.34 863.03 L 403.60 857.90 L 318.35 826.09 L 318.35 826.09 L 326.91 802.47 L 350.12 738.43 L 460.29 434.45 L 461.58 430.93 L 483.67 439.24 L 501.17 445.17 L 626.66 487.66 L 634.70 490.52 L 641.28 492.85 L 641.03 493.55 L 621.91 548.01 L 598.89 610.58 L 567.96 694.67 Z "/>
<path class="zone" data-zone-id="11215840_070_00" d="M 283.91 775.87 L 252.46 764.45 L 221.01 753.04 L 166.52 733.26 L 193.53 659.13 L 309.34 597.36 L 327.20 622.06 L 370.58 681.99 L 330.43 792.76 L 283.91 775.87 Z "/>
<path class="zone" data-zone-id="11215840_070_01" d="M 115.36 748.17 L 115.13 748.10 L 115.13 748.10 L 115.37 747.43 L 204.71 514.03 L 265.35 355.61 L 294.32 366.74 L 445.95 425.05 L 461.58 430.93 L 460.29 434.45 L 370.58 681.99 L 327.20 622.06 L 309.34 597.36 L 193.53 659.13 L 166.52 733.26 L 221.01 753.04 L 252.46 764.45 L 283.91 775.87 L 330.43 792.76 L 326.91 802.47 L 318.35 826.09 L 318.35 826.09 L 317.74 825.86 L 115.36 748.17 Z "/>
<path class="zone" data-zone-id="11215840_070_00" d="M 479.63 381.48 L 471.63 403.42 L 461.58 430.93 L 445.95 425.05 L 294.61 366.85 L 294.32 366.74 L 265.35 355.61 L 267.50 349.99 L 283.28 308.78 L 293.37 281.88 L 325.28 196.84 L 346.86 139.31 L 346.86 139.31 L 373.91 150.41 L 377.10 151.71 L 400.78 161.43 L 461.56 187.78 L 539.79 221.69 L 532.85 239.86 L 527.59 253.65 L 504.89 313.51 L 493.04 344.77 L 479.63 381.48 Z "/>
<path class="zone" data-zone-id="11215840_070_00" d="M 493.04 344.77 L 527.59 253.65 L 532.85 239.86 L 537.76 227.00 L 539.79 221.69 L 545.30 224.08 L 708.37 294.78 L 710.49 295.68 L 704.49 312.99 L 703.88 314.76 L 641.28 492.85 L 634.70 490.52 L 626.66 487.66 L 546.49 460.52 L 483.67 439.24 L 461.58 430.93 L 483.74 370.23 L 493.04 344.77 Z "/>
<path class="zone" data-zone-id="11215840_070_00" d="M 907.40 809.05 L 895.06 804.56 L 764.11 757.01 L 741.70 753.24 L 712.52 743.70 L 576.71 699.26 L 567.40 696.21 L 567.96 694.67 L 612.71 573.01 L 621.91 548.01 L 639.16 498.87 L 641.03 493.55 L 641.28 492.85 L 673.83 400.24 L 703.88 314.76 L 704.49 312.99 L 709.01 299.93 L 710.49 295.68 L 714.27 297.28 L 1035.80 433.47 L 1036.09 433.60 L 1038.84 434.76 L 1037.58 438.17 L 1032.62 451.58 L 1031.25 455.28 L 907.48 808.81 L 907.40 809.05 Z "/>
</svg>
