<svg xmlns="http://www.w3.org/2000/svg" viewBox="0 0 1155 1155" width="1155" height="1155">
<path class="zone" data-zone-id="11215810_100_01" d="M 225.33 573.36 L 229.67 548.46 L 234.01 527.80 L 240.16 499.95 L 244.46 485.91 L 246.87 478.34 L 249.53 470.51 L 254.82 457.88 L 264.96 439.23 L 270.21 431.47 L 282.14 417.05 L 288.61 410.26 L 295.07 404.31 L 301.42 398.53 L 309.12 392.44 L 314.28 389.10 L 321.48 385.04 L 333.18 378.70 L 343.95 373.46 L 352.80 369.89 L 360.46 366.92 L 379.48 361.79 L 385.92 360.43 L 402.20 357.70 L 417.90 355.58 L 468.51 349.41 L 524.09 341.68 L 533.96 339.33 L 545.92 336.00 L 559.24 329.23 L 569.94 319.24 L 575.81 310.63 L 581.30 300.81 L 584.50 292.64 L 593.28 268.57 L 596.33 256.61 L 601.49 231.32 L 603.57 217.86 L 605.67 201.38 L 606.54 184.79 L 607.29 156.45 L 608.03 144.00 L 610.28 123.87 L 615.19 105.09 L 617.74 99.50 L 625.08 116.28 L 626.33 119.16 L 628.25 123.34 L 629.25 125.10 L 631.01 127.51 L 639.46 137.45 L 641.57 139.77 L 650.24 147.61 L 655.28 151.98 L 657.71 153.74 L 659.54 153.98 L 661.39 152.99 L 662.92 151.74 L 669.13 145.96 L 670.72 144.40 L 688.19 124.14 L 693.39 118.53 L 701.33 110.80 L 702.50 109.66 L 705.29 108.47 L 707.96 108.24 L 711.40 108.58 L 773.91 129.31 L 777.46 131.06 L 779.55 132.93 L 782.75 136.78 L 786.32 140.96 L 819.61 182.29 L 833.64 202.79 L 835.75 206.31 L 868.78 268.31 L 873.83 280.30 L 881.39 299.09 L 889.08 324.04 L 902.14 370.96 L 910.86 404.92 L 911.00 405.30 L 921.93 434.90 L 922.11 435.42 L 933.88 469.31 L 949.01 512.87 L 954.01 533.95 L 960.10 557.36 L 965.07 574.07 L 967.58 582.50 L 956.33 590.23 L 950.31 594.45 L 932.51 605.74 L 919.61 613.92 L 911.92 619.25 L 881.75 641.18 L 866.17 652.43 L 870.36 655.92 L 875.79 660.45 L 887.16 668.30 L 891.14 671.57 L 896.02 676.53 L 907.94 698.36 L 915.56 712.43 L 915.86 712.98 L 919.77 720.39 L 923.43 726.30 L 930.10 734.70 L 939.70 744.77 L 942.69 747.90 L 954.42 758.76 L 968.67 771.28 L 971.52 774.36 L 973.61 777.61 L 977.47 789.87 L 977.69 790.55 L 971.21 792.59 L 966.59 794.04 L 948.64 799.67 L 943.99 801.13 L 912.09 811.14 L 887.44 818.88 L 840.97 833.46 L 831.62 836.40 L 831.59 836.76 L 833.46 852.84 L 841.89 901.31 L 842.69 905.12 L 843.86 910.76 L 845.47 918.44 L 838.46 922.08 L 828.56 928.36 L 807.86 941.47 L 804.99 943.29 L 756.28 976.46 L 712.46 1006.38 L 664.77 1036.22 L 632.21 1055.49 L 481.09 987.80 L 267.62 894.58 L 177.30 855.13 L 177.30 855.13 L 181.13 827.75 L 201.90 717.41 L 202.24 713.73 L 202.54 705.38 L 203.62 691.19 L 204.30 682.83 L 210.46 655.52 L 213.76 638.66 L 217.08 619.99 L 225.33 573.36 Z "/>
</svg>
