<svg xmlns="http://www.w3.org/2000/svg" viewBox="0 0 1155 1155" width="1155" height="1155">
<path class="zone" data-zone-id="11215847_010_01" d="M 768.10 1021.25 L 600.83 938.96 L 514.25 896.75 L 494.13 887.46 L 463.79 873.85 L 452.07 868.33 L 394.87 845.46 L 350.38 827.75 L 325.88 817.97 L 303.34 809.03 L 295.61 805.97 L 285.17 801.79 L 235.05 781.78 L 201.32 768.39 L 161.00 752.35 L 160.32 752.07 L 140.25 744.06 L 81.74 720.71 L 79.33 719.72 L 79.69 718.91 L 79.91 719.00 L 147.80 565.97 L 214.63 415.89 L 227.94 386.00 L 236.57 366.70 L 241.01 356.77 L 280.29 268.93 L 298.92 227.97 L 350.91 113.71 L 370.41 119.79 L 803.01 262.08 L 1075.66 341.52 L 1075.68 341.53 L 1075.67 341.56 L 809.22 1041.30 L 768.10 1021.25 Z "/>
</svg>
