<svg xmlns="http://www.w3.org/2000/svg" viewBox="0 0 1155 1155" width="1155" height="1155">
<path class="zone" data-zone-id="11215760_030_01" d="M 567.60 1029.91 L 483.25 992.51 L 489.61 980.22 L 503.86 949.42 L 524.65 904.51 L 576.40 787.05 L 601.80 729.23 L 601.96 728.86 L 620.66 686.39 L 621.96 683.46 L 640.83 640.67 L 640.98 640.32 L 671.05 653.73 L 700.87 667.03 L 714.71 673.23 L 716.32 673.95 L 716.46 674.01 L 743.93 686.27 L 765.18 695.75 L 711.95 815.16 L 699.85 842.52 L 677.18 893.76 L 675.04 898.58 L 613.30 1042.23 L 610.25 1048.98 L 587.34 1038.66 L 567.60 1029.91 Z "/>
<path class="zone" data-zone-id="11215760_030_02" d="M 483.25 992.51 L 430.13 969.12 L 395.83 953.84 L 379.42 946.53 L 365.26 940.24 L 362.83 939.15 L 313.00 916.99 L 278.47 901.63 L 258.13 892.51 L 258.13 892.51 L 261.82 884.31 L 277.34 849.53 L 277.57 849.01 L 300.97 796.40 L 301.08 796.13 L 320.46 752.57 L 320.69 752.05 L 329.95 731.20 L 329.99 731.11 L 342.15 703.76 L 365.13 652.02 L 377.73 623.68 L 411.69 547.37 L 412.19 546.32 L 414.76 540.88 L 448.22 555.49 L 456.13 558.94 L 479.27 569.05 L 494.47 575.68 L 497.15 576.85 L 497.38 576.95 L 531.77 591.91 L 531.84 591.94 L 558.95 603.97 L 559.26 604.11 L 603.86 623.85 L 640.19 639.97 L 640.98 640.32 L 640.83 640.67 L 621.96 683.46 L 620.66 686.39 L 601.96 728.86 L 601.80 729.23 L 576.40 787.05 L 524.65 904.51 L 503.86 949.42 L 489.61 980.22 L 483.25 992.51 Z "/>
<path class="zone" data-zone-id="11215760_030_03" d="M 258.13 892.51 L 209.82 870.87 L 199.06 866.20 L 142.73 841.74 L 131.22 837.45 L 131.22 837.45 L 146.83 801.96 L 155.23 782.83 L 167.41 755.14 L 180.08 726.33 L 191.01 701.46 L 193.92 694.90 L 220.85 634.18 L 231.11 611.22 L 232.95 607.08 L 246.58 576.59 L 254.52 558.82 L 278.35 504.74 L 287.13 484.79 L 298.38 489.75 L 331.63 504.40 L 356.07 515.17 L 357.14 515.64 L 357.98 516.01 L 358.13 516.08 L 383.60 527.16 L 383.91 527.29 L 385.28 527.89 L 411.52 539.45 L 413.58 540.36 L 414.59 540.80 L 414.76 540.88 L 412.19 546.32 L 411.69 547.37 L 377.73 623.68 L 365.13 652.02 L 342.15 703.76 L 329.99 731.11 L 329.95 731.20 L 320.69 752.05 L 320.46 752.57 L 301.08 796.13 L 300.97 796.40 L 277.57 849.01 L 277.34 849.53 L 261.82 884.31 L 258.13 892.51 Z "/>
<path class="zone" data-zone-id="11215760_030_04" d="M 287.77 483.35 L 318.05 414.62 L 340.14 364.47 L 348.06 346.48 L 359.83 351.69 L 388.14 364.23 L 416.23 377.34 L 417.89 378.11 L 420.51 379.30 L 461.78 398.06 L 513.96 421.78 L 514.12 421.85 L 515.83 422.60 L 517.01 423.12 L 582.74 451.99 L 583.07 452.13 L 635.26 474.92 L 636.15 475.31 L 699.49 503.01 L 699.54 503.03 L 752.34 526.27 L 768.09 533.20 L 825.57 559.46 L 811.21 592.49 L 767.31 690.96 L 765.18 695.75 L 743.93 686.27 L 716.46 674.01 L 716.32 673.95 L 714.71 673.23 L 700.87 667.03 L 671.05 653.73 L 640.98 640.32 L 640.19 639.97 L 603.86 623.85 L 559.26 604.11 L 558.95 603.97 L 531.84 591.94 L 531.77 591.91 L 497.38 576.95 L 497.15 576.85 L 494.47 575.68 L 479.27 569.05 L 456.13 558.94 L 448.22 555.49 L 414.76 540.88 L 414.59 540.80 L 413.58 540.36 L 411.52 539.45 L 385.28 527.89 L 383.91 527.29 L 383.60 527.16 L 358.13 516.08 L 357.98 516.01 L 357.14 515.64 L 356.07 515.17 L 331.63 504.40 L 298.38 489.75 L 287.13 484.79 L 287.77 483.35 Z "/>
<path class="zone" data-zone-id="11215760_030_05" d="M 348.06 346.48 L 359.75 319.95 L 393.28 244.73 L 396.79 236.89 L 408.55 241.89 L 417.17 245.55 L 465.64 267.32 L 467.92 268.35 L 492.85 279.54 L 512.47 288.36 L 549.35 304.92 L 563.26 311.14 L 566.48 312.57 L 586.06 321.32 L 618.96 336.02 L 632.21 340.88 L 628.64 348.99 L 609.17 393.38 L 588.84 439.25 L 585.69 446.27 L 583.07 452.13 L 582.74 451.99 L 517.01 423.12 L 515.83 422.60 L 514.12 421.85 L 513.96 421.78 L 461.78 398.06 L 420.51 379.30 L 417.89 378.11 L 416.23 377.34 L 388.14 364.23 L 359.83 351.69 L 348.06 346.48 Z "/>
<path class="zone" data-zone-id="11215760_030_06" d="M 396.79 236.89 L 438.51 143.62 L 443.07 133.32 L 456.69 134.89 L 468.91 136.30 L 527.39 142.05 L 568.57 145.68 L 572.10 145.99 L 573.38 146.10 L 611.14 149.59 L 612.99 149.76 L 629.66 151.63 L 704.35 184.65 L 704.84 184.85 L 700.42 194.39 L 675.02 249.33 L 665.12 270.66 L 652.84 297.09 L 632.71 341.06 L 632.21 340.88 L 618.96 336.02 L 586.06 321.32 L 566.48 312.57 L 563.26 311.14 L 549.35 304.92 L 512.47 288.36 L 492.85 279.54 L 467.92 268.35 L 465.64 267.32 L 417.17 245.55 L 408.55 241.89 L 396.79 236.89 Z "/>
<path class="zone" data-zone-id="11215760_030_00" d="M 713.25 313.39 L 896.09 394.55 L 856.12 483.68 L 853.18 484.14 L 820.83 557.29 L 768.09 533.20 L 752.34 526.27 L 699.54 503.03 L 699.49 503.01 L 641.11 477.48 L 713.25 313.39 Z "/>
<path class="zone" data-zone-id="11215760_030_01" d="M 754.94 174.22 L 804.97 160.10 L 823.63 154.84 L 851.33 148.33 L 914.33 129.62 L 955.44 117.41 L 996.17 106.44 L 1000.28 106.04 L 1015.64 111.51 L 1023.81 114.42 L 1016.11 131.46 L 970.94 230.56 L 937.22 307.09 L 867.86 462.64 L 847.49 509.06 L 825.57 559.46 L 820.83 557.29 L 853.18 484.14 L 856.12 483.68 L 896.09 394.55 L 713.25 313.39 L 641.11 477.48 L 636.15 475.31 L 635.26 474.92 L 583.07 452.13 L 585.69 446.27 L 588.84 439.25 L 609.17 393.38 L 628.64 348.99 L 632.21 340.88 L 632.71 341.06 L 652.84 297.09 L 665.12 270.66 L 675.02 249.33 L 700.42 194.39 L 704.84 184.85 L 709.88 186.93 L 719.20 184.30 L 754.94 174.22 Z "/>
</svg>
