<svg xmlns="http://www.w3.org/2000/svg" viewBox="0 0 1155 1155" width="1155" height="1155">
<path class="zone" data-zone-id="11215730_010_00" d="M 375.36 324.06 L 383.59 305.99 L 383.65 305.86 L 383.84 305.45 L 387.22 298.01 L 387.70 296.98 L 388.52 297.34 L 388.57 297.36 L 412.71 307.88 L 418.82 312.35 L 427.36 318.59 L 432.68 331.79 L 441.38 346.96 L 465.34 387.94 L 472.45 402.37 L 473.49 404.49 L 474.78 414.53 L 477.78 439.24 L 490.67 489.89 L 500.78 512.94 L 512.22 507.05 L 558.07 483.43 L 563.58 480.58 L 644.29 438.88 L 646.15 437.39 L 647.94 435.80 L 651.97 430.33 L 654.95 426.28 L 637.42 417.52 L 589.35 393.04 L 578.03 387.28 L 580.42 382.37 L 582.46 378.18 L 602.20 335.86 L 637.48 259.92 L 640.09 254.08 L 644.03 245.26 L 645.22 242.60 L 645.23 242.59 L 656.74 217.26 L 672.98 181.51 L 694.88 134.54 L 696.07 131.98 L 703.74 115.52 L 708.93 104.13 L 712.17 97.02 L 712.81 97.28 L 746.17 111.79 L 774.23 123.71 L 774.27 123.72 L 801.68 135.35 L 833.55 148.67 L 834.69 149.15 L 834.94 149.25 L 849.21 155.23 L 862.63 160.92 L 862.94 161.05 L 884.47 170.15 L 909.87 181.50 L 909.99 181.56 L 928.48 189.83 L 951.82 200.24 L 971.35 208.58 L 980.32 212.41 L 996.58 219.35 L 1017.08 228.58 L 1017.27 228.66 L 1036.37 237.29 L 1046.08 241.56 L 1056.00 245.92 L 1048.19 265.73 L 1012.93 352.84 L 996.36 399.99 L 994.46 405.38 L 988.22 423.15 L 983.26 426.17 L 948.11 447.70 L 927.39 460.39 L 864.44 499.04 L 854.88 504.90 L 804.60 535.71 L 801.29 537.74 L 793.82 542.32 L 762.80 561.99 L 736.44 578.70 L 654.71 631.14 L 558.24 691.24 L 554.63 693.50 L 532.97 706.99 L 510.52 722.79 L 488.94 737.97 L 463.61 763.32 L 436.60 796.72 L 408.70 841.79 L 405.54 850.74 L 401.97 860.82 L 387.69 911.51 L 385.16 937.11 L 383.37 955.28 L 381.23 980.79 L 378.07 1018.46 L 375.35 1050.90 L 374.84 1057.98 L 364.10 1057.02 L 362.66 1056.89 L 359.93 1056.26 L 357.60 1055.39 L 338.60 1046.49 L 324.91 1039.96 L 319.49 1037.22 L 308.52 1031.68 L 290.18 1022.81 L 289.80 1022.63 L 267.00 1010.63 L 254.44 1004.01 L 253.54 1003.58 L 242.68 998.33 L 233.36 993.82 L 232.59 993.45 L 211.90 984.26 L 173.61 967.26 L 172.70 966.85 L 163.97 962.87 L 121.37 942.00 L 99.38 931.23 L 99.34 931.21 L 98.96 931.02 L 104.71 918.43 L 104.77 918.28 L 131.24 860.16 L 157.29 802.95 L 217.34 671.07 L 217.40 670.93 L 217.43 670.88 L 217.45 670.84 L 224.61 655.12 L 243.61 613.38 L 243.66 613.29 L 243.67 613.25 L 246.05 608.02 L 252.58 593.69 L 283.29 526.25 L 323.91 437.06 L 323.94 436.97 L 325.46 433.66 L 358.82 360.39 L 358.88 360.25 L 374.68 325.55 L 374.74 325.42 L 375.36 324.06 Z "/>
</svg>
