<svg xmlns="http://www.w3.org/2000/svg" viewBox="0 0 1154 1155" width="1154" height="1155">
<path class="zone" data-zone-id="11215830_060_00" d="M 694.82 905.05 L 695.35 903.40 L 709.93 862.78 L 724.14 823.11 L 726.34 814.04 L 726.74 806.93 L 726.34 799.45 L 730.88 795.94 L 754.95 794.05 L 847.61 786.84 L 857.82 786.05 L 902.89 782.53 L 1017.47 773.61 L 1027.63 782.28 L 1036.63 894.27 L 1037.63 906.80 L 983.89 948.81 L 942.72 968.20 L 923.56 974.17 L 902.08 976.39 L 884.36 974.43 L 851.73 967.72 L 772.57 938.65 L 696.31 914.83 L 692.09 913.51 L 693.51 909.12 L 694.82 905.05 Z "/>
<path class="zone" data-zone-id="11215830_060_01" d="M 680.38 202.87 L 680.28 201.76 L 698.85 200.06 L 760.90 195.46 L 844.52 188.92 L 885.61 185.65 L 958.92 179.85 L 979.14 178.57 L 1027.63 782.28 L 1017.47 773.61 L 902.89 782.53 L 857.82 786.05 L 847.61 786.84 L 754.95 794.05 L 730.88 795.94 L 726.34 799.45 L 725.70 787.31 L 722.84 746.80 L 722.81 746.41 L 716.32 662.24 L 708.35 662.74 L 608.95 668.93 L 594.32 670.25 L 586.39 670.52 L 582.66 669.57 L 580.18 667.37 L 578.33 664.25 L 576.79 661.91 L 575.10 657.38 L 563.43 628.47 L 537.40 564.06 L 531.91 550.46 L 505.91 485.77 L 499.88 474.39 L 499.22 471.68 L 497.25 463.56 L 496.11 455.44 L 493.59 421.67 L 489.80 374.55 L 489.74 373.68 L 497.78 373.01 L 566.97 367.25 L 684.42 357.46 L 691.36 356.88 L 684.25 268.07 L 680.31 215.15 L 680.38 202.87 Z "/>
<path class="zone" data-zone-id="11215830_060_00" d="M 520.53 853.82 L 321.31 786.10 L 302.34 778.24 L 278.05 773.29 L 230.61 763.06 L 220.07 745.56 L 236.16 729.63 L 256.11 709.86 L 289.11 677.18 L 290.30 675.97 L 326.00 639.56 L 362.28 602.54 L 362.74 602.06 L 367.24 597.48 L 406.45 557.57 L 421.49 542.27 L 450.18 513.11 L 474.65 489.07 L 475.29 488.45 L 486.52 477.58 L 499.22 471.68 L 499.88 474.39 L 505.91 485.77 L 531.91 550.46 L 537.40 564.06 L 563.43 628.47 L 575.10 657.38 L 576.79 661.91 L 578.33 664.25 L 580.18 667.37 L 582.66 669.57 L 586.39 670.52 L 594.32 670.25 L 608.95 668.93 L 708.35 662.74 L 716.32 662.24 L 722.81 746.41 L 722.84 746.80 L 725.70 787.31 L 726.74 806.93 L 726.34 814.04 L 724.14 823.11 L 709.93 862.78 L 695.35 903.40 L 694.82 905.05 L 692.09 913.51 L 649.31 900.15 L 642.41 897.67 L 625.19 891.47 L 562.21 868.81 L 545.74 862.89 L 520.53 853.82 Z "/>
<path class="zone" data-zone-id="11215830_060_03" d="M 220.07 745.56 L 219.41 744.47 L 142.51 614.31 L 116.32 568.89 L 150.85 536.67 L 206.12 483.87 L 213.05 477.24 L 215.40 475.00 L 245.97 446.22 L 248.57 443.66 L 281.44 411.34 L 294.45 398.60 L 314.65 378.83 L 343.25 351.22 L 353.74 341.10 L 394.00 300.78 L 445.47 250.99 L 460.51 237.10 L 470.79 228.17 L 478.00 223.66 L 479.86 243.44 L 484.22 295.67 L 488.09 349.06 L 488.13 349.64 L 489.74 373.68 L 489.80 374.55 L 493.59 421.67 L 496.11 455.44 L 497.25 463.56 L 499.22 471.68 L 486.52 477.58 L 475.29 488.45 L 474.65 489.07 L 450.18 513.11 L 421.49 542.27 L 406.45 557.57 L 367.24 597.48 L 362.74 602.06 L 362.28 602.54 L 326.00 639.56 L 290.30 675.97 L 289.11 677.18 L 256.11 709.86 L 236.16 729.63 L 220.07 745.56 Z "/>
</svg>
