<svg xmlns="http://www.w3.org/2000/svg" viewBox="0 0 1155 1155" width="1155" height="1155">
<path class="zone" data-zone-id="11215847_060_01" d="M 778.71 921.49 L 778.50 921.41 L 741.08 905.23 L 740.85 905.13 L 656.14 868.50 L 656.08 868.48 L 632.59 858.33 L 621.00 853.77 L 620.55 853.57 L 477.33 791.20 L 477.32 791.19 L 480.84 783.01 L 518.96 694.20 L 519.00 694.10 L 547.32 628.14 L 547.33 628.13 L 566.56 583.34 L 566.68 583.05 L 570.20 574.85 L 570.40 574.39 L 599.24 507.65 L 600.01 507.99 L 634.44 522.82 L 644.99 526.94 L 644.99 526.94 L 652.13 530.04 L 696.45 549.27 L 738.24 567.40 L 742.57 569.28 L 742.80 569.38 L 786.99 588.14 L 802.68 594.80 L 843.19 612.00 L 878.21 626.87 L 887.89 631.61 L 883.46 645.44 L 862.09 701.49 L 862.09 701.50 L 841.42 755.87 L 841.28 756.22 L 832.00 780.63 L 831.93 780.82 L 824.82 799.91 L 821.94 807.12 L 821.87 807.30 L 808.51 842.50 L 808.31 843.02 L 804.76 852.35 L 804.69 852.54 L 791.93 886.07 L 791.83 886.32 L 781.80 913.22 L 778.71 921.49 Z "/>
<path class="zone" data-zone-id="11215847_060_02" d="M 406.84 423.71 L 406.43 423.54 L 355.95 402.82 L 354.16 402.02 L 359.81 389.92 L 389.88 320.23 L 402.21 291.64 L 402.21 291.64 L 402.42 291.73 L 402.42 291.73 L 403.70 292.29 L 403.81 292.34 L 405.23 292.95 L 520.33 342.97 L 524.57 344.81 L 535.05 349.36 L 535.05 349.36 L 539.66 351.37 L 540.02 351.52 L 551.87 356.47 L 551.99 356.52 L 634.73 392.36 L 646.82 397.58 L 646.82 397.58 L 634.41 426.29 L 599.31 507.49 L 599.24 507.65 L 530.82 477.83 L 475.38 453.66 L 475.28 453.62 L 406.84 423.71 Z "/>
<path class="zone" data-zone-id="11215847_060_03" d="M 291.25 373.78 L 290.80 373.58 L 225.06 345.19 L 224.89 345.11 L 97.56 290.28 L 96.64 289.88 L 96.64 289.88 L 96.91 289.40 L 102.52 279.37 L 134.44 209.56 L 147.38 181.26 L 147.43 181.28 L 147.43 181.28 L 147.43 181.28 L 272.89 235.63 L 284.82 240.79 L 320.90 256.42 L 320.90 256.42 L 402.21 291.64 L 402.21 291.64 L 389.88 320.23 L 359.81 389.92 L 354.16 402.02 L 291.25 373.78 Z "/>
<path class="zone" data-zone-id="11215847_060_04" d="M 792.21 460.46 L 929.47 519.83 L 929.88 520.00 L 930.82 520.41 L 930.82 520.41 L 931.99 520.92 L 920.30 549.53 L 903.35 591.04 L 903.30 591.16 L 892.29 618.37 L 887.91 631.55 L 887.89 631.61 L 878.21 626.87 L 843.19 612.00 L 802.68 594.80 L 786.99 588.14 L 742.80 569.38 L 742.57 569.28 L 738.24 567.40 L 696.45 549.27 L 652.13 530.04 L 644.99 526.94 L 644.99 526.94 L 634.44 522.82 L 600.01 507.99 L 599.24 507.65 L 599.31 507.49 L 634.41 426.29 L 646.82 397.58 L 646.82 397.58 L 648.23 398.19 L 648.54 398.32 L 789.76 459.40 L 791.12 459.99 L 791.12 459.99 L 792.21 460.46 Z "/>
<path class="zone" data-zone-id="11215847_060_05" d="M 931.99 520.92 L 931.99 520.92 L 960.15 533.09 L 964.17 534.84 L 964.17 534.84 L 1023.66 559.44 L 1055.92 574.14 L 1055.92 574.14 L 1058.36 575.17 L 1043.67 603.06 L 1013.98 684.66 L 993.34 676.13 L 942.56 655.15 L 936.61 652.68 L 936.35 652.58 L 899.28 637.20 L 889.44 632.37 L 887.89 631.61 L 887.91 631.55 L 892.29 618.37 L 903.30 591.16 L 903.35 591.04 L 920.30 549.53 L 931.99 520.92 Z "/>
<path class="zone" data-zone-id="11215847_060_06" d="M 1013.98 684.66 L 1009.87 695.95 L 966.79 806.12 L 925.77 917.86 L 904.03 973.74 L 884.40 965.68 L 850.56 951.77 L 778.71 921.49 L 781.80 913.22 L 791.83 886.32 L 791.93 886.07 L 804.69 852.54 L 804.76 852.35 L 808.31 843.02 L 808.51 842.50 L 821.87 807.30 L 821.94 807.12 L 824.82 799.91 L 831.93 780.82 L 832.00 780.63 L 841.28 756.22 L 841.42 755.87 L 862.09 701.50 L 862.09 701.49 L 883.46 645.44 L 887.89 631.61 L 889.44 632.37 L 899.28 637.20 L 936.35 652.58 L 936.61 652.68 L 942.56 655.15 L 993.34 676.13 L 1013.98 684.66 Z "/>
</svg>
