<svg xmlns="http://www.w3.org/2000/svg" viewBox="0 0 1155 1155" width="1155" height="1155">
<path class="zone" data-zone-id="11215760_060_01" d="M 744.21 886.03 L 739.09 890.48 L 730.39 908.91 L 706.12 963.18 L 696.26 985.22 L 694.78 988.52 L 682.81 1015.31 L 661.71 1062.51 L 633.35 1049.92 L 609.33 1039.35 L 608.32 1038.90 L 594.95 1033.02 L 580.50 1026.64 L 580.50 1026.64 L 566.02 1020.24 L 539.97 1008.74 L 535.84 1006.92 L 522.23 1000.91 L 500.74 991.42 L 493.87 988.39 L 493.84 988.37 L 493.27 988.12 L 493.27 988.12 L 492.26 987.68 L 492.21 987.65 L 481.13 982.76 L 455.88 971.61 L 455.63 971.50 L 453.20 970.42 L 419.70 955.63 L 419.70 955.63 L 419.68 955.62 L 402.82 948.18 L 402.82 948.18 L 342.26 921.44 L 324.91 913.78 L 327.18 908.74 L 373.31 801.43 L 374.90 797.83 L 391.83 759.55 L 400.88 739.11 L 440.64 649.91 L 442.23 646.33 L 475.03 572.77 L 485.76 548.10 L 505.75 557.23 L 542.74 574.14 L 543.10 574.30 L 581.61 591.36 L 581.96 591.52 L 611.16 604.37 L 637.33 615.93 L 637.83 616.14 L 699.21 642.16 L 757.78 666.92 L 760.48 668.17 L 780.72 665.27 L 782.25 677.14 L 791.37 748.02 L 791.37 748.02 L 791.41 748.28 L 798.27 802.25 L 804.23 849.22 L 807.89 876.75 L 787.87 879.62 L 775.31 881.42 L 744.21 886.03 Z "/>
<path class="zone" data-zone-id="11215760_060_02" d="M 830.05 1040.25 L 830.08 1040.41 L 830.08 1040.41 L 830.08 1040.41 L 830.08 1040.41 L 809.31 1043.17 L 793.44 1045.27 L 748.62 1051.40 L 726.58 1054.38 L 726.58 1054.38 L 707.26 1056.98 L 680.24 1060.56 L 666.41 1062.39 L 661.71 1062.51 L 682.81 1015.31 L 694.78 988.52 L 696.26 985.22 L 706.12 963.18 L 730.39 908.91 L 739.09 890.48 L 744.21 886.03 L 775.31 881.42 L 787.87 879.62 L 807.89 876.75 L 807.91 876.86 L 813.92 922.11 L 829.63 1037.14 L 830.05 1040.25 Z "/>
<path class="zone" data-zone-id="11215760_060_03" d="M 594.35 302.40 L 628.09 228.37 L 633.84 215.64 L 651.38 176.83 L 656.72 163.82 L 681.73 102.89 L 686.51 92.50 L 715.63 92.64 L 715.63 92.64 L 715.26 123.75 L 716.68 150.72 L 718.53 170.27 L 721.09 198.39 L 721.11 198.64 L 722.27 211.33 L 722.27 211.33 L 723.16 221.14 L 723.27 221.81 L 725.22 234.46 L 726.15 240.51 L 726.16 240.56 L 726.64 243.67 L 726.64 243.67 L 728.97 258.79 L 729.03 259.18 L 733.54 288.46 L 733.58 288.71 L 733.59 288.84 L 742.44 365.34 L 742.52 366.03 L 745.88 391.83 L 748.01 408.16 L 751.92 438.19 L 760.06 503.27 L 763.07 527.32 L 777.07 636.90 L 778.02 644.29 L 778.05 644.56 L 780.72 665.27 L 760.48 668.17 L 757.78 666.92 L 699.21 642.16 L 637.83 616.14 L 637.33 615.93 L 611.16 604.37 L 581.96 591.52 L 581.61 591.36 L 543.10 574.30 L 542.74 574.14 L 505.75 557.23 L 485.76 548.10 L 502.13 510.45 L 517.34 475.77 L 569.15 359.57 L 594.35 302.40 Z "/>
</svg>
