<svg xmlns="http://www.w3.org/2000/svg" viewBox="0 0 1154 1155" width="1154" height="1155">
<path class="zone" data-zone-id="11215860_070_00" d="M 287.73 793.84 L 304.98 787.89 L 382.88 761.04 L 386.56 759.76 L 390.94 757.70 L 396.66 755.00 L 399.29 753.92 L 403.66 755.70 L 419.21 797.47 L 432.33 832.68 L 360.87 861.83 L 358.42 856.31 L 318.51 871.26 L 287.73 793.84 Z "/>
<path class="zone" data-zone-id="11215860_070_01" d="M 325.64 937.91 L 319.24 927.51 L 282.61 852.15 L 263.78 802.09 L 287.73 793.84 L 318.51 871.26 L 358.42 856.31 L 360.87 861.83 L 432.33 832.68 L 419.21 797.47 L 403.66 755.70 L 399.29 753.92 L 402.26 752.70 L 452.19 734.43 L 479.26 724.56 L 484.90 722.46 L 489.30 720.83 L 489.96 722.67 L 506.43 768.96 L 508.26 772.69 L 509.06 773.35 L 511.02 774.93 L 511.79 775.56 L 550.71 798.60 L 555.88 801.44 L 563.97 805.88 L 515.22 884.54 L 494.60 917.81 L 466.15 963.71 L 465.54 964.69 L 441.48 1003.51 L 406.82 1057.57 L 369.42 1009.03 L 325.64 937.91 Z "/>
<path class="zone" data-zone-id="11215860_070_02" d="M 263.78 802.09 L 252.44 771.92 L 242.64 745.86 L 209.11 656.68 L 208.85 656.00 L 199.99 635.72 L 189.36 611.40 L 186.69 605.28 L 186.63 605.15 L 230.63 588.56 L 257.28 578.51 L 317.21 555.80 L 317.34 556.17 L 339.37 616.53 L 360.93 675.53 L 361.58 677.31 L 390.94 757.70 L 386.56 759.76 L 382.88 761.04 L 304.98 787.89 L 263.78 802.09 Z "/>
<path class="zone" data-zone-id="11215860_070_03" d="M 317.21 555.80 L 354.51 541.66 L 355.16 541.41 L 385.64 529.86 L 415.58 518.51 L 416.35 517.90 L 437.17 577.63 L 458.37 635.67 L 460.26 640.85 L 473.50 676.79 L 473.61 677.08 L 489.30 720.83 L 484.90 722.46 L 479.26 724.56 L 452.19 734.43 L 402.26 752.70 L 396.66 755.00 L 390.94 757.70 L 361.58 677.31 L 360.93 675.53 L 339.37 616.53 L 317.34 556.17 L 317.21 555.80 Z "/>
<path class="zone" data-zone-id="11215860_070_04" d="M 493.98 432.43 L 498.01 435.96 L 499.06 436.89 L 537.08 471.49 L 579.54 510.16 L 579.59 510.21 L 575.98 514.00 L 574.40 515.65 L 550.73 541.83 L 546.55 546.41 L 529.25 565.38 L 522.15 573.29 L 518.76 577.07 L 502.95 594.68 L 470.83 628.82 L 467.09 631.59 L 463.72 633.17 L 458.37 635.67 L 437.17 577.63 L 416.35 517.90 L 458.87 471.17 L 493.98 432.43 Z "/>
<path class="zone" data-zone-id="11215860_070_00" d="M 528.06 394.82 L 528.73 394.07 L 567.60 350.75 L 567.67 350.67 L 585.26 331.04 L 604.88 309.16 L 638.00 272.26 L 682.12 311.83 L 682.51 312.18 L 687.50 316.65 L 702.79 330.36 L 723.24 348.71 L 720.50 351.97 L 717.14 355.98 L 702.08 372.69 L 673.84 404.32 L 667.83 411.05 L 645.69 435.86 L 632.37 450.86 L 615.47 469.89 L 615.24 470.15 L 588.69 499.97 L 583.57 505.78 L 579.59 510.21 L 579.54 510.16 L 537.08 471.49 L 499.06 436.89 L 498.01 435.96 L 493.98 432.43 L 494.06 432.33 L 528.06 394.82 Z "/>
<path class="zone" data-zone-id="11215860_070_06" d="M 638.00 272.26 L 681.46 223.39 L 719.46 180.68 L 725.50 186.24 L 746.54 205.18 L 764.08 221.44 L 764.78 222.06 L 784.09 239.19 L 803.12 255.95 L 803.33 256.14 L 823.62 274.53 L 843.30 292.12 L 844.36 293.09 L 859.04 306.55 L 867.83 314.52 L 874.79 320.84 L 869.51 328.95 L 816.37 410.47 L 808.84 422.19 L 801.67 416.98 L 797.24 413.77 L 790.76 408.88 L 790.68 408.82 L 786.75 405.59 L 786.06 404.98 L 773.10 393.66 L 759.24 381.55 L 737.69 361.19 L 737.57 361.08 L 733.82 357.41 L 730.41 354.74 L 723.37 348.83 L 723.24 348.71 L 702.79 330.36 L 682.51 312.18 L 682.12 311.83 L 638.00 272.26 Z "/>
<path class="zone" data-zone-id="11215860_070_00" d="M 767.09 128.11 L 767.79 127.31 L 785.67 106.92 L 794.00 97.42 L 797.34 100.24 L 829.09 127.15 L 843.92 137.55 L 844.77 138.15 L 876.23 160.22 L 894.25 167.12 L 894.25 167.12 L 896.42 167.70 L 904.32 169.80 L 925.40 173.68 L 929.79 174.29 L 938.68 175.52 L 967.36 175.25 L 958.66 189.13 L 949.33 204.02 L 933.05 230.00 L 921.98 247.68 L 914.66 259.35 L 909.36 267.81 L 874.79 320.84 L 867.83 314.52 L 859.04 306.55 L 844.36 293.09 L 843.30 292.12 L 823.62 274.53 L 803.33 256.14 L 803.12 255.95 L 784.09 239.19 L 764.78 222.06 L 764.08 221.44 L 746.54 205.18 L 725.50 186.24 L 719.46 180.68 L 725.55 173.90 L 731.22 166.85 L 755.48 140.61 L 767.09 128.11 Z "/>
<path class="zone" data-zone-id="11215860_070_08" d="M 808.11 423.34 L 764.74 490.87 L 752.30 510.24 L 717.02 565.18 L 689.40 608.20 L 682.23 602.22 L 675.41 596.51 L 664.35 586.65 L 638.58 563.36 L 638.21 563.03 L 611.57 538.93 L 587.40 517.06 L 579.59 510.21 L 583.57 505.78 L 588.69 499.97 L 615.24 470.15 L 615.47 469.89 L 632.37 450.86 L 645.69 435.86 L 667.83 411.05 L 673.84 404.32 L 702.08 372.69 L 717.14 355.98 L 720.50 351.97 L 723.24 348.71 L 723.37 348.83 L 730.41 354.74 L 733.82 357.41 L 737.57 361.08 L 737.69 361.19 L 759.24 381.55 L 773.10 393.66 L 786.06 404.98 L 786.75 405.59 L 790.68 408.82 L 790.76 408.88 L 797.24 413.77 L 801.67 416.98 L 808.84 422.19 L 808.11 423.34 Z "/>
<path class="zone" data-zone-id="11215860_070_09" d="M 613.85 727.54 L 596.87 754.18 L 566.00 802.61 L 564.89 804.40 L 563.97 805.88 L 555.88 801.44 L 550.71 798.60 L 511.79 775.56 L 511.02 774.93 L 509.06 773.35 L 508.26 772.69 L 506.43 768.96 L 489.96 722.67 L 489.30 720.83 L 473.61 677.08 L 473.50 676.79 L 460.26 640.85 L 458.37 635.67 L 463.72 633.17 L 467.09 631.59 L 470.83 628.82 L 502.95 594.68 L 518.76 577.07 L 522.15 573.29 L 529.25 565.38 L 546.55 546.41 L 550.73 541.83 L 574.40 515.65 L 575.98 514.00 L 579.59 510.21 L 587.40 517.06 L 611.57 538.93 L 638.21 563.03 L 638.58 563.36 L 664.35 586.65 L 675.41 596.51 L 682.23 602.22 L 689.40 608.20 L 675.89 629.24 L 642.11 682.78 L 620.66 716.77 L 614.68 726.24 L 613.85 727.54 Z "/>
</svg>
