<svg xmlns="http://www.w3.org/2000/svg" viewBox="0 0 1155 1155" width="1155" height="1155">
<path class="zone" data-zone-id="11215840_020_00" d="M 637.77 915.87 L 461.85 843.61 L 409.33 815.33 L 365.86 796.73 L 345.01 787.84 L 400.05 660.81 L 408.81 636.47 L 418.29 612.97 L 475.03 462.64 L 505.84 381.48 L 579.00 409.32 L 631.96 270.22 L 756.99 324.27 L 1007.65 403.69 L 1015.49 406.13 L 1035.79 439.30 L 985.94 628.98 L 954.71 749.45 L 927.20 855.44 L 862.38 853.53 L 859.71 933.64 L 785.88 979.56 L 685.95 934.45 L 681.99 941.12 L 643.92 925.01 L 637.77 915.87 Z "/>
<path class="zone" data-zone-id="11215840_020_01" d="M 268.82 267.76 L 273.81 254.05 L 273.81 254.05 L 309.88 154.93 L 327.72 121.06 L 497.67 192.98 L 497.67 192.98 L 497.67 192.98 L 758.54 303.36 L 903.95 354.36 L 1038.72 396.92 L 1039.85 397.28 L 1048.94 400.15 L 1048.94 400.15 L 1039.22 436.71 L 987.62 630.79 L 885.60 1016.88 L 881.09 1033.95 L 857.99 1015.38 L 697.55 947.71 L 695.21 946.72 L 681.99 941.12 L 685.95 934.45 L 785.88 979.56 L 859.71 933.64 L 862.38 853.53 L 927.20 855.44 L 954.71 749.45 L 985.94 628.98 L 1035.79 439.30 L 1015.49 406.13 L 1007.65 403.69 L 756.99 324.27 L 631.96 270.22 L 579.00 409.32 L 505.84 381.48 L 475.03 462.64 L 418.29 612.97 L 408.81 636.47 L 400.05 660.81 L 345.01 787.84 L 365.86 796.73 L 409.33 815.33 L 461.85 843.61 L 637.77 915.87 L 643.92 925.01 L 416.90 828.93 L 415.09 828.17 L 270.99 765.75 L 152.18 714.28 L 129.22 704.87 L 106.10 695.40 L 108.06 690.18 L 132.20 625.88 L 140.26 605.17 L 140.26 605.17 L 166.67 537.29 L 216.49 401.58 L 268.82 267.76 Z "/>
</svg>
