<svg xmlns="http://www.w3.org/2000/svg" viewBox="0 0 1154 1155" width="1154" height="1155">
<path class="zone" data-zone-id="11215870_050_01" d="M 791.46 730.24 L 808.84 776.08 L 814.98 792.28 L 844.29 853.70 L 927.87 1011.51 L 931.67 1023.79 L 930.95 1038.62 L 925.10 1048.90 L 892.79 1065.50 L 880.54 1066.08 L 865.11 1058.91 L 856.18 1042.73 L 770.23 876.85 L 748.14 841.39 L 736.68 822.98 L 723.29 796.79 L 688.48 707.12 L 660.68 663.44 L 641.77 633.73 L 628.08 612.35 L 623.83 596.14 L 622.28 590.92 L 651.28 533.11 L 702.57 602.07 L 747.36 662.28 L 791.46 730.24 Z "/>
<path class="zone" data-zone-id="11215870_050_00" d="M 609.94 428.48 L 635.62 462.44 L 652.81 484.51 L 656.74 489.56 L 666.77 502.44 L 655.21 525.27 L 651.28 533.11 L 622.28 590.92 L 614.60 565.00 L 588.11 543.59 L 555.20 519.44 L 544.67 512.46 L 544.67 512.46 L 543.83 510.81 L 531.32 486.21 L 528.01 479.69 L 516.63 463.84 L 516.32 463.41 L 501.95 443.15 L 494.10 432.50 L 497.49 430.02 L 501.64 427.00 L 521.31 412.41 L 549.89 391.21 L 564.96 380.18 L 571.48 375.36 L 571.49 375.36 L 577.14 383.47 L 589.77 400.81 L 609.94 428.48 Z "/>
<path class="zone" data-zone-id="11215870_050_03" d="M 524.33 498.99 L 507.71 490.02 L 487.73 480.27 L 453.96 467.50 L 438.94 462.62 L 415.83 455.14 L 350.51 440.93 L 291.16 435.06 L 264.75 431.13 L 222.34 424.81 L 367.38 378.93 L 367.47 378.90 L 407.69 360.93 L 407.71 360.93 L 430.33 344.57 L 430.81 344.21 L 441.19 358.81 L 465.71 393.29 L 472.83 403.23 L 490.40 427.48 L 494.10 432.50 L 501.95 443.15 L 516.32 463.41 L 528.01 479.69 L 531.32 486.21 L 544.67 512.46 L 524.33 498.99 Z "/>
<path class="zone" data-zone-id="11215870_050_04" d="M 430.81 344.21 L 476.36 310.42 L 586.56 228.66 L 586.98 228.34 L 635.53 192.44 L 646.03 207.03 L 664.68 232.95 L 664.91 233.26 L 679.42 252.94 L 682.01 256.45 L 694.78 274.85 L 697.73 278.58 L 699.71 279.71 L 699.81 279.74 L 695.99 282.44 L 692.87 284.64 L 679.30 294.67 L 640.96 323.60 L 639.41 324.77 L 613.75 344.09 L 607.82 348.48 L 589.90 361.74 L 571.48 375.36 L 564.96 380.18 L 549.89 391.21 L 521.31 412.41 L 501.64 427.00 L 497.49 430.02 L 494.10 432.50 L 490.40 427.48 L 472.83 403.23 L 465.71 393.29 L 441.19 358.81 L 430.81 344.21 Z "/>
<path class="zone" data-zone-id="11215870_050_05" d="M 635.53 192.44 L 678.07 160.99 L 678.46 160.70 L 774.40 88.92 L 770.50 114.11 L 762.67 164.74 L 752.24 223.82 L 741.68 283.63 L 740.66 288.62 L 725.29 285.38 L 703.17 280.72 L 699.81 279.74 L 699.71 279.71 L 697.73 278.58 L 694.78 274.85 L 682.01 256.45 L 679.42 252.94 L 664.91 233.26 L 664.68 232.95 L 646.03 207.03 L 635.53 192.44 Z "/>
<path class="zone" data-zone-id="11215870_050_06" d="M 723.47 372.95 L 721.67 380.99 L 720.10 388.05 L 716.10 399.87 L 705.09 426.74 L 701.57 433.70 L 689.40 457.73 L 666.77 502.44 L 656.74 489.56 L 635.62 462.44 L 609.94 428.48 L 577.14 383.47 L 571.49 375.36 L 571.48 375.36 L 589.90 361.74 L 607.82 348.48 L 613.75 344.09 L 639.41 324.77 L 640.96 323.60 L 679.30 294.67 L 692.87 284.64 L 695.99 282.44 L 699.81 279.74 L 703.17 280.72 L 725.29 285.38 L 740.66 288.62 L 723.47 372.95 Z "/>
</svg>
