<svg xmlns="http://www.w3.org/2000/svg" viewBox="0 0 1155 1155" width="1155" height="1155">
<path class="zone" data-zone-id="11215810_150_01" d="M 441.35 1047.21 L 426.58 1043.10 L 410.04 1039.16 L 395.14 1036.30 L 378.75 1033.94 L 366.13 1032.97 L 354.57 1032.08 L 347.08 1031.88 L 334.02 1031.81 L 325.18 1032.05 L 314.48 1032.33 L 308.89 1033.26 L 301.05 1034.56 L 295.80 1035.43 L 286.86 1037.28 L 258.55 1042.45 L 243.76 1046.59 L 242.29 1046.85 L 267.27 1020.66 L 286.64 1000.36 L 344.08 972.87 L 346.78 971.59 L 394.09 949.17 L 432.13 931.14 L 491.31 900.57 L 503.14 897.79 L 513.04 895.45 L 511.23 911.45 L 505.19 934.61 L 474.97 1033.14 L 468.06 1055.67 L 461.73 1053.57 L 441.35 1047.21 Z "/>
<path class="zone" data-zone-id="11215810_150_02" d="M 242.29 1046.85 L 227.29 1049.46 L 202.41 1053.86 L 168.79 1059.81 L 204.71 1011.72 L 233.59 973.42 L 259.84 938.64 L 303.20 881.08 L 351.73 816.65 L 400.80 756.62 L 402.81 754.07 L 430.72 744.03 L 437.94 754.64 L 447.81 769.14 L 481.02 823.55 L 496.26 849.68 L 510.64 874.33 L 513.50 884.89 L 513.43 886.92 L 513.18 894.19 L 513.04 895.45 L 503.14 897.79 L 491.31 900.57 L 432.13 931.14 L 394.09 949.17 L 346.78 971.59 L 344.08 972.87 L 286.64 1000.36 L 267.27 1020.66 L 242.29 1046.85 Z "/>
<path class="zone" data-zone-id="11215810_150_00" d="M 648.38 337.07 L 657.01 339.06 L 662.64 342.38 L 681.79 353.67 L 728.58 381.26 L 751.17 394.58 L 758.75 399.15 L 763.76 402.17 L 762.56 407.21 L 760.69 415.08 L 755.48 436.99 L 738.40 485.24 L 724.83 517.17 L 721.36 525.06 L 716.13 536.97 L 712.72 546.12 L 710.39 553.14 L 706.01 566.32 L 702.09 581.65 L 701.29 584.67 L 666.97 577.72 L 623.76 595.93 L 634.09 559.79 L 580.04 539.68 L 547.09 603.44 L 546.63 603.31 L 553.87 512.92 L 565.53 491.20 L 648.38 337.07 Z "/>
<path class="zone" data-zone-id="11215810_150_01" d="M 421.48 730.46 L 422.28 729.45 L 434.46 711.60 L 440.09 701.29 L 489.58 610.58 L 516.39 561.61 L 599.32 407.60 L 640.77 329.49 L 657.01 339.06 L 648.38 337.07 L 565.53 491.20 L 553.87 512.92 L 546.63 603.31 L 547.09 603.44 L 580.04 539.68 L 634.09 559.79 L 623.76 595.93 L 666.97 577.72 L 701.29 584.67 L 696.95 601.01 L 694.03 615.06 L 691.13 623.94 L 686.50 634.32 L 680.00 642.57 L 672.64 652.52 L 650.78 686.28 L 648.41 689.72 L 646.42 692.59 L 640.92 699.48 L 615.05 731.11 L 613.94 732.47 L 605.40 740.95 L 600.20 744.95 L 584.01 755.25 L 542.10 778.93 L 537.11 782.83 L 536.72 783.14 L 532.05 788.03 L 526.89 795.71 L 515.08 817.32 L 505.41 834.09 L 500.24 842.89 L 496.26 849.68 L 481.02 823.55 L 447.81 769.14 L 437.94 754.64 L 430.72 744.03 L 421.48 730.46 Z "/>
<path class="zone" data-zone-id="11215810_150_00" d="M 796.13 491.48 L 795.66 492.01 L 795.18 492.40 L 790.33 495.17 L 783.89 512.17 L 734.36 494.74 L 738.40 485.24 L 755.48 436.99 L 760.51 415.83 L 760.69 415.08 L 763.76 402.17 L 767.13 404.20 L 768.41 400.49 L 774.01 384.35 L 847.66 409.88 L 842.07 426.02 L 842.07 426.04 L 829.35 462.76 L 826.95 466.25 L 826.51 467.24 L 819.69 486.89 L 803.11 480.63 L 796.13 491.48 Z "/>
<path class="zone" data-zone-id="11215810_150_01" d="M 786.47 309.77 L 752.97 282.80 L 747.62 278.47 L 762.21 237.43 L 770.98 211.71 L 781.10 183.65 L 783.66 177.65 L 786.77 170.41 L 793.67 160.49 L 799.17 156.56 L 804.03 154.61 L 800.90 144.89 L 800.69 142.86 L 801.15 140.16 L 802.98 137.03 L 806.27 134.47 L 810.84 131.62 L 813.23 129.62 L 835.28 107.45 L 837.15 105.60 L 839.18 104.09 L 841.72 103.42 L 890.08 98.17 L 916.90 95.21 L 922.28 95.76 L 925.65 96.79 L 927.66 98.83 L 929.17 100.70 L 930.34 104.92 L 942.95 150.22 L 944.04 152.40 L 946.06 154.66 L 965.90 163.18 L 986.17 171.74 L 956.99 247.57 L 927.82 323.43 L 900.61 398.01 L 874.18 470.27 L 861.72 502.75 L 819.69 486.89 L 826.51 467.24 L 826.95 466.25 L 829.35 462.76 L 842.07 426.04 L 836.45 442.16 L 842.07 426.04 L 847.66 409.88 L 774.01 384.35 L 783.29 357.58 L 797.37 318.17 L 791.17 313.79 L 789.97 312.94 L 786.47 309.77 Z "/>
<path class="zone" data-zone-id="11215810_150_02" d="M 794.10 678.61 L 790.77 682.26 L 787.28 686.10 L 784.78 688.64 L 782.72 690.20 L 779.74 691.85 L 765.83 697.43 L 754.16 701.86 L 746.59 703.38 L 740.13 703.12 L 735.45 702.88 L 730.43 703.33 L 728.14 703.95 L 665.36 756.25 L 641.88 778.34 L 600.03 817.66 L 575.12 840.42 L 557.63 854.25 L 526.37 879.61 L 521.46 882.38 L 513.43 886.92 L 513.50 884.89 L 510.64 874.33 L 496.26 849.68 L 500.24 842.89 L 505.41 834.09 L 515.08 817.32 L 526.89 795.71 L 532.05 788.03 L 536.72 783.14 L 537.11 782.83 L 542.10 778.93 L 584.01 755.25 L 600.20 744.95 L 605.40 740.95 L 613.94 732.47 L 615.05 731.11 L 640.92 699.48 L 646.42 692.59 L 648.41 689.72 L 650.78 686.28 L 653.94 681.39 L 672.64 652.52 L 680.00 642.57 L 686.50 634.32 L 688.50 629.83 L 691.13 623.94 L 694.03 615.06 L 696.95 601.01 L 702.09 581.65 L 706.01 566.32 L 712.72 546.12 L 716.13 536.97 L 724.83 517.17 L 734.36 494.74 L 783.89 512.17 L 790.33 495.17 L 795.18 492.40 L 795.66 492.01 L 796.13 491.48 L 803.11 480.63 L 861.72 502.75 L 826.51 594.61 L 814.40 626.21 L 795.64 675.20 L 794.10 678.61 Z M 808.37 482.62 L 819.69 486.89 L 803.11 480.63 L 808.37 482.62 Z M 796.70 513.43 L 795.38 513.73 L 800.89 512.49 L 796.70 513.43 Z "/>
</svg>
