<svg xmlns="http://www.w3.org/2000/svg" viewBox="0 0 1154 1155" width="1154" height="1155">
<path class="zone" data-zone-id="11215870_030_00" d="M 276.16 704.28 L 331.50 705.72 L 330.00 710.73 L 330.00 710.73 L 325.35 726.33 L 331.31 824.98 L 286.66 848.27 L 274.76 824.27 L 271.56 813.11 L 267.23 798.00 L 265.37 791.47 L 274.74 773.92 L 275.10 773.64 L 272.11 768.04 L 267.64 759.65 L 274.28 729.49 L 273.61 717.04 L 273.50 715.10 L 274.60 710.65 L 276.16 704.28 Z "/>
<path class="zone" data-zone-id="11215870_030_01" d="M 276.52 702.83 L 276.88 676.85 L 280.49 669.48 L 281.47 658.13 L 288.69 638.55 L 289.42 638.66 L 289.40 638.76 L 304.55 640.97 L 337.71 646.02 L 347.07 664.00 L 342.79 675.73 L 330.00 710.73 L 331.50 705.72 L 330.00 710.73 L 329.51 712.08 L 327.28 718.18 L 273.61 717.04 L 273.50 715.10 L 274.60 710.65 L 276.16 704.28 L 276.52 702.83 Z "/>
<path class="zone" data-zone-id="11215870_030_02" d="M 414.83 575.54 L 349.90 645.01 L 334.68 645.36 L 289.40 638.76 L 304.55 640.97 L 289.42 638.66 L 295.58 609.30 L 304.20 586.94 L 307.97 572.73 L 315.45 559.20 L 315.48 553.20 L 329.98 534.48 L 332.81 529.91 L 342.23 511.07 L 355.38 492.03 L 357.95 488.30 L 383.34 460.18 L 403.59 433.24 L 408.34 417.40 L 417.75 386.07 L 441.19 443.54 L 464.31 494.80 L 411.20 551.58 L 410.74 556.64 L 403.53 564.38 L 414.83 575.54 Z M 416.74 400.29 L 423.95 409.93 L 430.26 418.39 L 416.74 400.29 Z M 326.38 539.13 L 346.86 549.40 L 340.04 545.98 L 326.38 539.13 Z "/>
<path class="zone" data-zone-id="11215870_030_03" d="M 408.34 417.40 L 403.59 433.24 L 383.34 460.18 L 357.95 488.30 L 355.38 492.03 L 342.23 511.07 L 332.81 529.91 L 329.98 534.48 L 326.38 539.13 L 325.85 538.86 L 297.61 524.70 L 311.63 495.21 L 321.03 476.45 L 328.85 460.84 L 338.62 441.33 L 344.98 428.61 L 354.78 409.04 L 360.71 397.19 L 372.72 373.19 L 376.23 366.21 L 395.33 364.15 L 401.47 371.87 L 416.26 391.03 L 408.34 417.40 Z "/>
<path class="zone" data-zone-id="11215870_030_04" d="M 872.48 108.10 L 893.58 107.69 L 917.70 135.64 L 939.36 163.34 L 946.06 173.81 L 947.84 177.18 L 956.63 193.79 L 961.21 205.68 L 966.41 231.09 L 966.64 242.70 L 963.89 276.25 L 961.89 284.09 L 778.66 481.09 L 759.09 481.62 L 692.06 420.03 L 692.07 420.03 L 632.21 365.02 L 872.48 108.10 Z "/>
<path class="zone" data-zone-id="11215870_030_05" d="M 561.74 661.21 L 568.27 673.01 L 579.53 678.25 L 588.47 677.83 L 612.06 665.71 L 616.33 658.20 L 616.86 647.37 L 614.09 638.41 L 553.07 523.19 L 531.66 478.35 L 527.18 466.52 L 538.51 454.50 L 618.97 369.08 L 712.71 268.85 L 802.95 172.56 L 871.17 97.92 L 874.67 94.09 L 888.38 79.09 L 911.22 99.78 L 975.85 168.76 L 1001.79 198.10 L 1037.31 245.91 L 1037.31 245.91 L 1015.06 269.44 L 1037.31 245.91 L 1037.31 245.91 L 1048.23 260.61 L 1048.23 260.61 L 904.67 417.48 L 662.23 670.46 L 533.28 807.24 L 296.10 1058.82 L 295.08 1059.77 L 277.84 1075.89 L 276.57 1061.93 L 276.34 1059.39 L 275.99 1055.65 L 274.16 1034.65 L 261.26 865.72 L 260.48 855.54 L 260.45 855.25 L 254.70 782.90 L 253.57 768.62 L 252.96 729.27 L 253.06 709.60 L 255.69 677.64 L 258.20 648.10 L 259.69 641.08 L 264.68 617.50 L 270.87 594.94 L 282.53 557.29 L 297.89 517.12 L 298.08 516.75 L 361.23 390.63 L 390.98 331.33 L 392.10 335.15 L 394.88 345.74 L 395.21 346.98 L 405.20 362.59 L 419.01 384.28 L 439.31 416.17 L 464.72 481.64 L 474.50 500.76 L 482.87 514.21 L 498.99 540.09 L 561.74 661.21 Z M 273.50 715.10 L 273.03 717.03 L 273.61 717.04 L 274.28 729.49 L 267.64 759.65 L 272.11 768.04 L 275.10 773.64 L 274.74 773.92 L 265.37 791.47 L 267.23 798.00 L 271.56 813.11 L 274.76 824.27 L 286.66 848.27 L 331.31 824.98 L 325.35 726.33 L 330.00 710.73 L 330.00 710.73 L 342.79 675.73 L 347.07 664.00 L 337.71 646.02 L 304.55 640.97 L 334.68 645.36 L 349.90 645.01 L 414.83 575.54 L 403.53 564.38 L 410.74 556.64 L 411.20 551.58 L 464.31 494.80 L 441.19 443.54 L 417.75 386.07 L 416.26 391.03 L 401.47 371.87 L 395.33 364.15 L 376.23 366.21 L 372.72 373.19 L 360.71 397.19 L 354.78 409.04 L 344.98 428.61 L 338.62 441.33 L 328.85 460.84 L 321.03 476.45 L 311.63 495.21 L 297.61 524.70 L 325.85 538.86 L 326.38 539.13 L 315.48 553.20 L 315.45 559.20 L 307.97 572.73 L 304.20 586.94 L 295.58 609.30 L 289.42 638.66 L 288.69 638.55 L 281.47 658.13 L 280.49 669.48 L 276.88 676.85 L 276.52 702.83 L 276.16 704.28 L 273.50 715.10 L 273.55 715.93 L 272.91 704.19 L 273.50 715.10 Z M 893.58 107.69 L 872.48 108.10 L 632.21 365.02 L 692.07 420.03 L 692.06 420.03 L 759.09 481.62 L 778.66 481.09 L 961.89 284.09 L 963.89 276.25 L 966.64 242.70 L 966.41 231.09 L 961.21 205.68 L 956.63 193.79 L 947.84 177.18 L 946.06 173.81 L 939.36 163.34 L 917.70 135.64 L 893.58 107.69 Z "/>
<path class="zone" data-zone-id="11215870_030_00" d="M 244.14 783.76 L 243.09 783.85 L 206.52 786.07 L 202.80 733.14 L 202.58 729.93 L 166.16 743.51 L 112.04 763.70 L 112.04 763.70 L 108.81 720.92 L 107.89 708.87 L 107.89 708.82 L 106.77 702.69 L 106.77 702.69 L 105.80 697.41 L 105.80 697.41 L 107.58 696.68 L 107.58 696.68 L 107.58 696.68 L 117.63 692.53 L 133.41 686.51 L 153.29 679.52 L 184.70 667.86 L 202.68 661.23 L 207.18 659.57 L 222.38 654.01 L 249.58 644.59 L 259.69 641.08 L 258.20 648.10 L 255.69 677.64 L 253.06 709.60 L 252.96 729.27 L 253.57 768.62 L 254.70 782.90 L 254.70 782.90 L 244.14 783.76 L 243.97 781.50 L 244.14 783.76 Z "/>
</svg>
