<svg xmlns="http://www.w3.org/2000/svg" viewBox="0 0 1154 1155" width="1154" height="1155">
<path class="zone" data-zone-id="11215780_030_01" d="M 142.79 879.45 L 139.34 879.47 L 138.43 879.48 L 128.00 875.73 L 113.30 869.87 L 100.09 864.96 L 81.05 857.33 L 80.87 857.80 L 79.10 857.14 L 79.31 856.56 L 103.12 796.57 L 117.72 758.42 L 125.04 739.75 L 132.04 742.29 L 143.25 746.36 L 180.15 759.77 L 189.81 763.46 L 193.70 764.95 L 196.77 766.12 L 191.99 778.88 L 182.30 806.46 L 176.09 824.32 L 171.70 837.46 L 178.89 862.96 L 180.19 867.58 L 180.05 867.62 L 160.26 872.77 L 152.79 875.25 L 142.79 879.45 Z "/>
<path class="zone" data-zone-id="11215780_030_00" d="M 152.28 670.21 L 152.56 669.50 L 152.63 669.31 L 166.41 636.49 L 169.43 629.30 L 172.26 622.85 L 191.27 579.54 L 193.10 575.15 L 194.85 570.96 L 212.93 578.22 L 221.17 581.53 L 228.37 584.80 L 229.66 585.61 L 241.97 595.11 L 247.95 600.15 L 251.89 604.02 L 255.00 608.13 L 254.77 608.77 L 253.97 610.97 L 250.32 620.98 L 245.05 635.44 L 240.38 648.12 L 236.63 658.26 L 235.84 660.42 L 234.44 664.20 L 223.91 692.74 L 217.30 710.76 L 213.27 721.69 L 211.89 725.43 L 203.48 748.23 L 196.77 766.12 L 193.70 764.95 L 189.81 763.46 L 180.15 759.77 L 143.25 746.36 L 132.04 742.29 L 125.04 739.75 L 125.32 739.02 L 138.67 704.95 L 139.04 704.00 L 152.28 670.21 Z "/>
<path class="zone" data-zone-id="11215780_030_03" d="M 194.97 570.68 L 200.61 557.13 L 213.30 528.32 L 236.30 476.13 L 237.58 473.29 L 250.82 444.02 L 251.27 443.03 L 251.42 442.70 L 266.70 408.93 L 278.08 383.42 L 295.36 391.62 L 326.08 406.20 L 340.66 413.12 L 340.64 413.16 L 331.75 433.32 L 324.66 448.59 L 324.60 448.71 L 319.77 459.34 L 315.50 468.37 L 314.25 471.03 L 313.10 474.24 L 310.95 480.28 L 306.10 490.73 L 295.56 514.81 L 280.62 549.15 L 266.31 581.30 L 264.71 584.88 L 261.51 592.04 L 259.25 597.48 L 256.58 603.93 L 255.00 608.13 L 251.89 604.02 L 247.95 600.15 L 241.97 595.11 L 229.66 585.61 L 228.37 584.80 L 221.17 581.53 L 212.93 578.22 L 194.85 570.96 L 194.97 570.68 Z "/>
<path class="zone" data-zone-id="11215780_030_04" d="M 318.56 292.32 L 331.07 265.02 L 334.82 256.09 L 341.59 240.00 L 341.59 240.00 L 343.48 240.94 L 343.48 240.94 L 451.85 294.98 L 452.09 295.11 L 440.97 319.27 L 424.03 356.08 L 418.67 367.72 L 416.27 372.93 L 368.44 350.09 L 367.18 353.19 L 365.58 357.09 L 360.04 369.90 L 352.45 386.73 L 352.36 386.93 L 346.59 399.58 L 340.66 413.12 L 326.08 406.20 L 295.36 391.62 L 278.08 383.42 L 284.13 369.86 L 305.08 322.07 L 308.53 314.22 L 318.56 292.32 Z "/>
<path class="zone" data-zone-id="11215780_030_05" d="M 560.40 349.12 L 562.02 349.93 L 549.51 373.82 L 549.04 374.71 L 540.93 390.19 L 536.79 398.39 L 548.93 373.52 L 536.78 398.41 L 536.73 398.51 L 536.06 399.86 L 530.46 410.94 L 521.14 429.42 L 516.48 427.19 L 479.69 409.16 L 479.26 408.95 L 468.56 403.70 L 427.09 383.28 L 426.50 382.99 L 414.49 376.98 L 412.18 375.78 L 408.09 373.65 L 390.28 364.41 L 367.35 353.28 L 367.18 353.19 L 368.44 350.09 L 416.27 372.93 L 418.67 367.72 L 424.03 356.08 L 440.97 319.27 L 452.09 295.11 L 560.40 349.12 Z "/>
<path class="zone" data-zone-id="11215780_030_06" d="M 504.68 421.53 L 509.68 423.94 L 518.82 428.33 L 521.13 429.44 L 521.12 429.46 L 510.48 450.63 L 497.95 475.98 L 491.61 488.95 L 491.52 489.13 L 481.94 484.27 L 460.18 473.32 L 454.15 470.28 L 426.49 456.36 L 421.63 453.92 L 395.58 440.77 L 393.08 439.51 L 343.33 414.39 L 340.66 413.12 L 346.59 399.58 L 352.36 386.93 L 352.45 386.73 L 360.04 369.90 L 365.58 357.09 L 367.18 353.19 L 367.35 353.28 L 390.28 364.41 L 408.09 373.65 L 412.18 375.78 L 414.49 376.98 L 426.50 382.99 L 427.09 383.28 L 468.56 403.70 L 479.26 408.95 L 479.69 409.16 L 516.48 427.19 L 504.68 421.53 Z "/>
<path class="zone" data-zone-id="11215780_030_07" d="M 491.52 489.13 L 481.69 508.89 L 472.21 528.19 L 471.76 529.11 L 465.43 542.07 L 462.60 548.23 L 453.10 543.34 L 430.30 531.95 L 406.36 519.99 L 394.80 514.26 L 371.74 502.84 L 363.47 498.75 L 355.66 494.88 L 346.55 490.46 L 338.58 486.59 L 313.10 474.24 L 314.25 471.03 L 315.50 468.37 L 319.77 459.34 L 324.60 448.71 L 324.66 448.59 L 331.75 433.32 L 340.64 413.16 L 340.66 413.12 L 343.33 414.39 L 393.08 439.51 L 395.58 440.77 L 421.63 453.92 L 426.49 456.36 L 454.15 470.28 L 460.18 473.32 L 481.94 484.27 L 491.52 489.13 Z "/>
<path class="zone" data-zone-id="11215780_030_08" d="M 462.60 548.23 L 511.14 572.55 L 514.79 574.31 L 513.14 577.75 L 511.30 581.59 L 506.24 592.50 L 501.81 601.16 L 500.00 604.77 L 496.79 611.16 L 492.20 620.38 L 489.07 626.37 L 485.63 632.93 L 483.50 636.99 L 482.11 639.64 L 481.24 641.29 L 477.10 649.15 L 473.14 656.09 L 472.82 656.60 L 469.27 662.18 L 465.13 669.08 L 460.36 676.65 L 455.55 684.70 L 451.58 691.42 L 450.70 692.55 L 444.00 701.05 L 438.63 707.74 L 436.56 706.35 L 430.22 702.09 L 426.55 701.31 L 422.09 700.58 L 417.21 699.76 L 413.31 698.02 L 409.80 696.76 L 403.93 693.38 L 401.10 691.54 L 398.78 688.90 L 398.07 687.32 L 398.07 687.22 L 398.08 684.81 L 399.31 681.70 L 404.46 672.20 L 410.09 662.45 L 417.12 650.11 L 420.52 643.12 L 421.62 640.85 L 422.76 638.51 L 424.98 634.38 L 439.71 604.42 L 443.30 597.74 L 444.57 595.37 L 448.73 584.59 L 448.80 584.42 L 451.60 576.80 L 451.78 576.28 L 452.80 573.52 L 460.15 553.80 L 462.60 548.23 Z "/>
<path class="zone" data-zone-id="11215780_030_09" d="M 514.79 574.31 L 524.03 578.74 L 532.93 583.02 L 541.77 587.49 L 554.86 594.11 L 558.26 595.79 L 562.09 597.69 L 584.78 608.93 L 564.92 649.03 L 546.82 686.28 L 545.29 689.22 L 543.47 693.94 L 542.17 697.30 L 533.62 714.74 L 525.41 731.51 L 519.79 742.72 L 516.97 748.72 L 513.04 756.94 L 504.59 775.16 L 504.05 776.62 L 498.06 771.91 L 481.81 759.15 L 469.89 749.35 L 467.27 747.14 L 456.92 738.44 L 455.79 737.47 L 455.14 736.91 L 445.94 729.24 L 444.29 727.87 L 434.40 719.69 L 431.54 717.31 L 432.96 716.17 L 437.84 708.73 L 438.63 707.74 L 444.00 701.05 L 450.70 692.55 L 451.58 691.42 L 455.55 684.70 L 460.36 676.65 L 465.13 669.08 L 469.27 662.18 L 472.82 656.60 L 473.14 656.09 L 477.10 649.15 L 481.24 641.29 L 482.11 639.64 L 483.50 636.99 L 485.63 632.93 L 489.07 626.37 L 492.20 620.38 L 496.79 611.16 L 500.00 604.77 L 501.81 601.16 L 506.24 592.50 L 511.30 581.59 L 513.14 577.75 L 514.79 574.31 Z "/>
<path class="zone" data-zone-id="11215780_030_10" d="M 599.67 616.11 L 614.65 623.33 L 618.44 625.24 L 619.98 626.01 L 651.50 641.86 L 651.53 641.88 L 649.61 645.69 L 648.02 648.84 L 639.11 667.16 L 630.67 684.18 L 620.23 705.23 L 609.65 727.23 L 606.10 734.01 L 603.16 739.64 L 600.70 746.29 L 598.03 749.97 L 594.41 752.96 L 590.96 755.82 L 588.76 757.43 L 579.96 764.54 L 574.74 769.47 L 571.73 771.77 L 567.10 774.63 L 558.78 778.16 L 554.16 779.18 L 553.34 779.28 L 550.70 779.62 L 545.85 779.82 L 542.51 779.81 L 537.80 779.63 L 531.33 786.44 L 525.97 790.52 L 525.66 790.75 L 525.07 790.32 L 521.78 787.92 L 508.22 779.91 L 504.05 776.62 L 504.59 775.16 L 513.04 756.94 L 516.97 748.72 L 519.79 742.72 L 525.41 731.51 L 533.62 714.74 L 542.17 697.30 L 543.47 693.94 L 545.29 689.22 L 546.82 686.28 L 564.92 649.03 L 584.78 608.93 L 599.67 616.11 Z "/>
<path class="zone" data-zone-id="11215780_030_11" d="M 651.53 641.88 L 675.55 653.96 L 675.80 654.09 L 701.56 666.90 L 705.91 669.05 L 696.46 688.07 L 687.02 707.09 L 686.57 707.99 L 675.43 730.46 L 671.29 738.79 L 671.15 739.08 L 659.82 762.28 L 656.05 769.97 L 652.58 777.07 L 652.16 777.93 L 642.00 798.64 L 632.15 818.73 L 630.37 821.22 L 628.45 823.11 L 626.03 824.64 L 623.62 825.58 L 620.38 826.32 L 593.93 828.41 L 573.98 828.76 L 568.85 828.37 L 562.39 825.98 L 556.07 823.09 L 552.78 821.17 L 548.11 816.87 L 529.82 795.03 L 525.66 790.75 L 525.97 790.52 L 531.33 786.44 L 537.80 779.63 L 542.51 779.81 L 545.85 779.82 L 550.70 779.62 L 553.34 779.28 L 554.16 779.18 L 558.78 778.16 L 567.10 774.63 L 571.73 771.77 L 574.74 769.47 L 579.96 764.54 L 588.76 757.43 L 590.96 755.82 L 594.41 752.96 L 598.03 749.97 L 600.70 746.29 L 603.16 739.64 L 606.10 734.01 L 609.65 727.23 L 620.23 705.23 L 630.67 684.18 L 639.11 667.16 L 648.02 648.84 L 649.61 645.69 L 651.53 641.88 Z "/>
<path class="zone" data-zone-id="11215780_030_12" d="M 705.91 669.05 L 726.32 679.17 L 766.65 699.16 L 764.79 702.97 L 747.65 738.13 L 746.40 740.71 L 731.26 771.30 L 730.49 772.85 L 729.14 775.58 L 726.30 775.14 L 722.61 775.28 L 655.12 777.82 L 652.16 777.93 L 652.58 777.07 L 656.05 769.97 L 659.82 762.28 L 671.15 739.08 L 671.29 738.79 L 675.43 730.46 L 686.57 707.99 L 687.02 707.09 L 696.46 688.07 L 705.91 669.05 Z "/>
<path class="zone" data-zone-id="11215780_030_13" d="M 766.65 699.16 L 788.60 710.04 L 827.09 729.12 L 824.10 736.49 L 814.53 755.57 L 809.40 765.52 L 808.03 768.16 L 802.89 778.66 L 801.60 781.29 L 801.41 781.66 L 791.48 801.09 L 790.46 803.27 L 789.12 806.11 L 750.82 786.36 L 730.63 775.81 L 729.14 775.58 L 730.49 772.85 L 731.26 771.30 L 746.40 740.71 L 747.65 738.13 L 764.79 702.97 L 766.65 699.16 Z "/>
<path class="zone" data-zone-id="11215780_030_14" d="M 827.09 729.12 L 862.70 746.77 L 887.04 758.71 L 885.20 762.42 L 868.85 795.36 L 865.62 801.87 L 847.94 837.50 L 846.76 839.88 L 843.07 847.31 L 842.58 840.55 L 841.48 835.72 L 839.89 832.50 L 837.17 830.87 L 789.12 806.11 L 790.46 803.27 L 791.48 801.09 L 801.41 781.66 L 801.60 781.29 L 802.89 778.66 L 808.03 768.16 L 809.40 765.52 L 814.53 755.57 L 824.10 736.49 L 827.09 729.12 Z "/>
<path class="zone" data-zone-id="11215780_030_15" d="M 887.04 758.71 L 912.44 771.18 L 927.24 778.63 L 948.27 789.21 L 944.84 796.33 L 933.22 820.41 L 924.14 838.85 L 921.44 844.32 L 917.21 852.68 L 907.42 871.98 L 902.94 880.85 L 901.11 884.47 L 899.70 883.78 L 845.39 855.84 L 843.18 848.75 L 843.07 847.31 L 846.76 839.88 L 847.94 837.50 L 865.62 801.87 L 868.85 795.36 L 885.20 762.42 L 887.04 758.71 Z "/>
<path class="zone" data-zone-id="11215780_030_16" d="M 980.48 805.12 L 999.71 814.36 L 1008.92 818.91 L 1035.71 832.12 L 1042.71 835.58 L 1050.19 839.27 L 1055.47 842.17 L 1062.81 846.22 L 1068.65 851.00 L 1069.20 851.45 L 1071.46 855.82 L 1074.89 862.47 L 1062.04 870.18 L 1055.39 873.67 L 1047.01 878.06 L 1039.30 882.11 L 1005.80 899.30 L 970.21 915.02 L 963.47 914.02 L 962.77 913.81 L 959.14 912.71 L 946.72 906.67 L 925.11 896.15 L 901.11 884.47 L 902.94 880.85 L 907.42 871.98 L 917.21 852.68 L 921.44 844.32 L 924.14 838.85 L 933.22 820.41 L 944.84 796.33 L 948.27 789.21 L 968.94 799.42 L 980.48 805.12 Z "/>
<path class="zone" data-zone-id="11215780_030_17" d="M 425.43 722.24 L 418.76 727.27 L 413.40 731.06 L 403.04 737.84 L 392.90 743.34 L 384.63 748.01 L 375.29 754.93 L 371.36 758.66 L 368.23 760.17 L 369.27 762.13 L 374.38 767.19 L 379.47 770.74 L 381.39 772.73 L 382.57 774.82 L 382.86 775.41 L 369.63 770.54 L 365.16 761.58 L 364.03 759.31 L 362.77 756.78 L 359.66 750.75 L 355.92 743.64 L 345.19 725.21 L 334.79 711.30 L 331.39 707.39 L 330.21 706.03 L 323.40 699.01 L 321.02 696.31 L 316.79 691.48 L 302.81 672.56 L 291.39 655.26 L 290.86 654.45 L 285.77 646.68 L 281.94 642.09 L 270.92 628.88 L 265.06 621.71 L 260.42 615.34 L 255.00 608.13 L 256.58 603.93 L 259.25 597.48 L 261.51 592.04 L 264.71 584.88 L 266.31 581.30 L 280.62 549.15 L 295.56 514.81 L 306.10 490.73 L 310.95 480.28 L 313.10 474.24 L 338.58 486.59 L 346.55 490.46 L 355.66 494.88 L 363.47 498.75 L 371.74 502.84 L 394.80 514.26 L 406.36 519.99 L 430.30 531.95 L 453.10 543.34 L 462.60 548.23 L 460.15 553.80 L 452.80 573.52 L 451.78 576.28 L 451.60 576.80 L 448.80 584.42 L 448.73 584.59 L 444.57 595.37 L 443.30 597.74 L 439.71 604.42 L 424.98 634.38 L 422.76 638.51 L 421.62 640.85 L 420.52 643.12 L 417.12 650.11 L 410.09 662.45 L 404.46 672.20 L 399.31 681.70 L 398.08 684.81 L 398.07 687.22 L 398.07 687.32 L 398.78 688.90 L 401.10 691.54 L 403.93 693.38 L 409.80 696.76 L 413.31 698.02 L 417.21 699.76 L 422.09 700.58 L 426.55 701.31 L 430.22 702.09 L 436.56 706.35 L 438.63 707.74 L 437.84 708.73 L 432.96 716.17 L 431.54 717.31 L 425.43 722.24 Z "/>
<path class="zone" data-zone-id="11215780_030_18" d="M 359.61 764.02 L 356.83 765.81 L 348.32 771.31 L 339.82 780.53 L 339.77 780.59 L 333.79 787.99 L 333.64 788.18 L 331.24 791.16 L 320.51 806.21 L 318.90 807.83 L 308.76 813.14 L 307.06 814.33 L 293.69 823.66 L 290.34 826.40 L 276.77 837.53 L 263.93 842.37 L 263.02 842.71 L 257.04 844.84 L 255.75 841.77 L 255.34 840.80 L 254.26 838.23 L 253.62 833.03 L 252.41 823.06 L 250.30 805.72 L 248.37 789.82 L 247.52 782.84 L 246.97 780.41 L 245.59 778.49 L 234.52 775.83 L 211.61 770.33 L 201.63 767.93 L 196.80 766.13 L 196.77 766.12 L 203.48 748.23 L 211.89 725.43 L 213.27 721.69 L 217.30 710.76 L 223.91 692.74 L 234.44 664.20 L 235.84 660.42 L 236.63 658.26 L 245.05 635.44 L 250.32 620.98 L 253.97 610.97 L 255.00 608.13 L 260.42 615.34 L 265.06 621.71 L 270.92 628.88 L 281.94 642.09 L 285.77 646.68 L 290.86 654.45 L 291.39 655.26 L 302.81 672.56 L 316.79 691.48 L 321.02 696.31 L 323.40 699.01 L 330.21 706.03 L 331.39 707.39 L 334.79 711.30 L 345.19 725.21 L 355.92 743.64 L 359.66 750.75 L 362.77 756.78 L 364.03 759.31 L 365.16 761.58 L 359.61 764.02 Z "/>
<path class="zone" data-zone-id="11215780_030_19" d="M 257.04 844.84 L 254.98 845.57 L 241.23 850.45 L 220.70 855.96 L 188.26 865.26 L 180.19 867.58 L 178.89 862.96 L 171.70 837.46 L 176.09 824.32 L 182.30 806.46 L 191.99 778.88 L 196.77 766.12 L 196.80 766.13 L 201.63 767.93 L 211.61 770.33 L 234.52 775.83 L 245.59 778.49 L 246.97 780.41 L 247.52 782.84 L 248.37 789.82 L 250.30 805.72 L 252.41 823.06 L 253.62 833.03 L 254.26 838.23 L 255.34 840.80 L 255.75 841.77 L 257.04 844.84 Z "/>
</svg>
