<svg xmlns="http://www.w3.org/2000/svg" viewBox="0 0 1155 1155" width="1155" height="1155">
<path class="zone" data-zone-id="11215847_040_00" d="M 580.94 586.28 L 617.02 598.52 L 625.15 592.08 L 641.79 586.90 L 686.10 575.77 L 715.32 566.90 L 717.93 570.88 L 727.67 585.73 L 771.49 649.16 L 774.32 649.99 L 836.18 670.16 L 852.70 675.21 L 872.58 681.29 L 990.77 725.56 L 958.47 816.86 L 944.80 805.14 L 929.87 828.38 L 902.63 862.10 L 900.07 859.56 L 876.56 886.10 L 720.52 834.54 L 722.67 831.57 L 719.18 828.55 L 702.13 813.78 L 687.76 801.34 L 674.03 789.45 L 667.92 794.20 L 648.74 809.07 L 619.11 777.81 L 603.39 761.22 L 590.23 747.33 L 574.95 731.64 L 604.22 692.13 L 608.90 688.84 L 597.64 675.25 L 584.84 659.79 L 576.52 649.76 L 557.98 621.62 L 570.53 611.14 L 535.58 598.90 L 580.94 586.28 Z "/>
<path class="zone" data-zone-id="11215847_040_01" d="M 658.88 814.03 L 583.78 788.26 L 563.75 781.39 L 558.88 779.70 L 387.90 720.30 L 372.27 713.37 L 377.16 704.08 L 379.56 699.53 L 408.64 670.98 L 437.00 644.19 L 450.74 631.22 L 456.26 626.01 L 488.06 594.94 L 492.69 590.59 L 498.99 586.33 L 504.50 583.18 L 510.28 578.84 L 517.86 573.14 L 524.46 566.83 L 537.79 571.89 L 545.04 574.64 L 580.63 586.17 L 580.94 586.28 L 535.58 598.90 L 570.53 611.14 L 557.98 621.62 L 576.52 649.76 L 584.84 659.79 L 597.64 675.25 L 608.90 688.84 L 604.22 692.13 L 574.95 731.64 L 590.23 747.33 L 603.39 761.22 L 619.11 777.81 L 648.74 809.07 L 667.92 794.20 L 674.03 789.45 L 687.76 801.34 L 702.13 813.78 L 719.18 828.55 L 722.67 831.57 L 720.52 834.54 L 716.54 833.22 L 658.88 814.03 Z "/>
<path class="zone" data-zone-id="11215847_040_02" d="M 1017.30 735.49 L 1046.93 746.59 L 1046.93 746.59 L 1045.93 749.25 L 981.56 921.30 L 981.56 921.30 L 981.56 921.30 L 889.44 890.35 L 876.56 886.10 L 900.07 859.56 L 902.63 862.10 L 929.87 828.38 L 944.80 805.14 L 958.47 816.86 L 990.77 725.56 L 1017.30 735.49 Z "/>
<path class="zone" data-zone-id="11215847_040_00" d="M 650.23 447.08 L 610.04 485.02 L 559.33 533.51 L 524.46 566.83 L 517.86 573.14 L 510.28 578.84 L 504.50 583.18 L 499.72 585.92 L 480.93 566.26 L 458.49 530.88 L 365.89 384.88 L 397.29 348.45 L 448.58 312.20 L 455.62 314.67 L 459.65 316.08 L 470.72 320.12 L 476.90 322.38 L 588.68 363.29 L 592.95 364.86 L 661.93 390.09 L 677.64 395.36 L 676.60 399.89 L 670.06 428.20 L 669.82 428.43 L 662.76 435.15 L 650.23 447.08 Z "/>
<path class="zone" data-zone-id="11215847_040_01" d="M 365.87 710.53 L 258.43 674.17 L 151.22 639.61 L 148.20 625.91 L 145.12 611.91 L 108.06 562.06 L 109.58 550.60 L 122.73 515.06 L 140.13 470.68 L 140.32 470.14 L 142.70 463.45 L 149.62 444.00 L 161.24 411.51 L 175.54 372.11 L 177.06 367.76 L 179.39 361.08 L 181.35 355.43 L 188.66 334.12 L 195.96 313.99 L 208.56 278.76 L 216.92 254.59 L 220.98 244.94 L 224.68 234.89 L 225.13 233.67 L 232.93 236.42 L 313.35 264.74 L 313.75 264.88 L 416.49 300.94 L 424.28 303.67 L 448.58 312.20 L 397.29 348.45 L 365.89 384.88 L 458.49 530.88 L 480.93 566.26 L 499.72 585.92 L 498.99 586.33 L 492.69 590.59 L 488.06 594.94 L 456.26 626.01 L 450.74 631.22 L 437.00 644.19 L 408.64 670.98 L 379.56 699.53 L 377.16 704.08 L 372.27 713.37 L 365.87 710.53 Z "/>
<path class="zone" data-zone-id="11215847_040_00" d="M 559.33 533.51 L 610.04 485.02 L 650.23 447.08 L 662.97 434.95 L 677.84 460.08 L 740.03 551.88 L 729.94 559.75 L 718.12 566.05 L 715.32 566.90 L 686.10 575.77 L 641.79 586.90 L 625.15 592.08 L 617.02 598.52 L 597.64 591.94 L 580.63 586.17 L 545.04 574.64 L 537.79 571.89 L 524.46 566.83 L 551.74 540.77 L 559.33 533.51 Z "/>
<path class="zone" data-zone-id="11215847_040_01" d="M 781.26 430.13 L 781.46 430.20 L 831.38 446.95 L 863.39 457.70 L 857.67 464.47 L 852.06 471.10 L 821.32 493.13 L 812.54 498.08 L 780.54 520.42 L 757.01 537.80 L 748.53 545.25 L 748.23 545.49 L 740.03 551.88 L 677.84 460.08 L 662.97 434.95 L 669.82 428.43 L 670.06 428.20 L 677.64 395.36 L 690.80 399.78 L 691.50 400.01 L 698.25 402.28 L 781.26 430.13 Z "/>
</svg>
