<svg xmlns="http://www.w3.org/2000/svg" viewBox="0 0 1155 1155" width="1155" height="1155">
<path class="zone" data-zone-id="11215847_020_01" d="M 388.49 758.19 L 333.31 739.27 L 324.00 736.09 L 314.75 732.91 L 284.58 722.57 L 264.41 716.10 L 237.52 706.89 L 187.02 690.08 L 186.91 690.04 L 185.07 689.41 L 143.56 675.13 L 108.07 664.51 L 85.41 656.76 L 132.27 553.77 L 134.01 553.23 L 196.83 411.88 L 211.89 378.77 L 229.22 384.89 L 231.99 387.76 L 238.37 396.25 L 245.54 404.07 L 249.67 408.60 L 254.01 413.89 L 254.25 414.18 L 269.69 430.17 L 274.89 435.35 L 274.98 435.45 L 281.20 441.67 L 285.40 445.79 L 296.08 457.35 L 308.82 472.56 L 308.93 472.68 L 324.27 490.88 L 342.68 512.69 L 342.70 512.71 L 343.79 513.92 L 349.86 520.67 L 372.10 545.33 L 372.16 545.39 L 382.81 557.21 L 393.36 570.16 L 415.85 600.60 L 424.47 611.88 L 476.53 674.50 L 478.38 676.62 L 480.47 679.03 L 482.19 682.20 L 485.79 688.82 L 486.74 690.56 L 493.49 701.08 L 500.12 709.15 L 502.71 712.17 L 511.35 722.28 L 528.67 744.29 L 544.60 764.40 L 553.69 775.88 L 570.20 795.98 L 580.12 809.28 L 576.68 820.26 L 576.68 820.27 L 573.57 819.09 L 567.97 816.96 L 489.44 791.64 L 440.96 776.00 L 388.91 758.33 L 388.49 758.19 Z "/>
<path class="zone" data-zone-id="11215847_020_00" d="M 301.46 322.14 L 288.74 312.87 L 302.18 282.15 L 305.61 274.33 L 321.46 237.02 L 371.90 259.57 L 371.93 259.59 L 374.89 260.89 L 378.04 269.28 L 364.13 299.78 L 359.68 309.95 L 354.56 321.67 L 348.43 335.67 L 330.73 343.44 L 314.27 331.46 L 301.46 322.14 Z "/>
<path class="zone" data-zone-id="11215847_020_01" d="M 300.46 227.63 L 311.81 232.71 L 321.46 237.02 L 305.61 274.33 L 302.18 282.15 L 288.74 312.87 L 301.46 322.14 L 314.27 331.46 L 330.73 343.44 L 348.43 335.67 L 354.56 321.67 L 359.68 309.95 L 364.13 299.78 L 378.04 269.28 L 374.89 260.89 L 394.27 269.41 L 394.30 269.42 L 470.95 303.16 L 471.37 303.33 L 531.75 328.68 L 568.51 344.11 L 568.91 344.29 L 575.23 347.12 L 616.80 365.23 L 659.47 383.81 L 659.64 383.88 L 713.32 407.26 L 746.11 421.54 L 743.53 427.65 L 748.53 429.68 L 748.28 430.23 L 746.78 433.93 L 741.88 445.26 L 733.54 464.59 L 728.57 475.58 L 725.08 483.26 L 715.34 506.37 L 713.53 510.49 L 708.89 521.07 L 702.38 535.57 L 696.11 546.36 L 693.91 541.28 L 675.57 499.04 L 655.61 450.46 L 651.70 446.90 L 638.92 442.43 L 635.30 441.17 L 635.12 441.54 L 619.47 472.55 L 607.94 496.85 L 605.65 502.68 L 599.15 519.90 L 599.04 520.18 L 597.28 525.40 L 581.82 556.54 L 581.59 557.00 L 581.10 559.22 L 580.39 562.36 L 579.13 571.01 L 577.84 581.61 L 575.14 614.39 L 575.12 614.67 L 572.74 647.24 L 572.81 648.83 L 572.93 651.90 L 573.19 658.53 L 571.49 658.91 L 563.81 660.66 L 563.72 660.69 L 545.30 664.86 L 530.69 668.98 L 491.65 680.31 L 483.07 682.02 L 482.19 682.20 L 480.47 679.03 L 478.38 676.62 L 476.53 674.50 L 424.47 611.88 L 415.85 600.60 L 393.36 570.16 L 382.81 557.21 L 372.16 545.39 L 372.10 545.33 L 349.86 520.67 L 343.79 513.92 L 342.70 512.71 L 342.68 512.69 L 324.27 490.88 L 308.93 472.68 L 308.82 472.56 L 296.08 457.35 L 285.40 445.79 L 281.20 441.67 L 274.98 435.45 L 274.89 435.35 L 269.69 430.17 L 254.25 414.18 L 254.01 413.89 L 249.67 408.60 L 245.54 404.07 L 238.37 396.25 L 231.99 387.76 L 229.22 384.89 L 211.89 378.77 L 215.28 371.33 L 216.23 369.24 L 216.49 368.67 L 257.48 278.58 L 283.35 221.72 L 284.01 220.28 L 300.46 227.63 Z "/>
<path class="zone" data-zone-id="11215847_020_03" d="M 757.40 433.51 L 748.73 429.61 L 748.59 429.55 L 743.81 427.40 L 746.22 421.59 L 751.24 423.77 L 751.25 423.78 L 858.09 470.31 L 858.43 470.46 L 867.08 473.86 L 884.60 481.43 L 884.64 481.45 L 947.84 508.78 L 948.01 508.85 L 975.93 520.92 L 976.08 520.98 L 973.77 527.39 L 972.89 529.68 L 970.40 537.14 L 962.92 557.97 L 961.05 563.89 L 958.89 565.03 L 957.97 565.51 L 943.91 573.83 L 928.79 582.91 L 926.64 585.66 L 922.84 592.53 L 922.24 594.43 L 912.75 588.74 L 878.52 573.37 L 874.05 572.98 L 866.62 572.33 L 783.69 538.95 L 783.38 538.83 L 746.57 524.01 L 746.03 523.79 L 721.79 513.89 L 717.61 512.17 L 713.53 510.49 L 715.34 506.37 L 725.08 483.26 L 728.57 475.58 L 733.54 464.59 L 741.88 445.26 L 746.78 433.93 L 748.28 430.23 L 748.53 429.68 L 748.56 429.69 L 748.68 429.74 L 757.40 433.51 Z "/>
<path class="zone" data-zone-id="11215847_020_00" d="M 900.22 686.76 L 898.81 686.11 L 892.27 683.07 L 893.39 674.89 L 893.82 671.78 L 905.91 638.61 L 914.56 615.57 L 920.93 598.54 L 922.24 594.43 L 922.84 592.53 L 926.64 585.66 L 928.79 582.91 L 943.91 573.83 L 957.97 565.51 L 958.89 565.03 L 961.05 563.89 L 962.92 557.97 L 970.40 537.14 L 972.89 529.68 L 973.50 528.10 L 973.77 527.39 L 976.08 520.98 L 976.23 521.04 L 983.20 523.98 L 1029.69 543.57 L 1054.93 553.94 L 1062.52 557.06 L 1069.58 559.96 L 1069.58 559.96 L 1064.63 572.68 L 1049.79 612.18 L 1048.59 615.38 L 1048.59 615.38 L 1037.26 645.56 L 1020.51 690.17 L 1015.21 704.27 L 1006.93 725.89 L 990.81 719.83 L 984.55 717.47 L 948.81 704.03 L 933.85 698.95 L 900.22 686.76 Z "/>
<path class="zone" data-zone-id="11215847_020_00" d="M 956.06 805.71 L 861.39 772.82 L 878.50 724.38 L 889.64 695.59 L 891.08 691.71 L 892.27 683.07 L 900.22 686.76 L 933.85 698.95 L 948.81 704.03 L 990.81 719.83 L 1000.88 723.62 L 1006.93 725.89 L 1005.80 728.83 L 973.96 811.93 L 967.87 809.81 L 956.06 805.71 Z "/>
<path class="zone" data-zone-id="11215847_020_00" d="M 931.84 836.06 L 907.14 849.75 L 897.48 861.62 L 877.47 872.66 L 845.09 861.40 L 826.84 868.99 L 830.96 856.11 L 841.02 828.81 L 859.45 778.30 L 861.39 772.82 L 956.06 805.71 L 968.13 809.91 L 941.46 828.38 L 936.95 833.24 L 931.84 836.06 Z "/>
<path class="zone" data-zone-id="11215847_020_01" d="M 927.06 934.36 L 926.93 934.71 L 875.12 918.86 L 872.30 917.96 L 851.16 911.31 L 817.67 900.75 L 817.19 900.60 L 816.36 900.34 L 816.36 900.34 L 820.51 888.01 L 825.33 873.71 L 826.27 870.79 L 826.84 868.99 L 845.09 861.40 L 877.47 872.66 L 897.48 861.62 L 907.14 849.75 L 931.84 836.06 L 936.95 833.24 L 941.46 828.38 L 968.13 809.91 L 973.96 811.93 L 927.06 934.36 Z "/>
<path class="zone" data-zone-id="11215847_020_07" d="M 816.36 900.34 L 808.84 897.95 L 724.17 871.11 L 714.43 868.01 L 697.00 862.48 L 628.35 840.71 L 628.24 840.66 L 632.09 828.59 L 638.42 808.73 L 639.55 805.39 L 643.70 795.19 L 648.61 779.89 L 656.07 757.63 L 657.02 754.29 L 657.06 753.38 L 656.64 752.29 L 650.32 741.51 L 643.19 728.87 L 633.58 712.15 L 631.35 708.12 L 630.39 705.88 L 628.80 702.19 L 625.77 696.99 L 624.47 694.51 L 624.32 693.27 L 624.47 686.39 L 625.54 681.33 L 630.22 678.22 L 631.06 678.53 L 660.90 690.52 L 668.37 693.55 L 678.15 697.51 L 692.06 703.08 L 715.65 712.53 L 731.99 719.37 L 735.99 721.16 L 747.04 726.08 L 764.03 732.93 L 767.77 734.49 L 773.50 736.88 L 777.95 738.50 L 780.77 739.52 L 804.51 748.88 L 813.82 752.83 L 834.35 761.52 L 851.73 769.02 L 856.14 771.00 L 861.39 772.82 L 859.45 778.30 L 841.02 828.81 L 830.96 856.11 L 826.27 870.79 L 825.33 873.71 L 820.51 888.01 L 816.36 900.34 L 816.36 900.34 Z "/>
<path class="zone" data-zone-id="11215847_020_08" d="M 625.12 839.40 L 604.70 831.17 L 595.19 827.27 L 576.68 820.27 L 576.68 820.26 L 580.12 809.28 L 570.20 795.98 L 553.69 775.88 L 544.60 764.40 L 528.67 744.29 L 511.35 722.28 L 502.71 712.17 L 500.12 709.15 L 493.49 701.08 L 486.74 690.56 L 485.79 688.82 L 482.19 682.20 L 483.07 682.02 L 491.65 680.31 L 530.69 668.98 L 545.30 664.86 L 563.72 660.69 L 563.81 660.66 L 571.49 658.91 L 573.19 658.53 L 581.66 656.61 L 583.55 656.27 L 614.53 650.76 L 645.01 644.76 L 639.74 655.13 L 639.42 660.56 L 638.35 664.58 L 635.01 675.31 L 630.22 678.22 L 625.54 681.33 L 624.47 686.39 L 624.32 693.27 L 624.47 694.51 L 625.77 696.99 L 628.80 702.19 L 630.39 705.88 L 631.35 708.12 L 633.58 712.15 L 643.19 728.87 L 650.32 741.51 L 656.64 752.29 L 657.06 753.38 L 657.02 754.29 L 656.07 757.63 L 648.61 779.89 L 643.70 795.19 L 639.55 805.39 L 638.42 808.73 L 632.09 828.59 L 628.24 840.66 L 625.12 839.40 Z "/>
<path class="zone" data-zone-id="11215847_020_09" d="M 856.14 771.00 L 851.73 769.02 L 834.35 761.52 L 813.82 752.83 L 804.51 748.88 L 780.77 739.52 L 777.95 738.50 L 773.50 736.88 L 767.77 734.49 L 764.03 732.93 L 747.04 726.08 L 735.99 721.16 L 731.99 719.37 L 715.65 712.53 L 692.06 703.08 L 678.15 697.51 L 668.37 693.55 L 660.90 690.52 L 631.06 678.53 L 630.22 678.22 L 635.01 675.31 L 638.35 664.58 L 639.42 660.56 L 639.74 655.13 L 645.01 644.76 L 647.56 639.72 L 648.72 636.82 L 655.80 621.73 L 662.78 605.90 L 665.15 599.03 L 667.50 592.19 L 670.11 588.29 L 678.66 590.22 L 703.63 600.32 L 724.17 609.11 L 724.60 609.30 L 730.66 612.13 L 736.76 616.87 L 739.21 618.25 L 745.81 621.96 L 775.82 634.66 L 784.41 638.17 L 810.38 648.78 L 827.47 655.76 L 852.71 667.70 L 852.94 667.78 L 882.84 678.70 L 892.27 683.07 L 891.08 691.71 L 889.64 695.59 L 878.50 724.38 L 861.39 772.82 L 856.14 771.00 Z "/>
<path class="zone" data-zone-id="11215847_020_10" d="M 736.76 616.87 L 738.67 615.75 L 744.79 613.05 L 744.80 613.05 L 760.74 607.40 L 796.34 597.61 L 796.61 597.54 L 798.40 597.02 L 798.51 596.99 L 833.81 587.04 L 834.03 586.98 L 856.04 580.56 L 865.98 576.90 L 874.05 572.98 L 878.52 573.37 L 912.75 588.74 L 922.24 594.43 L 920.93 598.54 L 914.56 615.57 L 905.91 638.61 L 893.82 671.78 L 892.27 683.07 L 882.84 678.70 L 852.94 667.78 L 852.71 667.70 L 827.47 655.76 L 810.38 648.78 L 784.41 638.17 L 775.82 634.66 L 745.81 621.96 L 739.21 618.25 L 736.76 616.87 Z "/>
<path class="zone" data-zone-id="11215847_020_11" d="M 874.05 572.98 L 865.98 576.90 L 856.04 580.56 L 834.03 586.98 L 833.81 587.04 L 798.51 596.99 L 798.40 597.02 L 796.61 597.54 L 796.34 597.61 L 760.74 607.40 L 744.80 613.05 L 744.79 613.05 L 738.67 615.75 L 736.76 616.87 L 730.66 612.13 L 724.60 609.30 L 724.17 609.11 L 703.63 600.32 L 678.66 590.22 L 670.11 588.29 L 675.00 580.09 L 679.42 571.95 L 689.59 557.07 L 695.61 547.21 L 696.11 546.36 L 702.38 535.57 L 708.89 521.07 L 713.53 510.49 L 717.61 512.17 L 721.79 513.89 L 746.03 523.79 L 746.57 524.01 L 783.38 538.83 L 783.69 538.95 L 866.62 572.33 L 874.05 572.98 Z "/>
<path class="zone" data-zone-id="11215847_020_12" d="M 651.70 446.90 L 655.61 450.46 L 675.57 499.04 L 693.91 541.28 L 696.11 546.36 L 695.61 547.21 L 689.59 557.07 L 679.42 571.95 L 675.00 580.09 L 670.11 588.29 L 667.50 592.19 L 665.15 599.03 L 662.78 605.90 L 655.80 621.73 L 648.72 636.82 L 647.56 639.72 L 645.01 644.76 L 614.53 650.76 L 583.55 656.27 L 581.66 656.61 L 573.19 658.53 L 572.93 651.90 L 572.81 648.83 L 572.74 647.24 L 575.12 614.67 L 575.14 614.39 L 577.84 581.61 L 579.13 571.01 L 580.39 562.36 L 581.10 559.22 L 581.59 557.00 L 581.82 556.54 L 597.28 525.40 L 599.04 520.18 L 599.15 519.90 L 605.65 502.68 L 607.94 496.85 L 619.47 472.55 L 635.12 441.54 L 635.30 441.17 L 638.92 442.43 L 651.70 446.90 Z "/>
</svg>
