<svg xmlns="http://www.w3.org/2000/svg" viewBox="0 0 1154 1155" width="1154" height="1155">
<path class="zone" data-zone-id="11215870_040_01" d="M 947.11 292.07 L 945.87 293.29 L 945.61 293.54 L 944.55 294.58 L 944.43 294.70 L 943.02 296.10 L 939.59 299.50 L 938.14 300.94 L 937.48 301.59 L 935.45 303.58 L 933.69 305.36 L 931.67 307.34 L 930.49 308.51 L 927.47 311.51 L 926.12 312.84 L 924.96 313.98 L 923.17 315.78 L 923.05 315.90 L 922.76 316.19 L 920.75 318.16 L 910.19 328.64 L 802.59 434.77 L 618.82 616.32 L 431.34 801.49 L 155.94 1072.16 L 153.03 1075.18 L 270.90 800.64 L 271.47 799.31 L 228.31 799.14 L 226.13 799.13 L 211.41 799.07 L 209.43 791.50 L 206.85 781.60 L 206.85 781.56 L 222.66 766.78 L 428.05 548.92 L 539.73 430.46 L 749.68 211.38 L 873.99 75.54 L 873.99 75.54 L 874.01 75.56 L 874.01 75.56 L 874.01 75.56 L 879.79 82.80 L 930.48 146.32 L 930.48 146.32 L 1002.80 236.94 L 1002.80 236.94 L 1002.80 236.94 L 994.71 244.96 L 986.84 252.73 L 979.45 260.03 L 973.12 266.31 L 966.91 272.46 L 963.74 275.60 L 960.45 278.85 L 954.67 284.58 L 949.21 290.00 L 947.11 292.07 Z M 322.73 909.54 L 321.66 910.58 L 307.64 924.41 L 295.49 936.47 L 255.46 976.12 L 226.75 1004.60 L 212.75 1018.44 L 199.52 1031.53 L 186.30 1044.67 L 180.78 1050.15 L 156.88 1073.76 L 155.17 1075.48 L 153.15 1077.57 L 151.20 1079.45 L 151.58 1078.55 L 155.93 1074.23 L 286.76 944.76 L 432.03 801.50 L 618.82 616.36 L 751.49 486.11 L 369.77 863.01 L 363.98 868.72 L 359.41 873.24 L 359.22 873.43 L 343.60 888.88 L 323.59 908.68 L 322.73 909.54 Z "/>
</svg>
