<svg xmlns="http://www.w3.org/2000/svg" viewBox="0 0 1155 1155" width="1155" height="1155">
<path class="zone" data-zone-id="11215870_010_00" d="M 556.96 290.60 L 579.31 292.36 L 641.97 360.78 L 601.29 388.22 L 600.77 391.96 L 601.77 398.99 L 610.64 419.20 L 485.64 531.46 L 472.97 507.78 L 463.36 490.28 L 461.77 472.70 L 459.72 449.62 L 455.69 404.80 L 473.27 385.79 L 470.78 366.45 L 491.93 342.62 L 493.21 340.25 L 556.96 290.60 Z "/>
<path class="zone" data-zone-id="11215870_010_01" d="M 264.28 193.96 L 263.69 176.59 L 261.62 134.84 L 349.71 107.09 L 358.71 104.25 L 418.98 113.22 L 456.53 118.80 L 540.88 127.13 L 633.72 147.31 L 666.55 157.94 L 687.90 164.86 L 735.90 183.00 L 764.30 196.85 L 787.92 209.58 L 816.83 228.72 L 816.83 228.72 L 831.80 238.62 L 878.57 272.91 L 916.23 303.32 L 927.14 340.13 L 869.24 455.46 L 746.30 700.76 L 745.94 700.60 L 726.70 691.81 L 680.88 668.75 L 664.90 660.39 L 659.18 657.40 L 655.42 655.49 L 648.82 652.15 L 641.74 648.56 L 616.99 636.82 L 608.29 632.68 L 604.09 630.65 L 595.65 626.55 L 579.99 618.98 L 568.25 613.21 L 559.53 608.88 L 554.29 605.64 L 550.48 603.16 L 548.76 601.65 L 544.95 598.30 L 524.04 576.48 L 519.88 571.87 L 515.55 567.09 L 502.10 552.21 L 453.03 497.41 L 422.18 463.27 L 420.25 463.40 L 410.53 464.04 L 374.89 467.24 L 335.25 471.51 L 300.21 475.33 L 251.96 480.40 L 243.72 480.96 L 238.06 481.62 L 228.09 482.77 L 241.64 389.47 L 255.88 307.05 L 262.72 256.20 L 264.81 223.48 L 264.28 193.96 Z M 767.95 654.42 L 767.95 654.42 L 758.68 672.90 L 767.95 654.42 Z M 767.95 654.42 L 777.16 635.75 L 767.98 654.35 L 767.95 654.42 L 767.95 654.42 Z M 491.93 342.62 L 470.78 366.45 L 473.27 385.79 L 455.69 404.80 L 459.72 449.62 L 461.77 472.70 L 463.36 490.28 L 472.97 507.78 L 485.64 531.46 L 610.64 419.20 L 601.77 398.99 L 600.77 391.96 L 601.29 388.22 L 641.97 360.78 L 579.31 292.36 L 556.96 290.60 L 493.21 340.25 L 491.93 342.62 Z "/>
<path class="zone" data-zone-id="11215870_010_00" d="M 716.04 779.62 L 693.33 852.84 L 681.29 896.73 L 671.57 942.60 L 651.89 949.41 L 598.94 967.74 L 569.35 978.56 L 560.60 981.79 L 557.47 972.32 L 539.92 919.17 L 519.39 854.41 L 518.10 850.34 L 499.19 791.11 L 493.50 774.19 L 482.92 742.74 L 480.48 735.64 L 480.31 735.13 L 531.99 635.31 L 544.72 610.01 L 546.87 605.57 L 548.76 601.65 L 550.48 603.16 L 554.29 605.64 L 559.53 608.88 L 568.25 613.21 L 579.99 618.98 L 595.65 626.55 L 604.09 630.65 L 608.29 632.68 L 641.74 648.56 L 655.42 655.49 L 659.18 657.40 L 663.25 659.53 L 664.90 660.39 L 680.88 668.75 L 726.70 691.81 L 746.00 700.62 L 746.30 700.76 L 745.93 701.49 L 716.04 779.62 Z "/>
<path class="zone" data-zone-id="11215870_010_03" d="M 525.59 994.68 L 464.43 1017.36 L 425.73 1030.96 L 395.03 1042.67 L 375.45 1050.73 L 375.45 1050.73 L 373.16 1041.35 L 373.16 1041.35 L 372.63 1039.17 L 369.82 1028.09 L 362.47 1000.27 L 344.95 933.99 L 327.79 869.73 L 315.65 823.15 L 313.18 807.11 L 310.74 798.17 L 317.26 796.05 L 323.37 794.06 L 366.53 778.08 L 367.32 777.78 L 384.93 771.21 L 385.02 771.17 L 417.34 759.37 L 451.90 746.81 L 452.33 746.66 L 466.19 741.80 L 475.66 737.72 L 480.48 735.64 L 482.92 742.74 L 493.50 774.19 L 499.19 791.11 L 518.10 850.34 L 519.39 854.41 L 539.92 919.17 L 557.47 972.32 L 560.60 981.79 L 525.59 994.68 Z "/>
<path class="zone" data-zone-id="11215870_010_00" d="M 305.82 786.76 L 301.24 778.65 L 293.81 759.68 L 281.40 729.02 L 277.76 720.02 L 258.09 670.92 L 255.06 663.35 L 255.02 663.22 L 262.95 660.27 L 270.20 657.58 L 292.45 649.90 L 333.62 635.05 L 333.90 634.94 L 402.21 609.77 L 402.30 609.74 L 458.29 589.26 L 499.02 573.84 L 510.38 569.20 L 515.55 567.09 L 524.04 576.48 L 544.95 598.30 L 548.76 601.65 L 546.87 605.57 L 544.72 610.01 L 531.99 635.31 L 480.31 735.13 L 480.48 735.64 L 475.66 737.72 L 466.19 741.80 L 452.33 746.66 L 451.90 746.81 L 417.34 759.37 L 385.02 771.17 L 384.93 771.21 L 367.32 777.78 L 366.53 778.08 L 323.37 794.06 L 317.26 796.05 L 310.74 798.17 L 309.53 793.75 L 305.82 786.76 Z "/>
<path class="zone" data-zone-id="11215870_010_00" d="M 239.18 581.78 L 233.72 547.46 L 227.86 490.66 L 227.89 484.12 L 228.09 482.77 L 238.06 481.62 L 243.72 480.96 L 251.96 480.40 L 300.21 475.33 L 335.25 471.51 L 339.40 471.06 L 359.92 527.12 L 354.73 529.20 L 340.02 535.17 L 295.97 553.11 L 310.18 591.63 L 327.07 637.41 L 292.45 649.90 L 270.20 657.58 L 262.95 660.27 L 255.02 663.22 L 250.50 650.37 L 247.65 637.95 L 246.71 632.50 L 244.60 617.48 L 244.53 616.98 L 239.18 581.78 Z "/>
<path class="zone" data-zone-id="11215870_010_01" d="M 410.53 464.04 L 420.25 463.40 L 422.18 463.27 L 453.03 497.41 L 502.10 552.21 L 515.55 567.09 L 510.38 569.20 L 499.02 573.84 L 458.29 589.26 L 414.39 605.31 L 402.30 609.74 L 402.21 609.77 L 333.90 634.94 L 333.62 635.05 L 327.07 637.41 L 310.18 591.63 L 303.14 572.55 L 295.97 553.11 L 340.02 535.17 L 354.73 529.20 L 359.92 527.12 L 339.40 471.06 L 374.89 467.24 L 410.53 464.04 Z M 367.02 546.54 L 374.15 566.00 L 359.92 527.12 L 367.02 546.54 Z "/>
</svg>
