<svg xmlns="http://www.w3.org/2000/svg" viewBox="0 0 1155 1155" width="1155" height="1155">
<path class="zone" data-zone-id="11215770_040_01" d="M 268.82 563.76 L 253.08 444.08 L 250.56 424.93 L 243.21 368.92 L 235.65 311.42 L 233.46 295.02 L 233.40 294.58 L 233.40 294.58 L 254.69 291.99 L 303.20 286.08 L 303.39 286.06 L 353.37 279.65 L 359.57 327.99 L 365.16 371.49 L 366.19 379.58 L 366.22 379.78 L 371.37 419.79 L 371.51 420.91 L 376.90 460.04 L 376.94 460.33 L 382.74 502.24 L 387.18 537.34 L 389.86 549.16 L 389.88 549.22 L 389.46 549.26 L 376.92 550.25 L 354.19 553.18 L 353.89 553.22 L 342.26 554.71 L 315.89 558.09 L 293.29 561.00 L 290.06 561.37 L 268.82 563.76 Z "/>
<path class="zone" data-zone-id="11215770_040_02" d="M 233.40 294.58 L 233.40 294.57 L 227.65 251.45 L 227.27 248.62 L 208.74 109.69 L 208.74 109.68 L 208.74 109.68 L 230.84 107.18 L 275.59 102.13 L 314.31 97.76 L 327.43 96.28 L 329.21 96.08 L 329.41 95.86 L 334.33 100.40 L 334.68 100.72 L 332.41 120.11 L 333.10 126.26 L 341.12 186.64 L 343.49 204.57 L 348.95 246.03 L 353.37 279.65 L 303.39 286.06 L 303.20 286.08 L 254.69 291.99 L 233.40 294.58 Z "/>
<path class="zone" data-zone-id="11215770_040_03" d="M 353.37 279.65 L 383.95 275.73 L 385.11 275.59 L 412.97 271.12 L 413.56 271.03 L 427.36 269.29 L 429.76 268.99 L 442.57 267.57 L 451.95 266.18 L 453.74 265.82 L 453.76 265.82 L 454.93 269.22 L 456.34 273.35 L 458.01 278.06 L 463.12 315.43 L 469.36 364.22 L 469.37 364.33 L 473.56 396.71 L 476.83 421.37 L 478.06 430.72 L 478.12 431.13 L 484.01 478.27 L 489.78 517.76 L 493.25 532.87 L 491.44 534.63 L 465.05 538.08 L 463.48 538.28 L 463.11 538.33 L 441.26 541.90 L 441.06 541.93 L 416.85 545.53 L 401.06 548.20 L 389.88 549.22 L 389.86 549.16 L 387.18 537.34 L 382.74 502.24 L 376.94 460.33 L 376.90 460.04 L 371.51 420.91 L 371.37 419.79 L 366.22 379.78 L 366.19 379.58 L 365.16 371.49 L 359.57 327.99 L 353.37 279.65 Z "/>
<path class="zone" data-zone-id="11215770_040_00" d="M 457.05 264.89 L 458.78 263.41 L 470.67 249.86 L 483.57 236.01 L 530.53 277.92 L 558.60 302.98 L 574.63 317.29 L 574.66 317.32 L 582.21 324.10 L 589.88 330.91 L 589.94 330.96 L 592.54 333.29 L 613.26 351.77 L 636.94 372.92 L 603.47 409.92 L 597.99 416.50 L 596.46 418.33 L 596.16 418.70 L 586.78 429.22 L 559.40 459.95 L 558.55 460.90 L 539.53 482.38 L 538.95 483.03 L 531.59 490.53 L 504.73 521.70 L 493.25 532.87 L 489.78 517.76 L 484.01 478.27 L 478.12 431.13 L 478.06 430.72 L 476.83 421.37 L 473.56 396.71 L 469.37 364.33 L 469.36 364.22 L 463.12 315.43 L 458.01 278.06 L 456.34 273.35 L 454.93 269.22 L 453.76 265.82 L 455.24 265.51 L 457.05 264.89 Z "/>
<path class="zone" data-zone-id="11215770_040_05" d="M 636.94 372.92 L 704.89 433.55 L 718.60 445.80 L 745.22 469.55 L 770.60 492.21 L 792.56 511.82 L 752.66 556.47 L 714.70 598.96 L 713.69 598.05 L 679.07 568.30 L 673.12 563.06 L 643.23 536.73 L 638.23 532.08 L 607.41 503.38 L 606.30 502.35 L 568.19 468.37 L 563.31 463.70 L 559.40 459.95 L 596.16 418.70 L 596.46 418.33 L 597.99 416.50 L 603.47 409.92 L 636.94 372.92 Z "/>
<path class="zone" data-zone-id="11215770_040_00" d="M 917.90 623.67 L 918.49 624.20 L 946.30 649.02 L 909.54 690.29 L 867.51 737.50 L 867.51 737.50 L 867.51 737.50 L 839.70 712.60 L 838.66 711.68 L 795.76 672.61 L 767.94 647.27 L 766.86 646.28 L 757.39 637.69 L 714.70 598.96 L 752.66 556.47 L 792.56 511.82 L 851.24 564.17 L 854.80 567.36 L 888.97 597.85 L 911.09 617.59 L 917.90 623.67 Z "/>
<path class="zone" data-zone-id="11215770_040_07" d="M 761.20 855.92 L 728.33 892.16 L 728.24 892.26 L 694.30 929.69 L 653.18 974.84 L 653.18 974.84 L 653.18 974.84 L 652.54 973.01 L 632.37 919.55 L 614.74 872.95 L 613.24 868.05 L 613.16 867.83 L 612.14 865.01 L 592.09 809.74 L 591.98 809.42 L 583.05 784.64 L 573.44 758.32 L 591.10 737.47 L 608.48 717.99 L 609.37 716.99 L 646.66 675.14 L 646.86 674.92 L 650.11 678.15 L 660.81 687.79 L 681.15 706.15 L 702.51 725.63 L 712.77 734.91 L 720.67 742.06 L 726.28 747.09 L 738.75 758.27 L 762.23 779.43 L 791.63 805.82 L 795.83 809.79 L 799.50 813.27 L 799.44 813.34 L 761.86 855.20 L 761.20 855.92 Z "/>
<path class="zone" data-zone-id="11215770_040_08" d="M 544.66 976.87 L 543.19 972.85 L 529.42 934.61 L 517.03 900.61 L 516.84 900.08 L 511.63 885.79 L 496.77 844.94 L 496.65 844.63 L 488.58 822.41 L 479.44 797.35 L 528.15 777.12 L 573.44 758.32 L 583.05 784.64 L 591.98 809.42 L 592.09 809.74 L 612.14 865.01 L 613.16 867.83 L 613.24 868.05 L 614.74 872.95 L 632.37 919.55 L 652.54 973.01 L 653.18 974.84 L 653.18 974.84 L 652.44 975.42 L 623.48 986.40 L 594.01 997.56 L 593.37 997.80 L 557.59 1011.35 L 557.30 1011.46 L 557.30 1011.46 L 557.30 1011.46 L 544.66 976.87 Z "/>
<path class="zone" data-zone-id="11215770_040_09" d="M 360.35 933.95 L 317.14 882.05 L 352.22 851.43 L 367.57 844.78 L 419.08 822.86 L 449.72 809.83 L 479.44 797.35 L 488.58 822.41 L 496.65 844.63 L 496.77 844.94 L 511.63 885.79 L 516.84 900.08 L 517.03 900.61 L 529.42 934.61 L 543.19 972.85 L 544.66 976.87 L 557.30 1011.46 L 557.30 1011.46 L 499.35 1033.40 L 473.58 1043.11 L 431.03 1059.13 L 413.00 1017.89 L 360.35 933.95 Z "/>
<path class="zone" data-zone-id="11215770_040_10" d="M 317.14 882.05 L 287.98 847.01 L 269.02 830.72 L 293.99 797.39 L 298.18 791.79 L 294.84 763.40 L 294.67 761.97 L 292.74 745.63 L 289.89 724.00 L 289.85 723.67 L 278.92 640.61 L 277.36 628.77 L 277.36 628.77 L 276.73 623.97 L 269.06 565.59 L 268.87 564.16 L 268.82 563.76 L 268.82 563.76 L 290.06 561.37 L 293.29 561.00 L 315.89 558.09 L 342.26 554.71 L 353.89 553.22 L 354.19 553.18 L 376.92 550.25 L 389.46 549.26 L 389.88 549.22 L 393.66 562.31 L 411.20 609.88 L 412.47 613.38 L 433.44 670.99 L 433.63 671.51 L 454.62 729.18 L 457.17 736.18 L 479.44 797.35 L 449.72 809.83 L 419.08 822.86 L 367.57 844.78 L 352.22 851.43 L 317.14 882.05 Z "/>
<path class="zone" data-zone-id="11215770_040_11" d="M 791.63 805.82 L 762.23 779.43 L 738.75 758.27 L 726.28 747.09 L 720.67 742.06 L 712.77 734.91 L 702.51 725.63 L 681.15 706.15 L 660.81 687.79 L 650.11 678.15 L 646.86 674.92 L 694.49 621.34 L 694.82 620.98 L 713.83 599.94 L 714.70 598.96 L 757.39 637.69 L 766.86 646.28 L 767.94 647.27 L 795.76 672.61 L 838.66 711.68 L 839.70 712.60 L 867.51 737.50 L 867.51 737.50 L 835.49 773.16 L 799.50 813.27 L 795.83 809.79 L 791.63 805.82 Z "/>
<path class="zone" data-zone-id="11215770_040_12" d="M 479.44 797.35 L 457.17 736.18 L 454.62 729.18 L 433.63 671.51 L 433.44 670.99 L 412.47 613.38 L 411.20 609.88 L 393.66 562.31 L 389.88 549.22 L 401.06 548.20 L 416.85 545.53 L 441.06 541.93 L 441.26 541.90 L 463.11 538.33 L 463.48 538.28 L 465.05 538.08 L 491.44 534.63 L 493.25 532.87 L 495.02 540.62 L 498.72 552.22 L 506.59 555.53 L 519.35 560.89 L 529.28 569.41 L 535.40 575.01 L 544.94 583.74 L 567.22 603.78 L 571.42 607.53 L 586.13 620.69 L 610.82 642.84 L 642.88 671.38 L 646.86 674.92 L 646.66 675.14 L 609.37 716.99 L 608.48 717.99 L 591.10 737.47 L 573.44 758.32 L 528.15 777.12 L 479.44 797.35 Z "/>
<path class="zone" data-zone-id="11215770_040_13" d="M 498.72 552.22 L 495.02 540.62 L 493.25 532.87 L 504.73 521.70 L 531.59 490.53 L 538.95 483.03 L 539.53 482.38 L 558.55 460.90 L 559.40 459.95 L 563.31 463.70 L 568.19 468.37 L 606.30 502.35 L 607.41 503.38 L 638.23 532.08 L 643.23 536.73 L 673.12 563.06 L 679.07 568.30 L 713.69 598.05 L 714.70 598.96 L 713.83 599.94 L 694.82 620.98 L 694.49 621.34 L 646.86 674.92 L 642.88 671.38 L 610.82 642.84 L 586.13 620.69 L 571.42 607.53 L 567.22 603.78 L 544.94 583.74 L 535.40 575.01 L 529.28 569.41 L 519.35 560.89 L 506.59 555.53 L 498.72 552.22 Z "/>
</svg>
