<svg xmlns="http://www.w3.org/2000/svg" viewBox="0 0 1154 1155" width="1154" height="1155">
<path class="zone" data-zone-id="11215810_140_01" d="M 1017.28 540.49 L 994.16 579.62 L 952.96 636.27 L 931.94 665.13 L 917.01 685.94 L 888.58 714.43 L 853.39 749.28 L 810.10 787.13 L 762.41 828.99 L 712.04 869.83 L 694.46 883.55 L 684.42 890.24 L 678.92 893.91 L 653.09 908.26 L 585.92 934.26 L 519.36 959.06 L 474.99 975.60 L 422.81 978.98 L 388.79 982.06 L 385.56 982.72 L 363.33 987.25 L 299.08 978.82 L 132.56 956.04 L 120.02 951.66 L 108.30 947.57 L 111.62 941.69 L 121.55 923.13 L 133.54 897.19 L 143.05 872.00 L 159.01 813.52 L 166.55 783.22 L 176.68 743.34 L 195.84 668.63 L 217.66 582.69 L 227.91 587.57 L 244.42 595.43 L 284.92 615.11 L 313.74 630.01 L 348.68 639.70 L 378.24 641.96 L 396.40 641.34 L 411.07 639.16 L 439.26 631.03 L 477.18 607.01 L 571.62 553.86 L 680.49 501.14 L 790.44 442.91 L 852.88 405.91 L 1045.72 492.37 L 1017.28 540.49 Z "/>
<path class="zone" data-zone-id="11215810_140_02" d="M 217.66 582.69 L 217.68 582.64 L 232.42 524.56 L 244.92 475.32 L 263.90 400.47 L 274.15 356.49 L 277.53 342.00 L 290.84 290.18 L 300.14 234.29 L 305.50 204.65 L 312.58 167.89 L 312.60 167.75 L 419.86 214.63 L 673.39 325.44 L 852.88 405.91 L 790.44 442.91 L 680.49 501.14 L 571.62 553.86 L 477.18 607.01 L 439.26 631.03 L 411.07 639.16 L 396.40 641.34 L 378.24 641.96 L 348.68 639.70 L 313.74 630.01 L 284.92 615.11 L 244.42 595.43 L 227.91 587.57 L 217.66 582.69 Z "/>
</svg>
