<svg xmlns="http://www.w3.org/2000/svg" viewBox="0 0 1155 1155" width="1155" height="1155">
<path class="zone" data-zone-id="11215760_010_00" d="M 799.33 296.97 L 796.23 331.02 L 765.47 308.54 L 752.12 292.04 L 756.52 255.06 L 756.76 253.07 L 763.95 211.18 L 764.10 200.46 L 766.41 188.42 L 773.10 153.54 L 777.28 144.47 L 780.40 122.90 L 804.58 125.75 L 815.42 127.03 L 819.05 128.06 L 822.18 129.32 L 825.10 130.87 L 827.41 132.38 L 829.23 133.75 L 830.90 135.07 L 833.20 137.07 L 835.60 139.85 L 837.43 142.63 L 839.49 146.65 L 840.39 150.95 L 843.39 164.55 L 839.37 189.29 L 823.62 286.19 L 809.15 277.62 L 807.86 285.11 L 799.33 296.97 Z "/>
<path class="zone" data-zone-id="11215760_010_01" d="M 599.14 115.35 L 604.72 94.78 L 604.72 94.78 L 604.92 94.04 L 608.20 91.16 L 620.50 92.87 L 791.62 116.74 L 804.42 118.33 L 847.93 123.71 L 854.07 124.28 L 855.93 124.49 L 855.91 124.71 L 854.11 140.09 L 852.26 155.84 L 841.16 231.80 L 837.17 268.90 L 831.06 302.39 L 824.85 324.67 L 824.84 324.71 L 809.97 378.13 L 783.66 462.46 L 775.61 486.72 L 775.60 486.76 L 770.52 502.04 L 753.05 545.05 L 727.75 602.67 L 691.98 683.50 L 683.49 702.09 L 650.09 775.16 L 650.07 775.20 L 607.81 867.68 L 607.26 868.87 L 572.50 944.91 L 517.23 1063.79 L 517.21 1063.82 L 489.63 1044.50 L 470.98 1035.87 L 472.16 1033.28 L 299.76 952.78 L 299.07 952.46 L 302.19 947.79 L 304.39 944.50 L 337.07 895.55 L 420.21 771.78 L 421.11 769.71 L 469.10 593.40 L 575.58 202.23 L 599.14 115.35 Z M 809.15 277.62 L 823.62 286.19 L 839.37 189.29 L 843.39 164.55 L 840.39 150.95 L 839.49 146.65 L 837.43 142.63 L 835.60 139.85 L 833.20 137.07 L 830.90 135.07 L 829.23 133.75 L 827.41 132.38 L 825.10 130.87 L 822.18 129.32 L 819.05 128.06 L 815.42 127.03 L 804.58 125.75 L 780.40 122.90 L 777.28 144.47 L 773.10 153.54 L 766.41 188.42 L 764.10 200.46 L 763.95 211.18 L 756.76 253.07 L 756.52 255.06 L 752.12 292.04 L 765.47 308.54 L 796.23 331.02 L 799.33 296.97 L 807.86 285.11 L 809.15 277.62 Z "/>
</svg>
