<svg xmlns="http://www.w3.org/2000/svg" viewBox="0 0 1154 1155" width="1154" height="1155">
<path class="zone" data-zone-id="11215830_070_01" d="M 744.43 874.65 L 755.73 875.90 L 769.42 874.48 L 781.64 870.68 L 807.88 858.31 L 842.15 831.53 L 844.14 856.40 L 817.05 878.97 L 715.01 951.63 L 608.04 1018.06 L 525.38 1061.74 L 525.37 1061.75 L 525.37 1061.75 L 401.82 861.32 L 358.37 790.91 L 327.64 739.89 L 357.89 746.41 L 373.37 749.57 L 385.47 754.58 L 512.48 797.75 L 539.05 807.31 L 579.20 821.76 L 594.58 827.29 L 621.85 835.81 L 673.16 851.84 L 723.63 870.37 L 744.43 874.65 Z "/>
<path class="zone" data-zone-id="11215830_070_00" d="M 841.51 823.54 L 804.86 367.26 L 805.03 367.25 L 817.66 366.19 L 882.60 361.27 L 963.41 355.76 L 1003.48 352.54 L 1020.27 351.18 L 1040.05 610.03 L 1042.13 633.99 L 1042.85 642.20 L 1043.37 647.93 L 1043.73 651.83 L 1045.68 673.22 L 1045.66 673.23 L 895.50 813.62 L 844.14 856.40 L 842.15 831.53 L 841.67 825.53 L 841.51 823.54 Z "/>
<path class="zone" data-zone-id="11215830_070_03" d="M 804.86 367.26 L 791.96 368.08 L 745.23 371.77 L 719.03 373.86 L 665.72 378.03 L 626.16 380.96 L 614.33 382.05 L 611.78 352.91 L 611.54 350.19 L 610.59 339.35 L 609.95 329.99 L 609.92 329.63 L 606.65 282.39 L 605.85 268.54 L 605.28 265.45 L 605.13 265.02 L 585.61 208.93 L 574.51 178.07 L 571.81 170.54 L 603.82 159.49 L 675.14 133.79 L 758.66 102.93 L 782.06 93.29 L 782.06 93.29 L 782.06 93.29 L 783.55 101.37 L 783.55 101.37 L 785.27 110.77 L 785.28 110.84 L 791.62 194.86 L 791.62 194.86 L 801.40 324.24 L 804.86 367.26 Z "/>
<path class="zone" data-zone-id="11215830_070_04" d="M 485.37 396.01 L 480.76 398.88 L 474.22 404.58 L 464.62 413.43 L 431.81 445.17 L 406.15 470.88 L 399.46 477.33 L 381.22 494.93 L 368.35 507.54 L 360.05 515.66 L 339.10 536.26 L 337.44 537.89 L 317.95 556.25 L 316.45 557.67 L 314.38 551.51 L 302.58 516.43 L 302.27 515.50 L 297.56 505.61 L 255.02 461.36 L 250.67 456.83 L 253.09 455.12 L 284.60 433.38 L 315.50 412.66 L 316.28 412.14 L 356.11 386.75 L 370.74 377.05 L 371.42 376.60 L 390.28 364.08 L 391.49 363.28 L 427.08 339.67 L 428.20 338.91 L 457.19 319.34 L 458.13 318.92 L 460.10 324.02 L 475.99 365.41 L 484.06 388.46 L 485.25 394.73 L 485.37 396.01 Z "/>
<path class="zone" data-zone-id="11215830_070_05" d="M 250.67 456.83 L 220.40 478.13 L 210.11 484.82 L 186.65 500.09 L 162.67 459.33 L 162.10 458.35 L 136.21 414.35 L 108.28 366.30 L 115.52 362.57 L 132.30 354.46 L 197.42 325.33 L 227.59 311.43 L 243.44 304.58 L 243.44 304.58 L 247.36 311.72 L 251.06 318.44 L 257.83 330.10 L 260.10 333.24 L 260.66 334.01 L 268.35 345.00 L 276.03 355.99 L 276.09 356.08 L 291.80 378.73 L 291.85 378.80 L 312.52 408.40 L 315.50 412.66 L 284.60 433.38 L 253.09 455.12 L 250.67 456.83 Z "/>
<path class="zone" data-zone-id="11215830_070_06" d="M 243.44 304.58 L 254.89 299.63 L 312.25 274.68 L 353.34 256.44 L 380.63 244.64 L 424.29 225.93 L 426.98 233.18 L 437.73 262.18 L 454.26 307.21 L 456.83 314.75 L 458.10 318.84 L 458.13 318.92 L 457.19 319.34 L 428.20 338.91 L 427.08 339.67 L 391.49 363.28 L 390.28 364.08 L 371.42 376.60 L 370.74 377.05 L 356.11 386.75 L 316.28 412.14 L 315.50 412.66 L 312.52 408.40 L 291.85 378.80 L 291.80 378.73 L 276.09 356.08 L 276.03 355.99 L 268.35 345.00 L 260.66 334.01 L 260.10 333.24 L 257.83 330.10 L 251.06 318.44 L 247.36 311.72 L 243.44 304.58 L 243.44 304.58 Z "/>
<path class="zone" data-zone-id="11215830_070_07" d="M 424.29 225.93 L 448.97 215.35 L 498.82 197.16 L 538.61 182.92 L 567.71 171.96 L 571.81 170.54 L 574.51 178.07 L 585.61 208.93 L 605.13 265.02 L 600.49 266.20 L 593.99 267.86 L 583.08 271.82 L 563.08 279.67 L 562.52 279.89 L 546.79 285.44 L 546.37 285.58 L 533.59 290.09 L 524.02 293.51 L 523.69 293.62 L 502.35 301.12 L 485.65 307.12 L 485.62 307.14 L 475.78 311.29 L 468.89 314.18 L 458.13 318.92 L 458.10 318.84 L 456.83 314.75 L 454.26 307.21 L 437.73 262.18 L 426.98 233.18 L 424.29 225.93 Z "/>
<path class="zone" data-zone-id="11215830_070_08" d="M 791.62 194.86 L 930.35 143.11 L 936.40 229.13 L 992.43 225.73 L 1010.22 224.29 L 1010.23 224.29 L 1019.04 335.14 L 1019.07 335.58 L 1020.27 351.18 L 1003.48 352.54 L 963.41 355.76 L 882.60 361.27 L 817.66 366.19 L 805.03 367.25 L 804.86 367.26 L 801.40 324.24 L 791.62 194.86 Z "/>
<path class="zone" data-zone-id="11215830_070_09" d="M 605.28 265.45 L 605.85 268.54 L 606.65 282.39 L 609.92 329.63 L 609.95 329.99 L 610.59 339.35 L 611.54 350.19 L 611.78 352.91 L 614.33 382.05 L 614.39 382.75 L 614.34 390.58 L 616.85 424.32 L 621.39 480.94 L 616.96 481.31 L 542.08 487.55 L 497.97 491.22 L 492.85 491.65 L 491.82 476.33 L 491.79 475.96 L 489.33 441.92 L 486.55 408.62 L 485.37 396.01 L 485.25 394.73 L 484.06 388.46 L 475.99 365.41 L 460.10 324.02 L 458.13 318.92 L 468.89 314.18 L 475.78 311.29 L 485.62 307.14 L 485.65 307.12 L 502.35 301.12 L 523.69 293.62 L 524.02 293.51 L 533.59 290.09 L 546.37 285.58 L 546.79 285.44 L 562.52 279.89 L 563.08 279.67 L 583.08 271.82 L 593.99 267.86 L 600.49 266.20 L 605.13 265.02 L 605.28 265.45 Z "/>
</svg>
