<svg xmlns="http://www.w3.org/2000/svg" viewBox="0 0 1155 1155" width="1155" height="1155">
<path class="zone" data-zone-id="11215850_021_00" d="M 234.54 648.44 L 238.65 636.32 L 247.73 609.60 L 256.16 584.77 L 256.16 584.77 L 256.77 582.99 L 272.42 536.91 L 272.42 536.91 L 272.42 536.91 L 280.35 513.57 L 282.87 506.15 L 289.22 487.46 L 306.11 437.34 L 307.12 434.34 L 308.97 428.86 L 312.85 417.33 L 325.54 379.70 L 337.21 383.68 L 347.20 387.09 L 362.29 392.24 L 370.12 394.86 L 370.41 394.96 L 396.31 403.73 L 396.63 403.84 L 397.81 404.24 L 396.75 407.17 L 392.47 422.48 L 391.96 424.31 L 390.58 423.85 L 386.22 435.97 L 387.40 436.38 L 383.32 448.40 L 379.04 460.98 L 377.88 463.80 L 386.85 467.80 L 386.81 467.92 L 370.17 516.78 L 368.12 516.11 L 363.64 529.26 L 360.81 537.58 L 356.85 549.18 L 352.14 563.02 L 348.11 574.84 L 345.61 582.18 L 340.72 596.53 L 342.73 597.18 L 323.20 654.13 L 321.90 657.92 L 315.29 677.19 L 319.29 723.55 L 306.51 724.64 L 301.50 725.07 L 301.39 725.08 L 291.61 725.91 L 291.41 725.93 L 273.09 726.85 L 272.72 726.87 L 263.30 727.44 L 261.72 727.52 L 244.50 728.36 L 231.52 729.00 L 230.83 719.38 L 230.83 719.38 L 229.32 698.29 L 228.22 671.64 L 229.19 664.52 L 230.33 661.09 L 234.54 648.44 Z "/>
<path class="zone" data-zone-id="11215850_021_00" d="M 351.04 304.01 L 358.30 282.62 L 363.96 265.92 L 365.88 260.28 L 368.44 252.78 L 383.73 207.90 L 396.00 212.12 L 402.77 214.45 L 419.55 220.27 L 419.89 220.39 L 435.35 225.74 L 449.51 230.66 L 449.79 230.75 L 459.78 234.23 L 459.79 234.23 L 460.42 234.44 L 459.54 237.02 L 455.10 250.08 L 452.96 256.40 L 423.84 342.06 L 411.97 376.98 L 402.24 405.60 L 397.85 404.10 L 397.81 404.24 L 396.63 403.84 L 396.31 403.73 L 370.41 394.96 L 370.12 394.86 L 368.45 394.30 L 362.29 392.24 L 347.20 387.09 L 337.21 383.68 L 327.64 380.42 L 325.54 379.70 L 342.46 329.49 L 346.32 318.02 L 351.04 304.01 Z "/>
<path class="zone" data-zone-id="11215850_021_00" d="M 413.42 157.83 L 414.87 157.97 L 464.10 163.25 L 475.64 164.49 L 491.33 166.17 L 502.85 167.41 L 515.45 168.76 L 519.28 169.17 L 519.40 169.18 L 538.43 171.23 L 556.69 173.18 L 556.87 173.20 L 530.76 250.46 L 528.56 256.93 L 528.40 256.87 L 460.51 234.16 L 460.42 234.44 L 459.79 234.23 L 459.78 234.23 L 449.79 230.75 L 449.51 230.66 L 435.35 225.74 L 419.89 220.39 L 419.55 220.27 L 402.77 214.45 L 396.00 212.12 L 383.73 207.90 L 393.49 179.29 L 401.25 156.61 L 413.42 157.83 Z "/>
<path class="zone" data-zone-id="11215850_021_04" d="M 427.83 78.90 L 495.95 84.22 L 510.11 85.32 L 530.16 86.89 L 530.16 86.89 L 584.43 91.13 L 584.57 91.14 L 579.11 107.09 L 572.78 125.60 L 562.24 156.75 L 562.17 156.98 L 556.69 173.18 L 538.43 171.23 L 519.40 169.18 L 519.28 169.17 L 502.85 167.41 L 475.64 164.49 L 464.10 163.25 L 414.87 157.97 L 413.42 157.83 L 401.25 156.61 L 405.97 142.80 L 427.83 78.90 Z "/>
<path class="zone" data-zone-id="11215850_021_05" d="M 906.67 121.92 L 907.38 122.11 L 908.91 122.53 L 909.43 122.67 L 910.99 123.09 L 912.72 123.56 L 913.37 123.73 L 915.11 124.20 L 916.01 124.45 L 917.68 124.90 L 919.47 125.39 L 920.94 125.79 L 926.76 127.36 L 926.72 127.55 L 923.58 143.63 L 919.60 163.97 L 914.33 190.88 L 909.03 218.64 L 909.03 218.64 L 909.03 218.64 L 908.92 219.20 L 908.92 219.20 L 902.83 217.80 L 902.78 218.05 L 854.74 208.82 L 846.09 207.16 L 819.75 202.09 L 812.65 201.13 L 812.70 200.55 L 812.70 200.51 L 813.34 194.63 L 814.35 172.20 L 814.93 151.27 L 814.99 150.06 L 815.86 133.70 L 816.41 123.16 L 817.25 107.30 L 838.37 108.82 L 871.28 111.95 L 872.90 112.11 L 875.18 112.60 L 875.18 112.60 L 874.63 115.48 L 902.02 120.66 L 902.82 120.88 L 903.16 120.97 L 904.25 121.26 L 904.91 121.45 L 905.49 121.60 L 906.67 121.92 Z "/>
<path class="zone" data-zone-id="11215850_021_06" d="M 650.49 183.18 L 639.93 182.08 L 636.69 181.71 L 610.06 178.87 L 556.87 173.19 L 556.87 173.20 L 556.69 173.18 L 562.17 156.98 L 562.24 156.75 L 572.78 125.60 L 579.11 107.09 L 584.57 91.14 L 608.77 92.78 L 608.77 92.78 L 687.35 98.10 L 687.35 98.10 L 711.29 99.73 L 711.29 99.73 L 709.97 116.45 L 709.20 126.24 L 707.33 144.64 L 707.23 145.73 L 705.65 163.24 L 703.78 181.94 L 702.10 188.71 L 702.06 188.88 L 695.81 188.07 L 692.44 187.70 L 680.36 186.38 L 670.67 185.37 L 661.44 184.34 L 650.49 183.18 Z "/>
<path class="zone" data-zone-id="11215850_021_00" d="M 321.01 723.50 L 322.28 738.41 L 323.45 751.73 L 323.71 754.85 L 325.75 779.18 L 328.65 813.12 L 332.65 858.69 L 335.93 897.13 L 338.29 925.39 L 340.84 953.76 L 340.66 953.82 L 318.20 960.77 L 299.87 966.45 L 298.40 966.90 L 298.39 966.90 L 298.24 966.95 L 265.87 976.95 L 252.56 981.06 L 249.58 953.04 L 244.78 906.88 L 235.70 787.37 L 234.58 771.67 L 231.52 729.00 L 244.50 728.36 L 261.72 727.52 L 263.30 727.44 L 272.72 726.87 L 273.09 726.85 L 291.41 725.93 L 291.61 725.91 L 292.44 725.84 L 301.39 725.08 L 301.50 725.07 L 306.51 724.64 L 319.29 723.55 L 319.30 723.62 L 315.69 723.92 L 292.44 725.86 L 287.48 726.27 L 292.44 725.86 L 321.01 723.50 Z "/>
<path class="zone" data-zone-id="11215850_021_08" d="M 341.08 956.42 L 360.73 949.99 L 393.86 939.24 L 409.74 934.22 L 414.57 937.04 L 435.92 1003.09 L 439.17 1013.14 L 443.49 1026.53 L 442.79 1026.75 L 402.72 1038.93 L 375.66 1047.17 L 291.98 1072.62 L 261.21 1076.10 L 261.21 1076.10 L 257.55 1028.06 L 252.56 981.06 L 252.56 981.06 L 265.87 976.95 L 298.24 966.95 L 298.39 966.90 L 298.40 966.90 L 299.87 966.45 L 318.20 960.77 L 340.66 953.82 L 340.84 953.76 L 341.08 956.42 Z "/>
<path class="zone" data-zone-id="11215850_021_09" d="M 479.86 912.29 L 533.46 895.23 L 539.79 893.27 L 539.80 893.46 L 540.70 912.50 L 541.79 932.48 L 542.08 936.56 L 544.06 964.23 L 545.05 981.01 L 545.86 994.74 L 545.86 994.74 L 545.83 994.75 L 545.82 994.75 L 545.58 994.82 L 504.91 1007.45 L 504.72 1007.51 L 502.15 1008.31 L 464.86 1019.89 L 443.49 1026.53 L 439.17 1013.14 L 435.92 1003.09 L 414.57 937.04 L 409.74 934.22 L 416.74 932.00 L 420.22 930.90 L 479.86 912.29 Z "/>
<path class="zone" data-zone-id="11215850_021_10" d="M 795.17 813.65 L 795.48 813.56 L 795.48 813.56 L 785.49 864.96 L 783.30 876.72 L 781.65 886.95 L 778.28 907.81 L 775.82 923.01 L 735.22 935.48 L 734.62 935.67 L 720.82 940.01 L 720.82 940.01 L 717.10 926.93 L 693.89 845.44 L 693.87 845.34 L 715.26 838.65 L 721.71 836.63 L 795.16 813.69 L 795.17 813.65 Z "/>
<path class="zone" data-zone-id="11215850_021_11" d="M 720.82 940.01 L 720.82 940.01 L 623.14 970.74 L 622.84 970.83 L 604.66 976.48 L 545.86 994.74 L 545.86 994.74 L 545.86 994.74 L 545.05 981.01 L 544.06 964.23 L 542.08 936.56 L 541.79 932.48 L 540.70 912.50 L 539.80 893.46 L 539.79 893.27 L 581.92 880.27 L 653.10 858.10 L 693.87 845.34 L 693.89 845.44 L 717.10 926.93 L 720.82 940.01 L 720.82 940.01 Z "/>
<path class="zone" data-zone-id="11215850_021_12" d="M 815.86 133.70 L 814.99 150.06 L 814.93 151.27 L 814.35 172.20 L 813.34 194.63 L 812.70 200.51 L 812.70 200.55 L 812.65 201.13 L 806.18 200.26 L 706.16 189.41 L 702.06 188.88 L 702.10 188.71 L 703.78 181.94 L 705.65 163.24 L 707.23 145.73 L 707.33 144.64 L 709.20 126.24 L 709.97 116.45 L 711.29 99.73 L 711.29 99.73 L 711.29 99.73 L 716.91 100.11 L 730.77 101.10 L 783.67 104.90 L 817.25 107.30 L 816.41 123.16 L 815.86 133.70 Z "/>
</svg>
