<svg xmlns="http://www.w3.org/2000/svg" viewBox="0 0 1154 1155" width="1154" height="1155">
<path class="zone" data-zone-id="11215860_020_00" d="M 292.13 670.55 L 331.30 670.46 L 339.95 738.65 L 295.61 752.02 L 289.87 741.72 L 289.47 741.00 L 276.58 741.15 L 269.09 741.24 L 266.36 741.27 L 249.43 741.46 L 247.74 741.48 L 260.04 699.28 L 236.42 692.43 L 265.35 681.07 L 265.50 680.55 L 266.17 680.75 L 292.13 670.55 Z M 291.61 689.55 L 264.07 681.57 L 266.54 682.28 L 291.61 689.55 Z "/>
<path class="zone" data-zone-id="11215860_020_01" d="M 826.00 537.05 L 818.54 542.56 L 795.48 570.11 L 790.68 576.26 L 821.76 607.92 L 826.77 630.37 L 821.36 636.14 L 810.91 642.69 L 806.66 656.79 L 804.08 664.42 L 801.48 673.15 L 796.82 678.92 L 790.15 708.29 L 754.14 732.04 L 745.67 889.84 L 793.12 970.65 L 823.22 1013.05 L 829.99 1013.67 L 830.00 1013.67 L 830.00 1013.67 L 823.56 1047.90 L 820.75 1067.99 L 820.75 1067.99 L 820.75 1067.99 L 673.16 1003.49 L 586.89 965.88 L 359.80 867.34 L 298.61 839.21 L 298.39 839.11 L 286.75 833.91 L 207.51 798.55 L 205.40 797.61 L 205.38 797.60 L 159.43 776.43 L 159.37 776.40 L 166.61 758.14 L 171.69 745.31 L 172.10 744.27 L 177.42 730.39 L 182.53 717.71 L 188.99 703.47 L 203.71 674.25 L 203.88 673.83 L 206.11 668.37 L 208.18 663.32 L 212.09 653.24 L 218.58 636.49 L 218.70 636.17 L 229.15 609.22 L 234.51 595.42 L 240.98 580.87 L 242.69 576.53 L 258.08 585.23 L 258.24 585.33 L 297.62 609.76 L 305.35 613.87 L 305.55 613.98 L 312.15 616.15 L 315.48 617.16 L 322.26 619.23 L 328.18 622.50 L 370.16 645.64 L 397.60 661.73 L 416.05 672.20 L 426.33 670.79 L 427.20 670.67 L 450.21 667.33 L 481.99 661.03 L 499.87 657.12 L 509.47 654.88 L 510.10 654.73 L 525.16 649.66 L 541.63 643.98 L 552.93 639.60 L 574.32 627.22 L 600.67 611.12 L 620.63 598.19 L 626.67 593.89 L 626.82 593.74 L 630.33 590.36 L 634.57 585.00 L 640.15 576.72 L 642.31 572.74 L 646.58 561.59 L 650.53 550.02 L 652.91 543.59 L 657.31 524.94 L 662.82 500.77 L 663.05 499.77 L 664.33 494.13 L 652.20 479.49 L 636.36 463.92 L 625.03 453.23 L 618.01 446.42 L 613.00 440.17 L 609.09 435.31 L 584.26 403.95 L 576.13 393.91 L 562.03 376.76 L 548.38 359.68 L 542.48 349.15 L 541.87 348.07 L 536.22 338.93 L 530.38 328.44 L 523.35 316.12 L 517.76 306.34 L 507.35 287.90 L 505.59 284.51 L 504.43 282.29 L 498.88 271.61 L 493.54 261.01 L 483.55 241.15 L 482.18 238.63 L 480.52 234.76 L 478.41 229.84 L 486.69 228.22 L 532.79 214.80 L 583.58 200.10 L 645.11 182.51 L 678.63 140.75 L 715.27 95.97 L 719.45 90.87 L 722.60 87.01 L 745.51 106.17 L 755.68 111.67 L 766.80 115.60 L 782.49 118.68 L 798.57 125.63 L 860.02 154.92 L 921.63 184.67 L 951.69 198.86 L 972.08 213.21 L 980.57 218.57 L 992.12 227.79 L 994.62 230.88 L 982.13 238.88 L 978.34 241.30 L 922.62 286.84 L 880.96 327.15 L 889.01 352.17 L 911.48 422.03 L 911.73 459.28 L 880.13 474.09 L 830.83 531.44 L 826.00 537.05 Z M 264.07 681.57 L 236.42 692.43 L 260.04 699.28 L 247.74 741.48 L 247.74 741.49 L 266.36 741.27 L 276.58 741.15 L 276.58 741.15 L 289.47 741.00 L 289.87 741.72 L 295.61 752.02 L 339.95 738.65 L 331.30 670.46 L 292.13 670.55 L 266.17 680.75 L 265.50 680.55 L 265.35 681.07 L 264.07 681.57 Z "/>
</svg>
