<svg xmlns="http://www.w3.org/2000/svg" viewBox="0 0 1155 1155" width="1155" height="1155">
<path class="zone" data-zone-id="11215840_051_00" d="M 353.21 860.62 L 347.63 854.79 L 347.23 854.37 L 330.49 890.01 L 326.62 898.25 L 323.74 895.39 L 318.73 890.40 L 290.40 862.18 L 283.75 868.09 L 277.53 872.44 L 263.47 882.27 L 248.36 890.11 L 232.31 866.04 L 213.13 879.29 L 203.85 867.48 L 193.95 848.82 L 183.83 837.05 L 167.56 856.66 L 151.65 843.57 L 139.79 813.17 L 131.82 795.82 L 177.80 771.42 L 178.16 771.23 L 187.83 773.24 L 193.72 766.01 L 194.37 765.21 L 123.91 695.07 L 106.23 677.47 L 104.70 675.94 L 106.18 674.71 L 107.78 673.38 L 112.51 669.46 L 117.65 662.31 L 129.21 632.05 L 138.82 606.51 L 149.24 610.65 L 155.19 613.01 L 157.62 613.97 L 234.32 642.30 L 415.25 708.86 L 415.33 708.89 L 415.57 708.98 L 415.04 710.46 L 422.43 713.09 L 425.81 723.38 L 357.90 864.57 L 353.21 860.62 Z "/>
<path class="zone" data-zone-id="11215840_051_01" d="M 513.73 745.63 L 511.40 753.77 L 496.44 775.72 L 478.50 802.06 L 489.43 814.86 L 500.30 827.57 L 478.84 857.35 L 459.15 884.67 L 424.04 917.87 L 408.49 905.75 L 407.80 906.54 L 357.90 864.57 L 425.81 723.38 L 422.43 713.09 L 513.73 745.63 Z "/>
<path class="zone" data-zone-id="11215840_051_00" d="M 234.32 642.30 L 157.62 613.97 L 155.19 613.01 L 149.24 610.65 L 138.82 606.51 L 169.72 524.41 L 179.81 496.68 L 180.79 494.00 L 426.32 587.32 L 427.31 601.17 L 425.58 602.78 L 437.17 607.18 L 454.52 600.25 L 450.44 611.63 L 444.31 628.75 L 415.57 708.98 L 415.33 708.89 L 415.25 708.86 L 352.90 685.92 L 234.32 642.30 Z "/>
<path class="zone" data-zone-id="11215840_051_01" d="M 233.38 377.37 L 237.56 373.70 L 243.36 364.30 L 248.67 360.91 L 250.24 360.06 L 294.68 336.00 L 302.23 335.14 L 302.74 327.18 L 336.16 304.05 L 370.78 285.41 L 380.66 275.41 L 448.20 300.31 L 480.42 370.07 L 473.23 394.04 L 446.37 412.00 L 441.92 451.29 L 439.18 475.49 L 465.42 502.46 L 476.84 538.01 L 454.52 600.25 L 437.17 607.18 L 425.58 602.78 L 427.31 601.17 L 425.17 571.18 L 426.32 587.32 L 180.79 494.00 L 180.98 493.47 L 182.75 488.62 L 210.44 412.51 L 212.63 406.51 L 217.58 392.90 L 218.78 389.59 L 222.49 387.34 L 231.09 382.10 L 233.38 377.37 Z "/>
<path class="zone" data-zone-id="11215840_051_02" d="M 230.75 356.70 L 263.03 269.25 L 268.47 255.96 L 276.15 237.15 L 276.15 237.15 L 279.37 238.33 L 280.30 238.67 L 297.15 244.43 L 379.47 272.56 L 428.25 289.23 L 450.96 297.67 L 543.67 332.12 L 549.38 334.24 L 549.56 334.31 L 549.56 334.31 L 542.20 355.38 L 535.32 375.08 L 515.85 430.81 L 511.68 444.82 L 518.23 454.94 L 551.94 504.35 L 574.19 537.77 L 590.02 561.80 L 592.80 566.43 L 597.80 574.77 L 597.96 575.03 L 581.02 568.58 L 480.17 531.60 L 479.25 531.27 L 476.84 538.01 L 465.42 502.46 L 439.18 475.49 L 441.92 451.29 L 446.37 412.00 L 473.23 394.04 L 480.42 370.07 L 448.20 300.31 L 380.66 275.41 L 370.78 285.41 L 336.16 304.05 L 302.74 327.18 L 302.23 335.14 L 294.68 336.00 L 250.24 360.06 L 248.67 360.91 L 243.36 364.30 L 237.56 373.70 L 233.38 377.37 L 231.09 382.10 L 222.49 387.34 L 218.78 389.59 L 230.75 356.70 Z "/>
<path class="zone" data-zone-id="11215840_051_00" d="M 926.08 505.06 L 908.59 536.06 L 904.96 546.79 L 889.47 592.63 L 888.23 596.27 L 887.82 596.84 L 885.89 599.50 L 885.52 600.00 L 884.03 602.03 L 879.24 600.17 L 848.39 586.77 L 824.09 587.61 L 807.18 595.34 L 801.68 601.09 L 803.59 610.95 L 803.83 612.20 L 804.07 612.51 L 808.08 617.50 L 817.89 629.72 L 809.31 635.67 L 792.15 650.98 L 790.45 652.50 L 790.35 651.70 L 790.13 650.16 L 789.89 648.36 L 787.07 647.28 L 693.78 611.63 L 602.66 576.82 L 597.96 575.03 L 597.80 574.77 L 592.80 566.43 L 590.02 561.80 L 574.19 537.77 L 551.94 504.35 L 518.23 454.94 L 511.68 444.82 L 515.85 430.81 L 535.32 375.08 L 542.20 355.38 L 548.40 337.64 L 549.56 334.31 L 549.56 334.31 L 648.89 372.44 L 848.16 448.92 L 849.28 449.35 L 932.95 480.49 L 932.71 481.12 L 925.22 500.61 L 926.08 505.06 Z "/>
<path class="zone" data-zone-id="11215840_051_04" d="M 874.18 366.72 L 891.28 312.08 L 898.93 315.09 L 971.75 343.69 L 1024.47 364.39 L 1050.36 374.56 L 1030.62 456.27 L 1021.09 495.69 L 1017.07 511.80 L 1017.07 511.80 L 1016.93 512.33 L 1016.93 512.33 L 967.57 493.38 L 933.08 480.14 L 932.95 480.49 L 849.28 449.35 L 848.16 448.92 L 848.16 448.92 L 854.78 428.01 L 874.18 366.72 Z "/>
</svg>
