<svg xmlns="http://www.w3.org/2000/svg" viewBox="0 0 1155 1155" width="1155" height="1155">
<path class="zone" data-zone-id="11215740_040_01" d="M 878.24 508.42 L 880.06 509.23 L 878.25 513.69 L 876.32 518.43 L 870.70 531.54 L 860.17 555.19 L 860.13 555.30 L 848.31 581.70 L 836.12 608.73 L 835.92 609.16 L 828.35 625.95 L 828.30 626.08 L 815.56 655.12 L 802.89 683.89 L 798.30 694.29 L 798.22 694.49 L 788.38 716.82 L 781.17 733.19 L 780.11 735.58 L 779.22 737.89 L 777.21 742.68 L 777.07 742.62 L 743.15 727.58 L 734.84 723.90 L 696.75 706.84 L 698.79 702.15 L 699.78 699.86 L 717.89 658.95 L 717.95 658.80 L 732.54 625.98 L 748.05 591.09 L 748.09 591.01 L 748.83 589.34 L 758.98 566.49 L 762.98 557.49 L 776.75 526.49 L 779.61 520.05 L 779.63 520.00 L 796.68 481.65 L 800.21 473.71 L 800.22 473.67 L 800.22 473.67 L 800.22 473.67 L 815.38 480.46 L 841.11 491.91 L 878.24 508.42 Z "/>
<path class="zone" data-zone-id="11215740_040_02" d="M 911.68 924.19 L 901.71 919.43 L 869.14 905.76 L 868.91 905.66 L 845.02 895.60 L 818.49 884.65 L 818.26 884.55 L 775.79 866.81 L 732.38 849.42 L 729.95 848.44 L 729.81 848.39 L 679.44 825.36 L 679.18 825.24 L 678.84 825.09 L 678.39 824.88 L 675.77 823.68 L 651.64 812.90 L 650.62 812.45 L 650.03 812.18 L 556.04 771.94 L 555.34 771.60 L 533.24 760.78 L 460.86 731.62 L 460.75 731.57 L 422.95 715.29 L 399.76 705.29 L 399.04 704.97 L 389.50 700.77 L 387.72 699.98 L 373.69 693.80 L 373.57 693.74 L 372.70 693.36 L 381.43 673.90 L 392.05 650.24 L 392.16 650.00 L 421.54 584.56 L 421.58 584.58 L 435.66 590.85 L 472.33 607.19 L 507.87 623.02 L 508.47 623.28 L 547.58 640.19 L 560.39 645.73 L 592.30 659.53 L 593.78 660.17 L 594.26 660.43 L 602.69 665.01 L 603.17 663.94 L 611.51 667.94 L 613.79 669.04 L 669.18 694.23 L 669.36 694.31 L 691.36 704.38 L 696.64 706.79 L 696.75 706.84 L 734.84 723.90 L 743.15 727.58 L 777.07 742.62 L 777.21 742.68 L 864.14 781.42 L 884.25 736.50 L 886.59 731.27 L 887.17 729.96 L 910.48 677.88 L 910.59 677.63 L 935.25 622.00 L 936.93 618.23 L 937.41 617.15 L 967.98 548.18 L 1030.84 576.05 L 1045.55 582.57 L 1062.62 590.26 L 1038.34 644.12 L 1013.07 699.30 L 1005.16 716.57 L 991.80 746.88 L 991.60 747.33 L 980.02 773.59 L 961.42 816.21 L 961.40 816.25 L 958.70 822.43 L 958.70 822.43 L 958.13 823.75 L 958.13 823.75 L 930.23 887.64 L 913.17 924.10 L 912.88 924.75 L 911.68 924.19 Z "/>
<path class="zone" data-zone-id="11215740_040_03" d="M 372.70 693.36 L 372.70 693.36 L 342.09 679.86 L 341.46 679.58 L 329.72 674.40 L 328.77 673.98 L 305.00 663.49 L 304.80 663.41 L 276.75 651.03 L 276.54 650.94 L 274.38 650.09 L 268.80 647.92 L 277.43 629.86 L 320.65 539.39 L 320.70 539.42 L 326.59 542.05 L 348.71 551.96 L 348.93 552.06 L 361.53 557.70 L 391.75 571.22 L 391.91 571.29 L 399.55 574.71 L 399.59 574.73 L 421.54 584.56 L 392.16 650.00 L 392.05 650.24 L 381.43 673.90 L 372.70 693.36 Z "/>
<path class="zone" data-zone-id="11215740_040_00" d="M 113.53 592.72 L 92.42 585.76 L 92.38 585.74 L 92.40 585.70 L 146.79 465.07 L 146.82 465.08 L 167.68 473.22 L 170.69 474.40 L 206.28 489.83 L 248.17 507.99 L 289.83 525.92 L 293.47 527.48 L 320.65 539.39 L 277.43 629.86 L 268.80 647.92 L 243.23 637.94 L 206.82 623.17 L 197.27 620.00 L 193.04 618.60 L 120.47 595.01 L 113.53 592.72 Z "/>
<path class="zone" data-zone-id="11215740_040_05" d="M 167.61 418.88 L 225.18 289.41 L 252.68 230.27 L 252.68 230.27 L 252.72 230.29 L 274.71 239.95 L 354.74 275.10 L 354.74 275.10 L 256.05 490.51 L 248.19 507.66 L 354.74 275.10 L 354.74 275.10 L 354.97 275.20 L 354.97 275.20 L 337.68 312.87 L 337.31 313.69 L 327.75 334.53 L 327.71 334.61 L 271.98 456.09 L 271.80 456.47 L 248.17 507.99 L 206.28 489.83 L 170.69 474.40 L 167.68 473.22 L 146.82 465.08 L 146.79 465.07 L 146.80 465.03 L 167.61 418.88 Z "/>
<path class="zone" data-zone-id="11215740_040_00" d="M 593.78 660.17 L 592.30 659.53 L 560.39 645.73 L 547.58 640.19 L 508.47 623.28 L 525.22 585.46 L 529.88 574.91 L 531.85 570.49 L 540.34 551.44 L 540.68 550.67 L 545.66 539.51 L 559.95 507.44 L 568.82 487.53 L 568.92 487.31 L 573.88 475.85 L 583.08 454.61 L 591.62 434.91 L 594.94 427.22 L 611.33 389.38 L 611.33 389.38 L 611.33 389.38 L 662.48 412.71 L 667.17 414.84 L 696.84 428.56 L 705.66 432.64 L 705.66 432.64 L 692.79 461.92 L 640.35 580.22 L 631.16 600.91 L 603.17 663.94 L 602.69 665.01 L 594.26 660.43 L 593.78 660.17 Z "/>
<path class="zone" data-zone-id="11215740_040_07" d="M 692.79 461.92 L 705.66 432.64 L 705.66 432.64 L 705.66 432.64 L 714.23 435.84 L 756.21 454.06 L 764.23 457.54 L 800.22 473.67 L 800.22 473.67 L 800.21 473.71 L 796.68 481.65 L 779.63 520.00 L 779.61 520.05 L 776.75 526.49 L 762.98 557.49 L 758.98 566.49 L 748.83 589.34 L 748.09 591.01 L 748.05 591.09 L 732.54 625.98 L 717.95 658.80 L 717.89 658.95 L 699.78 699.86 L 698.79 702.15 L 696.75 706.84 L 696.64 706.79 L 691.36 704.38 L 669.36 694.31 L 669.18 694.23 L 613.79 669.04 L 611.51 667.94 L 603.17 663.94 L 631.16 600.91 L 640.35 580.22 L 692.79 461.92 Z "/>
<path class="zone" data-zone-id="11215740_040_08" d="M 777.21 742.68 L 779.22 737.89 L 780.11 735.58 L 781.17 733.19 L 788.38 716.82 L 798.22 694.49 L 798.30 694.29 L 802.89 683.89 L 815.56 655.12 L 828.30 626.08 L 828.35 625.95 L 835.92 609.16 L 836.12 608.73 L 848.31 581.70 L 860.13 555.30 L 860.17 555.19 L 870.70 531.54 L 876.32 518.43 L 878.25 513.69 L 880.06 509.23 L 890.61 513.92 L 902.84 519.37 L 928.40 530.75 L 967.98 548.18 L 937.41 617.15 L 936.93 618.23 L 935.25 622.00 L 910.59 677.63 L 910.48 677.88 L 887.17 729.96 L 886.59 731.27 L 884.25 736.50 L 864.14 781.42 L 777.21 742.68 Z "/>
<path class="zone" data-zone-id="11215740_040_09" d="M 289.83 525.92 L 248.17 507.99 L 271.80 456.47 L 271.98 456.09 L 327.71 334.61 L 327.75 334.53 L 337.31 313.69 L 337.68 312.87 L 354.97 275.20 L 354.97 275.20 L 354.97 275.20 L 374.87 283.94 L 392.88 291.96 L 424.40 306.00 L 422.40 310.47 L 421.56 312.36 L 412.75 332.22 L 401.53 357.45 L 401.50 357.53 L 384.46 395.85 L 381.44 402.68 L 381.31 402.97 L 356.18 459.07 L 323.68 532.68 L 322.61 535.28 L 320.65 539.39 L 293.47 527.48 L 289.83 525.92 Z "/>
<path class="zone" data-zone-id="11215740_040_10" d="M 399.55 574.71 L 391.91 571.29 L 391.75 571.22 L 361.53 557.70 L 348.93 552.06 L 348.71 551.96 L 326.59 542.05 L 320.70 539.42 L 320.65 539.39 L 322.61 535.28 L 323.68 532.68 L 356.18 459.07 L 381.31 402.97 L 381.44 402.68 L 384.46 395.85 L 401.50 357.53 L 401.53 357.45 L 412.75 332.22 L 421.56 312.36 L 422.40 310.47 L 424.40 306.00 L 440.56 313.19 L 454.26 319.29 L 477.30 329.57 L 511.39 344.78 L 523.24 350.07 L 523.24 350.07 L 521.41 354.40 L 518.61 361.04 L 514.89 368.80 L 505.45 390.44 L 505.36 390.65 L 494.48 415.49 L 485.79 435.33 L 471.36 468.28 L 471.33 468.35 L 469.41 472.82 L 439.66 542.32 L 424.62 577.47 L 423.37 580.47 L 421.54 584.56 L 399.59 574.73 L 399.55 574.71 Z "/>
<path class="zone" data-zone-id="11215740_040_11" d="M 472.33 607.19 L 435.66 590.85 L 421.58 584.58 L 421.54 584.56 L 423.37 580.47 L 424.62 577.47 L 439.66 542.32 L 469.41 472.82 L 471.33 468.35 L 471.36 468.28 L 485.79 435.33 L 494.48 415.49 L 505.36 390.65 L 505.45 390.44 L 514.89 368.80 L 518.61 361.04 L 521.41 354.40 L 523.24 350.07 L 523.24 350.07 L 523.24 350.07 L 573.49 372.49 L 611.33 389.38 L 611.33 389.38 L 594.94 427.22 L 583.08 454.61 L 573.88 475.85 L 568.92 487.31 L 568.82 487.53 L 559.95 507.44 L 545.66 539.51 L 540.68 550.67 L 540.34 551.44 L 531.85 570.49 L 529.88 574.91 L 525.22 585.46 L 508.47 623.28 L 507.87 623.02 L 472.33 607.19 Z "/>
</svg>
