<svg xmlns="http://www.w3.org/2000/svg" viewBox="0 0 1154 1155" width="1154" height="1155">
<path class="zone" data-zone-id="11215810_020_00" d="M 363.71 914.55 L 331.58 902.44 L 328.47 891.97 L 325.72 885.68 L 321.93 878.62 L 318.50 873.74 L 315.89 870.27 L 302.35 858.66 L 292.53 853.25 L 287.17 851.33 L 274.49 848.81 L 269.77 848.42 L 259.74 848.74 L 251.05 850.54 L 245.30 852.70 L 238.52 856.20 L 229.54 863.21 L 214.24 883.60 L 206.97 901.26 L 206.23 905.66 L 204.78 918.47 L 181.82 923.99 L 124.26 867.62 L 120.67 838.32 L 126.08 832.28 L 169.26 787.83 L 213.83 739.60 L 286.43 663.39 L 363.44 736.37 L 451.68 820.42 L 363.71 914.55 Z "/>
<path class="zone" data-zone-id="11215810_020_01" d="M 712.10 524.43 L 748.10 529.04 L 696.72 585.41 L 633.81 653.40 L 579.05 600.65 L 563.06 585.24 L 544.10 566.98 L 543.89 566.78 L 540.21 563.23 L 494.78 517.53 L 518.74 514.03 L 530.98 512.43 L 539.93 511.26 L 543.45 511.97 L 539.72 506.53 L 540.46 499.23 L 531.74 465.60 L 527.08 453.24 L 524.08 407.53 L 540.43 430.96 L 548.42 441.09 L 554.89 458.25 L 565.03 497.35 L 564.75 500.13 L 566.90 503.26 L 567.50 512.33 L 567.27 512.54 L 567.27 512.54 L 570.08 513.20 L 588.04 515.42 L 600.10 517.14 L 636.78 516.57 L 694.56 522.18 L 712.10 524.43 Z "/>
<path class="zone" data-zone-id="11215810_020_02" d="M 431.91 409.63 L 424.26 391.35 L 429.95 374.17 L 489.46 349.55 L 506.79 339.64 L 515.24 350.84 L 520.91 359.38 L 521.25 364.55 L 511.28 375.14 L 511.50 377.00 L 512.12 379.25 L 515.76 392.50 L 517.86 398.62 L 524.08 407.53 L 527.08 453.24 L 527.06 453.18 L 531.74 465.60 L 540.46 499.23 L 539.72 506.53 L 543.45 511.97 L 539.93 511.26 L 518.74 514.03 L 494.78 517.53 L 511.86 534.71 L 514.89 537.67 L 465.23 489.21 L 433.84 414.24 L 431.91 409.63 Z "/>
<path class="zone" data-zone-id="11215810_020_03" d="M 966.07 203.54 L 970.39 205.23 L 988.83 217.68 L 975.54 229.22 L 982.90 237.68 L 874.15 378.93 L 805.39 452.23 L 804.89 452.77 L 764.55 496.18 L 735.52 527.43 L 712.10 524.43 L 694.56 522.18 L 636.78 516.57 L 625.19 516.75 L 600.10 517.14 L 588.04 515.42 L 570.08 513.20 L 567.51 512.60 L 567.50 512.33 L 567.51 512.32 L 567.27 512.54 L 567.27 512.54 L 567.50 512.33 L 566.90 503.26 L 564.75 500.13 L 565.03 497.35 L 554.89 458.25 L 548.42 441.09 L 540.43 430.96 L 517.86 398.62 L 515.76 392.50 L 512.12 379.25 L 511.50 377.00 L 511.28 375.14 L 523.06 362.62 L 521.25 364.55 L 520.91 359.38 L 515.24 350.84 L 509.54 343.28 L 500.50 351.30 L 513.89 339.42 L 520.12 333.99 L 525.86 328.98 L 536.49 324.07 L 539.06 322.65 L 545.20 319.26 L 551.04 315.72 L 552.48 314.85 L 575.70 297.69 L 591.94 285.68 L 609.32 268.56 L 624.78 251.00 L 630.67 242.53 L 662.37 199.34 L 712.68 129.73 L 793.96 205.97 L 850.22 150.53 L 879.73 163.93 L 913.47 181.22 L 938.68 191.78 L 963.66 201.81 L 966.07 203.54 Z "/>
<path class="zone" data-zone-id="11215810_020_04" d="M 467.83 347.09 L 521.35 323.35 L 570.76 292.36 L 609.03 257.76 L 616.48 249.33 L 626.30 236.16 L 660.29 189.34 L 705.40 127.21 L 727.37 96.50 L 730.31 92.38 L 733.13 88.44 L 734.82 86.09 L 735.78 84.73 L 737.15 82.81 L 737.35 82.88 L 914.15 144.68 L 1056.75 195.31 L 1002.60 252.54 L 862.46 424.37 L 703.78 614.56 L 653.38 668.68 L 564.36 764.26 L 384.78 957.08 L 279.44 1072.19 L 279.43 1072.20 L 266.99 1055.45 L 275.95 1045.98 L 275.96 1045.96 L 266.99 1055.45 L 226.52 1000.95 L 196.95 967.52 L 123.29 888.91 L 97.26 865.32 L 113.02 846.86 L 120.67 838.32 L 124.26 867.62 L 181.82 923.99 L 204.78 918.47 L 206.23 905.66 L 206.97 901.26 L 214.24 883.60 L 229.54 863.21 L 238.52 856.20 L 245.30 852.70 L 251.05 850.54 L 259.74 848.74 L 269.77 848.42 L 274.49 848.81 L 287.17 851.33 L 292.53 853.25 L 302.35 858.66 L 315.89 870.27 L 318.50 873.74 L 321.93 878.62 L 325.72 885.68 L 328.47 891.97 L 331.58 902.44 L 363.71 914.55 L 451.68 820.42 L 363.44 736.37 L 286.43 663.39 L 213.83 739.60 L 255.07 694.97 L 305.06 644.34 L 341.16 605.42 L 341.16 605.42 L 458.64 482.06 L 460.25 480.37 L 458.64 482.06 L 440.51 501.10 L 362.84 582.66 L 341.17 605.42 L 341.17 605.42 L 369.27 575.13 L 431.20 510.42 L 458.45 481.88 L 460.75 479.48 L 450.78 455.82 L 421.57 386.53 L 414.22 369.09 L 414.45 368.99 L 467.83 347.09 Z M 511.86 534.71 L 540.21 563.23 L 543.89 566.78 L 544.10 566.98 L 563.06 585.24 L 579.05 600.65 L 633.81 653.40 L 696.72 585.41 L 748.10 529.04 L 735.52 527.43 L 764.55 496.18 L 804.89 452.77 L 805.39 452.23 L 874.15 378.93 L 982.90 237.68 L 975.54 229.22 L 988.83 217.68 L 970.39 205.23 L 966.07 203.54 L 963.66 201.81 L 938.68 191.78 L 913.47 181.22 L 879.73 163.93 L 850.22 150.53 L 793.96 205.97 L 712.68 129.73 L 662.37 199.34 L 630.67 242.53 L 624.78 251.00 L 609.32 268.56 L 591.94 285.68 L 575.70 297.69 L 552.48 314.85 L 551.04 315.72 L 545.20 319.26 L 539.06 322.65 L 536.49 324.07 L 525.86 328.98 L 520.12 333.99 L 513.89 339.42 L 509.54 343.28 L 506.79 339.64 L 489.46 349.55 L 429.95 374.17 L 424.26 391.35 L 431.91 409.63 L 433.84 414.24 L 465.23 489.21 L 511.86 534.71 Z "/>
</svg>
