<svg xmlns="http://www.w3.org/2000/svg" viewBox="0 0 1154 1155" width="1154" height="1155">
<path class="zone" data-zone-id="11215830_050_00" d="M 506.09 902.47 L 429.86 915.75 L 393.80 921.05 L 372.09 923.73 L 351.78 925.02 L 351.47 925.05 L 349.52 923.69 L 336.76 864.24 L 333.25 847.92 L 323.80 803.88 L 327.50 798.15 L 334.76 796.53 L 336.72 796.10 L 406.51 780.54 L 415.31 778.58 L 495.87 760.60 L 498.01 760.05 L 504.10 758.48 L 504.22 758.45 L 509.75 767.64 L 535.07 812.04 L 545.11 829.53 L 549.66 837.47 L 550.49 838.92 L 572.35 877.07 L 574.72 881.13 L 578.06 886.85 L 563.34 890.08 L 561.55 890.47 L 506.09 902.47 Z "/>
<path class="zone" data-zone-id="11215830_050_01" d="M 125.22 876.54 L 122.05 842.02 L 130.07 840.30 L 224.91 820.04 L 322.35 799.30 L 327.50 798.15 L 323.80 803.88 L 333.25 847.92 L 336.76 864.24 L 349.52 923.69 L 351.47 925.05 L 278.39 932.24 L 188.38 938.64 L 138.51 940.10 L 130.59 939.91 L 129.83 931.27 L 128.69 918.28 L 127.93 909.00 L 125.22 876.54 Z "/>
<path class="zone" data-zone-id="11215830_050_00" d="M 111.39 718.96 L 111.26 717.51 L 116.47 717.22 L 119.32 716.24 L 126.64 713.73 L 182.26 692.48 L 201.88 684.94 L 254.99 664.52 L 269.20 659.05 L 291.68 650.39 L 299.53 647.37 L 302.48 646.06 L 303.73 651.54 L 335.66 791.41 L 336.72 796.10 L 334.76 796.53 L 322.35 799.30 L 224.91 820.04 L 130.07 840.30 L 122.05 842.02 L 122.04 841.88 L 116.27 773.72 L 111.39 718.96 Z "/>
<path class="zone" data-zone-id="11215830_050_00" d="M 242.06 619.45 L 239.37 614.72 L 231.63 601.10 L 230.79 599.62 L 221.66 583.57 L 201.29 547.75 L 219.83 537.38 L 210.47 521.34 L 245.42 501.07 L 273.87 484.56 L 325.36 454.56 L 325.40 454.53 L 329.29 461.10 L 332.77 466.97 L 362.81 518.12 L 363.15 518.70 L 397.23 577.00 L 403.36 587.31 L 392.41 593.11 L 342.80 622.89 L 308.73 643.26 L 302.48 646.06 L 299.53 647.37 L 291.68 650.39 L 269.20 659.05 L 265.41 660.51 L 242.06 619.45 Z "/>
<path class="zone" data-zone-id="11215830_050_01" d="M 111.12 715.91 L 105.62 647.67 L 100.87 586.64 L 100.75 584.59 L 108.70 580.73 L 116.57 576.92 L 158.91 552.87 L 163.22 550.42 L 189.71 533.96 L 203.88 525.16 L 210.47 521.34 L 219.83 537.38 L 201.29 547.75 L 221.66 583.57 L 230.79 599.62 L 231.63 601.10 L 239.37 614.72 L 242.06 619.45 L 265.41 660.51 L 254.99 664.52 L 201.88 684.94 L 182.26 692.48 L 126.64 713.73 L 119.32 716.24 L 116.47 717.22 L 111.26 717.51 L 111.12 715.91 Z "/>
<path class="zone" data-zone-id="11215830_050_04" d="M 325.40 454.53 L 375.65 424.73 L 379.91 422.20 L 426.80 394.39 L 428.52 393.37 L 444.53 383.88 L 492.17 355.64 L 499.99 368.80 L 531.88 423.90 L 563.78 478.99 L 564.98 481.51 L 569.27 489.43 L 556.76 496.71 L 549.08 501.60 L 522.23 517.20 L 512.26 522.99 L 478.34 543.32 L 447.90 561.62 L 414.75 581.28 L 403.36 587.31 L 397.23 577.00 L 363.15 518.70 L 362.81 518.12 L 332.77 466.97 L 329.29 461.10 L 325.40 454.53 Z "/>
<path class="zone" data-zone-id="11215830_050_05" d="M 522.21 337.83 L 522.28 337.79 L 560.88 314.85 L 593.97 295.21 L 596.47 293.80 L 632.77 273.39 L 665.93 253.76 L 703.51 231.75 L 732.31 214.88 L 752.12 249.22 L 810.26 347.65 L 810.76 348.47 L 818.73 361.70 L 809.22 419.03 L 793.56 513.36 L 765.08 697.91 L 764.41 702.21 L 758.29 701.17 L 686.20 688.93 L 644.59 705.05 L 518.64 753.70 L 504.22 758.45 L 501.14 753.33 L 483.28 723.39 L 446.91 661.71 L 411.68 600.69 L 406.81 593.12 L 403.36 587.31 L 414.75 581.28 L 447.90 561.62 L 478.34 543.32 L 512.26 522.99 L 522.23 517.20 L 549.08 501.60 L 556.76 496.71 L 569.27 489.43 L 564.98 481.51 L 563.78 478.99 L 531.88 423.90 L 499.99 368.80 L 492.17 355.64 L 522.21 337.83 Z "/>
<path class="zone" data-zone-id="11215830_050_06" d="M 818.73 361.70 L 855.17 422.21 L 906.71 505.73 L 1053.25 743.45 L 1021.56 758.64 L 800.52 850.18 L 637.04 900.82 L 591.62 910.04 L 578.06 886.85 L 596.17 882.87 L 645.53 869.37 L 669.25 862.72 L 682.65 859.21 L 691.73 856.15 L 700.94 851.98 L 706.67 848.90 L 716.76 841.38 L 726.54 831.94 L 735.77 821.09 L 743.29 808.51 L 747.93 796.49 L 752.04 778.72 L 757.96 743.76 L 764.41 702.21 L 765.08 697.91 L 793.56 513.36 L 809.22 419.03 L 818.73 361.70 Z "/>
<path class="zone" data-zone-id="11215830_050_07" d="M 302.48 646.06 L 308.73 643.26 L 342.80 622.89 L 392.41 593.11 L 403.36 587.31 L 406.81 593.12 L 411.68 600.69 L 446.91 661.71 L 483.28 723.39 L 501.14 753.33 L 504.22 758.45 L 504.10 758.48 L 495.87 760.60 L 415.31 778.58 L 406.51 780.54 L 336.72 796.10 L 335.66 791.41 L 303.73 651.54 L 302.48 646.06 Z "/>
<path class="zone" data-zone-id="11215830_050_00" d="M 752.04 778.72 L 747.93 796.49 L 743.29 808.51 L 735.77 821.09 L 726.54 831.94 L 716.76 841.38 L 706.67 848.90 L 700.94 851.98 L 691.73 856.15 L 682.65 859.21 L 669.25 862.72 L 645.53 869.37 L 596.17 882.87 L 578.06 886.85 L 574.72 881.13 L 572.35 877.07 L 550.49 838.92 L 535.07 812.04 L 509.75 767.64 L 504.22 758.45 L 518.64 753.70 L 644.59 705.05 L 686.20 688.93 L 758.29 701.17 L 764.41 702.21 L 757.96 743.76 L 752.04 778.72 Z "/>
</svg>
