<svg xmlns="http://www.w3.org/2000/svg" viewBox="0 0 1154 1155" width="1154" height="1155">
<path class="zone" data-zone-id="11215850_010_00" d="M 534.87 308.18 L 518.40 348.41 L 516.21 353.78 L 491.04 409.11 L 473.67 449.04 L 470.58 456.12 L 461.72 476.40 L 440.04 526.07 L 427.76 554.20 L 427.13 555.63 L 414.71 582.98 L 410.85 591.34 L 406.33 591.80 L 358.59 591.10 L 358.68 589.76 L 98.90 575.22 L 98.90 575.22 L 109.33 450.39 L 109.45 448.84 L 118.05 449.01 L 123.37 445.58 L 125.18 437.42 L 135.26 421.40 L 165.07 367.99 L 179.42 359.99 L 186.97 262.00 L 184.24 236.85 L 182.64 230.71 L 189.57 225.83 L 194.18 223.27 L 196.98 221.72 L 196.26 210.29 L 194.22 203.28 L 182.84 162.50 L 206.61 164.75 L 211.49 191.17 L 211.63 201.61 L 213.38 201.43 L 213.58 204.37 L 322.84 212.24 L 323.70 192.04 L 360.09 193.26 L 437.36 206.17 L 437.36 206.17 L 438.79 187.56 L 439.43 179.20 L 437.31 165.66 L 439.44 151.24 L 582.99 161.41 L 583.41 161.44 L 580.71 190.28 L 560.09 243.87 L 558.39 248.19 L 534.87 308.18 Z "/>
<path class="zone" data-zone-id="11215850_010_02" d="M 591.50 162.01 L 805.59 177.59 L 810.76 177.97 L 857.01 181.63 L 857.14 181.64 L 913.00 186.07 L 914.59 186.20 L 1008.97 193.68 L 1008.97 193.68 L 1014.84 194.14 L 1055.14 197.33 L 1016.68 309.85 L 1008.37 334.17 L 994.73 374.10 L 977.57 424.48 L 954.83 416.31 L 918.48 403.88 L 914.12 402.37 L 863.94 385.09 L 858.49 384.01 L 846.74 381.69 L 845.29 385.70 L 835.27 413.48 L 834.60 415.42 L 822.97 449.24 L 818.90 461.07 L 816.48 468.11 L 815.83 470.02 L 809.71 487.80 L 801.42 511.29 L 799.64 516.34 L 785.86 556.89 L 781.73 569.16 L 776.86 583.61 L 772.18 581.70 L 751.56 573.29 L 730.58 564.72 L 725.56 562.53 L 725.52 562.52 L 697.70 551.01 L 667.58 538.86 L 667.54 538.84 L 666.40 538.38 L 665.88 538.16 L 658.04 535.00 L 638.60 527.05 L 619.46 519.23 L 613.92 516.39 L 613.71 516.29 L 592.40 507.25 L 566.02 496.24 L 565.20 495.90 L 565.04 495.83 L 544.89 487.31 L 521.30 477.46 L 521.18 477.42 L 497.95 467.79 L 475.77 458.33 L 470.58 456.12 L 473.67 449.04 L 491.04 409.11 L 516.21 353.78 L 518.40 348.41 L 534.87 308.18 L 560.09 243.87 L 580.71 190.28 L 583.41 161.44 L 591.50 162.01 Z "/>
<path class="zone" data-zone-id="11215850_010_00" d="M 942.79 526.63 L 932.82 556.04 L 920.06 593.70 L 911.75 618.36 L 904.95 638.56 L 875.18 726.97 L 852.87 793.23 L 846.04 813.53 L 842.79 823.17 L 841.01 828.46 L 811.29 916.70 L 800.13 949.61 L 795.69 962.67 L 781.75 1003.77 L 760.46 996.41 L 758.93 995.88 L 753.61 994.05 L 728.19 985.26 L 699.47 975.34 L 698.00 974.83 L 683.89 969.95 L 670.12 965.25 L 670.07 965.24 L 670.65 963.56 L 645.06 954.96 L 626.81 948.82 L 604.92 941.50 L 584.67 934.56 L 583.11 929.80 L 583.77 924.98 L 585.95 918.98 L 586.69 917.54 L 591.76 907.68 L 595.07 902.27 L 602.37 891.28 L 611.24 880.22 L 623.72 864.95 L 630.72 856.38 L 638.75 846.46 L 656.75 824.20 L 658.46 821.90 L 668.49 808.43 L 686.58 784.00 L 699.56 765.72 L 701.24 762.82 L 708.52 750.28 L 717.06 734.14 L 721.72 725.33 L 731.58 705.46 L 738.41 690.55 L 740.21 686.44 L 740.79 685.11 L 749.37 661.90 L 769.54 604.54 L 776.11 585.84 L 776.86 583.61 L 781.73 569.16 L 785.86 556.89 L 799.64 516.34 L 801.42 511.29 L 809.71 487.80 L 815.83 470.02 L 816.48 468.11 L 818.90 461.07 L 822.97 449.24 L 834.60 415.42 L 835.27 413.48 L 845.29 385.70 L 846.74 381.69 L 858.49 384.01 L 863.94 385.09 L 914.12 402.37 L 918.48 403.88 L 954.83 416.31 L 977.57 424.48 L 950.65 503.50 L 946.16 516.70 L 942.79 526.63 Z "/>
<path class="zone" data-zone-id="11215850_010_04" d="M 584.67 934.56 L 584.38 934.47 L 581.93 933.43 L 576.37 931.07 L 572.87 941.01 L 541.89 914.44 L 528.69 900.03 L 519.05 883.19 L 516.00 867.21 L 496.72 856.79 L 496.42 856.64 L 471.88 843.74 L 453.79 833.38 L 450.08 831.21 L 447.75 834.69 L 419.42 821.98 L 417.91 804.65 L 417.76 802.89 L 415.83 780.79 L 415.12 772.62 L 411.54 762.18 L 411.71 759.80 L 412.00 755.75 L 412.01 755.60 L 412.00 755.76 L 411.93 756.73 L 412.09 754.55 L 413.75 731.13 L 413.54 734.17 L 413.75 731.13 L 416.17 697.22 L 417.19 682.90 L 417.72 673.00 L 447.25 683.99 L 450.86 685.33 L 456.46 687.41 L 488.68 709.06 L 500.32 716.79 L 518.01 728.37 L 520.10 729.74 L 521.72 730.88 L 521.79 730.93 L 562.34 758.41 L 564.84 760.11 L 584.83 774.12 L 606.20 787.80 L 610.17 790.34 L 617.93 795.65 L 618.20 795.83 L 626.55 801.65 L 655.13 819.79 L 658.46 821.90 L 656.75 824.20 L 638.75 846.46 L 630.72 856.38 L 623.72 864.95 L 611.24 880.22 L 602.37 891.28 L 595.07 902.27 L 591.76 907.68 L 586.69 917.54 L 585.95 918.98 L 583.77 924.98 L 583.11 929.80 L 584.67 934.56 Z "/>
<path class="zone" data-zone-id="11215850_010_05" d="M 417.72 673.00 L 418.49 658.79 L 419.75 635.54 L 421.13 610.17 L 422.21 590.20 L 412.27 591.20 L 410.85 591.34 L 414.71 582.98 L 427.13 555.63 L 427.76 554.20 L 440.04 526.07 L 461.72 476.40 L 470.58 456.12 L 475.77 458.33 L 497.95 467.79 L 521.18 477.42 L 521.30 477.46 L 544.89 487.31 L 565.04 495.83 L 565.20 495.90 L 566.02 496.24 L 592.40 507.25 L 613.71 516.29 L 613.92 516.39 L 619.46 519.23 L 638.60 527.05 L 658.04 535.00 L 665.88 538.16 L 666.40 538.38 L 667.54 538.84 L 667.58 538.86 L 697.70 551.01 L 725.52 562.52 L 725.56 562.53 L 730.58 564.72 L 751.56 573.29 L 772.18 581.70 L 776.86 583.61 L 776.11 585.84 L 769.54 604.54 L 749.37 661.90 L 740.79 685.11 L 740.21 686.44 L 738.41 690.55 L 731.58 705.46 L 721.72 725.33 L 717.06 734.14 L 708.52 750.28 L 701.24 762.82 L 699.56 765.72 L 686.58 784.00 L 668.49 808.43 L 658.46 821.90 L 655.13 819.79 L 626.55 801.65 L 618.20 795.83 L 617.93 795.65 L 610.17 790.34 L 606.20 787.80 L 584.83 774.12 L 564.84 760.11 L 562.34 758.41 L 521.79 730.93 L 521.72 730.88 L 520.10 729.74 L 518.01 728.37 L 500.32 716.79 L 488.68 709.06 L 456.46 687.41 L 450.86 685.33 L 447.25 683.99 L 417.72 673.00 Z "/>
</svg>
