<svg xmlns="http://www.w3.org/2000/svg" viewBox="0 0 1155 1155" width="1155" height="1155">
<path class="zone" data-zone-id="11215820_050_01" d="M 489.73 753.82 L 476.77 750.31 L 454.45 745.03 L 440.20 741.48 L 407.13 731.69 L 406.18 731.40 L 412.46 716.05 L 418.44 700.42 L 426.19 680.24 L 441.60 639.49 L 447.69 629.08 L 453.38 619.85 L 465.35 606.66 L 486.92 582.92 L 487.08 582.74 L 487.97 581.78 L 513.59 553.94 L 540.82 524.21 L 594.74 573.69 L 595.05 573.98 L 607.51 585.35 L 619.15 595.68 L 619.25 596.04 L 620.34 599.93 L 620.32 603.55 L 621.73 622.54 L 623.92 654.97 L 627.60 704.74 L 627.62 705.01 L 631.22 745.25 L 632.98 762.81 L 632.98 762.81 L 576.89 764.08 L 555.15 763.10 L 537.16 761.12 L 517.73 758.70 L 495.86 754.99 L 489.73 753.82 Z "/>
<path class="zone" data-zone-id="11215820_050_02" d="M 406.18 731.40 L 393.65 727.57 L 283.52 685.74 L 208.06 657.08 L 207.82 656.99 L 206.88 656.62 L 135.31 628.55 L 109.47 619.11 L 109.39 619.08 L 109.39 619.08 L 115.44 603.22 L 133.05 557.05 L 149.51 513.92 L 159.04 517.42 L 192.10 530.87 L 214.61 539.99 L 232.20 546.77 L 235.79 548.08 L 238.45 549.02 L 249.44 552.92 L 260.21 557.32 L 265.81 559.77 L 278.88 565.52 L 284.75 567.85 L 311.04 578.28 L 338.63 589.14 L 345.37 591.59 L 356.43 595.62 L 356.67 595.70 L 391.91 608.52 L 410.12 615.23 L 410.80 615.48 L 447.69 629.08 L 441.60 639.49 L 426.19 680.24 L 418.44 700.42 L 412.46 716.05 L 406.18 731.40 L 406.18 731.40 Z "/>
<path class="zone" data-zone-id="11215820_050_03" d="M 253.95 544.80 L 263.49 534.18 L 294.91 499.21 L 298.18 495.57 L 314.55 477.42 L 351.40 436.53 L 361.55 425.27 L 392.69 390.88 L 401.15 398.41 L 433.62 427.30 L 475.75 465.14 L 527.18 511.35 L 540.82 524.21 L 513.59 553.94 L 487.97 581.78 L 487.08 582.74 L 486.92 582.92 L 465.35 606.66 L 453.38 619.85 L 447.69 629.08 L 410.80 615.48 L 410.12 615.23 L 391.91 608.52 L 356.67 595.70 L 356.43 595.62 L 345.37 591.59 L 338.63 589.14 L 311.04 578.28 L 284.75 567.85 L 278.88 565.52 L 265.81 559.77 L 260.21 557.32 L 249.44 552.92 L 253.95 544.80 Z "/>
<path class="zone" data-zone-id="11215820_050_04" d="M 762.65 512.50 L 772.45 508.54 L 782.23 504.59 L 782.89 504.33 L 802.63 496.35 L 836.16 482.73 L 866.38 574.46 L 866.46 574.70 L 868.42 580.40 L 889.48 640.28 L 894.52 652.88 L 900.57 667.99 L 851.24 695.14 L 850.92 695.28 L 850.92 695.28 L 850.92 695.28 L 842.13 680.88 L 825.67 653.90 L 801.41 612.87 L 801.29 612.68 L 795.05 602.26 L 795.03 602.23 L 771.18 561.46 L 747.62 520.62 L 762.65 512.50 Z "/>
<path class="zone" data-zone-id="11215820_050_00" d="M 919.44 450.46 L 951.15 438.15 L 956.95 435.92 L 972.14 430.08 L 981.91 426.32 L 982.32 427.67 L 1002.65 476.67 L 1026.88 518.62 L 1049.20 556.70 L 1049.23 556.76 L 1060.67 576.42 L 1060.67 576.42 L 1050.75 581.53 L 1050.75 581.53 L 1037.10 588.35 L 1026.19 593.81 L 1015.11 600.50 L 992.90 613.92 L 910.17 662.48 L 902.18 667.10 L 900.57 667.99 L 900.40 667.55 L 894.52 652.88 L 889.48 640.28 L 868.42 580.40 L 866.46 574.70 L 866.38 574.46 L 861.26 558.93 L 836.16 482.73 L 856.63 475.06 L 878.40 466.36 L 880.65 465.49 L 899.18 458.31 L 903.40 456.67 L 919.06 450.60 L 919.44 450.46 Z "/>
<path class="zone" data-zone-id="11215820_050_06" d="M 788.95 724.91 L 765.67 733.76 L 754.84 737.01 L 738.27 742.38 L 734.41 743.34 L 704.87 750.68 L 698.41 752.27 L 691.30 754.03 L 680.74 756.16 L 669.87 758.35 L 669.38 758.44 L 656.45 760.71 L 634.02 762.79 L 632.98 762.81 L 632.98 762.81 L 632.98 762.81 L 631.22 745.25 L 627.62 705.01 L 627.60 704.74 L 623.92 654.97 L 621.73 622.54 L 620.32 603.55 L 620.34 599.93 L 619.25 596.04 L 624.68 592.60 L 628.37 590.26 L 645.08 580.43 L 675.14 562.67 L 675.39 562.52 L 691.17 553.20 L 691.82 552.82 L 692.56 552.39 L 736.60 526.67 L 747.62 520.62 L 771.18 561.46 L 795.03 602.23 L 795.05 602.26 L 801.29 612.68 L 801.41 612.87 L 825.67 653.90 L 842.13 680.88 L 850.92 695.28 L 850.92 695.28 L 816.22 711.53 L 788.95 724.91 Z "/>
</svg>
