<svg xmlns="http://www.w3.org/2000/svg" viewBox="0 0 1154 1155" width="1154" height="1155">
<path class="zone" data-zone-id="11215860_050_00" d="M 122.98 936.33 L 123.61 920.72 L 123.76 917.00 L 123.01 895.05 L 146.53 872.45 L 146.97 872.03 L 147.55 867.37 L 148.34 861.04 L 152.40 857.53 L 155.29 855.04 L 177.68 832.53 L 184.95 825.22 L 189.99 820.15 L 195.58 813.32 L 213.91 790.91 L 214.39 790.32 L 221.62 782.67 L 211.53 771.14 L 209.94 769.71 L 210.78 767.05 L 223.58 748.00 L 218.81 743.64 L 226.43 729.86 L 252.52 754.49 L 292.21 788.61 L 307.70 801.93 L 305.10 804.81 L 291.53 819.36 L 268.25 844.32 L 230.65 884.63 L 140.80 982.75 L 126.80 1007.83 L 92.25 1005.10 L 92.25 1005.09 L 100.30 970.93 L 103.16 966.06 L 120.05 940.73 L 122.98 936.33 Z M 152.68 884.92 L 147.75 874.92 L 146.53 872.45 L 152.68 884.92 Z M 188.49 864.50 L 190.36 868.26 L 185.26 858.04 L 188.49 864.50 Z "/>
<path class="zone" data-zone-id="11215860_050_00" d="M 403.54 573.46 L 411.54 564.71 L 411.94 564.27 L 444.91 528.52 L 476.73 557.17 L 501.96 579.89 L 469.12 616.45 L 450.91 636.73 L 415.63 676.02 L 376.65 641.49 L 365.11 631.26 L 341.03 609.93 L 366.81 584.74 L 389.79 561.32 L 403.54 573.46 Z "/>
<path class="zone" data-zone-id="11215860_050_01" d="M 196.70 701.82 L 185.63 688.07 L 183.48 679.95 L 181.54 669.51 L 198.01 609.14 L 199.07 604.63 L 200.59 602.10 L 210.75 593.61 L 216.14 589.11 L 228.59 578.69 L 267.68 538.19 L 271.54 533.87 L 308.77 492.12 L 316.61 483.63 L 356.74 440.14 L 359.03 437.72 L 362.71 433.84 L 365.56 436.33 L 372.61 442.39 L 389.29 456.71 L 410.27 474.16 L 415.85 478.80 L 436.97 496.39 L 442.05 500.63 L 448.80 506.66 L 452.95 510.36 L 455.61 512.74 L 502.40 555.53 L 517.60 569.02 L 465.74 626.85 L 406.58 692.38 L 393.34 707.05 L 360.97 742.92 L 307.70 801.93 L 292.21 788.61 L 252.52 754.49 L 226.43 729.86 L 226.43 729.86 L 196.70 701.82 Z M 366.81 584.74 L 341.03 609.93 L 365.11 631.26 L 376.65 641.49 L 415.63 676.02 L 450.91 636.73 L 469.12 616.45 L 501.96 579.89 L 476.73 557.17 L 444.91 528.52 L 411.94 564.27 L 411.54 564.71 L 403.54 573.46 L 389.79 561.32 L 366.81 584.74 Z "/>
<path class="zone" data-zone-id="11215860_050_03" d="M 208.64 588.09 L 204.85 578.15 L 201.01 565.54 L 197.56 546.99 L 192.01 521.35 L 180.74 481.95 L 170.39 450.19 L 158.98 418.69 L 158.39 416.88 L 150.50 392.62 L 151.19 379.52 L 154.92 360.79 L 157.94 353.04 L 170.73 340.67 L 192.01 321.54 L 217.97 299.09 L 219.39 299.35 L 219.39 299.35 L 219.45 299.36 L 219.94 299.88 L 219.95 299.89 L 222.02 302.08 L 222.02 302.08 L 235.64 316.55 L 249.10 331.38 L 252.08 334.66 L 261.73 344.15 L 276.88 358.24 L 278.26 359.48 L 278.46 359.66 L 283.25 363.99 L 290.11 370.19 L 323.35 399.34 L 327.00 402.54 L 362.71 433.84 L 359.03 437.72 L 356.74 440.14 L 316.61 483.63 L 308.77 492.12 L 271.54 533.87 L 267.68 538.19 L 228.59 578.69 L 216.14 589.11 L 210.75 593.61 L 208.64 588.09 Z "/>
<path class="zone" data-zone-id="11215860_050_04" d="M 517.60 569.02 L 543.91 539.69 L 544.52 539.01 L 581.91 497.55 L 600.53 476.92 L 635.80 437.45 L 674.00 394.71 L 689.09 408.08 L 713.79 430.05 L 746.41 459.04 L 753.22 465.64 L 724.69 497.04 L 695.62 529.29 L 691.07 534.44 L 690.89 534.65 L 654.50 575.88 L 642.84 589.09 L 627.88 606.17 L 600.51 637.44 L 597.62 640.74 L 596.96 640.16 L 596.94 640.14 L 562.87 610.04 L 532.75 582.75 L 517.60 569.02 Z "/>
<path class="zone" data-zone-id="11215860_050_00" d="M 830.11 220.09 L 833.09 222.76 L 886.94 271.07 L 909.39 291.21 L 907.04 293.96 L 903.32 298.21 L 862.70 344.00 L 812.85 399.53 L 812.50 399.93 L 784.39 431.08 L 753.22 465.64 L 746.41 459.04 L 713.79 430.05 L 689.09 408.08 L 674.00 394.71 L 698.70 367.08 L 803.62 249.69 L 830.11 220.09 Z "/>
<path class="zone" data-zone-id="11215860_050_06" d="M 909.39 291.21 L 909.46 291.27 L 931.31 310.86 L 909.68 291.45 L 909.40 291.20 L 910.49 289.91 L 910.91 290.28 L 962.51 336.94 L 962.52 336.95 L 977.65 350.40 L 985.05 354.95 L 984.08 356.04 L 978.65 352.39 L 984.06 356.06 L 983.30 356.92 L 971.40 370.31 L 959.83 383.33 L 951.32 392.90 L 925.61 421.85 L 922.33 425.54 L 907.81 441.89 L 892.76 458.83 L 888.08 464.10 L 869.64 484.86 L 862.61 492.78 L 827.98 531.74 L 827.27 532.50 L 827.24 532.47 L 773.86 484.69 L 773.82 484.65 L 753.22 465.64 L 784.39 431.08 L 812.50 399.93 L 812.85 399.53 L 862.70 344.00 L 903.32 298.21 L 907.04 293.96 L 909.39 291.21 Z "/>
<path class="zone" data-zone-id="11215860_050_07" d="M 895.35 147.18 L 913.92 126.21 L 951.87 166.07 L 957.87 172.37 L 990.12 196.41 L 1052.88 243.21 L 1053.05 243.33 L 1061.75 248.62 L 1061.65 248.87 L 1048.76 283.18 L 1048.02 284.02 L 1016.91 319.11 L 995.18 343.55 L 985.05 354.95 L 977.65 350.40 L 962.52 336.95 L 962.51 336.94 L 910.91 290.28 L 910.49 289.91 L 909.40 291.20 L 845.04 233.23 L 830.22 219.96 L 830.68 219.45 L 855.89 191.28 L 895.35 147.18 Z "/>
<path class="zone" data-zone-id="11215860_050_08" d="M 827.27 532.50 L 895.37 592.74 L 895.42 592.78 L 891.77 596.82 L 859.21 632.89 L 846.77 646.68 L 838.85 655.35 L 807.58 689.55 L 798.79 699.17 L 781.32 718.26 L 779.30 720.47 L 779.27 720.46 L 775.94 720.65 L 769.52 721.00 L 766.12 720.98 L 730.64 715.81 L 703.76 711.88 L 703.36 711.82 L 686.80 709.41 L 676.75 707.03 L 672.91 705.51 L 676.49 701.37 L 699.67 674.64 L 727.68 643.04 L 755.84 611.02 L 764.98 600.91 L 784.05 579.78 L 809.06 552.08 L 827.27 532.50 Z "/>
<path class="zone" data-zone-id="11215860_050_09" d="M 672.91 705.51 L 671.19 704.83 L 670.42 704.52 L 666.11 701.71 L 662.41 698.91 L 650.18 688.16 L 635.55 674.84 L 635.17 674.49 L 631.25 670.92 L 630.97 670.67 L 617.03 657.97 L 597.62 640.74 L 600.51 637.44 L 627.88 606.17 L 642.84 589.09 L 654.50 575.88 L 690.89 534.65 L 691.07 534.44 L 695.62 529.29 L 724.69 497.04 L 753.22 465.64 L 773.82 484.65 L 773.86 484.69 L 827.24 532.47 L 827.27 532.50 L 809.06 552.08 L 784.05 579.78 L 764.98 600.91 L 755.84 611.02 L 727.68 643.04 L 699.67 674.64 L 676.49 701.37 L 672.91 705.51 Z "/>
<path class="zone" data-zone-id="11215860_050_10" d="M 671.19 704.83 L 668.23 708.09 L 657.11 720.37 L 639.83 739.56 L 631.79 748.49 L 617.33 764.65 L 581.32 804.90 L 564.04 824.22 L 554.35 835.06 L 539.84 851.28 L 525.70 867.09 L 513.78 880.42 L 509.53 876.39 L 502.47 869.69 L 491.79 860.27 L 483.74 852.97 L 475.09 845.12 L 474.84 844.90 L 458.13 829.76 L 446.89 819.60 L 441.04 814.36 L 441.12 814.27 L 468.28 783.77 L 501.66 746.11 L 501.72 746.04 L 509.88 736.84 L 514.17 732.48 L 521.18 725.33 L 556.50 685.21 L 593.59 643.86 L 596.94 640.14 L 596.96 640.16 L 597.62 640.74 L 617.03 657.97 L 630.97 670.67 L 631.25 670.92 L 635.17 674.49 L 635.55 674.84 L 650.18 688.16 L 662.41 698.91 L 666.11 701.71 L 670.42 704.52 L 671.19 704.83 Z "/>
<path class="zone" data-zone-id="11215860_050_11" d="M 511.09 883.43 L 466.70 933.25 L 454.86 946.55 L 445.24 957.35 L 444.66 957.99 L 438.27 965.09 L 420.13 985.23 L 401.97 1005.61 L 399.70 1028.79 L 363.20 1026.31 L 362.98 1026.30 L 281.13 1019.90 L 281.13 1019.90 L 283.15 996.33 L 289.18 984.23 L 319.76 950.19 L 372.12 891.92 L 372.16 891.87 L 407.58 851.99 L 441.04 814.36 L 446.89 819.60 L 458.13 829.76 L 474.84 844.90 L 475.09 845.12 L 483.74 852.97 L 491.79 860.27 L 502.47 869.69 L 509.53 876.39 L 513.78 880.42 L 511.09 883.43 Z "/>
<path class="zone" data-zone-id="11215860_050_12" d="M 281.13 1019.90 L 250.89 1017.53 L 229.54 1015.87 L 126.80 1007.83 L 140.80 982.75 L 230.65 884.63 L 268.25 844.32 L 291.53 819.36 L 305.10 804.81 L 307.70 801.93 L 360.97 742.92 L 375.63 755.91 L 381.82 761.40 L 403.12 780.45 L 403.34 780.64 L 406.58 783.54 L 406.79 783.73 L 423.91 799.03 L 441.04 814.36 L 407.58 851.99 L 372.16 891.87 L 372.12 891.92 L 319.76 950.19 L 289.18 984.23 L 283.15 996.33 L 281.13 1019.90 Z "/>
<path class="zone" data-zone-id="11215860_050_13" d="M 360.97 742.92 L 393.34 707.05 L 406.58 692.38 L 465.74 626.85 L 517.60 569.02 L 532.75 582.75 L 562.87 610.04 L 596.94 640.14 L 593.59 643.86 L 556.50 685.21 L 521.18 725.33 L 514.17 732.48 L 509.88 736.84 L 501.72 746.04 L 501.66 746.11 L 468.28 783.77 L 441.12 814.27 L 441.04 814.36 L 423.91 799.03 L 406.79 783.73 L 406.58 783.54 L 403.34 780.64 L 403.12 780.45 L 381.82 761.40 L 375.63 755.91 L 360.97 742.92 Z "/>
</svg>
