<svg xmlns="http://www.w3.org/2000/svg" viewBox="0 0 1155 1155" width="1155" height="1155">
<path class="zone" data-zone-id="11215847_030_01" d="M 1010.90 720.03 L 1010.65 720.61 L 1006.22 730.91 L 1006.07 731.26 L 981.93 787.50 L 981.92 787.51 L 946.38 870.30 L 946.32 870.43 L 898.47 981.91 L 894.05 992.19 L 830.25 964.40 L 739.93 925.06 L 739.64 924.94 L 667.84 893.67 L 597.89 863.21 L 587.26 858.44 L 590.93 848.28 L 610.51 802.35 L 610.59 802.16 L 622.00 775.54 L 622.02 775.51 L 651.05 709.86 L 651.23 709.43 L 675.47 652.28 L 705.65 581.14 L 707.03 577.90 L 731.16 521.52 L 739.30 503.96 L 739.44 503.66 L 741.69 504.66 L 805.06 530.68 L 805.58 530.89 L 891.50 568.43 L 891.61 568.48 L 961.21 598.82 L 1047.10 636.26 L 1010.90 720.03 Z "/>
<path class="zone" data-zone-id="11215847_030_02" d="M 587.26 858.44 L 586.60 858.14 L 524.74 832.17 L 423.14 789.53 L 422.44 789.23 L 293.46 732.47 L 293.42 732.45 L 255.82 715.92 L 260.53 705.55 L 271.61 681.21 L 293.71 632.62 L 294.53 630.81 L 299.34 620.14 L 318.72 577.09 L 332.09 547.40 L 386.20 427.25 L 409.32 375.90 L 416.19 362.89 L 417.34 363.39 L 577.17 432.22 L 577.39 432.31 L 659.91 467.95 L 660.48 468.21 L 739.44 503.66 L 739.30 503.96 L 731.16 521.52 L 707.03 577.90 L 705.65 581.14 L 675.47 652.28 L 651.23 709.43 L 651.05 709.86 L 622.02 775.51 L 622.00 775.54 L 610.59 802.16 L 610.51 802.35 L 590.93 848.28 L 587.26 858.44 Z "/>
<path class="zone" data-zone-id="11215847_030_00" d="M 372.55 457.55 L 363.45 477.76 L 354.35 497.97 L 339.74 530.40 L 332.09 547.40 L 318.72 577.09 L 299.34 620.14 L 294.53 630.81 L 293.71 632.62 L 271.61 681.21 L 260.53 705.55 L 255.82 715.92 L 255.77 715.90 L 154.67 670.70 L 135.57 662.16 L 107.88 649.78 L 107.88 649.77 L 205.74 434.69 L 267.34 299.31 L 267.64 298.65 L 325.96 170.47 L 329.44 162.82 L 329.44 162.82 L 353.19 172.88 L 353.39 172.96 L 355.82 173.99 L 355.82 173.99 L 355.82 173.99 L 479.88 226.54 L 479.88 226.54 L 463.64 262.07 L 423.57 349.70 L 416.53 362.28 L 416.19 362.89 L 416.19 362.89 L 409.32 375.90 L 386.20 427.25 L 375.74 450.48 L 372.55 457.55 Z M 261.01 431.92 L 265.95 421.14 L 270.14 411.99 L 270.14 411.99 L 261.01 431.92 L 261.01 431.92 L 251.67 452.29 L 251.67 452.29 L 260.90 432.14 L 261.01 431.92 Z "/>
</svg>
