<svg xmlns="http://www.w3.org/2000/svg" viewBox="0 0 1155 1155" width="1155" height="1155">
<path class="zone" data-zone-id="11215820_030_01" d="M 918.31 862.48 L 890.64 893.05 L 881.61 903.06 L 848.86 939.39 L 834.31 955.53 L 831.40 958.76 L 803.48 989.84 L 795.00 999.28 L 790.99 1006.50 L 781.23 1003.04 L 780.69 1002.85 L 780.40 1002.72 L 776.40 1001.01 L 780.68 1002.84 L 778.86 1002.20 L 775.67 1001.03 L 760.03 995.01 L 740.03 986.90 L 710.64 974.95 L 702.17 971.84 L 703.56 968.19 L 706.57 964.68 L 729.57 939.16 L 733.45 934.86 L 737.76 930.04 L 754.50 911.28 L 771.90 891.81 L 779.16 883.77 L 804.88 855.31 L 816.98 841.60 L 846.57 808.05 L 852.26 801.44 L 883.58 830.25 L 883.88 830.52 L 901.08 846.33 L 912.17 856.44 L 918.31 862.48 Z "/>
<path class="zone" data-zone-id="11215820_030_00" d="M 347.03 712.64 L 359.03 714.80 L 362.56 715.28 L 362.79 715.31 L 369.85 716.79 L 403.66 723.61 L 408.51 724.90 L 409.06 725.05 L 415.91 726.95 L 417.57 727.31 L 448.12 734.01 L 457.47 735.99 L 462.30 737.02 L 467.78 738.27 L 486.88 742.61 L 506.97 747.04 L 508.30 747.33 L 512.02 743.81 L 531.78 725.14 L 536.20 720.40 L 537.84 718.64 L 542.25 723.15 L 557.94 739.24 L 570.32 748.47 L 586.17 762.33 L 582.69 765.68 L 580.66 767.63 L 577.95 770.06 L 570.54 777.33 L 566.54 781.08 L 557.32 789.99 L 550.19 796.58 L 543.58 802.71 L 527.06 818.46 L 514.19 830.00 L 509.10 834.69 L 497.12 845.71 L 482.37 859.86 L 469.46 872.24 L 466.38 874.94 L 462.96 879.00 L 460.56 883.75 L 459.01 887.14 L 457.29 890.86 L 454.63 897.55 L 446.96 916.80 L 441.98 929.52 L 434.59 948.39 L 425.25 973.19 L 425.25 973.19 L 424.91 973.06 L 368.80 951.14 L 368.72 951.10 L 343.97 941.18 L 318.57 931.00 L 312.73 928.66 L 312.73 928.66 L 236.67 899.39 L 256.71 816.37 L 260.30 801.49 L 284.63 700.68 L 301.64 703.83 L 328.66 708.85 L 347.03 712.64 Z "/>
<path class="zone" data-zone-id="11215820_030_00" d="M 332.17 501.64 L 333.29 496.97 L 335.29 488.69 L 343.05 456.61 L 346.84 440.93 L 348.98 432.04 L 357.64 396.22 L 358.92 390.96 L 378.86 308.40 L 384.11 286.69 L 384.84 283.64 L 386.61 276.33 L 388.12 270.08 L 398.28 226.14 L 403.68 204.00 L 405.09 198.20 L 414.74 160.31 L 423.61 123.97 L 425.16 116.61 L 430.83 89.72 L 484.18 106.81 L 552.85 128.81 L 592.69 141.57 L 639.60 156.65 L 639.60 156.65 L 631.44 182.36 L 618.67 222.64 L 611.26 246.05 L 598.44 286.59 L 598.34 286.91 L 583.32 334.37 L 583.24 334.63 L 576.00 357.51 L 569.32 378.65 L 568.17 382.20 L 567.99 382.75 L 567.62 383.89 L 555.82 420.50 L 555.63 421.09 L 547.97 444.83 L 547.95 444.90 L 545.21 453.40 L 545.01 454.03 L 523.97 518.90 L 523.71 519.73 L 522.18 524.58 L 510.30 562.28 L 510.17 562.68 L 509.78 563.95 L 509.63 564.40 L 496.67 605.46 L 496.56 605.81 L 487.41 634.77 L 477.39 666.56 L 477.01 667.89 L 460.95 723.21 L 458.47 732.31 L 457.47 735.99 L 448.12 734.01 L 415.91 726.95 L 409.06 725.05 L 408.51 724.90 L 403.66 723.61 L 369.85 716.79 L 362.79 715.31 L 362.56 715.28 L 359.03 714.80 L 347.03 712.64 L 328.66 708.85 L 301.64 703.83 L 284.63 700.68 L 284.69 700.44 L 320.10 552.82 L 319.82 552.75 L 322.99 539.63 L 330.99 506.50 L 332.17 501.64 Z M 543.39 256.64 L 557.34 261.11 L 557.44 261.14 L 557.44 261.14 L 543.39 256.64 Z M 529.08 252.06 L 543.26 256.60 L 543.39 256.64 L 529.08 252.06 L 529.08 252.06 Z M 507.28 322.49 L 521.34 326.98 L 521.34 326.98 L 507.28 322.49 L 507.28 322.49 Z M 521.34 326.98 L 535.65 331.55 L 535.65 331.55 L 521.47 327.02 L 521.34 326.98 L 521.34 326.98 Z "/>
<path class="zone" data-zone-id="11215820_030_04" d="M 639.60 156.65 L 639.64 156.66 L 700.54 176.23 L 792.48 205.76 L 907.95 242.84 L 908.14 242.90 L 901.13 267.19 L 894.45 290.31 L 873.80 300.64 L 859.92 308.66 L 853.87 313.78 L 834.68 325.89 L 834.40 326.07 L 829.04 329.65 L 828.33 330.12 L 821.24 334.94 L 814.46 337.55 L 803.69 342.79 L 794.98 349.51 L 784.34 358.72 L 780.36 360.32 L 767.83 364.22 L 762.49 365.47 L 754.87 367.24 L 704.35 377.57 L 703.44 377.74 L 686.38 381.01 L 674.90 382.12 L 668.28 382.67 L 663.13 382.35 L 659.09 381.02 L 657.57 380.52 L 653.15 379.06 L 640.20 379.44 L 596.20 381.41 L 576.92 382.04 L 574.82 382.08 L 568.42 382.19 L 568.17 382.20 L 569.32 378.65 L 576.00 357.51 L 583.24 334.63 L 583.32 334.37 L 598.34 286.91 L 598.44 286.59 L 611.26 246.05 L 618.67 222.64 L 631.44 182.36 L 639.60 156.65 Z "/>
<path class="zone" data-zone-id="11215820_030_05" d="M 550.60 704.97 L 550.95 704.59 L 555.25 686.28 L 557.88 674.11 L 559.63 671.12 L 560.94 668.88 L 563.19 665.40 L 580.52 659.68 L 622.60 646.49 L 637.74 641.75 L 676.96 629.46 L 677.29 629.35 L 710.83 618.88 L 712.97 625.37 L 714.66 630.50 L 722.04 654.21 L 733.41 690.50 L 734.00 691.53 L 735.31 693.01 L 730.81 697.78 L 728.39 700.35 L 717.32 712.49 L 704.94 726.84 L 702.71 729.44 L 689.31 744.32 L 683.66 750.77 L 677.55 757.75 L 662.16 774.09 L 655.36 781.76 L 641.84 797.02 L 634.60 805.10 L 628.56 799.41 L 586.17 762.33 L 570.32 748.47 L 557.94 739.24 L 542.25 723.15 L 537.84 718.64 L 550.60 704.97 Z "/>
<path class="zone" data-zone-id="11215820_030_06" d="M 735.31 693.01 L 737.82 695.83 L 738.48 696.61 L 740.29 698.73 L 750.38 708.00 L 765.53 721.85 L 765.75 722.06 L 782.20 737.11 L 800.43 753.81 L 801.03 754.37 L 796.84 759.16 L 790.62 765.95 L 775.20 782.58 L 764.95 793.28 L 757.28 801.27 L 742.83 817.22 L 717.55 845.12 L 700.79 863.80 L 699.01 865.79 L 696.09 863.05 L 638.22 808.51 L 634.60 805.10 L 641.84 797.02 L 655.36 781.76 L 662.16 774.09 L 677.55 757.75 L 683.66 750.77 L 689.31 744.32 L 702.71 729.44 L 704.94 726.84 L 717.32 712.49 L 728.39 700.35 L 730.81 697.78 L 735.31 693.01 Z "/>
<path class="zone" data-zone-id="11215820_030_07" d="M 771.90 891.81 L 754.50 911.28 L 737.76 930.04 L 733.45 934.86 L 729.57 939.16 L 706.57 964.68 L 703.56 968.19 L 702.17 971.84 L 687.55 1010.17 L 671.89 1051.21 L 666.51 1065.31 L 666.51 1065.31 L 653.14 1060.42 L 594.00 1037.20 L 593.93 1037.17 L 590.68 1035.85 L 555.41 1021.60 L 513.82 1006.93 L 510.70 1005.83 L 504.58 1003.51 L 490.80 998.29 L 451.84 983.53 L 425.25 973.19 L 425.25 973.19 L 425.25 973.19 L 434.59 948.39 L 441.98 929.52 L 446.96 916.80 L 454.63 897.55 L 457.29 890.86 L 459.01 887.14 L 460.56 883.75 L 462.96 879.00 L 466.38 874.94 L 469.46 872.24 L 482.37 859.86 L 497.12 845.71 L 509.10 834.69 L 514.19 830.00 L 527.06 818.46 L 543.58 802.71 L 550.19 796.58 L 557.32 789.99 L 566.54 781.08 L 570.54 777.33 L 577.95 770.06 L 580.66 767.63 L 582.69 765.68 L 586.17 762.33 L 628.56 799.41 L 634.60 805.10 L 638.22 808.51 L 696.09 863.05 L 699.01 865.79 L 700.79 863.80 L 717.55 845.12 L 742.83 817.22 L 757.28 801.27 L 764.95 793.28 L 775.20 782.58 L 790.62 765.95 L 796.84 759.16 L 801.03 754.37 L 852.26 801.44 L 846.57 808.05 L 816.98 841.60 L 804.88 855.31 L 779.16 883.77 L 771.90 891.81 Z "/>
</svg>
