<svg xmlns="http://www.w3.org/2000/svg" viewBox="0 0 1155 1155" width="1155" height="1155">
<path class="zone" data-zone-id="11215810_040_00" d="M 774.07 163.86 L 760.83 204.55 L 749.69 236.80 L 736.35 275.20 L 728.48 297.97 L 724.94 308.05 L 721.14 319.07 L 720.73 319.90 L 720.14 320.96 L 716.20 327.43 L 711.79 333.97 L 625.84 486.28 L 538.61 638.62 L 538.54 642.03 L 537.44 650.71 L 537.36 651.37 L 537.33 652.06 L 537.30 652.76 L 533.77 836.62 L 531.75 935.29 L 531.49 947.86 L 531.27 958.64 L 530.57 959.88 L 522.61 973.89 L 503.86 1010.14 L 466.43 1082.30 L 466.43 1082.30 L 466.38 1082.28 L 351.71 1036.54 L 351.72 1036.52 L 356.49 1028.78 L 366.90 1011.90 L 381.95 974.20 L 429.40 855.27 L 438.92 831.41 L 439.99 828.73 L 567.96 469.82 L 641.23 206.05 L 669.83 72.70 L 669.84 72.70 L 677.50 72.73 L 681.77 72.75 L 713.17 73.62 L 741.89 75.03 L 787.92 78.41 L 803.30 79.55 L 774.07 163.86 Z "/>
</svg>
