<svg xmlns="http://www.w3.org/2000/svg" viewBox="0 0 1155 1155" width="1155" height="1155">
<path class="zone" data-zone-id="11215840_040_01" d="M 869.14 1060.37 L 845.45 1053.10 L 838.18 1050.85 L 834.69 1050.24 L 833.04 1049.96 L 788.17 1042.14 L 782.40 1041.14 L 773.23 1039.55 L 760.43 1037.30 L 741.29 1033.99 L 711.20 1028.73 L 700.42 1026.86 L 697.88 1026.43 L 696.75 1026.24 L 691.13 1025.25 L 680.44 1023.41 L 673.71 1022.25 L 670.34 1021.66 L 661.91 1020.20 L 628.30 1014.36 L 599.86 1009.42 L 588.87 1007.54 L 572.29 1004.67 L 555.30 1001.73 L 529.28 997.23 L 520.97 995.76 L 484.59 967.81 L 450.81 941.89 L 412.56 911.58 L 408.44 908.05 L 315.68 866.89 L 222.58 853.73 L 221.65 853.59 L 221.44 853.52 L 215.07 850.84 L 85.08 787.47 L 78.97 784.49 L 341.90 93.98 L 341.91 93.95 L 525.43 150.13 L 633.91 183.33 L 775.53 231.29 L 951.65 290.94 L 987.30 303.01 L 1010.49 311.51 L 1076.04 335.55 L 1076.03 335.57 L 1064.97 331.52 L 1064.69 332.58 L 1063.06 338.70 L 871.35 1061.05 L 871.10 1060.97 L 869.14 1060.37 Z "/>
</svg>
