<svg xmlns="http://www.w3.org/2000/svg" viewBox="0 0 1155 1155" width="1155" height="1155">
<path class="zone" data-zone-id="11215810_090_00" d="M 280.91 969.61 L 202.72 875.71 L 195.33 865.55 L 180.12 839.41 L 169.06 810.50 L 164.23 787.76 L 165.13 774.86 L 189.06 754.40 L 216.25 731.74 L 246.60 710.97 L 253.95 707.97 L 327.61 693.37 L 345.03 684.94 L 419.37 893.47 L 310.05 944.04 L 310.43 948.59 L 280.91 969.61 Z "/>
<path class="zone" data-zone-id="11215810_090_01" d="M 161.89 852.08 L 142.03 828.40 L 137.06 822.75 L 137.06 822.75 L 137.06 822.75 L 156.66 784.84 L 158.22 780.78 L 165.13 774.86 L 164.23 787.76 L 169.06 810.50 L 180.12 839.41 L 195.33 865.55 L 202.72 875.71 L 280.91 969.61 L 310.43 948.59 L 310.05 944.04 L 419.37 893.47 L 345.03 684.94 L 434.94 641.44 L 488.83 603.89 L 528.28 580.20 L 569.42 536.51 L 621.20 458.51 L 756.96 396.14 L 766.15 329.15 L 777.17 316.77 L 777.61 317.52 L 784.36 320.66 L 792.43 322.77 L 856.90 306.18 L 907.83 286.64 L 952.17 257.98 L 958.32 255.40 L 994.88 240.06 L 985.79 279.07 L 968.93 345.45 L 957.85 389.11 L 944.76 440.62 L 944.75 440.66 L 925.37 516.87 L 908.36 583.13 L 899.38 618.50 L 892.68 645.37 L 878.52 697.23 L 870.08 719.57 L 859.43 742.58 L 850.62 759.03 L 847.67 764.25 L 846.08 767.06 L 834.90 783.02 L 819.50 800.99 L 797.75 823.90 L 783.43 838.14 L 764.87 856.03 L 743.99 873.19 L 715.05 890.65 L 706.13 894.40 L 703.01 895.19 L 689.27 898.71 L 632.04 905.22 L 605.77 908.08 L 569.70 912.01 L 557.64 913.53 L 543.83 915.96 L 529.41 920.03 L 509.22 928.43 L 490.01 936.74 L 472.37 946.33 L 447.99 960.32 L 431.09 970.71 L 422.71 976.34 L 411.15 984.11 L 395.61 996.03 L 361.62 1024.60 L 358.88 1026.84 L 356.84 1028.51 L 352.20 1032.60 L 329.20 1052.92 L 306.33 1024.50 L 227.78 930.62 L 161.89 852.08 Z "/>
<path class="zone" data-zone-id="11215810_090_02" d="M 777.17 316.77 L 870.51 212.06 L 914.30 162.21 L 934.21 140.36 L 974.61 102.08 L 1014.15 152.03 L 1014.49 152.47 L 1017.95 131.69 L 1009.70 181.26 L 997.88 227.22 L 994.88 240.06 L 958.32 255.40 L 952.17 257.98 L 907.83 286.64 L 856.90 306.18 L 792.43 322.77 L 784.36 320.66 L 777.61 317.52 L 777.17 316.77 Z "/>
</svg>
