<svg xmlns="http://www.w3.org/2000/svg" viewBox="0 0 1155 1155" width="1155" height="1155">
<path class="zone" data-zone-id="11215810_060_00" d="M 718.32 543.49 L 705.02 546.13 L 704.69 548.59 L 693.51 632.14 L 687.51 652.98 L 681.42 674.11 L 666.77 709.78 L 641.31 757.02 L 577.52 788.04 L 578.54 789.82 L 602.97 811.14 L 623.26 846.02 L 581.88 868.29 L 461.20 923.29 L 317.12 981.41 L 302.03 975.70 L 115.14 608.45 L 115.14 608.45 L 126.40 600.95 L 146.11 585.58 L 202.60 539.82 L 256.08 492.92 L 304.62 450.52 L 344.09 411.47 L 375.97 379.55 L 392.71 356.23 L 416.28 323.89 L 462.48 260.42 L 488.42 216.58 L 499.95 197.07 L 542.63 218.49 L 514.95 262.41 L 502.19 312.52 L 512.88 347.07 L 508.75 362.09 L 513.72 363.84 L 541.27 356.33 L 549.28 344.33 L 586.19 348.25 L 614.72 351.30 L 640.27 401.05 L 688.60 437.76 L 727.95 486.15 L 729.42 487.96 L 722.66 521.77 L 718.32 543.49 Z "/>
<path class="zone" data-zone-id="11215810_060_01" d="M 931.59 382.81 L 951.88 434.40 L 920.47 479.81 L 930.85 487.21 L 883.02 556.54 L 841.49 538.00 L 839.19 539.32 L 826.58 560.79 L 742.00 529.03 L 711.36 517.53 L 722.66 521.77 L 729.42 487.96 L 688.60 437.76 L 640.27 401.05 L 614.72 351.30 L 586.19 348.25 L 570.33 346.57 L 541.73 393.91 L 613.92 274.40 L 627.92 251.23 L 843.65 344.71 L 890.78 365.13 L 931.59 382.81 Z "/>
<path class="zone" data-zone-id="11215810_060_02" d="M 302.03 975.70 L 317.12 981.41 L 461.20 923.29 L 581.88 868.29 L 623.26 846.02 L 602.97 811.14 L 578.54 789.82 L 577.52 788.04 L 641.31 757.02 L 666.77 709.78 L 681.42 674.11 L 687.51 652.98 L 693.51 632.14 L 704.69 548.59 L 705.02 546.13 L 718.32 543.49 L 722.66 521.77 L 742.00 529.03 L 826.58 560.79 L 839.19 539.32 L 841.49 538.00 L 883.02 556.54 L 930.85 487.21 L 920.47 479.81 L 951.88 434.40 L 931.59 382.81 L 890.78 365.13 L 843.65 344.71 L 627.92 251.23 L 613.92 274.40 L 570.33 346.57 L 549.28 344.33 L 541.27 356.33 L 513.72 363.84 L 508.75 362.09 L 512.88 347.07 L 502.19 312.52 L 514.95 262.41 L 542.63 218.49 L 499.95 197.07 L 520.30 162.67 L 562.44 181.55 L 591.56 194.59 L 601.16 198.89 L 654.64 222.85 L 669.10 228.64 L 807.81 284.23 L 1009.05 364.87 L 1039.89 375.64 L 1037.05 379.61 L 1035.05 382.40 L 1031.57 387.27 L 1025.75 395.39 L 1019.66 403.91 L 974.25 467.33 L 881.01 595.65 L 810.76 692.33 L 790.45 719.53 L 775.06 736.94 L 695.97 808.38 L 593.84 872.40 L 483.22 921.42 L 372.89 966.64 L 372.39 966.84 L 310.48 992.30 L 302.03 975.70 Z "/>
</svg>
