<svg xmlns="http://www.w3.org/2000/svg" viewBox="0 0 1155 1155" width="1155" height="1155">
<path class="zone" data-zone-id="11215730_050_00" d="M 274.06 1008.35 L 276.75 1013.08 L 280.72 1018.83 L 291.70 1036.94 L 259.47 1033.41 L 250.08 1032.37 L 224.41 1030.31 L 238.57 998.92 L 270.33 1001.79 L 274.06 1008.35 Z "/>
<path class="zone" data-zone-id="11215730_050_01" d="M 536.45 331.86 L 552.06 297.54 L 584.90 225.40 L 584.90 225.39 L 585.02 225.14 L 626.37 134.27 L 654.37 72.74 L 654.51 72.80 L 654.98 73.03 L 637.52 110.38 L 626.66 134.41 L 626.36 135.08 L 614.29 161.79 L 598.03 198.23 L 585.94 225.61 L 585.86 225.77 L 585.84 225.82 L 585.84 225.83 L 553.09 298.03 L 545.76 314.18 L 537.56 331.85 L 531.36 345.21 L 531.35 345.23 L 509.27 392.81 L 502.02 408.86 L 476.38 465.66 L 473.42 472.06 L 473.41 472.08 L 472.72 473.58 L 472.71 473.60 L 472.34 473.44 L 472.13 473.90 L 470.61 477.24 L 470.52 477.42 L 470.49 477.48 L 466.80 485.60 L 466.52 486.21 L 466.49 486.27 L 459.40 501.85 L 459.37 501.91 L 444.39 534.80 L 443.72 536.29 L 443.70 536.33 L 425.46 576.37 L 411.68 606.65 L 408.75 613.08 L 407.68 615.43 L 407.67 615.45 L 407.65 615.49 L 399.12 634.23 L 395.90 641.29 L 395.89 641.31 L 395.88 641.33 L 395.86 641.39 L 368.89 700.60 L 357.20 726.29 L 345.32 752.38 L 345.29 752.45 L 342.70 758.10 L 342.55 758.44 L 320.33 807.10 L 320.32 807.12 L 320.30 807.16 L 319.35 809.24 L 317.28 813.78 L 314.91 818.95 L 306.71 836.92 L 305.48 839.59 L 305.48 839.61 L 305.46 839.65 L 298.40 855.10 L 297.13 857.87 L 296.60 859.03 L 296.58 859.07 L 294.31 864.02 L 285.70 882.90 L 286.14 883.10 L 286.16 883.11 L 296.35 887.92 L 311.16 894.90 L 313.34 896.31 L 316.75 898.51 L 322.93 901.29 L 321.51 904.52 L 307.70 935.98 L 298.19 956.54 L 298.08 956.77 L 291.33 971.41 L 285.86 982.78 L 285.39 983.63 L 283.29 985.50 L 282.61 986.43 L 282.16 987.57 L 284.45 993.51 L 285.47 995.74 L 298.14 1023.41 L 303.96 1036.01 L 304.56 1038.92 L 304.58 1039.05 L 304.74 1041.23 L 304.56 1043.56 L 303.53 1051.80 L 301.99 1064.12 L 301.99 1064.12 L 280.89 1060.90 L 280.89 1060.90 L 261.98 1058.02 L 261.98 1058.02 L 257.64 1057.36 L 239.00 1054.53 L 239.00 1054.53 L 231.29 1053.36 L 225.46 1052.38 L 225.46 1052.38 L 225.25 1052.35 L 221.54 1051.72 L 221.54 1051.72 L 208.74 1054.09 L 208.47 1054.14 L 208.44 1054.15 L 206.89 1054.43 L 206.89 1054.43 L 206.89 1054.43 L 206.89 1054.43 L 206.90 1054.43 L 206.90 1054.42 L 207.06 1054.07 L 207.08 1054.01 L 215.12 1036.49 L 229.58 1004.93 L 260.07 938.41 L 285.54 882.82 L 285.54 882.81 L 285.69 882.50 L 296.38 859.16 L 305.37 839.56 L 309.69 830.11 L 320.19 807.05 L 342.51 758.01 L 342.51 758.00 L 395.66 641.21 L 407.44 615.33 L 463.13 492.95 L 472.07 473.32 L 472.78 471.76 L 530.53 344.87 L 530.54 344.85 L 536.45 331.86 Z M 238.57 998.92 L 224.41 1030.31 L 250.08 1032.37 L 259.47 1033.41 L 291.70 1036.94 L 280.72 1018.83 L 276.75 1013.08 L 274.06 1008.35 L 270.33 1001.79 L 238.57 998.92 Z "/>
<path class="zone" data-zone-id="11215730_050_02" d="M 655.00 73.03 L 655.26 72.48 L 655.26 72.48 L 681.64 85.65 L 681.64 85.65 L 704.75 97.19 L 705.12 97.38 L 705.12 97.38 L 705.12 97.38 L 705.16 97.40 L 696.94 116.30 L 696.94 116.30 L 687.91 134.68 L 676.87 158.29 L 676.81 158.43 L 676.57 158.29 L 670.73 154.98 L 653.97 147.45 L 640.91 141.21 L 626.66 134.41 L 637.52 110.38 L 654.98 73.03 L 655.00 73.03 Z "/>
<path class="zone" data-zone-id="11215730_050_03" d="M 705.16 97.40 L 743.02 116.09 L 747.11 118.12 L 747.11 118.12 L 747.32 118.22 L 791.70 140.14 L 791.84 140.21 L 791.84 140.21 L 792.30 140.44 L 783.77 159.24 L 773.58 181.73 L 765.16 199.96 L 765.52 202.73 L 765.54 202.87 L 764.75 202.51 L 748.66 194.65 L 748.62 194.63 L 740.90 190.85 L 719.85 180.29 L 719.77 180.25 L 703.73 172.10 L 703.55 172.01 L 700.59 170.50 L 682.70 161.74 L 676.81 158.43 L 676.87 158.29 L 687.91 134.68 L 696.94 116.30 L 696.94 116.30 L 705.16 97.40 Z "/>
<path class="zone" data-zone-id="11215730_050_04" d="M 829.05 158.59 L 884.15 185.80 L 948.11 217.39 L 884.15 185.80 L 884.15 185.81 L 876.97 202.11 L 863.07 233.52 L 859.30 242.04 L 856.71 247.83 L 852.12 245.65 L 839.90 239.82 L 827.38 233.39 L 827.07 233.23 L 812.60 225.86 L 808.18 223.63 L 794.52 216.75 L 790.45 214.84 L 790.30 214.77 L 772.60 206.05 L 765.54 202.87 L 765.52 202.73 L 765.16 199.96 L 773.58 181.73 L 783.77 159.24 L 792.30 140.44 L 829.05 158.58 L 829.05 158.59 Z "/>
<path class="zone" data-zone-id="11215730_050_05" d="M 376.22 774.37 L 393.41 782.00 L 402.70 786.13 L 403.05 786.29 L 412.11 790.68 L 412.51 790.87 L 418.15 793.84 L 417.14 795.77 L 414.85 800.14 L 409.65 810.41 L 403.05 824.75 L 403.02 824.82 L 397.31 837.09 L 392.70 847.00 L 382.35 869.28 L 380.56 873.11 L 380.29 873.68 L 377.62 879.42 L 370.43 894.81 L 367.49 901.36 L 361.17 915.43 L 360.11 917.81 L 360.10 920.89 L 360.08 929.49 L 339.56 937.47 L 332.70 940.15 L 321.57 963.67 L 320.41 966.10 L 319.82 965.84 L 317.38 964.76 L 302.28 958.29 L 298.19 956.54 L 307.70 935.98 L 321.51 904.52 L 322.93 901.29 L 316.75 898.51 L 313.34 896.31 L 311.16 894.90 L 296.35 887.92 L 286.16 883.11 L 286.14 883.10 L 285.70 882.90 L 294.31 864.02 L 296.58 859.07 L 296.60 859.03 L 297.13 857.87 L 298.40 855.10 L 305.46 839.65 L 305.48 839.61 L 305.48 839.59 L 306.71 836.92 L 314.91 818.95 L 317.28 813.78 L 319.35 809.24 L 320.30 807.16 L 320.32 807.12 L 320.33 807.10 L 342.55 758.44 L 342.70 758.10 L 342.88 758.18 L 342.90 758.19 L 352.77 763.03 L 371.89 772.40 L 375.81 774.19 L 376.22 774.37 Z "/>
<path class="zone" data-zone-id="11215730_050_00" d="M 436.79 803.29 L 444.15 807.01 L 450.29 809.94 L 458.82 813.94 L 459.87 814.33 L 461.10 814.61 L 461.74 814.67 L 466.57 815.10 L 466.12 821.27 L 465.30 826.74 L 465.26 827.00 L 462.73 841.89 L 461.09 850.85 L 458.47 865.17 L 456.33 876.85 L 454.06 889.77 L 446.80 931.03 L 445.02 941.15 L 442.36 956.81 L 436.69 953.97 L 417.96 944.61 L 413.07 942.62 L 412.94 942.57 L 407.18 939.80 L 405.90 939.18 L 399.47 936.09 L 395.32 934.09 L 383.35 928.53 L 381.70 927.76 L 381.58 927.71 L 375.05 924.48 L 374.91 924.41 L 360.11 917.81 L 361.17 915.43 L 367.49 901.36 L 370.43 894.81 L 377.62 879.42 L 380.29 873.68 L 380.56 873.11 L 382.35 869.28 L 392.70 847.00 L 397.31 837.09 L 403.02 824.82 L 403.05 824.75 L 409.65 810.41 L 414.85 800.14 L 417.14 795.77 L 418.15 793.84 L 428.39 799.23 L 428.55 799.31 L 436.79 803.29 Z "/>
<path class="zone" data-zone-id="11215730_050_00" d="M 384.09 1070.31 L 352.46 1065.66 L 352.90 1058.98 L 352.92 1058.75 L 349.43 1042.72 L 348.64 1037.40 L 349.35 1032.77 L 345.84 1033.41 L 344.16 1033.71 L 346.89 1016.41 L 356.89 1018.15 L 358.58 1006.86 L 369.23 1016.40 L 373.85 1017.22 L 381.73 1018.61 L 384.11 1019.04 L 391.86 1020.41 L 390.07 1032.53 L 389.11 1039.06 L 388.03 1046.60 L 386.67 1053.64 L 384.09 1070.29 L 384.09 1070.31 Z M 384.09 1070.29 L 376.28 1069.16 L 376.24 1069.15 L 384.09 1070.29 Z "/>
<path class="zone" data-zone-id="11215730_050_01" d="M 384.12 1011.09 L 385.58 1001.94 L 386.23 997.88 L 394.98 989.42 L 402.45 991.34 L 422.17 996.42 L 427.01 997.67 L 432.63 1005.99 L 431.52 1012.17 L 430.89 1015.69 L 425.19 1047.44 L 424.56 1050.90 L 424.09 1053.51 L 423.84 1054.93 L 422.98 1056.85 L 423.11 1059.44 L 421.84 1065.74 L 410.24 1074.09 L 393.16 1071.61 L 368.27 1068.00 L 370.91 1050.90 L 368.27 1067.98 L 376.24 1069.15 L 384.09 1070.29 L 386.67 1053.64 L 388.03 1046.60 L 389.11 1039.06 L 390.07 1032.53 L 391.86 1020.41 L 381.73 1018.61 L 379.87 1018.28 L 379.87 1018.30 L 380.39 1014.88 L 383.43 1015.47 L 384.12 1011.09 Z "/>
<path class="zone" data-zone-id="11215730_050_02" d="M 433.80 1007.14 L 424.49 1059.23 L 422.18 1070.02 L 419.39 1082.53 L 418.65 1082.42 L 370.62 1074.93 L 355.33 1072.54 L 352.03 1072.02 L 352.46 1065.66 L 368.27 1067.98 L 368.27 1068.00 L 376.24 1069.15 L 384.09 1070.31 L 384.09 1070.29 L 393.16 1071.61 L 410.24 1074.09 L 421.84 1065.74 L 423.11 1059.44 L 422.98 1056.85 L 423.84 1054.93 L 424.09 1053.51 L 424.56 1050.90 L 425.19 1047.44 L 430.89 1015.69 L 431.52 1012.17 L 432.63 1005.99 L 427.01 997.67 L 422.17 996.42 L 402.45 991.34 L 394.98 989.42 L 386.23 997.88 L 385.58 1001.94 L 384.12 1011.09 L 383.43 1015.47 L 380.39 1014.88 L 379.87 1018.28 L 373.85 1017.22 L 369.23 1016.40 L 358.58 1006.86 L 356.89 1018.15 L 346.89 1016.41 L 344.16 1033.71 L 338.01 1034.83 L 332.77 1035.44 L 324.28 1018.24 L 322.97 1015.38 L 322.81 1015.05 L 322.69 1014.78 L 327.21 1007.98 L 329.53 1002.54 L 331.69 997.43 L 340.95 975.56 L 340.91 975.54 L 324.60 967.96 L 320.41 966.10 L 321.57 963.67 L 332.70 940.15 L 339.56 937.47 L 360.08 929.49 L 360.10 920.89 L 360.11 917.81 L 375.05 924.48 L 381.58 927.71 L 381.70 927.76 L 395.32 934.09 L 412.94 942.57 L 413.07 942.62 L 417.96 944.61 L 436.69 953.97 L 442.36 956.81 L 438.59 979.05 L 434.30 1004.35 L 433.80 1007.14 Z "/>
<path class="zone" data-zone-id="11215730_050_08" d="M 302.12 1064.14 L 302.12 1064.14 L 301.99 1064.12 L 301.99 1064.12 L 303.53 1051.80 L 304.56 1043.56 L 304.74 1041.23 L 304.58 1039.05 L 304.56 1038.92 L 303.96 1036.01 L 298.14 1023.41 L 285.47 995.74 L 284.45 993.51 L 282.16 987.57 L 282.61 986.43 L 283.29 985.50 L 285.39 983.63 L 285.86 982.78 L 291.33 971.41 L 298.08 956.77 L 298.19 956.54 L 302.28 958.29 L 317.38 964.76 L 319.82 965.84 L 320.41 966.10 L 324.60 967.96 L 340.91 975.54 L 340.95 975.56 L 331.69 997.43 L 329.53 1002.54 L 327.21 1007.98 L 322.69 1014.78 L 322.81 1015.05 L 322.97 1015.38 L 324.28 1018.24 L 332.77 1035.44 L 338.01 1034.83 L 345.84 1033.41 L 349.35 1032.77 L 348.64 1037.40 L 349.43 1042.72 L 352.92 1058.75 L 352.90 1058.98 L 352.03 1072.02 L 320.84 1067.10 L 302.12 1064.14 Z "/>
</svg>
