<svg xmlns="http://www.w3.org/2000/svg" viewBox="0 0 1155 1155" width="1155" height="1155">
<path class="zone" data-zone-id="11215740_050_00" d="M 693.68 919.48 L 695.09 916.60 L 702.64 901.21 L 712.70 880.69 L 734.94 891.88 L 773.26 911.45 L 773.30 911.47 L 777.13 913.39 L 765.83 936.50 L 758.47 951.56 L 756.60 955.39 L 747.45 974.12 L 733.32 1003.02 L 668.46 970.92 L 682.54 942.20 L 687.02 933.08 L 691.82 923.28 L 693.68 919.48 Z "/>
<path class="zone" data-zone-id="11215740_050_01" d="M 660.96 950.57 L 692.34 882.88 L 695.74 872.32 L 705.50 877.06 L 712.70 880.69 L 702.64 901.21 L 695.09 916.60 L 693.68 919.48 L 691.82 923.28 L 687.02 933.08 L 682.54 942.20 L 668.46 970.92 L 733.32 1003.02 L 747.45 974.12 L 756.60 955.39 L 758.47 951.56 L 765.83 936.50 L 777.13 913.39 L 789.33 919.49 L 799.93 924.61 L 804.21 926.68 L 804.46 926.80 L 833.20 940.52 L 849.37 948.45 L 853.85 950.64 L 855.03 951.18 L 863.22 955.19 L 846.21 993.47 L 822.11 1047.71 L 813.99 1066.19 L 713.78 1016.69 L 713.78 1016.69 L 646.95 983.69 L 646.12 983.27 L 646.12 983.27 L 645.86 983.15 L 645.86 983.15 L 660.96 950.57 Z "/>
<path class="zone" data-zone-id="11215740_050_02" d="M 396.38 860.70 L 396.13 860.58 L 291.79 806.98 L 340.66 831.49 L 396.84 859.65 L 396.85 859.66 L 397.38 859.92 L 397.72 860.09 L 397.74 860.06 L 401.84 851.28 L 447.18 750.58 L 447.21 750.60 L 472.73 762.40 L 475.29 763.59 L 495.50 773.32 L 527.96 788.93 L 537.92 794.78 L 518.42 838.16 L 518.21 838.63 L 508.01 861.31 L 504.56 869.07 L 503.06 872.28 L 500.85 877.02 L 487.74 905.05 L 487.74 905.05 L 445.72 884.06 L 445.72 884.06 L 397.75 860.11 L 397.75 860.11 L 397.28 861.12 L 397.25 861.11 L 396.38 860.70 Z "/>
<path class="zone" data-zone-id="11215740_050_03" d="M 447.18 750.58 L 447.19 750.55 L 473.13 692.94 L 494.43 646.90 L 512.64 607.48 L 512.68 607.50 L 538.80 617.87 L 541.08 618.77 L 564.81 629.32 L 605.24 647.35 L 586.75 687.83 L 572.97 718.01 L 572.92 718.11 L 565.85 733.63 L 557.36 752.24 L 537.92 794.78 L 527.96 788.93 L 495.50 773.32 L 475.29 763.59 L 472.73 762.40 L 447.21 750.60 L 447.18 750.58 Z "/>
<path class="zone" data-zone-id="11215740_050_04" d="M 512.64 607.48 L 512.66 607.45 L 553.41 519.26 L 578.63 463.78 L 578.67 463.79 L 597.98 471.68 L 600.76 472.81 L 623.94 482.36 L 635.54 487.14 L 661.87 497.89 L 671.20 502.57 L 669.77 506.30 L 655.67 537.12 L 639.91 571.97 L 637.81 576.60 L 637.73 576.78 L 623.66 607.00 L 621.67 611.27 L 605.24 647.35 L 564.81 629.32 L 541.08 618.77 L 538.80 617.87 L 512.68 607.50 L 512.64 607.48 Z "/>
<path class="zone" data-zone-id="11215740_050_00" d="M 687.67 401.27 L 680.16 417.77 L 671.19 437.47 L 610.42 409.84 L 646.47 330.73 L 707.48 358.07 L 695.14 384.86 L 687.67 401.27 Z "/>
<path class="zone" data-zone-id="11215740_050_01" d="M 578.65 463.74 L 617.32 378.70 L 661.39 281.63 L 661.43 281.64 L 680.65 290.00 L 683.02 291.03 L 709.10 302.64 L 753.85 322.42 L 729.08 376.69 L 714.21 409.29 L 698.38 443.81 L 695.85 449.33 L 695.85 449.34 L 684.00 475.26 L 672.93 498.87 L 671.20 502.57 L 661.87 497.89 L 635.54 487.14 L 623.94 482.36 L 600.76 472.81 L 597.98 471.68 L 578.67 463.79 L 578.63 463.78 L 578.65 463.74 Z M 707.48 358.07 L 646.47 330.73 L 610.42 409.84 L 671.19 437.47 L 680.16 417.77 L 687.67 401.27 L 695.14 384.86 L 707.48 358.07 Z "/>
<path class="zone" data-zone-id="11215740_050_06" d="M 661.39 281.63 L 661.41 281.60 L 680.41 239.75 L 683.24 233.63 L 750.04 89.50 L 750.33 88.84 L 750.37 88.85 L 769.60 95.19 L 775.92 97.28 L 842.04 118.78 L 845.89 120.05 L 837.53 137.53 L 835.86 141.36 L 822.37 170.95 L 821.99 171.79 L 805.34 208.60 L 805.24 208.83 L 801.30 217.67 L 792.31 237.84 L 790.66 241.56 L 775.13 275.52 L 775.02 275.76 L 767.19 293.22 L 756.65 316.41 L 753.85 322.42 L 709.10 302.64 L 683.02 291.03 L 680.65 290.00 L 661.43 281.64 L 661.39 281.63 Z "/>
<path class="zone" data-zone-id="11215740_050_07" d="M 645.86 983.15 L 645.86 983.15 L 565.15 943.29 L 564.78 943.10 L 564.78 943.10 L 557.33 939.43 L 488.49 905.43 L 488.43 905.39 L 488.42 905.39 L 488.42 905.39 L 487.74 905.05 L 487.74 905.05 L 500.85 877.02 L 503.06 872.28 L 504.56 869.07 L 508.01 861.31 L 518.21 838.63 L 518.42 838.16 L 537.92 794.78 L 557.36 752.24 L 565.85 733.63 L 572.92 718.11 L 572.97 718.01 L 577.92 720.29 L 591.25 726.42 L 601.14 730.82 L 601.23 730.86 L 610.90 735.33 L 621.14 740.26 L 621.53 740.46 L 637.26 748.22 L 648.76 753.92 L 649.13 754.09 L 653.03 755.84 L 656.92 757.97 L 657.02 758.01 L 689.56 773.93 L 730.33 794.27 L 730.58 794.39 L 728.78 798.35 L 726.03 804.37 L 697.91 865.61 L 695.74 872.32 L 692.34 882.88 L 660.96 950.57 L 645.86 983.15 Z "/>
</svg>
