<svg xmlns="http://www.w3.org/2000/svg" viewBox="0 0 1155 1155" width="1155" height="1155">
<path class="zone" data-zone-id="11215830_090_01" d="M 331.43 792.35 L 308.19 783.69 L 295.19 778.67 L 271.41 769.50 L 259.31 764.69 L 255.56 763.31 L 255.59 763.23 L 262.65 745.18 L 269.79 726.87 L 270.01 726.30 L 282.12 695.89 L 285.56 687.30 L 293.32 689.50 L 308.28 695.32 L 319.38 699.72 L 328.64 703.25 L 329.90 703.73 L 331.40 704.30 L 344.40 709.26 L 358.48 714.61 L 359.00 714.81 L 377.60 721.98 L 391.56 727.14 L 394.49 728.22 L 395.19 728.50 L 411.76 734.97 L 436.65 745.43 L 434.02 752.30 L 409.39 814.47 L 407.15 820.11 L 405.09 819.71 L 403.25 819.35 L 392.48 815.94 L 366.91 805.79 L 357.77 802.16 L 347.08 798.18 L 331.43 792.35 Z "/>
<path class="zone" data-zone-id="11215830_090_02" d="M 255.56 763.31 L 255.36 763.23 L 251.80 762.30 L 233.56 757.16 L 221.04 754.40 L 208.65 751.67 L 207.77 751.48 L 185.26 746.06 L 170.24 742.44 L 168.10 741.93 L 148.28 737.21 L 129.91 732.84 L 128.51 732.49 L 100.05 725.43 L 95.67 724.44 L 86.22 722.30 L 86.35 721.95 L 86.23 721.92 L 92.09 706.65 L 101.43 682.24 L 115.39 645.77 L 124.51 647.93 L 129.59 649.13 L 143.56 652.44 L 167.07 658.21 L 167.86 658.38 L 172.81 659.51 L 178.33 660.76 L 187.96 662.99 L 203.85 666.88 L 204.21 666.97 L 212.92 669.08 L 213.83 669.30 L 239.30 675.51 L 239.43 675.54 L 250.75 678.34 L 251.27 678.48 L 285.22 687.20 L 285.56 687.30 L 282.12 695.89 L 270.01 726.30 L 269.79 726.87 L 262.65 745.18 L 255.59 763.23 L 255.56 763.31 Z "/>
<path class="zone" data-zone-id="11215830_090_03" d="M 117.01 641.53 L 139.03 582.86 L 144.29 569.10 L 144.89 567.54 L 154.56 570.74 L 159.83 572.49 L 170.83 576.14 L 184.81 579.92 L 187.20 580.44 L 191.36 581.35 L 196.00 582.37 L 222.31 588.63 L 227.93 589.97 L 231.06 590.75 L 232.57 591.13 L 256.06 596.80 L 264.06 598.73 L 269.80 600.22 L 270.33 600.35 L 290.67 605.29 L 303.06 608.30 L 310.76 610.26 L 314.37 611.25 L 314.28 611.51 L 311.40 619.01 L 300.99 647.32 L 300.60 648.39 L 285.61 687.16 L 285.56 687.30 L 285.22 687.20 L 251.27 678.48 L 250.75 678.34 L 239.43 675.54 L 239.30 675.51 L 213.83 669.30 L 212.92 669.08 L 204.21 666.97 L 203.85 666.88 L 187.96 662.99 L 178.33 660.76 L 172.81 659.51 L 167.86 658.38 L 167.07 658.21 L 143.56 652.44 L 129.59 649.13 L 124.51 647.93 L 115.39 645.77 L 117.01 641.53 Z "/>
<path class="zone" data-zone-id="11215830_090_04" d="M 155.84 538.92 L 171.79 497.02 L 177.34 482.97 L 177.45 482.69 L 177.91 482.86 L 177.45 482.69 L 177.66 482.16 L 186.59 485.53 L 200.48 490.78 L 219.45 498.17 L 228.14 501.55 L 232.37 503.23 L 251.43 510.77 L 260.29 514.27 L 263.67 515.61 L 274.81 520.05 L 205.47 493.43 L 281.38 522.77 L 288.89 525.65 L 329.60 541.27 L 337.97 544.49 L 337.43 545.94 L 337.41 546.00 L 334.66 553.80 L 325.92 579.53 L 314.37 611.25 L 310.76 610.26 L 303.06 608.30 L 290.67 605.29 L 270.33 600.35 L 269.80 600.22 L 264.06 598.73 L 256.06 596.80 L 232.57 591.13 L 231.06 590.75 L 227.93 589.97 L 222.31 588.63 L 196.00 582.37 L 191.36 581.35 L 187.20 580.44 L 184.81 579.92 L 170.83 576.14 L 159.83 572.49 L 154.56 570.74 L 144.89 567.54 L 155.84 538.92 Z "/>
<path class="zone" data-zone-id="11215830_090_00" d="M 205.15 412.19 L 210.03 399.60 L 210.03 399.60 L 270.83 422.70 L 359.56 456.40 L 369.65 459.48 L 369.65 459.48 L 364.95 471.95 L 356.07 495.53 L 345.76 522.81 L 345.62 523.20 L 340.77 536.16 L 338.06 544.24 L 338.04 544.31 L 329.65 541.11 L 281.43 522.59 L 274.81 520.05 L 263.67 515.61 L 260.29 514.27 L 251.43 510.77 L 232.37 503.23 L 231.84 503.02 L 228.14 501.55 L 219.45 498.17 L 200.48 490.78 L 186.59 485.53 L 178.20 482.37 L 177.66 482.16 L 177.87 481.62 L 182.43 470.08 L 186.05 460.92 L 186.42 459.98 L 197.27 432.42 L 198.29 429.85 L 199.54 426.67 L 205.15 412.19 Z "/>
<path class="zone" data-zone-id="11215830_090_06" d="M 370.42 459.72 L 397.06 467.60 L 408.54 470.47 L 426.52 474.71 L 436.96 477.54 L 441.90 478.49 L 459.53 481.48 L 475.18 483.43 L 489.67 485.02 L 507.19 485.81 L 552.38 484.79 L 553.37 497.61 L 555.72 527.77 L 559.90 575.99 L 560.89 586.44 L 560.90 586.46 L 555.16 586.77 L 550.49 587.02 L 529.22 587.88 L 510.70 587.78 L 497.73 587.01 L 491.00 586.82 L 481.00 585.67 L 477.12 585.11 L 473.66 584.62 L 460.38 582.36 L 443.26 579.75 L 442.36 579.53 L 425.78 575.45 L 421.11 574.24 L 416.57 573.06 L 398.07 567.33 L 387.38 563.75 L 382.27 561.98 L 377.93 560.48 L 373.64 558.99 L 358.04 553.28 L 341.10 547.33 L 337.61 546.00 L 337.43 545.94 L 337.97 544.49 L 346.02 547.58 L 385.32 562.38 L 425.80 575.17 L 441.36 578.46 L 426.05 575.11 L 385.41 562.22 L 346.13 547.39 L 338.04 544.31 L 338.06 544.24 L 340.77 536.16 L 345.62 523.20 L 345.76 522.81 L 356.07 495.53 L 364.95 471.95 L 369.65 459.48 L 369.65 459.48 L 369.65 459.48 L 370.42 459.72 Z "/>
<path class="zone" data-zone-id="11215830_090_07" d="M 552.38 484.79 L 552.38 484.79 L 553.21 484.77 L 571.28 483.10 L 581.70 481.27 L 582.10 481.20 L 590.86 479.43 L 599.36 477.71 L 605.09 476.30 L 610.29 475.02 L 634.10 469.10 L 637.21 468.33 L 650.56 464.00 L 659.28 461.38 L 662.28 460.24 L 667.20 471.28 L 662.29 460.24 L 678.04 454.25 L 700.01 443.48 L 727.96 430.38 L 737.66 446.27 L 751.15 469.68 L 774.31 509.29 L 766.18 513.74 L 739.30 528.44 L 722.31 537.73 L 722.25 537.76 L 710.93 543.51 L 698.43 549.49 L 690.56 553.26 L 683.60 556.10 L 672.31 560.79 L 669.85 561.81 L 658.73 566.05 L 652.90 567.84 L 649.72 568.82 L 636.54 572.31 L 626.07 575.26 L 617.34 577.31 L 613.71 578.16 L 598.15 581.46 L 585.70 583.98 L 570.78 585.66 L 565.88 586.15 L 560.90 586.46 L 560.89 586.44 L 559.90 575.99 L 555.72 527.77 L 553.37 497.61 L 552.38 484.79 Z "/>
<path class="zone" data-zone-id="11215830_090_08" d="M 728.22 430.27 L 755.73 415.13 L 767.96 408.39 L 769.26 407.68 L 775.69 403.96 L 842.35 364.83 L 860.24 354.02 L 869.17 348.63 L 877.96 344.23 L 888.96 338.73 L 888.96 338.73 L 896.94 334.62 L 920.07 374.37 L 941.50 410.77 L 920.09 423.39 L 879.98 447.02 L 862.29 457.50 L 848.01 465.92 L 835.60 473.25 L 812.58 486.79 L 803.21 492.30 L 782.79 504.31 L 774.31 509.29 L 751.15 469.68 L 737.66 446.27 L 727.96 430.38 L 727.96 430.38 L 728.22 430.27 Z "/>
<path class="zone" data-zone-id="11215830_090_09" d="M 941.97 411.58 L 961.83 445.29 L 981.25 432.66 L 989.77 427.13 L 1014.83 409.51 L 1018.43 413.26 L 1053.65 449.86 L 1057.55 458.04 L 1057.81 458.81 L 1067.57 487.83 L 1068.71 491.22 L 1068.77 493.42 L 1065.63 496.42 L 1036.46 524.26 L 1018.87 540.66 L 1018.14 541.09 L 935.23 589.66 L 923.51 596.24 L 923.42 596.29 L 920.63 591.52 L 903.22 561.72 L 883.72 528.32 L 872.34 508.83 L 867.45 500.46 L 850.58 470.49 L 848.01 465.92 L 862.29 457.50 L 879.98 447.02 L 920.09 423.39 L 941.50 410.77 L 941.97 411.58 Z "/>
<path class="zone" data-zone-id="11215830_090_00" d="M 898.58 610.98 L 871.63 626.97 L 871.58 627.00 L 850.61 639.42 L 850.59 639.39 L 832.18 607.99 L 829.58 603.56 L 829.25 602.99 L 811.04 571.95 L 809.17 568.75 L 809.03 568.53 L 791.68 538.90 L 774.31 509.29 L 782.79 504.31 L 803.21 492.30 L 812.58 486.79 L 835.60 473.25 L 848.01 465.92 L 850.58 470.49 L 867.45 500.46 L 872.34 508.83 L 873.66 511.09 L 883.72 528.32 L 900.74 557.46 L 903.22 561.72 L 920.63 591.52 L 923.42 596.29 L 921.67 597.27 L 898.58 610.98 Z "/>
<path class="zone" data-zone-id="11215830_090_00" d="M 811.18 578.39 L 798.28 586.11 L 716.24 635.25 L 678.30 558.30 L 683.60 556.10 L 690.56 553.26 L 698.43 549.49 L 710.93 543.51 L 722.25 537.76 L 722.31 537.73 L 739.30 528.44 L 766.18 513.74 L 774.31 509.29 L 791.68 538.90 L 809.03 568.53 L 809.17 568.75 L 811.04 571.95 L 812.28 574.07 L 811.18 578.39 Z "/>
<path class="zone" data-zone-id="11215830_090_01" d="M 806.19 665.73 L 804.98 666.44 L 772.25 685.84 L 769.28 687.60 L 734.21 708.39 L 731.82 703.99 L 695.41 641.91 L 693.21 638.16 L 700.77 633.57 L 704.45 631.40 L 702.86 627.92 L 674.56 565.73 L 672.31 560.79 L 678.30 558.30 L 716.24 635.25 L 798.28 586.11 L 811.18 578.39 L 812.28 574.07 L 829.25 602.99 L 829.58 603.56 L 832.18 607.99 L 850.59 639.39 L 850.61 639.42 L 817.36 659.11 L 806.19 665.73 Z "/>
<path class="zone" data-zone-id="11215830_090_00" d="M 625.76 738.05 L 614.04 744.58 L 599.43 752.73 L 574.97 766.37 L 573.32 744.18 L 573.15 741.86 L 570.38 707.94 L 570.34 707.42 L 570.26 706.33 L 571.84 706.67 L 575.66 704.74 L 580.58 702.26 L 582.87 701.21 L 584.87 700.33 L 585.79 699.93 L 596.20 693.97 L 609.41 686.44 L 621.68 679.27 L 624.34 677.76 L 636.35 670.94 L 642.55 667.31 L 646.46 665.04 L 660.58 690.15 L 672.60 711.53 L 631.25 737.03 L 630.31 735.51 L 627.39 737.14 L 625.76 738.05 Z "/>
<path class="zone" data-zone-id="11215830_090_01" d="M 698.24 729.33 L 678.38 740.84 L 649.39 757.64 L 639.49 763.78 L 621.01 775.26 L 618.00 776.97 L 588.44 793.74 L 582.95 796.40 L 577.40 799.09 L 577.19 795.46 L 576.30 783.32 L 575.32 770.99 L 575.32 770.98 L 574.97 766.37 L 599.43 752.73 L 614.04 744.58 L 625.76 738.05 L 627.39 737.14 L 630.31 735.51 L 631.25 737.03 L 672.60 711.53 L 660.58 690.15 L 646.46 665.04 L 650.67 662.60 L 655.43 659.87 L 661.21 656.56 L 678.05 646.86 L 688.14 641.25 L 693.21 638.16 L 695.41 641.91 L 731.82 703.99 L 734.21 708.39 L 734.18 708.41 L 698.24 729.33 Z "/>
<path class="zone" data-zone-id="11215830_090_13" d="M 577.40 799.09 L 572.11 799.30 L 562.47 800.21 L 535.63 803.75 L 524.29 805.25 L 514.85 806.50 L 488.96 809.85 L 487.78 810.01 L 455.25 814.22 L 450.33 814.85 L 426.69 817.87 L 413.31 819.58 L 408.46 820.36 L 407.15 820.11 L 409.39 814.47 L 434.02 752.30 L 436.65 745.43 L 439.89 736.95 L 464.60 672.38 L 465.98 668.76 L 484.81 676.19 L 495.02 679.97 L 499.43 681.59 L 517.50 688.28 L 547.61 699.53 L 561.11 704.40 L 564.94 705.21 L 570.26 706.33 L 570.34 707.42 L 570.38 707.94 L 573.15 741.86 L 573.32 744.18 L 575.32 770.98 L 575.32 770.99 L 576.30 783.32 L 577.19 795.46 L 577.40 799.09 Z "/>
<path class="zone" data-zone-id="11215830_090_14" d="M 560.90 586.46 L 563.28 613.76 L 565.37 640.85 L 565.44 641.72 L 567.79 673.47 L 570.26 706.33 L 564.94 705.21 L 561.11 704.40 L 547.61 699.53 L 517.50 688.28 L 499.43 681.59 L 495.02 679.97 L 484.81 676.19 L 465.98 668.76 L 458.88 665.95 L 454.43 664.20 L 423.81 652.63 L 419.04 650.83 L 406.63 645.92 L 384.28 637.06 L 376.48 634.07 L 365.05 629.73 L 352.70 625.05 L 345.73 622.40 L 318.68 612.42 L 314.37 611.25 L 325.92 579.53 L 334.66 553.80 L 337.41 546.00 L 337.43 545.94 L 337.61 546.00 L 341.10 547.33 L 358.04 553.28 L 373.64 558.99 L 377.93 560.48 L 382.27 561.98 L 387.38 563.75 L 398.07 567.33 L 416.57 573.06 L 421.11 574.24 L 425.78 575.45 L 442.36 579.53 L 443.26 579.75 L 460.38 582.36 L 473.66 584.62 L 477.12 585.11 L 481.00 585.67 L 491.00 586.82 L 497.73 587.01 L 510.70 587.78 L 529.22 587.88 L 550.49 587.02 L 555.16 586.77 L 560.90 586.46 Z "/>
<path class="zone" data-zone-id="11215830_090_15" d="M 570.26 706.33 L 567.79 673.47 L 565.44 641.72 L 565.37 640.85 L 563.28 613.76 L 560.90 586.46 L 565.88 586.15 L 570.78 585.66 L 585.70 583.98 L 598.15 581.46 L 613.71 578.16 L 617.34 577.31 L 626.07 575.26 L 636.54 572.31 L 649.72 568.82 L 652.90 567.84 L 658.73 566.05 L 669.85 561.81 L 672.31 560.79 L 674.56 565.73 L 702.86 627.92 L 704.45 631.40 L 700.77 633.57 L 693.21 638.16 L 688.14 641.25 L 678.05 646.86 L 661.21 656.56 L 655.43 659.87 L 650.67 662.60 L 642.55 667.31 L 636.35 670.94 L 624.34 677.76 L 621.68 679.27 L 609.41 686.44 L 596.20 693.97 L 585.79 699.93 L 584.87 700.33 L 582.87 701.21 L 580.58 702.26 L 575.66 704.74 L 571.84 706.67 L 570.26 706.33 Z "/>
<path class="zone" data-zone-id="11215830_090_16" d="M 465.98 668.76 L 464.60 672.38 L 439.89 736.95 L 436.65 745.43 L 411.76 734.97 L 395.19 728.50 L 394.49 728.22 L 391.56 727.14 L 377.60 721.98 L 359.00 714.81 L 358.48 714.61 L 344.40 709.26 L 331.40 704.30 L 329.90 703.73 L 328.64 703.25 L 319.38 699.72 L 308.28 695.32 L 293.32 689.50 L 285.56 687.30 L 285.61 687.16 L 300.60 648.39 L 300.99 647.32 L 311.40 619.01 L 314.28 611.51 L 314.37 611.25 L 318.68 612.42 L 345.73 622.40 L 352.70 625.05 L 365.05 629.73 L 376.48 634.07 L 384.28 637.06 L 406.63 645.92 L 419.04 650.83 L 423.81 652.63 L 454.43 664.20 L 458.88 665.95 L 465.98 668.76 Z "/>
</svg>
