<svg xmlns="http://www.w3.org/2000/svg" viewBox="0 0 1155 1155" width="1155" height="1155">
<path class="zone" data-zone-id="11215860_040_00" d="M 234.92 559.71 L 287.93 582.75 L 337.12 604.00 L 339.40 604.99 L 387.28 624.42 L 425.66 639.41 L 459.65 652.85 L 460.76 653.29 L 462.41 653.94 L 477.10 659.74 L 498.94 668.58 L 508.86 672.81 L 509.07 672.93 L 506.85 678.57 L 498.43 697.49 L 491.45 715.43 L 489.89 719.44 L 479.48 746.30 L 477.86 750.46 L 477.70 750.88 L 472.98 763.04 L 469.26 772.64 L 466.49 779.78 L 464.17 785.75 L 461.48 792.31 L 458.57 799.41 L 458.35 799.96 L 452.41 811.74 L 439.21 837.95 L 430.80 856.45 L 424.15 872.94 L 417.24 890.98 L 416.70 892.34 L 410.09 909.01 L 400.67 932.75 L 382.42 923.68 L 322.41 893.87 L 276.85 866.18 L 254.12 852.37 L 253.93 852.23 L 183.22 799.56 L 146.89 772.49 L 140.13 765.40 L 97.37 720.53 L 132.01 666.54 L 156.06 627.78 L 156.66 626.80 L 185.09 580.96 L 205.71 547.73 L 234.92 559.71 Z "/>
<path class="zone" data-zone-id="11215860_040_00" d="M 284.58 485.72 L 335.12 516.74 L 418.69 552.18 L 433.32 557.97 L 487.27 579.35 L 521.41 592.17 L 529.33 593.38 L 536.99 594.54 L 539.00 605.31 L 538.79 608.06 L 538.77 608.29 L 535.13 616.05 L 529.59 627.48 L 521.49 643.49 L 513.05 662.83 L 509.07 672.93 L 508.86 672.81 L 498.94 668.58 L 477.10 659.74 L 462.41 653.94 L 460.76 653.29 L 459.65 652.85 L 425.66 639.41 L 392.23 626.36 L 387.28 624.42 L 339.40 604.99 L 337.12 604.00 L 304.64 589.97 L 289.59 583.46 L 287.93 582.75 L 234.92 559.71 L 229.81 557.61 L 205.71 547.73 L 254.43 469.18 L 255.35 467.71 L 263.01 472.44 L 269.39 476.39 L 284.58 485.72 Z "/>
<path class="zone" data-zone-id="11215860_040_00" d="M 475.42 486.36 L 504.34 477.63 L 507.53 488.75 L 518.59 527.07 L 524.15 545.88 L 532.09 572.73 L 533.88 578.80 L 534.01 579.22 L 535.94 588.89 L 536.99 594.54 L 529.33 593.38 L 521.41 592.17 L 487.27 579.35 L 433.32 557.97 L 418.69 552.18 L 381.19 536.28 L 335.12 516.74 L 307.71 499.92 L 284.58 485.72 L 269.39 476.39 L 263.01 472.44 L 255.35 467.71 L 256.46 465.92 L 287.32 417.56 L 304.29 390.96 L 311.45 395.39 L 315.89 398.14 L 358.49 423.10 L 397.23 445.80 L 419.10 458.61 L 455.24 480.91 L 458.81 483.12 L 466.02 487.57 L 467.54 488.26 L 469.33 488.27 L 475.42 486.36 Z "/>
<path class="zone" data-zone-id="11215860_040_04" d="M 304.29 390.96 L 305.12 389.66 L 311.09 380.20 L 332.53 346.25 L 339.96 350.22 L 345.00 352.91 L 375.72 346.62 L 385.93 344.56 L 419.63 337.74 L 460.67 329.68 L 462.32 336.73 L 463.71 342.68 L 464.95 346.95 L 469.68 363.13 L 476.97 386.22 L 491.73 432.96 L 502.10 465.78 L 504.34 477.63 L 475.42 486.36 L 469.33 488.27 L 467.54 488.26 L 466.02 487.57 L 455.24 480.91 L 419.10 458.61 L 358.49 423.10 L 315.89 398.14 L 311.45 395.39 L 304.29 390.96 Z "/>
<path class="zone" data-zone-id="11215860_040_05" d="M 521.45 318.04 L 521.64 318.00 L 553.22 311.38 L 586.68 300.88 L 587.18 300.72 L 600.41 296.43 L 617.38 290.76 L 632.85 285.30 L 677.38 269.62 L 677.66 269.52 L 695.07 263.39 L 700.90 261.35 L 761.48 240.10 L 774.42 235.24 L 800.81 225.34 L 813.46 222.72 L 813.53 222.70 L 815.76 222.27 L 818.50 228.66 L 820.66 233.68 L 822.44 236.96 L 835.44 262.78 L 842.39 276.56 L 849.61 290.44 L 851.12 293.33 L 846.47 296.20 L 841.96 298.97 L 823.03 315.37 L 783.72 349.22 L 782.53 350.24 L 782.09 350.62 L 742.04 384.77 L 708.58 413.31 L 695.99 425.30 L 693.87 426.49 L 689.93 427.80 L 688.71 428.13 L 633.36 443.08 L 609.59 449.62 L 591.48 454.60 L 591.42 454.61 L 579.55 457.85 L 568.49 460.68 L 567.08 461.02 L 537.21 468.25 L 514.18 474.60 L 504.34 477.63 L 502.10 465.78 L 491.73 432.96 L 476.97 386.22 L 469.68 363.13 L 464.95 346.95 L 463.71 342.68 L 462.32 336.73 L 460.67 329.68 L 460.90 329.64 L 469.25 328.04 L 521.45 318.04 Z "/>
<path class="zone" data-zone-id="11215860_040_06" d="M 851.12 293.33 L 853.41 297.73 L 866.95 321.70 L 874.22 334.42 L 883.36 350.43 L 890.97 364.07 L 898.32 375.94 L 899.11 377.35 L 906.78 391.04 L 924.54 413.24 L 942.89 435.53 L 953.47 448.59 L 985.77 489.36 L 990.86 495.68 L 987.56 498.43 L 986.81 499.06 L 961.84 520.42 L 933.80 544.10 L 919.24 556.31 L 911.47 562.98 L 901.43 571.52 L 901.36 571.58 L 899.16 573.46 L 891.72 579.80 L 886.75 577.61 L 878.85 574.14 L 826.76 571.47 L 777.60 568.02 L 771.22 567.99 L 761.64 569.80 L 749.39 573.99 L 742.60 577.15 L 737.74 579.41 L 729.65 553.78 L 722.13 529.92 L 720.50 524.74 L 703.61 471.17 L 692.96 438.76 L 690.12 431.67 L 688.71 428.13 L 689.93 427.80 L 693.87 426.49 L 695.99 425.30 L 708.58 413.31 L 742.04 384.77 L 782.09 350.62 L 782.53 350.24 L 783.72 349.22 L 823.03 315.37 L 841.96 298.97 L 846.47 296.20 L 851.12 293.33 Z "/>
<path class="zone" data-zone-id="11215860_040_07" d="M 990.86 495.68 L 997.38 503.79 L 1006.51 512.65 L 1021.26 526.54 L 1041.86 546.79 L 1057.64 565.82 L 1055.97 573.15 L 1055.67 574.45 L 1048.52 605.87 L 1042.79 630.10 L 1039.68 638.46 L 1034.54 653.51 L 1029.00 668.00 L 1026.18 673.18 L 1018.92 683.93 L 1013.41 690.91 L 1008.85 695.30 L 1008.64 695.49 L 1000.79 701.08 L 974.81 717.89 L 940.54 738.83 L 912.70 754.91 L 898.00 760.61 L 876.57 768.00 L 856.98 774.58 L 856.16 774.77 L 855.19 770.72 L 853.87 765.19 L 843.79 713.44 L 840.32 691.87 L 838.43 676.61 L 837.23 665.49 L 837.45 658.65 L 838.21 650.76 L 839.70 639.11 L 841.89 633.02 L 844.24 628.19 L 848.93 620.38 L 855.99 611.80 L 861.04 606.45 L 870.06 598.24 L 891.72 579.80 L 899.16 573.46 L 901.36 571.58 L 901.43 571.52 L 911.47 562.98 L 919.24 556.31 L 933.80 544.10 L 961.84 520.42 L 986.81 499.06 L 987.56 498.43 L 990.86 495.68 Z "/>
<path class="zone" data-zone-id="11215860_040_08" d="M 856.16 774.77 L 843.67 777.70 L 820.41 782.78 L 779.07 790.96 L 749.13 795.30 L 748.36 790.45 L 747.48 784.93 L 743.92 765.31 L 740.32 743.89 L 737.01 724.19 L 725.15 657.14 L 721.38 634.11 L 720.06 623.44 L 720.47 619.50 L 721.50 612.40 L 723.11 606.27 L 725.11 600.76 L 729.09 594.07 L 734.66 586.40 L 738.56 582.01 L 737.74 579.41 L 742.60 577.15 L 749.39 573.99 L 761.64 569.80 L 771.22 567.99 L 777.60 568.02 L 826.76 571.47 L 878.85 574.14 L 886.75 577.61 L 891.72 579.80 L 870.06 598.24 L 861.04 606.45 L 855.99 611.80 L 848.93 620.38 L 844.24 628.19 L 841.89 633.02 L 839.70 639.11 L 838.21 650.76 L 837.45 658.65 L 837.23 665.49 L 838.43 676.61 L 840.32 691.87 L 843.79 713.44 L 853.87 765.19 L 855.19 770.72 L 856.16 774.77 Z "/>
<path class="zone" data-zone-id="11215860_040_00" d="M 734.62 797.29 L 710.62 783.68 L 674.92 762.77 L 620.30 732.68 L 612.60 728.44 L 603.78 725.75 L 605.64 720.89 L 605.95 720.09 L 607.80 716.37 L 609.54 713.44 L 626.37 685.23 L 633.68 673.13 L 635.81 668.56 L 637.55 664.37 L 642.02 651.07 L 642.20 650.55 L 642.75 647.21 L 643.35 643.65 L 643.63 636.98 L 643.06 627.70 L 641.65 615.04 L 637.29 597.01 L 636.93 595.50 L 633.29 584.23 L 618.73 540.19 L 617.26 535.74 L 606.89 504.37 L 603.79 495.01 L 592.90 459.45 L 591.42 454.61 L 591.48 454.60 L 609.59 449.62 L 633.36 443.08 L 688.71 428.13 L 690.12 431.67 L 692.96 438.76 L 703.61 471.17 L 720.50 524.74 L 722.13 529.92 L 729.65 553.78 L 737.74 579.41 L 738.56 582.01 L 734.66 586.40 L 729.09 594.07 L 725.11 600.76 L 723.11 606.27 L 721.50 612.40 L 720.47 619.50 L 720.06 623.44 L 721.38 634.11 L 725.15 657.14 L 737.01 724.19 L 740.32 743.89 L 743.92 765.31 L 747.48 784.93 L 748.36 790.45 L 749.13 795.30 L 747.99 795.46 L 734.62 797.29 Z "/>
<path class="zone" data-zone-id="11215860_040_10" d="M 603.78 725.75 L 599.45 724.43 L 590.85 721.61 L 590.59 721.47 L 580.53 716.13 L 529.30 684.37 L 529.09 684.24 L 509.07 672.93 L 513.05 662.83 L 521.49 643.49 L 529.59 627.48 L 535.13 616.05 L 538.77 608.29 L 538.79 608.06 L 539.00 605.31 L 536.99 594.54 L 535.94 588.89 L 534.01 579.22 L 533.88 578.80 L 532.09 572.73 L 524.15 545.88 L 518.59 527.07 L 507.53 488.75 L 504.34 477.63 L 514.18 474.60 L 537.21 468.25 L 567.08 461.02 L 568.49 460.68 L 579.55 457.85 L 591.42 454.61 L 592.90 459.45 L 603.79 495.01 L 606.89 504.37 L 617.26 535.74 L 618.73 540.19 L 633.29 584.23 L 636.93 595.50 L 637.29 597.01 L 641.65 615.04 L 643.06 627.70 L 643.63 636.98 L 643.35 643.65 L 642.75 647.21 L 642.20 650.55 L 637.55 664.37 L 635.81 668.56 L 633.68 673.13 L 626.37 685.23 L 607.80 716.37 L 605.95 720.09 L 605.64 720.89 L 603.78 725.75 Z "/>
</svg>
