<svg xmlns="http://www.w3.org/2000/svg" viewBox="0 0 1154 1155" width="1154" height="1155">
<path class="zone" data-zone-id="11215810_080_00" d="M 274.84 635.34 L 283.85 629.77 L 302.78 618.64 L 335.23 597.91 L 346.40 590.77 L 373.84 573.23 L 383.80 566.86 L 405.16 561.85 L 435.67 554.69 L 462.02 548.72 L 489.25 542.55 L 504.48 536.17 L 527.23 539.13 L 540.71 540.13 L 551.02 537.73 L 573.24 534.35 L 585.98 525.66 L 601.85 515.97 L 604.03 514.69 L 617.32 508.57 L 628.15 504.89 L 657.50 499.24 L 678.56 494.75 L 696.35 489.46 L 705.12 486.48 L 736.37 475.23 L 849.98 585.55 L 769.88 670.08 L 745.39 694.89 L 706.66 736.79 L 538.87 913.85 L 496.66 915.25 L 350.67 776.75 L 300.53 730.34 L 296.35 711.31 L 280.79 697.78 L 273.24 691.21 L 249.87 676.67 L 245.76 674.82 L 162.51 594.98 L 163.88 592.87 L 270.57 636.62 L 271.54 637.27 L 274.62 635.46 L 274.84 635.34 Z "/>
<path class="zone" data-zone-id="11215810_080_01" d="M 98.20 566.42 L 98.20 566.42 L 139.15 545.18 L 140.43 544.64 L 162.60 535.39 L 210.71 517.84 L 211.51 517.55 L 224.82 544.89 L 239.92 547.37 L 244.18 548.44 L 265.44 555.49 L 275.06 557.80 L 291.56 558.05 L 332.57 554.42 L 383.55 549.90 L 436.09 544.95 L 485.44 534.07 L 487.14 533.91 L 504.48 536.17 L 489.25 542.55 L 462.02 548.72 L 435.67 554.69 L 405.16 561.85 L 383.80 566.86 L 373.84 573.23 L 346.40 590.77 L 335.23 597.91 L 302.78 618.64 L 283.85 629.77 L 274.84 635.34 L 274.62 635.46 L 271.54 637.27 L 270.57 636.62 L 163.88 592.87 L 162.51 594.98 L 245.76 674.82 L 249.87 676.67 L 273.24 691.21 L 280.79 697.78 L 296.35 711.31 L 300.53 730.34 L 350.67 776.75 L 496.66 915.25 L 538.87 913.85 L 706.66 736.79 L 615.88 835.02 L 550.72 902.10 L 531.00 924.12 L 507.22 951.98 L 429.12 881.23 L 299.00 764.47 L 196.94 663.81 L 98.20 566.42 Z "/>
<path class="zone" data-zone-id="11215810_080_02" d="M 802.17 441.45 L 840.17 424.52 L 890.09 402.01 L 945.88 376.86 L 954.55 372.93 L 1020.55 343.09 L 1023.10 341.93 L 1040.76 333.95 L 1055.80 369.65 L 1052.33 373.28 L 1011.21 416.35 L 983.23 445.59 L 972.34 456.97 L 917.75 514.01 L 820.83 618.47 L 769.88 670.08 L 849.98 585.55 L 736.37 475.23 L 738.20 474.57 L 776.82 454.17 L 802.17 441.45 Z "/>
<path class="zone" data-zone-id="11215810_080_00" d="M 430.89 507.32 L 416.58 469.23 L 413.99 449.41 L 500.30 414.82 L 581.86 382.13 L 599.52 375.05 L 592.60 521.61 L 585.98 525.66 L 576.04 532.44 L 573.24 534.35 L 551.02 537.73 L 540.71 540.13 L 527.23 539.13 L 487.14 533.91 L 485.44 534.07 L 465.85 538.39 L 455.08 534.06 L 430.89 507.32 Z "/>
<path class="zone" data-zone-id="11215810_080_01" d="M 675.75 342.20 L 762.40 306.07 L 839.86 274.94 L 840.45 276.59 L 836.86 278.02 L 840.45 276.59 L 867.22 351.56 L 865.90 352.32 L 870.29 365.90 L 870.56 378.69 L 873.85 384.07 L 883.60 404.94 L 863.99 413.78 L 850.23 419.99 L 840.17 424.52 L 802.17 441.45 L 776.82 454.17 L 738.20 474.57 L 705.12 486.48 L 696.35 489.46 L 678.56 494.75 L 657.50 499.24 L 628.15 504.89 L 617.32 508.57 L 613.58 510.30 L 604.03 514.69 L 601.85 515.97 L 592.60 521.61 L 599.52 375.05 L 581.86 382.13 L 582.22 378.81 L 675.75 342.20 Z M 849.73 318.50 L 835.39 327.60 L 837.20 326.45 L 849.73 318.50 Z "/>
<path class="zone" data-zone-id="11215810_080_02" d="M 1005.36 249.98 L 1040.76 333.95 L 1040.16 334.22 L 1023.10 341.93 L 1020.55 343.09 L 945.88 376.86 L 883.60 404.94 L 873.85 384.07 L 870.56 378.69 L 870.29 365.90 L 865.90 352.32 L 867.22 351.56 L 840.45 276.59 L 970.76 224.60 L 999.64 236.40 L 1005.36 249.98 Z "/>
<path class="zone" data-zone-id="11215810_080_03" d="M 241.13 506.75 L 267.77 497.02 L 280.90 492.24 L 338.52 469.22 L 382.46 451.67 L 465.41 417.59 L 510.67 398.95 L 510.95 398.83 L 568.54 375.11 L 661.69 336.66 L 766.08 293.52 L 858.29 255.43 L 940.37 221.65 L 985.58 203.05 L 996.68 229.37 L 999.64 236.40 L 970.76 224.60 L 840.45 276.59 L 840.45 276.59 L 839.86 274.94 L 762.40 306.07 L 675.75 342.20 L 582.22 378.81 L 581.86 382.13 L 500.30 414.82 L 413.99 449.41 L 416.58 469.23 L 430.89 507.32 L 455.08 534.06 L 465.85 538.39 L 436.09 544.95 L 383.55 549.90 L 332.57 554.42 L 291.56 558.05 L 275.06 557.80 L 265.44 555.49 L 244.18 548.44 L 239.92 547.37 L 224.82 544.89 L 211.51 517.55 L 241.13 506.75 Z "/>
</svg>
