<svg xmlns="http://www.w3.org/2000/svg" viewBox="0 0 1155 1155" width="1155" height="1155">
<path class="zone" data-zone-id="11215820_010_00" d="M 884.19 564.46 L 858.83 572.91 L 810.82 588.14 L 788.66 595.17 L 687.03 627.41 L 685.13 628.00 L 621.89 647.75 L 591.70 657.18 L 538.77 673.72 L 529.15 676.72 L 475.60 693.44 L 452.52 700.65 L 434.76 706.20 L 388.53 720.63 L 349.75 732.74 L 349.37 732.87 L 304.01 747.08 L 286.51 752.56 L 237.84 767.81 L 217.80 774.44 L 215.20 778.45 L 213.68 781.05 L 211.65 784.50 L 208.61 798.58 L 203.64 819.76 L 203.23 820.19 L 188.48 836.00 L 186.58 838.04 L 181.47 843.52 L 158.62 865.11 L 154.32 869.18 L 152.78 868.84 L 129.55 863.72 L 101.12 857.26 L 95.53 856.07 L 96.70 851.81 L 99.57 841.29 L 118.13 777.31 L 118.57 775.78 L 130.16 739.01 L 140.75 705.52 L 140.87 705.12 L 155.86 657.63 L 156.02 657.11 L 156.49 655.64 L 156.63 655.17 L 170.37 611.58 L 172.14 605.97 L 172.44 605.01 L 196.77 529.99 L 197.01 529.27 L 200.17 519.44 L 200.20 519.36 L 209.05 491.90 L 209.27 491.22 L 222.92 448.88 L 223.34 447.56 L 223.55 446.92 L 231.25 446.78 L 233.68 446.74 L 255.97 446.01 L 306.85 443.73 L 321.83 443.30 L 328.71 445.56 L 333.37 447.10 L 339.33 447.47 L 346.99 446.83 L 360.26 445.54 L 379.99 441.77 L 381.04 441.57 L 439.46 429.63 L 448.28 427.57 L 454.45 426.14 L 468.94 421.62 L 473.54 419.77 L 485.85 409.12 L 495.93 401.35 L 508.38 395.29 L 516.22 392.27 L 524.42 386.70 L 525.24 386.15 L 531.76 381.80 L 553.95 367.80 L 560.96 361.88 L 577.00 352.61 L 600.88 340.65 L 608.60 313.92 L 616.71 285.83 L 682.91 307.09 L 686.22 308.15 L 686.49 308.24 L 753.06 329.62 L 794.51 342.93 L 795.04 343.10 L 918.29 381.53 L 988.25 405.70 L 1004.98 408.81 L 1041.24 409.13 L 1041.24 409.13 L 1041.24 409.13 L 1043.17 418.99 L 1043.17 419.00 L 1046.12 434.10 L 1059.47 475.13 L 1030.14 491.81 L 971.30 525.28 L 967.87 527.23 L 924.96 550.80 L 924.65 550.91 L 919.53 552.68 L 884.19 564.46 Z M 816.06 408.84 L 822.39 410.79 L 828.72 412.74 L 816.06 408.84 Z M 807.38 478.80 L 801.32 476.89 L 795.00 474.90 L 807.38 478.80 Z "/>
</svg>
