<svg xmlns="http://www.w3.org/2000/svg" viewBox="0 0 1155 1155" width="1155" height="1155">
<path class="zone" data-zone-id="11215840_030_01" d="M 121.04 753.91 L 119.85 753.47 L 129.60 726.25 L 152.03 663.63 L 198.23 531.48 L 198.32 531.23 L 331.36 151.56 L 332.83 147.58 L 339.52 129.51 L 541.29 214.62 L 570.33 237.97 L 581.68 247.09 L 1026.64 445.86 L 1035.08 449.38 L 1030.14 466.93 L 1029.09 470.66 L 1025.67 479.86 L 996.15 567.59 L 943.90 731.17 L 919.22 820.04 L 910.24 848.74 L 888.16 919.31 L 863.10 998.48 L 854.55 1025.50 L 854.55 1025.50 L 597.16 926.70 L 468.85 877.46 L 468.61 877.36 L 341.48 830.12 L 312.15 819.22 L 249.14 797.69 L 121.04 753.91 Z "/>
</svg>
