<svg xmlns="http://www.w3.org/2000/svg" viewBox="0 0 1155 1155" width="1155" height="1155">
<path class="zone" data-zone-id="11215810_030_00" d="M 433.52 937.39 L 434.71 936.28 L 440.79 936.66 L 440.61 935.20 L 455.81 932.14 L 458.47 931.32 L 464.03 931.12 L 472.08 931.96 L 472.31 932.93 L 473.84 933.18 L 473.96 935.21 L 482.50 936.09 L 479.71 952.99 L 481.17 970.02 L 481.34 980.89 L 478.99 1003.67 L 469.31 1028.09 L 469.51 1029.25 L 466.90 1035.83 L 465.39 1039.94 L 463.59 1041.54 L 461.42 1047.29 L 455.98 1058.32 L 458.23 1053.75 L 455.54 1052.73 L 447.94 1057.00 L 445.16 1063.70 L 443.16 1068.50 L 464.79 1077.04 L 460.44 1084.09 L 460.43 1084.11 L 457.18 1082.81 L 451.19 1080.42 L 445.19 1078.03 L 443.04 1077.08 L 433.15 1072.98 L 416.84 1066.21 L 415.56 1065.56 L 415.18 1065.17 L 413.84 1060.82 L 413.62 1060.16 L 413.29 1059.79 L 405.51 1056.91 L 396.89 1053.72 L 385.20 1049.56 L 377.08 1046.79 L 371.37 1044.90 L 372.70 1040.58 L 374.35 1035.19 L 386.78 994.69 L 387.37 992.76 L 389.97 982.78 L 390.75 975.89 L 390.81 975.34 L 390.92 972.21 L 394.38 970.26 L 396.49 969.06 L 402.44 964.23 L 403.11 963.69 L 409.95 958.14 L 410.84 957.44 L 415.09 954.08 L 417.49 952.18 L 425.01 945.31 L 426.26 944.16 L 428.22 942.38 L 433.52 937.39 Z "/>
<path class="zone" data-zone-id="11215810_030_01" d="M 494.10 711.99 L 508.53 723.61 L 510.03 724.98 L 513.22 727.23 L 507.15 744.20 L 501.93 759.27 L 500.20 764.28 L 498.74 763.41 L 495.66 761.55 L 493.32 760.14 L 455.19 737.66 L 448.76 733.87 L 445.77 732.10 L 445.90 731.86 L 468.29 690.29 L 485.45 652.49 L 486.91 649.29 L 512.58 658.63 L 511.63 659.31 L 508.65 663.58 L 507.31 666.70 L 506.21 669.29 L 501.85 681.37 L 499.88 687.17 L 498.07 692.45 L 492.82 707.22 L 491.79 710.13 L 494.10 711.99 Z "/>
<path class="zone" data-zone-id="11215810_030_02" d="M 764.15 114.18 L 763.94 117.63 L 763.34 120.89 L 763.03 125.59 L 762.91 127.42 L 761.48 149.19 L 750.04 177.57 L 748.71 184.78 L 748.57 196.31 L 748.11 201.62 L 747.79 205.87 L 747.42 206.54 L 750.07 206.55 L 724.04 327.95 L 657.33 568.12 L 540.80 894.90 L 487.96 1027.35 L 474.26 1061.68 L 464.79 1077.04 L 443.16 1068.50 L 447.94 1057.00 L 453.99 1053.60 L 455.54 1052.73 L 458.23 1053.75 L 461.42 1047.29 L 463.59 1041.54 L 465.39 1039.94 L 466.90 1035.83 L 469.51 1029.25 L 469.31 1028.09 L 478.99 1003.67 L 481.34 980.89 L 481.17 970.02 L 479.71 952.99 L 482.50 936.09 L 473.96 935.21 L 473.84 933.18 L 472.31 932.93 L 472.08 931.96 L 464.03 931.12 L 458.47 931.32 L 455.81 932.14 L 440.61 935.20 L 440.79 936.66 L 434.71 936.28 L 446.25 925.44 L 456.36 915.93 L 483.40 893.40 L 484.39 893.13 L 486.55 892.94 L 488.57 893.04 L 491.35 893.15 L 494.61 892.50 L 499.63 890.59 L 501.78 889.73 L 505.63 888.19 L 506.91 887.47 L 507.80 886.80 L 508.88 885.71 L 510.38 884.06 L 511.81 882.48 L 512.48 881.02 L 520.56 859.91 L 523.84 851.34 L 546.30 792.75 L 557.69 761.62 L 569.41 729.49 L 581.97 696.82 L 594.55 664.15 L 585.81 660.47 L 577.27 656.80 L 576.40 655.82 L 575.93 654.89 L 570.50 635.37 L 570.44 635.16 L 569.99 633.55 L 569.34 632.75 L 568.48 631.87 L 567.02 631.43 L 564.71 631.19 L 553.15 632.47 L 538.65 634.04 L 537.17 634.20 L 535.69 634.36 L 532.33 634.73 L 531.23 635.02 L 530.36 635.67 L 529.55 636.46 L 521.75 644.30 L 520.05 646.01 L 519.02 646.87 L 517.05 648.10 L 515.64 649.20 L 514.85 650.55 L 514.65 651.71 L 514.74 652.59 L 516.09 656.77 L 514.00 657.62 L 512.58 658.63 L 486.91 649.29 L 489.06 644.54 L 494.61 637.18 L 500.45 629.42 L 504.58 623.93 L 520.62 610.80 L 537.71 604.30 L 539.47 603.85 L 552.59 601.28 L 579.82 596.66 L 592.10 590.89 L 605.85 579.97 L 612.14 572.64 L 615.35 567.87 L 616.62 565.61 L 622.20 552.88 L 628.87 535.06 L 634.81 517.03 L 636.15 510.79 L 637.71 499.87 L 638.71 489.91 L 639.52 466.99 L 640.65 458.88 L 642.69 449.21 L 647.26 437.17 L 651.97 426.77 L 656.10 417.57 L 658.08 413.14 L 661.98 404.45 L 662.84 402.53 L 665.91 395.70 L 670.68 385.05 L 676.88 371.24 L 679.44 365.70 L 682.40 357.96 L 683.31 354.61 L 684.41 348.45 L 684.44 342.21 L 682.07 318.86 L 680.35 312.27 L 678.97 309.28 L 677.01 306.05 L 674.06 301.90 L 666.73 292.43 L 663.56 288.43 L 660.92 284.67 L 658.86 281.68 L 656.13 276.31 L 654.05 271.15 L 651.49 264.38 L 650.86 261.43 L 650.58 257.98 L 651.06 253.71 L 652.82 247.76 L 654.05 243.42 L 657.14 232.93 L 658.12 229.20 L 659.59 224.71 L 661.24 220.42 L 666.17 213.78 L 671.76 208.16 L 676.30 203.56 L 683.93 196.58 L 689.33 191.64 L 691.42 189.73 L 696.02 185.51 L 699.49 182.35 L 703.67 178.53 L 707.27 175.23 L 711.47 171.39 L 714.86 168.30 L 718.08 165.26 L 719.82 162.45 L 729.07 153.40 L 732.87 149.64 L 738.32 143.88 L 741.93 139.35 L 743.89 136.36 L 748.73 128.58 L 751.09 123.99 L 777.57 70.88 L 777.57 70.88 L 778.24 71.18 L 779.10 71.67 L 782.42 75.02 L 783.63 76.15 L 771.54 100.31 L 764.15 114.18 Z "/>
</svg>
