<svg xmlns="http://www.w3.org/2000/svg" viewBox="0 0 1154 1155" width="1154" height="1155">
<path class="zone" data-zone-id="11215710_020_01" d="M 803.07 672.51 L 802.89 672.27 L 763.82 619.82 L 729.59 574.68 L 721.06 565.78 L 725.54 562.27 L 729.58 559.11 L 760.74 537.33 L 760.88 537.23 L 765.19 534.14 L 800.10 509.09 L 800.96 508.46 L 834.52 483.75 L 865.89 460.65 L 905.46 431.51 L 910.09 428.25 L 913.86 425.61 L 935.78 461.51 L 936.78 463.15 L 946.89 479.69 L 974.40 524.74 L 979.01 533.03 L 982.58 539.46 L 983.95 542.19 L 981.45 546.42 L 976.63 554.59 L 960.00 598.79 L 957.65 605.09 L 944.90 639.20 L 933.42 669.91 L 927.95 684.54 L 927.92 684.61 L 920.24 705.08 L 911.99 727.22 L 911.86 727.56 L 898.85 759.27 L 894.63 770.55 L 890.04 783.86 L 889.97 784.14 L 886.58 779.67 L 864.07 750.04 L 863.76 749.64 L 849.11 730.35 L 816.83 690.02 L 816.00 688.96 L 810.12 681.46 L 803.07 672.51 Z "/>
<path class="zone" data-zone-id="11215710_020_02" d="M 721.06 565.78 L 717.42 570.20 L 715.30 572.76 L 713.65 575.50 L 707.15 590.74 L 690.37 630.10 L 675.46 665.06 L 675.36 665.28 L 647.87 730.00 L 643.17 741.07 L 643.14 741.15 L 625.98 781.54 L 572.01 758.64 L 562.51 754.61 L 520.22 736.74 L 520.19 736.73 L 538.80 693.36 L 550.40 666.34 L 552.41 661.65 L 565.33 631.54 L 572.31 615.28 L 577.91 602.22 L 588.42 577.75 L 592.63 567.93 L 606.36 535.93 L 623.50 496.00 L 625.30 491.82 L 625.55 491.93 L 640.18 498.23 L 653.55 504.02 L 653.61 504.04 L 669.13 510.67 L 671.38 511.32 L 673.46 510.69 L 679.33 508.92 L 685.59 517.85 L 703.20 542.88 L 713.76 558.17 L 721.06 565.78 Z "/>
<path class="zone" data-zone-id="11215710_020_03" d="M 625.72 782.10 L 621.69 790.42 L 606.72 824.93 L 600.63 838.97 L 592.38 857.93 L 576.78 893.79 L 575.10 897.64 L 571.44 906.16 L 562.08 927.92 L 556.16 941.69 L 553.78 947.23 L 525.08 1015.51 L 522.70 1021.50 L 522.65 1021.48 L 516.97 1019.03 L 514.81 1024.06 L 514.55 1024.67 L 466.58 1003.88 L 413.87 981.04 L 416.03 976.03 L 417.92 971.63 L 438.47 925.00 L 438.50 924.94 L 452.50 892.66 L 453.00 891.51 L 453.31 890.80 L 461.48 871.98 L 461.53 871.86 L 468.93 854.81 L 469.11 854.41 L 475.10 840.68 L 475.14 840.57 L 485.25 817.37 L 485.43 816.96 L 492.34 801.08 L 492.46 800.81 L 498.79 786.56 L 498.83 786.47 L 505.95 769.89 L 506.08 769.59 L 520.19 736.73 L 520.22 736.74 L 562.51 754.61 L 572.01 758.64 L 625.98 781.54 L 625.72 782.10 Z "/>
<path class="zone" data-zone-id="11215710_020_04" d="M 321.50 941.00 L 318.62 939.76 L 309.08 935.67 L 309.14 935.52 L 334.61 878.95 L 334.76 878.60 L 344.66 855.29 L 344.68 855.24 L 352.01 838.01 L 352.55 836.74 L 372.02 790.97 L 372.16 790.65 L 373.55 787.38 L 380.59 771.13 L 380.66 770.96 L 411.53 699.70 L 415.35 690.34 L 450.62 706.03 L 451.32 706.35 L 451.79 706.56 L 456.13 708.50 L 469.76 714.39 L 484.01 720.71 L 484.70 721.02 L 503.70 729.37 L 520.19 736.73 L 506.08 769.59 L 505.95 769.89 L 498.83 786.47 L 498.79 786.56 L 492.46 800.81 L 492.34 801.08 L 485.43 816.96 L 485.25 817.37 L 475.14 840.57 L 475.10 840.68 L 469.11 854.41 L 468.93 854.81 L 461.53 871.86 L 461.48 871.98 L 453.31 890.80 L 453.00 891.51 L 452.50 892.66 L 438.50 924.94 L 438.47 925.00 L 417.92 971.63 L 416.03 976.03 L 413.87 981.04 L 321.50 941.00 Z "/>
<path class="zone" data-zone-id="11215710_020_05" d="M 196.23 607.56 L 200.65 597.85 L 209.64 602.01 L 236.52 613.81 L 237.05 614.04 L 270.59 628.75 L 271.09 628.97 L 273.47 630.02 L 276.12 631.19 L 301.92 641.90 L 310.56 644.80 L 310.59 644.81 L 308.26 648.59 L 305.46 654.37 L 293.78 681.91 L 293.48 682.61 L 278.09 718.33 L 275.75 723.77 L 262.14 755.36 L 259.39 761.74 L 244.94 795.27 L 238.52 810.16 L 238.46 810.30 L 228.78 832.69 L 226.97 836.88 L 208.56 879.42 L 206.43 884.71 L 204.26 890.21 L 204.18 890.41 L 90.72 841.42 L 90.47 841.31 L 90.82 840.54 L 143.20 724.79 L 148.87 712.25 L 164.90 676.83 L 168.07 669.76 L 195.69 608.75 L 196.23 607.56 Z "/>
<path class="zone" data-zone-id="11215710_020_06" d="M 204.68 588.98 L 270.51 444.59 L 307.08 364.37 L 311.69 355.02 L 312.50 355.39 L 321.09 359.31 L 344.76 369.56 L 381.12 385.52 L 381.44 385.66 L 405.47 396.15 L 416.50 401.36 L 414.89 405.37 L 412.80 410.29 L 397.46 445.04 L 396.35 447.56 L 389.90 462.35 L 382.79 478.64 L 377.60 490.66 L 369.03 510.50 L 364.31 521.21 L 358.07 535.38 L 355.35 541.84 L 347.54 560.41 L 345.70 564.79 L 338.72 581.02 L 337.43 584.07 L 337.12 584.80 L 323.16 617.80 L 315.58 636.19 L 312.49 641.74 L 310.59 644.81 L 310.56 644.80 L 301.92 641.90 L 276.12 631.19 L 273.47 630.02 L 271.09 628.97 L 270.59 628.75 L 237.05 614.04 L 236.52 613.81 L 209.64 602.01 L 200.65 597.85 L 204.68 588.98 Z "/>
<path class="zone" data-zone-id="11215710_020_07" d="M 437.34 170.27 L 461.00 204.11 L 461.04 204.17 L 466.91 212.48 L 472.01 219.95 L 479.47 230.31 L 485.75 238.85 L 489.27 243.78 L 484.79 248.10 L 480.38 252.35 L 477.54 258.31 L 466.03 285.63 L 460.15 299.59 L 451.18 320.24 L 450.35 322.33 L 447.53 329.49 L 445.10 335.64 L 440.52 345.57 L 437.31 352.27 L 431.76 363.86 L 420.68 390.52 L 418.09 397.20 L 416.50 401.36 L 405.47 396.15 L 381.44 385.66 L 381.12 385.52 L 344.76 369.56 L 321.09 359.31 L 312.50 355.39 L 311.69 355.02 L 315.12 348.07 L 344.13 283.80 L 378.55 207.52 L 411.30 134.98 L 411.51 134.50 L 413.41 130.29 L 413.53 130.35 L 414.31 130.72 L 412.26 135.33 L 412.21 135.45 L 421.80 148.41 L 429.00 158.14 L 437.34 170.27 Z "/>
<path class="zone" data-zone-id="11215710_020_08" d="M 840.18 300.14 L 848.44 313.83 L 849.41 315.49 L 846.09 317.85 L 841.58 321.06 L 824.01 333.93 L 801.79 349.96 L 801.72 350.01 L 784.56 362.06 L 758.04 380.74 L 757.68 380.99 L 751.62 385.22 L 745.23 389.74 L 745.01 389.89 L 725.60 403.48 L 723.77 404.78 L 723.39 405.04 L 702.31 419.92 L 702.23 419.97 L 695.04 425.12 L 687.77 430.15 L 687.41 430.40 L 668.55 443.64 L 649.83 456.82 L 645.14 460.12 L 641.23 454.70 L 626.75 434.66 L 613.06 415.76 L 612.71 415.27 L 609.37 410.64 L 605.96 405.95 L 605.64 405.51 L 596.27 392.60 L 587.56 380.50 L 587.33 380.19 L 579.86 369.85 L 570.35 356.72 L 569.98 356.21 L 574.53 352.45 L 575.41 351.71 L 615.60 311.94 L 617.95 309.61 L 646.39 282.01 L 646.42 281.98 L 669.70 258.61 L 687.35 240.85 L 740.53 187.72 L 771.48 156.93 L 772.85 156.06 L 774.45 155.04 L 777.26 153.24 L 779.07 154.05 L 770.86 162.76 L 779.31 153.79 L 779.65 151.71 L 780.12 148.89 L 780.41 151.23 L 780.74 153.88 L 789.06 179.87 L 795.78 200.86 L 811.70 243.15 L 816.57 256.17 L 822.36 268.53 L 824.30 272.66 L 827.84 278.99 L 827.84 278.99 L 832.98 288.20 L 840.18 300.14 Z "/>
<path class="zone" data-zone-id="11215710_020_09" d="M 855.39 325.67 L 865.16 347.91 L 873.33 359.55 L 879.50 368.80 L 886.11 378.71 L 898.25 400.09 L 913.02 424.24 L 913.25 424.62 L 913.86 425.61 L 910.09 428.25 L 905.46 431.51 L 865.89 460.65 L 834.52 483.75 L 800.96 508.46 L 800.10 509.09 L 765.19 534.14 L 760.88 537.23 L 760.74 537.33 L 729.58 559.11 L 725.54 562.27 L 721.06 565.78 L 713.76 558.17 L 703.20 542.88 L 685.59 517.85 L 679.33 508.92 L 673.46 510.69 L 671.38 511.32 L 669.13 510.67 L 653.61 504.04 L 653.55 504.02 L 640.18 498.23 L 625.55 491.93 L 625.30 491.82 L 636.20 466.41 L 645.14 460.12 L 649.83 456.82 L 668.55 443.64 L 687.41 430.40 L 687.77 430.15 L 695.04 425.12 L 702.23 419.97 L 702.31 419.92 L 723.39 405.04 L 723.77 404.78 L 725.60 403.48 L 745.01 389.89 L 745.23 389.74 L 751.62 385.22 L 757.68 380.99 L 758.04 380.74 L 784.56 362.06 L 801.72 350.01 L 801.79 349.96 L 824.01 333.93 L 841.58 321.06 L 846.09 317.85 L 849.41 315.49 L 855.39 325.67 Z "/>
<path class="zone" data-zone-id="11215710_020_10" d="M 983.95 542.19 L 990.67 555.61 L 992.34 558.42 L 1016.28 598.76 L 1027.28 617.31 L 1039.28 637.54 L 1046.60 648.67 L 1047.34 649.80 L 1063.52 674.39 L 1042.57 729.57 L 1038.37 740.65 L 1025.00 775.99 L 983.97 884.45 L 962.58 874.92 L 924.73 828.61 L 924.48 828.31 L 920.25 822.75 L 919.61 821.93 L 894.25 789.78 L 890.71 785.12 L 889.97 784.14 L 890.04 783.86 L 894.63 770.55 L 898.85 759.27 L 911.86 727.56 L 911.99 727.22 L 920.24 705.08 L 927.92 684.61 L 927.95 684.54 L 933.42 669.91 L 944.90 639.20 L 957.65 605.09 L 960.00 598.79 L 976.63 554.59 L 981.45 546.42 L 983.95 542.19 Z "/>
<path class="zone" data-zone-id="11215710_020_11" d="M 206.43 884.71 L 208.56 879.42 L 226.97 836.88 L 228.78 832.69 L 238.46 810.30 L 238.52 810.16 L 244.94 795.27 L 259.39 761.74 L 262.14 755.36 L 275.75 723.77 L 278.09 718.33 L 293.48 682.61 L 293.78 681.91 L 305.46 654.37 L 308.26 648.59 L 310.59 644.81 L 378.04 674.38 L 378.76 674.70 L 379.53 675.03 L 404.71 686.09 L 415.35 690.34 L 411.53 699.70 L 380.66 770.96 L 380.59 771.13 L 373.55 787.38 L 372.16 790.65 L 372.02 790.97 L 352.55 836.74 L 352.01 838.01 L 344.68 855.24 L 344.66 855.29 L 334.76 878.60 L 334.61 878.95 L 309.14 935.52 L 309.08 935.67 L 300.16 931.86 L 204.18 890.41 L 204.26 890.21 L 206.43 884.71 Z "/>
<path class="zone" data-zone-id="11215710_020_00" d="M 476.02 647.06 L 461.19 640.62 L 439.61 631.25 L 452.98 602.33 L 454.41 599.23 L 465.66 574.85 L 477.28 545.77 L 487.44 550.20 L 494.40 533.60 L 515.60 542.87 L 527.07 547.88 L 551.13 558.40 L 541.09 581.73 L 539.20 586.13 L 542.32 587.50 L 577.62 602.91 L 572.31 615.28 L 565.33 631.54 L 552.41 661.65 L 551.24 664.37 L 530.87 655.51 L 516.46 649.24 L 512.55 647.54 L 506.91 660.47 L 476.02 647.06 Z "/>
<path class="zone" data-zone-id="11215710_020_01" d="M 623.50 496.00 L 606.36 535.93 L 592.63 567.93 L 588.42 577.75 L 577.91 602.22 L 577.62 602.91 L 542.32 587.50 L 539.20 586.13 L 541.09 581.73 L 551.13 558.40 L 527.07 547.88 L 515.60 542.87 L 494.40 533.60 L 487.44 550.20 L 477.28 545.77 L 481.58 535.03 L 481.67 534.82 L 485.85 524.90 L 489.41 516.45 L 495.73 502.33 L 501.14 490.25 L 507.54 475.96 L 517.28 453.79 L 518.94 450.06 L 520.84 445.80 L 521.36 446.02 L 530.73 450.00 L 530.86 450.06 L 553.61 460.12 L 569.72 467.27 L 570.13 467.45 L 600.23 480.69 L 609.84 484.96 L 625.30 491.82 L 623.50 496.00 Z "/>
<path class="zone" data-zone-id="11215710_020_02" d="M 550.40 666.34 L 538.80 693.36 L 520.19 736.73 L 503.70 729.37 L 484.70 721.02 L 484.01 720.71 L 469.76 714.39 L 456.13 708.50 L 451.79 706.56 L 451.32 706.35 L 450.62 706.03 L 415.35 690.34 L 418.93 682.24 L 437.79 635.18 L 438.69 633.24 L 439.61 631.25 L 461.19 640.62 L 476.02 647.06 L 506.91 660.47 L 512.55 647.54 L 516.46 649.24 L 530.87 655.51 L 551.24 664.37 L 550.40 666.34 Z "/>
<path class="zone" data-zone-id="11215710_020_13" d="M 625.30 491.82 L 609.84 484.96 L 600.23 480.69 L 570.13 467.45 L 569.72 467.27 L 553.61 460.12 L 530.86 450.06 L 530.73 450.00 L 521.36 446.02 L 520.84 445.80 L 495.15 434.88 L 494.91 434.77 L 484.77 430.41 L 484.31 430.21 L 483.66 429.93 L 471.08 424.64 L 462.22 420.94 L 462.13 420.91 L 426.01 405.84 L 416.50 401.36 L 418.09 397.20 L 420.68 390.52 L 431.76 363.86 L 437.31 352.27 L 440.52 345.57 L 445.10 335.64 L 447.53 329.49 L 450.35 322.33 L 451.18 320.24 L 460.15 299.59 L 466.03 285.63 L 477.54 258.31 L 480.38 252.35 L 484.79 248.10 L 489.27 243.78 L 508.22 270.30 L 510.86 273.99 L 542.40 318.07 L 542.57 318.31 L 551.00 329.77 L 564.51 348.64 L 564.64 348.82 L 567.24 352.43 L 569.98 356.21 L 570.35 356.72 L 579.86 369.85 L 587.33 380.19 L 587.56 380.50 L 596.27 392.60 L 605.64 405.51 L 605.96 405.95 L 609.37 410.64 L 612.71 415.27 L 613.06 415.76 L 626.75 434.66 L 641.23 454.70 L 645.14 460.12 L 636.20 466.41 L 625.30 491.82 Z "/>
<path class="zone" data-zone-id="11215710_020_14" d="M 520.84 445.80 L 518.94 450.06 L 517.28 453.79 L 507.54 475.96 L 501.14 490.25 L 495.73 502.33 L 489.41 516.45 L 485.85 524.90 L 481.67 534.82 L 481.58 535.03 L 465.66 574.85 L 454.41 599.23 L 452.98 602.33 L 438.69 633.24 L 437.79 635.18 L 418.93 682.24 L 415.35 690.34 L 404.71 686.09 L 379.53 675.03 L 378.76 674.70 L 378.04 674.38 L 310.59 644.81 L 312.49 641.74 L 315.58 636.19 L 323.16 617.80 L 337.12 584.80 L 337.43 584.07 L 338.72 581.02 L 345.70 564.79 L 347.54 560.41 L 355.35 541.84 L 358.07 535.38 L 364.31 521.21 L 369.03 510.50 L 377.60 490.66 L 382.79 478.64 L 389.90 462.35 L 396.35 447.56 L 397.46 445.04 L 412.80 410.29 L 414.89 405.37 L 416.50 401.36 L 426.01 405.84 L 462.13 420.91 L 462.22 420.94 L 471.08 424.64 L 483.66 429.93 L 484.31 430.21 L 484.77 430.41 L 494.91 434.77 L 495.15 434.88 L 520.84 445.80 Z "/>
<path class="zone" data-zone-id="11215710_020_15" d="M 564.64 348.82 L 564.51 348.64 L 551.00 329.77 L 542.57 318.31 L 542.40 318.07 L 510.86 273.99 L 508.22 270.30 L 489.27 243.78 L 485.75 238.85 L 479.47 230.31 L 472.01 219.95 L 466.91 212.48 L 461.04 204.17 L 461.00 204.11 L 437.34 170.27 L 429.00 158.14 L 421.80 148.41 L 412.21 135.45 L 412.26 135.33 L 414.31 130.72 L 422.39 134.59 L 440.18 141.57 L 458.79 148.87 L 483.17 158.45 L 498.19 164.34 L 507.36 167.64 L 515.92 170.72 L 534.73 178.05 L 553.47 185.36 L 578.51 194.93 L 581.36 196.02 L 591.05 199.72 L 606.99 206.09 L 619.46 210.84 L 634.42 216.54 L 640.04 218.68 L 653.48 223.80 L 670.31 230.26 L 674.60 231.90 L 681.42 234.52 L 687.72 233.04 L 700.18 220.67 L 710.90 210.04 L 719.22 201.78 L 720.49 200.53 L 729.91 191.18 L 743.10 178.10 L 758.63 162.70 L 767.52 153.88 L 770.96 150.42 L 777.26 153.24 L 774.45 155.04 L 772.85 156.06 L 771.48 156.93 L 740.53 187.72 L 687.35 240.85 L 669.70 258.61 L 646.42 281.98 L 646.39 282.01 L 617.95 309.61 L 615.60 311.94 L 575.41 351.71 L 574.53 352.45 L 569.98 356.21 L 567.24 352.43 L 564.64 348.82 Z "/>
</svg>
