<svg xmlns="http://www.w3.org/2000/svg" viewBox="0 0 1155 1155" width="1155" height="1155">
<path class="zone" data-zone-id="11215860_030_00" d="M 480.77 222.16 L 473.78 243.85 L 461.52 262.35 L 448.11 280.84 L 432.97 302.40 L 420.46 322.58 L 419.00 324.74 L 429.79 322.22 L 434.55 335.79 L 365.90 368.51 L 365.53 368.68 L 365.53 368.68 L 365.39 368.75 L 356.63 372.14 L 342.86 383.27 L 339.29 391.67 L 323.41 401.78 L 237.68 364.17 L 259.60 363.57 L 267.03 369.16 L 268.24 370.07 L 279.45 378.49 L 293.70 378.10 L 300.37 377.92 L 313.42 377.57 L 332.18 364.70 L 354.34 349.49 L 359.26 354.55 L 377.46 350.30 L 376.62 346.28 L 374.09 334.15 L 380.51 326.39 L 391.47 313.14 L 398.36 304.81 L 406.91 294.48 L 419.99 278.67 L 439.21 255.45 L 448.82 253.55 L 451.37 238.00 L 455.72 231.41 L 467.32 213.83 L 468.67 218.72 L 476.29 208.38 L 480.77 222.16 Z "/>
<path class="zone" data-zone-id="11215860_030_01" d="M 974.59 481.12 L 940.49 519.95 L 867.80 601.49 L 859.22 611.13 L 852.07 663.30 L 746.34 711.87 L 706.02 772.62 L 673.98 806.63 L 643.26 825.09 L 601.29 854.33 L 517.71 894.77 L 460.34 906.14 L 454.62 908.47 L 430.99 924.64 L 409.81 942.29 L 385.80 962.83 L 384.58 966.00 L 377.31 980.06 L 364.93 990.54 L 359.27 984.10 L 359.27 984.10 L 352.73 978.35 L 320.43 949.94 L 296.94 935.13 L 218.90 898.32 L 201.14 889.94 L 169.89 877.01 L 158.92 872.47 L 117.88 855.49 L 105.45 851.51 L 93.33 847.63 L 91.12 846.74 L 100.15 825.25 L 105.89 803.09 L 111.22 788.57 L 112.44 788.64 L 114.44 783.09 L 128.09 745.24 L 139.93 713.46 L 149.99 708.94 L 155.77 705.82 L 162.46 710.96 L 170.77 713.73 L 182.84 710.17 L 197.47 705.92 L 195.83 701.03 L 193.13 697.73 L 189.35 693.23 L 208.92 699.47 L 217.48 675.45 L 192.10 668.22 L 196.89 663.23 L 200.10 659.81 L 204.61 654.65 L 208.88 649.67 L 218.61 633.77 L 226.29 621.08 L 228.63 617.20 L 230.34 614.46 L 231.40 611.55 L 227.06 608.91 L 227.38 608.16 L 209.69 597.62 L 209.12 595.74 L 204.55 580.77 L 203.47 577.24 L 199.85 569.50 L 196.03 561.33 L 141.35 545.65 L 142.33 541.39 L 143.53 537.40 L 144.34 535.08 L 145.79 531.47 L 146.86 529.20 L 147.61 527.62 L 148.83 525.34 L 151.05 521.36 L 159.97 507.78 L 161.57 505.57 L 167.45 493.22 L 168.88 490.81 L 175.97 478.85 L 177.04 477.60 L 178.41 475.18 L 181.84 469.11 L 192.54 455.62 L 197.84 448.94 L 204.07 431.73 L 209.04 417.99 L 209.75 416.04 L 214.83 403.38 L 219.40 386.42 L 227.85 364.47 L 232.27 365.84 L 239.31 349.93 L 241.98 351.44 L 246.40 353.66 L 256.00 360.87 L 258.00 362.37 L 259.60 363.57 L 237.68 364.17 L 323.41 401.78 L 339.29 391.67 L 342.86 383.27 L 356.63 372.14 L 365.39 368.75 L 365.53 368.68 L 365.53 368.68 L 365.90 368.51 L 434.55 335.79 L 429.79 322.22 L 419.00 324.74 L 420.46 322.58 L 432.97 302.40 L 448.11 280.84 L 461.52 262.35 L 473.78 243.85 L 480.77 222.16 L 476.29 208.38 L 482.45 200.02 L 484.73 196.92 L 498.85 164.45 L 547.73 186.90 L 802.03 297.15 L 898.64 339.23 L 1063.92 411.40 L 1063.90 411.51 L 1059.02 436.89 L 1055.31 457.36 L 1052.62 473.54 L 1052.35 473.20 L 1021.56 434.30 L 990.10 464.11 L 974.59 481.12 Z "/>
</svg>
