<svg xmlns="http://www.w3.org/2000/svg" viewBox="0 0 1155 1155" width="1155" height="1155">
<path class="zone" data-zone-id="11215780_040_01" d="M 412.93 605.89 L 377.97 588.52 L 377.62 588.35 L 345.03 571.96 L 344.98 571.93 L 302.21 550.45 L 300.12 549.40 L 294.98 546.82 L 274.65 537.02 L 254.45 527.29 L 260.02 516.04 L 267.42 501.07 L 277.38 480.91 L 286.49 462.37 L 294.00 447.10 L 294.03 447.05 L 302.43 451.13 L 335.62 467.53 L 342.59 470.97 L 383.80 491.32 L 410.17 504.22 L 446.68 522.07 L 458.67 528.64 L 441.58 563.02 L 423.28 599.85 L 418.83 608.81 L 412.93 605.89 Z "/>
<path class="zone" data-zone-id="11215780_040_02" d="M 254.45 527.29 L 223.66 512.05 L 218.45 509.47 L 213.84 507.19 L 196.07 498.21 L 184.08 492.15 L 172.00 486.36 L 159.47 480.34 L 154.51 477.96 L 88.64 444.98 L 92.48 436.64 L 101.07 419.05 L 101.68 417.81 L 114.55 391.65 L 127.89 364.85 L 138.90 370.42 L 160.75 381.21 L 185.41 393.38 L 211.86 406.43 L 214.98 407.97 L 229.43 415.10 L 243.45 422.06 L 283.31 441.84 L 294.03 447.05 L 294.00 447.10 L 286.49 462.37 L 277.38 480.91 L 267.42 501.07 L 260.02 516.04 L 254.45 527.29 Z "/>
<path class="zone" data-zone-id="11215780_040_03" d="M 127.89 364.85 L 128.01 364.61 L 136.62 347.02 L 153.62 312.65 L 168.06 283.94 L 195.07 297.46 L 195.15 297.50 L 215.31 307.36 L 219.97 309.64 L 245.50 322.02 L 246.42 322.49 L 333.97 366.27 L 328.52 377.71 L 322.59 389.59 L 307.68 419.50 L 294.03 447.05 L 283.31 441.84 L 243.45 422.06 L 229.43 415.10 L 214.98 407.97 L 211.86 406.43 L 185.41 393.38 L 160.75 381.21 L 138.90 370.42 L 127.89 364.85 Z "/>
<path class="zone" data-zone-id="11215780_040_04" d="M 333.97 366.27 L 338.81 368.62 L 357.86 377.85 L 418.99 408.66 L 428.25 413.33 L 451.85 425.03 L 498.63 448.21 L 476.72 492.30 L 469.43 506.98 L 460.79 524.37 L 458.85 528.27 L 458.67 528.64 L 446.68 522.07 L 410.17 504.22 L 383.80 491.32 L 342.59 470.97 L 335.62 467.53 L 302.43 451.13 L 294.03 447.05 L 307.68 419.50 L 322.59 389.59 L 328.52 377.71 L 333.97 366.27 Z "/>
<path class="zone" data-zone-id="11215780_040_05" d="M 498.63 448.21 L 576.85 486.96 L 589.62 493.27 L 663.69 529.89 L 643.71 569.65 L 623.72 609.42 L 623.65 609.57 L 612.58 604.22 L 579.09 587.94 L 558.54 577.95 L 535.98 566.86 L 503.76 551.01 L 494.54 546.48 L 462.23 530.59 L 458.67 528.64 L 458.85 528.27 L 460.79 524.37 L 469.43 506.98 L 476.72 492.30 L 498.63 448.21 Z "/>
<path class="zone" data-zone-id="11215780_040_06" d="M 663.69 529.89 L 686.19 540.82 L 707.80 551.88 L 708.19 552.08 L 755.18 574.94 L 765.39 579.91 L 828.07 611.41 L 788.58 690.87 L 776.74 685.88 L 745.22 670.13 L 708.40 651.72 L 706.59 650.81 L 668.37 631.77 L 629.80 612.55 L 623.65 609.57 L 623.72 609.42 L 643.71 569.65 L 663.69 529.89 Z "/>
<path class="zone" data-zone-id="11215780_040_07" d="M 828.07 611.41 L 828.17 611.46 L 910.28 652.29 L 931.29 662.71 L 992.25 692.93 L 992.40 693.13 L 981.69 713.89 L 972.02 732.62 L 970.92 734.74 L 970.81 734.97 L 961.59 753.97 L 952.38 772.90 L 948.75 771.10 L 898.24 746.08 L 791.67 692.18 L 788.58 690.87 L 828.07 611.41 Z "/>
<path class="zone" data-zone-id="11215780_040_08" d="M 992.40 693.13 L 995.54 697.16 L 1007.27 713.90 L 1021.26 734.96 L 1035.26 755.78 L 1051.26 779.60 L 1051.96 780.65 L 1058.55 790.48 L 1062.52 796.85 L 1063.73 798.91 L 1066.36 803.39 L 1057.47 807.77 L 972.90 847.65 L 929.33 865.22 L 919.57 871.07 L 914.90 862.04 L 911.84 856.12 L 911.09 855.51 L 914.32 849.99 L 917.23 845.02 L 932.17 814.23 L 944.40 789.29 L 945.68 786.67 L 952.06 773.57 L 952.38 772.90 L 961.59 753.97 L 970.81 734.97 L 970.92 734.74 L 972.02 732.62 L 981.69 713.89 L 992.40 693.13 Z "/>
<path class="zone" data-zone-id="11215780_040_09" d="M 911.09 855.51 L 903.17 849.02 L 893.20 843.54 L 886.05 839.61 L 875.90 834.61 L 866.39 829.92 L 830.04 812.00 L 817.54 805.84 L 791.45 793.30 L 775.78 785.57 L 747.73 771.73 L 749.32 768.47 L 757.92 751.12 L 767.23 733.85 L 777.71 712.73 L 788.21 691.62 L 788.58 690.87 L 791.67 692.18 L 898.24 746.08 L 948.75 771.10 L 952.38 772.90 L 952.06 773.57 L 945.68 786.67 L 944.40 789.29 L 932.17 814.23 L 917.23 845.02 L 914.32 849.99 L 911.09 855.51 Z "/>
<path class="zone" data-zone-id="11215780_040_10" d="M 747.73 771.73 L 719.19 757.38 L 699.10 747.29 L 664.63 730.38 L 631.61 714.18 L 583.28 690.25 L 595.27 665.99 L 595.28 665.97 L 609.50 637.70 L 623.65 609.57 L 629.80 612.55 L 668.37 631.77 L 706.59 650.81 L 708.40 651.72 L 745.22 670.13 L 776.74 685.88 L 788.58 690.87 L 788.21 691.62 L 777.71 712.73 L 767.23 733.85 L 757.92 751.12 L 749.32 768.47 L 747.73 771.73 Z "/>
<path class="zone" data-zone-id="11215780_040_11" d="M 583.28 690.25 L 531.05 664.38 L 501.25 649.63 L 446.53 622.53 L 418.83 608.81 L 423.28 599.85 L 441.58 563.02 L 458.67 528.64 L 462.23 530.59 L 494.54 546.48 L 503.76 551.01 L 535.98 566.86 L 558.54 577.95 L 579.09 587.94 L 612.58 604.22 L 623.65 609.57 L 609.50 637.70 L 595.28 665.97 L 595.27 665.99 L 583.28 690.25 Z "/>
</svg>
