<svg xmlns="http://www.w3.org/2000/svg" viewBox="0 0 1154 1155" width="1154" height="1155">
<path class="zone" data-zone-id="11215780_010_01" d="M 938.91 592.11 L 936.27 594.30 L 934.60 597.43 L 933.59 599.32 L 933.76 611.20 L 934.27 616.66 L 894.34 605.46 L 887.17 603.66 L 877.11 602.33 L 856.30 604.25 L 851.40 605.01 L 849.43 607.29 L 849.22 607.37 L 849.07 607.42 L 847.46 609.94 L 844.92 610.21 L 843.74 609.26 L 843.47 609.35 L 842.71 609.61 L 840.44 610.24 L 837.60 614.28 L 835.30 620.21 L 830.19 621.00 L 826.63 623.65 L 825.29 625.05 L 819.04 640.42 L 819.03 641.56 L 816.14 641.40 L 816.00 641.39 L 814.98 640.32 L 814.73 640.05 L 814.71 640.05 L 814.01 639.92 L 801.23 650.96 L 790.77 660.38 L 784.48 666.46 L 782.99 670.27 L 781.16 679.49 L 780.82 685.93 L 784.70 697.87 L 784.99 698.76 L 790.60 714.25 L 795.69 729.88 L 801.23 749.26 L 803.97 761.87 L 805.66 771.00 L 807.55 777.20 L 809.42 782.09 L 810.46 784.80 L 805.46 788.98 L 804.71 790.23 L 804.19 792.44 L 796.09 822.14 L 797.04 827.27 L 798.10 831.27 L 803.54 838.03 L 818.17 851.83 L 818.17 851.83 L 814.42 858.61 L 816.76 860.75 L 810.47 870.12 L 813.67 859.96 L 814.59 857.06 L 805.97 850.33 L 803.19 847.55 L 801.98 843.61 L 684.49 853.22 L 529.15 865.69 L 493.82 850.68 L 458.54 832.78 L 457.59 832.77 L 440.18 829.40 L 424.30 823.76 L 402.93 827.31 L 400.57 827.62 L 373.93 825.62 L 348.39 809.97 L 292.34 792.31 L 244.98 757.43 L 220.66 757.49 L 194.14 747.45 L 177.38 734.87 L 178.10 732.34 L 150.75 712.33 L 131.05 690.30 L 121.75 675.84 L 111.59 660.03 L 92.33 658.43 L 84.90 657.81 L 84.77 657.80 L 82.89 655.76 L 72.03 650.46 L 102.49 586.61 L 130.61 525.82 L 134.76 515.83 L 137.99 507.43 L 139.81 501.67 L 140.22 500.68 L 153.30 462.34 L 168.75 417.06 L 165.51 426.45 L 153.22 462.31 L 150.66 469.79 L 141.66 495.85 L 151.16 465.87 L 152.46 462.02 L 152.46 462.02 L 152.56 461.73 L 160.63 437.72 L 169.67 411.56 L 172.49 403.94 L 178.55 387.62 L 179.86 388.11 L 191.97 392.62 L 193.98 393.37 L 221.80 404.51 L 222.82 404.03 L 225.35 404.01 L 232.70 400.93 L 238.19 399.11 L 252.73 395.32 L 252.83 395.29 L 258.77 393.59 L 282.61 386.75 L 297.69 382.70 L 307.79 379.12 L 309.30 378.58 L 313.70 377.02 L 314.37 376.77 L 323.80 373.21 L 333.78 365.04 L 336.24 363.02 L 346.06 356.16 L 347.31 355.29 L 354.76 351.39 L 355.94 350.20 L 363.83 339.14 L 365.60 336.95 L 365.70 336.81 L 370.10 331.37 L 370.13 331.33 L 376.38 324.55 L 382.64 320.51 L 384.68 319.19 L 388.75 317.40 L 392.04 323.98 L 401.76 327.57 L 401.55 327.13 L 400.68 325.60 L 399.27 324.13 L 395.53 321.52 L 391.77 317.81 L 391.01 316.37 L 393.31 315.26 L 396.20 312.52 L 403.06 307.43 L 409.14 304.00 L 416.59 299.96 L 424.21 294.97 L 428.14 292.19 L 433.04 288.49 L 437.53 284.88 L 439.64 286.62 L 446.90 292.63 L 448.11 293.64 L 454.88 299.28 L 455.35 299.68 L 456.19 300.40 L 463.78 306.79 L 465.71 308.42 L 474.47 315.62 L 486.42 324.99 L 490.81 328.46 L 493.88 330.87 L 503.84 336.76 L 506.26 338.52 L 506.70 338.84 L 509.75 341.99 L 523.19 358.03 L 526.62 361.19 L 529.04 362.60 L 533.68 364.72 L 538.43 366.48 L 542.20 366.77 L 556.86 366.51 L 576.30 364.98 L 578.67 364.43 L 580.45 363.74 L 582.22 362.61 L 583.63 361.23 L 584.94 359.40 L 592.19 344.64 L 599.65 329.42 L 601.83 329.33 L 651.41 327.47 L 654.13 327.37 L 656.22 327.69 L 657.31 327.86 L 672.14 335.61 L 700.29 350.12 L 735.59 368.32 L 737.59 369.51 L 738.76 371.88 L 739.57 375.43 L 739.93 380.40 L 740.01 381.46 L 741.64 386.67 L 781.54 407.20 L 782.58 407.70 L 800.22 416.29 L 816.10 424.02 L 825.22 428.46 L 827.89 429.27 L 828.40 429.42 L 833.36 430.16 L 859.51 418.60 L 884.12 405.97 L 889.79 403.00 L 895.95 399.77 L 900.84 397.20 L 910.28 391.54 L 915.57 388.37 L 939.16 378.85 L 984.95 357.24 L 987.48 355.99 L 988.39 357.32 L 990.62 356.31 L 991.18 356.05 L 994.27 359.18 L 996.15 360.84 L 999.44 362.52 L 1003.45 363.13 L 1007.35 363.50 L 1041.79 366.14 L 1043.90 365.50 L 1061.46 360.16 L 1066.10 370.78 L 1069.97 379.63 L 1070.08 379.92 L 1081.97 411.55 L 1081.95 411.55 L 1063.28 418.47 L 1063.22 418.33 L 1058.23 405.00 L 1055.97 421.18 L 1055.97 421.18 L 1053.24 423.28 L 1045.25 429.44 L 1028.61 451.70 L 1028.21 452.39 L 1024.10 459.45 L 1021.32 461.96 L 1012.43 469.98 L 1002.54 478.90 L 996.22 484.60 L 996.12 484.69 L 995.52 485.23 L 991.80 489.93 L 984.15 499.57 L 968.44 519.71 L 966.80 521.49 L 960.10 529.97 L 969.70 541.56 L 964.56 546.86 L 966.82 549.61 L 950.29 567.19 L 944.65 573.19 L 936.01 577.35 L 937.92 589.12 L 938.91 592.11 Z "/>
</svg>
