<svg xmlns="http://www.w3.org/2000/svg" viewBox="0 0 1155 1155" width="1155" height="1155">
<path class="zone" data-zone-id="11215810_110_00" d="M 678.39 832.86 L 679.45 841.21 L 685.06 848.90 L 686.67 857.74 L 687.92 859.98 L 700.59 861.63 L 708.58 862.66 L 707.16 873.65 L 704.61 873.92 L 699.55 869.62 L 682.86 867.46 L 675.41 862.30 L 623.42 851.10 L 620.27 847.41 L 622.50 844.16 L 621.36 836.78 L 600.62 823.50 L 617.84 816.51 L 628.66 815.16 L 639.00 813.87 L 670.49 822.19 L 678.39 832.86 Z "/>
<path class="zone" data-zone-id="11215810_110_01" d="M 128.72 736.33 L 148.87 735.20 L 163.36 725.50 L 179.32 721.33 L 183.22 720.31 L 202.74 715.21 L 218.11 718.35 L 252.38 741.96 L 266.43 726.08 L 292.68 702.66 L 312.89 698.56 L 316.20 693.54 L 328.61 674.70 L 345.22 647.89 L 364.14 604.78 L 368.20 602.15 L 377.65 593.77 L 393.05 579.48 L 394.81 578.66 L 404.06 574.37 L 408.08 573.51 L 426.94 569.46 L 441.39 497.15 L 452.03 443.98 L 452.53 444.10 L 452.88 444.74 L 485.57 451.99 L 457.13 445.17 L 460.34 445.92 L 485.80 451.84 L 485.80 451.84 L 485.80 451.84 L 486.41 451.81 L 531.14 449.11 L 556.38 440.88 L 556.51 440.84 L 556.51 440.84 L 556.51 440.84 L 573.99 413.68 L 576.72 409.41 L 605.30 386.09 L 605.30 386.09 L 576.72 409.41 L 576.90 409.13 L 587.04 400.93 L 589.75 398.72 L 604.86 386.43 L 605.47 385.94 L 607.52 384.81 L 609.84 383.53 L 610.04 383.42 L 610.04 383.42 L 610.04 383.42 L 623.84 360.50 L 625.31 358.09 L 629.49 351.13 L 636.91 338.77 L 636.91 338.75 L 646.33 329.61 L 670.89 315.24 L 674.44 313.16 L 679.03 310.18 L 688.36 304.12 L 689.35 303.49 L 693.09 301.05 L 693.16 300.99 L 693.08 301.08 L 674.52 313.13 L 688.41 304.12 L 693.11 301.14 L 708.48 283.79 L 710.13 281.93 L 696.56 297.17 L 702.33 290.66 L 708.41 283.80 L 709.75 282.27 L 710.08 281.92 L 715.91 280.36 L 715.91 280.36 L 717.53 279.93 L 720.79 279.05 L 724.90 277.93 L 737.26 274.56 L 737.26 274.56 L 737.52 274.48 L 737.53 274.48 L 737.53 274.48 L 744.17 272.71 L 754.14 269.97 L 754.14 269.97 L 758.02 268.90 L 758.02 268.90 L 758.02 268.90 L 758.24 268.76 L 765.60 264.03 L 780.37 254.59 L 780.37 254.59 L 780.48 254.65 L 782.93 256.09 L 787.06 258.50 L 796.02 263.76 L 804.84 268.99 L 806.02 269.69 L 806.03 269.70 L 806.09 269.73 L 807.95 270.80 L 812.24 273.31 L 812.91 273.70 L 813.14 273.77 L 818.30 275.43 L 819.68 275.88 L 822.02 276.59 L 831.11 279.36 L 838.74 281.75 L 847.95 279.21 L 849.97 278.66 L 855.31 277.18 L 871.00 272.85 L 871.95 272.58 L 872.73 272.35 L 873.15 272.25 L 873.69 272.12 L 873.75 272.11 L 874.08 272.01 L 875.11 271.69 L 877.94 270.82 L 881.04 269.86 L 883.55 269.09 L 886.71 268.12 L 887.21 267.99 L 887.31 267.96 L 887.75 267.85 L 894.14 265.71 L 897.08 264.73 L 898.65 264.20 L 902.67 262.84 L 903.86 262.43 L 904.04 262.37 L 904.93 262.07 L 907.38 261.23 L 910.97 260.04 L 911.13 259.99 L 911.64 259.82 L 912.14 259.64 L 914.50 258.84 L 915.18 258.60 L 919.07 256.40 L 922.05 254.71 L 930.94 249.64 L 934.55 247.57 L 941.77 243.43 L 948.65 238.03 L 959.50 229.65 L 959.94 229.30 L 967.93 223.12 L 971.17 220.58 L 976.57 216.36 L 977.63 215.53 L 977.69 215.49 L 977.69 215.49 L 977.78 215.51 L 977.78 215.51 L 977.86 215.54 L 985.12 218.10 L 986.67 218.66 L 990.28 219.94 L 992.07 220.58 L 992.09 220.59 L 992.20 220.63 L 1001.82 224.03 L 1007.10 225.94 L 1009.40 226.76 L 1024.86 234.12 L 1031.26 237.15 L 1038.96 240.85 L 1050.55 246.35 L 1053.44 247.72 L 1054.62 248.28 L 1063.22 252.34 L 1067.43 254.40 L 1069.28 255.29 L 1069.28 255.29 L 1070.33 255.80 L 1071.16 256.19 L 1074.19 257.63 L 1074.17 257.62 L 1071.18 256.19 L 1073.55 257.30 L 1074.21 257.63 L 1082.36 261.26 L 1082.36 261.26 L 1053.35 319.45 L 1050.76 324.48 L 1045.45 333.00 L 1043.31 336.28 L 1039.36 341.25 L 1033.38 347.55 L 1029.22 351.67 L 1019.08 361.59 L 1017.18 364.67 L 1013.64 368.00 L 1009.94 371.39 L 1005.33 375.60 L 1001.38 379.21 L 996.80 383.39 L 993.00 386.87 L 987.96 391.48 L 985.67 393.58 L 979.75 398.99 L 971.40 406.64 L 966.42 411.68 L 960.30 417.84 L 954.89 425.11 L 953.09 429.82 L 951.47 434.73 L 950.40 438.82 L 947.02 450.32 L 945.66 455.08 L 943.73 461.59 L 943.21 466.27 L 943.52 470.06 L 944.21 473.28 L 947.02 480.70 L 949.29 486.36 L 952.29 492.24 L 954.54 495.52 L 957.44 499.64 L 960.91 504.02 L 968.94 514.40 L 972.17 518.95 L 974.32 522.48 L 975.83 525.76 L 977.72 532.98 L 980.31 558.57 L 980.28 565.41 L 979.07 572.16 L 978.08 575.83 L 974.83 584.31 L 972.03 590.38 L 965.24 605.51 L 960.01 617.18 L 956.65 624.66 L 955.71 626.77 L 951.43 636.30 L 949.26 641.14 L 944.74 651.23 L 939.57 662.62 L 934.57 675.81 L 932.33 686.41 L 931.10 695.30 L 930.21 720.41 L 929.11 731.32 L 927.40 743.30 L 925.94 750.12 L 919.42 769.88 L 912.11 789.42 L 906.00 803.36 L 904.61 805.84 L 901.09 811.06 L 894.19 819.09 L 879.13 831.07 L 865.67 837.39 L 835.83 842.45 L 821.46 845.26 L 819.53 845.76 L 800.80 852.88 L 783.23 867.27 L 774.72 878.57 L 773.15 878.55 L 766.97 875.22 L 762.99 877.76 L 754.18 875.16 L 751.12 874.25 L 740.32 871.07 L 734.48 873.32 L 728.41 870.75 L 714.80 876.40 L 713.66 876.87 L 708.55 873.51 L 707.16 873.65 L 708.58 862.66 L 700.59 861.63 L 687.92 859.98 L 686.67 857.74 L 685.06 848.90 L 679.45 841.21 L 678.39 832.86 L 670.49 822.19 L 639.00 813.87 L 628.66 815.16 L 617.84 816.51 L 600.62 823.50 L 621.36 836.78 L 622.50 844.16 L 620.27 847.41 L 600.69 824.52 L 597.24 837.59 L 595.62 839.70 L 590.92 845.82 L 583.72 854.92 L 581.04 858.01 L 578.72 860.66 L 574.33 863.81 L 568.16 867.55 L 564.89 868.50 L 536.73 875.17 L 523.95 877.85 L 520.22 877.95 L 512.68 877.24 L 507.52 874.76 L 500.47 870.77 L 481.45 858.86 L 475.42 855.77 L 469.41 853.43 L 465.60 852.07 L 458.67 850.34 L 452.82 849.34 L 422.30 846.98 L 396.20 846.34 L 366.08 849.65 L 354.76 852.67 L 345.75 855.09 L 333.20 858.45 L 319.54 864.70 L 287.07 872.07 L 239.90 886.63 L 225.35 893.84 L 204.42 899.47 L 193.52 902.77 L 174.81 918.23 L 156.68 934.46 L 155.93 938.93 L 155.83 939.52 L 155.01 937.64 L 146.97 926.37 L 142.53 919.10 L 132.68 902.97 L 117.62 879.36 L 115.82 876.43 L 108.04 867.35 L 101.48 860.24 L 91.34 849.08 L 87.71 844.65 L 84.97 840.89 L 81.67 834.29 L 80.04 827.95 L 79.28 823.59 L 78.83 819.48 L 78.67 808.59 L 78.61 799.09 L 77.82 795.00 L 76.71 789.29 L 75.14 786.45 L 72.66 783.39 L 75.48 781.59 L 77.07 780.57 L 87.59 773.84 L 87.85 766.58 L 100.17 751.22 L 116.23 742.85 L 128.72 736.33 Z "/>
</svg>
