<svg xmlns="http://www.w3.org/2000/svg" viewBox="0 0 1155 1155" width="1155" height="1155">
<path class="zone" data-zone-id="11215820_040_01" d="M 605.48 967.54 L 543.02 910.22 L 602.40 844.26 L 602.58 844.07 L 615.41 830.03 L 637.32 806.09 L 637.33 806.08 L 682.18 757.02 L 690.89 749.78 L 696.53 761.68 L 702.91 771.69 L 717.90 795.50 L 724.30 805.88 L 732.95 819.91 L 733.27 820.43 L 742.73 835.75 L 744.60 839.01 L 755.00 857.20 L 757.90 862.26 L 759.22 864.56 L 777.53 896.55 L 782.58 906.06 L 769.81 913.07 L 718.80 942.86 L 717.94 943.36 L 717.19 943.80 L 698.91 954.60 L 698.62 954.77 L 663.80 975.35 L 644.43 986.74 L 640.16 989.44 L 633.88 993.43 L 633.76 993.01 L 620.28 981.05 L 605.84 967.87 L 605.48 967.54 Z "/>
<path class="zone" data-zone-id="11215820_040_02" d="M 543.02 910.22 L 527.22 895.33 L 467.65 841.80 L 512.80 790.54 L 527.07 774.35 L 527.35 774.03 L 576.19 720.03 L 587.01 708.07 L 591.34 703.22 L 635.46 653.81 L 643.24 663.52 L 664.69 701.44 L 685.53 738.24 L 690.89 749.78 L 682.18 757.02 L 637.33 806.08 L 637.32 806.09 L 615.41 830.03 L 602.58 844.07 L 602.40 844.26 L 543.02 910.22 Z "/>
<path class="zone" data-zone-id="11215820_040_03" d="M 467.65 841.80 L 418.84 797.95 L 381.23 764.49 L 371.42 755.77 L 397.91 726.50 L 435.30 685.15 L 457.49 660.60 L 480.68 634.94 L 514.65 597.37 L 540.84 568.40 L 541.72 567.43 L 551.43 576.25 L 585.57 607.28 L 626.59 644.08 L 635.46 653.81 L 591.34 703.22 L 587.01 708.07 L 576.19 720.03 L 527.35 774.03 L 527.07 774.35 L 512.80 790.54 L 467.65 841.80 Z "/>
<path class="zone" data-zone-id="11215820_040_04" d="M 371.42 755.77 L 363.42 747.90 L 348.97 734.72 L 326.54 714.11 L 326.16 713.76 L 285.33 676.21 L 291.89 668.90 L 307.78 651.47 L 331.45 625.76 L 332.47 624.64 L 333.91 623.08 L 362.00 592.35 L 363.93 590.24 L 367.56 586.28 L 402.41 548.27 L 403.45 547.14 L 413.47 536.26 L 425.56 523.15 L 448.18 497.86 L 455.19 490.40 L 498.19 529.48 L 532.44 560.74 L 540.84 568.40 L 514.65 597.37 L 480.68 634.94 L 457.49 660.60 L 435.30 685.15 L 397.91 726.50 L 371.42 755.77 Z "/>
<path class="zone" data-zone-id="11215820_040_05" d="M 285.33 676.21 L 218.57 614.86 L 218.57 614.86 L 225.65 604.87 L 248.82 575.00 L 250.12 573.31 L 282.45 531.03 L 283.30 529.92 L 285.13 527.64 L 296.35 513.61 L 322.30 481.34 L 322.44 481.16 L 325.75 476.80 L 343.65 453.19 L 347.66 448.23 L 364.49 427.38 L 368.00 423.25 L 370.35 420.43 L 373.26 416.92 L 373.27 416.96 L 386.41 428.74 L 386.93 429.21 L 415.08 454.44 L 418.50 457.51 L 455.19 490.40 L 448.18 497.86 L 425.56 523.15 L 413.47 536.26 L 403.45 547.14 L 402.41 548.27 L 367.56 586.28 L 363.93 590.24 L 362.00 592.35 L 333.91 623.08 L 332.47 624.64 L 331.45 625.76 L 307.78 651.47 L 291.89 668.90 L 285.33 676.21 Z "/>
<path class="zone" data-zone-id="11215820_040_06" d="M 218.57 614.86 L 217.78 614.14 L 194.02 592.37 L 172.58 572.76 L 172.29 572.49 L 152.56 554.43 L 139.39 542.34 L 137.04 539.58 L 136.18 538.56 L 132.91 534.89 L 131.20 532.97 L 130.44 531.62 L 115.62 484.33 L 106.00 453.41 L 103.79 446.74 L 101.00 438.27 L 153.10 422.00 L 173.11 415.75 L 199.13 407.63 L 259.47 388.78 L 270.32 385.40 L 329.98 366.76 L 364.00 356.14 L 365.14 363.70 L 368.31 384.87 L 373.26 416.92 L 370.35 420.43 L 368.00 423.25 L 364.49 427.38 L 347.66 448.23 L 343.65 453.19 L 325.75 476.80 L 322.44 481.16 L 322.30 481.34 L 296.35 513.61 L 285.13 527.64 L 283.30 529.92 L 282.45 531.03 L 250.12 573.31 L 248.82 575.00 L 225.65 604.87 L 218.57 614.86 L 218.57 614.86 Z "/>
<path class="zone" data-zone-id="11215820_040_07" d="M 364.00 356.14 L 435.28 333.88 L 437.41 333.21 L 551.96 296.88 L 576.92 288.95 L 631.04 271.79 L 659.62 262.26 L 649.67 274.28 L 632.63 294.86 L 622.00 306.40 L 604.14 325.78 L 600.17 330.19 L 576.33 356.72 L 545.24 391.23 L 525.55 413.11 L 510.60 429.78 L 504.43 436.66 L 497.05 444.89 L 477.50 466.33 L 471.49 472.91 L 458.71 486.92 L 455.19 490.40 L 418.50 457.51 L 415.08 454.44 L 386.93 429.21 L 386.41 428.74 L 373.27 416.96 L 373.26 416.92 L 368.31 384.87 L 365.14 363.70 L 364.00 356.14 Z "/>
<path class="zone" data-zone-id="11215820_040_00" d="M 705.21 246.99 L 707.21 253.79 L 723.10 307.99 L 727.98 324.60 L 737.00 351.53 L 700.16 392.11 L 637.67 461.33 L 633.85 465.56 L 621.08 479.68 L 591.85 512.00 L 575.81 529.73 L 541.72 567.43 L 540.84 568.40 L 532.44 560.74 L 498.19 529.48 L 481.10 513.95 L 455.19 490.40 L 458.71 486.92 L 471.49 472.91 L 477.50 466.33 L 497.05 444.89 L 504.43 436.66 L 510.60 429.78 L 525.55 413.11 L 545.24 391.23 L 576.33 356.72 L 600.17 330.19 L 604.14 325.78 L 622.00 306.40 L 632.63 294.86 L 649.67 274.28 L 659.62 262.26 L 699.45 248.99 L 705.21 246.99 Z "/>
<path class="zone" data-zone-id="11215820_040_09" d="M 881.53 238.47 L 915.02 347.56 L 940.88 431.82 L 945.71 447.21 L 913.70 456.61 L 905.83 458.93 L 862.06 471.45 L 836.14 478.87 L 813.57 485.33 L 813.00 485.50 L 779.32 495.13 L 761.68 432.98 L 760.83 429.99 L 745.12 374.67 L 741.56 365.16 L 737.00 351.53 L 727.98 324.60 L 723.10 307.99 L 707.21 253.79 L 705.21 246.99 L 705.56 246.87 L 753.93 220.30 L 757.79 218.11 L 824.10 180.39 L 857.16 161.59 L 857.94 164.01 L 864.68 184.71 L 876.58 222.68 L 881.53 238.47 Z "/>
<path class="zone" data-zone-id="11215820_040_10" d="M 945.71 447.21 L 962.49 500.75 L 979.73 555.75 L 987.23 579.68 L 991.92 594.67 L 1001.72 625.93 L 1009.81 652.40 L 977.60 661.73 L 929.40 675.69 L 851.99 698.13 L 839.48 702.73 L 839.47 702.68 L 823.96 648.07 L 823.96 648.06 L 811.57 605.49 L 801.04 569.46 L 794.94 548.62 L 779.32 495.13 L 813.00 485.50 L 813.57 485.33 L 836.14 478.87 L 862.06 471.45 L 905.83 458.93 L 913.70 456.61 L 945.71 447.21 Z "/>
<path class="zone" data-zone-id="11215820_040_11" d="M 1009.81 652.40 L 1053.99 796.82 L 1025.07 807.94 L 1018.35 810.52 L 981.63 824.78 L 981.18 824.95 L 958.15 833.88 L 936.69 842.20 L 934.08 843.21 L 908.87 853.29 L 885.15 862.17 L 881.21 849.35 L 869.59 808.51 L 854.96 757.11 L 853.77 752.94 L 839.48 702.73 L 851.99 698.13 L 929.40 675.69 L 977.60 661.73 L 1009.81 652.40 Z "/>
<path class="zone" data-zone-id="11215820_040_12" d="M 885.15 862.17 L 846.30 877.95 L 823.44 887.19 L 822.68 887.49 L 811.35 892.06 L 799.99 896.66 L 782.58 906.06 L 777.53 896.55 L 759.22 864.56 L 757.90 862.26 L 755.00 857.20 L 744.60 839.01 L 742.73 835.75 L 733.27 820.43 L 732.95 819.91 L 724.30 805.88 L 717.90 795.50 L 702.91 771.69 L 696.53 761.68 L 690.89 749.78 L 703.31 742.09 L 755.38 727.47 L 756.74 727.09 L 827.13 707.26 L 839.48 702.73 L 853.77 752.94 L 854.96 757.11 L 869.59 808.51 L 881.21 849.35 L 885.15 862.17 Z "/>
<path class="zone" data-zone-id="11215820_040_13" d="M 839.48 702.73 L 827.13 707.26 L 756.74 727.09 L 755.38 727.47 L 703.31 742.09 L 690.89 749.78 L 685.53 738.24 L 664.69 701.44 L 643.24 663.52 L 635.46 653.81 L 666.51 619.07 L 679.23 604.84 L 682.45 601.24 L 714.58 565.40 L 732.98 544.87 L 733.19 544.64 L 779.32 495.13 L 794.94 548.62 L 801.04 569.46 L 811.57 605.49 L 823.96 648.06 L 823.96 648.07 L 839.47 702.68 L 839.48 702.73 Z "/>
<path class="zone" data-zone-id="11215820_040_14" d="M 635.46 653.81 L 626.59 644.08 L 585.57 607.28 L 551.43 576.25 L 541.72 567.43 L 575.81 529.73 L 621.08 479.68 L 633.85 465.56 L 637.67 461.33 L 700.16 392.11 L 737.00 351.53 L 741.56 365.16 L 745.12 374.67 L 760.83 429.99 L 761.68 432.98 L 779.32 495.13 L 733.19 544.64 L 732.98 544.87 L 714.58 565.40 L 682.45 601.24 L 679.23 604.84 L 666.51 619.07 L 635.46 653.81 Z "/>
</svg>
