<svg xmlns="http://www.w3.org/2000/svg" viewBox="0 0 1154 1155" width="1154" height="1155">
<path class="zone" data-zone-id="11215710_021_01" d="M 606.76 80.00 L 606.76 80.00 L 614.52 81.31 L 624.77 82.86 L 624.77 82.86 L 649.58 86.63 L 655.36 87.51 L 655.36 87.51 L 680.51 91.35 L 655.36 87.51 L 655.36 87.51 L 650.15 102.68 L 628.82 164.77 L 621.57 164.25 L 588.99 160.99 L 565.28 158.25 L 551.28 152.12 L 551.25 152.11 L 551.01 152.01 L 571.91 106.18 L 574.47 99.44 L 582.10 82.72 L 584.12 82.35 L 584.16 82.34 L 584.52 82.28 L 601.54 79.12 L 601.54 79.12 L 606.48 79.95 L 606.76 80.00 Z "/>
<path class="zone" data-zone-id="11215710_021_00" d="M 733.66 99.59 L 730.33 114.86 L 704.90 171.07 L 704.77 171.05 L 682.79 168.94 L 680.88 168.78 L 668.64 167.74 L 666.82 167.60 L 640.50 165.63 L 636.36 165.32 L 628.82 164.77 L 650.15 102.68 L 655.36 87.51 L 655.36 87.51 L 680.51 91.35 L 680.51 91.35 L 708.58 95.63 L 708.76 95.66 L 708.76 95.66 L 733.66 99.59 L 733.66 99.59 Z "/>
<path class="zone" data-zone-id="11215710_021_00" d="M 812.29 179.96 L 790.89 178.19 L 777.49 177.09 L 775.96 176.95 L 764.31 175.94 L 743.13 174.10 L 727.00 172.79 L 726.90 172.79 L 706.03 171.16 L 704.90 171.07 L 720.19 137.29 L 730.33 114.86 L 733.66 99.59 L 733.66 99.59 L 775.17 106.15 L 779.55 106.85 L 799.90 110.02 L 863.80 120.00 L 864.79 120.15 L 866.40 120.40 L 864.79 120.15 L 861.36 135.54 L 860.80 138.03 L 854.05 179.84 L 853.50 183.24 L 849.17 183.21 L 826.94 181.25 L 812.29 179.96 Z "/>
<path class="zone" data-zone-id="11215710_021_04" d="M 853.47 183.40 L 846.96 223.93 L 846.67 225.77 L 841.52 257.82 L 840.00 267.29 L 836.60 288.40 L 836.66 288.83 L 836.33 290.82 L 836.12 292.09 L 836.09 292.27 L 835.93 292.45 L 835.12 292.09 L 834.66 291.88 L 830.25 289.91 L 827.85 292.33 L 821.63 298.50 L 810.77 309.27 L 801.55 318.41 L 794.96 324.95 L 794.07 325.83 L 788.26 331.60 L 780.76 339.04 L 772.04 347.69 L 767.64 348.72 L 762.87 346.89 L 759.87 345.74 L 748.10 341.23 L 738.70 337.65 L 734.77 336.15 L 724.31 332.16 L 715.59 328.84 L 704.44 324.39 L 697.66 321.80 L 695.67 321.04 L 678.17 314.35 L 665.05 309.24 L 651.90 304.11 L 645.92 301.96 L 646.02 301.74 L 647.57 298.26 L 649.92 293.04 L 654.68 282.47 L 654.82 282.15 L 659.24 272.27 L 662.43 265.22 L 664.72 260.16 L 664.77 260.04 L 669.71 249.05 L 674.58 238.23 L 684.41 216.37 L 704.90 171.07 L 706.03 171.16 L 726.90 172.79 L 727.00 172.79 L 743.13 174.10 L 775.96 176.95 L 777.49 177.09 L 790.89 178.19 L 812.29 179.96 L 826.94 181.25 L 849.17 183.21 L 853.50 183.24 L 853.47 183.40 Z "/>
<path class="zone" data-zone-id="11215710_021_00" d="M 629.00 295.52 L 611.95 288.83 L 598.94 283.72 L 586.50 278.84 L 580.82 276.18 L 581.03 275.71 L 581.95 273.63 L 590.39 254.62 L 591.76 251.54 L 592.22 250.49 L 600.50 231.67 L 600.91 230.90 L 602.45 228.00 L 603.28 226.45 L 611.36 208.67 L 612.34 206.49 L 613.62 203.64 L 618.51 192.73 L 626.87 171.94 L 627.27 170.05 L 627.68 168.09 L 628.82 164.77 L 636.36 165.32 L 640.50 165.63 L 666.82 167.60 L 668.64 167.74 L 680.88 168.78 L 682.79 168.94 L 704.77 171.05 L 704.90 171.07 L 684.41 216.37 L 674.58 238.23 L 669.71 249.05 L 664.77 260.04 L 664.72 260.16 L 662.43 265.22 L 659.24 272.27 L 654.82 282.15 L 654.68 282.47 L 649.92 293.04 L 647.57 298.26 L 646.02 301.74 L 645.92 301.96 L 639.51 299.65 L 629.00 295.52 Z "/>
<path class="zone" data-zone-id="11215710_021_00" d="M 545.42 265.94 L 520.73 255.99 L 506.56 250.27 L 506.54 250.26 L 506.26 250.15 L 505.50 251.82 L 504.99 252.94 L 504.98 252.97 L 504.71 252.88 L 506.00 250.04 L 506.00 250.03 L 506.03 249.96 L 529.89 197.48 L 532.88 191.04 L 550.64 151.84 L 550.85 151.38 L 572.62 103.49 L 574.47 99.44 L 571.91 106.18 L 551.01 152.01 L 551.25 152.11 L 551.28 152.12 L 565.28 158.25 L 578.53 159.78 L 588.99 160.99 L 613.36 163.43 L 621.57 164.25 L 628.82 164.77 L 627.68 168.09 L 626.87 171.94 L 618.51 192.73 L 612.34 206.49 L 611.36 208.67 L 603.28 226.45 L 602.45 228.00 L 600.91 230.90 L 600.50 231.67 L 592.22 250.49 L 591.76 251.54 L 590.39 254.62 L 581.95 273.63 L 581.03 275.71 L 580.82 276.18 L 580.28 275.92 L 580.20 275.88 L 578.89 278.78 L 578.74 279.11 L 571.84 276.61 L 545.42 265.94 Z "/>
<path class="zone" data-zone-id="11215710_021_07" d="M 502.39 429.89 L 471.95 416.89 L 458.63 411.30 L 456.52 410.41 L 451.24 408.23 L 437.08 402.40 L 437.06 402.39 L 436.79 402.28 L 445.95 382.13 L 446.35 381.25 L 463.18 344.22 L 495.28 273.61 L 504.71 252.88 L 504.98 252.97 L 504.99 252.94 L 505.50 251.82 L 506.26 250.15 L 506.54 250.26 L 506.56 250.27 L 520.73 255.99 L 545.42 265.94 L 571.84 276.61 L 578.74 279.11 L 555.84 329.84 L 531.77 383.19 L 511.48 428.13 L 509.09 432.99 L 502.39 429.89 Z "/>
<path class="zone" data-zone-id="11215710_021_00" d="M 487.70 479.36 L 480.29 495.61 L 448.30 565.78 L 434.25 596.60 L 431.43 602.80 L 431.36 602.77 L 404.37 590.59 L 398.05 587.73 L 397.83 587.64 L 378.53 578.96 L 375.59 577.61 L 374.29 577.10 L 364.42 573.20 L 413.91 464.78 L 432.76 473.25 L 439.69 457.76 L 460.07 466.93 L 471.53 472.09 L 487.70 479.36 Z "/>
<path class="zone" data-zone-id="11215710_021_01" d="M 359.99 571.46 L 359.96 571.45 L 359.90 571.42 L 436.55 402.81 L 436.79 402.28 L 437.06 402.39 L 437.08 402.40 L 451.24 408.23 L 456.52 410.41 L 458.63 411.30 L 471.95 416.89 L 502.39 429.89 L 509.09 432.99 L 505.86 439.53 L 487.70 479.36 L 471.53 472.09 L 460.07 466.93 L 439.69 457.76 L 432.76 473.25 L 413.91 464.78 L 364.42 573.20 L 359.99 571.46 Z "/>
<path class="zone" data-zone-id="11215710_021_09" d="M 391.26 691.57 L 354.63 772.52 L 295.98 747.19 L 295.39 746.98 L 282.73 741.16 L 309.59 682.08 L 310.08 682.08 L 327.95 641.69 L 357.48 576.75 L 358.81 573.81 L 359.90 571.42 L 359.96 571.45 L 359.99 571.46 L 374.29 577.10 L 375.59 577.61 L 378.53 578.96 L 397.83 587.64 L 398.05 587.73 L 404.37 590.59 L 431.36 602.77 L 431.43 602.80 L 428.34 609.60 L 427.97 610.42 L 408.73 652.90 L 406.43 658.03 L 395.23 682.80 L 391.26 691.57 Z "/>
<path class="zone" data-zone-id="11215710_021_10" d="M 354.39 773.05 L 354.56 773.13 L 350.63 781.21 L 332.83 820.49 L 324.69 838.32 L 324.69 838.32 L 265.14 813.08 L 265.14 813.08 L 263.88 812.54 L 252.48 807.71 L 252.48 807.71 L 255.20 801.71 L 278.97 749.44 L 281.27 744.38 L 282.73 741.16 L 295.39 746.98 L 295.98 747.19 L 354.63 772.52 L 354.39 773.05 Z "/>
<path class="zone" data-zone-id="11215710_021_11" d="M 407.50 874.23 L 407.50 874.23 L 400.31 871.11 L 324.72 838.34 L 324.72 838.34 L 324.69 838.32 L 324.69 838.32 L 332.83 820.49 L 350.63 781.21 L 354.56 773.13 L 433.90 807.39 L 414.38 856.81 L 407.50 874.23 Z "/>
<path class="zone" data-zone-id="11215710_021_12" d="M 504.32 846.60 L 495.80 864.58 L 486.02 888.57 L 479.20 905.31 L 479.20 905.31 L 479.13 905.28 L 478.36 904.95 L 478.36 904.95 L 478.23 904.89 L 429.24 883.65 L 429.24 883.65 L 407.50 874.23 L 407.50 874.23 L 414.38 856.81 L 433.90 807.39 L 501.02 836.38 L 507.26 839.04 L 504.32 846.60 Z "/>
<path class="zone" data-zone-id="11215710_021_13" d="M 580.54 870.77 L 580.41 871.08 L 559.34 919.87 L 551.96 936.95 L 551.96 936.95 L 549.41 935.84 L 480.05 905.68 L 479.20 905.31 L 479.20 905.31 L 486.02 888.57 L 495.80 864.58 L 504.32 846.60 L 507.26 839.04 L 513.93 841.90 L 515.94 842.77 L 580.54 870.77 Z "/>
<path class="zone" data-zone-id="11215710_021_14" d="M 656.61 899.05 L 656.64 899.06 L 655.22 902.65 L 651.68 910.49 L 633.82 952.04 L 626.47 969.15 L 625.62 968.78 L 618.33 965.63 L 568.48 944.02 L 568.41 943.99 L 561.27 941.00 L 561.06 940.91 L 558.27 939.70 L 558.27 939.70 L 551.96 936.95 L 551.96 936.95 L 559.34 919.87 L 580.41 871.08 L 580.54 870.77 L 604.32 881.07 L 617.41 886.74 L 650.95 901.28 L 651.13 900.86 L 652.64 897.34 L 656.61 899.05 Z "/>
<path class="zone" data-zone-id="11215710_021_15" d="M 740.54 939.92 L 740.68 939.98 L 794.21 963.01 L 794.74 963.24 L 816.11 972.44 L 821.98 975.59 L 819.60 983.13 L 803.63 1023.21 L 795.93 1042.50 L 713.23 1006.70 L 712.57 1006.42 L 712.57 1006.42 L 711.75 1006.06 L 626.66 969.23 L 626.47 969.15 L 633.82 952.04 L 651.68 910.49 L 655.22 902.65 L 740.54 939.92 Z "/>
<path class="zone" data-zone-id="11215710_021_16" d="M 861.98 992.92 L 885.43 1002.52 L 885.70 1002.63 L 901.52 1009.11 L 883.21 1057.62 L 873.59 1075.88 L 873.59 1075.88 L 872.12 1075.26 L 872.12 1075.26 L 852.68 1066.39 L 816.84 1051.55 L 816.84 1051.55 L 814.42 1050.50 L 797.45 1043.16 L 797.45 1043.16 L 796.75 1042.86 L 796.75 1042.86 L 796.18 1042.61 L 795.93 1042.50 L 803.63 1023.21 L 819.60 983.13 L 821.98 975.59 L 827.98 978.81 L 861.94 992.91 L 861.98 992.92 Z "/>
</svg>
