<svg xmlns="http://www.w3.org/2000/svg" viewBox="0 0 1155 1155" width="1155" height="1155">
<path class="zone" data-zone-id="11215830_040_00" d="M 1039.15 727.37 L 1039.17 727.52 L 1042.70 765.94 L 1045.72 802.05 L 1046.56 812.38 L 1047.83 826.83 L 1048.68 836.45 L 1023.68 835.84 L 965.59 836.17 L 911.26 834.33 L 876.64 832.69 L 875.83 824.71 L 868.74 754.81 L 860.20 639.50 L 859.22 625.47 L 857.52 601.08 L 857.02 593.89 L 876.05 593.81 L 940.36 593.54 L 949.48 593.50 L 955.49 593.14 L 963.74 592.65 L 997.97 590.60 L 1019.83 589.39 L 1027.15 588.99 L 1027.30 590.60 L 1029.55 615.89 L 1032.73 651.53 L 1039.15 727.37 Z "/>
<path class="zone" data-zone-id="11215830_040_00" d="M 586.67 685.65 L 563.44 745.95 L 546.87 789.00 L 546.14 789.39 L 531.04 786.25 L 523.55 784.69 L 446.89 765.79 L 449.88 757.72 L 481.38 672.65 L 489.56 652.17 L 510.68 660.43 L 511.89 657.30 L 586.67 685.65 Z "/>
<path class="zone" data-zone-id="11215830_040_01" d="M 654.43 668.27 L 681.76 595.81 L 684.80 593.67 L 685.63 594.00 L 697.75 595.04 L 698.92 595.17 L 711.54 596.63 L 720.65 596.53 L 792.94 594.15 L 801.49 594.12 L 857.02 593.89 L 857.52 601.08 L 860.20 639.50 L 868.74 754.81 L 875.83 824.71 L 876.64 832.69 L 847.13 831.29 L 759.67 822.72 L 721.35 818.33 L 664.47 810.32 L 634.67 805.83 L 634.76 805.78 L 657.06 746.72 L 628.80 736.20 L 609.14 788.33 L 654.43 668.27 Z "/>
<path class="zone" data-zone-id="11215830_040_02" d="M 546.87 789.00 L 563.44 745.95 L 586.67 685.65 L 511.89 657.30 L 510.68 660.43 L 489.56 652.17 L 533.41 542.42 L 535.95 536.07 L 565.37 546.99 L 576.48 551.28 L 616.08 566.57 L 634.68 573.74 L 638.55 575.24 L 684.80 593.67 L 681.76 595.81 L 654.43 668.27 L 628.80 736.20 L 642.93 741.46 L 657.06 746.72 L 634.76 805.78 L 634.67 805.83 L 619.51 803.55 L 619.43 803.54 L 618.86 803.43 L 617.64 803.21 L 570.73 794.51 L 554.10 791.05 L 546.14 789.39 L 546.87 789.00 Z "/>
<path class="zone" data-zone-id="11215830_040_00" d="M 341.06 624.76 L 248.37 602.31 L 230.36 597.95 L 206.52 687.61 L 141.95 657.65 L 115.47 645.90 L 106.41 642.06 L 106.33 642.02 L 106.95 640.54 L 109.58 634.34 L 112.35 627.80 L 139.06 558.70 L 139.71 557.02 L 160.83 502.39 L 185.05 439.78 L 199.39 443.00 L 207.35 444.79 L 269.58 460.53 L 272.17 461.18 L 333.47 476.28 L 336.47 477.02 L 396.12 491.32 L 429.40 499.30 L 449.99 504.79 L 454.95 506.12 L 455.29 506.24 L 461.70 508.54 L 466.03 516.84 L 423.64 628.43 L 402.40 639.61 L 341.06 624.76 Z M 238.11 568.80 L 234.24 583.38 L 230.36 597.95 L 238.11 568.80 Z M 149.31 578.32 L 140.02 560.55 L 139.06 558.70 L 149.31 578.32 Z "/>
<path class="zone" data-zone-id="11215830_040_01" d="M 245.61 705.45 L 209.07 688.79 L 206.52 687.61 L 230.36 597.95 L 248.37 602.31 L 341.06 624.76 L 402.40 639.61 L 423.64 628.43 L 466.03 516.84 L 461.70 508.54 L 462.65 508.88 L 518.71 529.68 L 535.95 536.07 L 533.41 542.42 L 481.38 672.65 L 449.88 757.72 L 446.89 765.79 L 409.03 756.46 L 366.09 744.30 L 337.37 736.17 L 272.59 715.43 L 245.61 705.45 Z "/>
<path class="zone" data-zone-id="11215830_040_04" d="M 185.05 439.78 L 191.41 423.36 L 206.74 383.40 L 231.60 318.54 L 246.87 321.99 L 253.87 323.57 L 299.27 334.83 L 301.51 335.39 L 330.81 342.36 L 362.43 349.89 L 365.86 350.72 L 389.82 356.49 L 425.73 365.13 L 427.13 365.44 L 446.90 369.79 L 466.88 374.19 L 495.98 382.40 L 501.66 383.89 L 501.98 384.00 L 497.15 396.43 L 480.11 441.43 L 455.29 506.24 L 454.95 506.12 L 449.99 504.79 L 429.40 499.30 L 396.12 491.32 L 336.47 477.02 L 333.47 476.28 L 272.17 461.18 L 269.58 460.53 L 207.35 444.79 L 199.39 443.00 L 185.05 439.78 Z "/>
<path class="zone" data-zone-id="11215830_040_05" d="M 501.98 384.00 L 507.96 386.21 L 527.26 393.88 L 565.20 408.52 L 585.94 416.52 L 623.03 430.34 L 647.98 439.64 L 665.04 445.99 L 679.62 451.78 L 720.43 467.97 L 737.61 473.42 L 740.55 473.99 L 743.83 474.63 L 745.92 475.03 L 753.65 473.79 L 775.00 471.06 L 812.72 466.24 L 820.56 465.24 L 872.46 458.51 L 874.35 458.26 L 915.66 452.91 L 930.71 450.92 L 948.81 448.53 L 991.63 442.88 L 1007.02 441.43 L 1015.45 441.10 L 1015.58 443.37 L 1020.88 511.28 L 1026.99 587.21 L 1027.15 588.99 L 1019.83 589.39 L 997.97 590.60 L 963.74 592.65 L 949.48 593.50 L 940.36 593.54 L 857.02 593.89 L 801.49 594.12 L 792.94 594.15 L 720.65 596.53 L 711.54 596.63 L 698.92 595.17 L 697.75 595.04 L 685.63 594.00 L 638.55 575.24 L 634.68 573.74 L 616.08 566.57 L 576.48 551.28 L 565.37 546.99 L 535.95 536.07 L 518.71 529.68 L 462.65 508.88 L 455.29 506.24 L 480.11 441.43 L 497.15 396.43 L 501.98 384.00 Z "/>
</svg>
