<svg xmlns="http://www.w3.org/2000/svg" viewBox="0 0 1154 1155" width="1154" height="1155">
<path class="zone" data-zone-id="11215730_030_01" d="M 377.20 900.93 L 377.60 898.12 L 380.65 898.53 L 395.14 900.36 L 439.24 910.37 L 507.91 926.86 L 512.64 928.00 L 517.83 945.87 L 521.26 957.45 L 523.48 958.90 L 552.46 969.94 L 572.40 977.53 L 572.40 977.53 L 567.85 989.79 L 553.31 1031.87 L 540.39 1070.31 L 540.16 1070.97 L 540.16 1070.97 L 503.16 1056.78 L 489.06 1045.19 L 482.67 1039.67 L 469.49 1028.28 L 458.92 1018.98 L 437.36 1000.01 L 423.96 988.15 L 407.01 973.14 L 387.90 956.22 L 376.63 945.93 L 375.08 944.22 L 373.52 941.75 L 374.00 936.43 L 375.57 918.98 L 376.71 906.35 L 377.20 900.93 Z "/>
<path class="zone" data-zone-id="11215730_030_02" d="M 377.60 898.12 L 378.05 895.04 L 381.69 869.74 L 350.74 833.33 L 343.41 824.81 L 331.83 810.91 L 331.64 810.67 L 322.37 799.07 L 352.21 779.35 L 354.36 782.29 L 359.70 788.94 L 370.83 801.00 L 373.45 803.91 L 379.81 811.00 L 387.58 819.71 L 393.10 825.72 L 396.87 830.20 L 401.52 835.29 L 404.80 837.64 L 406.64 838.35 L 407.57 838.73 L 408.50 838.79 L 409.99 838.86 L 412.97 838.42 L 418.04 837.32 L 423.31 835.96 L 436.60 832.53 L 453.18 828.33 L 471.26 823.56 L 473.45 822.92 L 481.09 820.36 L 482.26 823.27 L 489.50 847.08 L 498.33 878.03 L 507.53 910.38 L 512.64 928.00 L 507.91 926.86 L 439.24 910.37 L 395.14 900.36 L 380.65 898.53 L 377.60 898.12 Z "/>
<path class="zone" data-zone-id="11215730_030_03" d="M 303.85 681.13 L 348.42 653.74 L 363.09 644.75 L 387.96 629.49 L 391.48 627.36 L 402.87 620.43 L 403.02 620.34 L 427.68 604.54 L 440.37 596.44 L 450.52 589.95 L 458.21 584.58 L 491.75 560.92 L 510.68 547.66 L 525.23 537.46 L 529.89 534.28 L 545.96 523.32 L 568.36 507.73 L 569.52 506.81 L 570.70 514.95 L 571.11 517.69 L 571.72 527.76 L 572.02 533.45 L 572.17 541.60 L 572.09 548.89 L 571.23 552.76 L 569.84 559.04 L 567.75 573.44 L 567.75 574.97 L 567.73 582.40 L 567.94 599.92 L 567.88 614.04 L 567.79 635.76 L 567.75 639.08 L 567.72 641.97 L 567.74 644.83 L 571.62 656.27 L 575.95 665.71 L 579.03 670.85 L 584.00 678.91 L 588.50 686.18 L 591.22 690.41 L 588.10 691.79 L 585.57 692.91 L 584.27 693.48 L 571.38 697.71 L 554.29 703.53 L 546.94 705.81 L 544.29 706.63 L 541.96 707.36 L 523.44 714.15 L 512.89 717.85 L 506.31 720.28 L 501.53 721.94 L 494.33 724.44 L 483.89 727.44 L 477.72 729.22 L 460.76 733.86 L 457.83 734.63 L 453.25 735.84 L 448.54 737.09 L 431.99 741.58 L 429.58 742.27 L 404.80 749.33 L 394.92 752.55 L 386.19 757.48 L 370.08 766.94 L 366.67 768.94 L 356.81 776.31 L 355.16 777.40 L 352.21 779.35 L 322.37 799.07 L 321.95 798.54 L 304.80 771.54 L 301.47 766.17 L 296.27 760.85 L 293.24 757.76 L 281.56 739.31 L 273.75 725.50 L 267.48 715.76 L 267.46 715.72 L 265.97 713.57 L 261.49 707.11 L 297.08 685.28 L 303.85 681.13 Z "/>
<path class="zone" data-zone-id="11215730_030_04" d="M 391.48 627.36 L 395.90 614.77 L 397.24 610.95 L 408.97 577.54 L 433.93 515.82 L 439.46 501.78 L 470.82 422.20 L 472.21 418.63 L 476.65 407.25 L 482.51 392.20 L 483.48 389.72 L 491.19 370.09 L 494.08 362.73 L 496.48 356.70 L 499.33 349.56 L 517.04 304.47 L 519.63 297.95 L 520.64 295.41 L 521.09 294.47 L 523.02 290.37 L 541.79 249.88 L 542.04 249.32 L 544.92 242.97 L 551.80 227.81 L 554.12 222.67 L 556.77 216.78 L 565.90 196.51 L 572.42 181.92 L 579.10 185.19 L 620.53 205.57 L 632.29 211.40 L 665.52 227.88 L 665.57 227.91 L 676.70 233.43 L 676.97 233.56 L 695.95 242.92 L 702.35 245.87 L 715.09 251.75 L 715.37 251.88 L 729.85 259.07 L 751.76 269.89 L 741.15 285.58 L 726.78 306.98 L 711.45 329.91 L 696.44 351.51 L 696.40 351.57 L 684.93 368.25 L 670.63 389.43 L 663.03 400.54 L 657.04 409.29 L 634.77 438.18 L 629.57 444.87 L 626.51 448.81 L 621.03 455.20 L 611.67 465.63 L 603.47 473.85 L 602.59 474.73 L 584.53 493.26 L 582.63 495.21 L 581.28 496.64 L 578.32 499.76 L 573.50 503.61 L 569.52 506.81 L 568.36 507.73 L 545.96 523.32 L 529.89 534.28 L 525.23 537.46 L 510.68 547.66 L 491.75 560.92 L 458.21 584.58 L 450.52 589.95 L 440.37 596.44 L 427.68 604.54 L 403.02 620.34 L 402.87 620.43 L 391.48 627.36 Z "/>
<path class="zone" data-zone-id="11215730_030_05" d="M 572.67 181.91 L 581.30 161.93 L 582.45 159.33 L 588.26 146.21 L 597.83 124.55 L 604.37 109.76 L 615.70 84.04 L 615.70 84.02 L 716.55 133.88 L 750.35 150.73 L 751.26 151.19 L 751.26 151.19 L 811.02 180.99 L 793.01 208.00 L 780.66 226.53 L 766.45 247.85 L 751.76 269.89 L 729.85 259.07 L 715.37 251.88 L 715.09 251.75 L 702.35 245.87 L 695.95 242.92 L 676.97 233.56 L 676.70 233.43 L 665.57 227.91 L 665.52 227.88 L 632.29 211.40 L 620.53 205.57 L 579.10 185.19 L 572.42 181.92 L 572.47 181.81 L 572.67 181.91 Z "/>
<path class="zone" data-zone-id="11215730_030_06" d="M 890.24 220.50 L 892.49 221.62 L 892.49 221.62 L 892.49 221.62 L 892.49 221.62 L 884.50 240.65 L 884.36 240.96 L 880.06 251.21 L 865.27 283.48 L 865.27 283.49 L 853.40 309.37 L 849.33 318.65 L 830.01 309.45 L 807.09 297.79 L 784.95 286.60 L 784.65 286.45 L 771.69 279.90 L 751.76 269.89 L 766.45 247.85 L 780.66 226.53 L 793.01 208.00 L 811.02 180.99 L 811.05 181.01 L 811.08 181.02 L 811.08 181.02 L 882.37 216.57 L 883.14 216.96 L 890.24 220.50 Z "/>
<path class="zone" data-zone-id="11215730_030_07" d="M 824.56 375.16 L 817.41 391.19 L 803.95 421.35 L 785.89 461.28 L 785.89 461.28 L 785.89 461.28 L 766.79 451.99 L 728.37 433.29 L 726.75 432.50 L 713.08 425.73 L 707.33 422.88 L 703.40 420.89 L 673.87 405.98 L 668.83 403.45 L 663.03 400.54 L 670.63 389.43 L 684.93 368.25 L 696.40 351.57 L 696.44 351.51 L 711.45 329.91 L 726.78 306.98 L 741.15 285.58 L 751.76 269.89 L 771.69 279.90 L 784.65 286.45 L 784.95 286.60 L 807.09 297.79 L 830.01 309.45 L 849.33 318.65 L 824.56 375.16 Z "/>
<path class="zone" data-zone-id="11215730_030_08" d="M 649.82 721.02 L 626.64 710.87 L 621.76 708.44 L 615.97 705.39 L 607.06 700.69 L 598.88 696.34 L 594.59 694.01 L 593.19 693.24 L 591.92 691.50 L 591.22 690.41 L 588.50 686.18 L 584.00 678.91 L 579.03 670.85 L 575.95 665.71 L 571.62 656.27 L 567.74 644.83 L 567.72 641.97 L 567.75 639.08 L 567.79 635.76 L 567.88 614.04 L 567.94 599.92 L 567.73 582.40 L 567.75 574.97 L 567.75 573.44 L 569.84 559.04 L 571.23 552.76 L 573.73 553.87 L 593.77 562.81 L 616.12 572.88 L 616.23 572.93 L 627.76 578.14 L 641.73 584.67 L 642.42 584.99 L 651.97 589.62 L 662.68 594.22 L 662.82 594.28 L 687.15 604.82 L 697.74 609.46 L 716.94 617.88 L 716.94 617.88 L 714.77 623.07 L 692.30 674.27 L 688.95 681.89 L 685.38 690.40 L 669.08 729.20 L 669.00 729.42 L 669.00 729.42 L 669.00 729.42 L 649.82 721.02 Z "/>
<path class="zone" data-zone-id="11215730_030_09" d="M 582.40 950.59 L 582.14 951.28 L 582.14 951.28 L 572.40 977.53 L 572.40 977.53 L 572.40 977.53 L 552.46 969.94 L 523.48 958.90 L 521.26 957.45 L 517.83 945.87 L 512.64 928.00 L 507.53 910.38 L 498.33 878.03 L 489.50 847.08 L 482.26 823.27 L 481.09 820.36 L 486.80 818.45 L 509.55 812.03 L 515.93 810.26 L 525.54 807.58 L 525.72 807.53 L 530.00 806.34 L 530.24 806.28 L 558.27 798.40 L 569.04 795.21 L 579.80 792.02 L 588.91 789.32 L 592.06 789.86 L 617.54 802.26 L 636.80 811.62 L 636.80 811.62 L 636.46 812.48 L 627.82 834.56 L 610.55 879.66 L 582.40 950.59 Z "/>
<path class="zone" data-zone-id="11215730_030_10" d="M 617.54 802.26 L 592.06 789.86 L 588.91 789.32 L 579.80 792.02 L 569.04 795.21 L 558.27 798.40 L 530.24 806.28 L 530.00 806.34 L 525.72 807.53 L 525.54 807.58 L 515.93 810.26 L 509.55 812.03 L 486.80 818.45 L 481.09 820.36 L 479.13 815.51 L 475.04 800.32 L 469.18 778.27 L 463.28 756.09 L 458.79 738.43 L 457.83 734.63 L 460.76 733.86 L 477.72 729.22 L 483.89 727.44 L 494.33 724.44 L 501.53 721.94 L 506.31 720.28 L 512.89 717.85 L 523.44 714.15 L 541.96 707.36 L 544.29 706.63 L 546.94 705.81 L 554.29 703.53 L 571.38 697.71 L 584.27 693.48 L 585.57 692.91 L 588.10 691.79 L 591.22 690.41 L 591.92 691.50 L 593.19 693.24 L 594.59 694.01 L 598.88 696.34 L 607.06 700.69 L 615.97 705.39 L 621.76 708.44 L 626.64 710.87 L 649.82 721.02 L 669.00 729.42 L 669.00 729.42 L 668.67 730.26 L 653.02 770.22 L 652.58 771.34 L 636.80 811.62 L 636.80 811.62 L 636.80 811.62 L 617.54 802.26 Z "/>
<path class="zone" data-zone-id="11215730_030_11" d="M 687.15 604.82 L 662.82 594.28 L 662.68 594.22 L 651.97 589.62 L 642.42 584.99 L 641.73 584.67 L 643.31 581.59 L 645.19 577.92 L 661.00 542.40 L 667.97 526.82 L 670.73 520.64 L 674.77 511.59 L 684.52 489.76 L 694.98 466.48 L 704.95 443.76 L 711.52 429.19 L 713.08 425.73 L 726.75 432.50 L 728.37 433.29 L 766.79 451.99 L 785.89 461.28 L 785.89 461.28 L 785.71 461.67 L 785.18 462.84 L 785.18 462.84 L 769.52 497.45 L 768.00 500.80 L 740.82 562.51 L 725.81 596.57 L 719.14 612.59 L 719.01 612.92 L 719.01 612.92 L 716.94 617.88 L 716.94 617.88 L 716.94 617.88 L 697.74 609.46 L 687.15 604.82 Z "/>
<path class="zone" data-zone-id="11215730_030_12" d="M 569.52 506.81 L 573.50 503.61 L 578.32 499.76 L 581.28 496.64 L 582.63 495.21 L 584.53 493.26 L 602.59 474.73 L 603.47 473.85 L 611.67 465.63 L 621.03 455.20 L 626.51 448.81 L 629.57 444.87 L 634.77 438.18 L 657.04 409.29 L 663.03 400.54 L 668.83 403.45 L 673.87 405.98 L 703.40 420.89 L 707.33 422.88 L 713.08 425.73 L 711.52 429.19 L 704.95 443.76 L 694.98 466.48 L 684.52 489.76 L 674.77 511.59 L 670.73 520.64 L 667.97 526.82 L 661.00 542.40 L 645.19 577.92 L 643.31 581.59 L 641.73 584.67 L 627.76 578.14 L 616.23 572.93 L 616.12 572.88 L 593.77 562.81 L 573.73 553.87 L 571.23 552.76 L 572.09 548.89 L 572.17 541.60 L 572.02 533.45 L 571.72 527.76 L 571.11 517.69 L 570.70 514.95 L 569.52 506.81 Z "/>
<path class="zone" data-zone-id="11215730_030_13" d="M 457.83 734.63 L 458.79 738.43 L 463.28 756.09 L 469.18 778.27 L 475.04 800.32 L 479.13 815.51 L 481.09 820.36 L 473.45 822.92 L 471.26 823.56 L 453.18 828.33 L 436.60 832.53 L 423.31 835.96 L 418.04 837.32 L 412.97 838.42 L 409.99 838.86 L 408.50 838.79 L 407.57 838.73 L 406.64 838.35 L 404.80 837.64 L 401.52 835.29 L 396.87 830.20 L 393.10 825.72 L 387.58 819.71 L 379.81 811.00 L 373.45 803.91 L 370.83 801.00 L 359.70 788.94 L 354.36 782.29 L 352.21 779.35 L 355.16 777.40 L 356.81 776.31 L 366.67 768.94 L 370.08 766.94 L 386.19 757.48 L 394.92 752.55 L 404.80 749.33 L 429.58 742.27 L 431.99 741.58 L 448.54 737.09 L 453.25 735.84 L 457.83 734.63 Z "/>
</svg>
