<svg xmlns="http://www.w3.org/2000/svg" viewBox="0 0 1155 1155" width="1155" height="1155">
<path class="zone" data-zone-id="11215810_112_00" d="M 661.82 717.95 L 657.63 731.55 L 642.64 731.95 L 620.44 742.96 L 598.89 745.13 L 578.54 747.18 L 573.81 732.63 L 568.16 716.25 L 560.40 693.76 L 559.61 691.47 L 549.15 693.34 L 527.54 697.19 L 526.54 696.12 L 527.37 691.97 L 528.50 685.77 L 517.58 673.31 L 504.25 662.58 L 492.29 636.49 L 489.86 626.07 L 473.62 607.33 L 461.87 582.30 L 452.73 574.24 L 441.27 556.89 L 427.95 546.46 L 426.30 545.17 L 426.56 543.87 L 428.67 533.32 L 421.25 516.27 L 423.25 516.27 L 423.95 482.96 L 424.34 452.36 L 424.79 400.88 L 379.37 311.22 L 394.99 231.54 L 393.93 221.17 L 393.73 205.72 L 393.67 201.35 L 393.50 188.48 L 446.97 192.61 L 458.19 194.53 L 471.46 197.85 L 478.76 200.45 L 490.28 204.95 L 501.84 210.87 L 538.30 233.69 L 551.80 241.34 L 561.69 246.09 L 576.15 247.46 L 583.29 247.26 L 607.80 242.13 L 619.14 239.44 L 661.75 229.34 L 668.03 227.52 L 674.26 223.73 L 679.85 220.35 L 688.27 214.32 L 692.70 209.23 L 697.85 203.31 L 711.64 185.87 L 720.66 174.14 L 723.76 170.10 L 730.38 145.04 L 767.90 188.93 L 773.93 195.99 L 873.57 217.46 L 887.85 227.34 L 919.84 231.49 L 929.54 239.72 L 933.15 239.35 L 931.88 241.40 L 936.25 259.35 L 927.73 270.04 L 937.01 278.26 L 952.49 288.77 L 956.53 302.00 L 965.01 329.78 L 950.78 334.62 L 946.32 336.12 L 948.94 342.01 L 942.05 342.25 L 944.76 358.11 L 944.31 376.32 L 941.75 403.65 L 940.25 419.67 L 936.61 458.44 L 935.59 469.36 L 932.70 482.25 L 924.43 496.41 L 913.98 503.60 L 909.53 503.76 L 903.69 506.45 L 898.09 512.99 L 874.64 515.77 L 868.62 519.34 L 860.74 526.04 L 853.97 535.65 L 846.23 549.67 L 836.16 575.30 L 826.97 643.95 L 811.99 633.08 L 809.71 637.82 L 807.12 668.77 L 789.53 670.67 L 772.75 677.27 L 756.53 680.72 L 753.53 683.32 L 749.68 686.66 L 739.02 707.07 L 715.59 684.65 L 701.10 693.03 L 695.52 698.37 L 669.92 714.62 L 661.82 717.95 Z "/>
<path class="zone" data-zone-id="11215810_112_01" d="M 956.98 453.64 L 956.70 454.15 L 919.20 524.80 L 844.19 664.12 L 819.94 708.42 L 775.16 790.47 L 770.07 799.80 L 759.06 815.95 L 758.34 816.86 L 766.69 829.14 L 741.45 838.22 L 701.37 852.63 L 696.53 854.37 L 696.12 854.50 L 674.49 861.45 L 633.70 874.55 L 601.29 884.67 L 563.39 896.51 L 559.06 897.79 L 557.20 889.46 L 557.08 888.89 L 551.01 861.50 L 550.65 859.20 L 544.98 823.09 L 541.61 810.23 L 537.19 798.02 L 535.83 794.65 L 532.51 789.16 L 527.17 781.41 L 526.96 781.19 L 526.11 780.30 L 523.02 777.55 L 518.47 769.17 L 515.29 761.12 L 512.93 755.24 L 511.52 752.65 L 505.35 742.59 L 505.16 742.28 L 505.51 739.26 L 511.17 738.28 L 512.16 734.42 L 520.01 728.76 L 521.43 721.65 L 526.54 696.12 L 527.54 697.19 L 549.15 693.34 L 559.61 691.47 L 560.40 693.76 L 568.16 716.25 L 573.81 732.63 L 578.54 747.18 L 598.89 745.13 L 620.44 742.96 L 642.64 731.95 L 657.63 731.55 L 661.82 717.95 L 669.92 714.62 L 695.52 698.37 L 701.10 693.03 L 715.59 684.65 L 739.02 707.07 L 749.68 686.66 L 753.53 683.32 L 756.53 680.72 L 772.75 677.27 L 789.53 670.67 L 807.12 668.77 L 809.71 637.82 L 811.99 633.08 L 826.97 643.95 L 836.16 575.30 L 846.23 549.67 L 853.97 535.65 L 860.74 526.04 L 868.62 519.34 L 874.64 515.77 L 898.09 512.99 L 903.69 506.45 L 909.53 503.76 L 913.98 503.60 L 924.43 496.41 L 932.70 482.25 L 935.59 469.36 L 936.61 458.44 L 940.25 419.67 L 941.75 403.65 L 944.31 376.32 L 944.76 358.11 L 942.05 342.25 L 948.94 342.01 L 946.32 336.12 L 950.78 334.62 L 965.01 329.78 L 956.53 302.00 L 952.49 288.77 L 937.01 278.26 L 927.73 270.04 L 936.25 259.35 L 931.88 241.40 L 933.15 239.35 L 937.09 238.94 L 946.89 245.39 L 949.07 244.48 L 975.15 233.66 L 986.78 238.57 L 997.98 234.26 L 1018.66 240.37 L 1024.54 242.10 L 1041.43 247.09 L 1049.06 242.22 L 1060.89 248.60 L 1063.91 248.64 L 1047.63 270.26 L 1004.00 366.33 L 956.98 453.64 Z "/>
<path class="zone" data-zone-id="11215810_112_02" d="M 559.06 897.79 L 557.12 898.36 L 486.92 919.15 L 480.62 921.12 L 478.29 912.27 L 477.80 910.40 L 477.06 907.75 L 473.33 893.92 L 466.97 875.31 L 465.59 871.27 L 463.28 863.29 L 457.08 841.52 L 455.94 837.79 L 454.84 834.99 L 454.18 833.67 L 453.46 832.24 L 453.23 831.76 L 452.13 829.49 L 448.84 820.84 L 446.91 814.84 L 446.26 812.81 L 445.28 808.67 L 445.19 808.09 L 444.69 804.79 L 444.23 795.53 L 443.46 791.81 L 441.63 787.44 L 438.57 776.20 L 437.90 771.60 L 437.68 766.94 L 437.81 764.72 L 438.34 760.30 L 438.48 758.48 L 438.82 752.49 L 438.89 751.38 L 439.96 740.50 L 440.15 739.36 L 440.50 737.23 L 448.12 740.03 L 468.43 743.42 L 478.56 743.93 L 505.51 739.26 L 505.16 742.28 L 505.35 742.59 L 511.52 752.65 L 512.93 755.24 L 515.29 761.12 L 518.47 769.17 L 523.02 777.55 L 526.11 780.30 L 526.96 781.19 L 527.17 781.41 L 532.51 789.16 L 535.83 794.65 L 537.19 798.02 L 541.61 810.23 L 544.98 823.09 L 550.65 859.20 L 551.01 861.50 L 557.08 888.89 L 557.20 889.46 L 559.06 897.79 Z "/>
<path class="zone" data-zone-id="11215810_112_03" d="M 480.62 921.12 L 408.35 943.70 L 399.80 946.37 L 327.11 968.49 L 264.14 989.39 L 222.30 1003.27 L 206.16 1008.62 L 202.12 1009.96 L 198.30 999.61 L 186.02 966.36 L 180.90 950.14 L 180.72 949.58 L 177.54 939.51 L 175.83 936.85 L 173.49 934.32 L 161.79 924.04 L 152.15 915.11 L 149.70 912.55 L 141.81 904.28 L 136.34 897.38 L 133.33 892.53 L 130.12 886.44 L 129.88 885.99 L 123.62 874.43 L 113.83 856.51 L 109.82 852.44 L 106.56 849.75 L 97.22 843.30 L 92.75 839.58 L 91.12 838.22 L 94.07 836.38 L 97.25 841.27 L 104.26 836.65 L 113.90 828.44 L 126.21 819.91 L 139.17 810.93 L 166.04 795.50 L 175.87 790.28 L 183.38 786.29 L 207.06 812.13 L 230.83 790.34 L 258.81 817.52 L 268.07 823.23 L 265.16 839.24 L 305.69 856.17 L 336.11 890.70 L 351.88 887.45 L 343.97 846.34 L 350.91 801.96 L 379.50 786.16 L 395.90 782.00 L 394.79 776.56 L 392.58 773.48 L 383.16 760.34 L 380.72 756.93 L 374.65 742.49 L 377.51 733.53 L 375.41 724.84 L 374.89 722.76 L 376.96 722.38 L 382.97 721.29 L 395.14 720.79 L 410.10 724.94 L 439.72 736.94 L 440.50 737.23 L 440.15 739.36 L 439.96 740.50 L 438.89 751.38 L 438.82 752.49 L 438.48 758.48 L 438.34 760.30 L 437.81 764.72 L 437.68 766.94 L 437.90 771.60 L 438.57 776.20 L 441.63 787.44 L 443.46 791.81 L 444.23 795.53 L 444.69 804.79 L 445.19 808.09 L 445.28 808.67 L 446.26 812.81 L 446.91 814.84 L 448.84 820.84 L 452.13 829.49 L 453.23 831.76 L 453.46 832.24 L 454.18 833.67 L 454.84 834.99 L 455.94 837.79 L 457.08 841.52 L 463.28 863.29 L 465.59 871.27 L 466.97 875.31 L 473.33 893.92 L 477.06 907.75 L 477.80 910.40 L 478.29 912.27 L 480.62 921.12 Z "/>
</svg>
