<svg xmlns="http://www.w3.org/2000/svg" viewBox="0 0 1155 1155" width="1155" height="1155">
<path class="zone" data-zone-id="11215770_010_01" d="M 545.96 1088.66 L 544.62 1089.16 L 544.62 1089.16 L 533.43 1075.79 L 535.75 1074.63 L 542.58 1071.22 L 547.72 1068.65 L 553.06 1065.99 L 558.14 1063.45 L 561.48 1061.79 L 562.70 1060.16 L 566.38 1055.25 L 570.11 1050.28 L 572.93 1046.52 L 571.12 1041.58 L 567.63 1032.07 L 565.09 1025.14 L 562.38 1017.76 L 562.09 1016.95 L 558.32 1006.53 L 548.92 980.52 L 551.23 970.80 L 563.20 920.47 L 565.49 913.06 L 565.87 911.44 L 569.12 897.55 L 571.90 885.37 L 571.38 880.61 L 571.11 878.10 L 570.47 872.28 L 570.32 870.85 L 570.12 869.06 L 569.41 862.57 L 568.84 857.32 L 568.26 852.03 L 567.69 846.78 L 567.11 841.48 L 566.65 837.24 L 565.79 829.30 L 565.10 823.02 L 557.98 823.82 L 557.04 823.92 L 555.75 824.07 L 554.92 824.16 L 552.17 824.47 L 546.41 825.18 L 542.56 825.65 L 542.06 825.70 L 539.17 826.03 L 538.55 826.10 L 537.51 826.22 L 536.61 826.32 L 531.19 826.92 L 527.56 827.33 L 525.97 827.51 L 525.59 828.17 L 525.24 828.79 L 522.89 832.97 L 520.13 837.87 L 518.22 841.26 L 517.99 841.67 L 516.89 843.61 L 516.85 843.65 L 516.42 844.50 L 515.06 847.03 L 514.30 848.43 L 513.33 850.24 L 512.22 852.31 L 511.61 853.45 L 509.13 858.06 L 507.13 861.90 L 505.83 864.41 L 505.12 865.76 L 503.96 867.98 L 502.22 871.32 L 501.09 873.48 L 499.15 877.21 L 496.61 882.09 L 494.15 886.80 L 492.15 890.64 L 490.14 894.49 L 487.28 899.98 L 484.45 905.41 L 481.34 911.36 L 477.60 917.21 L 472.97 924.43 L 446.32 921.01 L 437.53 914.72 L 433.38 911.72 L 431.47 910.33 L 424.63 905.36 L 423.87 904.80 L 423.21 904.35 L 421.99 903.52 L 416.33 899.70 L 410.21 895.57 L 404.93 892.01 L 399.32 888.22 L 393.66 884.41 L 392.50 883.62 L 384.52 874.12 L 374.20 862.87 L 360.00 847.41 L 359.36 839.27 L 354.08 771.83 L 351.12 769.66 L 318.70 760.70 L 297.03 754.18 L 289.70 751.06 L 278.50 746.53 L 271.80 698.10 L 268.99 682.59 L 264.50 657.80 L 268.13 642.88 L 291.19 630.28 L 291.19 623.08 L 268.09 625.23 L 268.19 623.09 L 268.31 620.64 L 267.29 613.95 L 266.19 612.52 L 264.60 610.46 L 263.18 608.62 L 242.11 607.45 L 219.75 606.22 L 221.16 621.78 L 221.86 629.52 L 219.01 629.79 L 216.05 630.06 L 215.75 630.09 L 214.06 630.13 L 213.65 630.14 L 213.06 628.28 L 212.85 627.63 L 211.75 624.14 L 211.70 613.07 L 211.68 607.52 L 211.60 595.78 L 211.55 589.24 L 211.48 579.23 L 211.76 577.93 L 212.30 575.48 L 217.13 574.86 L 222.30 574.19 L 222.43 574.00 L 223.93 571.84 L 225.48 569.62 L 227.13 567.25 L 239.03 562.72 L 250.63 558.30 L 252.14 557.86 L 255.31 556.95 L 257.94 556.20 L 262.54 552.64 L 264.03 551.48 L 263.43 543.50 L 262.97 537.40 L 261.43 536.18 L 260.85 535.72 L 260.71 512.16 L 260.69 509.17 L 262.19 498.57 L 267.10 463.83 L 267.39 461.78 L 275.11 462.58 L 281.40 466.00 L 283.82 465.00 L 284.45 462.40 L 284.84 462.29 L 287.38 461.54 L 292.69 461.69 L 293.14 461.85 L 293.85 462.11 L 296.68 463.14 L 297.82 460.74 L 283.00 456.37 L 271.72 452.99 L 272.83 451.38 L 274.45 448.64 L 276.41 445.43 L 278.17 441.56 L 278.93 437.61 L 278.96 433.38 L 279.12 427.89 L 279.94 423.94 L 279.50 418.84 L 278.16 406.64 L 277.18 402.14 L 274.99 397.91 L 275.49 392.68 L 276.58 387.80 L 276.77 386.81 L 263.04 380.13 L 253.26 375.38 L 247.38 372.52 L 239.34 372.64 L 238.81 370.68 L 227.36 328.30 L 226.27 323.94 L 225.73 323.95 L 224.61 323.97 L 222.51 324.00 L 213.84 324.01 L 195.89 324.04 L 194.84 324.04 L 194.85 322.75 L 194.89 313.56 L 194.97 299.32 L 195.03 282.50 L 195.03 280.81 L 211.57 280.88 L 212.75 280.81 L 214.55 280.71 L 214.91 280.69 L 228.81 279.87 L 241.33 283.56 L 275.43 293.60 L 312.31 304.46 L 312.31 304.46 L 312.87 304.57 L 313.18 304.48 L 415.60 272.20 L 415.68 272.17 L 415.93 272.08 L 416.87 271.66 L 417.11 271.55 L 430.77 265.42 L 448.44 257.50 L 448.86 257.34 L 448.92 257.32 L 460.65 254.45 L 478.07 250.20 L 515.34 242.70 L 530.49 244.13 L 532.15 244.64 L 552.68 250.80 L 553.74 250.77 L 553.78 250.77 L 553.78 250.77 L 553.78 250.77 L 560.29 235.19 L 560.39 234.34 L 562.86 228.05 L 562.97 227.31 L 565.15 208.12 L 565.40 207.85 L 567.45 205.56 L 588.28 208.61 L 589.47 208.10 L 590.42 207.69 L 606.37 197.35 L 614.75 191.89 L 619.25 188.97 L 636.42 175.96 L 638.95 174.05 L 682.00 149.75 L 682.12 149.59 L 682.66 148.84 L 692.57 133.41 L 694.01 132.20 L 716.83 129.14 L 734.03 126.84 L 735.33 126.25 L 735.35 126.24 L 735.35 126.24 L 735.89 125.96 L 736.40 125.70 L 769.93 97.65 L 795.19 76.51 L 795.19 76.51 L 795.56 76.20 L 795.64 76.11 L 796.09 75.62 L 803.14 65.98 L 803.25 65.84 L 803.30 66.08 L 803.30 66.09 L 803.47 66.87 L 804.15 74.79 L 802.10 67.71 L 796.23 75.66 L 795.22 76.53 L 804.87 83.01 L 805.03 84.90 L 805.40 90.02 L 818.65 111.83 L 831.55 133.26 L 838.44 144.75 L 839.51 146.69 L 839.51 146.69 L 839.51 146.69 L 842.71 148.42 L 866.47 161.34 L 883.90 158.34 L 908.53 154.16 L 933.47 175.67 L 934.20 176.30 L 934.44 176.76 L 934.54 176.95 L 937.82 181.22 L 951.25 198.75 L 960.17 207.18 L 942.97 257.75 L 925.72 282.67 L 925.68 282.95 L 923.33 286.23 L 917.73 324.81 L 913.71 346.04 L 911.26 358.95 L 905.95 382.53 L 900.36 407.67 L 893.17 440.48 L 888.14 462.88 L 883.77 485.08 L 878.78 510.59 L 874.58 533.33 L 872.18 545.63 L 871.85 547.32 L 871.55 549.34 L 867.86 574.30 L 865.44 591.15 L 864.55 619.28 L 864.32 625.80 L 845.76 654.63 L 838.89 675.31 L 837.55 679.34 L 836.41 682.84 L 835.34 686.10 L 835.78 701.09 L 836.56 706.48 L 837.20 725.07 L 836.68 726.39 L 824.41 760.88 L 815.12 787.31 L 813.07 803.08 L 811.09 818.63 L 811.64 821.45 L 812.73 826.61 L 818.27 853.28 L 823.94 866.08 L 830.60 881.02 L 837.72 896.26 L 842.71 906.61 L 845.45 910.96 L 852.48 916.70 L 859.20 924.26 L 829.68 943.84 L 826.81 947.18 L 780.41 967.38 L 769.14 972.28 L 726.17 977.83 L 679.22 1006.71 L 636.21 1044.47 L 624.33 1060.03 L 622.81 1060.75 L 615.10 1064.46 L 579.65 1076.20 L 576.25 1077.46 L 545.96 1088.66 Z M 515.17 242.99 L 534.04 245.69 L 553.45 251.55 L 553.53 251.34 L 534.60 245.63 L 532.22 245.07 L 515.55 242.91 L 515.17 242.99 Z M 565.43 208.12 L 565.40 208.35 L 587.50 210.92 L 587.76 210.73 L 565.43 208.12 Z "/>
</svg>
