<svg xmlns="http://www.w3.org/2000/svg" viewBox="0 0 1155 1155" width="1155" height="1155">
<path class="zone" data-zone-id="11215730_040_01" d="M 162.03 827.34 L 218.60 702.03 L 234.60 666.60 L 283.30 561.65 L 283.34 561.67 L 305.79 571.56 L 322.23 578.81 L 347.44 590.39 L 353.03 592.65 L 356.66 594.12 L 358.15 594.80 L 377.61 603.58 L 393.69 610.89 L 394.00 611.03 L 391.58 616.31 L 368.12 667.32 L 330.66 747.04 L 328.04 752.86 L 326.34 756.64 L 293.77 828.89 L 265.85 890.45 L 263.72 895.16 L 209.37 868.33 L 204.88 866.10 L 178.92 853.16 L 155.52 841.51 L 155.48 841.49 L 155.50 841.45 L 162.03 827.34 Z "/>
<path class="zone" data-zone-id="11215730_040_02" d="M 283.30 561.65 L 283.32 561.61 L 297.00 532.14 L 315.09 493.14 L 331.25 457.52 L 403.50 298.25 L 403.54 298.27 L 417.42 304.74 L 433.67 312.32 L 473.19 330.75 L 481.56 334.66 L 501.01 344.00 L 506.36 346.58 L 513.37 349.95 L 496.77 386.47 L 482.81 416.42 L 482.51 417.06 L 471.90 439.82 L 455.29 477.46 L 455.29 477.47 L 452.95 482.73 L 450.74 491.04 L 449.20 494.33 L 447.35 497.00 L 437.52 508.39 L 420.66 527.03 L 411.36 535.16 L 410.78 535.78 L 385.94 562.22 L 369.92 580.16 L 361.70 590.39 L 358.15 594.80 L 356.66 594.12 L 353.03 592.65 L 347.44 590.39 L 322.23 578.81 L 305.79 571.56 L 283.34 561.67 L 283.30 561.65 Z "/>
<path class="zone" data-zone-id="11215730_040_03" d="M 430.41 237.34 L 466.27 156.95 L 492.91 98.02 L 493.57 96.55 L 525.00 111.56 L 553.81 125.31 L 590.78 141.92 L 603.67 149.24 L 604.20 149.54 L 595.09 169.91 L 582.21 197.83 L 582.14 197.99 L 568.56 227.77 L 554.11 259.56 L 554.10 259.61 L 551.10 266.00 L 549.73 268.93 L 545.84 276.77 L 532.88 307.03 L 513.47 349.74 L 513.37 349.95 L 506.36 346.58 L 501.01 344.00 L 481.56 334.66 L 473.19 330.75 L 433.67 312.32 L 417.42 304.74 L 403.54 298.27 L 403.50 298.25 L 403.52 298.21 L 403.56 298.11 L 403.72 297.74 L 430.41 237.34 Z "/>
<path class="zone" data-zone-id="11215730_040_04" d="M 604.20 149.54 L 617.19 156.84 L 656.66 176.18 L 663.20 179.50 L 663.58 179.70 L 698.97 197.67 L 696.25 203.49 L 693.28 209.82 L 675.95 246.81 L 667.97 263.84 L 667.77 264.27 L 657.20 287.79 L 638.75 328.83 L 638.53 329.30 L 624.93 358.50 L 610.75 388.91 L 601.20 390.69 L 592.61 388.35 L 582.16 383.68 L 576.62 381.21 L 556.55 371.35 L 555.31 370.74 L 537.88 362.18 L 518.83 352.82 L 513.37 349.95 L 513.47 349.74 L 532.88 307.03 L 545.84 276.77 L 549.73 268.93 L 551.10 266.00 L 554.10 259.61 L 554.11 259.56 L 568.56 227.77 L 582.14 197.99 L 582.21 197.83 L 595.09 169.91 L 604.20 149.54 Z "/>
<path class="zone" data-zone-id="11215730_040_05" d="M 699.15 197.77 L 745.59 221.07 L 762.63 229.40 L 762.71 229.44 L 798.20 246.79 L 799.94 247.57 L 801.41 265.15 L 803.12 277.94 L 805.46 295.40 L 807.99 316.24 L 808.01 316.41 L 810.40 336.15 L 811.79 345.75 L 812.61 351.61 L 813.06 354.76 L 814.07 361.81 L 814.82 368.42 L 815.30 372.66 L 815.77 376.81 L 816.57 382.88 L 818.36 390.35 L 821.14 395.65 L 831.91 409.45 L 839.27 418.59 L 857.60 437.73 L 857.78 437.92 L 873.18 454.01 L 894.68 474.07 L 898.52 477.65 L 903.65 482.19 L 915.63 492.79 L 921.18 497.40 L 929.25 504.12 L 928.63 505.43 L 927.22 508.98 L 923.59 518.10 L 898.81 581.12 L 894.83 591.11 L 891.47 599.53 L 887.42 609.83 L 876.63 637.27 L 875.28 640.73 L 867.07 661.78 L 860.87 677.68 L 858.93 682.67 L 815.05 793.92 L 805.22 789.60 L 795.60 785.37 L 776.69 776.83 L 776.49 776.74 L 756.20 767.60 L 740.09 760.73 L 731.20 756.93 L 711.86 748.68 L 688.75 738.36 L 670.43 730.17 L 670.30 730.11 L 645.15 718.87 L 623.83 709.86 L 623.52 709.73 L 610.23 704.09 L 596.09 698.17 L 595.84 698.07 L 594.72 697.60 L 563.15 684.41 L 536.00 672.89 L 535.96 672.87 L 508.16 661.07 L 475.13 646.70 L 474.49 646.44 L 463.79 642.11 L 463.69 642.07 L 437.16 630.73 L 420.22 622.67 L 414.06 619.98 L 394.00 611.03 L 393.69 610.89 L 377.61 603.58 L 358.15 594.80 L 361.70 590.39 L 369.92 580.16 L 385.94 562.22 L 410.78 535.78 L 411.36 535.16 L 420.66 527.03 L 437.52 508.39 L 447.35 497.00 L 449.20 494.33 L 450.74 491.04 L 452.95 482.73 L 455.29 477.47 L 455.29 477.46 L 471.90 439.82 L 482.51 417.06 L 482.81 416.42 L 496.77 386.47 L 513.37 349.95 L 518.83 352.82 L 537.88 362.18 L 555.31 370.74 L 556.55 371.35 L 576.62 381.21 L 582.16 383.68 L 592.61 388.35 L 601.20 390.69 L 610.75 388.91 L 624.93 358.50 L 638.53 329.30 L 638.75 328.83 L 657.20 287.79 L 667.77 264.27 L 667.97 263.84 L 675.95 246.81 L 693.28 209.82 L 696.25 203.49 L 698.97 197.67 L 699.15 197.77 Z "/>
<path class="zone" data-zone-id="11215730_040_06" d="M 799.94 247.57 L 815.52 254.59 L 854.57 273.84 L 854.90 274.00 L 863.89 278.21 L 894.03 293.39 L 903.78 298.30 L 935.69 314.57 L 936.38 314.92 L 963.99 329.10 L 990.95 341.96 L 1001.07 346.78 L 991.95 367.18 L 979.18 395.51 L 975.47 403.74 L 972.22 410.94 L 962.60 432.13 L 958.57 441.01 L 958.22 441.78 L 931.96 498.38 L 929.25 504.12 L 921.18 497.40 L 915.63 492.79 L 903.65 482.19 L 898.52 477.65 L 894.68 474.07 L 873.18 454.01 L 857.78 437.92 L 857.60 437.73 L 839.27 418.59 L 831.91 409.45 L 821.14 395.65 L 818.36 390.35 L 816.57 382.88 L 815.77 376.81 L 815.30 372.66 L 814.82 368.42 L 814.07 361.81 L 813.06 354.76 L 812.61 351.61 L 811.79 345.75 L 810.40 336.15 L 808.01 316.41 L 807.99 316.24 L 805.46 295.40 L 803.12 277.94 L 801.41 265.15 L 799.94 247.57 Z "/>
<path class="zone" data-zone-id="11215730_040_07" d="M 474.49 646.44 L 471.29 653.48 L 466.14 664.76 L 458.55 681.07 L 457.37 683.60 L 435.68 730.12 L 419.58 765.54 L 408.18 790.62 L 408.18 790.63 L 407.00 793.26 L 403.10 802.00 L 400.51 807.79 L 365.57 883.00 L 346.02 924.92 L 344.00 929.07 L 341.63 933.93 L 317.37 921.56 L 291.78 908.98 L 276.65 901.54 L 263.72 895.16 L 265.85 890.45 L 293.77 828.89 L 326.34 756.64 L 328.04 752.86 L 330.66 747.04 L 368.12 667.32 L 391.58 616.31 L 394.00 611.03 L 414.06 619.98 L 420.22 622.67 L 437.16 630.73 L 463.69 642.07 L 463.79 642.11 L 474.49 646.44 Z "/>
<path class="zone" data-zone-id="11215730_040_08" d="M 341.63 933.93 L 352.84 939.64 L 400.45 963.89 L 417.82 972.56 L 414.87 976.57 L 410.87 981.99 L 409.10 983.57 L 407.26 985.04 L 327.32 1026.34 L 321.86 1029.17 L 276.45 1052.56 L 265.12 1058.40 L 255.10 1035.56 L 242.33 985.40 L 239.36 960.93 L 238.09 950.98 L 237.05 948.88 L 230.01 934.59 L 206.28 893.99 L 197.66 878.97 L 192.40 865.89 L 183.93 859.72 L 177.88 855.29 L 153.97 844.86 L 153.93 844.85 L 153.94 844.80 L 155.48 841.49 L 155.52 841.51 L 178.92 853.16 L 204.88 866.10 L 209.37 868.33 L 263.72 895.16 L 276.65 901.54 L 291.78 908.98 L 317.37 921.56 L 341.63 933.93 Z "/>
</svg>
