<?xml version="1.0" encoding="UTF-8"?>
<svg id="_레이어_1" data-name="레이어_1" xmlns="http://www.w3.org/2000/svg" version="1.1" viewBox="0 0 100 100">
  <!-- Generator: Adobe Illustrator 30.2.0, SVG Export Plug-In . SVG Version: 2.1.1 Build 105)  -->
  <defs>
    <style>
      .st0 {
        fill: #6f41b0;
      }
    </style>
  </defs>
  <path class="st0" d="M47.21.18c-13.33,1.02-25.27,10.17-29.47,22.63-2.08,6.19-2.25,13.47-.52,22.5,2.55,13.43,10.04,29.2,20.3,42.5,5.32,6.95,11.38,12.67,12.85,12.16,1.69-.59,6.49-5.13,10.08-9.58,12.12-14.92,20.38-32.16,22.81-47.67,2.21-14.15-.69-24.49-9.26-32.88-4.89-4.75-10.73-7.84-17.27-9.15-1.56-.25-6.4-.76-7.18-.68-.17,0-1.21.08-2.34.17ZM55.6,14.04c6.92,2.03,11.94,6.95,14.11,13.81.52,1.74.56,2.12.56,5.51s-.04,3.77-.61,5.51c-2.12,6.74-7.18,11.74-14.06,13.81-1.77.55-2.16.59-5.63.59s-3.85-.04-5.63-.55c-5.8-1.74-10.21-5.38-12.85-10.59-2.21-4.41-2.64-10.42-1.04-15.04,2.42-6.91,8.18-11.91,15.45-13.43.95-.21,2.42-.25,4.59-.21,2.73.04,3.51.13,5.11.59Z"/>
  <path class="st0" d="M48.29,23.57c-5.28.85-9.04,5.93-8.31,11.1.65,4.41,4.15,7.84,8.66,8.47,4.28.59,8.57-1.65,10.43-5.47,1.38-2.92,1.38-5.72,0-8.69-1.38-2.84-4.24-4.96-7.57-5.47-1.56-.21-1.6-.21-3.2.04Z"/>
</svg>